<svg width="60" height="46" viewBox="0 0 60 46" fill="none" xmlns="http://www.w3.org/2000/svg">
<path d="M41.4539 39.0884C41.4539 39.4684 41.4833 39.8485 41.4497 40.2244C41.3866 40.8853 41.5337 41.3397 42.1932 41.7403C43.3232 42.426 43.5794 43.8057 42.9451 44.921C42.4158 45.8546 41.1052 46.2181 39.5803 45.8587C38.8662 45.6893 38.1562 44.6938 38.2655 43.7272C38.3537 42.9506 38.047 42.5417 37.4757 42.1121C35.3627 40.5259 33.2959 38.8819 31.1787 37.2998C30.9057 37.0974 30.4184 36.99 30.0949 37.0767C28.5112 37.4898 27.482 37.0478 26.7133 35.6268C26.5495 35.3253 26.1462 35.0196 25.8059 34.9577C23.3653 34.5157 20.9162 34.1067 18.463 33.7597C18.0681 33.706 17.5262 33.9002 17.2195 34.1646C16.3584 34.9122 15.3082 35.2055 14.3294 34.8131C13.3254 34.4124 12.7835 33.4623 12.7583 32.2479C12.7499 31.9381 12.5609 31.5291 12.3172 31.3474C11.0612 30.418 9.77575 29.5216 8.4567 28.6748C8.17105 28.4889 7.68796 28.4476 7.33929 28.5302C6.11267 28.8194 5.10028 28.5509 4.42395 27.6628C3.78123 26.8159 3.80223 25.7874 4.36094 24.7547C4.54157 24.416 4.60458 23.9244 4.51217 23.5527C4.32313 22.7885 3.94086 22.0739 3.73502 21.3138C3.48718 20.3968 3.14271 19.7565 2.03791 19.5334C1.03812 19.331 0.420604 18.1001 0.513022 17.0798C0.618041 15.9521 1.4666 14.9648 2.65542 14.874C3.45777 14.8161 3.80223 14.4526 4.11729 13.8165C4.7138 12.6103 5.42794 11.462 6.00345 10.2475C6.17148 9.89641 6.16307 9.34289 6.00345 8.98352C5.52456 7.89713 5.65898 6.68269 6.46133 5.92676C7.33509 5.10887 8.52812 5.0593 9.66233 5.66652C10.011 5.85241 10.5823 5.88959 10.952 5.74501C12.6701 5.06757 14.3672 4.32816 16.0349 3.54332C16.3668 3.38635 16.6986 2.96088 16.7743 2.60564C17.0137 1.50686 17.6354 0.783981 18.7066 0.523744C19.8408 0.251114 20.7356 0.688974 21.4497 1.60187C21.6598 1.87037 22.1134 2.11408 22.4495 2.10995C25.3186 2.06451 28.1878 1.96951 31.0527 1.84558C31.3552 1.83319 31.7458 1.56469 31.9181 1.30445C32.5566 0.329599 33.4136 -0.133045 34.573 0.0404462C35.6988 0.209807 36.3247 0.912034 36.6524 1.96951C36.7448 2.26279 37.0724 2.59325 37.3707 2.69652C38.7822 3.16329 40.2188 3.60528 41.6681 3.99357C41.9958 4.08032 42.4872 3.98531 42.7645 3.78703C43.6635 3.13024 44.5834 2.90718 45.6 3.41114C46.604 3.91096 47.0199 4.7495 47.0199 5.86067C47.0199 6.19113 47.2593 6.6166 47.5282 6.82726C48.3179 7.45101 49.1875 7.97148 50.0024 8.56631C50.8426 9.17766 51.5609 9.74357 52.8002 9.21484C53.7453 8.81002 54.7157 9.39659 55.2996 10.2888C55.8919 11.1852 55.9214 12.1683 55.245 12.9821C54.7367 13.5934 54.7703 14.0726 55.0266 14.7376C55.5727 16.1504 56.0684 17.5837 56.5095 19.0295C56.6943 19.6367 57.0136 19.9052 57.6227 20.0663C58.8535 20.3885 59.5718 21.4295 59.4878 22.5985C59.4038 23.7468 58.5258 24.7382 57.2782 24.858C56.5725 24.9282 56.2532 25.2421 55.9676 25.8039C55.1904 27.3447 54.3839 28.8689 53.5563 30.3808C53.2875 30.8723 53.216 31.2482 53.5353 31.7894C54.1738 32.884 53.8168 34.1852 52.8128 34.9122C51.8214 35.6351 50.4099 35.5938 49.5698 34.652C49.0657 34.0861 48.5574 34.0324 47.9105 34.1109C47.1837 34.1976 46.4528 34.2719 45.7219 34.3339C44.6969 34.4248 43.5963 34.367 43.2182 35.6558C43.1846 35.7714 43.0502 35.916 42.9325 35.949C41.1808 36.4282 41.4707 37.8203 41.4539 39.0884ZM38.6603 14.6963C39.2316 14.7418 39.6055 14.1841 39.2274 13.4695C37.8202 10.7845 36.3919 8.11193 34.9468 5.4476C34.5394 4.69993 33.5018 4.65036 32.9935 5.35259C31.5778 7.31056 30.1832 9.28506 28.8053 11.2678C28.381 11.8792 28.7381 12.8664 29.4396 12.9986C32.4516 13.5769 35.4761 14.1139 38.6603 14.6963ZM26.5117 11.0737C27.0956 10.6399 27.6123 10.4086 27.9105 10.0121C29.2128 8.26477 30.4646 6.48028 31.6954 4.68754C31.8803 4.41491 32.0273 3.94813 31.9139 3.69616C31.8047 3.46484 31.3174 3.27482 31.0023 3.27895C28.171 3.32852 25.3397 3.42353 22.5083 3.51854C21.4833 3.55158 21.1263 4.24555 21.706 5.08409C22.8696 6.75704 24.0374 8.42999 25.2472 10.074C25.5077 10.4293 25.9614 10.6523 26.5117 11.0737ZM24.4197 11.4785C24.3693 11.3917 24.3105 11.2678 24.2348 11.1563C22.962 9.34702 21.706 7.52536 20.4037 5.73675C19.929 5.07996 19.1099 5.21627 18.7822 5.98872C17.6774 8.58696 16.5894 11.1976 15.535 13.8165C15.43 14.0767 15.4678 14.5311 15.64 14.7253C15.7997 14.907 16.2492 14.9772 16.5264 14.9111C18.673 14.4237 20.807 13.8908 22.941 13.3745C23.6005 13.2134 24.4491 12.1518 24.4197 11.4785ZM31.3132 25.3743C30.5906 24.7258 30.1579 23.9575 28.9901 24.1681C26.8981 24.5482 24.7599 24.6969 22.6511 24.986C22.3739 25.0232 21.9832 25.2587 21.9076 25.4859C21.8278 25.7296 21.9748 26.1468 22.1681 26.3616C23.903 28.2493 25.6673 30.1123 27.4316 31.9753C28.1332 32.7147 29.0069 32.5453 29.322 31.5911C29.9983 29.5381 30.641 27.4686 31.3132 25.3743ZM22.2311 23.5816C24.7473 23.3007 27.1376 23.0446 29.5278 22.7513C30.1495 22.6769 30.7755 21.2518 30.4436 20.719C29.4984 19.1947 28.5448 17.6787 27.5745 16.171C27.083 15.4027 26.0412 15.4068 25.5455 16.1917C24.239 18.2612 22.9578 20.3472 21.6892 22.4374C21.2943 23.0941 21.5968 23.5733 22.2311 23.5816ZM43.8903 15.8158C43.8861 15.919 43.8777 16.0223 43.8735 16.1214C44.176 16.2702 44.47 16.4395 44.7767 16.5676C47.8306 17.8481 50.8804 19.1369 53.9512 20.3885C54.3503 20.5496 54.8418 20.4959 55.2954 20.5413C55.2408 20.1241 55.2492 19.6904 55.119 19.298C54.6191 17.7944 54.0814 16.3032 53.5395 14.8161C53.4513 14.5724 53.3085 14.2048 53.1236 14.1593C52.0062 13.8785 50.9854 13.0523 49.679 13.8165C48.8262 14.3163 47.776 14.4857 46.8183 14.812C45.8395 15.1425 44.8649 15.4812 43.8903 15.8158ZM32.3298 33.8837C34.2117 33.7763 36.0937 33.6771 37.9756 33.5449C38.2865 33.5243 38.799 33.3797 38.841 33.2021C38.9166 32.9047 38.7696 32.4792 38.5721 32.2066C37.106 30.1577 35.6148 28.1254 34.0983 26.1096C33.8798 25.8204 33.4262 25.4569 33.1699 25.5189C32.8801 25.585 32.5986 26.0559 32.481 26.4029C31.8719 28.2287 31.309 30.0669 30.7377 31.905C30.431 32.9047 31.2586 33.9332 32.3298 33.8837ZM43.109 17.4061C43.0207 17.5176 42.9325 17.6292 42.8485 17.7366C43.3862 19.1038 43.9407 20.4629 44.4532 21.8384C44.8229 22.8339 45.0875 23.8873 46.4738 23.9451C46.625 23.9492 46.7636 24.1558 46.9233 24.1929C47.3518 24.2921 47.8348 24.5069 48.2213 24.4036C50.0319 23.9038 51.8214 23.3131 53.6109 22.743C53.8924 22.6522 54.1486 22.5035 54.7115 22.2473C50.662 20.5579 46.8855 18.9841 43.109 17.4061ZM29.0447 14.3576C28.9733 14.3865 28.6793 14.4237 28.5995 14.5724C28.5154 14.7335 28.5743 15.0351 28.6793 15.2086C29.6875 16.8526 30.7041 18.4925 31.7584 20.1076C32.2079 20.7975 34.1361 21.0246 34.762 20.5042C36.039 19.4426 37.3203 18.381 38.5763 17.2946C38.7738 17.1211 38.9838 16.7658 38.9292 16.5634C38.8704 16.3528 38.5175 16.1256 38.2613 16.076C35.2493 15.4977 32.2331 14.9483 29.0447 14.3576ZM19.2989 22.3878C19.782 22.078 20.2777 21.9251 20.4919 21.5947C21.7858 19.5954 23.025 17.5631 24.2558 15.5266C24.3903 15.3036 24.3567 14.9814 24.3987 14.7046C24.1424 14.6881 23.8694 14.6096 23.6299 14.6633C21.5589 15.1425 19.4922 15.6505 17.4254 16.1462C15.8291 16.5304 15.4216 17.5879 16.3626 18.9138C17.0011 19.8143 17.6186 20.7355 18.2907 21.6112C18.505 21.8962 18.8704 22.0697 19.2989 22.3878ZM17.6144 4.67101C17.354 4.6421 17.2363 4.59253 17.1565 4.62558C15.1738 5.47238 13.191 6.31505 11.2208 7.18664C10.6831 7.42622 10.1664 9.45855 10.4857 9.96663C11.1788 11.0778 11.8635 12.1931 12.5987 13.2754C12.7793 13.5439 13.1868 13.8785 13.4262 13.8371C13.7371 13.7834 14.1068 13.4282 14.2412 13.1184C15.3166 10.6276 16.35 8.11606 17.3834 5.60869C17.501 5.32367 17.5346 5.0056 17.6144 4.67101ZM43.8105 24.2921C43.7349 23.9492 43.7307 23.879 43.7055 23.817C43.0249 22.0904 42.3654 20.3513 41.6429 18.6412C41.3698 17.9927 40.1852 17.8192 39.6013 18.2984C38.1814 19.4674 36.77 20.6446 35.3753 21.8384C34.72 22.4002 34.7914 22.8504 35.6022 23.0652C37.9588 23.689 40.3238 24.3003 42.7099 24.8249C43.046 24.8993 43.4954 24.4573 43.8105 24.2921ZM9.13303 25.2297C11.6703 24.8952 14.0563 24.5936 16.434 24.2549C17.1691 24.1475 17.6228 23.2181 17.2405 22.648C16.4508 21.479 15.6358 20.3224 14.7957 19.1865C14.384 18.6329 12.9137 18.6123 12.4937 19.1617C11.2166 20.8346 9.96478 22.5241 8.73395 24.2301C8.60793 24.4077 8.59533 24.7506 8.67934 24.9571C8.74236 25.1141 9.04481 25.1802 9.13303 25.2297ZM26.9906 33.6895C26.5747 33.1938 26.3772 32.9336 26.1546 32.6981C24.6129 31.0541 23.0124 29.4638 21.5421 27.7578C20.8994 27.0101 20.2441 26.8779 19.3787 27.0803C18.7906 27.2166 17.0137 30.3973 17.2573 30.9426C17.627 31.7687 18.0471 32.4792 19.1771 32.4709C19.9332 32.4668 20.6936 32.7023 21.4497 32.8221C23.1973 33.0988 24.9364 33.3673 26.9906 33.6895ZM36.2239 3.82834C36.2239 4.22489 36.1189 4.56775 36.2407 4.79494C37.6311 7.45514 39.0552 10.0988 40.4877 12.7384C40.6011 12.9449 40.8657 13.073 41.059 13.2382C41.248 13.0193 41.5211 12.8334 41.6051 12.5814C41.9579 11.5363 42.2184 10.4623 42.5839 9.4255C42.9073 8.50022 43.2518 7.6245 42.315 6.8314C42.1512 6.69095 42.168 6.36049 42.021 6.187C41.7605 5.87719 41.4875 5.4889 41.1346 5.35672C39.9248 4.91473 38.6729 4.57188 37.4379 4.19185C37.1396 4.1051 36.8414 4.01423 36.2239 3.82834ZM31.4308 35.3749C31.6114 35.6888 31.6408 35.8003 31.7122 35.8582C34.0941 37.7129 36.4717 39.5717 38.8746 41.4016C39.4039 41.8064 39.9752 41.5173 40.013 40.844C40.0718 39.8485 40.0634 38.8529 40.0928 37.8574C40.16 35.6805 39.2526 34.8172 37.0808 34.9948C36.3163 35.0568 35.5476 35.0898 34.7788 35.1435C33.716 35.2138 32.6532 35.2922 31.4308 35.3749ZM50.8972 11.3463C50.62 10.9539 50.5065 10.6606 50.2881 10.5036C49.0447 9.61139 47.7886 8.73567 46.5116 7.88887C45.9361 7.50471 44.4994 8.0417 44.2936 8.70262C43.8357 10.1443 43.3862 11.5941 42.9619 13.0482C42.7099 13.9074 43.3148 14.5022 44.1718 14.2254C46.1293 13.5893 48.0827 12.9366 50.0151 12.2303C50.3511 12.1064 50.5696 11.6892 50.8972 11.3463ZM34.888 24.3499C34.8418 24.4243 34.7914 24.4986 34.7452 24.573C36.4423 26.8697 38.1268 29.1787 39.845 31.4589C40.2566 32.0083 41.248 31.8018 41.6303 31.1119C42.1596 30.1495 42.6679 29.1705 43.1552 28.1832C43.4576 27.5677 43.0081 26.4318 42.357 26.2583C39.8702 25.6015 37.3791 24.9819 34.888 24.3499ZM50.4351 30.6658C50.9728 30.4799 51.8256 30.4551 52.0608 30.0668C53.1362 28.303 54.0436 26.4401 54.9888 24.6019C55.0686 24.449 55.077 24.164 54.9804 24.0566C54.888 23.9492 54.6023 23.9244 54.4343 23.974C52.4347 24.5854 50.4393 25.2091 48.4482 25.8494C48.0155 25.9898 47.3434 27.6008 47.6122 27.9271C48.3389 28.807 49.1245 29.6373 49.9058 30.4717C50.0067 30.5791 50.2125 30.5873 50.4351 30.6658ZM10.2084 17.3441C8.81797 17.4846 7.50312 17.6044 6.18828 17.7572C5.94043 17.7861 5.61277 17.8811 5.47835 18.0588C4.85663 18.889 4.40295 19.7235 5.04147 20.814C5.45314 21.5121 5.60857 22.3547 5.90683 23.1231C6.18828 23.8459 7.05364 24.0194 7.52833 23.4081C8.83477 21.7186 10.1076 20.0002 11.3678 18.2777C11.7753 17.72 11.5611 17.3772 10.868 17.3483C10.6243 17.3318 10.3807 17.3441 10.2084 17.3441ZM5.71779 16.3404C7.50733 16.1917 9.07842 16.0801 10.6453 15.9273C11.3678 15.8571 11.8593 14.8616 11.4729 14.2296C10.7419 13.0193 9.98579 11.8172 9.20444 10.6358C8.75496 9.95424 7.82659 9.9625 7.43171 10.6606C6.61676 12.1022 5.83541 13.5604 5.07507 15.0309C4.73061 15.696 5.18429 16.3362 5.71779 16.3404ZM8.78436 26.692C8.90619 27.0307 8.91039 27.2084 8.9986 27.2703C10.4437 28.2948 11.8131 29.4844 13.3968 30.2362C14.0227 30.5336 15.3628 30.1123 15.9551 29.5712C16.7028 28.8855 17.0473 27.7578 17.5136 26.7994C17.7992 26.217 17.3498 25.618 16.6902 25.6593C16.2029 25.6924 15.7241 25.7874 15.2368 25.8535C13.1322 26.1261 11.0276 26.3987 8.78436 26.692ZM45.6546 28.4972C44.6338 28.3319 44.3188 28.9309 44.0163 29.6042C43.7937 30.104 43.4618 30.5667 43.277 31.0789C43.1342 31.4754 42.9871 31.9753 43.109 32.3429C43.3232 32.9914 43.8903 33.1897 44.617 33.0823C45.7513 32.9088 46.9065 32.851 48.0449 32.694C48.3347 32.6527 48.7548 32.4668 48.8262 32.252C48.9229 31.967 48.8388 31.5126 48.6498 31.2689C48.0533 30.513 47.3938 29.7984 46.7048 29.1168C46.4234 28.84 46.0075 28.6996 45.6546 28.4972Z" fill="white"/>
</svg>
