<svg width="60" height="28" viewBox="0 0 60 28" fill="none" xmlns="http://www.w3.org/2000/svg">
<path fill-rule="evenodd" clip-rule="evenodd" d="M60 12.7985V14.9696C60 15.1353 59.9337 15.2844 59.8177 15.4005C59.7017 15.5165 59.5526 15.5828 59.3869 15.5828H48.2187C47.6139 15.5828 47.0588 15.2596 46.7606 14.7375L44.1756 10.2131L36.2055 27.0181C35.9238 27.6313 35.3024 28.0125 34.623 27.9959C33.952 27.9793 33.3471 27.565 33.0986 26.9352L24.3993 5.87929L17.1582 21.2756C16.8931 21.8473 16.3297 22.2119 15.7001 22.2451C15.0704 22.2699 14.4822 21.9468 14.1674 21.4081L10.7954 15.591H0.604805C0.273405 15.5828 0 15.3093 0 14.9778V12.7985C0 12.4588 0.273405 12.1936 0.604805 12.1936H11.773C12.4109 12.1936 12.9992 12.5582 13.2891 13.13L15.4764 16.9169L22.966 0.973699C23.2477 0.368786 23.8691 -0.0123914 24.5402 0.0041816C25.2113 0.0207545 25.8078 0.426792 26.0646 1.04828L34.7722 22.1539L42.4938 5.87929C42.7589 5.29095 43.3306 4.90977 43.9768 4.88492C44.623 4.86006 45.2196 5.1998 45.5344 5.76328L49.2461 12.235H59.4035C59.7183 12.2184 59.9834 12.4753 60 12.7985Z" fill="url(#paint0_linear_1478_101)"/>
<defs>
<linearGradient id="paint0_linear_1478_101" x1="0" y1="13.9958" x2="60.0005" y2="13.9958" gradientUnits="userSpaceOnUse">
<stop stop-color="#4F6157"/>
<stop offset="0.5674" stop-color="#152F27"/>
<stop offset="0.9944" stop-color="#4F6157"/>
</linearGradient>
</defs>
</svg>
