<svg width="34" height="60" viewBox="0 0 34 60" fill="none" xmlns="http://www.w3.org/2000/svg">
<g clip-path="url(#clip0_1478_105)">
<path d="M3.43828e-09 30.0895C2.44296e-09 21.5239 1.44764e-09 12.9583 4.5232e-10 4.39263C1.31216e-10 1.62923 1.10024 0.5 3.78821 0.5C12.6169 0.5 21.4501 0.5 30.2789 0.5C32.8998 0.5 34 1.63382 34 4.34214C34 21.4734 34 38.6046 34 55.7359C34 58.3754 32.9132 59.4954 30.3281 59.5C21.4233 59.5046 12.5185 59.5046 3.61379 59.5C1.10918 59.5 0.00447251 58.3616 6.42477e-09 55.791C5.42891e-09 47.2208 4.43359e-09 38.6551 3.43828e-09 30.0895ZM16.356 50.6957C16.3738 50.4019 16.4052 50.177 16.4052 49.952C16.4096 38.3981 16.4141 26.8487 16.3828 15.2948C16.3828 14.8541 16.0518 14.3446 15.7432 13.9865C14.9918 13.1143 14.9426 11.9943 15.7253 11.2231C16.4588 10.4978 17.6306 10.5208 18.3373 11.269C19.0484 12.0264 18.9768 13.1097 18.3015 13.9636C17.9705 14.3859 17.6709 14.9872 17.6664 15.5105C17.6262 26.9084 17.6351 38.3063 17.6351 49.7087C17.6351 50.0393 17.6798 50.3744 17.7067 50.7324C18.3462 50.7324 18.9098 50.7324 19.5404 50.7324C19.5404 47.1198 19.5135 43.6081 19.5672 40.0919C19.5762 39.5549 19.849 38.9076 20.2068 38.5083C21.4144 37.1541 22.6264 35.7816 23.9995 34.6202C25.5783 33.2844 26.2983 31.7512 25.9897 29.658C25.8645 28.818 26.0658 28.0009 25.1802 27.3445C24.402 26.7753 24.5496 25.49 25.2428 24.783C25.9137 24.0991 27.0855 24.0761 27.7832 24.728C28.5435 25.4349 28.7403 26.61 27.9621 27.2664C27.081 28.0055 27.1123 28.8547 27.1302 29.8003C27.1392 30.4522 27.0855 31.104 27.1436 31.7512C27.2331 32.7014 26.9334 33.3946 26.2402 34.0648C24.5809 35.6576 22.9976 37.3331 21.4144 39.0086C21.1281 39.3116 20.8195 39.766 20.8151 40.1516C20.7793 43.5944 20.8061 47.0372 20.824 50.4753C20.824 50.5717 20.9179 50.6681 20.9537 50.737C22.045 51.0583 22.4833 50.714 22.4073 49.5251C22.3178 48.0792 22.4878 46.6102 22.3581 45.1689C22.2105 43.5072 22.6264 42.2081 23.9458 41.1753C24.2455 40.9411 24.4244 40.3628 24.4333 39.9359C24.4557 38.6781 25.14 37.8197 26.276 37.8059C27.327 37.7921 28.1321 38.5955 28.1455 39.6604C28.1589 40.8034 27.3225 41.5746 26.0971 41.5654C25.2876 41.5608 23.6461 42.8232 23.6238 43.6449C23.5612 45.9997 23.6014 48.3592 23.6014 50.7232C26.267 50.7232 28.7761 50.7232 31.2762 50.7232C31.2762 35.7678 31.2762 20.9134 31.2762 6.03139C21.7319 6.03139 12.2815 6.03139 2.77743 6.03139C2.77743 20.9776 2.77743 35.8642 2.77743 50.8242C4.09682 50.8242 5.32228 50.8242 6.54775 50.8242C7.79558 50.8242 9.04788 50.8242 10.3807 50.8242C10.3807 48.3546 10.4075 46.064 10.3673 43.778C10.3539 42.8737 8.81531 41.5517 7.91634 41.5608C6.66404 41.5746 5.85898 40.8402 5.85898 39.6742C5.85898 38.6184 6.66851 37.7922 7.70613 37.7922C8.81979 37.7967 9.54433 38.6781 9.56222 39.9129C9.56669 40.3077 9.70534 40.8723 9.97816 41.0697C11.463 42.1576 11.7582 43.6219 11.6464 45.3754C11.5301 47.1519 11.6196 48.9422 11.6196 50.7462C12.2234 50.7462 12.6527 50.7462 13.2341 50.7462C13.2341 48.8182 13.2431 46.9545 13.2297 45.0908C13.2207 43.296 13.659 41.3038 13.0374 39.7614C12.4202 38.2191 10.8592 36.9751 9.49961 35.8734C7.31255 34.0969 6.34202 31.9624 6.81163 29.1347C6.92344 28.4737 6.75349 27.9366 6.17653 27.4455C5.39384 26.7799 5.45646 25.4854 6.16312 24.783C6.84741 24.0991 8.01026 24.0715 8.70797 24.7234C9.44146 25.4073 9.56669 26.734 8.784 27.3812C8.11313 27.932 8.06393 28.5471 8.08182 29.2862C8.09971 30.0528 8.00132 30.8286 8.11313 31.5768C8.20258 32.1644 8.40384 32.8437 8.784 33.2615C10.3896 35.015 12.116 36.6583 13.7217 38.4164C14.1063 38.8342 14.3791 39.5273 14.3925 40.1011C14.4596 43.1216 14.4238 46.142 14.4238 49.1671C14.4238 50.9986 14.4373 51.0078 16.356 50.6957ZM16.9687 57.0442C16.9866 56.9799 17.0045 56.911 17.0179 56.8468C17.4607 56.8468 17.9213 56.9156 18.3462 56.8238C18.6235 56.7641 19.0574 56.4933 19.0752 56.2913C19.1558 55.3549 19.1692 54.4001 19.0752 53.4637C19.0529 53.2341 18.5564 52.9128 18.2523 52.8853C17.407 52.8072 16.5483 52.8164 15.703 52.8853C15.4257 52.9082 14.9516 53.1974 14.9426 53.3856C14.88 54.3955 14.7369 55.4834 15.0366 56.4015C15.1663 56.7917 16.2978 56.8422 16.9687 57.0442ZM16.9419 3.96573C17.9437 3.96573 18.95 4.02081 19.9474 3.9336C20.2828 3.90605 20.587 3.52046 20.9045 3.30012C20.6004 3.10733 20.2962 2.74928 19.9876 2.74469C17.984 2.6942 15.9803 2.6942 13.9766 2.74469C13.668 2.75387 13.3683 3.11651 13.0642 3.31849C13.3549 3.53423 13.6367 3.91064 13.9408 3.9336C14.9337 4.01163 15.94 3.96573 16.9419 3.96573Z" fill="url(#paint0_linear_1478_105)"/>
<g clip-path="url(#clip1_1478_105)">
<rect x="2" y="6.5" width="29.1429" height="45.7551" fill="white"/>
<path d="M15.3072 36.4028C16.6648 36.4028 17.8253 37.4885 17.8253 38.8998C17.8253 40.246 16.6648 41.3316 15.3072 41.3316C13.9496 41.3316 12.7891 40.246 12.7891 38.8998C12.7891 37.4885 13.9496 36.4028 15.3072 36.4028ZM15.3072 37.6766C14.5992 37.6766 14.081 38.1905 14.081 38.8926C14.081 39.5295 14.5992 40.0433 15.3072 40.0433C15.9495 40.0433 16.5334 39.5295 16.5334 38.8926C16.5334 38.1905 15.9495 37.6766 15.3072 37.6766Z" fill="url(#paint1_linear_1478_105)"/>
<path d="M23.108 36.4028C24.4656 36.4028 25.6261 37.4885 25.6261 38.8998C25.6261 40.246 24.4656 41.3316 23.108 41.3316C21.7504 41.3316 20.5898 40.246 20.5898 38.8998C20.5898 37.4885 21.7504 36.4028 23.108 36.4028ZM23.108 37.6766C22.4657 37.6766 21.8818 38.1905 21.8818 38.8926C21.8818 39.5295 22.4657 40.0433 23.108 40.0433C23.7503 40.0433 24.3342 39.5295 24.3342 38.8926C24.3342 38.1905 23.7503 37.6766 23.108 37.6766Z" fill="url(#paint2_linear_1478_105)"/>
<path d="M4.98657 17.3462L9.30752 18.3088C9.56298 18.3739 9.69436 18.5042 9.76005 18.7575L10.7892 23.6211L28.3942 23.6211C28.7153 23.6211 28.9781 23.9396 28.9124 24.3232L26.5257 32.7622C26.46 33.0155 26.2702 33.1458 26.0074 33.1458L12.7891 33.1458L13.0446 34.5499L25.8104 34.5499C26.5184 34.5499 26.5184 35.8309 25.8104 35.8309L12.468 35.8309C12.2125 35.8309 11.9497 35.6355 11.884 35.3822L8.59223 19.4595L4.72381 18.6272C3.95742 18.4318 4.27857 17.2159 4.98657 17.3462ZM11.052 24.8877L12.468 31.8575L25.4965 31.8575L27.4307 24.8877L11.052 24.8877Z" fill="url(#paint3_linear_1478_105)"/>
</g>
</g>
<defs>
<linearGradient id="paint0_linear_1478_105" x1="3.42793e-09" y1="30.0005" x2="33.9999" y2="30.0005" gradientUnits="userSpaceOnUse">
<stop stop-color="#275F4C"/>
<stop offset="0.5674" stop-color="#152F27"/>
<stop offset="0.9944" stop-color="#4F6157"/>
</linearGradient>
<linearGradient id="paint1_linear_1478_105" x1="12.791" y1="38.8623" x2="17.8214" y2="38.8623" gradientUnits="userSpaceOnUse">
<stop stop-color="#275F4C"/>
<stop offset="0.5674" stop-color="#4F6157"/>
<stop offset="0.9944" stop-color="#152F27"/>
</linearGradient>
<linearGradient id="paint2_linear_1478_105" x1="20.5927" y1="38.8623" x2="25.623" y2="38.8623" gradientUnits="userSpaceOnUse">
<stop stop-color="#275F4C"/>
<stop offset="0.5674" stop-color="#4F6157"/>
<stop offset="0.9944" stop-color="#152F27"/>
</linearGradient>
<linearGradient id="paint3_linear_1478_105" x1="4.28171" y1="26.5792" x2="28.9239" y2="26.5792" gradientUnits="userSpaceOnUse">
<stop stop-color="#152F27"/>
<stop offset="0.5674" stop-color="#275F4C"/>
<stop offset="0.9944" stop-color="#4F6157"/>
</linearGradient>
<clipPath id="clip0_1478_105">
<rect width="34" height="59" fill="white" transform="translate(0 0.5)"/>
</clipPath>
<clipPath id="clip1_1478_105">
<rect width="29.1429" height="45.7551" fill="white" transform="translate(2 6.5)"/>
</clipPath>
</defs>
</svg>
