<svg width="476" height="290" viewBox="0 0 476 290" fill="none" xmlns="http://www.w3.org/2000/svg">
<g clip-path="url(#clip0_2830_34)">
<path d="M394.784 63.8692C394.043 63.8692 393.307 63.8354 392.565 63.7698C392.517 63.7655 392.471 63.7519 392.429 63.7297C392.386 63.7075 392.349 63.6772 392.318 63.6405C392.288 63.6038 392.265 63.5615 392.25 63.5158C392.236 63.4702 392.231 63.4223 392.235 63.3747C392.24 63.3271 392.253 63.2808 392.276 63.2384C392.298 63.1961 392.328 63.1586 392.365 63.128C392.401 63.0974 392.443 63.0743 392.489 63.06C392.535 63.0458 392.582 63.0407 392.63 63.045C394.074 63.1749 395.527 63.1749 396.971 63.045C397.068 63.0361 397.163 63.0659 397.238 63.1277C397.312 63.1895 397.359 63.2783 397.368 63.3747C397.373 63.4223 397.368 63.4704 397.354 63.5162C397.339 63.5619 397.316 63.6044 397.286 63.6412C397.255 63.678 397.218 63.7083 397.175 63.7304C397.133 63.7524 397.086 63.7659 397.039 63.7698C396.296 63.8438 395.537 63.8692 394.784 63.8692ZM388.261 62.9689C388.228 62.9679 388.194 62.963 388.162 62.9541C386.724 62.5452 385.326 62.004 383.987 61.3374C383.944 61.3162 383.906 61.2867 383.875 61.2507C383.843 61.2146 383.819 61.1728 383.804 61.1274C383.789 61.0821 383.783 61.0342 383.786 60.9865C383.789 60.9387 383.802 60.8921 383.823 60.8492C383.844 60.8063 383.873 60.7681 383.909 60.7366C383.945 60.7051 383.987 60.681 384.032 60.6657C384.078 60.6504 384.125 60.6442 384.173 60.6474C384.221 60.6506 384.267 60.6631 384.31 60.6844C385.609 61.3319 386.965 61.8569 388.36 62.2525C388.444 62.2771 388.517 62.3312 388.564 62.4048C388.612 62.4784 388.631 62.5667 388.619 62.6535C388.607 62.7403 388.564 62.8199 388.499 62.8778C388.433 62.9357 388.349 62.968 388.261 62.9689ZM401.34 62.9583C401.261 62.9579 401.184 62.932 401.121 62.8844C401.058 62.8368 401.012 62.7701 400.99 62.6942C400.977 62.6481 400.973 62.5999 400.978 62.5523C400.984 62.5047 400.999 62.4586 401.022 62.4168C401.045 62.3749 401.077 62.3381 401.114 62.3085C401.152 62.2788 401.195 62.2569 401.241 62.244C402.633 61.8466 403.985 61.321 405.281 60.6738C405.367 60.6307 405.467 60.6235 405.558 60.6541C405.603 60.6692 405.645 60.6931 405.681 60.7244C405.717 60.7557 405.747 60.7938 405.768 60.8365C405.789 60.8793 405.802 60.9258 405.805 60.9735C405.809 61.0211 405.803 61.069 405.788 61.1143C405.773 61.1597 405.749 61.2016 405.717 61.2377C405.686 61.2738 405.648 61.3034 405.606 61.3247C404.268 61.9939 402.871 62.5373 401.433 62.9478C401.403 62.9556 401.371 62.9592 401.34 62.9583ZM380.399 59.0487C380.323 59.047 380.249 59.0219 380.188 58.9768C378.995 58.0735 377.887 57.0626 376.878 55.9569C376.846 55.9216 376.821 55.8804 376.805 55.8355C376.789 55.7906 376.781 55.743 376.784 55.6953C376.786 55.6476 376.797 55.6008 376.818 55.5576C376.838 55.5143 376.866 55.4755 376.901 55.4433C376.936 55.4106 376.977 55.3852 377.022 55.3686C377.067 55.3521 377.115 55.3446 377.163 55.3468C377.21 55.349 377.257 55.3607 377.3 55.3812C377.344 55.4018 377.382 55.4308 377.414 55.4666C378.394 56.5381 379.469 57.5178 380.627 58.3935C380.688 58.4388 380.733 58.5021 380.756 58.5744C380.779 58.6468 380.779 58.7245 380.756 58.7968C380.732 58.8691 380.687 58.9322 380.626 58.9774C380.565 59.0226 380.492 59.0475 380.416 59.0487H380.399ZM409.196 59.0296C409.12 59.0285 409.047 59.0036 408.986 58.9584C408.925 58.9132 408.879 58.8501 408.856 58.7778C408.833 58.7055 408.833 58.6278 408.856 58.5554C408.879 58.4831 408.924 58.4198 408.985 58.3745C410.141 57.4966 411.214 56.5147 412.191 55.4412C412.256 55.3697 412.347 55.327 412.443 55.3225C412.54 55.3179 412.634 55.3519 412.705 55.4169C412.776 55.4819 412.819 55.5727 412.824 55.6692C412.828 55.7657 412.794 55.86 412.729 55.9315C411.721 57.038 410.615 58.0503 409.424 58.9557C409.358 59.0049 409.278 59.0309 409.196 59.0296ZM374.482 52.5565C374.42 52.5567 374.359 52.5408 374.304 52.5105C374.25 52.4801 374.204 52.4363 374.172 52.3832C373.382 51.1097 372.712 49.7655 372.17 48.3679C372.135 48.2779 372.137 48.1777 372.176 48.0893C372.215 48.001 372.287 47.9316 372.377 47.8966C372.466 47.8616 372.566 47.8637 372.655 47.9026C372.743 47.9414 372.812 48.0138 372.847 48.1037C373.373 49.4574 374.023 50.7591 374.79 51.9922C374.824 52.0474 374.843 52.1107 374.844 52.1756C374.846 52.2405 374.83 52.3047 374.799 52.3615C374.767 52.4183 374.722 52.4657 374.666 52.4989C374.61 52.532 374.547 52.5497 374.482 52.5502V52.5565ZM415.117 52.5269C415.05 52.5261 414.983 52.5071 414.925 52.472C414.885 52.4469 414.849 52.414 414.821 52.3752C414.794 52.3364 414.774 52.2924 414.763 52.2458C414.752 52.1992 414.751 52.151 414.759 52.1038C414.767 52.0566 414.784 52.0115 414.809 51.9711C415.572 50.7347 416.22 49.431 416.746 48.0762C416.781 47.9863 416.85 47.9139 416.938 47.8751C416.982 47.8559 417.029 47.8454 417.077 47.8444C417.124 47.8434 417.172 47.8518 417.216 47.8691C417.261 47.8865 417.301 47.9124 417.336 47.9455C417.37 47.9786 417.398 48.0181 417.417 48.0619C417.436 48.1056 417.447 48.1528 417.448 48.2005C417.449 48.2483 417.44 48.2959 417.423 48.3404C416.883 49.7377 416.215 51.0819 415.427 52.3557C415.394 52.4094 415.347 52.4533 415.292 52.4834C415.236 52.5134 415.174 52.5284 415.111 52.5269H415.117ZM371.29 44.3589C371.205 44.3584 371.124 44.3284 371.059 44.274C370.993 44.2197 370.949 44.1443 370.934 44.0609C370.658 42.5891 370.516 41.0951 370.512 39.5975C370.511 39.5496 370.521 39.5021 370.539 39.4578C370.557 39.4134 370.584 39.3731 370.617 39.3391C370.651 39.3052 370.691 39.2782 370.735 39.2598C370.779 39.2414 370.827 39.2319 370.875 39.2319C370.971 39.2319 371.063 39.2702 371.131 39.3384C371.199 39.4066 371.237 39.499 371.237 39.5954C371.239 41.0489 371.374 42.4991 371.64 43.9278C371.658 44.0225 371.637 44.1202 371.582 44.1994C371.527 44.2787 371.444 44.333 371.349 44.3504C371.33 44.3549 371.31 44.3577 371.29 44.3589ZM418.284 44.323C418.261 44.3251 418.239 44.3251 418.216 44.323C418.169 44.3146 418.124 44.2969 418.084 44.2711C418.044 44.2453 418.01 44.2117 417.983 44.1724C417.956 44.1331 417.937 44.0888 417.927 44.0421C417.917 43.9954 417.916 43.9472 417.925 43.9003C418.188 42.472 418.321 41.0226 418.322 39.5701C418.32 39.4698 418.357 39.3727 418.424 39.2986C418.492 39.2244 418.585 39.1787 418.684 39.1706C418.73 39.1666 418.776 39.172 418.82 39.1865C418.863 39.2011 418.903 39.2244 418.937 39.2552C418.971 39.2859 418.999 39.3234 419.018 39.3652C419.036 39.407 419.047 39.4523 419.047 39.4982V39.5341C419.049 41.0432 418.913 42.5493 418.64 44.0334C418.623 44.1153 418.578 44.1887 418.513 44.2414C418.448 44.2941 418.367 44.3229 418.284 44.323ZM371.28 35.5611C371.226 35.5627 371.174 35.5523 371.125 35.5307C371.076 35.509 371.033 35.4767 370.999 35.4361C370.964 35.3955 370.94 35.3477 370.926 35.2962C370.913 35.2446 370.911 35.1907 370.921 35.1384C371.192 33.6654 371.599 32.2207 372.136 30.823C372.175 30.7396 372.245 30.6741 372.33 30.6398C372.416 30.6056 372.511 30.6049 372.597 30.6381C372.683 30.6712 372.753 30.7358 372.794 30.8187C372.834 30.9015 372.842 30.9967 372.815 31.085C372.293 32.4401 371.899 33.8409 371.636 35.2694C371.62 35.3518 371.575 35.426 371.51 35.4791C371.445 35.5323 371.364 35.5613 371.28 35.5611ZM418.269 35.4575C418.184 35.4579 418.102 35.4285 418.037 35.3744C417.972 35.3204 417.928 35.245 417.912 35.1617C417.644 33.7339 417.243 32.3345 416.714 30.9815C416.697 30.9369 416.688 30.8894 416.689 30.8415C416.69 30.7937 416.7 30.7465 416.719 30.7026C416.738 30.6588 416.766 30.6191 416.8 30.5859C416.835 30.5527 416.875 30.5266 416.92 30.5092C416.964 30.4917 417.012 30.4831 417.06 30.484C417.107 30.4849 417.154 30.4952 417.198 30.5144C417.242 30.5335 417.282 30.5611 417.315 30.5955C417.348 30.63 417.374 30.6707 417.391 30.7152C417.935 32.1112 418.348 33.5544 418.628 35.0264C418.636 35.0784 418.633 35.1316 418.618 35.1824C418.604 35.2331 418.579 35.2801 418.545 35.3203C418.511 35.3604 418.469 35.3927 418.421 35.4149C418.373 35.4372 418.322 35.4488 418.269 35.4491V35.4575ZM374.438 27.355C374.37 27.3544 374.305 27.3354 374.248 27.3001C374.207 27.2752 374.171 27.2424 374.143 27.2037C374.115 27.1649 374.095 27.121 374.084 27.0744C374.073 27.0278 374.071 26.9795 374.079 26.9322C374.087 26.885 374.104 26.8398 374.13 26.7992C374.915 25.5213 375.817 24.3186 376.823 23.2065C376.856 23.1712 376.894 23.1424 376.937 23.1221C376.981 23.1017 377.028 23.0901 377.075 23.0878C377.123 23.0855 377.171 23.0927 377.215 23.1089C377.26 23.1251 377.302 23.15 377.337 23.1822C377.372 23.2144 377.401 23.2533 377.421 23.2966C377.442 23.3398 377.453 23.3867 377.456 23.4345C377.458 23.4823 377.451 23.53 377.434 23.5751C377.418 23.6201 377.393 23.6614 377.361 23.6968C376.385 24.772 375.51 25.935 374.748 27.1711C374.716 27.2262 374.671 27.2721 374.617 27.3044C374.563 27.3366 374.501 27.3541 374.438 27.355ZM415.075 27.2662C415.013 27.2662 414.952 27.2505 414.898 27.2206C414.844 27.1907 414.798 27.1475 414.765 27.0951C413.998 25.8622 413.118 24.7027 412.139 23.6313C412.106 23.5961 412.081 23.5548 412.065 23.5099C412.049 23.4649 412.041 23.4172 412.043 23.3694C412.045 23.3216 412.057 23.2747 412.077 23.2314C412.097 23.188 412.126 23.149 412.161 23.1167C412.196 23.0844 412.237 23.0593 412.282 23.0429C412.327 23.0265 412.375 23.0192 412.422 23.0212C412.47 23.0233 412.517 23.0347 412.56 23.0549C412.603 23.0751 412.642 23.1037 412.674 23.1389C413.684 24.2435 414.591 25.4383 415.383 26.7083C415.434 26.7905 415.451 26.8896 415.429 26.9838C415.407 27.0781 415.349 27.1599 415.267 27.2113C415.209 27.2467 415.143 27.2657 415.075 27.2662ZM380.344 20.8438C380.269 20.8414 380.196 20.8158 380.136 20.7705C380.076 20.7252 380.032 20.6623 380.008 20.5906C379.985 20.5189 379.985 20.4418 380.007 20.3699C380.03 20.2979 380.074 20.2347 380.133 20.1887C381.323 19.2829 382.594 18.4891 383.93 17.8175C384.016 17.7744 384.116 17.7673 384.208 17.7978C384.253 17.8129 384.295 17.8368 384.331 17.8681C384.367 17.8994 384.396 17.9375 384.418 17.9803C384.439 18.023 384.452 18.0695 384.455 18.1172C384.458 18.1649 384.452 18.2127 384.437 18.2581C384.422 18.3034 384.398 18.3453 384.367 18.3814C384.336 18.4175 384.298 18.4471 384.255 18.4684C382.959 19.1202 381.725 19.8906 380.57 20.7699C380.505 20.8186 380.425 20.8446 380.344 20.8438ZM388.194 16.9025C388.105 16.9035 388.02 16.8722 387.953 16.8145C387.886 16.7568 387.842 16.6767 387.83 16.5891C387.818 16.5014 387.838 16.4124 387.887 16.3386C387.935 16.2648 388.009 16.2113 388.094 16.1882C389.532 15.7768 391.004 15.4995 392.493 15.3597C392.54 15.3553 392.588 15.3603 392.634 15.3744C392.679 15.3885 392.722 15.4115 392.759 15.442C392.795 15.4725 392.826 15.51 392.848 15.5522C392.87 15.5945 392.884 15.6408 392.888 15.6884C392.893 15.7359 392.888 15.7839 392.874 15.8296C392.86 15.8753 392.837 15.9177 392.806 15.9545C392.776 15.9913 392.738 16.0218 392.696 16.0441C392.654 16.0664 392.608 16.0802 392.56 16.0846C391.116 16.2199 389.687 16.4894 388.293 16.8898C388.26 16.8983 388.227 16.9025 388.194 16.9025Z" fill="white" stroke="black" stroke-width="0.75" stroke-miterlimit="10"/>
<path d="M93.918 63.0534C93.1776 63.0534 92.4414 63.0196 91.6988 62.952C91.6029 62.9433 91.5143 62.8968 91.4526 62.8227C91.3909 62.7486 91.3611 62.6529 91.3697 62.5568C91.3784 62.4607 91.4249 62.372 91.4988 62.3101C91.5728 62.2483 91.6683 62.2184 91.7642 62.2271C93.2091 62.3582 94.6628 62.3582 96.1077 62.2271C96.1552 62.2228 96.2031 62.2279 96.2486 62.2422C96.2942 62.2564 96.3365 62.2795 96.3731 62.3101C96.4097 62.3407 96.44 62.3783 96.4621 62.4206C96.4843 62.4629 96.4979 62.5092 96.5022 62.5568C96.5065 62.6044 96.5014 62.6524 96.4872 62.698C96.4729 62.7436 96.4499 62.786 96.4193 62.8227C96.3888 62.8594 96.3513 62.8897 96.3091 62.9119C96.2668 62.9341 96.2206 62.9477 96.1731 62.952C95.4369 63.0175 94.6775 63.0534 93.918 63.0534ZM87.4018 62.1532C87.3682 62.1533 87.3347 62.1483 87.3026 62.1384C85.8637 61.7313 84.466 61.1901 83.1279 60.5217C83.0841 60.5011 83.0449 60.472 83.0125 60.4361C82.9801 60.4001 82.9552 60.358 82.9392 60.3123C82.9233 60.2666 82.9166 60.2181 82.9197 60.1698C82.9227 60.1214 82.9353 60.0742 82.9568 60.0308C82.9783 59.9874 83.0083 59.9487 83.0449 59.9171C83.0815 59.8855 83.1241 59.8615 83.1701 59.8466C83.2161 59.8317 83.2646 59.8262 83.3128 59.8303C83.361 59.8345 83.4079 59.8482 83.4507 59.8708C84.75 60.5165 86.1058 61.0414 87.5009 61.4389C87.5861 61.462 87.66 61.5155 87.7087 61.5893C87.7574 61.6631 87.7775 61.7521 87.7654 61.8398C87.7532 61.9274 87.7096 62.0076 87.6426 62.0652C87.5757 62.1229 87.4901 62.1542 87.4018 62.1532ZM100.481 62.1532C100.392 62.1542 100.307 62.1229 100.24 62.0652C100.173 62.0076 100.129 61.9274 100.117 61.8398C100.105 61.7521 100.125 61.6631 100.174 61.5893C100.222 61.5155 100.296 61.462 100.382 61.4389C101.776 61.0414 103.131 60.5143 104.428 59.8644C104.513 59.8286 104.609 59.8266 104.696 59.859C104.783 59.8913 104.854 59.9555 104.895 60.0386C104.936 60.1216 104.945 60.2173 104.918 60.3063C104.892 60.3952 104.832 60.4707 104.752 60.5174C103.414 61.1861 102.018 61.7295 100.58 62.1405C100.547 62.1444 100.514 62.1444 100.481 62.1405V62.1532ZM79.5396 58.2456C79.4632 58.2442 79.3893 58.2183 79.3287 58.1716C78.1357 57.2691 77.0278 56.2589 76.0189 55.1538C75.9866 55.1186 75.9616 55.0773 75.9452 55.0324C75.9288 54.9874 75.9215 54.9397 75.9235 54.8919C75.9256 54.8441 75.937 54.7972 75.9572 54.7539C75.9773 54.7105 76.0058 54.6715 76.041 54.6392C76.0762 54.6069 76.1174 54.5818 76.1622 54.5654C76.2071 54.549 76.2547 54.5417 76.3024 54.5437C76.3501 54.5458 76.397 54.5572 76.4402 54.5774C76.4835 54.5976 76.5224 54.6262 76.5547 54.6614C77.5338 55.7342 78.6093 56.7147 79.7674 57.5905C79.8283 57.6358 79.8734 57.6991 79.8965 57.7714C79.9196 57.8437 79.9195 57.9215 79.8963 57.9938C79.873 58.066 79.8277 58.1292 79.7668 58.1744C79.7058 58.2195 79.6323 58.2444 79.5565 58.2456H79.5396ZM108.337 58.2245C108.261 58.2227 108.188 58.1976 108.128 58.1526C108.068 58.1075 108.023 58.0448 108 57.973C107.976 57.9012 107.976 57.8241 107.999 57.7521C108.021 57.6802 108.066 57.617 108.126 57.5715C109.281 56.6935 110.355 55.7117 111.332 54.6382C111.364 54.6028 111.403 54.5741 111.446 54.5537C111.489 54.5333 111.536 54.5217 111.584 54.5194C111.632 54.5172 111.679 54.5243 111.724 54.5405C111.769 54.5568 111.81 54.5817 111.846 54.6139C111.881 54.646 111.91 54.6849 111.93 54.7282C111.95 54.7715 111.962 54.8183 111.964 54.8661C111.966 54.9139 111.959 54.9617 111.943 55.0067C111.927 55.0517 111.902 55.0931 111.87 55.1284C110.86 56.2314 109.75 57.2387 108.556 58.1378C108.493 58.1862 108.416 58.2123 108.337 58.2118V58.2245ZM73.6161 51.7387C73.5542 51.7386 73.4933 51.7229 73.4391 51.693C73.3849 51.6631 73.3391 51.6199 73.306 51.5675C72.5163 50.2939 71.8461 48.9497 71.3041 47.5521C71.2691 47.4622 71.2713 47.362 71.31 47.2736C71.3488 47.1852 71.421 47.1159 71.5108 47.0809C71.6006 47.0458 71.7006 47.048 71.7889 47.0868C71.8771 47.1257 71.9463 47.198 71.9813 47.288C72.5072 48.6423 73.1577 49.9448 73.9241 51.1786C73.9745 51.2606 73.9906 51.3592 73.9688 51.4529C73.9471 51.5467 73.8893 51.6281 73.8081 51.6795C73.751 51.7171 73.6844 51.7376 73.6161 51.7387ZM114.252 51.7091C114.187 51.7091 114.123 51.6918 114.067 51.6589C114.012 51.626 113.966 51.5787 113.934 51.522C113.903 51.4653 113.887 51.4012 113.889 51.3364C113.89 51.2715 113.909 51.2083 113.944 51.1533C114.708 49.9186 115.356 48.6154 115.88 47.2605C115.915 47.1706 115.984 47.0981 116.072 47.059C116.16 47.02 116.26 47.0176 116.349 47.0523C116.439 47.0871 116.512 47.1562 116.551 47.2443C116.59 47.3325 116.592 47.4326 116.557 47.5226C116.017 48.9199 115.349 50.264 114.562 51.5379C114.529 51.5903 114.483 51.6335 114.429 51.6634C114.374 51.6933 114.313 51.7091 114.252 51.7091ZM70.4308 43.541C70.3462 43.541 70.2644 43.5115 70.1993 43.4575C70.1342 43.4035 70.09 43.3284 70.0743 43.2452C69.7983 41.7727 69.6571 40.278 69.6523 38.7797C69.6521 38.7319 69.6613 38.6845 69.6794 38.6403C69.6975 38.596 69.7243 38.5559 69.758 38.5221C69.7918 38.4882 69.8319 38.4615 69.876 38.4433C69.9202 38.4251 69.9675 38.4159 70.0152 38.4162C70.1114 38.4162 70.2037 38.4545 70.2718 38.5227C70.3398 38.5908 70.378 38.6833 70.378 38.7797C70.3796 40.2324 70.5145 41.6819 70.7809 43.1099C70.7976 43.2046 70.7764 43.302 70.7219 43.3811C70.6674 43.4602 70.5841 43.5146 70.4898 43.5326C70.4704 43.5371 70.4507 43.5399 70.4308 43.541ZM117.424 43.5072C117.372 43.507 117.32 43.4953 117.272 43.4731C117.224 43.4508 117.182 43.4186 117.148 43.3784C117.114 43.3383 117.089 43.2912 117.075 43.2405C117.061 43.1898 117.057 43.1366 117.066 43.0846C117.33 41.6557 117.463 40.2055 117.462 38.7522C117.461 38.6521 117.498 38.5553 117.566 38.4813C117.633 38.4072 117.726 38.3613 117.825 38.3528C117.871 38.3487 117.917 38.3541 117.96 38.3687C118.004 38.3832 118.044 38.4066 118.078 38.4373C118.112 38.4681 118.139 38.5055 118.158 38.5474C118.177 38.5892 118.187 38.6345 118.188 38.6804V38.7163C118.19 40.2261 118.053 41.7328 117.781 43.2177C117.763 43.2995 117.719 43.3729 117.654 43.4256C117.589 43.4783 117.508 43.5071 117.424 43.5072ZM70.4202 34.7453C70.3676 34.7451 70.3157 34.7334 70.2681 34.7112C70.2204 34.689 70.1781 34.6567 70.144 34.6165C70.11 34.5764 70.085 34.5293 70.0707 34.4786C70.0565 34.4279 70.0534 34.3747 70.0616 34.3227C70.333 32.8498 70.7398 31.4052 71.2767 30.0073C71.316 29.9238 71.3855 29.8584 71.471 29.8241C71.5565 29.7898 71.6518 29.7892 71.7378 29.8224C71.8237 29.8555 71.894 29.92 71.9344 30.0029C71.9749 30.0858 71.9826 30.181 71.9559 30.2693C71.4339 31.6251 71.0391 33.0267 70.7767 34.4558C70.7597 34.5378 70.7149 34.6115 70.65 34.6642C70.585 34.717 70.5038 34.7456 70.4202 34.7453ZM117.41 34.6418C117.325 34.6417 117.243 34.6118 117.177 34.5574C117.112 34.503 117.068 34.4274 117.053 34.3438C116.785 32.9162 116.384 31.5168 115.857 30.1636C115.822 30.0737 115.824 29.9735 115.863 29.8851C115.902 29.7967 115.974 29.7274 116.064 29.6924C116.153 29.6573 116.253 29.6595 116.342 29.6983C116.43 29.7372 116.499 29.8095 116.534 29.8995C117.077 31.2947 117.491 32.7372 117.77 34.2086C117.78 34.2614 117.778 34.3157 117.765 34.3678C117.751 34.4198 117.727 34.4682 117.693 34.5096C117.658 34.5509 117.615 34.5842 117.567 34.6071C117.518 34.6299 117.465 34.6418 117.412 34.6418H117.41ZM73.5782 26.5372C73.5134 26.5372 73.4498 26.5198 73.394 26.4869C73.3383 26.454 73.2923 26.4068 73.2608 26.3501C73.2294 26.2934 73.2137 26.2293 73.2153 26.1644C73.217 26.0996 73.2359 26.0364 73.2702 25.9814C74.056 24.7034 74.9578 23.5008 75.964 22.3887C76.0289 22.3172 76.1195 22.2745 76.2158 22.27C76.3121 22.2654 76.4063 22.2994 76.4777 22.3644C76.549 22.4294 76.5916 22.5202 76.5962 22.6167C76.6007 22.7132 76.5668 22.8075 76.5019 22.879C75.5259 23.9548 74.651 25.1186 73.8882 26.3554C73.8564 26.4098 73.8112 26.4551 73.7569 26.4869C73.7026 26.5187 73.6411 26.536 73.5782 26.5372ZM114.216 26.4484C114.154 26.449 114.093 26.4335 114.038 26.4036C113.984 26.3736 113.938 26.3301 113.906 26.2772C113.138 25.0442 112.259 23.8847 111.279 22.8135C111.247 22.7782 111.222 22.737 111.206 22.6921C111.19 22.6472 111.183 22.5996 111.185 22.5519C111.187 22.5042 111.198 22.4574 111.219 22.4142C111.239 22.3709 111.267 22.3321 111.302 22.2999C111.338 22.2677 111.379 22.2428 111.424 22.2265C111.468 22.2103 111.516 22.203 111.564 22.2052C111.611 22.2074 111.658 22.2189 111.701 22.2391C111.744 22.2594 111.783 22.2879 111.815 22.3232C112.826 23.4269 113.732 24.6218 114.524 25.8926C114.549 25.9331 114.566 25.9782 114.574 26.0253C114.582 26.0724 114.58 26.1206 114.569 26.1671C114.558 26.2136 114.539 26.2576 114.511 26.2964C114.483 26.3352 114.448 26.3682 114.408 26.3935C114.35 26.4298 114.284 26.4489 114.216 26.4484ZM79.4848 20.026C79.4095 20.0243 79.3367 19.9991 79.2763 19.9541C79.2159 19.909 79.171 19.8463 79.1479 19.7745C79.1247 19.7028 79.1244 19.6256 79.1469 19.5536C79.1695 19.4817 79.2138 19.4185 79.2738 19.373C80.4635 18.4664 81.7346 17.6726 83.0709 17.0018C83.1136 16.9804 83.1601 16.9677 83.2076 16.9643C83.2552 16.9609 83.303 16.967 83.3482 16.9821C83.3935 16.9972 83.4353 17.0211 83.4713 17.0524C83.5074 17.0837 83.5369 17.1218 83.5582 17.1645C83.5796 17.2073 83.5923 17.2538 83.5957 17.3015C83.599 17.3491 83.593 17.397 83.5779 17.4423C83.5629 17.4877 83.539 17.5296 83.5078 17.5657C83.4765 17.6018 83.4385 17.6313 83.3958 17.6527C82.0997 18.3045 80.8661 19.0742 79.7105 19.952C79.6459 20.0018 79.5662 20.0279 79.4848 20.026ZM87.3343 16.0825C87.246 16.0835 87.1603 16.0523 87.0934 15.9946C87.0264 15.9369 86.9828 15.8567 86.9706 15.7691C86.9585 15.6815 86.9786 15.5924 87.0273 15.5186C87.076 15.4448 87.1499 15.3913 87.2351 15.3682C88.6726 14.9569 90.145 14.6796 91.6334 14.5398C91.681 14.5348 91.7291 14.5394 91.7749 14.5532C91.8207 14.5671 91.8633 14.5899 91.9002 14.6204C91.9371 14.6509 91.9676 14.6884 91.9899 14.7308C92.0122 14.7732 92.0258 14.8196 92.03 14.8673C92.0388 14.9637 92.0091 15.0596 91.9474 15.1341C91.8858 15.2086 91.7971 15.2555 91.7009 15.2646C90.2575 15.4002 88.8296 15.6691 87.4355 16.0677C87.4027 16.0778 87.3686 16.0828 87.3343 16.0825Z" fill="white" stroke="black" stroke-width="0.75" stroke-miterlimit="10"/>
<path d="M325.867 12.7985H312.775V10.6852L319.315 7.25732L325.854 10.6852L325.867 12.7985ZM312.896 12.6801H325.753V10.7655L319.325 7.40104L312.9 10.7655L312.896 12.6801Z" fill="#637B71" stroke="#637B71" stroke-miterlimit="10"/>
<path d="M325.12 12.044H313.537V11.1522L319.328 8.11743L325.12 11.1522V12.044ZM313.655 11.9235H325.002V11.2219L319.321 8.26325L313.649 11.2219L313.655 11.9235Z" fill="#637B71" stroke="#637B71" stroke-miterlimit="10"/>
<path d="M316.097 13.9819H313.602V12.7012H316.097V13.9819ZM313.728 13.8635H315.987V12.8216H313.728V13.8635Z" fill="#637B71" stroke="#637B71" stroke-miterlimit="10"/>
<path d="M315.597 19.3751H314.102V13.8635H315.597V19.3751ZM314.222 19.2568H315.487V13.9734H314.222V19.2568Z" fill="#637B71" stroke="#637B71" stroke-miterlimit="10"/>
<path d="M325.395 20.6158H313.111V19.2527H325.395V20.6158ZM313.229 20.4974H325.277V19.3753H313.229V20.4974Z" fill="#637B71" stroke="#637B71" stroke-miterlimit="10"/>
<path d="M324.99 13.9819H322.492V12.7012H324.99V13.9819ZM322.61 13.8635H324.872V12.8216H322.61V13.8635Z" fill="#637B71" stroke="#637B71" stroke-miterlimit="10"/>
<path d="M324.488 19.3751H322.994V13.8635H324.488V19.3751ZM323.112 19.2568H324.378V13.9734H323.112V19.2568Z" fill="#637B71" stroke="#637B71" stroke-miterlimit="10"/>
<path d="M319.485 18.572H318.989V17.9613C318.671 17.9529 318.361 17.858 318.092 17.6865L318.057 17.6612L318.24 17.1434L318.303 17.1857C318.555 17.349 318.848 17.4356 319.147 17.435C319.535 17.435 319.805 17.2237 319.805 16.9046C319.805 16.5855 319.618 16.427 319.173 16.241C318.639 16.0297 318.143 15.7528 318.143 15.1442C318.146 14.8926 318.239 14.6506 318.407 14.4629C318.574 14.2752 318.803 14.1546 319.052 14.1234V13.5063H319.542V14.0939C319.806 14.102 320.065 14.1745 320.295 14.3052L320.339 14.3306L320.145 14.8399L320.056 14.8145C319.836 14.6834 319.585 14.6154 319.329 14.618C318.907 14.618 318.749 14.8652 318.749 15.0766C318.749 15.3386 318.909 15.4802 319.459 15.7106C320.137 15.9874 320.428 16.334 320.428 16.8687C320.423 17.1319 320.325 17.3848 320.15 17.5817C319.976 17.7786 319.737 17.9065 319.476 17.9422L319.485 18.572ZM319.107 18.4537H319.367V17.8366H319.417C319.659 17.8139 319.885 17.7031 320.051 17.5251C320.217 17.3471 320.312 17.1143 320.318 16.8708C320.318 16.3868 320.059 16.0825 319.421 15.8141C318.892 15.6028 318.639 15.4274 318.639 15.0723C318.639 14.7849 318.85 14.4954 319.337 14.4954C319.59 14.492 319.84 14.5531 320.063 14.6729L320.17 14.3876C319.951 14.2734 319.707 14.2126 319.459 14.2101H319.403V13.6268H319.149V14.227H319.099C318.578 14.3115 318.24 14.6687 318.24 15.1378C318.24 15.607 318.508 15.8543 319.196 16.1248C319.698 16.3361 319.913 16.5601 319.913 16.8982C319.913 17.2808 319.594 17.547 319.137 17.547C318.84 17.5465 318.549 17.4678 318.293 17.3188L318.19 17.6083C318.447 17.7544 318.737 17.8336 319.033 17.8387H319.092L319.107 18.4537Z" fill="#637B71" stroke="#637B71" stroke-miterlimit="10"/>
<path d="M289.661 242.558V241.886C289.301 241.885 288.948 241.783 288.643 241.592L288.803 241.146C289.089 241.33 289.421 241.429 289.761 241.432C290.233 241.432 290.554 241.159 290.554 240.779C290.554 240.398 290.294 240.185 289.801 239.986C289.124 239.718 288.704 239.411 288.704 238.832C288.704 238.253 289.096 237.858 289.708 237.759V237.084H290.13V237.731C290.433 237.734 290.731 237.815 290.995 237.966L290.828 238.405C290.573 238.253 290.281 238.175 289.984 238.179C289.474 238.179 289.28 238.486 289.28 238.752C289.28 239.098 289.526 239.272 290.104 239.513C290.79 239.792 291.136 240.147 291.136 240.732C291.136 241.258 290.771 241.753 290.081 241.865V242.558H289.661Z" fill="#29483B" stroke="#637B71" stroke-miterlimit="10"/>
<path d="M289.872 243.849C289.067 243.849 288.281 243.609 287.612 243.161C286.943 242.713 286.422 242.076 286.114 241.331C285.806 240.586 285.726 239.766 285.883 238.976C286.04 238.185 286.428 237.459 286.997 236.889C287.566 236.319 288.292 235.931 289.081 235.774C289.87 235.617 290.688 235.698 291.432 236.006C292.175 236.315 292.81 236.837 293.258 237.508C293.705 238.178 293.943 238.966 293.943 239.772C293.942 240.854 293.513 241.89 292.749 242.655C291.986 243.419 290.951 243.848 289.872 243.849ZM289.872 235.878C289.103 235.878 288.351 236.106 287.712 236.534C287.073 236.962 286.574 237.57 286.28 238.282C285.986 238.994 285.909 239.777 286.059 240.532C286.209 241.288 286.579 241.982 287.123 242.527C287.666 243.071 288.359 243.442 289.113 243.592C289.868 243.743 290.649 243.666 291.36 243.371C292.07 243.076 292.677 242.577 293.104 241.936C293.532 241.296 293.76 240.543 293.76 239.772C293.76 239.26 293.66 238.753 293.465 238.28C293.27 237.807 292.984 237.377 292.623 237.014C292.262 236.652 291.833 236.364 291.361 236.168C290.889 235.971 290.383 235.87 289.872 235.869V235.878Z" fill="#29483B" stroke="#637B71" stroke-miterlimit="10"/>
<path d="M212.716 249.841H197.283V241.503H212.718L212.716 249.841ZM197.463 249.659H212.533V241.685H197.463V249.659Z" fill="#29483B" stroke="#637B71" stroke-miterlimit="10"/>
<path d="M209.869 248.682H200.127V248.591C200.127 248.167 199.958 247.76 199.658 247.459C199.359 247.159 198.952 246.99 198.528 246.989H198.436V244.356H198.528C198.952 244.355 199.359 244.186 199.659 243.885C199.958 243.584 200.127 243.177 200.127 242.752V242.661H209.869V242.752C209.87 243.177 210.039 243.585 210.339 243.885C210.639 244.186 211.046 244.355 211.47 244.356H211.561V246.989H211.47C211.046 246.99 210.639 247.159 210.339 247.459C210.039 247.759 209.87 248.167 209.869 248.591V248.682ZM200.307 248.501H209.69C209.713 248.06 209.898 247.643 210.21 247.331C210.522 247.019 210.937 246.833 211.377 246.81V244.534C210.937 244.51 210.522 244.325 210.21 244.013C209.898 243.701 209.713 243.284 209.69 242.843H200.307C200.283 243.284 200.098 243.701 199.786 244.013C199.475 244.325 199.059 244.51 198.619 244.534V246.806C199.06 246.829 199.476 247.015 199.788 247.328C200.1 247.641 200.284 248.059 200.307 248.501Z" fill="#29483B" stroke="#637B71" stroke-miterlimit="10"/>
<path d="M206.094 247.042H203.9C203.537 247.042 203.188 246.898 202.931 246.64C202.674 246.383 202.529 246.033 202.529 245.669C202.529 245.305 202.674 244.955 202.931 244.698C203.188 244.44 203.537 244.295 203.9 244.295H206.094C206.458 244.295 206.807 244.44 207.064 244.698C207.321 244.955 207.466 245.305 207.466 245.669C207.466 246.033 207.321 246.383 207.064 246.64C206.807 246.898 206.458 247.042 206.094 247.042ZM203.9 244.483C203.594 244.496 203.305 244.627 203.093 244.849C202.881 245.07 202.763 245.365 202.763 245.672C202.763 245.979 202.881 246.274 203.093 246.495C203.305 246.717 203.594 246.848 203.9 246.861H206.094C206.4 246.848 206.69 246.717 206.902 246.495C207.114 246.274 207.232 245.979 207.232 245.672C207.232 245.365 207.114 245.07 206.902 244.849C206.69 244.627 206.4 244.496 206.094 244.483H203.9Z" fill="#29483B" stroke="#637B71" stroke-miterlimit="10"/>
<path d="M200.575 246.624C200.386 246.624 200.202 246.569 200.045 246.464C199.888 246.36 199.766 246.211 199.694 246.037C199.622 245.862 199.603 245.671 199.639 245.485C199.676 245.3 199.767 245.13 199.9 244.997C200.033 244.864 200.203 244.773 200.387 244.736C200.572 244.699 200.764 244.718 200.938 244.791C201.111 244.863 201.26 244.986 201.364 245.143C201.469 245.3 201.524 245.484 201.524 245.673C201.523 245.925 201.423 246.167 201.245 246.345C201.067 246.523 200.826 246.623 200.575 246.624ZM200.575 244.902C200.422 244.901 200.273 244.946 200.146 245.031C200.019 245.115 199.92 245.235 199.862 245.376C199.803 245.517 199.788 245.672 199.817 245.822C199.847 245.972 199.92 246.11 200.027 246.218C200.135 246.326 200.272 246.399 200.422 246.429C200.571 246.459 200.726 246.444 200.867 246.386C201.007 246.328 201.128 246.229 201.213 246.102C201.297 245.975 201.342 245.826 201.342 245.673C201.342 245.469 201.262 245.273 201.118 245.128C200.974 244.984 200.778 244.902 200.575 244.902Z" fill="#29483B" stroke="#637B71" stroke-miterlimit="10"/>
<path d="M209.356 246.624C209.167 246.624 208.983 246.568 208.827 246.463C208.67 246.358 208.548 246.209 208.477 246.035C208.405 245.861 208.386 245.669 208.423 245.484C208.46 245.299 208.55 245.129 208.684 244.996C208.817 244.863 208.987 244.772 209.171 244.736C209.356 244.699 209.547 244.718 209.721 244.791C209.895 244.863 210.043 244.986 210.148 245.143C210.252 245.3 210.307 245.484 210.307 245.673C210.307 245.925 210.206 246.167 210.028 246.346C209.849 246.524 209.608 246.624 209.356 246.624ZM209.356 244.902C209.203 244.901 209.054 244.946 208.927 245.031C208.8 245.115 208.701 245.235 208.643 245.376C208.584 245.517 208.569 245.672 208.598 245.822C208.628 245.972 208.701 246.11 208.808 246.218C208.916 246.326 209.053 246.399 209.203 246.429C209.352 246.459 209.507 246.444 209.648 246.386C209.789 246.328 209.909 246.229 209.994 246.102C210.078 245.975 210.124 245.826 210.124 245.673C210.124 245.469 210.043 245.273 209.899 245.128C209.755 244.984 209.56 244.902 209.356 244.902Z" fill="#29483B" stroke="#637B71" stroke-miterlimit="10"/>
<path d="M409.501 13.4726L409.465 13.388C409.215 12.8207 408.84 12.3179 408.367 11.9183C407.893 11.5187 407.335 11.2328 406.735 11.0824L406.646 11.0612L407.364 8.26318L407.45 8.28432C408.472 8.54438 409.422 9.03373 410.228 9.71542C411.034 10.3971 411.675 11.2533 412.102 12.2193L412.138 12.3018L409.501 13.4726ZM406.868 10.9366C407.462 11.0996 408.013 11.3901 408.484 11.7878C408.954 12.1856 409.333 12.6811 409.593 13.2401L411.897 12.2172C411.482 11.3105 410.872 10.5067 410.111 9.86305C409.35 9.21942 408.456 8.75182 407.495 8.49354L406.868 10.9366Z" fill="#29483B" stroke="#637B71" stroke-miterlimit="10"/>
<path d="M404.254 23.3356C403.272 23.3391 402.3 23.1329 401.403 22.7307C400.506 22.3286 399.705 21.7397 399.053 21.0033C398.401 20.267 397.913 19.3999 397.622 18.4599C397.331 17.5199 397.242 16.5285 397.363 15.5517C397.484 14.5749 397.811 13.6351 398.322 12.7947C398.834 11.9544 399.518 11.2328 400.33 10.6781C401.142 10.1233 402.062 9.74805 403.029 9.57729C403.997 9.40652 404.99 9.44415 405.942 9.68768L406.03 9.70882L405.315 12.5048L405.227 12.4836C404.909 12.4042 404.583 12.363 404.256 12.3611C403.647 12.3599 403.046 12.4968 402.497 12.7615C401.949 13.0262 401.467 13.4119 401.088 13.8896C400.71 14.3673 400.444 14.9247 400.311 15.5199C400.178 16.1152 400.181 16.7329 400.32 17.3268C400.459 17.9207 400.73 18.4754 401.113 18.9493C401.497 19.4232 401.982 19.8041 402.533 20.0633C403.085 20.3226 403.687 20.4536 404.296 20.4464C404.905 20.4392 405.504 20.2941 406.049 20.0219L406.129 19.9817L407.45 22.5473L407.368 22.5896C406.403 23.0812 405.336 23.3368 404.254 23.3356ZM404.254 9.65387C402.467 9.65387 400.753 10.365 399.49 11.6309C398.226 12.8968 397.516 14.6137 397.516 16.4039C397.516 18.1941 398.226 19.9109 399.49 21.1768C400.753 22.4427 402.467 23.1538 404.254 23.1538C405.278 23.1559 406.289 22.9208 407.207 22.467L406.051 20.2227C405.491 20.4898 404.879 20.6284 404.258 20.6284C403.139 20.6284 402.066 20.1831 401.275 19.3905C400.484 18.5978 400.039 17.5227 400.039 16.4017C400.039 15.2808 400.484 14.2057 401.275 13.413C402.066 12.6204 403.139 12.1751 404.258 12.1751C404.57 12.176 404.881 12.2122 405.184 12.2829L405.817 9.83773C405.305 9.7156 404.78 9.65389 404.254 9.65387Z" fill="#29483B" stroke="#637B71" stroke-miterlimit="10"/>
<path d="M407.903 22.2874L406.336 19.8697L406.414 19.819C407.231 19.3054 407.836 18.5151 408.12 17.5919C408.404 16.6687 408.347 15.6741 407.96 14.7893L407.924 14.7068L410.555 13.5466L410.591 13.6312C411.256 15.1429 411.359 16.8436 410.88 18.4248C410.402 20.0059 409.373 21.3628 407.981 22.2493L407.903 22.2874ZM406.579 19.9226L407.958 22.0359C409.274 21.17 410.245 19.8694 410.702 18.3603C411.159 16.8512 411.073 15.2294 410.46 13.777L408.154 14.7998C408.526 15.7042 408.572 16.7099 408.284 17.6446C407.997 18.5792 407.394 19.3845 406.579 19.9226Z" fill="#29483B" stroke="#637B71" stroke-miterlimit="10"/>
<path d="M114.504 20.3368H112.605V14.3096H114.504V20.3368ZM112.797 20.1529H114.323V14.4913H112.797V20.1529Z" fill="#29483B" stroke="#637B71" stroke-miterlimit="10"/>
<path d="M111.598 20.3366H109.699V12.196H111.598V20.3366ZM109.889 20.1527H111.414V12.3778H109.889V20.1527Z" fill="#29483B" stroke="#637B71" stroke-miterlimit="10"/>
<path d="M100.982 14.3096H102.881V20.3368H100.982V14.3096ZM102.689 14.4913H101.164V20.1529H102.689V14.4913Z" fill="#29483B" stroke="#637B71" stroke-miterlimit="10"/>
<path d="M103.889 12.196H105.787V20.3366H103.889V12.196ZM105.597 12.3778H104.072V20.1527H105.597V12.3778Z" fill="#29483B" stroke="#637B71" stroke-miterlimit="10"/>
<path d="M108.684 20.3368H106.785V9.98145H108.684V20.3368ZM106.975 20.1529H108.502V10.1653H106.975V20.1529Z" fill="#29483B" stroke="#637B71" stroke-miterlimit="10"/>
<path d="M107.722 8.61621H107.748L114.045 11.1755C114.067 11.1847 114.085 11.2025 114.094 11.2249C114.103 11.2473 114.103 11.2724 114.094 11.2949C114.085 11.3173 114.067 11.3351 114.045 11.3444C114.023 11.3537 113.997 11.3538 113.975 11.3445L107.714 8.80852L100.926 11.5981C100.903 11.6073 100.878 11.6074 100.856 11.5983C100.833 11.5893 100.815 11.5717 100.805 11.5495C100.801 11.5384 100.799 11.5265 100.799 11.5146C100.799 11.5026 100.801 11.4908 100.806 11.4798C100.811 11.4688 100.818 11.4589 100.826 11.4505C100.835 11.4422 100.845 11.4356 100.856 11.4312L107.678 8.62466L107.722 8.61621Z" fill="#29483B" stroke="#637B71" stroke-miterlimit="10"/>
<path d="M112.74 11.6447C112.738 11.6335 112.738 11.622 112.74 11.6108C112.74 11.5987 112.742 11.5867 112.747 11.5756C112.752 11.5644 112.758 11.5543 112.767 11.5458C112.776 11.5374 112.786 11.5307 112.797 11.5263C112.808 11.5218 112.82 11.5197 112.833 11.52H114.351L113.748 10.0871C113.744 10.076 113.741 10.0642 113.742 10.0522C113.742 10.0402 113.744 10.0284 113.749 10.0174C113.754 10.0064 113.76 9.99646 113.769 9.98812C113.777 9.97977 113.788 9.9732 113.799 9.96878C113.821 9.95964 113.846 9.95963 113.868 9.96873C113.89 9.97783 113.908 9.99531 113.917 10.0174L114.562 11.5876C114.57 11.6009 114.573 11.6158 114.573 11.6309C114.573 11.646 114.57 11.6609 114.562 11.6742C114.554 11.6868 114.543 11.6971 114.53 11.7042C114.516 11.7112 114.501 11.7147 114.486 11.7144H112.83C112.81 11.7154 112.789 11.7089 112.772 11.6961C112.756 11.6834 112.744 11.6651 112.74 11.6447Z" fill="#29483B" stroke="#637B71" stroke-miterlimit="10"/>
<path d="M403.739 32.127V227.467C403.739 227.831 403.668 228.192 403.529 228.529C403.39 228.866 403.186 229.172 402.929 229.43C402.671 229.688 402.366 229.893 402.03 230.032C401.693 230.172 401.333 230.244 400.969 230.244H275.506V276.035H316.952L342.924 281.741V288.943H160.211V281.779L186.183 276.046H227.627V230.244H102.166C101.432 230.241 100.729 229.948 100.211 229.427C99.6932 228.907 99.4023 228.202 99.4023 227.467V32.127C99.4023 31.3905 99.6944 30.6842 100.214 30.1634C100.734 29.6427 101.439 29.3501 102.174 29.3501H400.969C401.333 29.3501 401.693 29.4219 402.03 29.5615C402.366 29.7011 402.671 29.9057 402.929 30.1636C403.186 30.4214 403.39 30.7276 403.529 31.0645C403.668 31.4014 403.739 31.7624 403.739 32.127Z" stroke="#637B71" stroke-miterlimit="10"/>
<g opacity="0.37">
<path d="M400.853 32.2412H102.279V218.679H400.853V32.2412Z" fill="#637B71" stroke="#637B71" stroke-miterlimit="10"/>
</g>
<g opacity="0.17">
<path d="M398.257 34.8425H104.877V216.076H398.257V34.8425Z" stroke="#637B71" stroke-miterlimit="10"/>
</g>
<path d="M389.021 206.826V44.0947L114.11 44.0947V206.826L389.021 206.826Z" fill="white" stroke="#637B71" stroke-width="0.75" stroke-miterlimit="10"/>
<path d="M316.611 119.976C317.808 115.169 320.789 110.999 324.947 108.315C329.105 105.632 334.128 104.638 338.992 105.534L342.418 92.9552C338.24 92.0425 333.923 91.9663 329.715 92.7309C325.507 93.4956 321.491 95.086 317.899 97.4107C314.307 99.7355 311.208 102.749 308.783 106.277C306.357 109.806 304.651 113.78 303.764 117.971L316.611 119.976Z" fill="white" stroke="black" stroke-width="0.75" stroke-miterlimit="10"/>
<path d="M345.706 93.8533L342.293 106.428C346.174 107.877 349.492 110.527 351.767 113.994C354.041 117.462 355.153 121.565 354.942 125.708C354.73 129.852 353.206 133.82 350.59 137.036C347.974 140.253 344.402 142.55 340.395 143.595L342.58 156.435C349.507 154.884 355.735 151.1 360.31 145.664C364.885 140.227 367.554 133.438 367.909 126.336C368.264 119.234 366.285 112.212 362.274 106.344C358.264 100.477 352.444 96.0896 345.706 93.8533Z" fill="white" stroke="black" stroke-width="0.75" stroke-miterlimit="10"/>
<path d="M337.01 144.151C336.51 144.191 336.006 144.216 335.498 144.216C332.941 144.216 330.409 143.712 328.046 142.732C325.684 141.752 323.537 140.315 321.729 138.503C319.921 136.692 318.487 134.542 317.509 132.175C316.53 129.808 316.027 127.272 316.027 124.71C316.027 124.253 316.048 123.803 316.08 123.355L303.212 121.348C303.098 122.465 303.041 123.587 303.041 124.71C303.041 133.332 306.46 141.601 312.546 147.698C318.631 153.794 326.885 157.219 335.492 157.219C336.728 157.218 337.963 157.148 339.192 157.008L337.01 144.151Z" fill="white" stroke="black" stroke-width="0.75" stroke-miterlimit="10"/>
<path d="M330.542 98.3968C330.482 98.3971 330.424 98.3855 330.369 98.3626C330.314 98.3398 330.265 98.3061 330.223 98.2637C330.14 98.1791 330.094 98.0653 330.094 97.9467C330.094 97.8281 330.14 97.7143 330.223 97.6297L343.498 84.3305C343.54 84.2884 343.59 84.2549 343.644 84.2321C343.699 84.2092 343.758 84.1974 343.817 84.1973H367.865C367.927 84.1931 367.99 84.2017 368.048 84.2225C368.107 84.2434 368.16 84.2761 368.206 84.3186C368.251 84.3611 368.287 84.4125 368.312 84.4696C368.337 84.5268 368.35 84.5884 368.35 84.6507C368.35 84.7129 368.337 84.7745 368.312 84.8317C368.287 84.8888 368.251 84.9402 368.206 84.9827C368.16 85.0252 368.107 85.0579 368.048 85.0788C367.99 85.0996 367.927 85.1082 367.865 85.104H344.005L330.862 98.27C330.776 98.3531 330.661 98.3987 330.542 98.3968Z" fill="#637B71" stroke="#637B71" stroke-miterlimit="10"/>
<path d="M294.769 146.097H270.721C270.659 146.101 270.597 146.093 270.538 146.072C270.479 146.051 270.426 146.018 270.38 145.976C270.335 145.933 270.299 145.882 270.274 145.825C270.249 145.768 270.236 145.706 270.236 145.644C270.236 145.581 270.249 145.52 270.274 145.463C270.299 145.406 270.335 145.354 270.38 145.312C270.426 145.269 270.479 145.236 270.538 145.216C270.597 145.195 270.659 145.186 270.721 145.19H294.586L307.728 132.024C307.767 131.973 307.817 131.931 307.873 131.901C307.93 131.87 307.992 131.852 308.057 131.848C308.121 131.844 308.185 131.853 308.245 131.876C308.305 131.899 308.36 131.934 308.406 131.979C308.451 132.025 308.486 132.08 308.509 132.14C308.532 132.2 308.541 132.265 308.537 132.329C308.533 132.393 308.515 132.456 308.484 132.513C308.454 132.57 308.412 132.619 308.361 132.658L295.086 145.958C295.045 146.001 294.996 146.035 294.941 146.059C294.887 146.083 294.828 146.096 294.769 146.097Z" fill="#637B71" stroke="#637B71" stroke-miterlimit="10"/>
<path d="M362.757 130.67C362.697 130.67 362.639 130.658 362.584 130.635C362.529 130.612 362.48 130.579 362.438 130.536C362.355 130.452 362.309 130.338 362.309 130.219C362.309 130.101 362.355 129.987 362.438 129.902L375.713 116.603C375.755 116.561 375.804 116.527 375.859 116.504C375.914 116.481 375.972 116.47 376.032 116.47H400.08C400.142 116.466 400.204 116.474 400.263 116.495C400.321 116.516 400.375 116.549 400.421 116.591C400.466 116.634 400.502 116.685 400.527 116.742C400.552 116.799 400.565 116.861 400.565 116.923C400.565 116.986 400.552 117.047 400.527 117.104C400.502 117.161 400.466 117.213 400.421 117.255C400.375 117.298 400.321 117.331 400.263 117.351C400.204 117.372 400.142 117.381 400.08 117.377H376.219L363.077 130.543C362.991 130.626 362.876 130.671 362.757 130.67Z" fill="#637B71" stroke="#637B71" stroke-miterlimit="10"/>
<path d="M272.576 139.888C273.118 140.208 273.732 140.383 274.361 140.395C275.762 140.395 276.194 139.501 276.182 138.831C276.169 137.703 275.154 137.219 274.099 137.219H273.494V136.399H274.099C274.893 136.399 275.897 135.989 275.897 135.034C275.897 134.387 275.488 133.816 274.486 133.816C273.908 133.833 273.347 134.019 272.874 134.351L272.589 133.556C273.216 133.147 273.95 132.931 274.699 132.935C276.285 132.935 277.004 133.878 277.004 134.858C277.004 135.691 276.509 136.399 275.517 136.76V136.786C276.509 136.984 277.314 137.728 277.314 138.859C277.314 140.15 276.31 141.279 274.378 141.279C273.644 141.288 272.92 141.1 272.283 140.733L272.576 139.888Z" fill="white" stroke="#637B71" stroke-width="0.75" stroke-miterlimit="10"/>
<path d="M284.026 137.02C284.026 139.767 283.01 141.276 281.225 141.276C279.651 141.276 278.586 139.797 278.561 137.13C278.561 134.425 279.725 132.935 281.362 132.935C283.058 132.935 284.026 134.45 284.026 137.02ZM279.651 137.143C279.651 139.241 280.284 140.433 281.286 140.433C282.402 140.433 282.936 139.129 282.936 137.069C282.936 135.082 282.427 133.778 281.299 133.778C280.345 133.778 279.651 134.947 279.651 137.143Z" fill="white" stroke="#637B71" stroke-width="0.75" stroke-miterlimit="10"/>
<path d="M288.66 135.344C288.66 137.035 287.768 137.88 286.728 137.88C285.724 137.88 284.857 137.073 284.844 135.446C284.831 133.819 285.724 132.927 286.789 132.927C287.917 132.935 288.66 133.795 288.66 135.344ZM285.707 135.418C285.683 136.448 286.067 137.23 286.749 137.23C287.466 137.23 287.789 136.46 287.789 135.393C287.789 134.412 287.504 133.592 286.749 133.592C286.072 133.584 285.711 134.4 285.711 135.418H285.707ZM286.65 141.277L291.383 132.935H292.077L287.344 141.277H286.65ZM293.898 138.683C293.898 140.374 293.006 141.219 291.978 141.219C290.951 141.219 290.107 140.412 290.094 138.798C290.082 137.183 290.974 136.262 292.039 136.262C293.172 136.274 293.9 137.143 293.9 138.683H293.898ZM290.945 138.757C290.932 139.789 291.329 140.571 291.999 140.571C292.719 140.571 293.041 139.799 293.041 138.732C293.041 137.751 292.757 136.932 291.999 136.932C291.324 136.932 290.947 137.739 290.947 138.757H290.945Z" fill="white" stroke="#637B71" stroke-width="0.75" stroke-miterlimit="10"/>
<path d="M345.477 81.0888V80.4188L346.32 79.5883C348.377 77.625 349.307 76.5831 349.32 75.3616C349.32 74.5438 348.924 73.7851 347.721 73.7851C347.089 73.8083 346.485 74.0494 346.01 74.4677L345.664 73.6984C346.304 73.1646 347.112 72.8742 347.945 72.8785C349.679 72.8785 350.411 74.0704 350.411 75.2264C350.411 76.7057 349.333 77.9188 347.635 79.5587L346.989 80.1547V80.18H350.609V81.0845L345.477 81.0888Z" fill="white" stroke="#637B71" stroke-width="0.75" stroke-miterlimit="10"/>
<path d="M357.184 76.9676C357.184 79.715 356.168 81.226 354.383 81.226C352.809 81.226 351.744 79.7467 351.719 77.0796C351.719 74.3725 352.883 72.8826 354.52 72.8826C356.22 72.8826 357.184 74.3978 357.184 76.9676ZM352.809 77.0923C352.809 79.1909 353.455 80.3807 354.446 80.3807C355.56 80.3807 356.094 79.0789 356.094 77.0184C356.094 75.0318 355.585 73.7279 354.459 73.7279C353.506 73.7279 352.811 74.8945 352.811 77.0923H352.809Z" fill="white" stroke="#637B71" stroke-width="0.75" stroke-miterlimit="10"/>
<path d="M361.826 75.2919C361.826 76.9932 360.934 77.8279 359.892 77.8279C358.888 77.8279 358.021 77.0206 358.008 75.3955C357.995 73.7703 358.888 72.8743 359.955 72.8743C361.077 72.8827 361.826 73.7534 361.826 75.2919ZM358.873 75.3659C358.848 76.3972 359.231 77.1791 359.913 77.1791C360.632 77.1791 360.953 76.4099 360.953 75.3405C360.953 74.36 360.668 73.5421 359.913 73.5421C359.231 73.5421 358.873 74.3494 358.873 75.3659ZM359.814 81.2262L364.547 72.8827H365.241L360.508 81.2262H359.814ZM367.064 78.6373C367.064 80.328 366.172 81.1733 365.142 81.1733C364.113 81.1733 363.271 80.3681 363.259 78.7536C363.246 77.139 364.138 76.2176 365.203 76.2176C366.332 76.2239 367.064 77.0925 367.064 78.6373ZM364.111 78.7113C364.1 79.7426 364.497 80.5245 365.166 80.5245C365.883 80.5245 366.205 79.7553 366.205 78.688C366.205 77.7075 365.921 76.8875 365.166 76.8875C364.486 76.8811 364.113 77.6884 364.113 78.705L364.111 78.7113Z" fill="white" stroke="#637B71" stroke-width="0.75" stroke-miterlimit="10"/>
<path d="M382.144 106.567H379.071L378.763 108.64C378.98 108.607 379.199 108.591 379.419 108.592C380.024 108.575 380.623 108.721 381.153 109.014C381.515 109.222 381.814 109.525 382.017 109.89C382.22 110.256 382.32 110.669 382.307 111.087C382.307 112.664 381.054 113.835 379.307 113.835C378.606 113.85 377.912 113.679 377.299 113.338L377.573 112.505C378.101 112.796 378.692 112.949 379.294 112.951C380.324 112.951 381.204 112.281 381.204 111.202C381.191 110.16 380.497 109.414 378.883 109.414C378.51 109.418 378.138 109.447 377.769 109.5L378.288 105.629H382.142L382.144 106.567Z" fill="white" stroke="#637B71" stroke-width="0.75" stroke-miterlimit="10"/>
<path d="M389.038 109.598C389.038 112.345 388.021 113.856 386.237 113.856C384.663 113.856 383.598 112.377 383.572 109.707C383.572 107.002 384.739 105.512 386.374 105.512C388.08 105.512 389.038 107.028 389.038 109.598ZM384.663 109.72C384.663 111.819 385.308 113.011 386.3 113.011C387.414 113.011 387.947 111.707 387.947 109.646C387.947 107.66 387.439 106.356 386.313 106.356C385.365 106.356 384.671 107.524 384.671 109.72H384.663Z" fill="white" stroke="#637B71" stroke-width="0.75" stroke-miterlimit="10"/>
<path d="M393.679 107.922C393.679 109.612 392.787 110.458 391.745 110.458C390.743 110.458 389.874 109.65 389.863 108.023C389.853 106.396 390.743 105.504 391.808 105.504C392.937 105.512 393.679 106.381 393.679 107.922ZM390.726 107.996C390.701 109.025 391.085 109.807 391.766 109.807C392.485 109.807 392.808 109.037 392.808 107.97C392.808 106.99 392.523 106.17 391.766 106.17C391.091 106.17 390.726 106.977 390.726 107.996ZM391.667 113.856L396.401 105.512H397.095L392.361 113.856H391.667ZM398.917 111.261C398.917 112.951 398.025 113.797 396.996 113.797C395.966 113.797 395.125 112.989 395.112 111.375C395.099 109.76 395.992 108.839 397.059 108.839C398.192 108.858 398.924 109.72 398.924 111.261H398.917ZM395.964 111.335C395.951 112.366 396.348 113.148 397.019 113.148C397.738 113.148 398.059 112.376 398.059 111.309C398.059 110.329 397.774 109.509 397.019 109.509C396.346 109.509 395.975 110.316 395.975 111.335H395.964Z" fill="white" stroke="#637B71" stroke-width="0.75" stroke-miterlimit="10"/>
<g style="mix-blend-mode:multiply">
<path d="M259.476 66.063H125.594V132.817H259.476V66.063Z" fill="white" stroke="black" stroke-width="0.75" stroke-miterlimit="10"/>
</g>
<path d="M142.663 106.548H131.559V130.653H142.663V106.548Z" fill="white" stroke="black" stroke-width="0.75" stroke-miterlimit="10"/>
<path d="M159.218 95.5249H148.113V130.653H159.218V95.5249Z" fill="white" stroke="black" stroke-width="0.75" stroke-miterlimit="10"/>
<path d="M175.772 88.3142H164.668V130.653H175.772V88.3142Z" fill="white" stroke="black" stroke-width="0.75" stroke-miterlimit="10"/>
<path d="M195.792 83.6797H187.977V91.5096H195.792V83.6797Z" fill="white" stroke="black" stroke-width="0.75" stroke-miterlimit="10"/>
<path d="M240.989 85.9451H203.241C202.534 85.9451 201.961 86.5194 201.961 87.2279V89.8125C201.961 90.5209 202.534 91.0953 203.241 91.0953H240.989C241.696 91.0953 242.269 90.5209 242.269 89.8125V87.2279C242.269 86.5194 241.696 85.9451 240.989 85.9451Z" fill="white" stroke="black" stroke-width="0.75" stroke-miterlimit="10"/>
<path d="M195.792 100.265H187.977V108.095H195.792V100.265Z" fill="white" stroke="black" stroke-width="0.75" stroke-miterlimit="10"/>
<path d="M240.989 102.531H203.241C202.534 102.531 201.961 103.105 201.961 103.813V106.398C201.961 107.106 202.534 107.681 203.241 107.681H240.989C241.696 107.681 242.269 107.106 242.269 106.398V103.813C242.269 103.105 241.696 102.531 240.989 102.531Z" fill="white" stroke="black" stroke-width="0.75" stroke-miterlimit="10"/>
<path d="M195.792 116.851H187.977V124.68H195.792V116.851Z" fill="white" stroke="black" stroke-width="0.75" stroke-miterlimit="10"/>
<path d="M240.989 119.116H203.241C202.534 119.116 201.961 119.69 201.961 120.399V122.983C201.961 123.692 202.534 124.266 203.241 124.266H240.989C241.696 124.266 242.269 123.692 242.269 122.983V120.399C242.269 119.69 241.696 119.116 240.989 119.116Z" fill="white" stroke="black" stroke-width="0.75" stroke-miterlimit="10"/>
<path d="M389.303 44.156H114.318V56.6754H389.303V44.156Z" fill="white" stroke="black" stroke-width="0.75" stroke-miterlimit="10"/>
<path d="M365.962 51.1956H358.996V52.7467H365.962V51.1956Z" fill="#29483B"/>
<path d="M375.611 52.3965L370.686 47.4622L369.591 48.559L374.516 53.4934L375.611 52.3965Z" fill="#29483B"/>
<path d="M370.688 53.4939L375.613 48.5596L374.518 47.4627L369.593 52.3971L370.688 53.4939Z" fill="#29483B"/>
<path d="M378.502 47.1316V53.4885H384.852V47.1316H378.502ZM383.622 52.2628H379.732V48.3658H383.622V52.2628Z" fill="#29483B"/>
<path d="M138.105 51.925C138.881 51.1484 138.881 49.8892 138.105 49.1126C137.33 48.336 136.073 48.336 135.298 49.1126C134.523 49.8892 134.523 51.1484 135.298 51.925C136.073 52.7016 137.33 52.7016 138.105 51.925Z" fill="#29483B" stroke="#637B71" stroke-miterlimit="10"/>
<path d="M129.859 51.9252C130.635 51.1486 130.635 49.8895 129.859 49.1129C129.084 48.3362 127.827 48.3362 127.052 49.1129C126.277 49.8895 126.277 51.1486 127.052 51.9252C127.827 52.7018 129.084 52.7018 129.859 51.9252Z" fill="#29483B" stroke="#637B71" stroke-miterlimit="10"/>
<path d="M122.136 50.9667C122.388 49.8977 121.727 48.8267 120.66 48.5744C119.593 48.3221 118.524 48.9841 118.272 50.0531C118.021 51.122 118.681 52.193 119.748 52.4453C120.815 52.6976 121.884 52.0356 122.136 50.9667Z" fill="#29483B" stroke="#637B71" stroke-miterlimit="10"/>
<g style="mix-blend-mode:multiply">
<path d="M171.251 152.397H135.938C133.619 152.397 131.738 154.281 131.738 156.604V191.982C131.738 194.305 133.619 196.189 135.938 196.189H171.251C173.571 196.189 175.452 194.305 175.452 191.982V156.604C175.452 154.281 173.571 152.397 171.251 152.397Z" fill="#637B71" stroke="black" stroke-width="0.75" stroke-miterlimit="10"/>
</g>
<path d="M168.634 149.62H133.321C131.002 149.62 129.121 151.504 129.121 153.828V189.205C129.121 191.529 131.002 193.412 133.321 193.412H168.634C170.954 193.412 172.834 191.529 172.834 189.205V153.828C172.834 151.504 170.954 149.62 168.634 149.62Z" fill="white" stroke="black" stroke-width="0.75" stroke-miterlimit="10"/>
<path d="M225.075 151.317H187.863C186.875 151.317 186.074 152.119 186.074 153.109V159.548C186.074 160.538 186.875 161.34 187.863 161.34H225.075C226.063 161.34 226.864 160.538 226.864 159.548V153.109C226.864 152.119 226.063 151.317 225.075 151.317Z" fill="white" stroke="black" stroke-width="0.75" stroke-miterlimit="10"/>
<path d="M247.085 169.642H187.863C186.875 169.642 186.074 170.444 186.074 171.434V177.873C186.074 178.863 186.875 179.665 187.863 179.665H247.085C248.073 179.665 248.874 178.863 248.874 177.873V171.434C248.874 170.444 248.073 169.642 247.085 169.642Z" fill="white" stroke="black" stroke-width="0.75" stroke-miterlimit="10"/>
<path d="M247.085 187.966H187.863C186.875 187.966 186.074 188.769 186.074 189.758V196.198C186.074 197.187 186.875 197.99 187.863 197.99H247.085C248.073 197.99 248.874 197.187 248.874 196.198V189.758C248.874 188.769 248.073 187.966 247.085 187.966Z" fill="white" stroke="black" stroke-width="0.75" stroke-miterlimit="10"/>
<path d="M469.884 217.392H469.816L438.553 212.261C438.514 212.254 438.477 212.242 438.441 212.225L417.256 201.88L401.622 198.791C401.551 198.775 401.485 198.742 401.43 198.693L388.849 187.467H379.124C379.016 187.467 378.911 187.424 378.835 187.347C378.758 187.27 378.715 187.166 378.715 187.057C378.715 186.949 378.758 186.844 378.835 186.768C378.911 186.691 379.016 186.647 379.124 186.647H389.011C389.111 186.649 389.208 186.685 389.283 186.751L401.896 198.009L417.473 201.086C417.507 201.093 417.54 201.104 417.572 201.12L438.751 211.462L469.955 216.583C470.058 216.598 470.152 216.651 470.217 216.733C470.282 216.814 470.313 216.917 470.305 217.021C470.297 217.125 470.249 217.222 470.172 217.292C470.095 217.362 469.994 217.4 469.89 217.399L469.884 217.392Z" fill="white" stroke="black" stroke-width="0.75" stroke-miterlimit="10"/>
<path d="M470.042 216.737C470.02 216.739 469.997 216.739 469.975 216.737L438.712 211.606C438.672 211.6 438.634 211.588 438.598 211.57L417.412 201.215L401.781 198.125C401.709 198.11 401.642 198.077 401.587 198.028L389.006 186.802H379.274C379.166 186.802 379.062 186.759 378.985 186.682C378.908 186.605 378.865 186.501 378.865 186.392C378.865 186.283 378.908 186.179 378.985 186.102C379.062 186.025 379.166 185.982 379.274 185.982H389.162C389.262 185.983 389.358 186.02 389.434 186.086L402.049 197.343L417.623 200.42C417.658 200.427 417.692 200.438 417.724 200.454L438.904 210.797L470.108 215.917C470.211 215.932 470.304 215.986 470.369 216.067C470.434 216.149 470.466 216.252 470.458 216.356C470.449 216.46 470.402 216.557 470.325 216.627C470.247 216.697 470.146 216.735 470.042 216.733V216.737Z" fill="white" stroke="black" stroke-width="0.75" stroke-miterlimit="10"/>
<path d="M475.457 246.588H376.943C376.798 246.588 376.66 246.531 376.558 246.428C376.456 246.326 376.398 246.187 376.398 246.043V177.203C376.407 177.064 376.468 176.934 376.57 176.838C376.671 176.743 376.805 176.69 376.944 176.69C377.083 176.69 377.217 176.743 377.318 176.838C377.419 176.934 377.48 177.064 377.489 177.203V245.495H475.467C475.542 245.491 475.616 245.501 475.687 245.527C475.757 245.552 475.821 245.592 475.875 245.643C475.93 245.694 475.973 245.756 476.003 245.824C476.032 245.893 476.048 245.967 476.048 246.042C476.048 246.116 476.032 246.19 476.003 246.259C475.973 246.328 475.93 246.389 475.875 246.441C475.821 246.492 475.757 246.531 475.687 246.557C475.616 246.582 475.542 246.593 475.467 246.588H475.457Z" fill="#637B71"/>
<path d="M391.379 188.827C392.602 187.602 392.602 185.616 391.379 184.392C390.157 183.167 388.174 183.167 386.952 184.391C385.729 185.616 385.729 187.602 386.952 188.827C388.174 190.052 390.157 190.052 391.379 188.827Z" fill="#637B71"/>
<path d="M389.166 188.249C390.07 188.249 390.803 187.515 390.803 186.609C390.803 185.704 390.07 184.969 389.166 184.969C388.262 184.969 387.529 185.704 387.529 186.609C387.529 187.515 388.262 188.249 389.166 188.249Z" fill="white" stroke="black" stroke-width="0.75" stroke-miterlimit="10"/>
<path d="M404.895 198.431C405.292 196.745 404.25 195.056 402.567 194.658C400.884 194.26 399.198 195.304 398.801 196.99C398.404 198.676 399.446 200.365 401.129 200.763C402.812 201.161 404.498 200.116 404.895 198.431Z" fill="#637B71"/>
<path d="M401.864 199.368C402.768 199.368 403.501 198.634 403.501 197.728C403.501 196.822 402.768 196.088 401.864 196.088C400.959 196.088 400.227 196.822 400.227 197.728C400.227 198.634 400.959 199.368 401.864 199.368Z" fill="white" stroke="black" stroke-width="0.75" stroke-miterlimit="10"/>
<g opacity="0.21">
<path d="M387.816 191.1H380.631V243.621H387.816V191.1Z" fill="#637B71" stroke="#637B71" stroke-miterlimit="10"/>
</g>
<g opacity="0.21">
<path d="M398.996 201.219H391.811V243.621H398.996V201.219Z" fill="#637B71" stroke="#637B71" stroke-miterlimit="10"/>
</g>
<g opacity="0.21">
<path d="M410.175 203.286H402.99V243.621H410.175V203.286Z" fill="#637B71" stroke="#637B71" stroke-miterlimit="10"/>
</g>
<path d="M18.6844 96.9832C18.6844 96.9832 21.1884 72.4685 46.2936 72.4685C68.5574 72.4685 77.7991 98.7901 70.8188 110.297C70.8188 110.297 79.4403 109.063 81.9042 113.176C82.1052 113.514 82.2801 113.867 82.4274 114.232C84.3808 119.051 80.5837 124.285 75.3943 124.285H9.03126C7.84168 124.294 6.66764 124.014 5.60911 123.47C4.55057 122.927 3.63889 122.135 2.95166 121.162C0.726128 117.962 -1.52261 112.436 1.66064 105.202C7.37741 92.2197 18.6844 96.9832 18.6844 96.9832Z" fill="white" stroke="#637B71" stroke-width="0.75" stroke-miterlimit="10"/>
<path d="M238.234 18.8721L238.021 20.2881V1.26807H223.246L217.215 17.7267L238.234 18.8721Z" fill="white" stroke="#637B71" stroke-width="0.75" stroke-miterlimit="10"/>
<path d="M238.437 5.34473H205.689V24.3246H238.437V5.34473Z" fill="white" stroke="#637B71" stroke-width="0.75" stroke-miterlimit="10"/>
<path d="M121.293 186.61H24.9746V196.238H121.293V186.61Z" fill="white" stroke="black" stroke-width="0.75" stroke-miterlimit="10"/>
<path d="M121.293 196.236H24.9746V276.023H121.293V196.236Z" fill="white" stroke="black" stroke-width="0.75" stroke-miterlimit="10"/>
<path d="M97.4351 250.417H48.832" stroke="black" stroke-width="0.75" stroke-miterlimit="10"/>
<path d="M97.4351 262.493H48.832" stroke="black" stroke-width="0.75" stroke-miterlimit="10"/>
<path d="M33.3895 191.037C33.475 191.395 33.4414 191.771 33.2939 192.109C33.1463 192.446 32.8929 192.726 32.5721 192.906C32.2513 193.085 31.8807 193.155 31.5166 193.105C31.1524 193.054 30.8148 192.886 30.5548 192.626C30.2949 192.365 30.127 192.027 30.0765 191.662C30.0261 191.297 30.0959 190.926 30.2754 190.605C30.4548 190.283 30.7341 190.029 31.0708 189.882C31.4075 189.734 31.7831 189.7 32.1407 189.786C32.4454 189.855 32.7245 190.009 32.9454 190.231C33.1664 190.452 33.3204 190.732 33.3895 191.037Z" fill="#637B71"/>
<path d="M41.7852 191.037C41.8481 191.316 41.8397 191.605 41.7605 191.88C41.6814 192.154 41.5342 192.404 41.3326 192.606C41.131 192.808 40.8816 192.955 40.6077 193.035C40.3339 193.114 40.0444 193.123 39.7663 193.059C39.4616 192.989 39.1828 192.835 38.9619 192.613C38.741 192.391 38.587 192.112 38.5175 191.806C38.2454 190.58 39.0997 189.513 40.3233 189.786C40.9392 189.921 41.648 190.42 41.7852 191.037Z" fill="#637B71"/>
<path d="M97.6729 307.054C96.3195 307.731 94.8534 308.323 93.2745 308.83C91.7519 309.338 90.1448 309.817 88.4531 310.268C91.8365 311.058 94.9098 312.129 97.6729 313.483L125.332 327.947C126.798 328.623 127.813 329.469 128.377 330.484C128.998 331.499 129.308 332.627 129.308 333.867V350.277L61.5551 314.836V305.616L129.308 270.26V286.669C129.308 287.853 128.998 288.953 128.377 289.968C127.813 290.983 126.798 291.829 125.332 292.505L97.6729 307.054ZM75.9345 569.94C74.8631 572.76 73.1432 574.874 70.7749 576.284C68.4629 577.75 66.0945 578.483 63.6697 578.483H53.7733L102.579 452.198C103.537 449.66 105.06 447.687 107.146 446.277C109.233 444.867 111.629 444.162 114.336 444.162H124.317L75.9345 569.94ZM134.806 711.616V720.836L67.0531 756.277V739.867C67.0531 738.627 67.3351 737.499 67.899 736.484C68.5193 735.469 69.5625 734.623 71.0286 733.947L98.6879 719.483C100.098 718.806 101.564 718.214 103.086 717.706C104.609 717.142 106.244 716.663 107.992 716.268C106.244 715.874 104.609 715.422 103.086 714.915C101.564 714.351 100.098 713.731 98.6879 713.054L71.0286 698.505C69.5625 697.829 68.5193 696.983 67.899 695.968C67.3351 694.953 67.0531 693.853 67.0531 692.669V676.26L134.806 711.616Z" fill="white"/>
<path d="M97.6729 307.054L97.8406 307.39L97.8475 307.386L97.6729 307.054ZM93.2745 308.83L93.1597 308.473L93.1559 308.475L93.2745 308.83ZM88.4531 310.268L88.3565 309.906L86.9068 310.293L88.3679 310.633L88.4531 310.268ZM97.6729 313.482L97.8467 313.15L97.8378 313.146L97.6729 313.482ZM125.332 327.947L125.158 328.279L125.167 328.283L125.175 328.287L125.332 327.947ZM128.377 330.484L128.049 330.666L128.053 330.673L128.057 330.68L128.377 330.484ZM129.308 350.277L129.134 350.609L129.683 350.896V350.277H129.308ZM61.5551 314.836H61.1801V315.063L61.3813 315.168L61.5551 314.836ZM61.5551 305.616L61.3816 305.284L61.1801 305.389V305.616H61.5551ZM129.308 270.26H129.683V269.641L129.134 269.927L129.308 270.26ZM128.377 289.968L128.057 289.772L128.053 289.779L128.049 289.786L128.377 289.968ZM125.332 292.505L125.175 292.165L125.166 292.169L125.158 292.174L125.332 292.505ZM97.6729 307.054L97.5052 306.719C96.1704 307.386 94.7222 307.971 93.1597 308.473L93.2745 308.83L93.3892 309.187C94.9846 308.675 96.4686 308.075 97.8406 307.389L97.6729 307.054ZM93.2745 308.83L93.1559 308.475C91.6412 308.979 90.0415 309.457 88.3565 309.906L88.4531 310.268L88.5497 310.631C90.2482 310.178 91.8627 309.696 93.3931 309.186L93.2745 308.83ZM88.4531 310.268L88.3679 310.633C91.7272 311.417 94.7733 312.48 97.5079 313.819L97.6729 313.482L97.8378 313.146C95.0463 311.778 91.9458 310.698 88.5383 309.903L88.4531 310.268ZM97.6729 313.482L97.4991 313.815L125.158 328.279L125.332 327.947L125.506 327.614L97.8467 313.15L97.6729 313.482ZM125.332 327.947L125.175 328.287C126.596 328.943 127.537 329.743 128.049 330.666L128.377 330.484L128.705 330.302C128.09 329.195 127 328.303 125.489 327.606L125.332 327.947ZM128.377 330.484L128.057 330.68C128.64 331.633 128.933 332.693 128.933 333.867H129.308H129.683C129.683 332.561 129.355 331.365 128.697 330.289L128.377 330.484ZM129.308 333.867H128.933V350.277H129.308H129.683V333.867H129.308ZM129.308 350.277L129.481 349.945L61.7289 314.504L61.5551 314.836L61.3813 315.168L129.134 350.609L129.308 350.277ZM61.5551 314.836H61.9301V305.616H61.5551H61.1801V314.836H61.5551ZM61.5551 305.616L61.7286 305.949L129.481 270.592L129.308 270.26L129.134 269.927L61.3816 305.284L61.5551 305.616ZM129.308 270.26H128.933V286.669H129.308H129.683V270.26H129.308ZM129.308 286.669H128.933C128.933 287.784 128.642 288.816 128.057 289.772L128.377 289.968L128.697 290.163C129.353 289.09 129.683 287.923 129.683 286.669H129.308ZM128.377 289.968L128.049 289.786C127.537 290.709 126.596 291.509 125.175 292.165L125.332 292.505L125.489 292.846C127 292.149 128.09 291.257 128.705 290.15L128.377 289.968ZM125.332 292.505L125.158 292.174L97.4983 306.722L97.6729 307.054L97.8475 307.386L125.507 292.837L125.332 292.505ZM75.9345 569.94L75.5845 569.806L75.584 569.807L75.9345 569.94ZM70.7749 576.284L70.583 575.962L70.574 575.967L70.7749 576.284ZM53.7733 578.483L53.4235 578.348L53.2263 578.858H53.7733V578.483ZM102.579 452.198L102.929 452.333L102.93 452.33L102.579 452.198ZM124.317 444.162L124.667 444.297L124.863 443.787H124.317V444.162ZM75.9345 569.94L75.584 569.807C74.5396 572.555 72.8717 574.6 70.583 575.962L70.7749 576.284L70.9667 576.606C73.4148 575.149 75.1866 572.964 76.2851 570.073L75.9345 569.94ZM70.7749 576.284L70.574 575.967C68.3141 577.401 66.0145 578.108 63.6697 578.108V578.483V578.858C66.1745 578.858 68.6116 578.1 70.9757 576.601L70.7749 576.284ZM63.6697 578.483V578.108H53.7733V578.483V578.858H63.6697V578.483ZM53.7733 578.483L54.1231 578.618L102.929 452.333L102.579 452.198L102.229 452.063L53.4235 578.348L53.7733 578.483ZM102.579 452.198L102.93 452.33C103.863 449.859 105.339 447.951 107.356 446.588L107.146 446.277L106.936 445.966C104.781 447.423 103.212 449.461 102.228 452.065L102.579 452.198ZM107.146 446.277L107.356 446.588C109.376 445.223 111.698 444.537 114.336 444.537V444.162V443.787C111.56 443.787 109.09 444.511 106.936 445.966L107.146 446.277ZM114.336 444.162V444.537H124.317V444.162V443.787H114.336V444.162ZM124.317 444.162L123.967 444.028L75.5845 569.806L75.9345 569.94L76.2845 570.075L124.667 444.297L124.317 444.162ZM134.806 711.616H135.181V711.389L134.979 711.284L134.806 711.616ZM134.806 720.836L134.98 721.168L135.181 721.063V720.836H134.806ZM67.0531 756.277H66.6781V756.896L67.2269 756.609L67.0531 756.277ZM67.899 736.484L67.579 736.289L67.5749 736.295L67.5712 736.302L67.899 736.484ZM71.0286 733.947L71.1858 734.287L71.1942 734.283L71.2024 734.279L71.0286 733.947ZM98.6879 719.482L98.5255 719.144L98.5141 719.15L98.6879 719.482ZM103.086 717.706L103.205 718.062L103.217 718.058L103.086 717.706ZM107.992 716.268L108.075 716.634L109.695 716.268L108.075 715.902L107.992 716.268ZM103.086 714.915L102.956 715.267L102.968 715.271L103.086 714.915ZM98.6879 713.054L98.5132 713.386L98.5256 713.392L98.6879 713.054ZM71.0286 698.505L71.2032 698.174L71.1946 698.169L71.1858 698.165L71.0286 698.505ZM67.899 695.968L67.5712 696.15L67.5749 696.157L67.579 696.163L67.899 695.968ZM67.0531 676.26L67.2266 675.927L66.6781 675.641V676.26H67.0531ZM134.806 711.616H134.431V720.836H134.806H135.181V711.616H134.806ZM134.806 720.836L134.632 720.504L66.8793 755.945L67.0531 756.277L67.2269 756.609L134.98 721.168L134.806 720.836ZM67.0531 756.277H67.4281V739.867H67.0531H66.6781V756.277H67.0531ZM67.0531 739.867H67.4281C67.4281 738.686 67.6959 737.622 68.2268 736.666L67.899 736.484L67.5712 736.302C66.9742 737.377 66.6781 738.568 66.6781 739.867H67.0531ZM67.899 736.484L68.2189 736.68C68.7889 735.747 69.7636 734.943 71.1858 734.287L71.0286 733.947L70.8715 733.606C69.3614 734.303 68.2496 735.191 67.579 736.289L67.899 736.484ZM71.0286 733.947L71.2024 734.279L98.8617 719.815L98.6879 719.482L98.5141 719.15L70.8548 733.614L71.0286 733.947ZM98.6879 719.482L98.8502 719.821C100.245 719.151 101.697 718.565 103.205 718.062L103.086 717.706L102.968 717.35C101.431 717.863 99.9499 718.461 98.5256 719.144L98.6879 719.482ZM103.086 717.706L103.217 718.058C104.722 717.5 106.341 717.026 108.075 716.634L107.992 716.268L107.91 715.902C106.147 716.3 104.496 716.784 102.956 717.355L103.086 717.706ZM107.992 716.268L108.075 715.902C106.338 715.51 104.714 715.062 103.205 714.559L103.086 714.915L102.968 715.271C104.503 715.783 106.151 716.237 107.91 716.634L107.992 716.268ZM103.086 714.915L103.217 714.563C101.705 714.003 100.249 713.387 98.8502 712.716L98.6879 713.054L98.5256 713.392C99.9462 714.074 101.423 714.699 102.956 715.267L103.086 714.915ZM98.6879 713.054L98.8625 712.722L71.2032 698.174L71.0286 698.505L70.854 698.837L98.5133 713.386L98.6879 713.054ZM71.0286 698.505L71.1858 698.165C69.7636 697.509 68.7889 696.705 68.2189 695.772L67.899 695.968L67.579 696.163C68.2496 697.261 69.3614 698.149 70.8715 698.846L71.0286 698.505ZM67.899 695.968L68.2268 695.786C67.6945 694.828 67.4281 693.791 67.4281 692.669H67.0531H66.6781C66.6781 693.916 66.9757 695.078 67.5712 696.15L67.899 695.968ZM67.0531 692.669H67.4281V676.26H67.0531H66.6781V692.669H67.0531ZM67.0531 676.26L66.8796 676.592L134.632 711.949L134.806 711.616L134.979 711.284L67.2266 675.927L67.0531 676.26Z" fill="#637B71"/>
<path d="M50.097 191.202C50.1695 191.558 50.1255 191.928 49.9716 192.257C49.8177 192.586 49.5621 192.857 49.2426 193.029C48.9231 193.201 48.5567 193.265 48.1979 193.212C47.839 193.159 47.5066 192.992 47.2501 192.735C46.9936 192.478 46.8266 192.145 46.7738 191.786C46.721 191.426 46.7853 191.059 46.9571 190.739C47.1288 190.419 47.399 190.163 47.7275 190.009C48.0559 189.854 48.4253 189.81 48.7807 189.883C49.105 189.949 49.4027 190.11 49.6368 190.344C49.8708 190.579 50.0309 190.877 50.097 191.202Z" fill="#637B71"/>
<path d="M316.93 170.715H265.766V199.382H316.93V170.715Z" fill="white" stroke="black" stroke-width="0.75" stroke-miterlimit="10"/>
<path d="M279.607 184.372H271.416V196.42H279.607V184.372Z" fill="white" stroke="black" stroke-width="0.75" stroke-miterlimit="10"/>
<path d="M307.824 174.921H299.633V196.42H307.824V174.921Z" fill="white" stroke="black" stroke-width="0.75" stroke-miterlimit="10"/>
<path d="M293.691 177.752H285.5V196.346H293.691V177.752Z" fill="white" stroke="black" stroke-width="0.75" stroke-miterlimit="10"/>
<path d="M318.07 172.297C318.414 170.836 317.511 169.372 316.053 169.028C314.594 168.683 313.133 169.587 312.789 171.048C312.445 172.509 313.348 173.973 314.806 174.318C316.265 174.662 317.726 173.758 318.07 172.297Z" fill="#637B71" stroke="black" stroke-width="0.75" stroke-miterlimit="10"/>
<path d="M316.893 170.785L316.397 170.288L315.467 171.22L314.537 170.288L314.041 170.785L314.971 171.717L314.041 172.649L314.537 173.146L315.467 172.214L316.397 173.146L316.893 172.649L315.963 171.717L316.893 170.785Z" fill="white" stroke="white" stroke-width="0.75" stroke-miterlimit="10"/>
<path d="M122.162 275.653C122.162 272.831 122.997 270.072 124.562 267.726C126.127 265.38 128.351 263.551 130.953 262.472C133.556 261.392 136.419 261.109 139.182 261.66C141.944 262.21 144.482 263.569 146.473 265.564C148.465 267.56 149.822 270.102 150.371 272.869C150.921 275.637 150.639 278.505 149.561 281.112C148.483 283.719 146.657 285.948 144.315 287.515C141.973 289.083 139.22 289.92 136.403 289.92C132.626 289.92 129.004 288.417 126.333 285.741C123.663 283.065 122.162 279.436 122.162 275.653Z" fill="white" stroke="black" stroke-width="0.75" stroke-miterlimit="10"/>
<path d="M136.402 287.584C142.98 287.584 148.313 282.242 148.313 275.653C148.313 269.063 142.98 263.721 136.402 263.721C129.825 263.721 124.492 269.063 124.492 275.653C124.492 282.242 129.825 287.584 136.402 287.584Z" fill="white" stroke="black" stroke-width="0.75" stroke-miterlimit="10"/>
<path d="M135.631 284.991V282.694C134.314 282.671 132.952 282.272 132.156 281.693L132.7 280.169C133.674 280.802 134.809 281.142 135.97 281.147C137.584 281.147 138.673 280.215 138.673 278.918C138.673 277.667 137.787 276.893 136.107 276.211C133.787 275.302 132.361 274.254 132.361 272.276C132.361 270.386 133.7 268.953 135.789 268.613V266.316H137.198V268.522C138.234 268.53 139.251 268.804 140.151 269.317L139.584 270.819C138.719 270.304 137.73 270.036 136.723 270.046C134.975 270.046 134.316 271.103 134.316 272.003C134.316 273.184 135.16 273.776 137.13 274.596C139.47 275.551 140.651 276.735 140.651 278.759C140.651 280.556 139.402 282.24 137.065 282.627V284.991H135.631Z" fill="white" stroke="black" stroke-width="0.75" stroke-miterlimit="10"/>
<path d="M175.792 283.679H146.082V289.776H175.792" fill="white"/>
<path d="M175.792 283.679H146.082V289.776H175.792" stroke="black" stroke-width="0.75" stroke-miterlimit="10"/>
<g style="mix-blend-mode:multiply">
<path d="M148.248 284.717H147.971C147.806 284.717 147.672 284.851 147.672 285.017V288.521C147.672 288.687 147.806 288.821 147.971 288.821H148.248C148.413 288.821 148.547 288.687 148.547 288.521V285.017C148.547 284.851 148.413 284.717 148.248 284.717Z" fill="white" stroke="black" stroke-width="0.75" stroke-miterlimit="10"/>
</g>
<g style="mix-blend-mode:multiply">
<path d="M154.65 284.717H154.374C154.208 284.717 154.074 284.851 154.074 285.017V288.521C154.074 288.687 154.208 288.821 154.374 288.821H154.65C154.816 288.821 154.95 288.687 154.95 288.521V285.017C154.95 284.851 154.816 284.717 154.65 284.717Z" fill="white" stroke="black" stroke-width="0.75" stroke-miterlimit="10"/>
</g>
<g style="mix-blend-mode:multiply">
<path d="M161.054 284.717H160.778C160.613 284.717 160.479 284.851 160.479 285.017V288.521C160.479 288.687 160.613 288.821 160.778 288.821H161.054C161.22 288.821 161.354 288.687 161.354 288.521V285.017C161.354 284.851 161.22 284.717 161.054 284.717Z" fill="white" stroke="black" stroke-width="0.75" stroke-miterlimit="10"/>
</g>
<g style="mix-blend-mode:multiply">
<path d="M167.459 284.717H167.182C167.017 284.717 166.883 284.851 166.883 285.017V288.521C166.883 288.687 167.017 288.821 167.182 288.821H167.459C167.624 288.821 167.758 288.687 167.758 288.521V285.017C167.758 284.851 167.624 284.717 167.459 284.717Z" fill="white" stroke="black" stroke-width="0.75" stroke-miterlimit="10"/>
</g>
<path d="M173.869 288.821H173.591C173.511 288.82 173.435 288.789 173.379 288.732C173.323 288.676 173.292 288.6 173.291 288.521V285.015C173.292 284.936 173.323 284.86 173.379 284.804C173.436 284.748 173.511 284.717 173.591 284.717H173.869" fill="white"/>
<path d="M173.869 288.821H173.591C173.511 288.82 173.435 288.789 173.379 288.732C173.323 288.676 173.292 288.6 173.291 288.521V285.015C173.292 284.936 173.323 284.86 173.379 284.804C173.436 284.748 173.511 284.717 173.591 284.717H173.869" stroke="black" stroke-width="0.75" stroke-miterlimit="10"/>
<path d="M169.189 277.544H139.479V283.641H169.189V277.544Z" fill="white" stroke="black" stroke-width="0.75" stroke-miterlimit="10"/>
<g style="mix-blend-mode:multiply">
<path d="M141.646 278.58H141.37C141.204 278.58 141.07 278.714 141.07 278.88V282.384C141.07 282.549 141.204 282.684 141.37 282.684H141.646C141.812 282.684 141.946 282.549 141.946 282.384V278.88C141.946 278.714 141.812 278.58 141.646 278.58Z" fill="white" stroke="black" stroke-width="0.75" stroke-miterlimit="10"/>
</g>
<g style="mix-blend-mode:multiply">
<path d="M148.051 278.58H147.774C147.609 278.58 147.475 278.714 147.475 278.88V282.384C147.475 282.549 147.609 282.684 147.774 282.684H148.051C148.216 282.684 148.35 282.549 148.35 282.384V278.88C148.35 278.714 148.216 278.58 148.051 278.58Z" fill="white" stroke="black" stroke-width="0.75" stroke-miterlimit="10"/>
</g>
<g style="mix-blend-mode:multiply">
<path d="M154.453 278.58H154.176C154.011 278.58 153.877 278.714 153.877 278.88V282.384C153.877 282.549 154.011 282.684 154.176 282.684H154.453C154.618 282.684 154.752 282.549 154.752 282.384V278.88C154.752 278.714 154.618 278.58 154.453 278.58Z" fill="white" stroke="black" stroke-width="0.75" stroke-miterlimit="10"/>
</g>
<g style="mix-blend-mode:multiply">
<path d="M160.857 278.58H160.581C160.415 278.58 160.281 278.714 160.281 278.88V282.384C160.281 282.549 160.415 282.684 160.581 282.684H160.857C161.023 282.684 161.157 282.549 161.157 282.384V278.88C161.157 278.714 161.023 278.58 160.857 278.58Z" fill="white" stroke="black" stroke-width="0.75" stroke-miterlimit="10"/>
</g>
<g style="mix-blend-mode:multiply">
<path d="M167.259 278.58H166.983C166.818 278.58 166.684 278.714 166.684 278.88V282.384C166.684 282.549 166.818 282.684 166.983 282.684H167.259C167.425 282.684 167.559 282.549 167.559 282.384V278.88C167.559 278.714 167.425 278.58 167.259 278.58Z" fill="white" stroke="black" stroke-width="0.75" stroke-miterlimit="10"/>
</g>
<path d="M171.894 271.407H142.184V277.504H171.894V271.407Z" fill="white" stroke="black" stroke-width="0.75" stroke-miterlimit="10"/>
<g style="mix-blend-mode:multiply">
<path d="M144.349 272.443H144.073C143.908 272.443 143.773 272.577 143.773 272.743V276.247C143.773 276.412 143.908 276.547 144.073 276.547H144.349C144.515 276.547 144.649 276.412 144.649 276.247V272.743C144.649 272.577 144.515 272.443 144.349 272.443Z" fill="white" stroke="black" stroke-width="0.75" stroke-miterlimit="10"/>
</g>
<g style="mix-blend-mode:multiply">
<path d="M150.754 272.443H150.477C150.312 272.443 150.178 272.577 150.178 272.743V276.247C150.178 276.412 150.312 276.547 150.477 276.547H150.754C150.919 276.547 151.053 276.412 151.053 276.247V272.743C151.053 272.577 150.919 272.443 150.754 272.443Z" fill="white" stroke="black" stroke-width="0.75" stroke-miterlimit="10"/>
</g>
<g style="mix-blend-mode:multiply">
<path d="M157.156 272.443H156.88C156.714 272.443 156.58 272.577 156.58 272.743V276.247C156.58 276.412 156.714 276.547 156.88 276.547H157.156C157.321 276.547 157.456 276.412 157.456 276.247V272.743C157.456 272.577 157.321 272.443 157.156 272.443Z" fill="white" stroke="black" stroke-width="0.75" stroke-miterlimit="10"/>
</g>
<g style="mix-blend-mode:multiply">
<path d="M163.56 272.443H163.284C163.118 272.443 162.984 272.577 162.984 272.743V276.247C162.984 276.412 163.118 276.547 163.284 276.547H163.56C163.726 276.547 163.86 276.412 163.86 276.247V272.743C163.86 272.577 163.726 272.443 163.56 272.443Z" fill="white" stroke="black" stroke-width="0.75" stroke-miterlimit="10"/>
</g>
<g style="mix-blend-mode:multiply">
<path d="M169.963 272.443H169.686C169.521 272.443 169.387 272.577 169.387 272.743V276.247C169.387 276.412 169.521 276.547 169.686 276.547H169.963C170.128 276.547 170.262 276.412 170.262 276.247V272.743C170.262 272.577 170.128 272.443 169.963 272.443Z" fill="white" stroke="black" stroke-width="0.75" stroke-miterlimit="10"/>
</g>
<path d="M174.759 265.192H145.047V271.289H174.759" fill="white"/>
<path d="M174.759 265.192H145.047V271.289H174.759" stroke="black" stroke-width="0.75" stroke-miterlimit="10"/>
<g style="mix-blend-mode:multiply">
<path d="M147.215 266.227H146.938C146.773 266.227 146.639 266.362 146.639 266.527V270.031C146.639 270.197 146.773 270.331 146.938 270.331H147.215C147.38 270.331 147.514 270.197 147.514 270.031V266.527C147.514 266.362 147.38 266.227 147.215 266.227Z" fill="white" stroke="black" stroke-width="0.75" stroke-miterlimit="10"/>
</g>
<g style="mix-blend-mode:multiply">
<path d="M153.617 266.227H153.341C153.175 266.227 153.041 266.362 153.041 266.527V270.031C153.041 270.197 153.175 270.331 153.341 270.331H153.617C153.782 270.331 153.916 270.197 153.916 270.031V266.527C153.916 266.362 153.782 266.227 153.617 266.227Z" fill="white" stroke="black" stroke-width="0.75" stroke-miterlimit="10"/>
</g>
<g style="mix-blend-mode:multiply">
<path d="M160.021 266.227H159.745C159.579 266.227 159.445 266.362 159.445 266.527V270.031C159.445 270.197 159.579 270.331 159.745 270.331H160.021C160.187 270.331 160.321 270.197 160.321 270.031V266.527C160.321 266.362 160.187 266.227 160.021 266.227Z" fill="white" stroke="black" stroke-width="0.75" stroke-miterlimit="10"/>
</g>
<g style="mix-blend-mode:multiply">
<path d="M166.424 266.227H166.147C165.982 266.227 165.848 266.362 165.848 266.527V270.031C165.848 270.197 165.982 270.331 166.147 270.331H166.424C166.589 270.331 166.723 270.197 166.723 270.031V266.527C166.723 266.362 166.589 266.227 166.424 266.227Z" fill="white" stroke="black" stroke-width="0.75" stroke-miterlimit="10"/>
</g>
<g style="mix-blend-mode:multiply">
<path d="M172.828 266.227H172.551C172.386 266.227 172.252 266.362 172.252 266.527V270.031C172.252 270.197 172.386 270.331 172.551 270.331H172.828C172.993 270.331 173.127 270.197 173.127 270.031V266.527C173.127 266.362 172.993 266.227 172.828 266.227Z" fill="white" stroke="black" stroke-width="0.75" stroke-miterlimit="10"/>
</g>
<path d="M168.552 258.896H138.842V264.993H168.552V258.896Z" fill="white" stroke="black" stroke-width="0.75" stroke-miterlimit="10"/>
<g style="mix-blend-mode:multiply">
<path d="M141.008 259.932H140.731C140.566 259.932 140.432 260.066 140.432 260.232V263.736C140.432 263.901 140.566 264.036 140.731 264.036H141.008C141.173 264.036 141.307 263.901 141.307 263.736V260.232C141.307 260.066 141.173 259.932 141.008 259.932Z" fill="white" stroke="black" stroke-width="0.75" stroke-miterlimit="10"/>
</g>
<g style="mix-blend-mode:multiply">
<path d="M147.414 259.932H147.137C146.972 259.932 146.838 260.066 146.838 260.232V263.736C146.838 263.901 146.972 264.036 147.137 264.036H147.414C147.579 264.036 147.713 263.901 147.713 263.736V260.232C147.713 260.066 147.579 259.932 147.414 259.932Z" fill="white" stroke="black" stroke-width="0.75" stroke-miterlimit="10"/>
</g>
<g style="mix-blend-mode:multiply">
<path d="M153.816 259.932H153.54C153.374 259.932 153.24 260.066 153.24 260.232V263.736C153.24 263.901 153.374 264.036 153.54 264.036H153.816C153.982 264.036 154.116 263.901 154.116 263.736V260.232C154.116 260.066 153.982 259.932 153.816 259.932Z" fill="white" stroke="black" stroke-width="0.75" stroke-miterlimit="10"/>
</g>
<g style="mix-blend-mode:multiply">
<path d="M160.22 259.932H159.944C159.779 259.932 159.645 260.066 159.645 260.232V263.736C159.645 263.901 159.779 264.036 159.944 264.036H160.22C160.386 264.036 160.52 263.901 160.52 263.736V260.232C160.52 260.066 160.386 259.932 160.22 259.932Z" fill="white" stroke="black" stroke-width="0.75" stroke-miterlimit="10"/>
</g>
<g style="mix-blend-mode:multiply">
<path d="M166.625 259.932H166.348C166.183 259.932 166.049 260.066 166.049 260.232V263.736C166.049 263.901 166.183 264.036 166.348 264.036H166.625C166.79 264.036 166.924 263.901 166.924 263.736V260.232C166.924 260.066 166.79 259.932 166.625 259.932Z" fill="white" stroke="black" stroke-width="0.75" stroke-miterlimit="10"/>
</g>
<path d="M171.66 252.776C171.585 256.305 164.277 259.01 155.32 258.818C146.363 258.626 139.182 255.604 139.258 252.072L139.446 248.644L171.677 249.868L171.66 252.776Z" fill="white" stroke="black" stroke-width="0.75" stroke-miterlimit="10"/>
<path d="M171.84 249.338C171.916 245.807 164.724 242.787 155.777 242.593C146.829 242.399 139.513 245.104 139.437 248.635C139.361 252.166 146.552 255.186 155.5 255.38C164.448 255.574 171.764 252.869 171.84 249.338Z" fill="white" stroke="black" stroke-width="0.75" stroke-miterlimit="10"/>
<path d="M169.189 249.28C169.253 246.327 163.238 243.801 155.754 243.639C148.27 243.477 142.152 245.739 142.088 248.693C142.024 251.646 148.039 254.172 155.523 254.334C163.007 254.496 169.125 252.234 169.189 249.28Z" fill="white" stroke="black" stroke-width="0.75" stroke-miterlimit="10"/>
<path d="M154.672 253.163L154.693 252.131C153.362 252.109 152.039 251.93 150.75 251.599L151.383 250.929C152.594 251.252 153.84 251.426 155.093 251.447C156.927 251.487 158.178 251.096 158.188 250.515C158.199 249.934 157.201 249.585 155.296 249.247C152.67 248.782 151.054 248.277 151.077 247.391C151.094 246.546 152.632 245.935 155.013 245.834L155.034 244.804L156.636 244.838L156.614 245.827C157.744 245.847 158.868 245.989 159.966 246.25L159.306 246.907C158.243 246.641 157.153 246.499 156.058 246.485C154.068 246.442 153.315 246.895 153.3 247.302C153.3 247.833 154.239 248.118 156.479 248.534C159.131 249.018 160.462 249.578 160.443 250.485C160.424 251.292 158.988 252.015 156.323 252.131L156.3 253.188L154.672 253.163Z" fill="white" stroke="black" stroke-width="0.75" stroke-miterlimit="10"/>
<g opacity="0.1">
<path d="M438.869 51.3752C454.54 51.3752 458.533 61.0966 458.972 62.3139C459.012 62.4243 459.059 62.5323 459.111 62.6372C459.626 63.6516 462.147 68.2227 466.123 69.0765C466.84 69.2147 467.484 69.6064 467.936 70.1801C468.389 70.7539 468.621 71.4715 468.589 72.2021C468.083 80.9746 464.493 106.185 440.396 120.278C439.932 120.549 439.405 120.692 438.868 120.692C438.331 120.692 437.803 120.549 437.339 120.278C413.238 106.185 409.648 80.9704 409.141 72.2021C409.111 71.4713 409.343 70.7537 409.796 70.18C410.249 69.6063 410.892 69.2147 411.61 69.0765C415.586 68.2312 418.107 63.6516 418.622 62.6372C418.674 62.5323 418.721 62.4243 418.761 62.3139C419.199 61.0987 423.191 51.3752 438.871 51.3752" fill="#637B71"/>
<path d="M438.869 51.3752C454.54 51.3752 458.533 61.0966 458.972 62.3139C459.012 62.4243 459.059 62.5323 459.111 62.6372C459.626 63.6516 462.147 68.2227 466.123 69.0765C466.84 69.2147 467.484 69.6064 467.936 70.1801C468.389 70.7539 468.621 71.4715 468.589 72.2021C468.083 80.9746 464.493 106.185 440.396 120.278C439.932 120.549 439.405 120.692 438.868 120.692C438.331 120.692 437.803 120.549 437.339 120.278C413.238 106.185 409.648 80.9704 409.141 72.2021C409.111 71.4713 409.343 70.7537 409.796 70.18C410.249 69.6063 410.892 69.2147 411.61 69.0765C415.586 68.2312 418.107 63.6516 418.622 62.6372C418.674 62.5323 418.721 62.4243 418.761 62.3139C419.199 61.0987 423.191 51.3752 438.871 51.3752" stroke="#637B71" stroke-width="0.75" stroke-miterlimit="10"/>
</g>
<path d="M437.633 113.731C418.139 102.332 415.234 81.9426 414.825 74.846C414.797 74.2539 414.984 73.6716 415.35 73.2059C415.716 72.7402 416.237 72.4221 416.818 72.31C420.035 71.619 422.073 67.9227 422.491 67.1028C422.533 67.0161 422.571 66.9316 422.605 66.8407C422.959 65.858 426.191 57.9922 438.869 57.9922C451.547 57.9922 454.775 65.858 455.129 66.8407C455.161 66.9306 455.199 67.0182 455.243 67.1028C455.665 67.9206 457.696 71.619 460.913 72.31C461.495 72.4217 462.016 72.7397 462.382 73.2055C462.749 73.6713 462.935 74.2538 462.907 74.846C462.498 81.9426 459.595 102.332 440.105 113.731C439.73 113.951 439.304 114.067 438.869 114.067C438.435 114.067 438.008 113.951 437.633 113.731Z" fill="white" stroke="#637B71" stroke-width="0.75" stroke-miterlimit="10"/>
<path d="M442.548 78.3054H433.76V75.7377C433.76 74.5694 434.224 73.4492 435.049 72.6233C435.874 71.7974 436.992 71.3335 438.158 71.3335C438.735 71.3335 439.307 71.4474 439.84 71.6687C440.374 71.8901 440.858 72.2145 441.267 72.6234C441.675 73.0324 441.999 73.5179 442.22 74.0523C442.441 74.5866 442.554 75.1593 442.554 75.7377L442.548 78.3054Z" fill="white" stroke="#637B71" stroke-width="0.75" stroke-miterlimit="10"/>
<path opacity="0.17" d="M444.505 77.4558H431.795C430.543 77.4558 429.527 78.4729 429.527 79.7276V90.9663C429.527 92.221 430.543 93.2382 431.795 93.2382H444.505C445.757 93.2382 446.773 92.221 446.773 90.9663V79.7276C446.773 78.4729 445.757 77.4558 444.505 77.4558Z" fill="#637B71" stroke="#637B71" stroke-width="0.75" stroke-miterlimit="10"/>
<path d="M439.785 82.8195C439.785 83.1435 439.689 83.4602 439.51 83.7296C439.33 83.999 439.074 84.2089 438.776 84.3328C438.477 84.4567 438.148 84.489 437.831 84.4257C437.514 84.3623 437.222 84.2061 436.994 83.9769C436.765 83.7476 436.61 83.4556 436.547 83.1377C436.484 82.8199 436.517 82.4905 436.641 82.1912C436.765 81.892 436.975 81.6364 437.244 81.4566C437.513 81.2769 437.829 81.1812 438.153 81.1816C438.586 81.1822 439.001 81.355 439.307 81.6621C439.613 81.9692 439.785 82.3855 439.785 82.8195Z" fill="white" stroke="#637B71" stroke-width="0.75" stroke-miterlimit="10"/>
<path d="M437.641 84.3748L435.527 87.7583H441.24L438.865 84.2903L437.641 84.3748Z" fill="white" stroke="#637B71" stroke-width="0.75" stroke-miterlimit="10"/>
<path opacity="0.22" d="M57.8073 110.231H49.1435V124.296H35.7587V110.231H27.2827C27.2001 110.231 27.1193 110.208 27.049 110.165C26.9787 110.122 26.9217 110.06 26.8843 109.986C26.847 109.912 26.8307 109.83 26.8374 109.747C26.844 109.665 26.8733 109.586 26.9219 109.519L42.1863 88.6881C42.2279 88.6317 42.2821 88.5859 42.3446 88.5544C42.4071 88.5228 42.476 88.5063 42.546 88.5063C42.616 88.5063 42.685 88.5228 42.7474 88.5544C42.8099 88.5859 42.8641 88.6317 42.9057 88.6881L58.168 109.519C58.2166 109.586 58.2459 109.665 58.2525 109.747C58.2592 109.83 58.2429 109.912 58.2056 109.986C58.1682 110.06 58.1113 110.122 58.041 110.165C57.9707 110.208 57.8898 110.231 57.8073 110.231Z" fill="#29483B" stroke="#637B71" stroke-miterlimit="10"/>
<path d="M420.576 201.528C420.974 199.842 419.931 198.153 418.249 197.755C416.566 197.358 414.88 198.402 414.483 200.087C414.086 201.773 415.128 203.462 416.81 203.86C418.493 204.258 420.179 203.214 420.576 201.528Z" fill="#637B71"/>
<path d="M419.183 201.105C419.328 200.21 418.722 199.368 417.83 199.223C416.937 199.078 416.097 199.685 415.952 200.579C415.807 201.473 416.413 202.315 417.305 202.461C418.198 202.606 419.039 201.999 419.183 201.105Z" fill="white" stroke="black" stroke-width="0.75" stroke-miterlimit="10"/>
<path d="M441.811 211.897C442.208 210.211 441.166 208.522 439.483 208.124C437.8 207.726 436.114 208.77 435.717 210.456C435.32 212.142 436.362 213.831 438.045 214.229C439.728 214.627 441.414 213.583 441.811 211.897Z" fill="#637B71"/>
<path d="M440.42 211.475C440.565 210.581 439.959 209.739 439.066 209.594C438.174 209.448 437.333 210.056 437.188 210.95C437.043 211.844 437.649 212.686 438.542 212.831C439.434 212.976 440.275 212.369 440.42 211.475Z" fill="white" stroke="black" stroke-width="0.75" stroke-miterlimit="10"/>
<path d="M473.072 217.028C473.47 215.342 472.428 213.653 470.745 213.255C469.062 212.858 467.376 213.902 466.979 215.587C466.582 217.273 467.624 218.962 469.307 219.36C470.989 219.758 472.675 218.714 473.072 217.028Z" fill="#637B71"/>
<path d="M470.045 217.967C470.949 217.967 471.682 217.233 471.682 216.327C471.682 215.421 470.949 214.687 470.045 214.687C469.141 214.687 468.408 215.421 468.408 216.327C468.408 217.233 469.141 217.967 470.045 217.967Z" fill="white" stroke="black" stroke-width="0.75" stroke-miterlimit="10"/>
<g opacity="0.21">
<path d="M421.355 206.492H414.17V243.619H421.355V206.492Z" fill="#637B71" stroke="#637B71" stroke-miterlimit="10"/>
</g>
<g opacity="0.21">
<path d="M432.535 211.409H425.35V243.621H432.535V211.409Z" fill="#637B71" stroke="#637B71" stroke-miterlimit="10"/>
</g>
<g opacity="0.21">
<path d="M443.714 216.541H436.529V243.621H443.714V216.541Z" fill="#637B71" stroke="#637B71" stroke-miterlimit="10"/>
</g>
<g opacity="0.21">
<path d="M454.894 219.212H447.709V243.619H454.894V219.212Z" fill="#637B71" stroke="#637B71" stroke-miterlimit="10"/>
</g>
<path opacity="0.21" d="M468.8 222.526H461.615V243.619H468.8V222.526Z" fill="#637B71" stroke="#637B71" stroke-miterlimit="10"/>
<path d="M189.624 6.9698V6.29564C189.264 6.29447 188.911 6.19275 188.605 6.00188L188.766 5.55597C189.051 5.74178 189.383 5.84154 189.724 5.84339C190.196 5.84339 190.517 5.56866 190.517 5.18826C190.517 4.80786 190.257 4.59652 189.764 4.39576C189.084 4.12948 188.667 3.82304 188.667 3.24187C188.667 2.66071 189.059 2.26974 189.671 2.1683V1.50049H190.093V2.13449C190.396 2.13623 190.694 2.2163 190.958 2.36696L190.791 2.80653C190.536 2.65467 190.244 2.57641 189.947 2.5804C189.437 2.5804 189.243 2.88684 189.243 3.15312C189.243 3.4997 189.489 3.673 190.067 3.91392C190.753 4.19288 191.099 4.54791 191.099 5.13331C191.099 5.66164 190.734 6.15405 190.044 6.26817V6.96134L189.624 6.9698Z" fill="#29483B" stroke="#637B71" stroke-miterlimit="10"/>
<path d="M190.252 8.23999C189.416 8.32634 188.573 8.15111 187.84 7.73837C187.107 7.32564 186.52 6.69564 186.158 5.93493C185.797 5.17422 185.68 4.32013 185.823 3.48996C185.966 2.6598 186.362 1.89431 186.956 1.29864C187.551 0.702972 188.315 0.306354 189.144 0.163271C189.972 0.0201887 190.825 0.137666 191.584 0.499555C192.343 0.861444 192.972 1.45 193.384 2.18436C193.796 2.91872 193.971 3.76287 193.885 4.60083C193.789 5.53307 193.375 6.4037 192.713 7.06641C192.052 7.72912 191.183 8.14353 190.252 8.23999ZM190.233 0.308647C189.435 0.225098 188.63 0.391419 187.929 0.784753C187.228 1.17809 186.667 1.77913 186.321 2.50529C185.975 3.23144 185.862 4.04707 185.998 4.84009C186.133 5.63311 186.511 6.36461 187.078 6.93404C187.645 7.50348 188.375 7.88292 189.166 8.02021C189.958 8.15751 190.772 8.04592 191.497 7.70079C192.223 7.35566 192.824 6.79391 193.218 6.09276C193.612 5.39161 193.779 4.58546 193.697 3.78508C193.605 2.89555 193.211 2.06468 192.58 1.43175C191.95 0.798818 191.121 0.402295 190.233 0.308647Z" fill="#29483B" stroke="#637B71" stroke-miterlimit="10"/>
<path d="M64.408 230.88L48.792 223.84V221.792L64.408 214.752V216.928L49.848 223.456V222.176L64.408 228.672V230.88ZM67.6275 234.016L65.5795 233.408L73.7715 207.936L75.8515 208.544L67.6275 234.016ZM77.042 230.88V228.672L91.634 222.176V223.456L77.042 216.928V214.752L92.658 221.792V223.84L77.042 230.88Z" fill="black"/>
</g>
<defs>
<clipPath id="clip0_2830_34">
<rect width="476" height="290" fill="white"/>
</clipPath>
</defs>
</svg>
