<svg width="42" height="48" viewBox="0 0 42 48" fill="none" xmlns="http://www.w3.org/2000/svg">
<g clip-path="url(#clip0_547_4416)">
<path d="M22.2362 28.9101C17.1183 29.5709 15.469 31.2248 14.3404 36.8701C13.9668 36.3774 13.7252 36.0222 13.4497 35.7013C9.56221 31.198 5.67092 26.7024 1.77587 22.2067C0.0963122 20.2702 0.0698922 17.7913 1.7268 16.1183C3.39503 14.4377 5.85586 14.43 7.74678 16.1107C12.3061 20.1556 16.8654 24.2005 21.4248 28.2455C21.6361 28.425 21.8588 28.5969 22.2362 28.9101ZM4.72358 20.4726C5.47844 20.4803 6.12006 19.8386 6.10119 19.1014C6.08232 18.41 5.45201 17.7836 4.76132 17.7722C4.02156 17.7569 3.38748 18.4024 3.39503 19.1587C3.40258 19.8768 3.99514 20.465 4.72358 20.4726Z" fill="url(#paint0_linear_547_4416)"/>
<path d="M16.2272 45.0134C16.2272 44.5322 16.2272 44.1922 16.2272 43.8485C16.2272 41.3657 16.1894 38.883 16.2423 36.4041C16.2989 33.6731 17.9332 31.5723 20.3978 30.9268C22.6435 30.3348 25.1873 31.282 26.3385 33.3828C26.8631 34.3415 27.1537 35.5332 27.2028 36.6333C27.3236 39.3604 27.2405 42.0991 27.2405 44.9561C29.2334 44.9561 31.1658 44.9561 33.1662 44.9561C33.1662 45.8576 33.1662 46.6329 33.1662 47.4962C25.5648 47.4962 17.9785 47.4962 10.3242 47.4962C10.3242 46.7093 10.3242 45.9301 10.3242 45.0134C12.2567 45.0134 14.1853 45.0134 16.2272 45.0134ZM23.889 36.3315C23.8928 35.1283 22.9265 34.1391 21.7414 34.1353C20.5714 34.1314 19.5712 35.136 19.5712 36.3201C19.5674 37.4965 20.5789 38.5278 21.7339 38.5278C22.8963 38.5316 23.8852 37.527 23.889 36.3315Z" fill="url(#paint1_linear_547_4416)"/>
<path d="M12.6414 18.1236C11.6374 17.2337 10.6448 16.3552 9.64835 15.4805C7.27056 13.3797 7.05165 13.2842 3.89258 13.0474C4.153 12.7647 4.33794 12.5356 4.55308 12.3369C8.31981 8.82675 12.079 5.30509 15.8646 1.81017C18.1556 -0.30206 21.409 0.202125 22.6998 2.87583C23.4698 4.47242 23.3679 6.09957 22.2129 7.44024C19.1595 10.9886 16.0193 14.4645 12.9093 17.9632C12.8716 18.009 12.8074 18.0281 12.6414 18.1236ZM20.273 4.75507C20.2616 4.04845 19.6426 3.41822 18.952 3.40676C18.2046 3.3953 17.5894 4.02553 17.5932 4.79709C17.597 5.57628 18.2122 6.1645 18.9859 6.13012C19.703 6.09956 20.288 5.47315 20.273 4.75507Z" fill="url(#paint2_linear_547_4416)"/>
<path d="M23.4102 0.736816C26.3956 0.893419 29.181 1.03856 31.9664 1.17989C33.0006 1.23336 34.0348 1.28302 35.0727 1.33649C37.1146 1.44344 38.5412 2.82231 38.5714 4.71682C38.6054 6.61134 37.2051 8.08188 35.1859 8.19647C31.6419 8.40272 28.0978 8.57461 24.5538 8.75795C24.248 8.77322 23.9386 8.76176 23.4894 8.76176C25.2973 6.08424 25.3539 3.47928 23.4102 0.736816ZM34.8274 3.71227C34.65 3.97964 34.1895 4.37306 34.1367 4.81613C34.0612 5.44255 34.5518 5.87034 35.2048 5.8627C35.8615 5.85124 36.2503 5.41963 36.2389 4.76266C36.2238 4.09805 35.8275 3.73137 34.8274 3.71227Z" fill="url(#paint3_linear_547_4416)"/>
<path d="M31.4179 10.1904C33.8712 9.81607 36.5321 10.5265 38.6004 8.62817C38.6985 8.70075 38.7853 8.7313 38.7891 8.76568C38.8004 11.2102 38.8986 13.6586 38.7816 16.0955C38.6948 17.925 37.0378 19.3345 35.2224 19.4109C33.4259 19.4873 31.6331 18.1924 31.4595 16.359C31.2707 14.3537 31.4179 12.3141 31.4179 10.1904ZM36.2943 15.9121C36.2943 15.7708 36.2943 15.6295 36.2943 15.4843C35.9093 15.2017 35.5508 14.7471 35.1281 14.6746C34.4864 14.56 34.0524 15.0222 34.0524 15.702C34.0524 16.3781 34.4864 16.8365 35.1318 16.7181C35.5546 16.6378 35.9093 16.1948 36.2943 15.9121Z" fill="url(#paint4_linear_547_4416)"/>
<path d="M38.1152 20.3122C38.6361 19.8156 39.1079 19.3611 39.5759 18.9104C41.5762 20.6101 42.0858 23.5359 40.7761 25.8315C40.4779 26.351 40.1118 26.8322 39.7608 27.3173C38.8776 28.5358 38.8474 28.5358 37.5566 27.4128C39.3758 25.2204 40.561 22.8789 38.1152 20.3122Z" fill="url(#paint5_linear_547_4416)"/>
<path d="M32.6687 27.3899C31.3363 28.5396 31.3514 28.5052 30.4079 27.3249C28.8566 25.3884 28.1358 23.2953 29.1624 20.8889C29.4756 20.1517 30.0116 19.5139 30.5211 18.7156C31.0721 19.3611 31.4986 19.8615 31.9591 20.4038C29.721 22.8636 30.6758 25.186 32.6687 27.3899Z" fill="url(#paint6_linear_547_4416)"/>
</g>
<defs>
<linearGradient id="paint0_linear_547_4416" x1="0.50016" y1="25.8604" x2="22.237" y2="25.8604" gradientUnits="userSpaceOnUse">
<stop stop-color="#275F4C"/>
<stop offset="0.5674" stop-color="#4F6157"/>
<stop offset="0.9944" stop-color="#152F27"/>
</linearGradient>
<linearGradient id="paint1_linear_547_4416" x1="10.3263" y1="39.1266" x2="33.1671" y2="39.1266" gradientUnits="userSpaceOnUse">
<stop stop-color="#275F4C"/>
<stop offset="0.5674" stop-color="#4F6157"/>
<stop offset="0.9944" stop-color="#152F27"/>
</linearGradient>
<linearGradient id="paint2_linear_547_4416" x1="3.8933" y1="9.31115" x2="23.1948" y2="9.31115" gradientUnits="userSpaceOnUse">
<stop stop-color="#275F4C"/>
<stop offset="0.5674" stop-color="#4F6157"/>
<stop offset="0.9944" stop-color="#152F27"/>
</linearGradient>
<linearGradient id="paint3_linear_547_4416" x1="23.4108" y1="4.75166" x2="38.5717" y2="4.75166" gradientUnits="userSpaceOnUse">
<stop stop-color="#275F4C"/>
<stop offset="0.5674" stop-color="#4F6157"/>
<stop offset="0.9944" stop-color="#152F27"/>
</linearGradient>
<linearGradient id="paint4_linear_547_4416" x1="31.364" y1="14.0227" x2="38.8395" y2="14.0227" gradientUnits="userSpaceOnUse">
<stop stop-color="#275F4C"/>
<stop offset="0.5674" stop-color="#4F6157"/>
<stop offset="0.9944" stop-color="#152F27"/>
</linearGradient>
<linearGradient id="paint5_linear_547_4416" x1="37.5554" y1="23.5801" x2="41.4992" y2="23.5801" gradientUnits="userSpaceOnUse">
<stop stop-color="#275F4C"/>
<stop offset="0.5674" stop-color="#4F6157"/>
<stop offset="0.9944" stop-color="#152F27"/>
</linearGradient>
<linearGradient id="paint6_linear_547_4416" x1="28.6817" y1="23.4733" x2="32.6671" y2="23.4733" gradientUnits="userSpaceOnUse">
<stop stop-color="#275F4C"/>
<stop offset="0.5674" stop-color="#4F6157"/>
<stop offset="0.9944" stop-color="#152F27"/>
</linearGradient>
<clipPath id="clip0_547_4416">
<rect width="41" height="47" fill="white" transform="translate(0.5 0.5)"/>
</clipPath>
</defs>
</svg>
