<svg width="44" height="52" viewBox="0 0 44 52" fill="none" xmlns="http://www.w3.org/2000/svg">
<path d="M0.611877 7.12094C1.91933 7.12094 3.12578 7.12094 4.33222 7.12094C6.80123 7.11539 7.79444 6.12116 7.80005 3.64391C7.80567 2.45527 7.80005 1.26109 7.80005 0.000244141C17.2665 0.000244141 26.6431 0.000244141 36.1992 0.000244141C36.1992 1.21665 36.1992 2.46638 36.1992 3.72167C36.2049 6.11005 37.2205 7.11539 39.6446 7.12094C40.8511 7.1265 42.0631 7.12094 43.3986 7.12094C43.4211 7.5042 43.4548 7.83746 43.4548 8.17072C43.4548 15.6691 43.5782 23.1731 43.4099 30.6715C43.264 37.2701 40.0879 42.3079 34.3531 45.6238C30.5823 47.8011 26.6487 49.7118 22.8049 51.767C22.2437 52.0669 21.8061 52.0836 21.2337 51.7781C17.3562 49.7007 13.389 47.7845 9.58447 45.5849C3.96187 42.3301 0.791441 37.3645 0.611877 30.9103C0.398645 23.2008 0.555763 15.4858 0.555763 7.77636C0.555763 7.60417 0.58382 7.43199 0.611877 7.12094ZM2.67686 9.18717C2.6432 9.52599 2.59831 9.75927 2.59831 9.99811C2.59831 16.9355 2.44119 23.8729 2.64881 30.8048C2.81715 36.6146 5.69579 41.0526 10.8078 43.9353C14.2026 45.8516 17.7041 47.579 21.1383 49.4286C21.7836 49.7729 22.2662 49.7507 22.9003 49.4119C26.0819 47.6956 29.2973 46.0293 32.4957 44.3408C38.3596 41.2414 41.3673 36.398 41.4178 29.8216C41.4683 23.3786 41.4291 16.9355 41.4291 10.4924C41.4291 10.0814 41.3954 9.67595 41.3673 9.13163C35.9467 9.70373 33.618 7.19871 34.1791 2.02759C25.9809 2.02759 17.9679 2.02759 9.88749 2.02759C9.90432 4.12159 10.039 6.14893 8.42292 7.75414C6.79562 9.3538 4.73063 9.1594 2.67686 9.18717Z" fill="url(#paint0_linear_547_4392)"/>
<defs>
<linearGradient id="paint0_linear_547_4392" x1="0.499649" y1="25.9999" x2="43.5006" y2="25.9999" gradientUnits="userSpaceOnUse">
<stop stop-color="#4F6157"/>
<stop offset="0.235" stop-color="#3E6052"/>
<stop offset="0.5674" stop-color="#275F4C"/>
<stop offset="0.9944" stop-color="#152F27"/>
</linearGradient>
</defs>
</svg>
