<svg width="51" height="48" viewBox="0 0 51 48" fill="none" xmlns="http://www.w3.org/2000/svg">
<path d="M47.2039 22.5941C48.6359 21.6992 49.5867 20.1354 49.5867 18.3617C49.5867 15.5893 47.2679 13.3313 44.4156 13.3313C41.5633 13.3313 39.2445 15.587 39.2445 18.3617C39.2445 20.1677 40.2284 21.7545 41.7032 22.6425C40.2403 23.3852 39.1283 24.716 38.7205 26.3675L37.874 29.7949C37.7744 30.1985 38.0305 30.6068 38.4454 30.7036C38.8627 30.8005 39.28 30.5514 39.3796 30.1478L40.226 26.7204C40.6955 24.8245 42.4216 23.5005 44.4251 23.5005C47.1968 23.5005 49.4492 25.694 49.4492 28.388V41.4956C49.4492 41.9108 49.7954 42.2475 50.2245 42.2475C50.6537 42.2475 50.9998 41.9108 50.9998 41.4956V28.388C50.9998 25.8255 49.4445 23.6136 47.2039 22.5941ZM44.4156 14.8374C46.412 14.8374 48.0385 16.4174 48.0385 18.3617C48.0385 20.3061 46.4143 21.886 44.4156 21.886C42.4192 21.886 40.7927 20.3061 40.7927 18.3617C40.7927 16.4174 42.4192 14.8374 44.4156 14.8374Z" fill="#1E2235"/>
<path d="M16.0328 36.433C17.4128 36.433 18.5342 35.342 18.5342 33.9996C18.5342 32.6573 17.4128 31.5663 16.0328 31.5663H9.19965L8.9341 28.7317C8.89617 28.3165 8.51681 28.0097 8.0924 28.0489C7.66562 28.0858 7.35265 28.4526 7.39059 28.8677L7.72016 32.3874C7.75572 32.7749 8.09003 33.0724 8.49073 33.0724H16.0305C16.5545 33.0724 16.9836 33.4876 16.9836 33.9996C16.9836 34.5094 16.5568 34.9268 16.0305 34.9268H7.50677C6.44456 34.9268 5.55307 34.1565 5.42741 33.1324L4.96981 26.5613C4.94136 26.1461 4.57148 25.8324 4.1447 25.8601C3.71793 25.8878 3.39547 26.2476 3.42392 26.6627L3.88389 33.2523C3.88389 33.2639 3.88627 33.2754 3.88627 33.2846C4.09491 35.0791 5.65028 36.433 7.50677 36.433H9.15223L2.07246 44.6971C1.88041 44.9208 1.83773 45.2345 1.96576 45.4997C2.0938 45.765 2.36646 45.9333 2.66758 45.9333H14.2024C14.6292 45.9333 14.9778 45.5966 14.9778 45.1791C14.9778 44.7639 14.6316 44.4249 14.2024 44.4249H4.32016L11.1652 36.433H16.0328Z" fill="#1E2235"/>
<path d="M6.57238 23.5005C8.57587 23.5005 10.302 24.8245 10.7714 26.7204L11.6179 30.1478C11.7174 30.5514 12.1347 30.8005 12.552 30.7036C12.9669 30.6068 13.223 30.2008 13.1234 29.7949L12.277 26.3675C11.8692 24.716 10.7572 23.3852 9.29428 22.6425C10.769 21.7545 11.753 20.17 11.753 18.3617C11.753 15.5893 9.43417 13.3313 6.58187 13.3313C3.72957 13.3313 1.41311 15.587 1.41311 18.3617C1.41311 20.1377 2.36388 21.6992 3.79596 22.5941C1.55537 23.6136 0 25.8255 0 28.388V41.4956C0 41.9108 0.346165 42.2475 0.775314 42.2475C1.20446 42.2475 1.55063 41.9108 1.55063 41.4956V28.388C1.54826 25.6917 3.80307 23.5005 6.57238 23.5005ZM6.58424 14.8374C8.58061 14.8374 10.2071 16.4174 10.2071 18.3617C10.2071 20.3061 8.58298 21.886 6.58424 21.886C4.58549 21.886 2.96137 20.3061 2.96137 18.3617C2.96137 16.4174 4.58549 14.8374 6.58424 14.8374Z" fill="#1E2235"/>
<path d="M33.1632 41.6525C32.6298 39.0623 30.7567 36.9957 28.3335 36.0846C29.7348 35.1828 30.6595 33.6398 30.6595 31.8869C30.6595 29.1145 28.3407 26.8564 25.4884 26.8564C22.6384 26.8564 20.3172 29.1122 20.3172 31.8869C20.3172 33.6536 21.2609 35.2105 22.6811 36.1077C21.9556 36.3868 21.2704 36.772 20.6586 37.254C19.2811 38.3358 18.3161 39.8603 17.9439 41.5464L16.7323 47.0911C16.6422 47.4971 16.9101 47.8984 17.3274 47.9837C17.3819 47.9953 17.4365 47.9999 17.4886 47.9999C17.8467 47.9999 18.1667 47.7577 18.245 47.4025L19.4566 41.8601C20.0683 39.09 22.6266 37.0787 25.5405 37.0787C28.4971 37.0787 31.0626 39.1246 31.6411 41.9431L32.746 47.391C32.8289 47.7992 33.2368 48.0645 33.6564 47.9837C34.0761 47.903 34.3487 47.5063 34.2658 47.098L33.1632 41.6525ZM25.4884 28.3626C27.4847 28.3626 29.1112 29.9425 29.1112 31.8869C29.1112 33.8289 27.4871 35.4112 25.4884 35.4112C23.4896 35.4112 21.8655 33.8312 21.8655 31.8869C21.8679 29.9425 23.492 28.3626 25.4884 28.3626Z" fill="#1E2235"/>
<path d="M41.7553 36.433H43.4932C45.3497 36.433 46.9075 35.0791 47.1137 33.2846C47.1161 33.2731 47.1161 33.2616 47.1161 33.2523L47.5761 26.6627C47.6045 26.2476 47.2821 25.8878 46.8553 25.8601C46.4285 25.8324 46.0586 26.1461 46.0302 26.5613L45.5726 33.1324C45.4469 34.1565 44.5554 34.9268 43.4932 34.9268H34.9671C34.4432 34.9268 34.014 34.5117 34.014 33.9996C34.014 33.4899 34.4408 33.0724 34.9671 33.0724H42.5069C42.9076 33.0724 43.2419 32.7749 43.2775 32.3874L43.607 28.8677C43.645 28.4526 43.332 28.0881 42.9052 28.0489C42.4784 28.0097 42.1038 28.3165 42.0635 28.7317L41.798 31.5663H34.9648C33.5849 31.5663 32.4634 32.6573 32.4634 33.9996C32.4634 35.342 33.5849 36.433 34.9648 36.433H39.7376L46.5826 44.4249H36.7003C36.2736 44.4249 35.925 44.7616 35.925 45.1791C35.925 45.5943 36.2712 45.9333 36.7003 45.9333H48.2352C48.5363 45.9333 48.809 45.765 48.937 45.4997C49.0651 45.2345 49.0224 44.9231 48.8303 44.6971L41.7553 36.433Z" fill="#1E2235"/>
<path d="M20.8835 18.1634C21.6399 18.6823 22.7068 19.0768 23.8354 19.259L23.8425 20.6544C23.8449 21.0142 24.0156 21.3625 24.3144 21.6093C24.5728 21.8238 24.9119 21.946 25.2438 21.946C25.2462 21.946 25.2485 21.946 25.2509 21.946L26.7091 21.9391C27.0695 21.9368 27.4038 21.7984 27.6527 21.547C27.8946 21.3025 28.0273 20.9773 28.025 20.6359L28.0179 19.0006C30.2584 18.2303 31.6644 16.3828 31.655 14.1524C31.6478 12.6209 31.1784 10.4044 27.2236 8.85677C25.1774 8.0449 25.175 7.74275 25.175 7.50057C25.175 7.34142 25.2296 7.20995 25.341 7.11077C25.5212 6.94932 25.8579 6.86167 26.2894 6.85937C26.2989 6.85937 26.306 6.85937 26.3131 6.85937C27.482 6.85937 28.198 7.25378 28.5442 7.44291C28.8856 7.62973 29.2911 7.66202 29.6586 7.53286C30.0261 7.40139 30.3153 7.12231 30.4505 6.76711L31.0219 5.27943C31.2495 4.68667 31.0029 4.02241 30.4363 3.70181C29.7463 3.31201 28.9425 3.03293 28.0795 2.88301L28.0724 1.27309C28.0676 0.555779 27.4844 -0.00238729 26.7423 0.00222565L25.3078 0.00914507C24.5752 0.013758 24.0251 0.565005 24.0298 1.29154L24.037 3.14133C21.8557 3.87018 20.5303 5.60695 20.5421 7.79349C20.5563 10.725 22.9107 12.0051 25.2059 12.8677C26.9841 13.5597 26.9865 14.0625 26.9888 14.3346C26.9912 15.0035 26.2278 15.2457 25.5734 15.248C25.5663 15.248 25.5591 15.248 25.552 15.248C24.6463 15.248 23.7098 14.9805 22.9771 14.5099C22.6381 14.2908 22.2042 14.2378 21.8153 14.3623C21.4241 14.4915 21.1183 14.7821 20.9808 15.1604L20.4331 16.6711C20.2244 17.2362 20.407 17.8336 20.8835 18.1634ZM22.3488 15.9054C23.2948 16.4497 24.4566 16.7587 25.5757 16.7518C27.3232 16.7426 28.5395 15.7462 28.5324 14.3254C28.5252 13.0707 27.7025 12.2173 25.7678 11.4654C23.5651 10.6374 22.0975 9.69402 22.088 7.78657C22.0785 6.11899 23.1644 4.86658 24.9925 4.43757C25.341 4.35685 25.5852 4.05239 25.5852 3.70181L25.5781 1.51066L26.5241 1.50605L26.5312 3.53805C26.5336 3.92554 26.8347 4.24844 27.2307 4.28535C28.07 4.36377 28.8501 4.58288 29.5045 4.91963L29.0848 6.01059C28.594 5.75687 27.6504 5.35094 26.3107 5.35094C26.3013 5.35094 26.2894 5.35094 26.2799 5.35094C25.4406 5.35555 24.772 5.57236 24.293 5.99905C23.8591 6.38654 23.622 6.92164 23.6244 7.50749C23.6315 8.82448 24.6013 9.44262 26.6379 10.2499C26.6403 10.2499 26.6403 10.2499 26.6427 10.2522C30.0925 11.6015 30.102 13.329 30.1067 14.1594C30.1162 15.8615 28.9165 17.2546 27.0529 17.7113C26.7067 17.7967 26.4649 18.0988 26.4672 18.4448L26.4767 20.433L25.3932 20.4376L25.3861 18.5901C25.3837 18.2003 25.0778 17.8751 24.6771 17.8428C23.66 17.7598 22.6333 17.453 21.9434 17.0355L22.3488 15.9054Z" fill="#1E2235"/>
</svg>
