<svg width="65" height="50" viewBox="0 0 65 50" fill="none" xmlns="http://www.w3.org/2000/svg">
<path d="M64.297 34.6891C63.0376 32.8142 60.5126 32.3198 58.6569 33.5783L51.4245 37.951C51.1676 38.1051 50.9931 38.3683 50.9487 38.6669C50.8757 39.1388 50.8757 39.7906 51.0121 40.5033L47.2722 42.5323C47.2595 42.5387 47.25 42.5484 47.2405 42.5548C46.7773 42.3557 46.2698 42.2434 45.7369 42.2434C44.3348 42.2434 43.1104 43.0107 42.441 44.1504L30.7549 40.6863C30.774 40.667 30.793 40.6446 30.812 40.6221C30.8184 40.6221 30.8215 40.6221 30.8279 40.6221H36.7122C36.7471 40.6221 36.7788 40.6157 36.8137 40.6125C36.9945 40.9078 37.2102 41.2032 37.4671 41.4953C37.4735 41.5018 37.4798 41.505 37.4862 41.5114C37.5179 41.5435 37.5496 41.5724 37.5845 41.6013C37.6035 41.6173 37.6226 41.6334 37.6416 41.6494C37.6797 41.6751 37.7209 41.6976 37.7622 41.7201C37.7812 41.7297 37.797 41.7425 37.8161 41.749C37.8732 41.7746 37.9334 41.7939 37.9937 41.8068C37.9969 41.8068 38.0032 41.81 38.0064 41.81C38.073 41.8228 38.1396 41.8324 38.2094 41.8324H44.3507C46.5109 41.8324 48.2682 40.0538 48.2682 37.8675C48.2682 36.3425 47.1929 34.0727 44.2269 34.0727H38.3204C38.1396 34.0727 37.9747 34.1241 37.8288 34.2075C37.6987 34.2621 37.5782 34.3424 37.4735 34.4548C37.1595 34.7983 36.82 35.2895 36.5536 35.8834H31.2752C30.5963 34.7983 29.4004 34.0727 28.0364 34.0727H22.6438L14.4978 34.1209C14.1616 34.1241 13.8507 34.2942 13.6667 34.5768L12.1187 36.9589L10.1012 35.7775L10.7103 33.4531C10.8023 33.1031 10.7039 32.7307 10.4502 32.4739L3.92194 25.8667C3.52859 25.4718 2.89417 25.4718 2.504 25.8667C2.11383 26.2648 2.11383 26.9069 2.504 27.3018L8.62302 33.4948L6.38985 41.9962L1.60311 38.3844C1.15902 38.0505 0.530936 38.1436 0.197863 38.5931C-0.132038 39.0425 -0.0400462 39.6782 0.404051 40.0153L6.38033 44.5228C6.5548 44.6544 6.76733 44.7251 6.97986 44.7251C7.09089 44.7251 7.20191 44.7058 7.30977 44.6673C7.62381 44.5549 7.86489 44.2949 7.94736 43.9706L8.00763 43.7427L12.4327 46.3367L12.2044 46.5647C11.9474 46.8215 11.8459 47.2004 11.9411 47.5535C12.0362 47.9067 12.3122 48.1796 12.6643 48.2694L16.1727 49.1587C16.4011 49.2165 16.7215 49.2422 16.8515 49.2486C16.8705 49.2486 16.8928 49.2519 16.9118 49.2519H16.915L43.3387 49.1491C43.9954 49.6821 44.8265 50.0031 45.7337 50.0031C46.8439 50.0031 47.8432 49.5215 48.5442 48.7542C48.5759 48.7414 48.6108 48.7318 48.6394 48.7157L63.1391 40.4744C63.1645 40.4616 63.1867 40.4455 63.2121 40.4295C65.0773 39.1453 65.5595 36.5705 64.297 34.6891ZM46.2698 37.8675C46.2698 38.9334 45.4133 39.8002 44.3602 39.8002H38.6979C37.5433 38.195 38.3173 36.7117 38.7455 36.1017H44.2365C46.2476 36.1049 46.2698 37.7969 46.2698 37.8675ZM36.0809 37.9157C36.0746 38.1372 36.0809 38.3619 36.1063 38.5931H31.8144C31.8493 38.3844 31.8715 38.1725 31.8715 37.9542C31.8715 37.9413 31.8683 37.9285 31.8683 37.9157H36.0809ZM29.8667 37.9542C29.8667 38.9751 29.0483 39.8034 28.0396 39.8034C27.0309 39.8034 26.2125 38.9751 26.2125 37.9542C26.2125 36.9332 27.0309 36.1049 28.0396 36.1049C29.0452 36.1049 29.8667 36.9332 29.8667 37.9542ZM13.2194 39.9543L14.1964 41.5018L9.34627 38.6573L9.56832 37.8129L13.2194 39.9543ZM8.54372 41.704L8.81018 40.6863L14.6501 44.1119L13.911 44.8503L8.54372 41.704ZM16.6644 47.1875L14.8848 46.738L17.3717 44.2499C17.708 43.9128 17.7651 43.3863 17.5113 42.9818L14.1076 37.5914L15.0466 36.1499L22.6502 36.1049H24.6676C24.3726 36.6539 24.2045 37.2864 24.2045 37.9542C24.2045 39.8227 25.5146 41.3862 27.2529 41.7522C27.2878 41.765 27.3195 41.7843 27.3544 41.7939L41.9018 46.1056C41.9018 46.112 41.9018 46.1184 41.9018 46.1216C41.9018 46.4684 41.9525 46.8023 42.035 47.1233L16.9435 47.2196C16.8452 47.21 16.7088 47.1971 16.6644 47.1875ZM45.7369 47.9709C44.7281 47.9709 43.9097 47.1426 43.9097 46.1216C43.9097 45.1007 44.7281 44.2724 45.7369 44.2724C46.7456 44.2724 47.564 45.1007 47.564 46.1216C47.564 47.1394 46.7456 47.9709 45.7369 47.9709ZM49.5561 45.8648C49.5085 45.1585 49.2801 44.5003 48.909 43.9449L51.7354 42.4103C52.0462 42.9368 52.4618 43.4505 53.0074 43.9L49.5561 45.8648ZM62.1209 38.7215L54.9646 42.7892C53.1819 41.8228 52.9249 40.1951 52.909 39.4149L59.7069 35.3055C59.7228 35.2959 59.7418 35.2863 59.7577 35.2734C60.703 34.6217 61.994 34.8721 62.638 35.8288C63.2724 36.7759 63.0376 38.0665 62.1209 38.7215Z" fill="#172618"/>
<path d="M18.8306 32.0438C18.9828 32.0438 19.1351 32.0085 19.281 31.9346C19.7759 31.6842 19.9757 31.0742 19.7283 30.5734C18.3643 27.8188 17.6696 24.8491 17.6696 21.7446C17.6696 12.0842 24.5721 4.03236 33.6444 2.35649C33.5936 2.51381 33.5778 2.68075 33.6095 2.85412L34.0758 5.3294L32.5437 7.24284C32.366 7.46757 32.2867 7.75652 32.3311 8.03904C32.3755 8.32477 32.5373 8.57519 32.7752 8.7325L35.4652 10.5015C35.6841 10.6459 35.9474 10.6973 36.2043 10.6459L39.0624 10.0841C39.221 10.052 39.3701 9.98459 39.4938 9.88186L41.1496 8.54951C41.9363 9.28149 42.704 10.052 43.0085 10.4308C42.8531 11.2656 42.2821 13.7922 41.7174 16.1776L38.0473 18.4603L32.8704 18.701C32.6959 18.7107 32.5278 18.762 32.3819 18.8584L28.6927 21.2148L28.5024 19.1601C28.4548 18.6593 28.0551 18.2708 27.5603 18.2419L23.5634 18.0108C23.0558 17.9787 22.6022 18.3447 22.5166 18.8519L21.8441 22.8265L20.8385 25.8765C20.718 26.2392 20.81 26.6406 21.0764 26.9134L25.8061 31.742C26.0027 31.9411 26.2597 32.0438 26.5198 32.0438C26.7767 32.0438 27.0305 31.9443 27.2272 31.7484C27.6205 31.3535 27.6237 30.7114 27.2335 30.3133L22.9353 25.9278L23.7696 23.3948C23.7854 23.3466 23.7981 23.2952 23.8076 23.2439L24.3437 20.088L26.5896 20.2164L26.8529 23.0512C26.8846 23.4012 27.0971 23.7126 27.408 23.8667C27.722 24.0208 28.09 24.0015 28.385 23.8153L33.232 20.7172L38.4026 20.4764C38.5707 20.47 38.7357 20.4186 38.8816 20.3288L43.1259 17.6897C43.3511 17.5485 43.5129 17.3237 43.5763 17.0605C44.5565 12.9254 45.0545 10.6299 45.0545 10.2446C45.0545 9.8337 45.0545 9.32644 41.8602 6.45948C41.4954 6.13202 40.953 6.11917 40.5723 6.42417L38.4438 8.13856L36.2265 8.57519L34.8117 7.64415L35.9378 6.23796C36.125 6.00681 36.198 5.70181 36.144 5.40966L35.5889 2.47207C35.5635 2.33723 35.5128 2.21523 35.443 2.10928C36.0076 2.05792 36.5786 2.02902 37.1559 2.02902C43.0371 2.02902 48.3123 4.68409 51.8873 8.86734L49.9301 12.8323C49.8 13.0923 49.7905 13.3973 49.8984 13.667L50.6819 15.6286L49.2608 17.2178C49.0165 17.4907 48.9372 17.8792 49.0546 18.2291L49.6858 20.0944C49.7937 20.4122 50.0475 20.653 50.3647 20.7429L56.6137 22.5087C56.563 23.8218 56.3949 25.122 56.0935 26.3869C55.697 27.7161 54.9674 29.7965 54.5677 30.3133C54.2251 30.7532 54.3013 31.3921 54.739 31.7388C55.1736 32.0855 55.8049 32.0085 56.1474 31.5686C56.9246 30.567 57.8477 27.5427 58.0222 26.9488C58.0285 26.9327 58.0317 26.9134 58.0349 26.8974C58.4377 25.2215 58.6407 23.4879 58.6407 21.7478C58.6312 9.75343 48.9943 0 37.1464 0C25.2985 0 15.6616 9.75344 15.6616 21.7446C15.6616 25.1669 16.4261 28.4448 17.9329 31.482C18.1073 31.8383 18.4626 32.0438 18.8306 32.0438ZM51.1323 18.1392L52.5788 16.5211C52.8357 16.2322 52.9087 15.8212 52.766 15.4585L51.9158 13.3299L53.2386 10.6524C55.1355 13.4647 56.3314 16.7972 56.5725 20.393L51.4019 18.9322L51.1323 18.1392Z" fill="#172618"/>
<path d="M47.9257 29.4787C48.4682 29.6007 49.0043 29.2571 49.1248 28.7114L49.5467 26.8075C49.6228 26.4576 49.515 26.0948 49.258 25.8476L45.7433 22.4862C45.4483 22.2037 45.0137 22.1299 44.6426 22.3L42.7393 23.1701C42.4221 23.3145 42.2001 23.6163 42.1556 23.9663L42.0002 25.2087L35.2055 24.3579C34.679 24.2937 34.1936 24.6501 34.0953 25.1766L33.6131 27.7771C33.5497 28.1238 33.667 28.4802 33.924 28.7146L37.1627 31.6907C37.3562 31.8673 37.5973 31.9539 37.8384 31.9539C38.1112 31.9539 38.384 31.8416 38.5807 31.62C38.9518 31.2059 38.9233 30.5638 38.5141 30.185L35.6909 27.5877L35.897 26.4801L42.7488 27.3405C43.2976 27.4079 43.7988 27.0162 43.8686 26.4608L44.078 24.7785L44.8583 24.4222L47.4721 26.9199L47.1771 28.2587C47.0471 28.8109 47.3865 29.3567 47.9257 29.4787Z" fill="#172618"/>
</svg>
