<svg width="48" height="45" viewBox="0 0 48 45" fill="none" xmlns="http://www.w3.org/2000/svg">
<g clip-path="url(#clip0_547_4762)">
<path d="M3.85747 12.465C4.22951 12.6253 4.67742 12.4847 4.8561 12.1509C5.65891 10.6532 6.67467 9.26309 7.8691 8.01352C9.6069 8.82607 11.6115 9.49588 13.7972 10.001C13.4594 10.9958 13.1682 12.0477 12.9259 13.1589C12.8475 13.5235 13.1119 13.8749 13.5182 13.9473C13.5671 13.9561 13.6136 13.9605 13.6626 13.9605C14.0126 13.9605 14.3259 13.7387 14.3969 13.4181C14.6343 12.3244 14.9255 11.2879 15.2609 10.3106C17.7795 10.796 20.489 11.0705 23.2596 11.1144V11.6393C23.2596 12.0104 23.595 12.3113 24.0086 12.3113C24.4223 12.3113 24.7576 12.0104 24.7576 11.6393V11.11C27.5283 11.0683 30.2378 10.7916 32.7564 10.3062C32.962 10.908 33.1529 11.5316 33.3242 12.1795C33.4197 12.5396 33.8211 12.7637 34.2249 12.678C34.6263 12.5924 34.876 12.23 34.7805 11.8698C34.6116 11.2264 34.4232 10.6027 34.2176 9.99878C36.4008 9.49148 38.4079 8.82168 40.1457 8.00913C41.3842 9.30701 42.4293 10.752 43.2443 12.3135C43.3716 12.5572 43.6409 12.7 43.9223 12.7C44.0276 12.7 44.1377 12.6802 44.2405 12.6363C44.615 12.4782 44.7765 12.0785 44.6003 11.7425C43.6409 9.90874 42.3877 8.22434 40.8897 6.7354C40.8848 6.731 40.88 6.72442 40.8751 6.72002C39.5509 5.40676 38.0383 4.24284 36.3617 3.26778C32.678 1.13098 28.407 0 24.0037 0C19.6396 0 15.4004 1.11342 11.7437 3.21727C10.0303 4.20331 8.4859 5.3848 7.13727 6.72442C7.13237 6.72881 7.12992 6.7332 7.12503 6.7354C5.67604 8.17603 4.45224 9.80113 3.50747 11.5668C3.32634 11.9028 3.48299 12.3025 3.85747 12.465ZM15.7382 9.02811C17.5249 4.66229 20.2785 1.80957 23.2572 1.39671V9.76819C20.648 9.72646 18.105 9.47172 15.7382 9.02811ZM24.7527 9.76819V1.39451C27.7241 1.80518 30.4752 4.63813 32.2693 9.02591C29.9049 9.47172 27.3594 9.72646 24.7527 9.76819ZM35.5417 4.39656C36.8316 5.14763 38.0212 6.01728 39.0908 6.98575C37.5072 7.69069 35.7008 8.27485 33.7403 8.72285C32.9032 6.63877 31.8483 4.83578 30.6196 3.41711C30.1105 2.83075 29.5769 2.31907 29.0262 1.87985C31.3294 2.38275 33.5298 3.22825 35.5417 4.39656ZM12.5514 4.34825C14.5364 3.20629 16.7074 2.37836 18.9763 1.88424C17.0843 3.38636 15.4567 5.73398 14.2622 8.72505C12.3042 8.27705 10.5003 7.69289 8.91667 6.98795C10.0132 5.99751 11.2297 5.11029 12.5514 4.34825Z" fill="#1E2235"/>
<path d="M43.4278 33.8768C43.0705 33.6924 42.6128 33.8022 42.4047 34.1228C41.7488 35.1396 40.99 36.0971 40.1431 36.9843C38.4837 36.1937 36.0752 35.2274 33.2531 34.6433C33.2433 34.6411 33.2336 34.6411 33.2238 34.6389C33.1968 34.6345 33.1724 34.6323 33.1454 34.6301C33.121 34.6279 33.0989 34.6279 33.0769 34.6279C33.05 34.6279 33.0255 34.6301 33.001 34.6323C32.979 34.6345 32.9545 34.6367 32.9325 34.6411C32.908 34.6455 32.8835 34.6521 32.8591 34.6586C32.837 34.6652 32.8175 34.6718 32.7954 34.6784C32.771 34.6872 32.7489 34.6982 32.7269 34.7092C32.7073 34.7179 32.6902 34.7289 32.6706 34.7377C32.6486 34.7509 32.629 34.7663 32.6094 34.7816C32.5923 34.7948 32.5751 34.8058 32.5605 34.8212C32.5433 34.8365 32.5262 34.8541 32.5091 34.8717C32.4944 34.887 32.4797 34.9046 32.4675 34.9222C32.4528 34.9397 32.443 34.9595 32.4307 34.9793C32.4185 34.999 32.4063 35.021 32.3965 35.0408C32.3916 35.0496 32.3867 35.0561 32.3842 35.0649C30.4213 39.9293 27.5551 43.0982 24.755 43.5857V38.6731C24.755 38.302 24.4197 38.0011 24.0061 38.0011C23.5924 38.0011 23.2571 38.302 23.2571 38.6731V43.5879C20.4668 43.0982 17.6105 39.9293 15.6524 35.0671C15.65 35.0583 15.6426 35.0517 15.6402 35.043C15.6304 35.021 15.6181 34.999 15.6059 34.9793C15.5937 34.9595 15.5839 34.9419 15.5692 34.9244C15.5545 34.9046 15.5398 34.8892 15.5251 34.8717C15.5104 34.8541 15.4933 34.8387 15.4762 34.8234C15.459 34.808 15.4419 34.7948 15.4223 34.7816C15.4027 34.7685 15.3856 34.7531 15.3636 34.7421C15.344 34.7311 15.3244 34.7201 15.3024 34.7092C15.2804 34.6982 15.2608 34.6894 15.2388 34.6806C15.2167 34.6718 15.1947 34.6652 15.1727 34.6586C15.1506 34.6521 15.1262 34.6455 15.1041 34.6411C15.0797 34.6367 15.0576 34.6345 15.0332 34.6323C15.0087 34.6301 14.9842 34.6279 14.9597 34.6279C14.9352 34.6279 14.9132 34.6301 14.8887 34.6301C14.8618 34.6323 14.8373 34.6345 14.8104 34.6389C14.8006 34.6411 14.7908 34.6411 14.7811 34.6433C12.4681 35.1198 10.0914 35.928 7.86901 36.9887C7.02214 36.0993 6.26093 35.1418 5.60497 34.125C5.39693 33.8044 4.93923 33.6946 4.58188 33.879C4.22452 34.0657 4.10214 34.4764 4.30774 34.797C5.11545 36.051 6.07002 37.2193 7.14697 38.2888C7.15676 38.2976 7.1641 38.3063 7.17389 38.3151C8.70854 39.8326 10.4928 41.1415 12.4705 42.189C15.951 44.0315 19.9406 45.0044 24.0036 45.0044C28.0667 45.0044 32.0538 44.0315 35.5368 42.189C37.5144 41.1437 39.2987 39.8326 40.8334 38.3151C40.8432 38.3063 40.8505 38.2976 40.8603 38.2888C41.9372 37.2215 42.8943 36.051 43.702 34.797C43.9076 34.472 43.7852 34.0613 43.4278 33.8768ZM13.2317 41.0273C11.6481 40.1906 10.1967 39.1716 8.91169 38.0077C10.7131 37.1776 12.6125 36.5275 14.4775 36.0927C15.8311 39.2594 17.5517 41.6927 19.4437 43.2124C17.2629 42.7842 15.1629 42.0507 13.2317 41.0273ZM34.7755 41.0273C32.8444 42.0485 30.7443 42.782 28.5635 43.2124C28.9674 42.8896 29.3639 42.525 29.7531 42.1166C31.2045 40.5903 32.5115 38.515 33.5542 36.0905C35.7644 36.6066 37.6784 37.3532 39.098 38.0077C37.8106 39.1738 36.3591 40.1906 34.7755 41.0273Z" fill="#1E2235"/>
<path d="M24.258 31.3754C23.7881 30.9538 23.1664 30.721 22.5055 30.7166C22.4982 30.1456 22.2559 29.579 21.7713 29.1442C21.2866 28.7094 20.6527 28.492 20.0188 28.4854C20.0114 27.9144 19.7691 27.3456 19.2845 26.913C18.817 26.4913 18.1953 26.2586 17.532 26.2542C17.5247 25.6612 17.2652 25.1034 16.7977 24.6818C16.3229 24.2557 15.6914 24.0207 15.0208 24.0207C14.3501 24.0207 13.7186 24.2557 13.2438 24.6818L12.1889 25.6283C11.714 26.0543 11.4521 26.6209 11.4521 27.2226C11.4521 27.8244 11.714 28.391 12.1889 28.817C12.6588 29.2364 13.2781 29.4714 13.9414 29.4758C13.9487 30.0688 14.2082 30.6266 14.6756 31.0482C15.1456 31.4699 15.7673 31.7027 16.4281 31.707C16.4355 32.278 16.6778 32.8446 17.1624 33.2794C17.647 33.7143 18.281 33.9317 18.9149 33.9383C18.9222 34.5092 19.1646 35.078 19.6492 35.5107C20.124 35.9367 20.7555 36.1717 21.4261 36.1717C22.0968 36.1717 22.7283 35.9367 23.2031 35.5107L23.9178 34.8694C24.3902 35.2845 25.0143 35.5151 25.6776 35.5151C26.3483 35.5151 26.9798 35.2801 27.4546 34.854C27.8095 34.5356 28.0469 34.1381 28.1424 33.7055C28.3235 33.7428 28.5071 33.7626 28.698 33.7626C29.3686 33.7626 30.0001 33.5276 30.4749 33.1016C30.8152 32.7963 31.0452 32.4164 31.148 32.0057C31.3634 32.0562 31.5813 32.0848 31.804 32.0848C32.4477 32.0848 33.0914 31.8652 33.5834 31.4259C34.4082 30.6859 34.5355 29.5549 33.9726 28.6918C34.3177 28.5842 34.6432 28.4085 34.9198 28.1604C35.9013 27.2797 35.9013 25.8501 34.9198 24.9694L28.862 19.5341C28.5707 19.2728 28.0959 19.2728 27.8046 19.5341C27.5133 19.7955 27.5133 20.2215 27.8046 20.4828L33.8624 25.9182C34.2589 26.2739 34.2589 26.8537 33.8624 27.2095C33.5002 27.5345 32.9348 27.5586 32.5383 27.2929L32.5309 27.2863C32.4942 27.2534 32.4575 27.227 32.4159 27.2029L29.0382 24.1723C28.7469 23.9109 28.2721 23.9109 27.9808 24.1723C27.6896 24.4336 27.6896 24.8596 27.9808 25.121L31.3683 28.1604C31.432 28.2175 31.5005 28.2724 31.569 28.3207L32.5309 29.1837C32.9274 29.5395 32.9274 30.1193 32.5309 30.475C32.1344 30.8308 31.4882 30.8308 31.0917 30.475L30.6634 30.0907C30.6071 30.0292 30.5484 29.9677 30.4847 29.9106L26.7399 26.5506C26.4486 26.2893 25.9738 26.2893 25.6825 26.5506C25.3913 26.812 25.3913 27.238 25.6825 27.4993L28.8864 30.374C28.9134 30.4092 28.9452 30.4443 28.9795 30.4772L29.5228 30.9648C29.6525 31.1207 29.7235 31.3074 29.7235 31.505C29.7235 31.7488 29.6183 31.9772 29.4249 32.1507C29.2316 32.3241 28.977 32.4186 28.7053 32.4186C28.4336 32.4186 28.1791 32.3241 27.9857 32.1507L27.6406 31.841C27.5843 31.7795 27.5256 31.718 27.4619 31.6609L24.1454 28.6852C23.8542 28.4239 23.3793 28.4239 23.0881 28.6852C22.7968 28.9466 22.7968 29.3726 23.0881 29.6339L25.7804 32.0496C25.8074 32.0848 25.8392 32.1199 25.8734 32.1528L26.5025 32.7172C26.6322 32.8732 26.7032 33.0598 26.7032 33.2575C26.7032 33.5012 26.5979 33.7296 26.4046 33.9031C26.2112 34.0766 25.9567 34.1711 25.685 34.1711C25.4133 34.1711 25.1563 34.0766 24.9654 33.9031L24.8308 33.7823C24.9409 33.5254 25.0021 33.2509 25.0021 32.9654C24.9948 32.3681 24.7329 31.8015 24.258 31.3754ZM12.9452 27.2226C12.9452 26.9789 13.0504 26.7505 13.2438 26.577L14.2987 25.6305C14.4921 25.457 14.7466 25.3625 15.0183 25.3625C15.29 25.3625 15.5445 25.457 15.7379 25.6305C15.9313 25.804 16.0365 26.0324 16.0365 26.2761C16.0365 26.4891 15.9508 26.689 15.804 26.8515C15.7795 26.8713 15.7526 26.891 15.7281 26.913L14.6732 27.8595C14.6487 27.8815 14.6291 27.9034 14.6047 27.9276C14.4235 28.0615 14.2008 28.1384 13.9634 28.1384C13.6917 28.1384 13.4372 28.044 13.2438 27.8705C13.0504 27.697 12.9452 27.4686 12.9452 27.2226ZM15.432 29.4561C15.432 29.243 15.5176 29.0432 15.6669 28.8807C15.6914 28.8609 15.7183 28.8411 15.7428 28.8192L16.7977 27.8727C16.8222 27.8507 16.8418 27.8288 16.8663 27.8046C17.0474 27.6706 17.2701 27.596 17.5075 27.596C17.7792 27.596 18.0338 27.6904 18.2271 27.8639C18.5992 28.1977 18.6187 28.7291 18.2883 29.0871C18.2638 29.1069 18.2394 29.1244 18.2149 29.1464L17.16 30.0929C17.1355 30.1149 17.1159 30.1368 17.0939 30.1588C16.9128 30.2928 16.69 30.3696 16.4526 30.3696C16.1809 30.3696 15.9264 30.2752 15.733 30.1017C15.5396 29.9282 15.432 29.6998 15.432 29.4561ZM18.1561 31.1097C18.1806 31.0899 18.2051 31.0702 18.2296 31.0504L19.2845 30.1039C19.309 30.0819 19.3285 30.06 19.3506 30.038C19.5317 29.9041 19.7544 29.8272 19.9918 29.8272C20.2635 29.8272 20.5181 29.9216 20.7114 30.0951C21.0835 30.4289 21.1031 30.9582 20.7751 31.3183C20.7506 31.3381 20.7261 31.3579 20.7017 31.3776L19.6467 32.3241C19.6223 32.3461 19.6027 32.3681 19.5806 32.39C19.1817 32.6843 18.5918 32.6689 18.2173 32.3351C17.8453 31.9991 17.8282 31.4699 18.1561 31.1097ZM21.4261 34.8321C21.1545 34.8321 20.8999 34.7376 20.7065 34.5642C20.3345 34.2303 20.3149 33.6989 20.6454 33.3409C20.6698 33.3212 20.6943 33.3036 20.7188 33.2816L21.7737 32.3351C21.7982 32.3132 21.8178 32.2912 21.8398 32.2692C22.0209 32.1353 22.2436 32.0584 22.4811 32.0584C22.7527 32.0584 23.0073 32.1528 23.2007 32.3263C23.394 32.4998 23.4993 32.7282 23.4993 32.972C23.4993 33.2158 23.394 33.4441 23.2007 33.6176L22.1457 34.5642C21.9524 34.7376 21.6978 34.8321 21.4261 34.8321Z" fill="#1E2235"/>
<path d="M47.251 29.871H43.8758V17.573H47.251C47.6647 17.573 48 17.2721 48 16.901C48 16.5298 47.6647 16.229 47.251 16.229H43.1268H39.2204C38.8068 16.229 38.4715 16.5298 38.4715 16.901V17.9002H35.4976L33.1895 14.8674C32.7172 14.2459 31.9339 13.8748 31.0944 13.8748H25.7806C25.1026 13.8748 24.4663 14.1119 23.9865 14.5424L22.8876 15.5284H18.4721C16.9399 15.5284 15.4982 16.0643 14.414 17.0371L13.6038 17.764H9.52853V16.8988C9.52853 16.5276 9.19321 16.2268 8.77956 16.2268H4.87318H0.748967C0.335322 16.2312 0 16.532 0 16.901C0 17.2721 0.335322 17.573 0.748967 17.573H4.12422V29.871H0.748967C0.335322 29.871 0 30.1719 0 30.5431C0 30.9142 0.335322 31.2151 0.748967 31.2151H4.87318H8.77956C9.19321 31.2151 9.52853 30.9142 9.52853 30.5431V29.8359H10.9432C11.3569 29.8359 11.6922 29.535 11.6922 29.1639C11.6922 28.7928 11.3569 28.4919 10.9432 28.4919H9.52853V19.108H13.9146C14.1129 19.108 14.3038 19.0378 14.4433 18.9104L15.4738 17.9858C16.2741 17.2677 17.3413 16.8702 18.4745 16.8702H21.3921L20.5574 17.6191C20.0214 18.1 19.7253 18.7391 19.7253 19.4199C19.7253 20.1007 20.0214 20.7397 20.5574 21.2207C21.0935 21.7016 21.8057 21.9673 22.5645 21.9673C23.3232 21.9673 24.0355 21.7016 24.5715 21.2207L27.2394 18.8269H30.2695C30.6832 18.8269 31.0185 18.5261 31.0185 18.1549C31.0185 17.7838 30.6832 17.4829 30.2695 17.4829H26.9237C26.7254 17.4829 26.5345 17.5532 26.395 17.6806L23.5068 20.2742C23.2547 20.5003 22.9169 20.6255 22.5596 20.6255C22.2022 20.6255 21.8645 20.5003 21.6124 20.2742C21.3603 20.048 21.2207 19.7449 21.2207 19.4243C21.2207 19.1036 21.3603 18.8006 21.6124 18.5744L23.7246 16.6792L25.0439 15.4955C25.2397 15.3198 25.5016 15.221 25.7806 15.221H31.0944C31.4395 15.221 31.7601 15.3725 31.9535 15.6272L34.4868 18.9521C34.6263 19.1344 34.8564 19.2442 35.1036 19.2442H38.4739V28.4919H35.5417C35.128 28.4919 34.7927 28.7928 34.7927 29.1639C34.7927 29.535 35.128 29.8359 35.5417 29.8359H38.4739V30.5431C38.4739 30.9142 38.8092 31.2151 39.2229 31.2151H43.1293H47.2535C47.6671 31.2151 48.0024 30.9142 48.0024 30.5431C48 30.1719 47.6647 29.871 47.251 29.871ZM8.0306 29.871H5.6197V17.573H8.0306V29.871ZM39.9694 17.573H42.3803V29.871H39.9694V17.573Z" fill="#1E2235"/>
</g>
<defs>
<clipPath id="clip0_547_4762">
<rect width="48" height="45" fill="white"/>
</clipPath>
</defs>
</svg>
