<svg width="57" height="47" viewBox="0 0 57 47" fill="none" xmlns="http://www.w3.org/2000/svg">
<path d="M45.8111 17.0454C45.6374 17.0454 45.4637 17.051 45.2928 17.0593C45.2816 17.0593 45.2676 17.062 45.2564 17.062C45.0883 17.0703 44.9203 17.0814 44.7522 17.0979C44.3067 15.1584 43.5167 13.3322 42.3962 11.6579C42.1244 11.249 41.567 11.1357 41.1523 11.4065C40.7377 11.6745 40.6229 12.2243 40.8974 12.6332C41.8807 14.103 42.5755 15.7055 42.9789 17.4046C41.5726 17.7665 40.2503 18.3965 39.0653 19.2806C38.6703 19.5762 38.5918 20.1315 38.8916 20.5211C39.0681 20.7504 39.337 20.872 39.6088 20.872C39.7965 20.872 39.9869 20.8139 40.1494 20.6924C41.3512 19.7945 42.7239 19.2087 44.1863 18.9601C44.1891 18.9601 44.1891 18.9601 44.1919 18.9601C44.2843 18.9435 44.3768 18.9325 44.472 18.9186C44.6345 18.8965 44.797 18.8744 44.9595 18.8606C45.0211 18.8551 45.0827 18.8496 45.1444 18.8468C45.3657 18.8302 45.5898 18.8192 45.8139 18.8192C50.9909 18.8192 55.2043 22.9662 55.2043 28.0664C55.2043 33.1666 50.9909 37.3136 45.8139 37.3136H11.8242C6.64719 37.3136 2.43385 33.1666 2.43385 28.0664C2.43385 22.9662 6.64439 18.8192 11.8242 18.8192C12.0231 18.8192 12.222 18.8275 12.4209 18.8413C12.4461 18.844 12.4714 18.844 12.4994 18.8468C12.5106 18.8468 12.5218 18.8468 12.5302 18.8468C14.1578 18.9656 15.7154 19.4988 17.0741 20.4023C17.2282 20.5045 17.4019 20.5542 17.5755 20.5542C17.8641 20.5542 18.147 20.4189 18.3207 20.1647C18.5981 19.7585 18.4916 19.2087 18.0798 18.9352C16.7379 18.0401 15.2308 17.4571 13.6508 17.2029C15.3092 10.6191 21.3154 5.93333 28.2882 5.93333C31.3614 5.93333 34.3169 6.83954 36.8381 8.54973C37.2472 8.82601 37.8046 8.72655 38.0876 8.32318C38.3677 7.9198 38.2669 7.37 37.8579 7.09096C35.0368 5.17355 31.7283 4.16235 28.291 4.16235C20.391 4.16235 13.5947 9.53882 11.841 17.0537C11.8382 17.0537 11.8326 17.0537 11.8298 17.0537C5.66109 17.0537 0.643736 21.9964 0.643736 28.0719C0.643736 32.8626 3.76172 36.9461 8.10393 38.4601L3.16502 42.4828C2.87367 42.3392 2.5459 42.259 2.19853 42.259C0.991113 42.259 0.0078125 43.2288 0.0078125 44.4196C0.0078125 45.6104 0.991113 46.5801 2.19853 46.5801C3.40594 46.5801 4.38924 45.6104 4.38924 44.4196C4.38924 44.2207 4.36123 44.03 4.308 43.8504L10.2806 38.9851C10.7849 39.0542 11.3004 39.0928 11.827 39.0928H45.8139C51.9827 39.0928 57 34.1501 57 28.0747C56.9972 21.9881 51.9798 17.0454 45.8111 17.0454Z" fill="#1E2235"/>
<path d="M36.7149 11.1687C36.3927 10.9836 36.0174 10.8759 35.6167 10.8759C34.4093 10.8759 33.426 11.8456 33.426 13.0364C33.426 13.4868 33.5661 13.9039 33.8042 14.2493L27.8232 23.8418C27.6187 23.7811 27.4058 23.7479 27.1817 23.7479C25.9742 23.7479 24.9909 24.7177 24.9909 25.9084C24.9909 25.9444 24.9937 25.9775 24.9965 26.0134L16.1132 28.5469C15.637 28.6823 15.3624 29.1741 15.4997 29.6438C15.6146 30.0306 15.9732 30.2848 16.3626 30.2848C16.4466 30.2848 16.5278 30.2737 16.6119 30.2489L25.8454 27.6159C26.2152 27.8977 26.6802 28.069 27.1817 28.069C28.3891 28.069 29.3724 27.0992 29.3724 25.9084C29.3724 25.599 29.3051 25.3061 29.1875 25.0409L35.3394 15.1776C35.4319 15.1887 35.5243 15.1969 35.6195 15.1969C36.827 15.1969 37.8103 14.2272 37.8103 13.0364C37.8103 12.89 37.7963 12.7463 37.7654 12.6082L49.2821 4.46058C49.6043 4.64569 49.9797 4.75344 50.3803 4.75344C51.5877 4.75344 52.571 3.78369 52.571 2.59291C52.571 1.40213 51.5849 0.432373 50.3775 0.432373C49.17 0.432373 48.1867 1.40213 48.1867 2.59291C48.1867 2.73934 48.2007 2.883 48.2316 3.02115L36.7149 11.1687Z" fill="#1E2235"/>
</svg>
