<svg width="47" height="37" viewBox="0 0 47 37" fill="none" xmlns="http://www.w3.org/2000/svg">
<g clip-path="url(#clip0_547_4654)">
<path d="M38.7066 7.17578H1.21318C0.818463 7.17578 0.5 7.49855 0.5 7.8986V36.2771C0.5 36.6771 0.818463 36.9999 1.21318 36.9999H38.7066C39.1013 36.9999 39.4198 36.6771 39.4198 36.2771V7.8986C39.4198 7.49855 39.1013 7.17578 38.7066 7.17578ZM37.9934 35.5543H1.92636V8.62141H37.9934V35.5543Z" fill="white"/>
<path d="M5.10185 14.9725H34.6382C35.0329 14.9725 35.3514 14.6497 35.3514 14.2497C35.3514 13.8496 35.0329 13.5269 34.6382 13.5269H5.10185C4.70714 13.5269 4.38867 13.8496 4.38867 14.2497C4.38867 14.6497 4.70714 14.9725 5.10185 14.9725Z" fill="white"/>
<path d="M5.46731 11.9085C5.92034 11.9085 6.28814 11.5357 6.28814 11.0765C6.28814 10.6174 5.92034 10.2446 5.46731 10.2446C5.01429 10.2446 4.64648 10.6174 4.64648 11.0765C4.64648 11.5357 5.01429 11.9085 5.46731 11.9085Z" fill="white"/>
<path d="M8.57083 11.9676C9.02416 11.9676 9.39166 11.5951 9.39166 11.1356C9.39166 10.6762 9.02416 10.3037 8.57083 10.3037C8.1175 10.3037 7.75 10.6762 7.75 11.1356C7.75 11.5951 8.1175 11.9676 8.57083 11.9676Z" fill="white"/>
<path d="M11.6782 12.0266C12.1316 12.0266 12.4991 11.6542 12.4991 11.1947C12.4991 10.7353 12.1316 10.3628 11.6782 10.3628C11.2249 10.3628 10.8574 10.7353 10.8574 11.1947C10.8574 11.6542 11.2249 12.0266 11.6782 12.0266Z" fill="white"/>
<path d="M5.21318 20.4046H7.31459C7.7093 20.4046 8.02777 20.0818 8.02777 19.6818C8.02777 19.2817 7.7093 18.959 7.31459 18.959H5.21318C4.81846 18.959 4.5 19.2817 4.5 19.6818C4.5 20.0818 4.81846 20.4046 5.21318 20.4046Z" fill="white"/>
<path d="M17.6167 18.959H12.4495C12.0548 18.959 11.7363 19.2817 11.7363 19.6818C11.7363 20.0818 12.0548 20.4046 12.4495 20.4046H17.6189C18.0136 20.4046 18.3321 20.0818 18.3321 19.6818C18.3299 19.284 18.0114 18.959 17.6167 18.959Z" fill="white"/>
<path d="M9.25949 20.0841C9.28416 20.1227 9.31556 20.1591 9.34695 20.1932C9.47927 20.3273 9.66317 20.4046 9.85156 20.4046C9.89866 20.4046 9.94575 20.4 9.99061 20.391C10.0355 20.3819 10.0803 20.3682 10.1229 20.35C10.1678 20.3319 10.2081 20.3091 10.2463 20.2841C10.2844 20.2591 10.3203 20.2273 10.3539 20.1955C10.3853 20.1614 10.4167 20.125 10.4414 20.0864C10.4661 20.0477 10.4885 20.0045 10.5064 19.9614C10.5244 19.9182 10.5378 19.8727 10.5468 19.8272C10.5558 19.7818 10.5603 19.7318 10.5603 19.6863C10.5603 19.6386 10.5558 19.5909 10.5468 19.5454C10.5378 19.4999 10.5244 19.4545 10.5064 19.4113C10.4885 19.3681 10.4661 19.3249 10.4414 19.2863C10.4167 19.2476 10.3853 19.2113 10.3539 19.1772C10.3203 19.1453 10.2844 19.1135 10.2463 19.0885C10.2081 19.0635 10.1655 19.0408 10.1229 19.0226C10.0803 19.0044 10.0355 18.9908 9.99061 18.9817C9.75961 18.934 9.51291 19.0112 9.34695 19.1794C9.31331 19.2135 9.28416 19.2499 9.25949 19.2885C9.23482 19.3272 9.21239 19.3704 9.19445 19.4136C9.17651 19.4567 9.16305 19.5022 9.15408 19.5477C9.14511 19.5931 9.14062 19.6431 9.14062 19.6886C9.14062 19.7341 9.14511 19.7841 9.15408 19.8295C9.16305 19.875 9.17651 19.9204 9.19445 19.9636C9.21239 20.0023 9.23482 20.0432 9.25949 20.0841Z" fill="white"/>
<path d="M5.21318 24.2005H11.2259C11.6206 24.2005 11.939 23.8777 11.939 23.4777C11.939 23.0776 11.6206 22.7549 11.2259 22.7549H5.21318C4.81846 22.7549 4.5 23.0776 4.5 23.4777C4.5 23.8777 4.81846 24.2005 5.21318 24.2005Z" fill="white"/>
<path d="M15.6152 23.4777C15.6152 23.8777 15.9337 24.2005 16.3284 24.2005H22.6349C23.0296 24.2005 23.3481 23.8777 23.3481 23.4777C23.3481 23.0776 23.0296 22.7549 22.6349 22.7549H16.3284C15.9359 22.7549 15.6152 23.0799 15.6152 23.4777Z" fill="white"/>
<path d="M13.6409 22.7549C13.2462 22.7549 12.9277 23.0776 12.9277 23.4777C12.9277 23.8777 13.2462 24.2005 13.6409 24.2005H13.7351C14.1298 24.2005 14.4483 23.8777 14.4483 23.4777C14.4483 23.0776 14.1298 22.7549 13.7351 22.7549H13.6409Z" fill="white"/>
<path d="M26.0444 22.7549H25.0979C24.7032 22.7549 24.3848 23.0776 24.3848 23.4777C24.3848 23.8777 24.7032 24.2005 25.0979 24.2005H26.0444C26.4391 24.2005 26.7575 23.8777 26.7575 23.4777C26.7575 23.0799 26.4368 22.7549 26.0444 22.7549Z" fill="white"/>
<path d="M5.21318 27.9964H16.0544C16.4491 27.9964 16.7676 27.6736 16.7676 27.2736C16.7676 26.8735 16.4491 26.5508 16.0544 26.5508H5.21318C4.81846 26.5508 4.5 26.8735 4.5 27.2736C4.5 27.6736 4.81846 27.9964 5.21318 27.9964Z" fill="white"/>
<path d="M25.9966 26.5508H21.971C21.5763 26.5508 21.2578 26.8735 21.2578 27.2736C21.2578 27.6736 21.5763 27.9964 21.971 27.9964H25.9944C26.3891 27.9964 26.7076 27.6736 26.7076 27.2736C26.7076 26.8735 26.3891 26.5508 25.9966 26.5508Z" fill="white"/>
<path d="M29.6883 26.5508H28.5042C28.1095 26.5508 27.791 26.8735 27.791 27.2736C27.791 27.6736 28.1095 27.9964 28.5042 27.9964H29.6883C30.0831 27.9964 30.4015 27.6736 30.4015 27.2736C30.4015 26.8735 30.0831 26.5508 29.6883 26.5508Z" fill="white"/>
<path d="M19.3594 26.5508H18.6956C18.3009 26.5508 17.9824 26.8735 17.9824 27.2736C17.9824 27.6736 18.3009 27.9964 18.6956 27.9964H19.3594C19.7542 27.9964 20.0726 27.6736 20.0726 27.2736C20.0726 26.8735 19.7542 26.5508 19.3594 26.5508Z" fill="white"/>
<path d="M8.89569 30.3491H5.21318C4.81846 30.3491 4.5 30.6719 4.5 31.0719C4.5 31.472 4.81846 31.7948 5.21318 31.7948H8.89569C9.29041 31.7948 9.60887 31.472 9.60887 31.0719C9.60887 30.6719 9.28816 30.3491 8.89569 30.3491Z" fill="white"/>
<path d="M19.1799 30.3491H15.1565C14.7618 30.3491 14.4434 30.6719 14.4434 31.0719C14.4434 31.472 14.7618 31.7948 15.1565 31.7948H19.1799C19.5747 31.7948 19.8931 31.472 19.8931 31.0719C19.8931 30.6719 19.5747 30.3491 19.1799 30.3491Z" fill="white"/>
<path d="M12.3145 30.3491H11.6507C11.256 30.3491 10.9375 30.6719 10.9375 31.0719C10.9375 31.472 11.256 31.7948 11.6507 31.7948H12.3145C12.7092 31.7948 13.0277 31.472 13.0277 31.0719C13.0277 30.6719 12.7092 30.3491 12.3145 30.3491Z" fill="white"/>
<path d="M42.2304 3.51416H4.73466C4.33995 3.51416 4.02148 3.83693 4.02148 4.23698C4.02148 4.63703 4.33995 4.95979 4.73466 4.95979H41.5149V32.6155C41.5149 33.0155 41.8334 33.3383 42.2281 33.3383C42.6228 33.3383 42.9413 33.0155 42.9413 32.6155V4.23698C42.9435 3.83693 42.6251 3.51416 42.2304 3.51416Z" fill="white"/>
<path d="M45.7867 0H8.29326C7.89854 0 7.58008 0.322767 7.58008 0.722816C7.58008 1.12287 7.89854 1.44563 8.29326 1.44563H45.0735V29.1013C45.0735 29.5014 45.392 29.8241 45.7867 29.8241C46.1814 29.8241 46.4999 29.5014 46.4999 29.1013V0.722816C46.4999 0.322767 46.1814 0 45.7867 0Z" fill="white"/>
<path d="M33.3792 18.2111C33.1101 18.5293 32.8051 18.9203 32.5203 19.3794C32.2355 19.8317 31.9731 20.3773 31.7174 20.9546C31.5133 21.4138 31.3294 21.8638 31.1657 22.282C31.1074 22.4252 30.9369 22.5003 30.7799 22.448C30.7149 22.4275 30.6611 22.3889 30.6274 22.3389C30.374 21.9797 30.0892 21.6479 29.8313 21.366C29.5689 21.0774 29.3424 20.8682 29.1114 20.7069C28.6584 20.3841 28.3399 20.2477 28.3735 20.1386C28.4027 20.0363 28.8064 20.0545 29.376 20.35C29.5173 20.4273 29.6676 20.5182 29.8178 20.6364C29.9703 20.7546 30.1094 20.8864 30.2574 21.0274C30.4323 21.2046 30.614 21.4001 30.7934 21.6138C30.9055 21.3319 31.0266 21.0455 31.1567 20.75C31.4191 20.1613 31.686 19.5999 32.0067 19.1089C32.3207 18.6225 32.6616 18.2179 32.9778 17.9042C33.608 17.2746 34.1305 17.0064 34.218 17.1155C34.31 17.2246 33.922 17.5747 33.3792 18.2111Z" fill="white"/>
<path d="M34.639 29.258C34.3699 29.5762 34.0649 29.9671 33.78 30.4263C33.4952 30.8786 33.2328 31.4241 32.9772 32.0015C32.7731 32.4606 32.5892 32.9107 32.4255 33.3289C32.3671 33.4721 32.1967 33.5471 32.0397 33.4949C31.9747 33.4744 31.9208 33.4358 31.8872 33.3858C31.6338 33.0266 31.349 32.6948 31.091 32.4129C30.8287 32.1242 30.6021 31.9151 30.3711 31.7537C29.9181 31.431 29.5997 31.2946 29.6333 31.1855C29.6624 31.0832 30.0661 31.1014 30.6358 31.3969C30.7771 31.4742 30.9273 31.5651 31.0776 31.6833C31.2301 31.8015 31.3691 31.9333 31.5172 32.0742C31.6921 32.2515 31.8738 32.447 32.0532 32.6607C32.1653 32.3788 32.2864 32.0924 32.4165 31.7969C32.6789 31.2082 32.9458 30.6468 33.2665 30.1558C33.5804 29.6694 33.9213 29.2648 34.2376 28.9511C34.8678 28.3215 35.3903 28.0533 35.4778 28.1624C35.5697 28.2715 35.1817 28.6215 34.639 29.258Z" fill="white"/>
</g>
<defs>
<clipPath id="clip0_547_4654">
<rect width="46" height="37" fill="white" transform="translate(0.5)"/>
</clipPath>
</defs>
</svg>
