<svg width="60" height="54" viewBox="0 0 60 54" fill="none" xmlns="http://www.w3.org/2000/svg">
<path d="M37.6818 42.0567C36.6202 42.627 35.4964 43.0816 34.336 43.4147C34.8781 42.8472 35.392 42.1809 35.8663 41.4157C36.1289 40.995 35.999 40.4416 35.5755 40.1791C35.1548 39.9193 34.6014 40.0464 34.3388 40.4699C33.1981 42.3108 31.8542 43.4599 30.482 43.7959V39.2953C30.482 38.7984 30.081 38.3975 29.5841 38.3975C29.0872 38.3975 28.6862 38.7984 28.6862 39.2953V43.7677C27.842 43.5362 27.0176 43.0025 26.227 42.1611C25.8882 41.7997 25.3179 41.7828 24.9593 42.1216C24.5979 42.4604 24.5809 43.0308 24.9198 43.3893C24.9282 43.3978 24.9339 43.4035 24.9423 43.4119C24.7362 43.3526 24.5301 43.2905 24.324 43.2227C23.8525 43.0675 23.3471 43.3244 23.1918 43.7931C23.0365 44.2646 23.2934 44.77 23.7621 44.9253C25.6539 45.5493 27.6331 45.8655 29.6434 45.8655C32.7436 45.8655 35.8183 45.0947 38.5316 43.635C38.9693 43.4006 39.1302 42.8557 38.8959 42.4181C38.6615 41.9833 38.1166 41.8223 37.6818 42.0567Z" fill="white"/>
<path d="M41.6974 40.3286C41.8725 40.5037 42.1012 40.5884 42.3299 40.5884C42.5614 40.5884 42.7901 40.5009 42.968 40.323C44.7609 38.5188 46.1839 36.3306 47.1156 33.973C48.6262 33.9222 49.8572 32.7533 50.0012 31.2682C58.0735 29.8621 59.1295 28.2979 59.1295 27.0838C59.1295 25.2485 56.5347 23.8933 50.9612 22.8147C50.4727 22.7187 50.004 23.0378 49.908 23.5262C49.8149 24.0119 50.1311 24.4834 50.6196 24.5766C56.4923 25.7116 57.249 26.8918 57.3253 27.064C57.2039 27.2447 56.1987 28.3713 49.6313 29.512C49.3433 28.9953 48.9057 28.5746 48.3806 28.3035C48.406 27.8998 48.4229 27.4904 48.4229 27.0866C48.4229 24.1898 47.7622 21.4425 46.5848 18.9889C48.4427 16.7443 50.1142 14.5956 51.5372 12.5995C53.5305 9.80423 54.9479 7.44382 55.7526 5.58599C56.7323 3.31875 56.7832 1.79126 55.9051 0.913164C54.7559 -0.235984 52.5197 0.193182 48.8944 2.25148C48.3777 1.83361 47.7227 1.58232 47.0084 1.58232C45.351 1.58232 44.0042 2.93194 44.0042 4.58648C44.0042 4.85471 44.0437 5.11447 44.1087 5.36011C42.92 6.20997 41.6664 7.15301 40.3591 8.18074C39.9695 8.4885 39.9017 9.05319 40.2095 9.44001C40.3873 9.66588 40.6499 9.78164 40.9153 9.78164C41.1101 9.78164 41.305 9.71953 41.4716 9.58965C42.7252 8.60144 43.9308 7.69511 45.0715 6.87631C45.5938 7.31959 46.2714 7.58782 47.0084 7.58782C48.6657 7.58782 50.0125 6.24103 50.0125 4.58366C50.0125 4.29284 49.9702 4.01332 49.8911 3.74509C53.1861 1.89573 54.4312 1.97478 54.6345 2.17807C54.6458 2.18937 55.7159 3.64062 50.0746 11.5548C48.7928 13.3533 47.3076 15.2789 45.6587 17.2892C45.0432 16.2869 44.3374 15.3439 43.5496 14.4771C43.5016 14.4093 43.448 14.3528 43.3859 14.3048C39.9554 10.6174 35.0623 8.30498 29.6413 8.30498C24.336 8.30498 19.3611 10.5609 15.86 14.3331C15.8317 14.3585 15.8091 14.3867 15.7866 14.4149C14.6854 15.6177 13.7311 16.9702 12.9631 18.4497C12.2488 17.6901 11.5909 16.9532 10.9839 16.2445C11.317 15.7617 11.5147 15.1744 11.5147 14.5448C11.5147 12.8874 10.1679 11.5407 8.51051 11.5407C8.22534 11.5407 7.94864 11.583 7.68888 11.6592C6.98584 10.3181 7.00278 9.66588 7.12984 9.50212C7.38677 9.1746 9.24743 8.92049 14.7221 11.6536C15.1654 11.8738 15.7047 11.6959 15.9249 11.2527C16.1451 10.8094 15.9673 10.2701 15.524 10.0499C10.1509 7.36759 6.94349 6.82831 5.71528 8.40097C4.98683 9.33272 5.14212 10.7275 6.18398 12.6531C5.76046 13.1698 5.50635 13.8305 5.50635 14.5505C5.50635 16.2078 6.85596 17.5546 8.51051 17.5546C8.88603 17.5546 9.24178 17.484 9.57213 17.357C13.3019 21.739 19.1295 27.129 25.6658 32.2281C26.8291 33.1373 27.9952 34.0182 29.1528 34.8709C24.2174 39.5381 19.3865 43.6547 15.1795 46.7548C14.6741 46.3708 14.0473 46.1421 13.3669 46.1421C11.7095 46.1421 10.3627 47.4917 10.3627 49.1463C10.3627 49.423 10.4022 49.6912 10.4756 49.9482C6.44374 52.3904 4.9473 52.3481 4.71013 52.1109C4.54073 51.9415 4.41649 50.8997 5.85081 48.1496C7.12701 45.7045 9.32649 42.4801 12.2177 38.8237C12.5255 38.4341 12.4577 37.8694 12.0709 37.5616C11.6813 37.2539 11.1166 37.3217 10.8088 37.7085C7.84982 41.4524 5.58541 44.7756 4.25838 47.3167C2.64901 50.3999 2.38925 52.3255 3.43958 53.3758C3.85463 53.7909 4.41367 53.9998 5.13365 53.9998C6.57079 53.9998 8.64039 53.1584 11.4469 51.4502C11.9692 51.885 12.6384 52.1448 13.3669 52.1448C15.0242 52.1448 16.371 50.798 16.371 49.1406C16.371 48.8159 16.3174 48.5025 16.2214 48.2089C20.561 45.0128 25.5501 40.7578 30.6295 35.9325C35.1583 39.1795 39.5205 41.9182 43.2616 43.8354C46.9208 45.713 49.6285 46.6475 51.4355 46.6475C52.4492 46.6475 53.1776 46.3539 53.635 45.7694C54.9056 44.1403 53.4656 41.0034 49.2361 36.181C48.9085 35.8083 48.341 35.7716 47.9683 36.0991C47.5956 36.4266 47.5589 36.9941 47.8864 37.3668C49.6342 39.3574 50.9358 41.1277 51.6529 42.4886C52.3757 43.858 52.3503 44.5017 52.2205 44.6683C52.0906 44.832 51.4722 45.0128 49.9673 44.6485C48.4737 44.2843 46.4408 43.4514 44.0833 42.2429C40.4946 40.402 36.3103 37.7819 31.9509 34.6732C32.8346 33.8206 33.7183 32.9509 34.5993 32.07C38.5154 28.1539 42.152 24.2236 45.3086 20.5164C46.0568 22.2952 46.5114 24.2265 46.6102 26.2481H42.3299C41.833 26.2481 41.432 26.649 41.432 27.1459C41.432 27.6428 41.833 28.0438 42.3299 28.0438H46.3533C45.2324 28.2951 44.3487 29.1732 44.0889 30.2884C42.0673 30.5171 39.9158 30.7091 37.6881 30.8559C37.194 30.8898 36.8185 31.3162 36.8524 31.8103C36.8834 32.2846 37.2787 32.6488 37.7474 32.6488C37.7672 32.6488 37.7869 32.6488 37.8067 32.646C40.0372 32.4964 42.1887 32.3072 44.2188 32.0785C44.4503 32.6601 44.8569 33.1514 45.3736 33.4902C44.8032 34.8878 44.0381 36.2149 43.1148 37.4205C42.0532 36.9546 39.7944 36.116 38.2782 35.6332C38.3573 35.3537 38.4307 35.0601 38.5239 34.6478C38.6312 34.165 38.329 33.685 37.8434 33.5749C37.3606 33.4648 36.8806 33.7697 36.7705 34.2554C36.6096 34.9782 36.5192 35.2605 36.3046 35.9438L36.299 35.9636C36.2962 35.9692 36.2962 35.9777 36.2933 35.9833C36.2905 35.989 36.2877 35.9974 36.2849 36.0031C36.2792 36.0257 36.2792 36.0483 36.2736 36.0709C36.2679 36.1019 36.2623 36.1302 36.2594 36.1612C36.2566 36.1894 36.2594 36.2205 36.2594 36.2487C36.2594 36.277 36.2594 36.308 36.2623 36.3363C36.2651 36.3645 36.2736 36.3927 36.2792 36.4238C36.2849 36.452 36.2905 36.4803 36.299 36.5057C36.3074 36.5339 36.3187 36.5593 36.3329 36.5876C36.3442 36.613 36.3554 36.6384 36.3667 36.6638C36.3809 36.6892 36.3978 36.7118 36.4147 36.7372C36.4317 36.7598 36.4458 36.7852 36.4656 36.8078C36.4853 36.8304 36.5051 36.8501 36.5249 36.8699C36.5446 36.8897 36.5644 36.9123 36.587 36.9292C36.6096 36.949 36.635 36.9631 36.6604 36.98C36.6858 36.997 36.7084 37.0111 36.7338 37.0252C36.762 37.0393 36.7903 37.0506 36.8185 37.0619C36.8411 37.0704 36.8608 37.0817 36.8834 37.0901C36.8919 37.0929 36.9004 37.093 36.9088 37.0958C36.9145 37.0986 36.9201 37.1014 36.9258 37.1014C38.0156 37.3894 40.4862 38.2788 41.8866 38.8491C41.8217 38.9169 41.7595 38.9875 41.6918 39.0553C41.3445 39.411 41.3445 39.9813 41.6974 40.3286ZM47.0112 5.79775C46.3448 5.79775 45.7999 5.25564 45.7999 4.58648C45.7999 3.92015 46.342 3.37522 47.0112 3.37522C47.6775 3.37522 48.2224 3.91732 48.2224 4.58648C48.2196 5.25564 47.6775 5.79775 47.0112 5.79775ZM13.3669 50.3576C12.7005 50.3576 12.1556 49.8154 12.1556 49.1463C12.1556 48.48 12.6977 47.935 13.3669 47.935C14.0332 47.935 14.5781 48.4771 14.5781 49.1463C14.5781 49.8154 14.036 50.3576 13.3669 50.3576ZM21.9332 15.7928C20.53 15.4991 19.2199 15.1293 18.0453 14.6832C19.9992 12.862 22.3624 11.5152 24.9402 10.7699C24.3247 11.4164 23.7487 12.1957 23.2207 13.0964C22.7436 13.9095 22.3144 14.8159 21.9332 15.7928ZM28.6869 10.4085V16.5438C26.9844 16.5043 25.3157 16.3575 23.7346 16.1175C24.9967 13.0399 26.7585 10.9393 28.6869 10.4085ZM30.4827 10.3802C32.4393 10.8574 34.2548 12.9778 35.5479 16.1175C33.9301 16.3631 32.2247 16.5099 30.4827 16.5466V10.3802ZM35.7766 12.6164C35.3305 11.9134 34.8562 11.2978 34.3593 10.7699C36.9625 11.5237 39.3088 12.8818 41.2372 14.686C40.0655 15.1293 38.7582 15.4991 37.3578 15.7928C36.8975 14.6182 36.3667 13.5453 35.7766 12.6164ZM7.29924 14.5476C7.29924 13.8813 7.84135 13.3364 8.51051 13.3364C9.17684 13.3364 9.72177 13.8785 9.72177 14.5476C9.72177 15.214 9.17967 15.7589 8.51051 15.7589C7.84417 15.7561 7.29924 15.214 7.29924 14.5476ZM29.6441 32.9933C30.1438 32.9848 30.6408 32.9707 31.1405 32.9594C30.9175 33.1768 30.6944 33.3914 30.4714 33.606C30.1947 33.4055 29.9208 33.1994 29.6441 32.9933ZM33.3287 30.8023C33.2214 30.9096 33.1113 31.0169 33.004 31.1242C32.9701 31.1213 32.9362 31.1157 32.9024 31.1185C31.0361 31.1835 29.1528 31.2173 27.3006 31.2202C27.1227 31.0818 26.9449 30.9463 26.7698 30.8079C22.049 27.1261 17.7093 23.2975 14.2873 19.8247C14.9339 18.4581 15.7527 17.2073 16.707 16.0864C18.0933 16.6709 19.6519 17.148 21.3375 17.5123C20.7446 19.452 20.3295 21.6035 20.129 23.8538C20.0839 24.3479 20.4509 24.7827 20.945 24.8279C20.9732 24.8307 20.9987 24.8307 21.0269 24.8307C21.4871 24.8307 21.8796 24.4806 21.9191 24.0119C22.1196 21.7672 22.5346 19.6807 23.1134 17.8454C24.8781 18.1306 26.7529 18.2972 28.6898 18.3395V26.2509H25.5755C25.0786 26.2509 24.6776 26.6518 24.6776 27.1487C24.6776 27.6457 25.0786 28.0466 25.5755 28.0466H28.6869V29.0037C28.6869 29.5007 29.0879 29.9016 29.5848 29.9016C30.0817 29.9016 30.4827 29.5007 30.4827 29.0037V28.0438H33.4755C33.9724 28.0438 34.3734 27.6428 34.3734 27.1459C34.3734 26.649 33.9724 26.2481 33.4755 26.2481H30.4827V18.3424C32.4591 18.3057 34.3734 18.1391 36.1747 17.8483C36.6321 19.291 36.9907 20.892 37.2166 22.6058C37.2815 23.0971 37.7361 23.4444 38.2246 23.3766C38.7159 23.3117 39.0603 22.8599 38.9954 22.3686C38.7695 20.6576 38.4137 19.0228 37.9507 17.5123C39.6335 17.148 41.1892 16.6709 42.5727 16.0892C43.2786 16.9165 43.9025 17.8116 44.4418 18.7631C41.2062 22.603 37.4255 26.7083 33.3287 30.8023ZM47.0112 29.7661C47.6775 29.7661 48.2224 30.3082 48.2224 30.9773C48.2224 31.6437 47.6803 32.1886 47.0112 32.1886C46.3448 32.1886 45.7999 31.6465 45.7999 30.9773C45.7999 30.3082 46.342 29.7661 47.0112 29.7661Z" fill="white"/>
<path d="M11.4843 31.8722C12.481 35.6697 14.6494 39.0889 17.7694 41.6385C17.9359 41.774 18.1364 41.8418 18.3369 41.8418C18.5966 41.8418 18.8564 41.7288 19.0314 41.5114C19.3449 41.1275 19.2884 40.5628 18.9044 40.2494C18.4752 39.8993 18.0715 39.5294 17.6847 39.1426C18.8959 38.6569 20.2738 38.2475 21.7646 37.9285C21.8464 38.1544 21.9311 38.3831 22.0187 38.6033C22.1598 38.9534 22.4958 39.1652 22.8516 39.1652C22.9645 39.1652 23.0775 39.1454 23.1876 39.1002C23.6478 38.9139 23.8709 38.3915 23.6845 37.9313C23.6393 37.8212 23.5998 37.7082 23.5575 37.5953C23.7607 37.5643 23.964 37.5304 24.1701 37.4993C24.6614 37.4315 25.0031 36.977 24.9353 36.4857C24.8675 35.9944 24.413 35.6499 23.9217 35.7205C23.6026 35.7657 23.2864 35.8165 22.973 35.8674C22.8008 35.2829 22.6427 34.6787 22.5071 34.0575C22.3998 33.5719 21.9227 33.2669 21.437 33.3714C20.9514 33.4787 20.6465 33.9559 20.7509 34.4415C20.8836 35.0485 21.0361 35.6358 21.2027 36.2118C19.4324 36.6015 17.8117 37.1153 16.4085 37.7308C15.0617 36.0622 14.0537 34.162 13.4212 32.1263C16.0951 32.451 19.0653 32.6938 22.1937 32.8434C22.2078 32.8434 22.222 32.8434 22.2361 32.8434C22.7132 32.8434 23.1085 32.4679 23.1311 31.9879C23.1537 31.4938 22.7725 31.0731 22.2784 31.0477C18.9213 30.8896 15.7562 30.6185 12.9582 30.2571C12.8198 29.5287 12.7238 28.7889 12.6815 28.0407H16.4819C16.9788 28.0407 17.3797 27.6398 17.3797 27.1429C17.3797 26.6459 16.9788 26.245 16.4819 26.245H12.6787C12.721 25.3528 12.834 24.4691 13.0147 23.6023C13.1163 23.1166 12.8029 22.6423 12.3201 22.5406C11.8345 22.439 11.3601 22.7524 11.2585 23.2352C10.9959 24.4916 10.8632 25.7848 10.8632 27.0808C10.8632 28.0661 10.9451 29.0374 11.0919 29.9917C9.70839 29.78 8.44066 29.5456 7.31128 29.2915C2.32223 28.1593 2.01165 27.0892 2.01165 27.0808C2.01165 27.0695 2.40411 25.8017 8.67783 24.582C9.16346 24.486 9.48252 24.0173 9.38652 23.5288C9.29052 23.0432 8.82183 22.7242 8.33337 22.8202C2.79939 23.9044 0.21875 25.2568 0.21875 27.0864C0.21875 28.7522 2.34764 30.0115 6.91599 31.0477C8.25996 31.3526 9.80157 31.6293 11.4843 31.8722Z" fill="white"/>
</svg>
