<svg width="66" height="59" viewBox="0 0 66 59" fill="none" xmlns="http://www.w3.org/2000/svg">
<g clip-path="url(#clip0_547_4817)">
<path d="M64.9677 56.9157H61.5225C61.2755 49.9345 58.565 43.5758 54.2395 38.6982C54.1762 38.5993 54.1002 38.5131 54.0115 38.4428C48.7614 32.6619 41.2187 29.0325 32.8496 29.0325C24.4804 29.0325 16.9378 32.6619 11.6877 38.4428C11.599 38.5131 11.523 38.5993 11.4597 38.6982C7.13419 43.5758 4.42048 49.9345 4.17665 56.9157H1.03546C0.46548 56.9157 0 57.3817 0 57.9595C0 58.5341 0.462314 59.0033 1.03546 59.0033H64.9677C65.5377 59.0033 66 58.5373 66 57.9595C66 57.3817 65.5377 56.9157 64.9677 56.9157ZM41.7887 38.711C42.2764 39.6878 42.726 40.7284 43.1281 41.8233C40.2149 42.4298 37.0864 42.7809 33.8819 42.8416V31.2063C36.8173 31.7075 39.5943 34.325 41.7887 38.711ZM31.8141 31.2063V42.8416C28.6096 42.7809 25.4811 42.4298 22.5679 41.8233C22.97 40.7284 23.4197 39.691 23.9073 38.711C26.0985 34.325 28.8756 31.7075 31.8141 31.2063ZM31.8141 44.9261V56.9157H19.9396C20.0283 52.2137 20.7028 47.7319 21.8997 43.8056C25.0251 44.476 28.3816 44.8622 31.8141 44.9261ZM33.8819 44.9261C37.3144 44.8622 40.6709 44.476 43.7963 43.8056C44.9932 47.7287 45.6677 52.2137 45.7564 56.9157H33.8819V44.9261ZM45.8102 43.3268C48.4954 42.6213 50.9685 41.6956 53.1186 40.5752C56.8709 45.0154 59.2141 50.6974 59.4516 56.9157H47.8209C47.7355 52.0668 47.042 47.4191 45.8102 43.3268ZM51.6619 38.9823C49.7272 39.9368 47.5328 40.7316 45.1579 41.3477C44.7051 40.09 44.1953 38.8929 43.6348 37.7725C42.4252 35.3561 41.0319 33.4057 39.5056 31.966C44.1731 33.1822 48.3498 35.6466 51.6619 38.9823ZM22.0581 37.7725C21.4976 38.8929 20.9909 40.09 20.5381 41.3477C18.1632 40.7316 15.9656 39.9368 14.0341 38.9823C17.3463 35.6466 21.5197 33.1822 26.1904 31.966C24.6641 33.4057 23.2677 35.3561 22.0581 37.7725ZM12.5743 40.5752C14.7244 41.6956 17.1974 42.6213 19.8826 43.3268C18.6509 47.4191 17.9574 52.0636 17.8719 56.9157H6.24123C6.47872 50.6974 8.82195 45.0154 12.5743 40.5752Z" fill="white"/>
<path d="M32.9577 13.9208C36.7639 13.9208 39.8639 10.7989 39.8639 6.95883C39.8639 3.1219 36.7671 0 32.9577 0C29.1484 0 26.0547 3.1219 26.0547 6.96202C26.0547 10.7989 29.1516 13.9208 32.9577 13.9208ZM32.9577 2.08446C35.6239 2.08446 37.7962 4.27106 37.7962 6.96202C37.7962 9.64979 35.6271 11.8396 32.9577 11.8396C30.2883 11.8396 28.1193 9.65298 28.1193 6.96202C28.1224 4.27106 30.2915 2.08446 32.9577 2.08446Z" fill="white"/>
<path d="M23.0083 28.7163C23.5688 28.8185 24.1102 28.445 24.2116 27.88L25.2059 22.4279C25.8582 19.4017 28.5592 17.2087 31.6308 17.2087H34.4553C37.5775 17.2087 40.2912 19.4496 40.8992 22.5268L41.9125 27.8864C42.0075 28.3876 42.4413 28.7355 42.9258 28.7323C42.9891 28.7323 43.0556 28.7259 43.1189 28.7132C43.6794 28.6046 44.0467 28.0588 43.9422 27.4938L42.9289 22.1246C42.1246 18.0674 38.5591 15.1211 34.4553 15.1211H31.6308C27.5871 15.1211 24.0311 18.0132 23.1825 22.0001C23.1793 22.0097 23.1793 22.0193 23.1761 22.032L22.1787 27.5001C22.0742 28.0683 22.4478 28.6142 23.0083 28.7163Z" fill="white"/>
<path d="M11.5836 19.0219C14.937 19.0219 17.6634 16.2735 17.6634 12.893C17.6634 9.51258 14.937 6.76416 11.5836 6.76416C8.23029 6.76416 5.50391 9.51258 5.50391 12.893C5.50707 16.2735 8.23346 19.0219 11.5836 19.0219ZM11.5836 8.85181C13.7971 8.85181 15.5956 10.6649 15.5956 12.8962C15.5956 15.1275 13.7971 16.9406 11.5836 16.9406C9.37024 16.9406 7.57165 15.1275 7.57165 12.8962C7.57165 10.6649 9.37341 8.85181 11.5836 8.85181Z" fill="white"/>
<path d="M2.17211 35.9274C2.23861 35.9401 2.30194 35.9465 2.36843 35.9465C2.85608 35.9465 3.28673 35.5986 3.38172 35.1006L5.06315 26.2201C5.60779 23.6856 7.8687 21.8501 10.4431 21.8501H12.8718C15.4874 21.8501 17.7578 23.7271 18.2708 26.3095C18.3816 26.8745 18.9262 27.2416 19.4867 27.1267C20.0472 27.015 20.4113 26.4659 20.2973 25.9009C19.588 22.3417 16.4658 19.7625 12.8686 19.7625H10.4399C6.89657 19.7625 3.78387 22.297 3.03657 25.7892C3.0334 25.7988 3.0334 25.8051 3.03024 25.8115L1.34881 34.7048C1.24431 35.273 1.61163 35.8188 2.17211 35.9274Z" fill="white"/>
<path d="M54.0309 19.0219C57.3843 19.0219 60.1107 16.2735 60.1107 12.893C60.1107 9.51258 57.3843 6.76416 54.0309 6.76416C50.6776 6.76416 47.9512 9.51258 47.9512 12.893C47.9512 16.2735 50.6776 19.0219 54.0309 19.0219ZM54.0309 8.85181C56.2443 8.85181 58.0429 10.6649 58.0429 12.8962C58.0429 15.1275 56.2443 16.9406 54.0309 16.9406C51.8175 16.9406 50.0189 15.1275 50.0189 12.8962C50.0189 10.6649 51.8175 8.85181 54.0309 8.85181Z" fill="white"/>
<path d="M46.1302 27.1235C46.6907 27.2352 47.2354 26.8713 47.3462 26.3063C47.8592 23.7207 50.1296 21.8469 52.7451 21.8469H55.1739C57.7451 21.8469 60.006 23.6856 60.5538 26.2169L62.2352 35.0974C62.3302 35.5954 62.764 35.9433 63.2485 35.9433C63.3118 35.9433 63.3783 35.9369 63.4448 35.9242C64.0053 35.8156 64.3726 35.2698 64.2681 34.7048L62.5867 25.8115C62.5867 25.8019 62.5835 25.7956 62.5804 25.7892C61.8362 22.297 58.7204 19.7625 55.177 19.7625H52.7483C49.1511 19.7625 46.0289 22.3417 45.3228 25.8977C45.2088 26.4627 45.5698 27.0118 46.1302 27.1235Z" fill="white"/>
</g>
<defs>
<clipPath id="clip0_547_4817">
<rect width="66" height="59" fill="white"/>
</clipPath>
</defs>
</svg>
