<svg width="74" height="81" viewBox="0 0 74 81" fill="none" xmlns="http://www.w3.org/2000/svg">
<g clip-path="url(#clip0_547_4795)">
<path d="M16.6593 47.524C17.3621 47.524 17.9321 46.9539 17.9321 46.2511C17.9321 45.5483 17.3621 44.9783 16.6593 44.9783C9.04617 44.9783 2.85412 38.786 2.85412 31.1725C2.85412 23.559 9.04617 17.3666 16.6593 17.3666C18.6075 17.3666 20.4893 17.7649 22.254 18.5496C23.886 19.432 24.5536 20.4511 24.5809 20.494C24.8191 20.8884 25.2407 21.107 25.6702 21.107C25.8927 21.107 26.1153 21.0484 26.3183 20.9274C26.9235 20.5682 27.1226 19.7873 26.7673 19.1822C26.6775 19.0299 25.8927 17.7727 24.007 16.617C23.9602 16.1719 23.9289 15.7268 23.9289 15.2817C23.9289 8.26164 29.6408 2.54565 36.6644 2.54565C43.6841 2.54565 49.3999 8.25774 49.3999 15.2817C49.3999 15.9767 49.3374 16.6756 49.2242 17.3744C48.1115 18.2685 47.6157 19.0611 47.5454 19.1822C47.1862 19.7873 47.3853 20.576 47.9905 20.9352C48.1974 21.0563 48.4199 21.1148 48.6425 21.1148C49.0758 21.1148 49.4936 20.8962 49.7317 20.494C49.7395 20.4823 50.3915 19.4633 52.0118 18.5731C53.7765 17.7844 55.7051 17.3627 57.6533 17.3627C65.2665 17.3627 71.4585 23.555 71.4585 31.1686C71.4585 38.7821 65.2665 44.9744 57.6533 44.9744C56.9506 44.9744 56.3806 45.5444 56.3806 46.2472C56.3806 46.95 56.9506 47.5201 57.6533 47.5201C66.672 47.5201 74.008 40.1837 74.008 31.1647C74.008 22.1456 66.672 14.8093 57.6533 14.8093C55.7012 14.8093 53.7608 15.1607 51.9415 15.8361C51.9493 15.6487 51.9532 15.4613 51.9532 15.2739C51.9454 6.85607 45.0896 0 36.6605 0C28.2353 0 21.3795 6.85607 21.3795 15.2817C21.3795 15.3559 21.3795 15.4301 21.3795 15.5042C19.8569 15.0435 18.2757 14.8132 16.6593 14.8132C7.64066 14.8132 0.304688 22.1495 0.304688 31.1686C0.304687 40.1877 7.64066 47.524 16.6593 47.524Z" fill="white"/>
<path d="M38.6241 30.3525C35.614 29.107 35.614 28.6736 35.614 28.3573C35.614 27.6233 36.5822 27.514 37.16 27.514C38.9169 27.514 39.9906 28.127 40.5098 28.4237C41.0642 28.74 41.724 28.7985 42.3253 28.5838C42.9265 28.3691 43.3989 27.9005 43.6254 27.3071L44.5038 24.9879C44.9098 23.9142 44.6014 22.8483 43.7308 22.3368C42.8016 21.7902 41.6108 21.3451 40.3966 21.0718V19.5764C40.3966 18.2802 39.1082 17.5774 37.8979 17.5774H35.7233C34.5403 17.5774 33.7751 18.3622 33.7751 19.5764V21.4232C30.3589 22.5555 28.3522 25.2456 28.3522 28.7829C28.3522 30.903 29.0627 32.6131 30.519 34.0148C31.6512 35.1041 33.2168 36.0177 35.4227 36.8845C38.0189 37.9387 38.0189 38.661 38.0189 39.0475C38.0189 39.9807 36.9336 40.3125 36.0083 40.3125C34.6496 40.3125 33.2441 39.8948 32.1509 39.1685C31.5965 38.8015 30.8899 38.7039 30.2574 38.9148C29.6171 39.1256 29.1174 39.6136 28.8909 40.2461L28.0476 42.6005C27.6963 43.5766 27.9656 44.5605 28.7309 45.1071C29.8826 45.927 31.5926 46.5127 33.0919 46.8172V48.4297C33.0919 49.4409 34.0015 50.5381 35.4734 50.5381H37.6871C38.9208 50.5381 39.8851 49.6127 39.8851 48.4297V46.4541C43.2818 45.232 45.4252 42.3194 45.4252 38.8015C45.433 36.3613 44.7263 32.8396 38.6241 30.3525ZM38.3078 44.2676C37.7417 44.4082 37.3435 44.9197 37.3435 45.5053V47.9846H35.6452V45.7318C35.6452 45.0837 35.1611 44.5409 34.5169 44.4668C33.3183 44.3301 31.6005 43.8616 30.5307 43.233L31.1398 41.5346C32.5726 42.3818 34.3217 42.8582 36.0122 42.8582C38.6983 42.8582 40.5723 41.2886 40.5723 39.0436C40.5723 37.0602 39.319 35.7093 36.3714 34.5106C34.47 33.7649 33.1738 33.0231 32.2876 32.1719C31.3428 31.2661 30.9055 30.1885 30.9055 28.779C30.9055 26.1045 32.4789 24.2773 35.3368 23.6253C35.9185 23.4925 36.3284 22.9771 36.3284 22.3837V20.1191H37.8589V22.1299C37.8589 22.7702 38.3352 23.3129 38.9677 23.3949C39.8149 23.5042 41.0174 23.797 42.0403 24.3085L41.4 25.9952C40.6347 25.5892 39.198 24.9606 37.1678 24.9606C34.3373 24.9606 33.0723 26.6668 33.0723 28.3534C33.0723 29.9777 33.7829 31.0982 37.6598 32.7029C37.6637 32.7029 37.6637 32.7029 37.6676 32.7068C42.8914 34.8386 42.8914 37.5092 42.8914 38.7937C42.8836 41.4682 41.1306 43.5649 38.3078 44.2676Z" fill="white"/>
<path d="M55.467 56.4182C55.1195 55.3914 54.815 54.3255 54.569 53.2479C54.4129 52.5607 53.7296 52.1351 53.0425 52.2913C52.3554 52.4475 51.9298 53.1307 52.086 53.8179C52.3515 54.9775 52.6794 56.1293 53.0542 57.2381C53.2338 57.7691 53.7296 58.101 54.2606 58.101C54.3973 58.101 54.5339 58.0776 54.6705 58.0346C55.3382 57.8082 55.6934 57.0859 55.467 56.4182Z" fill="white"/>
<path d="M52.5387 45.8879C52.5309 45.8879 52.5231 45.8879 52.5153 45.8879C51.8203 45.8879 51.2542 46.4463 51.2425 47.1412C51.2425 47.1647 51.2347 47.6996 51.2972 48.5976C51.344 49.2691 51.9023 49.7845 52.566 49.7845C52.5933 49.7845 52.6246 49.7845 52.6558 49.7806C53.3586 49.7337 53.8895 49.1247 53.8388 48.4219C53.7841 47.6488 53.7919 47.192 53.7919 47.1803C53.8036 46.4814 53.2414 45.8997 52.5387 45.8879Z" fill="white"/>
<path d="M36.7464 57.0741C37.4492 57.0741 38.0192 56.5041 38.0192 55.8013V55.6334C38.0192 54.9306 37.4492 54.3606 36.7464 54.3606C36.0436 54.3606 35.4736 54.9306 35.4736 55.6334V55.8013C35.4736 56.5041 36.0436 57.0741 36.7464 57.0741Z" fill="white"/>
<path d="M38.0188 73.5856V60.0453C38.0188 59.3425 37.4488 58.7725 36.746 58.7725C36.0433 58.7725 35.4733 59.3425 35.4733 60.0453V73.5856C33.9936 74.1127 32.9277 75.5222 32.9277 77.1815C32.9277 79.286 34.6417 81 36.746 81C38.8504 81 40.5643 79.286 40.5643 77.1815C40.5643 75.5222 39.4985 74.1127 38.0188 73.5856ZM36.746 78.4505C36.0472 78.4505 35.4772 77.8804 35.4772 77.1815C35.4772 76.4827 36.0472 75.9126 36.746 75.9126C37.4449 75.9126 38.0149 76.4827 38.0149 77.1815C38.0149 77.8804 37.4449 78.4505 36.746 78.4505Z" fill="white"/>
<path d="M69.5998 69.4781C68.4832 69.4781 67.4759 69.9623 66.777 70.7314C62.5957 68.2365 59.3279 64.7187 57.0712 60.256C56.755 59.6274 55.9859 59.3775 55.3612 59.6938C54.7326 60.01 54.4828 60.7792 54.799 61.4039C57.3328 66.4171 61.034 70.3527 65.7893 73.1092C65.7854 73.1717 65.7815 73.2341 65.7815 73.2966C65.7815 75.401 67.4954 77.1151 69.5998 77.1151C71.7041 77.1151 73.4181 75.401 73.4181 73.2966C73.4181 71.1921 71.7041 69.4781 69.5998 69.4781ZM69.5998 74.5655C68.9009 74.5655 68.3309 73.9955 68.3309 73.2966C68.3309 72.5977 68.9009 72.0277 69.5998 72.0277C70.2986 72.0277 70.8686 72.5977 70.8686 73.2966C70.8686 73.9955 70.2986 74.5655 69.5998 74.5655Z" fill="white"/>
<path d="M48.771 67.6822C46.4636 60.3694 46.0419 51.8422 46.038 51.7563C46.0068 51.0535 45.4095 50.5108 44.7067 50.5421C44.0039 50.5733 43.4613 51.1707 43.4925 51.8734C43.5081 52.2444 43.9376 60.873 46.366 68.5178C45.6359 69.1503 45.1713 70.0834 45.1713 71.122C45.1713 73.0234 46.7174 74.5695 48.6187 74.5695C50.52 74.5695 52.0661 73.0234 52.0661 71.122C52.0661 69.2713 50.602 67.7603 48.771 67.6822ZM48.6187 72.0239C48.1229 72.0239 47.7168 71.6217 47.7168 71.122C47.7168 70.6222 48.119 70.2201 48.6187 70.2201C49.1145 70.2201 49.5206 70.6222 49.5206 71.122C49.5206 71.6217 49.1145 72.0239 48.6187 72.0239Z" fill="white"/>
<path d="M18.0569 59.6938C17.4283 59.3775 16.6631 59.6274 16.3468 60.256C14.0902 64.7187 10.8263 68.2404 6.64103 70.7314C5.94218 69.9623 4.9388 69.4781 3.8183 69.4781C1.71394 69.4781 0 71.1921 0 73.2966C0 75.401 1.71394 77.1151 3.8183 77.1151C5.92265 77.1151 7.63659 75.401 7.63659 73.2966C7.63659 73.2341 7.62879 73.1717 7.62879 73.1092C12.3841 70.3566 16.0853 66.421 18.6191 61.4039C18.9353 60.7792 18.6815 60.01 18.0569 59.6938ZM3.8183 74.5655C3.11945 74.5655 2.54944 73.9955 2.54944 73.2966C2.54944 72.5977 3.11945 72.0277 3.8183 72.0277C4.51715 72.0277 5.08716 72.5977 5.08716 73.2966C5.08716 73.9955 4.51715 74.5655 3.8183 74.5655Z" fill="white"/>
<path d="M20.3756 52.2913C19.6884 52.1351 19.0052 52.5607 18.849 53.2479C18.6031 54.3255 18.2985 55.3914 17.9511 56.4182C17.7246 57.0859 18.0799 57.8082 18.7475 58.0346C18.8842 58.0815 19.0208 58.101 19.1575 58.101C19.6884 58.101 20.1843 57.7652 20.3638 57.2381C20.7426 56.1293 21.0666 54.9775 21.3321 53.8179C21.4922 53.1346 21.0627 52.4514 20.3756 52.2913Z" fill="white"/>
<path d="M20.762 49.7845C20.7933 49.7884 20.8206 49.7884 20.8518 49.7884C21.5155 49.7884 22.0738 49.273 22.1207 48.6015C22.1832 47.6996 22.1754 47.1647 22.1754 47.1451C22.1636 46.4502 21.5975 45.8918 20.9026 45.8918C20.8948 45.8918 20.8909 45.8918 20.8831 45.8918C20.1803 45.9036 19.6181 46.4814 19.6298 47.1842C19.6298 47.1881 19.6337 47.6449 19.583 48.4258C19.5283 49.1286 20.0593 49.7337 20.762 49.7845Z" fill="white"/>
<path d="M28.711 50.5421C28.0082 50.507 27.4109 51.0536 27.3796 51.7564C27.3757 51.8423 26.9502 60.3694 24.6467 67.6823C22.8156 67.7643 21.3516 69.2714 21.3516 71.1221C21.3516 73.0235 22.8976 74.5696 24.799 74.5696C26.7003 74.5696 28.2464 73.0235 28.2464 71.1221C28.2464 70.0835 27.7818 69.1503 27.0517 68.5178C29.4801 60.8731 29.9056 52.2444 29.9252 51.8735C29.9603 51.1707 29.4137 50.5773 28.711 50.5421ZM24.799 72.024C24.3031 72.024 23.8971 71.6218 23.8971 71.1221C23.8971 70.6223 24.2992 70.2201 24.799 70.2201C25.2948 70.2201 25.7008 70.6223 25.7008 71.1221C25.7008 71.6218 25.2948 72.024 24.799 72.024Z" fill="white"/>
</g>
<defs>
<clipPath id="clip0_547_4795">
<rect width="74" height="81" fill="white"/>
</clipPath>
</defs>
</svg>
