<svg width="80" height="62" viewBox="0 0 80 62" fill="none" xmlns="http://www.w3.org/2000/svg">
<path d="M5.68203 28.8588C6.37149 28.8588 6.93241 28.2989 6.93241 27.6019V4.07234C6.93241 3.21089 7.62966 2.50997 8.48661 2.50997H70.2771C71.134 2.50997 71.8313 3.21089 71.8313 4.07234V5.82267C71.8313 6.51575 72.3883 7.07961 73.0816 7.07961C73.7711 7.07961 74.332 6.51575 74.332 5.82267V4.07234C74.332 1.82472 72.5129 0 70.281 0H8.48661C6.25074 0 4.43555 1.82864 4.43555 4.07234V27.6019C4.43555 28.295 4.99257 28.8588 5.68203 28.8588Z" fill="white"/>
<path d="M73.0855 19.8918C72.3961 19.8918 71.8352 20.4518 71.8352 21.1488V39.3216H10.1577C9.46822 39.3216 8.9073 39.8816 8.9073 40.5747C8.9073 41.2677 9.46432 41.8316 10.1577 41.8316H71.8352V43.9774C71.8352 44.8389 71.1379 45.5398 70.281 45.5398H46.4809H32.2905H8.49051C7.63355 45.5398 6.9363 44.8389 6.9363 43.9774V41.2873C6.9363 40.5942 6.37928 40.0304 5.68592 40.0304C4.99646 40.0304 4.43555 40.5942 4.43555 41.2873V43.9774C4.43555 46.225 6.25463 48.0498 8.48661 48.0498H31.0402V54.1034C31.0402 56.8327 28.8315 59.0529 26.1165 59.0529H19.2336C18.5442 59.0529 17.9832 59.6168 17.9832 60.3099C17.9832 61.0029 18.5403 61.5668 19.2336 61.5668H26.0231C26.062 61.5707 26.0971 61.5785 26.136 61.5785H52.6043C52.6432 61.5785 52.6783 61.5707 52.7173 61.5668H59.4716C60.1611 61.5668 60.722 61.0069 60.722 60.3099C60.722 59.6129 60.1611 59.0529 59.4716 59.0529H52.651C49.936 59.0529 47.7274 56.8327 47.7274 54.1034V48.0498H70.281C72.5168 48.0498 74.332 46.2211 74.332 43.9774V21.1449C74.3359 20.4518 73.775 19.8918 73.0855 19.8918ZM47.1276 59.0686H31.6439C32.8164 57.749 33.5409 56.0104 33.5409 54.1074V48.0537H45.2306V54.1074C45.2306 56.0104 45.9512 57.7451 47.1276 59.0686Z" fill="white"/>
<path d="M75.9069 9.02612C73.6593 9.02612 71.8324 10.8626 71.8324 13.122C71.8324 13.6349 71.9298 14.1244 72.1051 14.5786L55.0633 27.708C54.3155 26.827 53.2053 26.2631 51.9666 26.2631C50.5838 26.2631 49.3607 26.9601 48.6245 28.0252L32.0813 20.0097C32.0852 19.9314 32.093 19.8531 32.093 19.7708C32.093 17.5115 30.2661 15.675 28.0186 15.675C25.771 15.675 23.9441 17.5115 23.9441 19.7708C23.9441 19.9901 23.9675 20.2055 23.9987 20.413L6.55572 31.2478C5.86626 30.7153 5.0093 30.3942 4.07444 30.3942C1.82688 30.3942 0 32.2306 0 34.49C0 36.7494 1.82688 38.5859 4.07444 38.5859C6.322 38.5859 8.14888 36.7494 8.14888 34.49C8.14888 34.0828 8.08655 33.6873 7.97749 33.3153L25.1361 22.6567C25.8723 23.4007 26.8929 23.8628 28.0186 23.8628C29.2884 23.8628 30.4258 23.2754 31.1737 22.3552L47.8922 30.4568C47.9467 32.6692 49.7502 34.4509 51.9627 34.4509C54.2103 34.4509 56.0372 32.6144 56.0372 30.355C56.0372 30.2767 56.0294 30.1984 56.0255 30.124L73.6671 16.5365C74.3098 16.9633 75.0811 17.2178 75.9108 17.2178C78.1583 17.2178 79.9852 15.3813 79.9852 13.122C79.9813 10.8626 78.1544 9.02612 75.9069 9.02612ZM4.07444 36.0759C3.2058 36.0759 2.49686 35.3632 2.49686 34.49C2.49686 33.6168 3.2058 32.9041 4.07444 32.9041C4.94308 32.9041 5.65202 33.6168 5.65202 34.49C5.65202 35.3632 4.94308 36.0759 4.07444 36.0759ZM28.0186 21.3567C27.1499 21.3567 26.441 20.644 26.441 19.7708C26.441 18.8976 27.1499 18.185 28.0186 18.185C28.8872 18.185 29.5962 18.8976 29.5962 19.7708C29.5962 20.644 28.8872 21.3567 28.0186 21.3567ZM51.9627 31.9409C51.0941 31.9409 50.3851 31.2282 50.3851 30.355C50.3851 29.4818 51.0941 28.7692 51.9627 28.7692C52.8314 28.7692 53.5403 29.4818 53.5403 30.355C53.5403 31.2321 52.8314 31.9409 51.9627 31.9409ZM75.9069 14.7039C75.0382 14.7039 74.3293 13.9912 74.3293 13.118C74.3293 12.2448 75.0382 11.5322 75.9069 11.5322C76.7755 11.5322 77.4844 12.2448 77.4844 13.118C77.4844 13.9952 76.7794 14.7039 75.9069 14.7039Z" fill="white"/>
</svg>
