<svg width="82" height="81" viewBox="0 0 82 81" fill="none" xmlns="http://www.w3.org/2000/svg">
<g clip-path="url(#clip0_547_4809)">
<path d="M45.662 34.4863H36.4722C35.7559 34.4863 35.1787 35.0629 35.1787 35.7695V44.8854C35.1787 45.596 35.76 46.1686 36.4722 46.1686H45.662C46.3784 46.1686 46.9556 45.592 46.9556 44.8854V35.7695C46.9556 35.0589 46.3743 34.4863 45.662 34.4863ZM44.3644 43.6023H37.7658V37.0526H44.3685V43.6023H44.3644Z" fill="white"/>
<path d="M78.5287 37.0526C77.0428 37.0526 75.778 37.9865 75.2826 39.29H53.2189V37.0648H59.7807C60.2106 37.0648 60.6117 36.8536 60.8532 36.5004L62.9245 33.4671H69.3799C69.8998 34.7218 71.1401 35.607 72.5892 35.607C74.5008 35.607 76.0604 34.064 76.0604 32.1637C76.0604 30.2633 74.5049 28.7203 72.5892 28.7203C71.1278 28.7203 69.8752 29.6218 69.3635 30.8968H62.2327C61.8029 30.8968 61.4018 31.1079 61.1602 31.4612L59.089 34.4944H53.2108V29.5568C53.2108 28.8462 52.6295 28.2737 51.9172 28.2737H51.602V26.4911L56.023 24.6679C56.3996 24.5136 56.682 24.1887 56.7803 23.7949L57.9919 18.9993C59.6416 18.7354 60.9064 17.3142 60.9064 15.6047C60.9064 13.7084 59.3509 12.1614 57.4352 12.1614C55.5195 12.1614 53.964 13.7044 53.964 15.6047C53.964 16.7782 54.5575 17.8137 55.4622 18.4349L54.4224 22.5442L49.8173 24.4446C49.3343 24.6435 49.0191 25.1105 49.0191 25.6302V28.2737H46.9478V22.7229L50.0056 20.6682C50.3617 20.4287 50.5746 20.0307 50.5746 19.6044V12.5065C51.8231 11.9827 52.6991 10.7605 52.6991 9.33522C52.6991 7.43894 51.1436 5.89187 49.2278 5.89187C47.3162 5.89187 45.7566 7.43488 45.7566 9.33522C45.7566 10.797 46.6817 12.0477 47.9834 12.5471V18.9222L44.9256 20.9768C44.5695 21.2164 44.3566 21.6143 44.3566 22.0407V28.2737H42.1134V6.63495C43.3865 6.12332 44.2911 4.88891 44.2911 3.44335C44.2911 1.54707 42.7356 0 40.8199 0C38.9082 0 37.3486 1.54301 37.3486 3.44335C37.3486 4.88891 38.2492 6.12332 39.5264 6.63495V28.2737H37.2831V22.0407C37.2831 21.6143 37.0703 21.2164 36.7142 20.9768L33.6563 18.9222V12.5471C34.9622 12.0517 35.8955 10.8011 35.8955 9.33116C35.8955 7.43488 34.34 5.88781 32.4242 5.88781C30.5126 5.88781 28.953 7.43082 28.953 9.33116C28.953 10.7524 29.8249 11.9746 31.0693 12.4984V19.6003C31.0693 20.0267 31.2821 20.4246 31.6383 20.6642L34.6961 22.7188V28.2696H32.6248V25.6262C32.6248 25.1064 32.3096 24.6395 31.8266 24.4405L27.2092 22.5361L26.1735 18.4349C27.0823 17.8137 27.6799 16.7742 27.6799 15.6007C27.6799 13.7044 26.1244 12.1573 24.2087 12.1573C22.2929 12.1573 20.7374 13.7003 20.7374 15.6007C20.7374 17.3102 21.9982 18.7273 23.6479 18.9953L24.8595 23.7908C24.9578 24.1847 25.2402 24.5095 25.6168 24.6638L30.0377 26.487V28.2899C29.4033 28.3752 28.9161 28.9071 28.9161 29.5568V34.4985H22.9069L20.8357 31.4653C20.5941 31.112 20.193 30.9008 19.7632 30.9008H12.6324C12.1207 29.6299 10.8722 28.7244 9.40675 28.7244C7.49511 28.7244 5.9355 30.2674 5.9355 32.1677C5.9355 34.0681 7.49101 35.6111 9.40675 35.6111C10.8558 35.6111 12.1002 34.7259 12.616 33.4712H19.0755L21.1468 36.5044C21.3883 36.8577 21.7894 37.0688 22.2192 37.0688H28.912V39.294H6.71326C6.21795 37.9946 4.95307 37.0688 3.47125 37.0688C1.55551 37.0607 0 38.6078 0 40.5041C0 42.4003 1.55551 43.9474 3.47125 43.9474C4.89986 43.9474 6.13199 43.0866 6.66004 41.8562H28.912V44.0814H22.2192C21.7894 44.0814 21.3883 44.2926 21.1468 44.6458L19.0755 47.6791H12.6733C12.1944 46.3472 10.9131 45.393 9.40675 45.393C7.49511 45.393 5.9355 46.936 5.9355 48.8363C5.9355 50.7326 7.49101 52.2797 9.40675 52.2797C10.8108 52.2797 12.0225 51.4432 12.5669 50.2494H19.7591C20.1889 50.2494 20.5901 50.0382 20.8316 49.685L22.9029 46.6517H28.912V51.1021C28.912 51.7518 29.4033 52.2837 30.0336 52.369V54.513L25.6127 56.3281C25.2361 56.4824 24.9537 56.8072 24.8513 57.2011L23.6397 62.0047C21.9941 62.2727 20.7333 63.6898 20.7333 65.3993C20.7333 67.2956 22.2888 68.8427 24.2046 68.8427C26.1203 68.8427 27.6758 67.2997 27.6758 65.3993C27.6758 64.2218 27.0782 63.1863 26.1694 62.5651L27.2092 58.4558L31.8266 56.5595C32.3096 56.3605 32.6248 55.8936 32.6248 55.3738V52.3812H34.6961V58.2771L31.6383 60.3318C31.2821 60.5713 31.0693 60.9693 31.0693 61.3956V68.4975C29.829 69.0214 28.953 70.2436 28.953 71.6648C28.953 73.5611 30.5085 75.1081 32.4242 75.1081C34.3359 75.1081 35.8955 73.5651 35.8955 71.6648C35.8955 70.1989 34.9622 68.9442 33.6563 68.4488V62.0737L36.7142 60.0191C37.0703 59.7795 37.2831 59.3816 37.2831 58.9552V52.3812H39.5264V74.3691C38.2574 74.8807 37.3609 76.1152 37.3609 77.5566C37.3609 79.4529 38.9164 81 40.8322 81C42.7479 81 44.3034 79.457 44.3034 77.5566C44.3034 76.107 43.3947 74.8686 42.1175 74.361V52.3812H44.3607V58.9593C44.3607 59.3857 44.5736 59.7836 44.9297 60.0232L47.9875 62.0778V68.4569C46.6858 68.9523 45.7607 70.203 45.7607 71.6688C45.7607 73.5651 47.3162 75.1122 49.2319 75.1122C51.1436 75.1122 52.7032 73.5692 52.7032 71.6688C52.7032 70.2436 51.8272 69.0173 50.5787 68.4975V61.3956C50.5787 60.9693 50.3658 60.5713 50.0097 60.3318L46.9519 58.2771V52.3812H49.0232V55.3698C49.0232 55.8895 49.3384 56.3565 49.8214 56.5554L54.4388 58.4517L55.4785 62.5651C54.5739 63.1863 53.9762 64.2258 53.9762 65.3953C53.9762 67.2916 55.5317 68.8386 57.4475 68.8386C59.3632 68.8386 60.9187 67.2956 60.9187 65.3953C60.9187 63.6858 59.6539 62.2687 58.0083 62.0007L56.7925 57.197C56.6943 56.8031 56.4118 56.4783 56.0312 56.324L51.6102 54.5089V52.3812H51.9254C52.6418 52.3812 53.2189 51.8046 53.2189 51.0981V46.6477H59.0971L61.1684 49.6809C61.4099 50.0342 61.8111 50.2453 62.2409 50.2453H69.4331C69.9775 51.4391 71.1892 52.2756 72.5932 52.2756C74.5049 52.2756 76.0645 50.7326 76.0645 48.8323C76.0645 46.936 74.509 45.3889 72.5932 45.3889C71.0869 45.3889 69.8097 46.3472 69.3267 47.675H62.9245L60.8532 44.6418C60.6117 44.2885 60.2106 44.0774 59.7807 44.0774H53.2189V41.8522H75.344C75.8762 43.0744 77.1042 43.9312 78.5287 43.9312C80.4404 43.9312 82 42.3882 82 40.4878C82 38.5956 80.4445 37.0526 78.5287 37.0526ZM72.5932 31.2907C73.0804 31.2907 73.4733 31.6845 73.4733 32.1637C73.4733 32.6469 73.0763 33.0367 72.5932 33.0367C72.1061 33.0367 71.7132 32.6428 71.7132 32.1637C71.7091 31.6845 72.1061 31.2907 72.5932 31.2907ZM57.4475 14.7276C57.9346 14.7276 58.3276 15.1215 58.3276 15.6007C58.3276 16.0839 57.9305 16.4737 57.4475 16.4737C56.9645 16.4737 56.5674 16.0798 56.5674 15.6007C56.5674 15.1215 56.9604 14.7276 57.4475 14.7276ZM49.2278 8.45814C49.715 8.45814 50.1079 8.85202 50.1079 9.33116C50.1079 9.81437 49.7109 10.2042 49.2278 10.2042C48.7407 10.2042 48.3477 9.81031 48.3477 9.33116C48.3477 8.85202 48.7407 8.45814 49.2278 8.45814ZM40.824 2.56627C41.3111 2.56627 41.7041 2.96015 41.7041 3.43929C41.7041 3.86159 41.4053 4.2108 41.0041 4.29607C40.9427 4.28795 40.8854 4.27983 40.824 4.27983C40.7626 4.27983 40.7012 4.28795 40.6439 4.29607C40.2468 4.2108 39.9439 3.86159 39.9439 3.43929C39.9398 2.96015 40.3369 2.56627 40.824 2.56627ZM32.4283 8.45814C32.9154 8.45814 33.3084 8.85202 33.3084 9.33116C33.3084 9.81437 32.9113 10.2042 32.4283 10.2042C31.9412 10.2042 31.5482 9.81031 31.5482 9.33116C31.5441 8.85202 31.9412 8.45814 32.4283 8.45814ZM24.2087 14.7276C24.6958 14.7276 25.0888 15.1215 25.0888 15.6007C25.0888 16.0839 24.6917 16.4737 24.2087 16.4737C23.7215 16.4737 23.3286 16.0798 23.3286 15.6007C23.3286 15.1215 23.7215 14.7276 24.2087 14.7276ZM9.40675 33.0408C8.91963 33.0408 8.52666 32.6469 8.52666 32.1677C8.52666 31.6845 8.92372 31.2947 9.40675 31.2947C9.8734 31.2947 10.25 31.6561 10.2827 32.1109C10.2827 32.1353 10.2746 32.1596 10.2746 32.188C10.2746 32.2083 10.2787 32.2286 10.2787 32.2489C10.2418 32.6875 9.86931 33.0408 9.40675 33.0408ZM3.47125 41.3811C2.98413 41.3811 2.59115 40.9873 2.59115 40.5081C2.59115 40.0249 2.98822 39.6351 3.47125 39.6351C3.85194 39.6351 4.17123 39.8747 4.29812 40.2117C4.26128 40.3295 4.23672 40.4513 4.23672 40.5772C4.23672 40.6787 4.25309 40.7761 4.27356 40.8695C4.13438 41.1659 3.82738 41.3811 3.47125 41.3811ZM9.40675 49.7053C8.91963 49.7053 8.52666 49.3114 8.52666 48.8323C8.52666 48.3491 8.92372 47.9592 9.40675 47.9592C9.88978 47.9592 10.2868 48.3491 10.2868 48.8323C10.2827 48.8769 10.2746 48.9175 10.2746 48.9663V48.9703C10.2132 49.3845 9.84884 49.7053 9.40675 49.7053ZM24.2087 66.2724C23.7215 66.2724 23.3286 65.8785 23.3286 65.3993C23.3286 64.9161 23.7256 64.5263 24.2087 64.5263C24.6958 64.5263 25.0888 64.9202 25.0888 65.3993C25.0888 65.8785 24.6958 66.2724 24.2087 66.2724ZM32.4283 72.5419C31.9412 72.5419 31.5482 72.148 31.5482 71.6688C31.5482 71.1856 31.9453 70.7958 32.4283 70.7958C32.9154 70.7958 33.3084 71.1897 33.3084 71.6688C33.3084 72.148 32.9154 72.5419 32.4283 72.5419ZM40.8322 78.4297C40.345 78.4297 39.9521 78.0358 39.9521 77.5566C39.9521 77.0978 40.3123 76.7242 40.7667 76.6877C40.7871 76.6877 40.8035 76.6917 40.824 76.6917C40.8485 76.6917 40.869 76.6877 40.8895 76.6836C41.3479 76.7121 41.7164 77.0897 41.7164 77.5526C41.7164 78.0399 41.3193 78.4297 40.8322 78.4297ZM49.2278 72.5419C48.7407 72.5419 48.3477 72.148 48.3477 71.6688C48.3477 71.1856 48.7448 70.7958 49.2278 70.7958C49.715 70.7958 50.1079 71.1897 50.1079 71.6688C50.1079 72.148 49.715 72.5419 49.2278 72.5419ZM57.4475 66.2724C56.9604 66.2724 56.5674 65.8785 56.5674 65.3993C56.5674 64.9161 56.9645 64.5263 57.4475 64.5263C57.9305 64.5263 58.3276 64.9202 58.3276 65.3993C58.3276 65.8785 57.9346 66.2724 57.4475 66.2724ZM72.5932 47.9592C73.0804 47.9592 73.4733 48.3531 73.4733 48.8323C73.4733 49.3155 73.0763 49.7053 72.5932 49.7053C72.1061 49.7053 71.7132 49.3114 71.7132 48.8323C71.7091 48.3491 72.1061 47.9592 72.5932 47.9592ZM31.5032 49.8149V30.8399H50.6319V49.8149H31.5032ZM78.5287 41.369C78.0416 41.369 77.6487 40.9751 77.6487 40.4959C77.6487 40.0127 78.0457 39.6229 78.5287 39.6229C79.0159 39.6229 79.4088 40.0168 79.4088 40.4959C79.4129 40.9791 79.0159 41.369 78.5287 41.369Z" fill="white"/>
</g>
<defs>
<clipPath id="clip0_547_4809">
<rect width="82" height="81" fill="white"/>
</clipPath>
</defs>
</svg>
