<svg width="77" height="62" viewBox="0 0 77 62" fill="none" xmlns="http://www.w3.org/2000/svg">
<path d="M57.2165 32.4902C59.004 32.4902 60.4578 31.0364 60.4578 29.2489C60.4578 27.4614 59.004 26.0076 57.2165 26.0076C55.8394 26.0076 54.6618 26.8745 54.1938 28.0905H50.051C49.4104 28.0905 48.8926 28.6083 48.8926 29.2489C48.8926 29.8895 49.4104 30.4073 50.051 30.4073H54.1938C54.6618 31.6233 55.8394 32.4902 57.2165 32.4902ZM57.2165 28.3244C57.7266 28.3244 58.1409 28.7387 58.1409 29.2489C58.1409 29.7591 57.7266 30.1733 57.2165 30.1733C56.7063 30.1733 56.292 29.7591 56.292 29.2489C56.292 28.7387 56.7063 28.3244 57.2165 28.3244Z" fill="#1E2235"/>
<path d="M48.3526 35.0216H44.3479C43.7073 35.0216 43.1895 35.5395 43.1895 36.1801C43.1895 36.8206 43.7073 37.3385 44.3479 37.3385H48.3526C48.8205 38.5545 49.9982 39.4214 51.3752 39.4214C53.1628 39.4214 54.6166 37.9676 54.6166 36.1801C54.6166 34.3925 53.1628 32.9387 51.3752 32.9387C49.9982 32.9387 48.8205 33.8056 48.3526 35.0216ZM52.3035 36.1801C52.3035 36.6902 51.8893 37.1045 51.3791 37.1045C50.8689 37.1045 50.4546 36.6902 50.4546 36.1801C50.4546 35.6699 50.8689 35.2556 51.3791 35.2556C51.8854 35.2556 52.3035 35.6699 52.3035 36.1801Z" fill="#1E2235"/>
<path d="M46.5192 43.376L48.4947 44.9219C48.7057 45.0868 48.9588 45.1674 49.2082 45.1674C49.5534 45.1674 49.8909 45.0139 50.1211 44.7224C50.5162 44.2199 50.428 43.4911 49.9216 43.096L47.6316 41.3046C47.4283 41.1435 47.1751 41.0591 46.9181 41.0591H37.6238V37.3383H40.5122C41.1528 37.3383 41.6706 36.8205 41.6706 36.1799C41.6706 35.5393 41.1528 35.0214 40.5122 35.0214H37.6238V30.4069H45.7098C46.3504 30.4069 46.8683 29.889 46.8683 29.2484C46.8683 28.6078 46.3504 28.09 45.7098 28.09H37.6238V27.8407C37.6238 27.2001 37.1059 26.6822 36.4653 26.6822C35.8247 26.6822 35.3069 27.2001 35.3069 27.8407V45.3323C35.3069 46.0957 34.7315 46.6902 33.9912 46.6902H28.0225C26.2465 46.6902 24.8004 45.2441 24.8004 43.4681C24.8004 41.6921 26.2465 40.2459 28.0225 40.2459C28.6631 40.2459 29.181 39.7281 29.181 39.0875C29.181 38.4469 28.6631 37.9291 28.0225 37.9291C24.9691 37.9291 22.4873 40.4109 22.4873 43.4642C22.4873 44.6649 22.8786 45.7773 23.5307 46.6864H9.69462C5.69378 46.6864 2.3834 43.4949 2.31819 39.5708C2.28367 37.6107 3.024 35.7656 4.39341 34.3693C5.75516 32.9846 7.56953 32.2212 9.5105 32.2059C9.94395 32.2634 12.4718 32.6969 13.5459 35.1826C12.2301 36.5558 11.7046 38.5121 12.2033 40.407C12.3414 40.9249 12.8094 41.2701 13.3234 41.2701C13.4193 41.2701 13.519 41.2586 13.6187 41.2318C14.2363 41.0706 14.6046 40.4377 14.4435 39.8163C14.1059 38.5275 14.5815 37.1849 15.6594 36.3947C16.6529 35.6659 17.9993 35.5738 19.0849 36.153C19.6488 36.4561 20.3507 36.2413 20.6499 35.6774C20.953 35.1135 20.7382 34.4115 20.1743 34.1123C18.7166 33.3337 16.9905 33.2646 15.4907 33.863C14.2747 31.431 12.1074 30.4759 10.7802 30.1115C11.2405 26.5595 14.2785 23.8015 17.9533 23.8015C18.5018 23.8015 19.058 23.8667 19.5989 23.9932C19.7677 24.0431 21.7547 24.6607 22.9822 26.6055C22.2802 27.2883 21.7585 28.159 21.4938 29.1602C21.3289 29.7778 21.6971 30.4107 22.3147 30.5756C22.4144 30.6025 22.5142 30.614 22.6101 30.614C23.1241 30.614 23.5921 30.2726 23.7263 29.7509C24.0677 28.4621 25.1456 27.5299 26.4728 27.3765C27.6965 27.2346 28.9124 27.8176 29.5684 28.8572C29.9098 29.398 30.6232 29.5591 31.1641 29.2177C31.705 28.8763 31.8661 28.1629 31.5247 27.622C30.3931 25.8345 28.3064 24.8333 26.2043 25.0788C25.7632 25.1287 25.3374 25.2322 24.9346 25.378C23.8337 23.6327 22.2955 22.6622 21.2675 22.1789C21.6281 21.1317 22.2226 20.1842 23.009 19.4055C23.3159 20.1382 23.7302 20.8248 24.2557 21.4309C24.4858 21.6955 24.808 21.8298 25.1303 21.8298C25.3988 21.8298 25.6673 21.7377 25.8859 21.5459C26.3692 21.1278 26.4229 20.3952 26.0048 19.9119C25.1878 18.9682 24.7352 17.7561 24.7352 16.5056C24.7352 13.6325 27.0712 11.2964 29.9443 11.2964C32.8481 11.2964 35.2992 13.6824 35.2992 16.5056C35.2992 17.1462 35.8171 17.664 36.4576 17.664C37.0982 17.664 37.6161 17.1462 37.6161 16.5056C37.6161 14.4994 36.8029 12.6045 35.3261 11.1737C33.8684 9.76209 31.9581 8.9834 29.9443 8.9834C25.7977 8.9834 22.4221 12.359 22.4221 16.5056C22.4221 16.6245 22.4336 16.7396 22.4375 16.8547C20.8264 18.0438 19.6411 19.674 19.0273 21.5498C18.6668 21.5076 18.3062 21.4884 17.9456 21.4884C13.0472 21.4884 8.99649 25.1939 8.45179 29.9466C6.28451 30.1921 4.28601 31.1625 2.73247 32.7391C0.933437 34.5918 -0.0408795 37.0315 0.00131533 39.613C0.0895409 44.7915 4.43561 49.0071 9.69462 49.0071H33.995C35.9973 49.0071 37.6238 47.3577 37.6238 45.3323V43.3722H46.5192V43.376Z" fill="#1E2235"/>
<path d="M70.4822 24.9256H68.0656C66.3395 24.9256 65.2616 23.8094 64.8281 22.7622C64.3947 21.715 64.3678 20.1653 65.5876 18.9455L67.2946 17.2347C69.5616 14.9677 69.5616 11.2737 67.2946 9.00668C65.0276 6.73966 61.3336 6.73966 59.0666 9.00668L57.3596 10.7136C56.1398 11.9335 54.5863 11.9066 53.5429 11.4732C52.4957 11.0397 51.3795 9.96181 51.3795 8.23566V5.81905C51.3795 2.61224 48.7711 0 45.5604 0C42.3498 0 39.7414 2.61608 39.7414 5.82672V8.24333C39.7414 9.33273 39.2849 10.2955 38.4602 10.9591C37.9615 11.3581 37.881 12.0869 38.2799 12.5856C38.6788 13.0842 39.4077 13.1648 39.9063 12.7659C41.2911 11.6534 42.0544 10.05 42.0544 8.24333V5.82672C42.0544 3.89343 43.6271 2.32455 45.5566 2.32455C47.4899 2.32455 49.0588 3.89727 49.0588 5.82672V8.24333C49.0588 10.6408 50.4359 12.7006 52.6492 13.6174C54.8625 14.5342 57.2944 14.0509 58.9899 12.3554L60.6969 10.6484C62.0624 9.28286 64.2834 9.28286 65.6528 10.6484C67.0184 12.014 67.0184 14.235 65.6528 15.6044L63.9459 17.3114C62.2504 19.0069 61.7671 21.435 62.6839 23.6521C63.6006 25.8693 65.6605 27.2425 68.0579 27.2425H70.4746C72.4079 27.2425 73.9767 28.8152 73.9767 30.7447C73.9767 32.678 72.404 34.2469 70.4746 34.2469H68.0579C65.6605 34.2469 63.6006 35.6239 62.6839 37.8372C61.7671 40.0544 62.2504 42.4825 63.9459 44.178L65.6528 45.885C67.0184 47.2505 67.0184 49.4715 65.6528 50.8409C64.2873 52.2065 62.0663 52.2065 60.6969 50.8409L58.9899 49.1301C57.2944 47.4347 54.8663 46.9513 52.6492 47.8681C50.4359 48.7849 49.0588 50.8448 49.0588 53.2422V55.6588C49.0588 57.5921 47.4861 59.161 45.5566 59.161C43.6233 59.161 42.0544 57.5883 42.0544 55.6588V53.2422C42.0544 51.5467 41.41 50.1121 40.1365 48.969C39.6608 48.5432 38.9282 48.5816 38.5024 49.0572C38.0766 49.5329 38.115 50.2655 38.5906 50.6913C39.3731 51.3933 39.7375 52.2027 39.7375 53.2422V55.6588C39.7375 58.8656 42.346 61.4779 45.5566 61.4779C48.7672 61.4779 51.3756 58.8695 51.3756 55.6588V53.2422C51.3756 51.516 52.4919 50.4382 53.5391 50.0047C54.5863 49.5712 56.136 49.5444 57.3558 50.7642L59.0628 52.475C61.3298 54.742 65.0238 54.742 67.2908 52.475C69.5578 50.208 69.5578 46.514 67.2908 44.247L65.58 42.5401C64.3601 41.3202 64.387 39.7667 64.8205 38.7233C65.2539 37.6761 66.3318 36.5599 68.0579 36.5599H70.4746C73.6814 36.5599 76.2936 33.9515 76.2936 30.7408C76.2974 27.5379 73.689 24.9256 70.4822 24.9256Z" fill="#1E2235"/>
<path d="M37.6225 22.1483V20.8556C37.6225 20.215 37.1047 19.6971 36.4641 19.6971C35.8235 19.6971 35.3057 20.215 35.3057 20.8556V23.744C35.3057 24.3846 35.8235 24.9024 36.4641 24.9024C36.8285 24.9024 37.1507 24.7298 37.3655 24.4652H45.1256C45.3058 24.4652 45.4823 24.423 45.6434 24.3424L49.79 22.271C50.1467 22.4053 50.5342 22.4858 50.9369 22.4858C52.7245 22.4858 54.1783 21.032 54.1783 19.2445C54.1783 17.457 52.7245 16.0032 50.9369 16.0032C49.1494 16.0032 47.6956 17.457 47.6956 19.2445C47.6956 19.724 47.803 20.1728 47.9871 20.5832L44.8494 22.1521H37.6225V22.1483ZM50.9369 18.3162C51.4471 18.3162 51.8614 18.7305 51.8614 19.2407C51.8614 19.7508 51.4471 20.1651 50.9369 20.1651C50.4268 20.1651 50.0125 19.7508 50.0125 19.2407C50.0125 18.7305 50.4268 18.3162 50.9369 18.3162Z" fill="#1E2235"/>
</svg>
