<svg width="55" height="32" viewBox="0 0 55 32" fill="none" xmlns="http://www.w3.org/2000/svg">
<path d="M17.5396 31.9999C7.22277 31.8791 -0.328633 24.6723 0.0110161 15.9014C0.271542 9.14963 3.60242 4.08625 10.0924 1.43568C16.4338 -1.15174 22.48 -0.223017 27.8449 4.06953C29.4003 5.31402 29.5007 7.00429 28.1594 8.31007C27.4261 9.02333 26.4284 9.21278 25.3824 8.68527C24.6105 8.29707 23.9158 7.76212 23.1998 7.27547C16.621 2.82319 7.16681 6.42848 5.65189 13.9678C4.78154 18.3068 6.88698 22.9263 10.7563 25.1608C14.9922 27.6089 19.9596 27.36 23.6822 24.5014C24.184 24.1169 24.6336 23.673 25.1122 23.2606C26.4322 22.1239 27.8565 22.0923 29.0086 23.1733C30.2051 24.2952 30.2591 25.601 29.0568 26.8993C25.7626 30.4638 21.49 31.868 17.5396 31.9999Z" fill="#050B0B"/>
<path d="M37.8887 23.8623C39.4094 22.4284 40.7564 21.1616 42.0996 19.8911C44.5833 17.5415 47.0515 15.1751 49.5583 12.8477C50.1585 12.2905 50.8282 11.7574 51.5634 11.3952C52.6499 10.8621 53.9506 11.2819 54.6164 12.2218C55.1934 13.0372 55.1047 13.9975 54.2073 14.8779C52.3585 16.6889 50.4499 18.4423 48.5761 20.2273C47.5996 21.1561 47.6092 21.5461 48.5683 22.4934C50.3843 24.2858 52.1983 26.082 54.0143 27.8726C55.205 29.0465 55.3131 30.0235 54.354 31.0246C53.418 32.0017 51.6561 32.0648 50.614 31.0878C49.209 29.7709 47.8562 28.4019 46.4861 27.0516C46.0364 26.6095 45.6119 26.1433 45.1564 25.7086C44.2996 24.8914 43.6762 24.8802 42.804 25.6975C41.0092 27.3766 39.2608 29.1022 37.4275 30.7405C36.9083 31.2048 36.1962 31.6097 35.5112 31.736C33.7705 32.0555 32.5354 30.9875 32.5006 29.1765C32.4485 26.5408 32.4852 23.9032 32.4852 21.2656C32.4852 20.7121 32.4987 20.1586 32.4871 19.6051C32.4717 18.8268 32.8673 18.4739 33.6624 18.4795C34.6099 18.4888 35.5575 18.4851 36.5031 18.4813C37.3136 18.4776 37.659 18.8565 37.6301 19.6367C37.5973 20.5468 37.5973 21.4607 37.632 22.3708C37.6455 22.798 37.7729 23.2215 37.8887 23.8623Z" fill="#050B0B"/>
<path d="M22.2695 15.9497C22.2657 14.0179 23.2846 12.4893 25.0427 11.7871C26.8316 11.072 28.9429 11.4417 30.2995 12.7679C31.4227 13.8656 32.5324 14.9597 34.1708 15.3181C35.8362 15.6822 37.2971 15.1361 38.7116 14.3727C39.1825 14.1201 39.6457 13.8322 40.1494 13.6632C41.2301 13.301 42.3629 13.8062 42.9631 14.8519C43.5362 15.8512 43.2911 16.8877 42.2818 17.7235C41.3729 18.4776 40.3385 18.5538 39.4315 17.8015C37.4611 16.167 35.1859 16.2097 32.9202 16.8097C32.1078 17.0251 31.3378 17.7885 30.8013 18.4832C29.4967 20.1679 27.646 20.8663 25.5618 20.2534C23.5104 19.6478 22.2734 18.0319 22.2695 15.9497Z" fill="#050B0B"/>
<path d="M37.6196 7.20667C37.6196 8.73349 37.5983 10.2622 37.6292 11.789C37.6447 12.5357 37.3397 12.8663 36.5582 12.8459C35.5797 12.8217 34.5994 12.831 33.621 12.8421C32.8838 12.8496 32.4843 12.5672 32.4882 11.8076C32.5017 8.85051 32.4515 5.8916 32.5171 2.93456C32.5576 1.10126 33.7445 0.179969 35.5643 0.38986C36.8303 0.536598 37.5829 1.287 37.6099 2.52592C37.6447 4.08617 37.6176 5.64642 37.6176 7.20667C37.6176 7.20667 37.6176 7.20667 37.6196 7.20667Z" fill="#050B0B"/>
<path d="M36.0121 13.6594H34.034C33.1791 13.6594 32.4844 12.9926 32.4844 12.1679V11.3376C32.4844 10.5147 33.1772 9.84607 34.034 9.84607H36.0121C36.867 9.84607 37.5617 10.5129 37.5617 11.3376V12.1679C37.5617 12.9907 36.867 13.6594 36.0121 13.6594Z" fill="#050B0B"/>
<path d="M36.1568 21.5164H33.9259C33.1289 21.5164 32.4824 20.8942 32.4824 20.127V19.3878C32.4824 18.6207 33.1289 17.9984 33.9259 17.9984H36.1549C36.9519 17.9984 37.5984 18.6207 37.5984 19.3878V20.127C37.6003 20.8942 36.9538 21.5164 36.1568 21.5164Z" fill="#050B0B"/>
</svg>
