<svg width="50" height="28" viewBox="0 0 50 28" fill="none" xmlns="http://www.w3.org/2000/svg">
<path d="M16.2604 27.6755C7.21988 27.5723 0.602646 21.4137 0.900278 13.9186C1.12858 8.14886 4.0474 3.82197 9.73453 1.55693C15.2915 -0.654135 20.5896 0.1395 25.2909 3.80768C26.6539 4.87115 26.7418 6.31557 25.5665 7.43142C24.9239 8.04093 24.0496 8.20283 23.133 7.75204C22.4566 7.42031 21.8478 6.96317 21.2204 6.54731C15.4555 2.74262 7.17084 5.82351 5.84333 12.2662C5.08065 15.9741 6.92563 19.9216 10.3163 21.8311C14.0282 23.9231 18.3811 23.7105 21.6432 21.2676C22.0829 20.9391 22.4769 20.5597 22.8963 20.2073C24.053 19.2359 25.301 19.209 26.3106 20.1327C27.3591 21.0915 27.4064 22.2073 26.3529 23.3168C23.4662 26.3628 19.7221 27.5628 16.2604 27.6755Z" fill="white"/>
<path d="M34.0917 20.7216C35.4243 19.4962 36.6047 18.4137 37.7817 17.328C39.9581 15.3201 42.121 13.2979 44.3178 11.309C44.8437 10.8329 45.4305 10.3773 46.0748 10.0678C47.0269 9.61225 48.1667 9.97098 48.7501 10.7741C49.2557 11.4709 49.1779 12.2916 48.3916 13.0439C46.7715 14.5915 45.099 16.0899 43.457 17.6153C42.6013 18.4089 42.6098 18.7422 43.4502 19.5517C45.0415 21.0835 46.6312 22.6183 48.2225 24.1485C49.2659 25.1516 49.3606 25.9865 48.5201 26.8421C47.6999 27.677 46.156 27.7309 45.2428 26.896C44.0117 25.7707 42.8262 24.6008 41.6255 23.4469C41.2315 23.0691 40.8595 22.6707 40.4604 22.2993C39.7095 21.6009 39.1633 21.5914 38.3989 22.2898C36.8262 23.7247 35.2941 25.1992 33.6876 26.5992C33.2327 26.996 32.6087 27.3421 32.0083 27.45C30.483 27.723 29.4007 26.8103 29.3702 25.2627C29.3246 23.0104 29.3567 20.7565 29.3567 18.5026C29.3567 18.0295 29.3685 17.5565 29.3584 17.0835C29.3448 16.4185 29.6915 16.1169 30.3883 16.1216C31.2186 16.1296 32.0489 16.1264 32.8775 16.1232C33.5878 16.1201 33.8905 16.4439 33.8651 17.1105C33.8364 17.8883 33.8364 18.6692 33.8668 19.447C33.8787 19.812 33.9903 20.1739 34.0917 20.7216Z" fill="white"/>
<path d="M20.4043 13.9599C20.4009 12.3092 21.2938 11.0029 22.8344 10.4029C24.402 9.79177 26.2521 10.1076 27.4409 11.2409C28.4251 12.179 29.3975 13.1139 30.8333 13.4203C32.2927 13.7314 33.5728 13.2647 34.8124 12.6123C35.225 12.3965 35.6309 12.1505 36.0723 12.006C37.0193 11.6965 38.0119 12.1282 38.5379 13.0219C39.0401 13.8758 38.8253 14.7615 37.9409 15.4758C37.1444 16.1202 36.238 16.1853 35.4432 15.5424C33.7166 14.1457 31.7228 14.1822 29.7374 14.6948C29.0255 14.879 28.3507 15.5313 27.8806 16.125C26.7374 17.5646 25.1157 18.1614 23.2893 17.6376C21.4917 17.1202 20.4077 15.7393 20.4043 13.9599Z" fill="white"/>
<path d="M33.8552 6.48858C33.8552 7.79331 33.8366 9.09963 33.8636 10.4044C33.8771 11.0425 33.61 11.325 32.9251 11.3075C32.0677 11.2869 31.2086 11.2948 30.3512 11.3044C29.7052 11.3107 29.3552 11.0694 29.3586 10.4202C29.3704 7.89331 29.3264 5.36479 29.3839 2.83786C29.4194 1.27122 30.4594 0.483934 32.0541 0.663296C33.1635 0.78869 33.823 1.42995 33.8467 2.48866C33.8771 3.82196 33.8535 5.15527 33.8535 6.48858C33.8535 6.48858 33.8535 6.48858 33.8552 6.48858Z" fill="white"/>
<path d="M32.4468 12.0023H30.7134C29.9643 12.0023 29.3555 11.4325 29.3555 10.7277V10.0182C29.3555 9.31507 29.9626 8.74365 30.7134 8.74365H32.4468C33.1959 8.74365 33.8047 9.31348 33.8047 10.0182V10.7277C33.8047 11.4309 33.1959 12.0023 32.4468 12.0023Z" fill="white"/>
<path d="M32.5733 18.7167H30.6185C29.92 18.7167 29.3535 18.185 29.3535 17.5295V16.8977C29.3535 16.2422 29.92 15.7104 30.6185 15.7104H32.5717C33.2701 15.7104 33.8366 16.2422 33.8366 16.8977V17.5295C33.8383 18.185 33.2718 18.7167 32.5733 18.7167Z" fill="white"/>
</svg>
