<svg width="52" height="50" viewBox="0 0 52 50" fill="none" xmlns="http://www.w3.org/2000/svg">
<path d="M19.6555 27.4633C19.6555 30.3596 22.0357 32.7169 24.96 32.7169C27.8842 32.7169 30.2644 30.3596 30.2644 27.4633C30.2644 24.5671 27.8842 22.2097 24.96 22.2097C22.0331 22.2097 19.6555 24.5671 19.6555 27.4633ZM28.6733 27.4633C28.6733 29.4912 27.0075 31.1437 24.9574 31.1437C22.9099 31.1437 21.2414 29.4938 21.2414 27.4633C21.2414 25.4354 22.9073 23.783 24.9574 23.783C27.0075 23.783 28.6733 25.4329 28.6733 27.4633Z" fill="#1E2235"/>
<path d="M32.2062 40.8924C32.6369 40.8081 32.9154 40.3918 32.8303 39.9678C32.0876 36.29 28.7997 33.6211 25.0141 33.6211C23.1987 33.6211 21.4194 34.2443 20.0063 35.3757C18.5931 36.5071 17.6055 38.0983 17.2212 39.858C17.1284 40.282 17.4017 40.7008 17.8298 40.7928C18.2579 40.8847 18.6808 40.614 18.7736 40.19C19.4028 37.2963 22.0254 35.1969 25.0141 35.1969C28.0467 35.1969 30.6796 37.3346 31.2727 40.2794C31.3475 40.6523 31.6801 40.9128 32.0515 40.9128C32.1031 40.9077 32.1546 40.9026 32.2062 40.8924Z" fill="#1E2235"/>
<path d="M35.342 30.8652C35.342 33.7614 37.7222 36.1188 40.6465 36.1188C43.5708 36.1188 45.9509 33.7614 45.9509 30.8652C45.9509 27.9689 43.5708 25.6116 40.6465 25.6116C37.7196 25.6116 35.342 27.9689 35.342 30.8652ZM44.3598 30.8652C44.3598 32.8931 42.694 34.5455 40.6439 34.5455C38.5964 34.5455 36.928 32.8956 36.928 30.8652C36.928 28.8347 38.5938 27.1848 40.6439 27.1848C42.694 27.1848 44.3598 28.8347 44.3598 30.8652Z" fill="#1E2235"/>
<path d="M48.5167 43.3697C47.774 39.6919 44.4861 37.0229 40.7005 37.0229C38.8851 37.0229 37.1058 37.6461 35.6927 38.775C34.2795 39.9064 33.2919 41.4976 32.9076 43.2573L31.6647 49.0473C31.5744 49.4712 31.8478 49.8901 32.2758 49.9795C32.3326 49.9922 32.3867 49.9974 32.4409 49.9974C32.8071 49.9974 33.1371 49.7445 33.2171 49.3742L34.46 43.5868C35.0892 40.6931 37.7118 38.5937 40.7005 38.5937C43.7331 38.5937 46.366 40.7314 46.9591 43.6736L48.0912 49.3614C48.1763 49.7879 48.594 50.0663 49.0247 49.982C49.4553 49.8977 49.7338 49.484 49.6513 49.0575L48.5167 43.3697Z" fill="#1E2235"/>
<path d="M9.49023 36.1164C12.4145 36.1164 14.7947 33.759 14.7947 30.8627C14.7947 27.9665 12.4145 25.6091 9.49023 25.6091C6.56595 25.6091 4.18579 27.9665 4.18579 30.8627C4.18579 33.759 6.56595 36.1164 9.49023 36.1164ZM9.49023 27.185C11.5377 27.185 13.2062 28.8349 13.2062 30.8653C13.2062 32.8957 11.5403 34.5456 9.49023 34.5456C7.44272 34.5456 5.77429 32.8957 5.77429 30.8653C5.77429 28.8349 7.44272 27.185 9.49023 27.185Z" fill="#1E2235"/>
<path d="M17.3631 43.3697C16.6204 39.6919 13.3325 37.0229 9.54698 37.0229C7.73155 37.0229 5.95223 37.6461 4.53909 38.775C3.12595 39.9064 2.1383 41.4976 1.75407 43.2573L0.511122 49.0473C0.420866 49.4712 0.694211 49.8901 1.12228 49.9795C1.17901 49.9922 1.23316 49.9974 1.28732 49.9974C1.6535 49.9974 1.98357 49.7445 2.06351 49.3742L3.30646 43.5868C3.93567 40.6931 6.55823 38.5937 9.54698 38.5937C12.5796 38.5937 15.2124 40.7314 15.8055 43.6736L16.9376 49.3614C17.0227 49.7879 17.4405 50.0663 17.8711 49.982C18.3018 49.8977 18.5803 49.484 18.4952 49.0575L17.3631 43.3697Z" fill="#1E2235"/>
<path d="M51.2062 0H0.794736C0.356352 0 0.000488281 0.352454 0.000488281 0.786637V30.5563C0.000488281 30.9904 0.356352 31.3429 0.794736 31.3429C1.23312 31.3429 1.58898 30.9904 1.58898 30.5563V1.57327H50.412V30.5563C50.412 30.9904 50.7679 31.3429 51.2062 31.3429C51.6446 31.3429 52.0005 30.9904 52.0005 30.5563V0.786637C52.0005 0.352454 51.6446 0 51.2062 0Z" fill="#1E2235"/>
<path d="M5.48297 6.30326H9.61924C10.0576 6.30326 10.4135 5.9508 10.4135 5.51662C10.4135 5.08243 10.0576 4.72998 9.61924 4.72998H5.48297C5.04458 4.72998 4.68872 5.08243 4.68872 5.51662C4.68872 5.9508 5.04458 6.30326 5.48297 6.30326Z" fill="#1E2235"/>
<path d="M5.48297 9.88651H15.1351C15.5735 9.88651 15.9294 9.53405 15.9294 9.09987C15.9294 8.66569 15.5735 8.31323 15.1351 8.31323H5.48297C5.04458 8.31323 4.68872 8.66569 4.68872 9.09987C4.68872 9.53661 5.04458 9.88651 5.48297 9.88651Z" fill="#1E2235"/>
<path d="M5.48297 13.4724H11.8602C12.2985 13.4724 12.6544 13.12 12.6544 12.6858C12.6544 12.2516 12.2985 11.8992 11.8602 11.8992H5.48297C5.04458 11.8992 4.68872 12.2516 4.68872 12.6858C4.68872 13.12 5.04458 13.4724 5.48297 13.4724Z" fill="#1E2235"/>
<path d="M46.3479 6.08631C46.0384 5.77982 45.5356 5.77982 45.2261 6.08631L37.0438 14.2004L33.1422 11.3578C32.8456 11.1433 32.4408 11.156 32.1597 11.391L25.6433 16.8234L20.8159 13.3091C20.5142 13.0894 20.0964 13.1099 19.8153 13.3576L9.79184 22.2328C9.46434 22.5214 9.43597 23.0194 9.72995 23.3438C9.88725 23.5175 10.1039 23.6069 10.3231 23.6069C10.5113 23.6069 10.6995 23.5405 10.8517 23.4077L20.3981 14.9564L25.21 18.458C25.5066 18.6725 25.9114 18.6597 26.1925 18.4248L32.7064 12.9924L36.6544 15.8682C36.9716 16.0981 37.41 16.0649 37.6859 15.7916L46.3479 7.19986C46.6573 6.89082 46.6573 6.39279 46.3479 6.08631Z" fill="#1E2235"/>
</svg>
