<svg width="78" height="84" viewBox="0 0 78 84" fill="none" xmlns="http://www.w3.org/2000/svg">
<g clip-path="url(#clip0_686_2144)">
<path d="M77.6013 81.6803L63.2698 67.3636C66.2711 63.9202 68.0965 59.4293 68.0965 54.5143C68.0965 52.7841 67.8715 51.0666 67.4258 49.4085C67.2305 48.6833 66.4833 48.255 65.7574 48.45C65.0315 48.6451 64.6027 49.3915 64.798 50.1166C65.1843 51.5415 65.3754 53.0215 65.3754 54.5143C65.3754 63.8184 57.7978 71.3881 48.484 71.3881C39.1702 71.3881 31.5926 63.8184 31.5926 54.5143C31.5926 45.2101 39.1702 37.6405 48.484 37.6405C53.8498 37.6405 58.8379 40.1595 62.026 44.4299L59.0968 46.2873C58.6468 46.0201 58.1289 45.8675 57.5686 45.8675C55.913 45.8675 54.5673 47.2118 54.5673 48.8699C54.5673 49.1074 54.597 49.3406 54.6522 49.5611L45.7756 57.0799C45.3978 56.906 44.9733 56.8085 44.5318 56.8085C43.8143 56.8085 43.1564 57.0629 42.6384 57.4828L36.2156 54.7814C35.5236 54.4888 34.7255 54.8154 34.4326 55.5066C34.1397 56.1978 34.4666 56.9951 35.1585 57.2877L41.539 59.9721C41.6239 61.5538 42.9314 62.8133 44.536 62.8133C46.1916 62.8133 47.5373 61.469 47.5373 59.8109C47.5373 59.6031 47.5161 59.4038 47.4779 59.2087L56.4139 51.6391C56.7705 51.7875 57.1653 51.8723 57.5771 51.8723C59.2327 51.8723 60.5826 50.528 60.5826 48.8699C60.5826 48.7723 60.5784 48.679 60.5699 48.5858L72.2312 41.1942C72.6812 41.4614 73.1991 41.6183 73.7595 41.6183C75.4151 41.6183 76.765 40.274 76.765 38.6158C76.765 36.962 75.4193 35.6134 73.7595 35.6134C72.1039 35.6134 70.7539 36.9577 70.7539 38.6158C70.7539 38.7134 70.7582 38.8067 70.7667 38.9L64.3353 42.9795C60.642 37.9246 54.7965 34.9307 48.4967 34.9307C38.1046 34.9307 29.5762 43.0516 28.9309 53.2717L19.2945 58.9246C18.8275 58.6235 18.2714 58.4496 17.6771 58.4496C16.0215 58.4496 14.6758 59.794 14.6758 61.4521C14.6758 63.1059 16.0215 64.4545 17.6771 64.4545C19.3327 64.4545 20.6826 63.1102 20.6826 61.4521C20.6826 61.3927 20.6784 61.3333 20.6741 61.2697L28.9776 56.3971C29.9243 66.3246 38.3169 74.1148 48.4967 74.1148C53.4168 74.1148 57.9124 72.2913 61.3595 69.2931L75.691 83.6098C75.9585 83.8769 76.3066 84.0084 76.6547 84.0084C77.0028 84.0084 77.3509 83.8769 77.6183 83.6098C78.132 83.0712 78.132 82.2103 77.6013 81.6803Z" fill="#1E2235"/>
<path d="M63.3801 77.499C62.6288 77.499 62.0175 78.1054 62.0175 78.8603V81.1757H9.33965V77.6813C9.33965 77.6729 9.3439 77.6644 9.3439 77.6601C9.3439 77.6517 9.33965 77.6432 9.33965 77.6389V8.42629H54.6946C54.6946 8.42629 54.6946 8.42629 54.6989 8.42629C54.6989 8.42629 54.6989 8.42629 54.7031 8.42629H62.0217V35.5117C62.0217 36.2623 62.6288 36.873 63.3844 36.873C64.1358 36.873 64.7471 36.2666 64.7471 35.5117V7.06926C64.7471 6.31866 64.1358 5.708 63.3844 5.708H56.0615V1.35703C56.0615 0.606422 55.4545 0 54.6989 0H1.36305C0.60742 0 0.000366211 0.606422 0.000366211 1.35703V77.6517C0.000366211 78.4023 0.60742 79.0129 1.36305 79.0129H6.62277V82.5327C6.62277 83.2833 7.23407 83.894 7.98545 83.894H63.3844C64.1358 83.894 64.7471 83.2876 64.7471 82.5327V78.856C64.7386 78.1054 64.1315 77.499 63.3801 77.499ZM2.72149 76.2946V2.7183H53.3362V5.708H7.98121C7.22982 5.708 6.61852 6.31866 6.61852 7.06926V76.2989H2.72149V76.2946Z" fill="#1E2235"/>
<path d="M55.2422 17.6711C55.2422 16.9205 54.6309 16.3098 53.8795 16.3098H18.6874C17.936 16.3098 17.3247 16.9162 17.3247 17.6711C17.3247 18.4217 17.936 19.0324 18.6874 19.0324H53.8838C54.6309 19.0281 55.2422 18.4217 55.2422 17.6711Z" fill="#1E2235"/>
<path d="M37.0985 24.1933C37.0985 23.4427 36.4872 22.832 35.7358 22.832H18.6874C17.936 22.832 17.3247 23.4427 17.3247 24.1933C17.3247 24.9439 17.936 25.5546 18.6874 25.5546H35.7401C36.4915 25.5546 37.0985 24.9439 37.0985 24.1933Z" fill="#1E2235"/>
<path d="M18.6874 29.719C17.936 29.719 17.3247 30.3254 17.3247 31.0803C17.3247 31.8309 17.936 32.4415 18.6874 32.4415H27.9375C28.6889 32.4415 29.3002 31.8351 29.3002 31.0803C29.3002 30.3297 28.6889 29.719 27.9375 29.719H18.6874Z" fill="#1E2235"/>
</g>
<defs>
<clipPath id="clip0_686_2144">
<rect width="78" height="84" fill="white" transform="translate(0.000366211)"/>
</clipPath>
</defs>
</svg>
