<svg width="48" height="53" viewBox="0 0 48 53" fill="none" xmlns="http://www.w3.org/2000/svg">
<path d="M32.8714 31.0922C27.2204 32.5355 23.7722 38.4047 25.1823 44.1805C25.8652 46.9761 27.5762 49.3334 29.9962 50.8168C31.6601 51.8378 33.5229 52.3589 35.4144 52.3589C36.2725 52.3589 37.1385 52.252 37.994 52.0329C40.7306 51.3353 43.0381 49.5873 44.4901 47.1151C45.9421 44.6428 46.3659 41.7403 45.6805 38.9446C44.2703 33.1743 38.5225 29.6516 32.8714 31.0922ZM43.2212 46.34C41.9733 48.4648 39.9876 49.9669 37.6356 50.5682C35.281 51.1696 32.84 50.7981 30.7575 49.5232C28.6776 48.2483 27.2073 46.2197 26.6186 43.817C25.4047 38.8538 28.3689 33.805 33.2298 32.5622C33.965 32.3751 34.7054 32.2842 35.4327 32.2842C39.5036 32.2842 43.216 35.1039 44.2468 39.3161C44.8328 41.7189 44.4692 44.2125 43.2212 46.34Z" fill="#1E2235"/>
<path d="M35.7749 40.4624C34.3386 40.2432 34.0455 40.0027 33.933 39.5457C33.8284 39.1207 34.0168 38.5888 34.8592 38.3724C35.6964 38.1585 36.3007 38.3323 36.5571 38.4044C36.6539 38.4338 36.7612 38.4151 36.8449 38.3563C36.9286 38.2975 36.9862 38.2067 36.9966 38.1024L37.1144 37.0734C37.1353 36.8997 37.0254 36.7393 36.8632 36.6912C36.306 36.5228 35.6833 36.4988 35.0842 36.587L34.8252 35.5286C34.7781 35.3388 34.6002 35.2319 34.4118 35.28L33.5458 35.5019C33.3601 35.55 33.2711 35.7237 33.3182 35.9135L33.6008 37.0708C32.3424 37.7336 31.7982 38.9203 32.1095 40.1898C32.4915 41.7533 33.865 42.1462 35.2987 42.336C36.6199 42.5257 36.8946 42.9427 36.9993 43.365C37.1536 43.9931 36.7219 44.5543 35.9318 44.7548C35.2909 44.9178 34.5766 44.8857 33.9723 44.6639C33.8703 44.6265 33.7578 44.6399 33.6688 44.6987C33.5772 44.7575 33.5197 44.8563 33.5092 44.9633L33.4072 46.0029C33.3915 46.1606 33.4621 46.3156 33.606 46.3744C34.1763 46.6043 34.9743 46.6684 35.7461 46.5428L36.0182 47.6547C36.0653 47.8444 36.2929 47.9513 36.4812 47.9032L37.3603 47.6787C37.5461 47.6306 37.6533 47.4408 37.6062 47.2484L37.3132 46.0457C38.569 45.3668 39.1812 44.0893 38.8594 42.777C38.6396 41.8843 38.0928 40.8018 35.7749 40.4624Z" fill="#1E2235"/>
<path d="M25.7865 49.4641H9.22054V45.7463H22.8276C23.2357 45.7463 23.5679 45.4069 23.5679 44.99C23.5679 44.573 23.2357 44.2336 22.8276 44.2336H9.22054V40.5987H22.3723C22.7805 40.5987 23.1127 40.2593 23.1127 39.8423C23.1127 39.4254 22.7805 39.0859 22.3723 39.0859H8.48014H6.71419V35.4511H8.48014H24.4208C24.829 35.4511 25.1612 35.1116 25.1612 34.6947C25.1612 34.2778 24.829 33.9383 24.4208 33.9383H16.6951V32.0113C16.6951 31.712 16.4596 31.4714 16.1666 31.4714C15.8736 31.4714 15.6382 31.712 15.6382 32.0113V33.941H9.22054V30.3462H10.2932V32.0166C10.2932 32.316 10.5287 32.5565 10.8217 32.5565C11.1147 32.5565 11.3501 32.316 11.3501 32.0166V30.3462H13.069V32.0166C13.069 32.316 13.3045 32.5565 13.5975 32.5565C13.8905 32.5565 14.126 32.316 14.126 32.0166V30.3462H29.4989C29.9071 30.3462 30.2393 30.0068 30.2393 29.5898C30.2393 29.1729 29.9071 28.8335 29.4989 28.8335H25.1508V17.6829C25.1508 16.5417 25.2894 15.4779 25.517 14.4997C25.831 14.5398 26.2287 14.5746 26.6813 14.5746C26.9298 14.5746 27.1967 14.5639 27.4714 14.5398C29.4806 14.3554 31.0922 13.4601 32.1283 11.9553C35.1265 7.60683 33.4652 0.852906 33.3945 0.566927C33.2951 0.171367 32.9027 -0.0718495 32.5128 0.0190225C32.3977 0.0457495 29.6559 0.697889 27.0371 2.26409C23.4031 4.437 21.802 7.31016 22.4011 10.5682C22.477 10.9798 22.8642 11.2497 23.2645 11.1722C23.6674 11.0947 23.9316 10.6992 23.8557 10.2902C23.377 7.68701 24.6903 5.43125 27.7592 3.58441C29.4126 2.59016 31.1603 1.98346 32.1152 1.69481C32.2355 2.36566 32.3899 3.42939 32.4239 4.65082C32.4762 6.51102 32.2591 9.13829 30.9169 11.084C30.1347 12.2199 28.9443 12.8747 27.3798 13.0297C26.833 13.0832 26.3333 13.0645 25.9409 13.0271C27.2307 9.29598 29.6507 7.1204 29.6847 7.09367C29.996 6.82106 30.0327 6.34531 29.7658 6.02726C29.4989 5.70921 29.0333 5.67179 28.7219 5.94441C28.5623 6.08339 25.5903 8.73204 24.2822 13.3184C24.2639 13.3612 24.2456 13.4066 24.2351 13.4547C24.2272 13.4841 24.2272 13.5108 24.222 13.5402C23.8845 14.7884 23.6726 16.1728 23.6726 17.6883V21.3686C23.1546 20.6015 22.634 19.9307 22.129 19.3427C22.3331 18.5435 22.9557 15.3737 20.5645 13.4039C17.3858 10.7873 10.6752 11.517 10.39 11.5491C10.1702 11.5731 9.97401 11.6987 9.85366 11.8858C9.73332 12.0729 9.69931 12.3081 9.76471 12.5219C9.88767 12.9282 12.7289 22.1544 18.3224 22.1544C18.5343 22.1544 18.7488 22.141 18.966 22.1143C19.3715 22.0635 19.6619 21.6866 19.6122 21.2724C19.5625 20.8581 19.1936 20.5614 18.7881 20.6122C16.8364 20.8554 14.9789 19.5431 13.2678 16.7127C12.4254 15.3203 11.8263 13.8797 11.494 12.979C12.1507 12.9442 13.0926 12.9202 14.1312 12.9816C16.6376 13.126 18.5422 13.6792 19.6384 14.5799C20.8209 15.5528 20.9465 17.0067 20.8628 17.9956C19.382 16.5738 18.2544 15.9644 18.168 15.9216C17.8044 15.7292 17.357 15.8762 17.1713 16.2477C16.9829 16.6192 17.1268 17.0762 17.4904 17.266C17.5245 17.2847 20.9596 19.1369 23.6752 24.2658V28.8388H8.48014C8.07201 28.8388 7.73975 29.1782 7.73975 29.5952V33.941H5.97379C5.56566 33.941 5.2334 34.2804 5.2334 34.6974V39.845C5.2334 40.2619 5.56566 40.6014 5.97379 40.6014H7.73975V50.2231C7.73975 50.6401 8.07201 50.9795 8.48014 50.9795H25.7865C26.1946 50.9795 26.5269 50.6401 26.5269 50.2231C26.5269 49.8035 26.1973 49.4641 25.7865 49.4641Z" fill="#1E2235"/>
<path d="M44.6618 9.97776C45.0699 9.97776 45.4022 9.63833 45.4022 9.22139V8.54519C45.4022 8.12825 45.0699 7.78882 44.6618 7.78882C44.2536 7.78882 43.9214 8.12825 43.9214 8.54519V9.22139C43.9214 9.63833 44.2536 9.97776 44.6618 9.97776Z" fill="#1E2235"/>
<path d="M44.6618 14.6067C45.0699 14.6067 45.4022 14.2672 45.4022 13.8503V13.1741C45.4022 12.7572 45.0699 12.4177 44.6618 12.4177C44.2536 12.4177 43.9214 12.7572 43.9214 13.1741V13.8503C43.9214 14.2672 44.2536 14.6067 44.6618 14.6067Z" fill="#1E2235"/>
<path d="M42.0666 11.9551H42.7285C43.1366 11.9551 43.4689 11.6157 43.4689 11.1988C43.4689 10.7818 43.1366 10.4424 42.7285 10.4424H42.0666C41.6584 10.4424 41.3262 10.7818 41.3262 11.1988C41.3262 11.6157 41.6584 11.9551 42.0666 11.9551Z" fill="#1E2235"/>
<path d="M46.5985 11.9551H47.2605C47.6686 11.9551 48.0008 11.6157 48.0008 11.1988C48.0008 10.7818 47.6686 10.4424 47.2605 10.4424H46.5985C46.1904 10.4424 45.8582 10.7818 45.8582 11.1988C45.8582 11.6157 46.1904 11.9551 46.5985 11.9551Z" fill="#1E2235"/>
<path d="M37.0902 22.5769C37.4984 22.5769 37.8306 22.2375 37.8306 21.8205V21.1443C37.8306 20.7274 37.4984 20.3879 37.0902 20.3879C36.6821 20.3879 36.3499 20.7274 36.3499 21.1443V21.8205C36.3499 22.2375 36.6795 22.5769 37.0902 22.5769Z" fill="#1E2235"/>
<path d="M37.0902 27.2058C37.4984 27.2058 37.8306 26.8664 37.8306 26.4494V25.7732C37.8306 25.3563 37.4984 25.0168 37.0902 25.0168C36.6821 25.0168 36.3499 25.3563 36.3499 25.7732V26.4494C36.3499 26.8664 36.6795 27.2058 37.0902 27.2058Z" fill="#1E2235"/>
<path d="M34.4931 24.5545H35.155C35.5631 24.5545 35.8954 24.2151 35.8954 23.7981C35.8954 23.3812 35.5631 23.0417 35.155 23.0417H34.4931C34.0849 23.0417 33.7527 23.3812 33.7527 23.7981C33.7527 24.2151 34.0849 24.5545 34.4931 24.5545Z" fill="#1E2235"/>
<path d="M39.027 24.5545H39.6889C40.0971 24.5545 40.4293 24.2151 40.4293 23.7981C40.4293 23.3812 40.0971 23.0417 39.6889 23.0417H39.027C38.6189 23.0417 38.2866 23.3812 38.2866 23.7981C38.2866 24.2151 38.6163 24.5545 39.027 24.5545Z" fill="#1E2235"/>
<path d="M3.3361 19.6155C2.92796 19.6155 2.5957 19.9549 2.5957 20.3719V21.048C2.5957 21.465 2.92796 21.8044 3.3361 21.8044C3.74423 21.8044 4.07649 21.465 4.07649 21.048V20.3719C4.07649 19.9549 3.74685 19.6155 3.3361 19.6155Z" fill="#1E2235"/>
<path d="M3.3361 24.2444C2.92796 24.2444 2.5957 24.5838 2.5957 25.0008V25.677C2.5957 26.0939 2.92796 26.4333 3.3361 26.4333C3.74423 26.4333 4.07649 26.0939 4.07649 25.677V25.0008C4.07649 24.5838 3.74685 24.2444 3.3361 24.2444Z" fill="#1E2235"/>
<path d="M1.40279 22.2666H0.740882C0.33275 22.2666 0.000488281 22.606 0.000488281 23.023C0.000488281 23.4399 0.33275 23.7794 0.740882 23.7794H1.40279C1.81092 23.7794 2.14318 23.4399 2.14318 23.023C2.14057 22.606 1.81092 22.2666 1.40279 22.2666Z" fill="#1E2235"/>
<path d="M5.93379 23.7794C6.34193 23.7794 6.67419 23.4399 6.67419 23.023C6.67419 22.606 6.34193 22.2666 5.93379 22.2666H5.27189C4.86376 22.2666 4.53149 22.606 4.53149 23.023C4.53149 23.4399 4.86376 23.7794 5.27189 23.7794H5.93379Z" fill="#1E2235"/>
<path d="M46.7444 23.7419C47.2677 23.7419 47.6915 23.3089 47.6915 22.7744C47.6915 22.2399 47.2677 21.8069 46.7444 21.8069C46.2212 21.8069 45.7974 22.2399 45.7974 22.7744C45.7974 23.3089 46.2212 23.7419 46.7444 23.7419Z" fill="#1E2235"/>
<path d="M46.9617 30.8704C46.4385 30.8704 46.0146 31.3033 46.0146 31.8379C46.0146 32.3724 46.4385 32.8054 46.9617 32.8054C47.485 32.8054 47.9088 32.3724 47.9088 31.8379C47.9088 31.3033 47.485 30.8704 46.9617 30.8704Z" fill="#1E2235"/>
<path d="M3.3648 11.199C2.84155 11.199 2.41772 11.632 2.41772 12.1665C2.41772 12.701 2.84155 13.134 3.3648 13.134C3.88805 13.134 4.31188 12.701 4.31188 12.1665C4.30926 11.632 3.88543 11.199 3.3648 11.199Z" fill="#1E2235"/>
<path d="M18.3584 31.4503V32.0142C18.3584 32.3136 18.5939 32.5541 18.8869 32.5541C19.1799 32.5541 19.4154 32.3136 19.4154 32.0142V31.4503C19.4154 31.1509 19.1799 30.9104 18.8869 30.9104C18.5939 30.9104 18.3584 31.1509 18.3584 31.4503Z" fill="#1E2235"/>
<path d="M11.2815 36.9081V37.7045C11.2815 38.0039 11.517 38.2444 11.81 38.2444C12.103 38.2444 12.3385 38.0039 12.3385 37.7045V36.9081C12.3385 36.6087 12.103 36.3682 11.81 36.3682C11.5196 36.3682 11.2815 36.6087 11.2815 36.9081Z" fill="#1E2235"/>
<path d="M8.72021 36.9081V37.7045C8.72021 38.0039 8.95567 38.2444 9.24869 38.2444C9.54171 38.2444 9.77717 38.0039 9.77717 37.7045V36.9081C9.77717 36.6087 9.54171 36.3682 9.24869 36.3682C8.95829 36.3682 8.72021 36.6087 8.72021 36.9081Z" fill="#1E2235"/>
<path d="M14.0598 36.9081V37.162C14.0598 37.4613 14.2953 37.7018 14.5883 37.7018C14.8813 37.7018 15.1168 37.4613 15.1168 37.162V36.9081C15.1168 36.6087 14.8813 36.3682 14.5883 36.3682C14.2953 36.3682 14.0598 36.6087 14.0598 36.9081Z" fill="#1E2235"/>
</svg>
