<svg width="76" height="84" viewBox="0 0 76 84" fill="none" xmlns="http://www.w3.org/2000/svg">
<path d="M72.5045 18.9054C70.6139 18.9054 69.0742 20.5086 69.0742 22.4772C69.0742 22.6508 69.0918 22.8198 69.1137 22.9842L60.7662 28.5019V8.03444C60.7662 3.60385 57.3053 0 53.0504 0H21.845C17.5901 0 14.1292 3.60385 14.1292 8.03444V8.94339C14.0985 9.06215 14.081 9.18091 14.081 9.3088C14.081 9.43669 14.1029 9.55545 14.1292 9.67421V43.5476L5.41328 48.8781C4.85181 48.4624 4.17191 48.2158 3.43059 48.2158C1.54002 48.2158 0.000366211 49.819 0.000366211 51.7876C0.000366211 53.7563 1.54002 55.3595 3.43059 55.3595C5.32116 55.3595 6.86082 53.7563 6.86082 51.7876C6.86082 51.6552 6.85205 51.5273 6.83889 51.3994L14.1248 46.9414V68.4731C14.0941 68.5919 14.0766 68.7106 14.0766 68.8385C14.0766 68.9664 14.0985 69.0852 14.1248 69.2039V75.9686C14.1248 80.3992 17.5858 84.003 21.8406 84.003H53.0504C57.3053 84.003 60.7662 80.3992 60.7662 75.9686V38.5278C60.7662 37.7194 60.139 37.0616 59.3582 37.0616C58.5818 37.0616 57.9501 37.7194 57.9501 38.5278V67.3769H16.9366V10.7704H57.9501V30.0869C57.9501 30.1737 57.9589 30.2559 57.9721 30.3381L54.4585 32.6585C53.919 32.2839 53.2698 32.0692 52.5723 32.0692C50.6817 32.0692 49.1421 33.6725 49.1421 35.6411C49.1421 35.9837 49.1903 36.3125 49.2781 36.6277L38.0794 46.512C37.6056 46.2562 37.0749 46.1101 36.5046 46.1101C35.7151 46.1101 34.9869 46.3933 34.4035 46.8637L22.5907 40.6929C21.8977 40.332 21.0511 40.6244 20.7045 41.3461C20.358 42.0677 20.6387 42.9493 21.3318 43.3101L33.1007 49.449C33.0963 49.5267 33.0876 49.5997 33.0876 49.6774C33.0876 51.646 34.6272 53.2493 36.5178 53.2493C38.4084 53.2493 39.948 51.646 39.948 49.6774C39.948 49.3759 39.9085 49.0836 39.8384 48.805L51.1072 38.8567C51.5546 39.0805 52.0547 39.2084 52.5811 39.2084C54.4717 39.2084 56.0113 37.6052 56.0113 35.6365C56.0113 35.463 55.9938 35.294 55.9718 35.1295L70.6227 25.4508C71.1622 25.8253 71.8114 26.04 72.5088 26.04C74.3994 26.04 75.9391 24.4367 75.9391 22.4681C75.9347 20.504 74.395 18.9054 72.5045 18.9054ZM21.845 2.92784H53.0548C55.6955 2.92784 57.8536 5.11573 57.9457 7.8426H16.9497C17.0462 5.11573 19.2 2.92784 21.845 2.92784ZM57.9545 70.3093V75.9777C57.9545 78.7914 55.7569 81.0843 53.0504 81.0843H21.845C19.143 81.0843 16.9453 78.7959 16.9453 75.9777V70.3093H57.9545Z" fill="#1E2235"/>
<path d="M34.6057 76.75H40.2292C41.0056 76.75 41.6372 76.0923 41.6372 75.2838C41.6372 74.4754 41.0099 73.8176 40.2292 73.8176H34.6057C33.8293 73.8176 33.1976 74.4708 33.1976 75.2838C33.202 76.0923 33.8293 76.75 34.6057 76.75Z" fill="#1E2235"/>
</svg>
