<svg width="62" height="66" viewBox="0 0 62 66" fill="none" xmlns="http://www.w3.org/2000/svg">
<g clip-path="url(#clip0_547_4786)">
<path d="M61.2801 12.1866L60.0168 9.00338C60.4272 8.16961 60.6662 7.2389 60.6662 6.24678C60.6662 2.80184 57.8651 0 54.421 0C50.9769 0 48.1758 2.80184 48.1758 6.24678C48.1758 9.69172 50.9769 12.4936 54.421 12.4936C56.0171 12.4936 57.4677 11.886 58.5727 10.9004L59.3836 12.9395C59.7681 13.9058 59.9619 14.9205 59.9619 15.9579V62.1834C59.9619 63.0333 59.2705 63.7217 58.424 63.7217C57.6712 63.7217 57.0251 63.1691 56.9055 62.429L55.5098 33.7901C55.4807 33.2278 55.0026 32.7916 54.4404 32.8206C53.8782 32.8465 53.4421 33.328 53.4711 33.8903L54.8669 62.5809C54.8669 62.61 54.8701 62.6391 54.8766 62.6682C55.1156 64.4359 56.6406 65.7706 58.424 65.7706C60.3981 65.7706 62.007 64.1644 62.007 62.1866V15.9611C62.0006 14.662 61.7583 13.392 61.2801 12.1866ZM54.421 10.4512C52.1045 10.4512 50.2177 8.56711 50.2177 6.24678C50.2177 3.92969 52.1013 2.0424 54.421 2.0424C56.7375 2.0424 58.6243 3.92969 58.6243 6.24678C58.6211 8.56387 56.7375 10.4512 54.421 10.4512Z" fill="#172618"/>
<path d="M40.5958 25.8404H49.7326C50.7277 25.8404 51.6033 25.207 51.9199 24.2634L55.0506 15.2277C55.2348 14.6944 54.9537 14.1127 54.4206 13.9285C53.8875 13.7443 53.3059 14.0255 53.1218 14.5587L49.9911 23.6009C49.9879 23.6041 49.9879 23.6106 49.9846 23.6138C49.9491 23.7204 49.8489 23.7948 49.7358 23.7948H40.599C38.8414 23.7948 37.4102 25.2264 37.4102 26.9844C37.4102 28.7424 38.8414 30.174 40.599 30.174H52.9602C54.049 30.174 55.0151 29.5212 55.4189 28.5097L58.0133 22.0141C58.2233 21.4906 57.9681 20.896 57.4447 20.6859C56.9213 20.4759 56.3268 20.7312 56.1168 21.2547L53.5224 27.7503C53.4287 27.9798 53.209 28.1316 52.9602 28.1316H40.599C39.969 28.1316 39.4553 27.6178 39.4553 26.9876C39.4488 26.3542 39.9625 25.8404 40.5958 25.8404Z" fill="#172618"/>
<path d="M47.0646 31.0787C46.6673 31.4794 46.6673 32.1258 47.0646 32.5233C47.2068 32.6655 47.2843 32.8529 47.2843 33.0533C47.2843 33.2536 47.2068 33.4411 47.0646 33.5833C46.9225 33.7254 46.7351 33.803 46.5348 33.803C46.3345 33.803 46.1471 33.7254 46.0049 33.5833L44.7804 32.3585C43.9663 31.5441 42.7999 31.3114 41.737 31.7541C40.674 32.1936 40.0149 33.1825 40.0149 34.333V36.0652C40.0149 36.4788 39.6789 36.8149 39.2654 36.8149C38.8518 36.8149 38.5158 36.4788 38.5158 36.0652V34.333C38.5158 33.1825 37.8567 32.1936 36.7938 31.7541C35.7308 31.3146 34.5645 31.5441 33.7503 32.3585L32.5258 33.5833C32.3837 33.7254 32.1963 33.803 31.996 33.803C31.7957 33.803 31.6083 33.7254 31.4661 33.5833C31.3239 33.4411 31.2464 33.2536 31.2464 33.0533C31.2464 32.8529 31.3239 32.6655 31.4661 32.5233L32.6906 31.2985C33.5048 30.4841 33.7374 29.3175 33.2948 28.2543C32.8554 27.191 31.8667 26.5318 30.7165 26.5318H28.9848C28.5713 26.5318 28.2353 26.1957 28.2353 25.782C28.2353 25.3684 28.5713 25.0323 28.9848 25.0323H30.7165C31.8667 25.0323 32.8554 24.373 33.2948 23.3098C33.7342 22.2466 33.5048 21.08 32.6906 20.2656L31.4661 19.0408C31.3239 18.8986 31.2464 18.7112 31.2464 18.5108C31.2464 18.3105 31.3239 18.123 31.4661 17.9808C31.6083 17.8386 31.7957 17.7611 31.996 17.7611C32.1963 17.7611 32.3837 17.8386 32.5258 17.9808L33.7503 19.2056C34.5645 20.02 35.7308 20.2527 36.7938 19.81C37.8567 19.3705 38.5158 18.3816 38.5158 17.2311V15.4989C38.5158 15.0853 38.8518 14.7492 39.2654 14.7492C39.6789 14.7492 40.0149 15.0853 40.0149 15.4989V17.2311C40.0149 18.3816 40.674 19.3705 41.737 19.81C42.7999 20.2495 43.9663 20.02 44.7804 19.2056L46.0049 17.9808C46.1471 17.8386 46.3345 17.7611 46.5348 17.7611C46.7351 17.7611 46.9225 17.8386 47.0646 17.9808C47.2068 18.123 47.2843 18.3105 47.2843 18.5108C47.2843 18.7112 47.2068 18.8986 47.0646 19.0408L45.8402 20.2656C45.4428 20.6663 45.4428 21.3127 45.8402 21.7102C46.2408 22.1077 46.887 22.1077 47.2843 21.7102L48.5088 20.4854C49.0355 19.9586 49.3262 19.2573 49.3262 18.5108C49.3262 17.7643 49.0355 17.0631 48.5088 16.5363C47.9822 16.0095 47.2811 15.7187 46.5348 15.7187C45.7885 15.7187 45.0874 16.0095 44.5607 16.5363L43.3362 17.7611C43.0164 18.081 42.6578 17.9808 42.5188 17.9227C42.3799 17.8645 42.0568 17.6835 42.0568 17.2311V15.4989C42.0568 13.9607 40.8033 12.7068 39.2654 12.7068C37.7243 12.7068 36.4739 13.9607 36.4739 15.4989V17.2311C36.4739 17.6835 36.1508 17.8645 36.0119 17.9227C35.873 17.9808 35.5144 18.081 35.1945 17.7611L33.97 16.5363C33.4434 16.0095 32.7423 15.7187 31.996 15.7187C31.2496 15.7187 30.5485 16.0095 30.0219 16.5363C29.4953 17.0631 29.2045 17.7643 29.2045 18.5108C29.2045 19.2573 29.4953 19.9586 30.0219 20.4854L31.2464 21.7102C31.5663 22.0301 31.4661 22.3888 31.408 22.5278C31.3498 22.6667 31.1689 22.9899 30.7165 22.9899H28.9848C27.4469 22.9899 26.1934 24.2438 26.1934 25.782C26.1934 27.3235 27.4469 28.5742 28.9848 28.5742H30.7165C31.1689 28.5742 31.3498 28.8974 31.408 29.0363C31.4661 29.1753 31.5663 29.534 31.2464 29.8539L30.0219 31.0787C29.4953 31.6055 29.2045 32.3067 29.2045 33.0533C29.2045 33.7998 29.4953 34.501 30.0219 35.0278C30.5485 35.5546 31.2496 35.8454 31.996 35.8454C32.7423 35.8454 33.4434 35.5546 33.97 35.0278L35.1945 33.803C35.5144 33.4831 35.873 33.5833 36.0119 33.6414C36.1508 33.6996 36.4739 33.8806 36.4739 34.333V36.0652C36.4739 37.6034 37.7275 38.8573 39.2654 38.8573C40.8033 38.8573 42.0568 37.6034 42.0568 36.0652V34.333C42.0568 33.8806 42.3799 33.6996 42.5188 33.6414C42.6578 33.5833 43.0164 33.4831 43.3362 33.803L44.5607 35.0278C45.0874 35.5546 45.7885 35.8454 46.5348 35.8454C47.2811 35.8454 47.9822 35.5546 48.5088 35.0278C49.0355 34.501 49.3262 33.7998 49.3262 33.0533C49.3262 32.3067 49.0355 31.6055 48.5088 31.0787C48.1114 30.6812 47.4653 30.6812 47.0646 31.0787Z" fill="#172618"/>
<path d="M53.3744 63.2014C52.4859 62.9719 51.8624 62.1705 51.8494 61.2527L51.5587 36.1201C51.5522 35.5611 51.0966 35.1086 50.5377 35.1086C50.5345 35.1086 50.5312 35.1086 50.5248 35.1086C49.9594 35.1151 49.5071 35.5772 49.5168 36.1428L49.8075 61.2753C49.8301 63.1141 51.0837 64.7203 52.8639 65.1792C52.9511 65.2018 53.0352 65.2115 53.1192 65.2115C53.5747 65.2115 53.9883 64.9045 54.1078 64.4456C54.25 63.8994 53.9204 63.3403 53.3744 63.2014Z" fill="#172618"/>
<path d="M29.5502 53.7036C28.8943 53.7036 28.3612 53.1704 28.3612 52.5144C28.3612 51.9488 27.9025 51.4932 27.3403 51.4932C26.7749 51.4932 26.3193 51.9521 26.3193 52.5144C26.3193 54.2982 27.77 55.746 29.5502 55.746C31.3336 55.746 32.781 54.295 32.781 52.5144C32.781 50.7305 31.3304 49.2827 29.5502 49.2827C28.9848 49.2827 28.5292 49.7416 28.5292 50.3039C28.5292 50.8695 28.988 51.3251 29.5502 51.3251C30.206 51.3251 30.7391 51.8583 30.7391 52.5144C30.7391 53.1704 30.206 53.7036 29.5502 53.7036Z" fill="#172618"/>
<path d="M45.5035 63.9544H42.011V42.0212C42.011 41.4557 41.5522 41 40.9901 41C40.4247 41 39.9691 41.4589 39.9691 42.0212V63.9544H33.9306C33.7529 62.4582 33.3556 61.2399 33.026 60.4384C36.1309 59.0908 38.3084 55.9949 38.3084 52.3981C38.3084 50.3169 37.5653 48.3003 36.2181 46.7168C35.853 46.287 35.2068 46.2353 34.7771 46.6005C34.3474 46.9657 34.2957 47.612 34.6608 48.0418C35.6947 49.2537 36.2633 50.8016 36.2633 52.3948C36.2633 56.0983 33.2522 59.1102 29.5496 59.1102C28.128 59.1102 26.7679 58.6707 25.6177 57.8402C25.1621 57.5105 24.5224 57.6107 24.1896 58.0696C23.8601 58.5253 23.9602 59.1651 24.419 59.498C25.9181 60.5838 27.6919 61.1558 29.5464 61.1558C30.0601 61.1558 30.5641 61.1074 31.0552 61.0233C31.3169 61.6244 31.6884 62.6489 31.8694 63.9512H21.1914C20.6712 61.6632 19.9088 60.1314 18.8264 59.2071L22.2285 58.3184C22.6776 58.2021 22.991 57.7949 22.991 57.3296C22.991 53.6196 25.0232 50.2296 28.2928 48.4781L35.0679 44.8522C35.4007 44.6744 35.6075 44.3286 35.6075 43.9505V38.8542C35.6075 38.2887 35.1487 37.833 34.5865 37.833H29.695C25.9989 37.833 22.991 34.8243 22.991 31.1273V23.7075C22.991 21.9171 23.6889 20.2334 24.9553 18.9666L30.1441 13.7734C31.7757 12.1414 32.6738 9.97295 32.6738 7.66231V1.64498C32.6738 1.08267 32.2215 0.627011 31.6594 0.623779C31.5786 0.623779 31.4978 0.623779 31.417 0.623779C24.1218 0.623779 18.4549 2.58216 14.5682 6.44721C8.59432 12.387 8.59432 21.0414 8.59432 23.8852C8.59432 27.23 5.59286 29.8153 3.17942 31.8965C1.72877 33.1471 0.585048 34.1328 0.177961 35.1863C-0.0837383 35.8617 -0.0578915 36.5759 0.25227 37.2545C0.908132 38.6862 2.76587 39.7041 3.88698 40.2083C3.6802 40.9322 3.36035 41.7207 3.02434 41.9857C2.6431 42.2862 2.4234 42.7225 2.40725 43.2137C2.37171 44.2381 3.27635 45.3918 3.99036 46.1384C3.01465 48.2939 3.16973 48.7625 3.25696 49.0242C3.40558 49.4734 3.77067 49.7707 4.80131 50.5625C5.12116 50.8113 5.65102 51.2185 5.95795 51.4964C5.55409 52.8408 5.13731 55.7396 6.00318 57.9242C6.62027 59.4818 7.78984 60.4998 9.38588 60.8714C10.7816 61.1946 12.1741 60.8844 13.5246 60.5871C15.0173 60.2542 16.3064 59.9666 17.2595 60.5903C18.0252 61.0912 18.639 62.2255 19.0881 63.9609H14.216C13.6506 63.9609 13.1951 64.4198 13.1951 64.9821C13.1951 65.5476 13.6538 66.0033 14.216 66.0033H45.5035C46.0689 66.0033 46.5245 65.5444 46.5245 64.9821C46.5245 64.4133 46.0689 63.9544 45.5035 63.9544ZM13.7023 58.4412C13.6668 58.4509 13.6312 58.4639 13.5957 58.4768C13.4212 58.5156 13.25 58.5511 13.0787 58.5899C11.9027 58.8517 10.7881 59.0973 9.84789 58.8808C9.00787 58.6869 8.41663 58.2247 8.03539 57.4718C7.07582 55.5683 7.74784 52.4465 7.97077 51.8972C8.09354 51.6742 8.27447 51.1636 7.848 50.5496C7.72846 50.375 7.56045 50.1941 7.3246 49.9776C6.96598 49.6479 6.50073 49.2892 6.05164 48.9434C5.82549 48.7689 5.52179 48.533 5.30855 48.3585C5.39901 48.0773 5.56702 47.6508 5.7641 47.1919L8.09354 48.0224C8.20662 48.0644 8.32293 48.0806 8.43601 48.0806C8.85602 48.0806 9.25019 47.8188 9.39881 47.4019C9.58943 46.8719 9.31157 46.287 8.77848 46.0963L5.77056 45.0234C5.19547 44.4708 4.64946 43.7825 4.49438 43.4141C5.58317 42.3541 6.00964 40.2147 6.08718 39.7752C6.17442 39.284 5.89333 38.8025 5.42486 38.6345C4.52992 38.3178 2.54617 37.3515 2.11324 36.4046C2.03247 36.2269 2.02278 36.0879 2.08739 35.9263C2.31032 35.3511 3.43143 34.3848 4.51699 33.4509C7.10167 31.2243 10.6395 28.1736 10.6395 23.8917C10.6395 21.2579 10.6395 13.2434 16.0124 7.89823C19.3627 4.55993 24.2769 2.80514 30.6319 2.67265V7.66231C30.6319 9.42356 29.947 11.0814 28.6999 12.3256L23.5112 17.5189C21.8602 19.1702 20.9491 21.3677 20.9491 23.7042V31.1273C20.9491 35.9522 24.8713 39.8754 29.695 39.8754H33.5623V43.3397L27.3268 46.678C23.6275 48.659 21.2463 52.3851 20.9749 56.5346L13.7023 58.4412Z" fill="#172618"/>
</g>
<defs>
<clipPath id="clip0_547_4786">
<rect width="62" height="66" fill="white"/>
</clipPath>
</defs>
</svg>
