<svg width="34" height="31" viewBox="0 0 34 31" fill="none" xmlns="http://www.w3.org/2000/svg">
<path d="M22.582 21.6224C16.5084 26.4845 7.72916 25.3746 3.14566 20.3128C-1.33808 15.3608 -0.996638 8.15619 3.96554 3.62274C8.92773 -0.91136 16.8098 -1.22206 22.2321 2.87486C27.7549 7.04818 28.9985 15.0758 23.7096 20.5876C25.4217 22.1475 27.136 23.71 28.8502 25.2719C30.5652 26.835 32.2808 28.3975 34 29.9645C33.5862 30.3266 33.1991 30.6643 32.8155 31C29.4312 27.8987 26.014 24.7673 22.582 21.6224ZM1.80728 12.422C1.79955 18.3696 7.05681 23.1913 13.5773 23.2183C20.0724 23.2446 25.4056 18.3863 25.4105 12.4374C25.4154 6.49354 20.1427 1.66607 13.6293 1.65131C7.09896 1.6359 1.81431 6.45053 1.80728 12.422Z" fill="#050B0B"/>
</svg>
