<svg width="55" height="43" viewBox="0 0 55 43" fill="none" xmlns="http://www.w3.org/2000/svg">
<path d="M51.4767 7.34338C51.4501 7.00422 51.1914 6.72469 50.8491 6.66879C46.4286 5.90848 40.5929 2.52808 40.532 2.49454C40.2923 2.35664 39.9956 2.35664 39.756 2.49454C39.6989 2.52808 33.8518 5.90848 29.4237 6.66879C29.0889 6.72469 28.834 6.99677 28.7998 7.32847C28.7846 7.46264 28.4802 10.6902 29.6672 14.816C30.7666 18.6325 33.4067 23.9621 39.7521 27.6705C39.8739 27.7413 40.007 27.7748 40.1402 27.7748C40.2771 27.7748 40.4179 27.7376 40.5396 27.663C46.7101 23.9174 49.354 18.5989 50.4877 14.7937C51.7164 10.6828 51.4882 7.47755 51.4767 7.34338ZM31.147 14.4694C30.2987 11.5512 30.253 9.07644 30.2834 8.01797C33.6844 7.29865 37.5419 5.39042 39.4098 4.39159V25.6914C35.3012 22.967 32.5241 19.1953 31.147 14.4694ZM49.0192 14.4359C47.6117 19.1282 44.8916 22.8887 40.9276 25.6355V4.4214C42.8069 5.42397 46.6112 7.30238 49.9779 8.01797C49.9855 9.07644 49.8904 11.5363 49.0192 14.4359Z" fill="white"/>
<path d="M47.1515 24.3049C46.7331 24.3049 46.3945 24.6366 46.3945 25.0466V37.7333C46.3945 38.4974 45.7592 39.1198 44.9793 39.1198H6.43501C5.65514 39.1198 5.01984 38.4974 5.01984 37.7333V12.3599C5.01984 11.5958 5.65514 10.9734 6.43501 10.9734H26.7952C27.2136 10.9734 27.5522 10.6417 27.5522 10.2317C27.5522 9.82176 27.2136 9.48633 26.7952 9.48633H6.43501C4.81821 9.48633 3.50195 10.7759 3.50195 12.3599V37.7333C3.50195 39.3173 4.81821 40.6069 6.43501 40.6069H44.9793C46.5961 40.6069 47.9124 39.3173 47.9124 37.7333V25.0466C47.9124 24.6366 47.5738 24.3049 47.1515 24.3049Z" fill="white"/>
<path d="M12.2857 22.0201C13.4498 22.0201 14.4845 21.4759 15.1465 20.6373C15.8084 21.4759 16.8431 22.0201 18.0072 22.0201C20.0044 22.0201 21.6288 20.4286 21.6288 18.4719C21.6288 16.5153 20.0044 14.9238 18.0072 14.9238C16.8431 14.9238 15.8084 15.468 15.1465 16.3065C14.4845 15.468 13.4498 14.9238 12.2857 14.9238C10.2885 14.9238 8.66406 16.5153 8.66406 18.4719C8.66406 20.4286 10.2885 22.0201 12.2857 22.0201ZM18.0072 16.4146C19.1675 16.4146 20.111 17.3389 20.111 18.4757C20.111 19.6124 19.1675 20.5367 18.0072 20.5367C16.8469 20.5367 15.9035 19.6124 15.9035 18.4757C15.9073 17.3389 16.8507 16.4146 18.0072 16.4146ZM12.2857 16.4146C13.446 16.4146 14.3894 17.3389 14.3894 18.4757C14.3894 19.6124 13.446 20.5367 12.2857 20.5367C11.1254 20.5367 10.1819 19.6124 10.1819 18.4757C10.1819 17.3389 11.1254 16.4146 12.2857 16.4146Z" fill="white"/>
<path d="M24.8406 29.001H9.46016C9.0417 29.001 8.70312 29.3327 8.70312 29.7427C8.70312 30.1526 9.0417 30.4843 9.46016 30.4843H24.8406C25.2591 30.4843 25.5977 30.1526 25.5977 29.7427C25.5977 29.3327 25.2591 29.001 24.8406 29.001Z" fill="white"/>
<path d="M24.8406 33.7603H9.46016C9.0417 33.7603 8.70312 34.092 8.70312 34.5019C8.70312 34.9119 9.0417 35.2436 9.46016 35.2436H24.8406C25.2591 35.2436 25.5977 34.9119 25.5977 34.5019C25.5977 34.0957 25.2591 33.7603 24.8406 33.7603Z" fill="white"/>
<path d="M28.1789 35.2475H42.4486C42.867 35.2475 43.2056 34.9158 43.2056 34.5058C43.2056 34.0959 42.867 33.7642 42.4486 33.7642H28.1789C27.7605 33.7642 27.4219 34.0959 27.4219 34.5058C27.4181 34.9158 27.7567 35.2475 28.1789 35.2475Z" fill="white"/>
</svg>
