<svg width="16" height="16" viewBox="0 0 16 16" fill="none" xmlns="http://www.w3.org/2000/svg">
<path d="M0.285831 8.0809C0.285831 6.06121 0.310235 4.03542 0.273628 2.01574C0.261426 1.16759 0.834929 0.545212 1.75009 0.551314C5.79512 0.569619 9.84624 0.557416 13.8913 0.563518C14.0682 0.563518 14.2512 0.575721 14.4282 0.624535C14.9651 0.758774 15.3311 1.2042 15.3677 1.75946C15.3738 1.8693 15.3738 1.97913 15.3738 2.08896C15.3738 6.11003 15.3738 10.125 15.3738 14.1461C15.3738 14.2559 15.3799 14.3657 15.3677 14.4755C15.325 15.0735 14.8918 15.5434 14.3 15.6288C14.1353 15.6532 13.9706 15.6532 13.7998 15.6532C9.83404 15.6532 5.87443 15.6532 1.90872 15.6532C1.73179 15.6532 1.54876 15.6532 1.37183 15.6288C0.761716 15.5495 0.322437 15.0613 0.291932 14.445C0.285831 14.3352 0.291932 14.2254 0.291932 14.1094C0.285831 12.102 0.285831 10.0945 0.285831 8.0809ZM8.35758 6.98868C8.35758 6.60427 8.35148 6.29308 8.35758 5.97579C8.36978 5.48764 8.54671 5.31069 9.047 5.29239C9.32155 5.28018 9.59 5.29239 9.88285 5.29239C9.88285 4.79814 9.88285 4.35882 9.88285 3.87678C9.35816 3.87678 8.85787 3.84017 8.36368 3.88288C7.56444 3.9561 7.00924 4.46865 6.85061 5.25578C6.78349 5.59137 6.7957 5.94528 6.77739 6.28698C6.76519 6.50054 6.77739 6.7202 6.77739 6.98258C6.31371 6.98258 5.90494 6.98258 5.45956 6.98258C5.45956 7.51953 5.43515 8.00768 5.47176 8.53243C5.91714 8.53243 6.31371 8.53243 6.76519 8.53243C6.76519 9.8199 6.76519 11.0769 6.76519 12.3399C7.32039 12.3399 7.82678 12.3399 8.35758 12.3399C8.35758 11.8945 8.35758 11.4857 8.35758 11.0708C8.35758 10.6436 8.35148 10.2104 8.35758 9.78329C8.36368 9.37447 8.33927 8.95955 8.37588 8.50802C8.83346 8.50802 9.24224 8.50802 9.66321 8.50802C9.73032 7.98327 9.79133 7.50733 9.85845 6.98868C9.35206 6.98868 8.88837 6.98868 8.35758 6.98868Z" fill="#081617"/>
</svg>
