<svg width="16" height="16" viewBox="0 0 16 16" fill="none" xmlns="http://www.w3.org/2000/svg">
<path d="M7.666 0.542236C9.67307 0.542236 11.6752 0.542236 13.6822 0.542236C13.8516 0.542236 14.0159 0.542236 14.1803 0.562179C14.7181 0.626995 15.1564 1.07073 15.2162 1.60919C15.2311 1.73384 15.2261 1.85848 15.2261 1.98313C15.2261 6.06648 15.2261 10.1498 15.2261 14.2332C15.2261 14.3977 15.2261 14.5722 15.1913 14.7318C15.0717 15.2303 14.6335 15.5893 14.1105 15.6342C13.986 15.6442 13.8615 15.6442 13.737 15.6442C9.69797 15.6442 5.65893 15.6442 1.62487 15.6442C1.52527 15.6442 1.43064 15.6442 1.33103 15.6392C0.663671 15.5993 0.190541 15.1356 0.135757 14.4725C0.120817 14.3778 0.125797 14.283 0.125797 14.1833C0.125797 10.1299 0.125797 6.07146 0.125797 2.01803C0.125797 1.82358 0.135757 1.62415 0.185561 1.43968C0.32501 0.921155 0.743356 0.592094 1.27625 0.552208C1.43064 0.542236 1.58005 0.542236 1.73444 0.542236C3.71163 0.542236 5.68881 0.542236 7.666 0.542236ZM8.08933 11.3763C8.09929 11.1968 8.11423 11.0473 8.11423 10.8977C8.11921 10.2844 8.11423 9.6712 8.12917 9.05795C8.13415 8.86849 8.17399 8.66905 8.24372 8.48957C8.35328 8.21535 8.65708 8.07575 8.96586 8.10566C9.26966 8.13558 9.46888 8.31506 9.52864 8.63415C9.5635 8.82361 9.57346 9.02304 9.57346 9.21749C9.57844 9.79085 9.57346 10.3592 9.57844 10.9326C9.57844 11.0772 9.60334 11.2268 9.61331 11.3763C10.0864 11.3763 10.5147 11.3763 10.948 11.3763C10.963 11.2816 10.9879 11.2118 10.9879 11.147C10.9879 10.2844 10.9978 9.41692 10.9779 8.55438C10.968 8.27019 10.8982 7.97603 10.8036 7.70181C10.6492 7.25808 10.3056 7.0038 9.85236 6.91406C9.2348 6.7944 8.65708 6.85922 8.18893 7.33785C8.16403 7.36278 8.11921 7.36777 8.07937 7.37774C8.05945 7.24811 8.03454 7.12845 8.01462 6.98885C7.57137 6.97389 7.14805 6.95395 6.71974 6.99882C6.71974 8.47959 6.71974 9.91051 6.71974 11.3713C7.18291 11.3763 7.6162 11.3763 8.08933 11.3763ZM4.54334 6.99882C4.43377 7.45751 4.45369 11.0622 4.56824 11.3913C4.99655 11.4013 5.42984 11.4461 5.85316 11.3664C5.94779 10.6434 5.91293 7.29298 5.81332 7.0038C5.38999 6.99882 4.96169 6.99882 4.54334 6.99882ZM5.17584 4.80508C4.72263 4.81006 4.35409 5.18898 4.36903 5.63272C4.38397 6.06149 4.75251 6.42047 5.18082 6.42545C5.62905 6.43044 6.00257 6.06149 6.00257 5.60779C6.00257 5.1491 5.64399 4.80009 5.17584 4.80508Z" fill="#152F27"/>
</svg>
