<svg width="59" height="65" viewBox="0 0 59 65" fill="none" xmlns="http://www.w3.org/2000/svg">
<path d="M56.1097 57.809C56.4478 57.3776 56.733 56.8782 56.9535 56.3286C57.3769 55.2649 57.4357 54.0711 57.1211 52.9689L54.3339 43.2209C54.3016 43.1086 54.2516 43.0082 54.1869 42.9195C54.7308 42.1394 55.0484 41.1909 55.0484 40.1686C55.0484 37.5122 52.8992 35.3522 50.2561 35.3522C49.4799 35.3522 48.7478 35.5383 48.101 35.8693L42.6178 34.575L41.5006 29.4129C41.3889 28.8929 40.8773 28.5619 40.3599 28.6742C39.8424 28.7865 39.5131 29.3007 39.6248 29.8207L40.8714 35.5797C40.9508 35.9431 41.2301 36.2298 41.5888 36.3154L46.3193 37.4324C46.04 37.8372 45.8195 38.2893 45.6725 38.7709L41.8034 37.9317C41.286 37.8195 40.7744 38.1504 40.6627 38.6705C40.551 39.1905 40.8803 39.7047 41.3977 39.8169L45.4932 40.7063C45.6108 41.7612 46.0665 42.7127 46.7486 43.4484L42.5531 43.8798L39.963 40.8511C39.8953 40.7743 39.8189 40.7093 39.7366 40.6591C39.5925 40.1863 39.325 39.746 38.931 39.3944C38.3694 38.895 37.6462 38.6498 36.8994 38.7059C36.1497 38.7621 35.4735 39.1078 34.9884 39.684L31.4662 43.8769L27.2766 43.4484C28.0734 42.5886 28.5614 41.4362 28.5614 40.1715C28.5614 37.5151 26.4123 35.3551 23.7691 35.3551C21.126 35.3551 18.9769 37.5151 18.9769 40.1715C18.9769 41.1939 19.2973 42.1424 19.8383 42.9225C19.7736 43.0111 19.7236 43.1116 19.6913 43.2239L16.9041 52.9719C16.5895 54.0741 16.6483 55.2649 17.0717 56.3316C17.2922 56.8841 17.5774 57.3805 17.9155 57.8149C16.2897 57.9685 15.0137 59.3485 15.0137 61.0209C15.0137 62.7968 16.4514 64.2417 18.2183 64.2417H29.2847C29.8139 64.2417 30.2431 63.8103 30.2431 63.2754C30.2431 62.7436 29.8139 62.3092 29.2847 62.3092H18.2183C17.5098 62.3092 16.9335 61.7301 16.9335 61.0179C16.9335 60.3058 17.5098 59.7267 18.2183 59.7267H26.3946C26.9238 59.7267 27.356 59.2953 27.356 58.7604C27.356 58.2286 26.9268 57.7942 26.3946 57.7942H21.717C20.247 57.7942 19.2767 56.6655 18.8563 55.6106C18.5917 54.9428 18.5535 54.1923 18.7505 53.5008L21.3701 44.3349C21.7523 44.5565 22.1639 44.7279 22.6019 44.8402C22.7048 44.8934 22.8166 44.9288 22.9371 44.9406L31.7749 45.8478C32.0895 45.8803 32.4011 45.7532 32.6069 45.5109L36.4555 40.928C36.6025 40.7507 36.8112 40.6443 37.0405 40.6295C37.2699 40.6118 37.4904 40.6886 37.6609 40.8393C38.0078 41.1466 38.0431 41.6844 37.7403 42.036L32.4188 48.1703L24.0926 47.4788C23.5633 47.4345 23.1018 47.8305 23.0577 48.3594C23.0136 48.8913 23.4075 49.3552 23.9338 49.3995L31.6573 50.0407L34.1358 61.213C34.1946 61.4759 34.1328 61.7448 33.9652 61.9546C33.7977 62.1644 33.5507 62.2826 33.2832 62.2826C32.8921 62.2826 32.5452 62.0167 32.4394 61.6355L30.0609 52.9453C29.9815 52.6557 29.7727 52.4193 29.4964 52.3071C29.22 52.1948 28.9054 52.2184 28.6496 52.3691L25.3244 54.3341C24.8687 54.603 24.7158 55.1969 24.9834 55.6549C25.2509 56.1129 25.8419 56.2666 26.2976 55.9977L28.5409 54.6709L30.5871 62.1496C30.9194 63.3641 32.0278 64.2121 33.2802 64.2121C34.1328 64.2121 34.9266 63.828 35.4617 63.1602C35.9939 62.4924 36.1938 61.6296 36.0086 60.7934L33.5654 49.7836L36.9053 45.9335L40.4598 49.7866L38.0166 60.7963C37.8314 61.6325 38.0313 62.4954 38.5635 63.1632C39.0956 63.8309 39.8924 64.2151 40.745 64.2151C41.9975 64.2151 43.1059 63.367 43.4381 62.1526L45.4844 54.6739L47.7276 56.0006C48.1863 56.2695 48.7743 56.1159 49.0418 55.6578C49.3094 55.1998 49.1565 54.6059 48.7008 54.337L45.3756 52.3721C45.1169 52.2214 44.8052 52.1977 44.5289 52.31C44.2525 52.4223 44.0437 52.6587 43.9644 52.9483L41.5859 61.6385C41.483 62.0196 41.136 62.2856 40.7421 62.2856C40.4745 62.2856 40.2276 62.1644 40.06 61.9576C39.8924 61.7478 39.8307 61.4789 39.8895 61.2159L42.3679 50.0436L50.0914 49.4024C50.6206 49.3581 51.0117 48.8913 50.9676 48.3623C50.9235 47.8305 50.4589 47.4375 49.9327 47.4818L41.5859 48.1762L38.1695 44.4738L39.1809 43.3066C39.2397 43.2386 39.2956 43.1677 39.3455 43.0968L41.4212 45.5227C41.6035 45.7384 41.871 45.8596 42.1504 45.8596C42.1827 45.8596 42.215 45.8566 42.2474 45.8537L51.0852 44.9465C51.2057 44.9347 51.3174 44.8993 51.4203 44.8461C51.8584 44.7367 52.2729 44.5624 52.6522 44.3408L55.2718 53.5038C55.4688 54.1952 55.4306 54.9457 55.166 55.6135C54.7455 56.6684 53.7724 57.7972 52.3053 57.7972H47.6277C47.0985 57.7972 46.6663 58.2286 46.6663 58.7634C46.6663 59.2953 47.0955 59.7296 47.6277 59.7296H55.804C56.5125 59.7296 57.0888 60.3088 57.0888 61.0209C57.0888 61.733 56.5125 62.3122 55.804 62.3122H44.7376C44.2084 62.3122 43.7791 62.7436 43.7791 63.2784C43.7791 63.8103 44.2084 64.2446 44.7376 64.2446H55.804C57.5709 64.2446 59.0086 62.7997 59.0086 61.0238C59.0145 59.3425 57.7356 57.9626 56.1097 57.809ZM20.8967 40.1686C20.8967 38.5759 22.1845 37.2817 23.7691 37.2817C25.3538 37.2817 26.6416 38.5759 26.6416 40.1686C26.6416 41.7612 25.3538 43.0554 23.7691 43.0554C22.1845 43.0584 20.8967 41.7612 20.8967 40.1686ZM50.259 43.0584C48.6743 43.0584 47.3866 41.7642 47.3866 40.1715C47.3866 38.5789 48.6743 37.2846 50.259 37.2846C51.8437 37.2846 53.1314 38.5789 53.1314 40.1715C53.1314 41.7612 51.8437 43.0584 50.259 43.0584Z" fill="#1E2235"/>
<path d="M39.4634 27.185C40.0896 27.4893 40.7952 27.6577 41.5361 27.6577C44.1792 27.6577 46.3284 25.4977 46.3284 22.8413C46.3284 22.2474 46.2196 21.6771 46.0226 21.1512C46.0373 21.0832 46.0461 21.0123 46.0461 20.9384V13.0194C46.0461 12.4876 45.6169 12.0562 45.0847 12.0562C44.5555 12.0562 44.1263 12.4876 44.1263 13.0194V18.7902C43.3795 18.3056 42.4887 18.022 41.5332 18.022C38.8901 18.022 36.7409 20.182 36.7409 22.8384C36.7409 24.0528 37.1907 25.1638 37.9345 26.0148L37.8728 26.0946C36.6674 27.6607 36.0735 29.6138 36.194 31.5906L36.5439 37.2344C36.5762 37.7456 36.9967 38.1386 37.5023 38.1386C37.5229 38.1386 37.5435 38.1386 37.5641 38.1356C38.0933 38.1031 38.4961 37.6451 38.4637 37.1132L38.1139 31.4695C38.0198 29.9595 38.4755 28.4703 39.3957 27.2736L39.4634 27.185ZM41.5332 19.9544C43.1179 19.9544 44.4056 21.2487 44.4056 22.8413C44.4056 24.434 43.1179 25.7282 41.5332 25.7282C39.9485 25.7282 38.6607 24.434 38.6607 22.8413C38.6607 21.2487 39.9485 19.9544 41.5332 19.9544Z" fill="#1E2235"/>
<path d="M27.0153 27.2116C27.3945 27.581 27.9973 27.575 28.3677 27.1968L47.1723 8.0258C47.4192 8.15582 47.5898 8.41584 47.5898 8.71428V32.7106C47.5898 33.2424 48.019 33.6768 48.5512 33.6768C49.0804 33.6768 49.5096 33.2454 49.5096 32.7106V8.71428C49.5096 7.87806 49.1303 7.13048 48.5365 6.63407L49.2127 5.94559L50.0917 7.09207C50.274 7.33141 50.5563 7.46734 50.8503 7.46734C50.8797 7.46734 50.9091 7.46734 50.9414 7.46438C51.2707 7.43483 51.5588 7.23686 51.7088 6.94137L54.5077 1.40104C54.6753 1.0701 54.6371 0.668242 54.4107 0.375712C54.1843 0.080228 53.808 -0.0556947 53.4463 0.0211312L47.4045 1.33604C47.0841 1.40695 46.8195 1.63743 46.7048 1.94769C46.5931 2.25795 46.646 2.60662 46.8459 2.86665L48.0249 4.40316L46.4196 6.04015C45.2377 6.21448 44.3057 7.16299 44.1499 8.35674L27.6709 25.158L23.0374 20.6312C22.8551 20.4509 22.6023 20.3564 22.3494 20.3593C22.0936 20.3652 21.8496 20.4716 21.6732 20.6578L0.266685 43.1618C-0.100821 43.546 -0.0861209 44.1576 0.296086 44.527C0.481309 44.7043 0.719453 44.7959 0.960538 44.7959C1.21338 44.7959 1.46623 44.6954 1.65439 44.4974L22.3935 22.6936L27.0153 27.2116ZM51.8822 2.33477L50.6856 4.70456L49.2979 2.89915L51.8822 2.33477Z" fill="#1E2235"/>
</svg>
