<svg width="78" height="50" viewBox="0 0 78 50" fill="none" xmlns="http://www.w3.org/2000/svg">
<g clip-path="url(#clip0_686_132)">
<path d="M23.5552 16.2296C22.8938 16.2296 22.3601 16.7693 22.3601 17.4382V40.5701H3.05373V4.78145C3.05373 3.47777 4.1023 2.41353 5.39515 2.41353H20.0262C21.3153 2.41353 22.3676 3.47396 22.3676 4.78145V6.41581C22.3676 7.08476 22.9013 7.62448 23.5628 7.62448C24.2242 7.62448 24.7579 7.08476 24.7579 6.41581V4.78145C24.7504 2.14747 22.6307 0 20.0224 0H5.39139C2.78689 0 0.663454 2.14747 0.663454 4.78145V41.5279C0.648421 41.6078 0.637146 41.6914 0.637146 41.7788C0.637146 41.8662 0.648421 41.9498 0.663454 42.0296V45.2185C0.663454 47.8563 2.78689 50 5.39139 50H20.0224C22.6307 50 24.7504 47.8563 24.7504 45.2185V17.4382C24.7504 16.7693 24.2167 16.2296 23.5552 16.2296ZM20.0224 47.5827H5.39139C4.1023 47.5827 3.04997 46.5222 3.04997 45.2147V42.9837H22.3601V45.2147C22.3639 46.5222 21.3115 47.5827 20.0224 47.5827Z" fill="#172618"/>
<path d="M14.0993 44.1162H11.2318C10.5703 44.1162 10.0366 44.6559 10.0366 45.3249C10.0366 45.9938 10.5703 46.5335 11.2318 46.5335H14.0993C14.7608 46.5335 15.2945 45.9938 15.2945 45.3249C15.2907 44.6559 14.757 44.1162 14.0993 44.1162Z" fill="#172618"/>
<path d="M72.9092 0H58.2819C55.6736 0 53.554 2.14747 53.554 4.78145V28.97C53.554 29.6389 54.0876 30.1786 54.7491 30.1786C55.4106 30.1786 55.9442 29.6389 55.9442 28.97V4.78145C55.9442 3.47777 56.9928 2.41353 58.2856 2.41353H72.9129C74.202 2.41353 75.2544 3.47396 75.2544 4.78145V40.5701H55.7413C55.5271 40.2471 55.1625 40.038 54.7491 40.038C54.0876 40.038 53.554 40.5777 53.554 41.2467V45.2185C53.554 47.8563 55.6774 50 58.2819 50H72.9092C75.5174 50 77.6371 47.8563 77.6371 45.2185V4.78145C77.6371 2.14747 75.5174 0 72.9092 0ZM72.9092 47.5827H58.2819C56.9928 47.5827 55.9405 46.5222 55.9405 45.2147V42.9837H75.2506V45.2147C75.2506 46.5222 74.1983 47.5827 72.9092 47.5827Z" fill="#172618"/>
<path d="M66.9861 44.1162H64.1185C63.4571 44.1162 62.9234 44.6559 62.9234 45.3249C62.9234 45.9938 63.4571 46.5335 64.1185 46.5335H66.9861C67.6476 46.5335 68.1813 45.9938 68.1813 45.3249C68.1813 44.6559 67.6438 44.1162 66.9861 44.1162Z" fill="#172618"/>
<path d="M40.2233 31.0641V29.7452C42.0273 29.2891 43.3464 27.841 43.3464 26.1306C43.3464 24.0516 41.4034 22.364 39.0094 22.364C37.9533 22.364 37.0626 21.7445 37.0626 21.0109V20.9919C37.0626 20.2583 37.9533 19.6388 39.0094 19.6388H39.1221C40.1782 19.6388 41.0689 20.2583 41.0689 20.9919C41.0689 21.6609 41.6026 22.2006 42.264 22.2006C42.9255 22.2006 43.4592 21.6609 43.4592 20.9919C43.4592 19.2435 42.0836 17.7764 40.2233 17.3507V16.0812C40.2233 15.4123 39.6896 14.8726 39.0282 14.8726C38.3667 14.8726 37.833 15.4123 37.833 16.0812V17.3697C36.014 17.8182 34.676 19.2701 34.676 20.9919V21.0109C34.676 23.09 36.6228 24.7775 39.0131 24.7775C40.0692 24.7775 40.9599 25.3971 40.9599 26.1306C40.9599 26.8642 40.0692 27.4837 39.0131 27.4837H38.9004C37.8443 27.4837 36.9536 26.8642 36.9536 26.1306C36.9536 25.4617 36.4199 24.922 35.7584 24.922C35.097 24.922 34.5633 25.4617 34.5633 26.1306C34.5633 27.8866 35.9576 29.3651 37.833 29.7794V31.0641C37.833 31.7331 38.3667 32.2728 39.0282 32.2728C39.6896 32.2728 40.2233 31.7331 40.2233 31.0641Z" fill="#172618"/>
<path d="M59.7289 36.5412L59.0937 36.9973C58.5563 37.385 58.4285 38.1376 58.8118 38.6811C59.0449 39.0118 59.4132 39.1904 59.7852 39.1904C60.0258 39.1904 60.2663 39.1182 60.4768 38.9662L64.0998 36.3588C64.1411 36.3322 64.1787 36.3056 64.2125 36.2752L64.547 36.0357C64.874 35.8001 65.0619 35.4124 65.0469 35.0057C65.0318 34.599 64.8176 34.2265 64.4718 34.0175L60.4016 31.5165C59.8379 31.1707 59.1012 31.3531 58.7592 31.9232C58.4172 32.4934 58.5976 33.2383 59.1614 33.5842L60.037 34.1239H46.3756C49.5927 31.7788 51.6974 27.959 51.6974 23.6526C51.6974 16.5412 45.9735 10.7526 38.9417 10.7526C38.7876 10.7526 38.6373 10.7602 38.487 10.764H18.2711L19.3121 10.0152C19.8496 9.62752 19.9736 8.87496 19.594 8.33144C19.2107 7.78792 18.4665 7.66249 17.9291 8.04638L13.8588 10.9768C13.5319 11.2125 13.344 11.6002 13.359 12.0068C13.374 12.4135 13.5882 12.786 13.934 12.9951L18.0042 15.496C18.1997 15.6138 18.4101 15.6709 18.6244 15.6709C19.0265 15.6709 19.4211 15.4656 19.6466 15.0893C19.9886 14.5192 19.8082 13.7742 19.2445 13.4284L18.8423 13.1813H31.5228C28.2945 15.5264 26.1936 19.3463 26.1936 23.6564C26.1936 30.7678 31.9175 36.5564 38.9492 36.5564C39.1033 36.5564 39.2574 36.5488 39.4078 36.545H59.7289V36.5412ZM28.5839 23.6564C28.5839 18.0312 32.9886 13.4246 38.4945 13.1851H38.9492C38.9793 13.1851 39.0094 13.1775 39.0394 13.1775C44.7145 13.2269 49.3146 17.9095 49.3146 23.6602C49.3146 29.2854 44.9137 33.8883 39.4078 34.1315H39.1071C39.0733 34.1315 39.0394 34.1391 39.0056 34.1429C38.9868 34.1429 38.968 34.1429 38.9492 34.1429C33.2329 34.1391 28.5839 29.4337 28.5839 23.6564Z" fill="#172618"/>
</g>
<defs>
<clipPath id="clip0_686_132">
<rect width="77" height="50" fill="white" transform="translate(0.637146)"/>
</clipPath>
</defs>
</svg>
