<svg width="63" height="58" viewBox="0 0 63 58" fill="none" xmlns="http://www.w3.org/2000/svg">
<path d="M62.1534 30.921C61.6817 30.1713 60.9367 29.6559 60.0564 29.4685C59.1762 29.2811 58.2779 29.4451 57.5208 29.937L44.7494 38.3826C44.7194 38.3972 44.6563 38.4177 44.6203 38.4236C44.6052 38.4265 44.5932 38.4294 44.5782 38.4323H44.5752C44.5482 38.4382 44.467 38.4587 44.416 38.4587L30.3257 38.6315H30.3227C29.9412 38.6315 29.6257 38.3298 29.6257 37.955C29.6227 37.5802 29.9352 37.2727 30.3197 37.2698L35.1777 37.2405L39.573 37.2024C40.6005 37.1936 41.5589 36.7866 42.2649 36.0574C42.9709 35.3282 43.3374 34.3765 43.2893 33.372C43.2022 31.4364 41.4898 29.8755 39.4679 29.8755C39.4558 29.8755 39.4438 29.8755 39.4318 29.8755L27.5918 29.981C27.1802 29.9839 26.7716 30.0542 26.3781 30.1918C23.8935 30.7892 16.1754 35.2667 11.7741 37.8964C10.9389 38.3972 10.1908 39.018 9.55392 39.7443L0.85944 49.6833C0.525961 50.064 0.57403 50.635 0.964591 50.9601C1.35515 51.2851 1.94099 51.2383 2.27447 50.8576L10.972 40.9185C11.4827 40.3358 12.0805 39.838 12.7475 39.4368C19.9188 35.1525 25.3236 32.2798 26.8558 31.9401C26.8948 31.9313 26.9339 31.9196 26.9729 31.9049C27.1832 31.8288 27.3995 31.7907 27.6158 31.7878L39.4558 31.6824C39.4619 31.6824 39.4679 31.6824 39.4739 31.6824C40.5134 31.6824 41.3936 32.4701 41.4387 33.4482C41.4627 33.9577 41.2765 34.438 40.9189 34.807C40.5614 35.1759 40.0777 35.3809 39.555 35.3868L35.1627 35.4249L30.3077 35.4541C28.8987 35.4629 27.7601 36.5874 27.7691 37.9609C27.7781 39.3284 28.9227 40.4354 30.3287 40.4354C30.3347 40.4354 30.3408 40.4354 30.3438 40.4354L44.434 40.2626C44.6533 40.2626 44.8426 40.2245 44.9868 40.1923C45.113 40.1689 45.4374 40.0898 45.7319 39.9112C45.7439 39.9053 45.7529 39.8965 45.7649 39.8907L58.5543 31.4334C58.8817 31.2226 59.2723 31.1494 59.6568 31.2314C60.0414 31.3134 60.3659 31.5389 60.5702 31.8639C60.9697 32.4965 60.7564 33.3603 60.0955 33.7879C60.0744 33.8025 60.0534 33.8172 60.0324 33.8318L47.255 43.7357C46.9366 43.9553 46.5851 44.1105 46.2065 44.2042C36.5957 46.5674 30.0343 48.1459 29.4935 48.2249C28.8296 48.3157 22.2111 48.2688 18.1943 48.2161C18.1913 48.2161 18.1853 48.2161 18.1823 48.2161C17.8789 48.2161 17.5935 48.3596 17.4222 48.6027L11.723 56.5709C11.4286 56.9809 11.5338 57.546 11.9544 57.8301C12.1166 57.9414 12.2999 57.9941 12.4831 57.9941C12.7775 57.9941 13.066 57.8594 13.2462 57.6075L18.663 50.0318C21.1776 50.061 28.8356 50.143 29.7549 50.0171C30.5991 49.9 41.8593 47.1414 46.6602 45.9583C47.2701 45.809 47.8409 45.5513 48.3516 45.194C48.3636 45.1852 48.3787 45.1765 48.3907 45.1647L61.159 35.2697C62.6431 34.2916 63.0788 32.3852 62.1534 30.921Z" fill="#172618"/>
<path d="M24.6776 15.3596C24.6205 15.4064 24.5725 15.4621 24.5274 15.5235C21.6763 18.6335 19.9398 22.7304 19.9398 27.2196C19.9398 27.7204 20.3544 28.1245 20.8682 28.1245C21.3819 28.1245 21.7965 27.7204 21.7965 27.2196C21.7965 26.6661 21.8265 26.1185 21.8836 25.5797H28.4571C28.43 26.1185 28.415 26.6661 28.415 27.2196C28.415 27.7204 28.8296 28.1245 29.3433 28.1245C29.8571 28.1245 30.2717 27.7204 30.2717 27.2196C30.2717 26.6661 30.2867 26.1214 30.3167 25.5797H37.0434V27.2196C37.0434 27.7204 37.458 28.1245 37.9717 28.1245C38.4854 28.1245 38.9 27.7204 38.9 27.2196V25.5797H45.6267C45.6567 26.1185 45.6718 26.6661 45.6718 27.2196C45.6718 27.7204 46.0864 28.1245 46.6001 28.1245C47.1138 28.1245 47.5284 27.7204 47.5284 27.2196C47.5284 26.6661 47.5134 26.1185 47.4864 25.5797H54.0598C54.1169 26.1185 54.1469 26.6661 54.1469 27.2196C54.1469 27.7204 54.5615 28.1245 55.0753 28.1245C55.589 28.1245 56.0036 27.7204 56.0036 27.2196C56.0036 22.7304 54.2671 18.6335 51.416 15.5235C51.3709 15.4621 51.3229 15.4064 51.2658 15.3596C47.9671 11.8484 43.2293 9.64331 37.9717 9.64331C32.7142 9.64331 27.9764 11.8484 24.6776 15.3596ZM22.1931 23.7699C22.7579 21.3071 23.9145 19.0611 25.5128 17.181C26.7296 17.7755 28.1086 18.2704 29.5897 18.6657C29.124 20.2295 28.7875 21.9455 28.5953 23.7699H22.1931ZM37.0434 17.8926C35.3069 17.8458 33.6125 17.6642 32.0172 17.3626C33.2519 14.2585 35.0425 12.0973 37.0434 11.579V17.8926ZM43.046 12.2525C45.3323 12.9905 47.3902 14.2116 49.0997 15.793C48.0872 16.2469 46.9666 16.6305 45.7709 16.9468C45.0439 15.0638 44.1185 13.4678 43.046 12.2525ZM43.9263 17.3626C42.331 17.6642 40.6365 17.8458 38.9 17.8926V11.579C40.9009 12.0973 42.6915 14.2585 43.9263 17.3626ZM30.1725 16.9468C28.9738 16.6334 27.8532 16.2469 26.8407 15.793C28.5502 14.2116 30.6081 12.9905 32.8944 12.2525C31.8249 13.4678 30.8996 15.0638 30.1725 16.9468ZM30.4699 23.7699C30.6592 22.1007 30.9837 20.5223 31.4163 19.0874C33.2039 19.4418 35.1026 19.6526 37.0434 19.7053V23.7729H30.4699V23.7699ZM38.9 23.7699V19.7024C40.8408 19.6526 42.7426 19.4388 44.5271 19.0845C44.9597 20.5194 45.2812 22.0978 45.4735 23.767H38.9V23.7699ZM47.3482 23.7699C47.1589 21.9455 46.8194 20.2295 46.3537 18.6628C47.8379 18.2675 49.2139 17.7726 50.4306 17.1781C52.0289 19.0581 53.1825 21.3072 53.7474 23.767H47.3482V23.7699Z" fill="#172618"/>
<path d="M14.3308 15.0814C14.3308 14.5806 13.9162 14.1765 13.4024 14.1765C12.8887 14.1765 12.4741 14.5806 12.4741 15.0814V15.9804C12.4741 16.4812 12.8887 16.8853 13.4024 16.8853C13.9162 16.8853 14.3308 16.4812 14.3308 15.9804V15.0814Z" fill="#172618"/>
<path d="M13.4024 19.8896C12.8887 19.8896 12.4741 20.2938 12.4741 20.7945V21.6935C12.4741 22.1943 12.8887 22.5984 13.4024 22.5984C13.9162 22.5984 14.3308 22.1943 14.3308 21.6935V20.7945C14.3308 20.2938 13.9162 19.8896 13.4024 19.8896Z" fill="#172618"/>
<path d="M10.0106 19.2924H10.9329C11.4466 19.2924 11.8612 18.8883 11.8612 18.3875C11.8612 17.8868 11.4466 17.4827 10.9329 17.4827H10.0106C9.49684 17.4827 9.08224 17.8868 9.08224 18.3875C9.08224 18.8854 9.49684 19.2924 10.0106 19.2924Z" fill="#172618"/>
<path d="M15.872 19.2924H16.7943C17.3081 19.2924 17.7226 18.8883 17.7226 18.3875C17.7226 17.8868 17.3081 17.4827 16.7943 17.4827H15.872C15.3583 17.4827 14.9437 17.8868 14.9437 18.3875C14.9437 18.8854 15.3583 19.2924 15.872 19.2924Z" fill="#172618"/>
<path d="M22.815 2.70878C23.3287 2.70878 23.7433 2.30466 23.7433 1.8039V0.904877C23.7433 0.40412 23.3287 0 22.815 0C22.3012 0 21.8866 0.40412 21.8866 0.904877V1.8039C21.8866 2.30466 22.3012 2.70878 22.815 2.70878Z" fill="#172618"/>
<path d="M22.815 8.42215C23.3287 8.42215 23.7433 8.01803 23.7433 7.51728V6.61826C23.7433 6.1175 23.3287 5.71338 22.815 5.71338C22.3012 5.71338 21.8866 6.1175 21.8866 6.61826V7.51728C21.8866 8.01803 22.3012 8.42215 22.815 8.42215Z" fill="#172618"/>
<path d="M19.4201 5.11591H20.3424C20.8561 5.11591 21.2707 4.71179 21.2707 4.21103C21.2707 3.71027 20.8561 3.30615 20.3424 3.30615H19.4201C18.9063 3.30615 18.4918 3.71027 18.4918 4.21103C18.4918 4.71179 18.9094 5.11591 19.4201 5.11591Z" fill="#172618"/>
<path d="M25.2845 5.11591H26.2068C26.7206 5.11591 27.1352 4.71179 27.1352 4.21103C27.1352 3.71027 26.7206 3.30615 26.2068 3.30615H25.2845C24.7708 3.30615 24.3562 3.71027 24.3562 4.21103C24.3562 4.71179 24.7708 5.11591 25.2845 5.11591Z" fill="#172618"/>
<path d="M56.8959 8.07059C57.4096 8.07059 57.8242 7.66647 57.8242 7.16571V6.26669C57.8242 5.76594 57.4096 5.36182 56.8959 5.36182C56.3821 5.36182 55.9675 5.76594 55.9675 6.26669V7.16571C55.9675 7.66354 56.3821 8.07059 56.8959 8.07059Z" fill="#172618"/>
<path d="M56.8959 13.784C57.4096 13.784 57.8242 13.3799 57.8242 12.8791V11.9801C57.8242 11.4793 57.4096 11.0752 56.8959 11.0752C56.3821 11.0752 55.9675 11.4793 55.9675 11.9801V12.8791C55.9675 13.3799 56.3821 13.784 56.8959 13.784Z" fill="#172618"/>
<path d="M53.504 10.4777H54.4263C54.9401 10.4777 55.3547 10.0736 55.3547 9.57285C55.3547 9.07209 54.9401 8.66797 54.4263 8.66797H53.504C52.9903 8.66797 52.5757 9.07209 52.5757 9.57285C52.5757 10.0736 52.9903 10.4777 53.504 10.4777Z" fill="#172618"/>
<path d="M59.3654 10.4777H60.2877C60.8015 10.4777 61.2161 10.0736 61.2161 9.57285C61.2161 9.07209 60.8015 8.66797 60.2877 8.66797H59.3654C58.8517 8.66797 58.4371 9.07209 58.4371 9.57285C58.4371 10.0736 58.8517 10.4777 59.3654 10.4777Z" fill="#172618"/>
<path d="M32.4258 6.62122C32.9766 6.62122 33.4232 6.18594 33.4232 5.64899C33.4232 5.11204 32.9766 4.67676 32.4258 4.67676C31.8749 4.67676 31.4283 5.11204 31.4283 5.64899C31.4283 6.18594 31.8749 6.62122 32.4258 6.62122Z" fill="#172618"/>
<path d="M50.6589 2.77625C51.2087 2.77625 51.6564 2.34284 51.6564 1.80402C51.6564 1.26519 51.2117 0.831787 50.6589 0.831787C50.1061 0.831787 49.6615 1.26519 49.6615 1.80402C49.6615 2.34284 50.1091 2.77625 50.6589 2.77625Z" fill="#172618"/>
<path d="M60.2878 21.7667C60.8386 21.7667 61.2852 21.3314 61.2852 20.7945C61.2852 20.2575 60.8386 19.8223 60.2878 19.8223C59.7369 19.8223 59.2903 20.2575 59.2903 20.7945C59.2903 21.3314 59.7369 21.7667 60.2878 21.7667Z" fill="#172618"/>
<path d="M13.4024 8.48938C13.9522 8.48938 14.3999 8.05598 14.3999 7.51715C14.3999 6.97833 13.9552 6.54492 13.4024 6.54492C12.8527 6.54492 12.405 6.97833 12.405 7.51715C12.405 8.05598 12.8527 8.48938 13.4024 8.48938Z" fill="#172618"/>
</svg>
