<svg width="58" height="58" viewBox="0 0 58 58" fill="none" xmlns="http://www.w3.org/2000/svg">
<path d="M57.1215 37.9823C56.7599 37.2905 56.2359 36.7158 55.6025 36.2946C55.7594 35.8009 56.1098 34.6962 56.4741 33.5441C57.2448 31.1089 55.8799 28.5006 53.4334 27.7307C50.9952 26.9636 48.3777 28.3137 47.6042 30.7379L45.6761 36.7688L40.1804 35.8427C39.6815 35.759 39.2107 36.0938 39.1266 36.5903C39.0425 37.0868 39.3788 37.5555 39.8777 37.6392L46.1581 38.6964C46.2085 38.7048 46.2618 38.7103 46.3122 38.7103C46.7046 38.7103 47.0605 38.4593 47.1838 38.0743L49.3529 31.2874C49.8238 29.8173 51.4072 28.9972 52.8869 29.463C54.3722 29.9317 55.1989 31.5133 54.7309 32.9918C54.4002 34.0351 54.0807 35.0421 53.9098 35.5861C52.8561 35.3462 51.7603 35.4801 50.7878 35.9822C49.706 36.5429 48.9073 37.4885 48.5374 38.6462L47.5201 41.8458C46.9456 40.995 46.1076 40.3645 45.1128 40.0521L44.9334 39.9963C42.6942 39.2906 40.3093 40.4008 39.3816 42.4902C38.8071 41.6226 37.958 40.981 36.9491 40.6658L36.7725 40.61C34.3708 39.8541 31.7981 41.1847 31.0386 43.5753L30.3856 45.6284L28.6537 44.878C28.1913 44.6772 27.6504 44.8892 27.4486 45.3494C27.2468 45.8097 27.4598 46.3481 27.9222 46.5489L29.8307 47.3774L28.3538 52.0248C28.1773 52.5827 28.1184 53.149 28.1548 53.6985L27.6168 53.347C25.0525 51.6705 21.7623 51.492 19.0299 52.8812C16.0621 54.3903 12.5085 53.8045 10.1852 51.4306L3.22102 44.3061C2.48116 43.5502 2.26536 42.4316 2.66892 41.458L7.34349 30.1827C7.691 29.3459 8.35239 28.7126 9.20995 28.403C10.0675 28.0934 10.9811 28.1547 11.7883 28.576C13.1811 29.304 13.8341 30.9108 13.3408 32.3948L10.7345 40.2502C10.2805 41.617 10.8074 43.1262 12.0125 43.9212L17.6455 47.6313C18.0658 47.9074 18.6348 47.7931 18.915 47.3746C19.1953 46.9562 19.0775 46.3899 18.6572 46.111L14.9383 43.6618L16.5245 42.7831C17.5922 42.1917 18.8365 42.0243 20.0248 42.3144L23.1888 43.0815C23.6792 43.2015 24.1753 42.9002 24.2958 42.4121C24.4163 41.9239 24.1136 41.4301 23.6232 41.3102L20.4592 40.5431C18.8225 40.147 17.1102 40.3757 15.6361 41.1902L13.2175 42.5264L13.0242 42.3981C12.5057 42.055 12.2787 41.405 12.4749 40.8164L15.0812 32.9611C15.8575 30.6235 14.829 28.099 12.6402 26.9552C11.3903 26.3025 9.91338 26.2049 8.5878 26.6847C7.26222 27.1645 6.19166 28.1826 5.65358 29.4826L0.976215 40.7634C0.292406 42.4121 0.659533 44.3006 1.90664 45.5782L8.87365 52.7026C10.6925 54.5633 13.1166 55.5368 15.5828 55.5368C17.0345 55.5368 18.5002 55.1993 19.865 54.5047C22.0118 53.414 24.5985 53.5535 26.6135 54.8701L30.2007 57.2133C30.2595 57.2524 30.3212 57.2803 30.3856 57.3026C30.6799 57.4755 30.9966 57.6234 31.3357 57.7294L31.5122 57.7852C31.969 57.9302 32.4314 57.9972 32.8855 57.9972C34.665 57.9972 36.3269 56.9511 37.064 55.2858C37.6217 56.1254 38.4568 56.7893 39.4937 57.1157L39.6703 57.1715C40.1271 57.3137 40.5895 57.3835 41.0435 57.3835C42.9829 57.3835 44.7877 56.1421 45.4014 54.2062L46.4187 51.0066C46.9932 51.8574 47.8312 52.4879 48.8261 52.8003L49.0026 52.8561C49.4566 52.9983 49.9218 53.0709 50.3843 53.0709C51.1073 53.0709 51.8247 52.8979 52.4861 52.5576C53.5679 51.9969 54.3666 51.0512 54.7365 49.8936L57.4185 41.4469C57.7913 40.292 57.6848 39.059 57.1215 37.9823ZM35.5002 54.2759C35.2788 54.9705 34.8024 55.5368 34.1522 55.8716C33.5048 56.2063 32.7621 56.2705 32.0643 56.0529L31.8878 55.9971C30.4473 55.5452 29.6486 54.0109 30.1026 52.5771L32.7846 44.1304C33.2386 42.6994 34.7799 41.9016 36.2204 42.3535L36.397 42.4093C37.0948 42.6296 37.6637 43.1039 38 43.751C38.3363 44.3954 38.4008 45.1346 38.1822 45.8292L35.5002 54.2759ZM43.6611 53.6622C43.4397 54.3568 42.9632 54.9231 42.3131 55.2579C41.6657 55.5926 40.923 55.6568 40.2252 55.4392L40.0486 55.3834C38.6082 54.9315 37.8094 53.3972 38.2634 51.9634L40.9454 43.5167C41.3994 42.0857 42.9408 41.2879 44.3813 41.7398L44.5607 41.7956C45.2585 42.0159 45.8274 42.4902 46.1637 43.1373C46.5 43.7845 46.5644 44.5209 46.3459 45.2155L43.6611 53.6622ZM55.6782 40.9001L52.9962 49.3468C52.7748 50.0414 52.2984 50.6077 51.6482 50.9424C51.0008 51.2772 50.2581 51.3414 49.5603 51.1238L49.3838 51.068C47.9433 50.6161 47.1446 49.0818 47.5986 47.648L50.2806 39.2013C50.502 38.5067 50.9784 37.9404 51.6286 37.6057C52.2759 37.2709 53.0186 37.2068 53.7164 37.4244L53.8958 37.4802C54.5936 37.7005 55.1625 38.1748 55.4988 38.8219C55.8323 39.4691 55.8968 40.2055 55.6782 40.9001Z" fill="#172618"/>
<path d="M23.4747 39.5919C23.64 39.896 23.9539 40.0689 24.279 40.0689C24.4275 40.0689 24.576 40.0327 24.7162 39.9573L26.9161 38.7662C27.3589 38.5263 27.5243 37.974 27.2833 37.5304C27.0422 37.0897 26.4845 36.9251 26.0418 37.165L23.8418 38.3561C23.399 38.596 23.2336 39.1484 23.4747 39.5919Z" fill="#172618"/>
<path d="M23.3794 13.8054C23.3794 13.4372 23.1552 13.1052 22.8133 12.963C22.4714 12.8207 22.0762 12.8988 21.8156 13.161L20.1061 14.8626C19.7474 15.2197 19.7474 15.7944 20.1061 16.1514C20.4648 16.5057 21.0421 16.5085 21.4008 16.1514L21.5494 16.0036V20.7179C21.5494 21.22 21.9585 21.6301 22.4658 21.6301C22.9702 21.6301 23.3822 21.2228 23.3822 20.7179V13.8054H23.3794Z" fill="#172618"/>
<path d="M22.4097 10.6672H22.519C24.2005 10.6672 25.5709 9.3059 25.5709 7.62939V4.90401C25.5709 3.23029 24.2033 1.86621 22.519 1.86621H22.4097C20.7282 1.86621 19.3578 3.2275 19.3578 4.90401V7.62939C19.3606 9.30311 20.7282 10.6672 22.4097 10.6672ZM21.1906 4.90401C21.1906 4.23453 21.7371 3.69057 22.4097 3.69057H22.519C23.1916 3.69057 23.7381 4.23453 23.7381 4.90401V7.62939C23.7381 8.29888 23.1916 8.84284 22.519 8.84284H22.4097C21.7371 8.84284 21.1906 8.29888 21.1906 7.62939V4.90401Z" fill="#172618"/>
<path d="M32.5996 27.2343C33.1041 27.2343 33.516 26.827 33.516 26.3221V19.4097C33.516 19.0414 33.2918 18.7095 32.9499 18.5672C32.608 18.425 32.2129 18.5031 31.9522 18.7653L30.2427 20.4669C29.884 20.824 29.884 21.3986 30.2427 21.7557C30.6014 22.1127 31.1787 22.1127 31.5375 21.7557L31.686 21.6078V26.3221C31.686 26.827 32.0952 27.2343 32.5996 27.2343Z" fill="#172618"/>
<path d="M31.4758 9.17485L31.6243 9.02701V13.7413C31.6243 14.2434 32.0335 14.6535 32.5407 14.6535C33.0452 14.6535 33.4572 14.2462 33.4572 13.7413V6.82885C33.4572 6.46063 33.233 6.12868 32.891 5.98641C32.5491 5.84415 32.154 5.92225 31.8934 6.18447L30.1838 7.88609C29.8251 8.24315 29.8251 8.81779 30.1838 9.17485C30.5398 9.53191 31.1199 9.53191 31.4758 9.17485Z" fill="#172618"/>
<path d="M32.5464 38.3227H32.6557C34.3372 38.3227 35.7076 36.9614 35.7076 35.2849V32.5595C35.7076 30.8858 34.34 29.5217 32.6557 29.5217H32.5464C30.8649 29.5217 29.4944 30.883 29.4944 32.5595V35.2849C29.4972 36.9614 30.8649 38.3227 32.5464 38.3227ZM31.3273 32.5623C31.3273 31.8928 31.8738 31.3489 32.5464 31.3489H32.6557C33.3283 31.3489 33.8747 31.8928 33.8747 32.5623V35.2877C33.8747 35.9572 33.3283 36.5011 32.6557 36.5011H32.5464C31.8738 36.5011 31.3273 35.9572 31.3273 35.2877V32.5623Z" fill="#172618"/>
<path d="M41.2985 3.69341L41.4471 3.54556V8.25987C41.4471 8.76199 41.8562 9.17205 42.3635 9.17205C42.8679 9.17205 43.2799 8.76478 43.2799 8.25987V1.34741C43.2799 0.979188 43.0557 0.647234 42.7138 0.504967C42.3719 0.362701 41.9795 0.440808 41.7161 0.703024L40.0066 2.40464C39.6479 2.7617 39.6479 3.33634 40.0066 3.69341C40.3625 4.05047 40.9426 4.05047 41.2985 3.69341Z" fill="#172618"/>
<path d="M42.3103 20.135H42.4195C44.101 20.135 45.4715 18.7737 45.4715 17.0972V14.3718C45.4715 12.6981 44.1038 11.334 42.4195 11.334H42.3103C40.6288 11.334 39.2583 12.6953 39.2583 14.3718V17.0972C39.2583 18.7709 40.6259 20.135 42.3103 20.135ZM41.0884 14.3746C41.0884 13.7051 41.6349 13.1611 42.3075 13.1611H42.4167C43.0893 13.1611 43.6358 13.7051 43.6358 14.3746V17.1C43.6358 17.7694 43.0893 18.3134 42.4167 18.3134H42.3075C41.6349 18.3134 41.0884 17.7694 41.0884 17.1V14.3746Z" fill="#172618"/>
<path d="M13.1419 23.7472C13.6463 23.7472 14.0583 23.34 14.0583 22.8351V19.8475C14.0583 19.3454 13.6491 18.9353 13.1419 18.9353C12.6346 18.9353 12.2254 19.3426 12.2254 19.8475V22.8379C12.2254 23.34 12.6346 23.7472 13.1419 23.7472Z" fill="#172618"/>
<path d="M13.1419 12.6589C13.6463 12.6589 14.0583 12.2516 14.0583 11.7467V0.912178C14.0583 0.410062 13.6491 0 13.1419 0C12.6346 0 12.2254 0.407272 12.2254 0.912178V11.7495C12.2254 12.2516 12.6346 12.6589 13.1419 12.6589Z" fill="#172618"/>
<path d="M13.1419 17.1445C13.6463 17.1445 14.0583 16.7372 14.0583 16.2323V15.733C14.0583 15.2309 13.6491 14.8208 13.1419 14.8208C12.6346 14.8208 12.2254 15.2281 12.2254 15.733V16.2323C12.2254 16.7372 12.6346 17.1445 13.1419 17.1445Z" fill="#172618"/>
<path d="M22.4013 28.4031C21.8969 28.4031 21.4849 28.8103 21.4849 29.3153V32.3056C21.4849 32.8078 21.8941 33.2178 22.4013 33.2178C22.9058 33.2178 23.3177 32.8105 23.3177 32.3056V29.3153C23.3177 28.8103 22.9086 28.4031 22.4013 28.4031Z" fill="#172618"/>
<path d="M23.3177 25.2034C23.3177 24.7013 22.9086 24.2913 22.4013 24.2913C21.8969 24.2913 21.4849 24.6985 21.4849 25.2034V25.7028C21.4849 26.2049 21.8941 26.6149 22.4013 26.6149C22.9058 26.6149 23.3177 26.2077 23.3177 25.7028V25.2034Z" fill="#172618"/>
<path d="M9.13709 17.3928C9.64154 17.3928 10.0535 16.9856 10.0535 16.4807V11.002C10.0535 10.4999 9.64434 10.0898 9.13709 10.0898C8.63264 10.0898 8.22067 10.4971 8.22067 11.002V16.4835C8.22067 16.9856 8.62984 17.3928 9.13709 17.3928Z" fill="#172618"/>
<path d="M9.13709 21.5046C9.64154 21.5046 10.0535 21.0973 10.0535 20.5924V20.0931C10.0535 19.591 9.64434 19.1809 9.13709 19.1809C8.63264 19.1809 8.22067 19.5882 8.22067 20.0931V20.5924C8.22067 21.0973 8.62984 21.5046 9.13709 21.5046Z" fill="#172618"/>
<path d="M9.13709 8.67256C9.64154 8.67256 10.0535 8.26529 10.0535 7.76038V7.26105C10.0535 6.75894 9.64434 6.34888 9.13709 6.34888C8.63264 6.34888 8.22067 6.75615 8.22067 7.26105V7.76038C8.22067 8.26529 8.62984 8.67256 9.13709 8.67256Z" fill="#172618"/>
<path d="M49.8097 23.7472C50.3142 23.7472 50.7261 23.34 50.7261 22.8351V19.8475C50.7261 19.3454 50.317 18.9353 49.8097 18.9353C49.3053 18.9353 48.8933 19.3426 48.8933 19.8475V22.8379C48.8961 23.34 49.3053 23.7472 49.8097 23.7472Z" fill="#172618"/>
<path d="M49.8097 12.6589C50.3142 12.6589 50.7261 12.2516 50.7261 11.7467V0.912178C50.7261 0.410062 50.317 0 49.8097 0C49.3053 0 48.8933 0.407272 48.8933 0.912178V11.7495C48.8961 12.2516 49.3053 12.6589 49.8097 12.6589Z" fill="#172618"/>
<path d="M49.8097 17.1445C50.3142 17.1445 50.7261 16.7372 50.7261 16.2323V15.733C50.7261 15.2309 50.317 14.8208 49.8097 14.8208C49.3053 14.8208 48.8933 15.2281 48.8933 15.733V16.2323C48.8961 16.7372 49.3053 17.1445 49.8097 17.1445Z" fill="#172618"/>
<path d="M42.4279 26.7822C41.9235 26.7822 41.5115 27.1895 41.5115 27.6944V30.6848C41.5115 31.1869 41.9207 31.597 42.4279 31.597C42.9324 31.597 43.3444 31.1897 43.3444 30.6848V27.6944C43.3416 27.1923 42.9324 26.7822 42.4279 26.7822Z" fill="#172618"/>
<path d="M43.3416 23.5828C43.3416 23.0807 42.9324 22.6707 42.4251 22.6707C41.9207 22.6707 41.5087 23.0779 41.5087 23.5828V24.0822C41.5087 24.5843 41.9179 24.9943 42.4251 24.9943C42.9296 24.9943 43.3416 24.5871 43.3416 24.0822V23.5828Z" fill="#172618"/>
<path d="M53.8145 17.3928C54.3189 17.3928 54.7309 16.9856 54.7309 16.4807V11.002C54.7309 10.4999 54.3217 10.0898 53.8145 10.0898C53.31 10.0898 52.8981 10.4971 52.8981 11.002V16.4835C52.9009 16.9856 53.31 17.3928 53.8145 17.3928Z" fill="#172618"/>
<path d="M53.8145 21.5046C54.3189 21.5046 54.7309 21.0973 54.7309 20.5924V20.0931C54.7309 19.591 54.3217 19.1809 53.8145 19.1809C53.31 19.1809 52.8981 19.5882 52.8981 20.0931V20.5924C52.9009 21.0973 53.31 21.5046 53.8145 21.5046Z" fill="#172618"/>
<path d="M53.8145 8.67256C54.3189 8.67256 54.7309 8.26529 54.7309 7.76038V7.26105C54.7309 6.75894 54.3217 6.34888 53.8145 6.34888C53.31 6.34888 52.8981 6.75615 52.8981 7.26105V7.76038C52.9009 8.26529 53.31 8.67256 53.8145 8.67256Z" fill="#172618"/>
</svg>
