<svg width="52" height="54" viewBox="0 0 52 54" fill="none" xmlns="http://www.w3.org/2000/svg">
<g clip-path="url(#clip0_686_140)">
<path d="M13.1925 50.1817H16.6446C17.1377 50.1817 17.5366 49.8004 17.5366 49.3289C17.5366 48.8574 17.1377 48.4761 16.6446 48.4761H13.1925C12.6993 48.4761 12.3005 48.8574 12.3005 49.3289C12.3005 49.8004 12.6993 50.1817 13.1925 50.1817Z" fill="#172618"/>
<path d="M47.3065 0H18.2426C15.8792 0 13.9524 1.82671 13.912 4.08884H5.77892C3.00322 4.08884 0.74494 6.24791 0.74494 8.90166V44.8355C0.677569 44.9541 0.637146 45.088 0.637146 45.2323C0.637146 45.3766 0.677569 45.5106 0.74494 45.6291V49.1872C0.74494 51.8409 3.00322 54 5.77892 54H24.0419C26.8176 54 29.0759 51.8409 29.0759 49.1872V35.501C29.0759 35.0295 28.677 34.6482 28.1839 34.6482C27.6907 34.6482 27.2919 35.0295 27.2919 35.501V44.3795H2.52893V11.0375H13.9066V25.9552C13.9066 28.2071 15.8523 30.0415 18.2426 30.0415H19.4095L17.1781 35.7716C17.0515 36.0962 17.1431 36.4646 17.4099 36.6991C17.577 36.8459 17.7952 36.9232 18.0135 36.9232C18.1429 36.9232 18.2722 36.8975 18.3962 36.8408L33.4146 30.0415H47.3092C49.6969 30.0415 51.6371 28.2096 51.6371 25.9552V4.16098C51.6371 1.86793 49.6942 0 47.3065 0ZM27.2919 46.0851V49.1846C27.2919 50.8979 25.834 52.2918 24.0419 52.2918H5.77892C3.98684 52.2918 2.52893 50.8979 2.52893 49.1846V46.0851H27.2919ZM13.9066 9.33193H2.52893V8.90166C2.52893 7.18832 3.98684 5.79446 5.77892 5.79446H13.9066V9.33193ZM49.8505 25.9552C49.8505 27.2667 48.7105 28.3359 47.3065 28.3359H33.2125C33.0804 28.3359 32.9511 28.3642 32.8298 28.4183L19.617 34.4009L21.5303 29.4876C21.6327 29.2248 21.595 28.9336 21.4279 28.7018C21.2608 28.4724 20.9859 28.3359 20.6949 28.3359H18.2453C16.8386 28.3359 15.696 27.2692 15.696 25.9552V4.16098C15.696 2.83153 16.8628 1.70562 18.2453 1.70562H47.3092C48.689 1.70562 49.8532 2.82895 49.8532 4.16098V25.9552H49.8505Z" fill="#172618"/>
<path d="M39.1276 11.9907H36.705C37.1847 11.3157 37.6482 10.45 37.8126 9.4787C37.9257 8.80367 38.0039 8.1003 38.0416 7.38404C38.0767 6.73477 37.826 6.09323 37.3598 5.62432C36.8855 5.14767 36.2468 4.88745 35.5597 4.88745C34.3524 4.88745 33.3229 5.71449 33.1127 6.85071C32.8163 8.44812 32.307 9.59206 31.7141 9.99657C31.3584 10.2362 31.0727 10.3933 30.8221 10.5325C30.2885 10.8262 29.7361 11.1302 29.5636 11.8851C29.4019 12.5859 29.0732 13.4284 28.4102 13.887C28.1327 13.5882 27.7365 13.4001 27.2946 13.4001C27.2892 13.4001 27.2811 13.4001 27.273 13.4001L25.0686 13.4387C24.2359 13.449 23.5703 14.1318 23.5811 14.9563L23.6889 23.6054C23.6942 23.9919 23.8479 24.3552 24.1173 24.6309C24.4003 24.9194 24.7937 25.0817 25.198 25.0817C25.2061 25.0817 25.2141 25.0817 25.2222 25.0817L27.4266 25.0431C27.8389 25.0379 28.2351 24.8627 28.5153 24.5613C28.6582 24.4067 28.7606 24.2289 28.8279 24.0357C29.4289 23.9893 30.2831 23.9636 30.9353 24.0718C31.5578 24.1748 32.21 24.2289 32.8783 24.2289H39.133C40.6987 24.2289 41.9707 23.0128 41.9707 21.5159V14.7038C41.9707 13.9798 41.6743 13.297 41.138 12.7843C40.599 12.2716 39.8849 11.9907 39.1276 11.9907ZM25.4675 23.3684L25.3651 15.1366L27.0197 15.1083L27.1221 23.34L25.4675 23.3684ZM40.1813 21.5133C40.1813 22.0673 39.7097 22.5207 39.1276 22.5207H32.8729C32.3097 22.5207 31.7599 22.4769 31.2398 22.3893C30.461 22.2579 29.5528 22.276 28.898 22.3172L28.8145 15.621C30.0433 15.0954 30.9164 13.9205 31.3018 12.251C31.3665 12.1969 31.5551 12.0912 31.7114 12.0062C31.9701 11.8645 32.3205 11.6713 32.7435 11.3827C33.7595 10.6948 34.4736 9.26743 34.8671 7.14443C34.9264 6.82237 35.2174 6.58791 35.557 6.58791C35.751 6.58791 35.9289 6.66263 36.0636 6.79661C36.1983 6.93058 36.2657 7.10836 36.2576 7.29644C36.2226 7.95086 36.1525 8.5924 36.0501 9.2056C35.7726 10.8494 34.1961 12.1866 34.1799 12.1994C33.9374 12.4004 33.8323 12.707 33.8889 13.0007V15.8786C33.8889 17.1565 33.0912 18.3005 31.8569 18.79L31.3072 19.009C30.8518 19.1894 30.6362 19.6892 30.8248 20.1246C30.9676 20.4518 31.2991 20.6502 31.6494 20.6502C31.7626 20.6502 31.8785 20.6296 31.9917 20.5858L32.5414 20.3668C34.444 19.6119 35.6755 17.8496 35.6755 15.8786V13.6989H39.1303C39.4106 13.6989 39.6774 13.8046 39.8741 13.9927C40.0735 14.1833 40.1813 14.4358 40.1813 14.7038V21.5133Z" fill="#172618"/>
</g>
<defs>
<clipPath id="clip0_686_140">
<rect width="51" height="54" fill="white" transform="translate(0.637146)"/>
</clipPath>
</defs>
</svg>
