<svg width="138" height="118" viewBox="0 0 138 118" fill="none" xmlns="http://www.w3.org/2000/svg">
<g clip-path="url(#clip0_3245_997)">
<g clip-path="url(#clip1_3245_997)">
<path d="M60.7912 53.39L63.6532 53.7861L64.3432 50.745L61.6885 49.881C61.6885 49.8716 61.6885 49.8654 61.6885 49.856C61.6885 48.8423 61.4843 47.8754 61.1161 46.9958L63.1149 45.0775L61.1842 42.6383L58.9565 44.1262C58.1737 43.493 57.2548 43.0158 56.2554 42.7506L56.0233 40.0713H52.9293L52.7003 42.7132C51.6886 42.9565 50.7573 43.415 49.959 44.0357L47.722 42.5385L45.7914 44.9777L47.7499 46.8554C47.3539 47.7444 47.1311 48.7238 47.1187 49.7562L44.4609 50.6202L45.1509 53.6614L47.9541 53.2715C48.3996 54.1199 49.003 54.8716 49.727 55.4829L48.6967 58.2278L51.4844 59.5815L52.9757 57.055C53.4367 57.1486 53.9163 57.1985 54.4052 57.1985C54.8569 57.1985 55.2993 57.1548 55.7294 57.0737L57.2393 59.6345L60.027 58.2808L59.0029 55.5453C59.7269 54.9589 60.3395 54.2228 60.7912 53.39ZM50.4541 49.8591C50.4541 47.6633 52.2208 45.8822 54.399 45.8822C56.5772 45.8822 58.3439 47.6633 58.3439 49.8591C58.3439 52.055 56.5772 53.836 54.399 53.836C52.2208 53.836 50.4541 52.055 50.4541 49.8591Z" fill="#263238"/>
<path d="M72.7497 42.2019L74.9712 42.5107L75.5064 40.1495L73.4458 39.4789C73.4458 39.4726 73.4458 39.4664 73.4458 39.4601C73.4458 38.671 73.288 37.9224 73.0003 37.2393L74.5535 35.7515L73.056 33.8582L71.3264 35.0154C70.7169 34.5225 70.0052 34.1545 69.2286 33.9486L69.0492 31.8682H66.6482L66.4688 33.9206C65.6829 34.1108 64.962 34.4664 64.3401 34.9468L62.6043 33.7864L61.1068 35.6797L62.626 37.1364C62.3197 37.8257 62.1464 38.5868 62.134 39.3884L60.0703 40.059L60.6056 42.4202L62.7807 42.1176C63.1241 42.7758 63.5944 43.3591 64.1575 43.8363L63.3593 45.9667L65.522 47.0178L66.6792 45.0559C67.0381 45.1276 67.4094 45.165 67.7868 45.165C68.1395 45.165 68.483 45.1307 68.814 45.0683L69.9867 47.0584L72.1494 46.0072L71.3542 43.8862C71.9205 43.4214 72.3969 42.8506 72.7497 42.2019ZM64.7237 39.4601C64.7237 37.754 66.0944 36.3722 67.7868 36.3722C69.4793 36.3722 70.8499 37.754 70.8499 39.4601C70.8499 41.1663 69.4793 42.5481 67.7868 42.5481C66.0975 42.5481 64.7237 41.1663 64.7237 39.4601Z" fill="#263238"/>
<path d="M46.2422 76.4092L48.6555 64.9526H50.184L52.6097 76.4092H51.1091L50.5893 73.524H48.275L47.7273 76.4092H46.2422ZM48.4885 72.3793H50.382L49.429 67.2171L48.4885 72.3793Z" fill="#263238"/>
<path d="M56.4177 76.5529C55.706 76.5529 55.1398 76.4001 54.7129 76.0944C54.2859 75.7887 53.9796 75.3427 53.7877 74.7563C53.5959 74.173 53.5 73.4681 53.5 72.6477V68.8143C53.5 67.9753 53.5866 67.261 53.7599 66.6715C53.9332 66.082 54.2426 65.6328 54.685 65.3209C55.1306 65.009 55.7494 64.853 56.5445 64.853C57.2562 64.853 57.8285 64.9747 58.2648 65.2148C58.7011 65.455 59.0167 65.8231 59.2116 66.319C59.4096 66.815 59.5055 67.4388 59.5055 68.1936V68.6178H58.0173V68.2654C58.0173 67.7663 57.9833 67.3577 57.9183 67.0427C57.8533 66.7276 57.7203 66.4906 57.5191 66.3346C57.318 66.1787 57.0024 66.1007 56.5724 66.1007C56.1052 66.1007 55.7648 66.2099 55.5544 66.4251C55.344 66.6434 55.2141 66.9366 55.1615 67.3078C55.1089 67.6821 55.0841 68.1032 55.0841 68.5742V72.8162C55.0841 73.362 55.1244 73.8205 55.2048 74.1886C55.2853 74.5567 55.4369 74.8311 55.6596 75.0089C55.8855 75.1867 56.2011 75.2772 56.6126 75.2772C57.0241 75.2772 57.3428 75.1774 57.5656 74.9809C57.7914 74.7844 57.943 74.4912 58.0297 74.1044C58.1132 73.7176 58.1565 73.2373 58.1565 72.6633V71.8711H56.7116V70.7388H59.5891V76.4094H58.5928L58.4381 75.0931C58.2896 75.5174 58.0544 75.8667 57.7357 76.1412C57.417 76.4157 56.9777 76.5529 56.4177 76.5529Z" fill="#263238"/>
<path d="M61.2969 76.4092V64.9526H62.8532V76.4092H61.2969Z" fill="#263238"/>
<path d="M64.6953 76.4092V64.9526H66.2795V75.2645H69.1848V76.4092H64.6953Z" fill="#263238"/>
<path d="M70.2578 76.4092V64.9526H74.6637V66.141H71.842V69.9308H74.1284V71.063H71.842V75.2645H74.6916V76.4092H70.2578Z" fill="#263238"/>
<path d="M0.15625 97.1562H60.9787C61.2232 97.1562 61.4645 97.153 61.7058 97.1499C71.9099 96.9597 81.4612 92.7987 88.6053 85.4376C95.7587 78.0608 99.6696 68.3166 99.6139 57.9954C99.5582 47.6181 95.5174 37.8832 88.2371 30.5813C81.1147 23.4416 71.6995 19.4429 61.6563 19.2714L62.4484 22.6868L46.7183 13.9875L56.9905 -0.84082L57.9837 3.44175C58.98 3.38561 59.9825 3.35754 60.9787 3.35754C75.4743 3.35754 89.1035 9.02188 99.3633 19.3057C109.623 29.5895 115.316 43.3012 115.393 57.9112C115.471 72.4464 109.963 86.1737 99.8893 96.5604C89.8306 106.932 76.3746 112.789 62.0029 113.058C61.6656 113.064 61.3253 113.067 60.9818 113.067H0.15625" fill="#637B71"/>
<path d="M0.15625 97.1562H60.9787C61.2232 97.1562 61.4645 97.153 61.7058 97.1499C71.9099 96.9597 81.4612 92.7987 88.6053 85.4376C95.7587 78.0608 99.6696 68.3166 99.6139 57.9954C99.5582 47.6181 95.5174 37.8832 88.2371 30.5813C81.1147 23.4416 71.6995 19.4429 61.6563 19.2714L62.4484 22.6868L46.7183 13.9875L56.9905 -0.84082L57.9837 3.44175C58.98 3.38561 59.9825 3.35754 60.9787 3.35754C75.4743 3.35754 89.1035 9.02188 99.3633 19.3057C109.623 29.5895 115.316 43.3012 115.393 57.9112C115.471 72.4464 109.963 86.1737 99.8893 96.5604C89.8306 106.932 76.3746 112.789 62.0029 113.058C61.6656 113.064 61.3253 113.067 60.9818 113.067H0.15625" stroke="#263238" stroke-miterlimit="10" stroke-linecap="round" stroke-linejoin="round"/>
<path d="M0.15625 114.064L5.09123 106.553L0.15625 98.1562" stroke="#263238" stroke-miterlimit="10" stroke-linecap="round" stroke-linejoin="round"/>
<path d="M137.842 105.761L124.492 93.6802V97.8068H104.201C103.502 98.6053 102.784 99.3882 102.038 100.156C96.4102 105.957 89.8354 110.505 82.6634 113.646L82.6016 113.714H124.492V117.841L137.842 105.761Z" stroke="#263238" stroke-miterlimit="10" stroke-linecap="round" stroke-linejoin="round"/>
<path d="M22.2983 59.1669C22.2983 40.9886 34.7487 25.6924 51.5059 21.4722L42.7684 16.1291L50.6953 5.68311C25.7481 10.4835 6.82812 32.6387 6.82812 59.1669C6.82812 72.3827 11.5249 84.5099 19.3187 93.9515H43.6842C31.0204 87.5791 22.2983 74.3821 22.2983 59.1669Z" stroke="#263238" stroke-miterlimit="10" stroke-linecap="round" stroke-linejoin="round"/>
</g>
</g>
<defs>
<clipPath id="clip0_3245_997">
<rect width="138" height="118" fill="white"/>
</clipPath>
<clipPath id="clip1_3245_997">
<rect width="138" height="118" fill="white"/>
</clipPath>
</defs>
</svg>
