<svg width="83" height="82" viewBox="0 0 83 82" fill="none" xmlns="http://www.w3.org/2000/svg">
<path d="M80.5525 0H29.1842C28.2227 0 27.4101 0.809999 27.4101 1.755V6.885H22.2097C21.2481 6.885 20.4355 7.695 20.4355 8.64V13.77H15.2351C14.2735 13.77 13.4609 14.58 13.4609 15.525V79.65C13.4609 80.595 14.2871 81.405 15.2351 81.405H66.6033C67.5648 81.405 68.391 80.595 68.391 79.65V74.52H73.5914C74.553 74.52 75.3791 73.71 75.3791 72.765V67.635H80.5796C81.5411 67.635 82.3672 66.825 82.3672 65.88V1.755C82.2318 0.809999 81.4057 0 80.5796 0H80.5525ZM65.0729 77.625H17.1175V16.875H65.0729V77.625ZM71.9121 70.875H68.4858V15.255C68.4858 14.31 67.6596 13.5 66.7116 13.5H23.9702V10.125H71.9256V70.875H71.9121ZM78.7648 64.125H75.3385V8.505C75.3385 7.56 74.5123 6.75 73.5508 6.75H30.8094V3.375H78.7648V64.125Z" fill="#172618"/>
<path d="M5.20047 20.25C2.32938 20.25 0 22.545 0 25.38V62.505C0 62.775 5.14603e-07 62.91 0.13543 63.18L3.56178 71.685C4.1035 73.035 6.16202 73.035 6.71728 71.685L10.1436 63.18C10.2791 63.045 10.2791 62.775 10.2791 62.505V25.38C10.2791 22.545 7.94968 20.25 5.21402 20.25H5.20047ZM5.20047 23.625C6.16202 23.625 6.97459 24.435 6.97459 25.38V28.755H3.41281V25.38C3.41281 24.435 4.23893 23.625 5.20047 23.625ZM5.20047 66.285L3.41281 62.1V32.13H6.83917V62.235L5.20047 66.285Z" fill="#172618"/>
<path d="M22.3198 31.8602H22.5907V44.6852C22.5907 45.6302 23.4168 46.4402 24.3648 46.4402H29.9851C30.9467 46.4402 31.7592 45.6302 31.7592 44.6852V39.9602C31.7592 38.4752 34.0886 38.4752 34.0886 39.9602V44.6852C34.0886 45.6302 34.9147 46.4402 35.8763 46.4402H41.3612C42.3227 46.4402 43.1488 45.6302 43.1488 44.6852V31.8602H43.5551C45.1938 31.8602 45.8845 29.7002 44.5166 28.7552L34.1022 20.5202C33.4115 19.9802 32.5989 19.9802 31.9082 20.5202L21.2229 28.8902C19.9905 29.8352 20.6811 31.8602 22.3198 31.8602ZM39.4516 43.0652H37.3931V39.9602C37.3931 37.5302 35.3346 35.3702 32.7343 35.3702C30.1341 35.3702 28.0756 37.3952 28.0756 39.9602V43.0652H25.8816V31.9952H39.3026L39.4381 43.0652H39.4516ZM32.7343 24.1652L38.3546 28.6202H27.114L32.7343 24.1652Z" fill="#172618"/>
<path d="M59.9948 25.3799H49.7158C47.5218 25.3799 47.5218 28.7549 49.7158 28.7549H59.9948C62.1888 28.7549 62.1888 25.3799 59.9948 25.3799Z" fill="#172618"/>
<path d="M59.9948 30.375H49.7158C47.5218 30.375 47.5218 33.75 49.7158 33.75H59.9948C62.1888 33.75 62.1888 30.375 59.9948 30.375Z" fill="#172618"/>
<path d="M59.9948 35.5049H49.7158C47.5218 35.5049 47.5218 38.8799 49.7158 38.8799H59.9948C62.1888 38.8799 62.1888 35.5049 59.9948 35.5049Z" fill="#172618"/>
<path d="M59.9948 40.5H49.7158C47.5218 40.5 47.5218 43.875 49.7158 43.875H59.9948C62.1888 43.875 62.1888 40.5 59.9948 40.5Z" fill="#172618"/>
<path d="M59.9937 52.3799H22.3173C20.1234 52.3799 20.1234 55.7549 22.3173 55.7549H59.9937C62.1876 55.7549 62.1876 52.3799 59.9937 52.3799Z" fill="#172618"/>
<path d="M59.9967 57.375H41.0908C38.8968 57.375 38.8968 60.75 41.0908 60.75H59.9967C62.1906 60.75 62.1906 57.375 59.9967 57.375Z" fill="#172618"/>
<path d="M22.3173 65.8799H37.6615C39.8554 65.8799 39.8554 62.5049 37.6615 62.5049H22.3173C19.988 62.5049 19.988 65.8799 22.3173 65.8799Z" fill="#172618"/>
<path d="M59.9989 62.5049H51.372C49.1781 62.5049 49.1781 65.8799 51.372 65.8799H59.9989C62.1928 65.8799 62.1928 62.5049 59.9989 62.5049Z" fill="#172618"/>
<path d="M22.319 60.75H30.8104C33.0044 60.75 33.0044 57.375 30.8104 57.375H22.1836C19.9897 57.375 19.9897 60.75 22.319 60.75Z" fill="#172618"/>
<path d="M59.9937 67.5H22.3173C20.1234 67.5 20.1234 70.875 22.3173 70.875H59.9937C62.1876 70.875 62.1876 67.5 59.9937 67.5Z" fill="#172618"/>
</svg>
