<svg width="483" height="510" viewBox="0 0 483 510" fill="none" xmlns="http://www.w3.org/2000/svg">
<g clip-path="url(#clip0_3214_2914)">
<path d="M174.868 460.989C177.664 462.7 180.48 464.337 183.339 465.88C221.375 486.42 267.388 489.432 305.833 481.046C322.681 477.383 338.761 471.443 353.885 463.823C453.057 413.833 441.517 309.026 460.625 269.773C479.732 230.52 506.942 166.487 457.24 91.119C419.457 33.8139 355.672 -5.68051 282.711 0.669235C274.671 1.36193 266.515 2.61089 258.275 4.45809C242.952 7.9006 227.313 13.3897 211.506 21.1878C166.113 43.5746 136.485 74.7776 117.189 122.763C112.701 133.919 108.728 145.895 98.5863 152.58C91.2187 157.44 82.2747 158.542 85.9427 146.178C90.2413 131.642 69.1792 119.394 52.2056 145.401C23.8601 188.832 32.762 243.744 50.8288 294.605C72.9944 357.032 117.063 425.546 174.868 461.01V460.989Z" fill="#F5F5F5"/>
<g opacity="0.7">
<path d="M174.868 460.989C177.664 462.7 180.48 464.337 183.339 465.88C221.375 486.42 267.388 489.432 305.833 481.046C322.681 477.383 338.761 471.443 353.885 463.823C453.057 413.833 441.517 309.026 460.625 269.773C479.732 230.52 506.942 166.487 457.24 91.119C419.457 33.8139 355.672 -5.68051 282.711 0.669235C274.671 1.36193 266.515 2.61089 258.275 4.45809C242.952 7.9006 227.313 13.3897 211.506 21.1878C166.113 43.5746 136.485 74.7776 117.189 122.763C112.701 133.919 108.728 145.895 98.5863 152.58C91.2187 157.44 82.2747 158.542 85.9427 146.178C90.2413 131.642 69.1792 119.394 52.2056 145.401C23.8601 188.832 32.762 243.744 50.8288 294.605C72.9944 357.032 117.063 425.546 174.868 461.01V460.989Z" fill="#F5F5F5"/>
</g>
<path d="M260.344 156.17V172.207" stroke="#263238" stroke-linecap="round" stroke-linejoin="round"/>
<path d="M268.382 164.188H252.312" stroke="#263238" stroke-linecap="round" stroke-linejoin="round"/>
<path d="M340.711 44.708V69.5088" stroke="#263238" stroke-linecap="round" stroke-linejoin="round"/>
<path d="M353.132 57.1138H328.297" stroke="#263238" stroke-linecap="round" stroke-linejoin="round"/>
<path d="M174.648 31.0327V47.0803" stroke="#263238" stroke-linecap="round" stroke-linejoin="round"/>
<path d="M182.676 39.0615H166.617" stroke="#263238" stroke-linecap="round" stroke-linejoin="round"/>
<path d="M161.867 46.1675V57.4711" stroke="#263238" stroke-linecap="round" stroke-linejoin="round"/>
<path d="M167.522 51.8242H156.203" stroke="#263238" stroke-linecap="round" stroke-linejoin="round"/>
<path d="M460.969 159.854V171.157" stroke="#263238" stroke-linecap="round" stroke-linejoin="round"/>
<path d="M466.624 165.51H455.305" stroke="#263238" stroke-linecap="round" stroke-linejoin="round"/>
<path d="M452.289 137.163V159.235" stroke="#263238" stroke-linecap="round" stroke-linejoin="round"/>
<path d="M463.347 148.193H441.234" stroke="#263238" stroke-linecap="round" stroke-linejoin="round"/>
<path d="M65.2891 332.515V348.562" stroke="#263238" stroke-linecap="round" stroke-linejoin="round"/>
<path d="M73.3198 340.533H57.25" stroke="#263238" stroke-linecap="round" stroke-linejoin="round"/>
<path d="M83.5469 314.641V343.818" stroke="#263238" stroke-linecap="round" stroke-linejoin="round"/>
<path d="M98.1553 329.229H68.9375" stroke="#263238" stroke-linecap="round" stroke-linejoin="round"/>
<path d="M469.164 415.617V429.209" stroke="#263238" stroke-linecap="round" stroke-linejoin="round"/>
<path d="M475.962 422.418H462.352" stroke="#263238" stroke-linecap="round" stroke-linejoin="round"/>
<path d="M497.001 412.836H472.25" stroke="#263238" stroke-linecap="round" stroke-linejoin="round"/>
<path d="M200.398 272.627C200.398 274.873 198.569 276.7 196.32 276.7C194.071 276.7 192.242 274.873 192.242 272.627C192.242 270.381 194.071 268.555 196.32 268.555C198.569 268.555 200.398 270.381 200.398 272.627Z" stroke="#263238" stroke-linecap="round" stroke-linejoin="round"/>
<path d="M91.3544 167.075C92.9913 167.075 94.3183 165.75 94.3183 164.115C94.3183 162.48 92.9913 161.155 91.3544 161.155C89.7176 161.155 88.3906 162.48 88.3906 164.115C88.3906 165.75 89.7176 167.075 91.3544 167.075Z" stroke="#263238" stroke-linecap="round" stroke-linejoin="round"/>
<path d="M103.6 46.3455C105.446 46.3455 106.942 44.8512 106.942 43.008C106.942 41.1647 105.446 39.6704 103.6 39.6704C101.754 39.6704 100.258 41.1647 100.258 43.008C100.258 44.8512 101.754 46.3455 103.6 46.3455Z" stroke="#263238" stroke-linecap="round" stroke-linejoin="round"/>
<path d="M376.931 71.5245C376.931 73.9805 374.934 75.9641 372.485 75.9641C370.036 75.9641 368.039 73.97 368.039 71.5245C368.039 69.0791 370.036 67.085 372.485 67.085C374.934 67.085 376.931 69.0791 376.931 71.5245Z" stroke="#263238" stroke-linecap="round" stroke-linejoin="round"/>
<path d="M175.54 451.512C179.023 451.512 181.846 448.693 181.846 445.215C181.846 441.737 179.023 438.917 175.54 438.917C172.058 438.917 169.234 441.737 169.234 445.215C169.234 448.693 172.058 451.512 175.54 451.512Z" stroke="#263238" stroke-linecap="round" stroke-linejoin="round"/>
<path d="M77.2625 382.253C77.2625 384.089 75.7701 385.59 73.9203 385.59C72.0705 385.59 70.5781 384.1 70.5781 382.253C70.5781 380.405 72.0705 378.915 73.9203 378.915C75.7701 378.915 77.2625 380.405 77.2625 382.253Z" stroke="#263238" stroke-linecap="round" stroke-linejoin="round"/>
<path d="M90.6216 299.296C90.6216 300.724 89.455 301.889 88.0257 301.889C86.5963 301.889 85.4297 300.724 85.4297 299.296C85.4297 297.869 86.5963 296.704 88.0257 296.704C89.455 296.704 90.6216 297.869 90.6216 299.296Z" stroke="#263238" stroke-linecap="round" stroke-linejoin="round"/>
<path d="M463.345 355.961C466.828 355.961 469.651 353.142 469.651 349.664C469.651 346.186 466.828 343.367 463.345 343.367C459.862 343.367 457.039 346.186 457.039 349.664C457.039 353.142 459.862 355.961 463.345 355.961Z" stroke="#263238" stroke-linecap="round" stroke-linejoin="round"/>
<path d="M490.418 190.784C490.418 194.468 487.433 197.448 483.744 197.448C480.055 197.448 477.07 194.468 477.07 190.784C477.07 187.1 480.055 184.119 483.744 184.119C487.433 184.119 490.418 187.1 490.418 190.784Z" stroke="#263238" stroke-linecap="round" stroke-linejoin="round"/>
<path d="M468.161 194.856C468.161 196.693 466.669 198.194 464.819 198.194C462.969 198.194 461.477 196.703 461.477 194.856C461.477 193.009 462.969 191.519 464.819 191.519C466.669 191.519 468.161 193.009 468.161 194.856Z" stroke="#263238" stroke-linecap="round" stroke-linejoin="round"/>
<path d="M302.407 69.0575L298.203 42.1052C288.544 40.7093 278.665 39.9956 268.617 39.9956C259.957 39.9956 251.402 40.5414 243.015 41.5699L236.204 85.294C216.466 89.2507 198.042 96.776 181.563 107.124L145.503 80.8124C130.705 91.8536 117.441 104.847 106.09 119.404L132.239 155.152C121.445 171.336 113.5 189.577 109.044 209.151L64.9016 216.015C63.5037 225.66 62.7891 235.526 62.7891 245.559C62.7891 254.208 63.3356 262.741 64.3656 271.116L108.15 277.917C112.113 297.627 119.648 316.026 130.032 332.483L103.684 368.503C114.74 383.281 127.751 396.526 142.329 407.851L178.115 381.748C194.343 392.527 212.599 400.451 232.189 404.901L239.084 448.982C248.743 450.378 258.622 451.092 268.659 451.092C277.319 451.092 285.875 450.546 294.262 449.518L301.072 405.794C320.81 401.837 339.234 394.311 355.714 383.963L391.773 410.275C406.572 399.234 419.835 386.241 431.186 371.683L405.048 335.936C415.831 319.731 423.776 301.511 428.233 281.937L472.375 275.073C473.773 265.427 474.487 255.562 474.487 245.538C474.487 236.89 473.941 228.347 472.911 219.972L429.126 213.171C428.695 211.008 428.212 208.857 427.686 206.726M424.88 196.735C420.634 183.185 414.654 170.391 407.223 158.615L433.572 122.595C422.515 107.817 409.504 94.5719 394.926 83.2474L359.14 109.35C342.912 98.5707 324.657 90.6362 305.066 86.1861L303.742 77.6953M154.846 305.048C145.492 287.258 140.206 267.012 140.206 245.528C140.206 174.726 197.696 117.316 268.607 117.316C339.518 117.316 397.007 174.726 397.007 245.528C397.007 316.33 339.518 373.751 268.607 373.751C223.109 373.751 183.139 350.115 160.332 314.473" stroke="#263238" stroke-width="1.5" stroke-linecap="round" stroke-linejoin="round"/>
<path d="M302.407 69.0575L298.203 42.1052C288.544 40.7093 278.665 39.9956 268.617 39.9956C259.957 39.9956 251.402 40.5414 243.015 41.5699L236.204 85.294C216.466 89.2507 198.042 96.776 181.563 107.124L145.503 80.8124C130.705 91.8536 117.441 104.847 106.09 119.404L132.239 155.152C121.445 171.336 113.5 189.577 109.044 209.151L64.9016 216.015C63.5037 225.66 62.7891 235.526 62.7891 245.559C62.7891 254.208 63.3356 262.741 64.3656 271.116L108.15 277.917C112.113 297.627 119.648 316.026 130.032 332.483L103.684 368.503C114.74 383.281 127.751 396.526 142.329 407.851L178.115 381.748C194.343 392.527 212.599 400.451 232.189 404.901L239.084 448.982C248.743 450.378 258.622 451.092 268.659 451.092C277.319 451.092 285.875 450.546 294.262 449.518L301.072 405.794C320.81 401.837 339.234 394.311 355.714 383.963L391.773 410.275C406.572 399.234 419.835 386.241 431.186 371.683L405.048 335.936C415.831 319.731 423.776 301.511 428.233 281.937L472.375 275.073C473.773 265.427 474.487 255.562 474.487 245.538C474.487 236.89 473.941 228.347 472.911 219.972L429.126 213.171C428.695 211.008 428.212 208.857 427.686 206.726M424.88 196.735C420.634 183.185 414.654 170.391 407.223 158.615L433.572 122.595C422.515 107.817 409.504 94.5719 394.926 83.2474L359.14 109.35C342.912 98.5707 324.657 90.6362 305.066 86.1861L303.742 77.6953M154.846 305.048C145.492 287.258 140.206 267.012 140.206 245.528C140.206 174.726 197.696 117.316 268.607 117.316C339.518 117.316 397.007 174.726 397.007 245.528C397.007 316.33 339.518 373.751 268.607 373.751C223.109 373.751 183.139 350.115 160.332 314.473" stroke="black" stroke-width="1.5" stroke-linecap="round" stroke-linejoin="round"/>
<path d="M407.613 357.305C435.19 357.305 457.546 334.98 457.546 307.441C457.546 279.902 435.19 257.577 407.613 257.577C380.035 257.577 357.68 279.902 357.68 307.441C357.68 334.98 380.035 357.305 407.613 357.305Z" fill="white"/>
<path d="M407.613 357.305C435.19 357.305 457.546 334.98 457.546 307.441C457.546 279.902 435.19 257.577 407.613 257.577C380.035 257.577 357.68 279.902 357.68 307.441C357.68 334.98 380.035 357.305 407.613 357.305Z" stroke="#263238" stroke-linecap="round" stroke-linejoin="round"/>
<path d="M407.613 357.305C435.19 357.305 457.546 334.98 457.546 307.441C457.546 279.902 435.19 257.577 407.613 257.577C380.035 257.577 357.68 279.902 357.68 307.441C357.68 334.98 380.035 357.305 407.613 357.305Z" stroke="black" stroke-opacity="0.17" stroke-linecap="round" stroke-linejoin="round"/>
<path d="M393.582 302.235L376.461 327.519V334.016H396.955L393.582 302.235Z" fill="#263238"/>
<path d="M393.582 302.235L376.461 327.519V334.016H396.955L393.582 302.235Z" stroke="#263238" stroke-linecap="round" stroke-linejoin="round"/>
<path d="M393.582 302.235L376.461 327.519V334.016H396.955L393.582 302.235Z" stroke="black" stroke-opacity="0.17" stroke-linecap="round" stroke-linejoin="round"/>
<path d="M421.538 302.235L438.659 327.519V334.016H418.164L421.538 302.235Z" fill="#263238"/>
<path d="M421.538 302.235L438.659 327.519V334.016H418.164L421.538 302.235Z" stroke="#263238" stroke-linecap="round" stroke-linejoin="round"/>
<path d="M421.538 302.235L438.659 327.519V334.016H418.164L421.538 302.235Z" stroke="black" stroke-opacity="0.17" stroke-linecap="round" stroke-linejoin="round"/>
<path d="M378.14 324.874H375.008V335.705H378.14V324.874Z" fill="white"/>
<path d="M378.14 324.874H375.008V335.705H378.14V324.874Z" stroke="#263238" stroke-linecap="round" stroke-linejoin="round"/>
<path d="M378.14 324.874H375.008V335.705H378.14V324.874Z" stroke="black" stroke-opacity="0.17" stroke-linecap="round" stroke-linejoin="round"/>
<path d="M439.741 324.874H436.609V335.705H439.741V324.874Z" fill="white"/>
<path d="M439.741 324.874H436.609V335.705H439.741V324.874Z" stroke="#263238" stroke-linecap="round" stroke-linejoin="round"/>
<path d="M439.741 324.874H436.609V335.705H439.741V324.874Z" stroke="black" stroke-opacity="0.17" stroke-linecap="round" stroke-linejoin="round"/>
<path d="M407.61 264.315C403.574 269.437 387.431 292.768 394.546 330.667H420.674C427.789 292.768 411.646 269.437 407.61 264.315Z" fill="white"/>
<path d="M407.61 264.315C403.574 269.437 387.431 292.768 394.546 330.667H420.674C427.789 292.768 411.646 269.437 407.61 264.315Z" stroke="#263238" stroke-linecap="round" stroke-linejoin="round"/>
<path d="M407.61 264.315C403.574 269.437 387.431 292.768 394.546 330.667H420.674C427.789 292.768 411.646 269.437 407.61 264.315Z" stroke="black" stroke-opacity="0.17" stroke-linecap="round" stroke-linejoin="round"/>
<path d="M420.57 330.667H394.547V340.039H420.57V330.667Z" fill="#263238"/>
<path d="M420.57 330.667H394.547V340.039H420.57V330.667Z" stroke="#263238" stroke-linecap="round" stroke-linejoin="round"/>
<path d="M420.57 330.667H394.547V340.039H420.57V330.667Z" stroke="black" stroke-opacity="0.17" stroke-linecap="round" stroke-linejoin="round"/>
<path d="M418.13 300.703C418.13 294.657 413.012 289.798 406.864 290.228C401.735 290.585 397.562 294.689 397.131 299.8C396.89 302.707 397.825 305.394 399.528 307.43C401.073 309.288 401.924 311.628 401.924 314.042V315.48H413.296V314.042C413.296 311.628 414.137 309.288 415.692 307.441C417.216 305.615 418.13 303.274 418.13 300.713V300.703Z" fill="white"/>
<path d="M418.13 300.703C418.13 294.657 413.012 289.798 406.864 290.228C401.735 290.585 397.562 294.689 397.131 299.8C396.89 302.707 397.825 305.394 399.528 307.43C401.073 309.288 401.924 311.628 401.924 314.042V315.48H413.296V314.042C413.296 311.628 414.137 309.288 415.692 307.441C417.216 305.615 418.13 303.274 418.13 300.713V300.703Z" stroke="#263238" stroke-linecap="round" stroke-linejoin="round"/>
<path d="M418.13 300.703C418.13 294.657 413.012 289.798 406.864 290.228C401.735 290.585 397.562 294.689 397.131 299.8C396.89 302.707 397.825 305.394 399.528 307.43C401.073 309.288 401.924 311.628 401.924 314.042V315.48H413.296V314.042C413.296 311.628 414.137 309.288 415.692 307.441C417.216 305.615 418.13 303.274 418.13 300.713V300.703Z" stroke="black" stroke-opacity="0.17" stroke-linecap="round" stroke-linejoin="round"/>
<path d="M406.851 315.312C406.851 315.312 406.178 300.776 405.306 302.067C404.434 303.358 405.695 306.958 407.534 306.821C409.373 306.685 410.824 301.553 409.657 302.067C408.501 302.581 407.723 312.101 408.501 315.186" stroke="#263238" stroke-width="0.75" stroke-linecap="round" stroke-linejoin="round"/>
<path d="M406.851 315.312C406.851 315.312 406.178 300.776 405.306 302.067C404.434 303.358 405.695 306.958 407.534 306.821C409.373 306.685 410.824 301.553 409.657 302.067C408.501 302.581 407.723 312.101 408.501 315.186" stroke="black" stroke-opacity="0.17" stroke-width="0.75" stroke-linecap="round" stroke-linejoin="round"/>
<path d="M413.302 315.47H401.93V318.283H413.302V315.47Z" fill="white"/>
<path d="M413.302 315.47H401.93V318.283H413.302V315.47Z" stroke="#263238" stroke-width="0.75" stroke-linecap="round" stroke-linejoin="round"/>
<path d="M413.302 315.47H401.93V318.283H413.302V315.47Z" stroke="black" stroke-opacity="0.17" stroke-width="0.75" stroke-linecap="round" stroke-linejoin="round"/>
<path d="M401.93 318.293H413.302V318.472C413.302 319.92 412.124 321.106 410.664 321.106H404.568C403.117 321.106 401.93 319.931 401.93 318.472V318.293Z" fill="white"/>
<path d="M401.93 318.293H413.302V318.472C413.302 319.92 412.124 321.106 410.664 321.106H404.568C403.117 321.106 401.93 319.931 401.93 318.472V318.293Z" stroke="#263238" stroke-width="0.75" stroke-linecap="round" stroke-linejoin="round"/>
<path d="M401.93 318.293H413.302V318.472C413.302 319.92 412.124 321.106 410.664 321.106H404.568C403.117 321.106 401.93 319.931 401.93 318.472V318.293Z" stroke="black" stroke-opacity="0.17" stroke-width="0.75" stroke-linecap="round" stroke-linejoin="round"/>
<path d="M409.904 323.058H405.333C404.25 323.058 403.367 322.176 403.367 321.095H411.87C411.87 322.176 410.987 323.058 409.904 323.058Z" fill="#263238"/>
<path d="M409.904 323.058H405.333C404.25 323.058 403.367 322.176 403.367 321.095H411.87C411.87 322.176 410.987 323.058 409.904 323.058Z" stroke="#263238" stroke-linecap="round" stroke-linejoin="round"/>
<path d="M409.904 323.058H405.333C404.25 323.058 403.367 322.176 403.367 321.095H411.87C411.87 322.176 410.987 323.058 409.904 323.058Z" stroke="black" stroke-opacity="0.17" stroke-linecap="round" stroke-linejoin="round"/>
<path d="M208.959 423.063C236.188 418.698 254.717 393.117 250.346 365.926C245.975 338.735 220.359 320.231 193.13 324.596C165.901 328.961 147.372 354.542 151.743 381.733C156.114 408.924 181.73 427.428 208.959 423.063Z" fill="white"/>
<path d="M208.959 423.063C236.188 418.698 254.717 393.117 250.346 365.926C245.975 338.735 220.359 320.231 193.13 324.596C165.901 328.961 147.372 354.542 151.743 381.733C156.114 408.924 181.73 427.428 208.959 423.063Z" stroke="#263238" stroke-linecap="round" stroke-linejoin="round"/>
<path d="M208.959 423.063C236.188 418.698 254.717 393.117 250.346 365.926C245.975 338.735 220.359 320.231 193.13 324.596C165.901 328.961 147.372 354.542 151.743 381.733C156.114 408.924 181.73 427.428 208.959 423.063Z" stroke="black" stroke-linecap="round" stroke-linejoin="round"/>
<path d="M188.093 363.854C188.093 355.048 180.642 347.974 171.687 348.593C164.225 349.108 158.14 355.08 157.509 362.531C157.152 366.772 158.529 370.676 160.998 373.646C163.258 376.343 164.488 379.754 164.488 383.27V385.369H181.052V383.27C181.052 379.754 182.281 376.354 184.53 373.657C186.748 371.001 188.083 367.59 188.083 363.864L188.093 363.854Z" fill="white"/>
<path d="M188.093 363.854C188.093 355.048 180.642 347.974 171.687 348.593C164.225 349.108 158.14 355.08 157.509 362.531C157.152 366.772 158.529 370.676 160.998 373.646C163.258 376.343 164.488 379.754 164.488 383.27V385.369H181.052V383.27C181.052 379.754 182.281 376.354 184.53 373.657C186.748 371.001 188.083 367.59 188.083 363.864L188.093 363.854Z" stroke="#263238" stroke-linecap="round" stroke-linejoin="round"/>
<path d="M188.093 363.854C188.093 355.048 180.642 347.974 171.687 348.593C164.225 349.108 158.14 355.08 157.509 362.531C157.152 366.772 158.529 370.676 160.998 373.646C163.258 376.343 164.488 379.754 164.488 383.27V385.369H181.052V383.27C181.052 379.754 182.281 376.354 184.53 373.657C186.748 371.001 188.083 367.59 188.083 363.864L188.093 363.854Z" stroke="black" stroke-linecap="round" stroke-linejoin="round"/>
<path d="M171.669 385.128C171.669 385.128 170.681 363.969 169.42 365.838C168.148 367.706 169.987 372.953 172.657 372.765C175.337 372.576 177.449 365.082 175.757 365.838C174.065 366.583 172.941 380.447 174.065 384.939" stroke="#263238" stroke-width="0.75" stroke-linecap="round" stroke-linejoin="round"/>
<path d="M171.669 385.128C171.669 385.128 170.681 363.969 169.42 365.838C168.148 367.706 169.987 372.953 172.657 372.765C175.337 372.576 177.449 365.082 175.757 365.838C174.065 366.583 172.941 380.447 174.065 384.939" stroke="black" stroke-width="0.75" stroke-linecap="round" stroke-linejoin="round"/>
<path d="M181.056 385.37H164.492V389.463H181.056V385.37Z" fill="white"/>
<path d="M181.056 385.37H164.492V389.463H181.056V385.37Z" stroke="#263238" stroke-width="0.75" stroke-linecap="round" stroke-linejoin="round"/>
<path d="M181.056 385.37H164.492V389.463H181.056V385.37Z" stroke="black" stroke-width="0.75" stroke-linecap="round" stroke-linejoin="round"/>
<path d="M164.492 389.463H181.056V390.922C181.056 392.37 179.879 393.556 178.418 393.556H167.13C165.68 393.556 164.492 392.381 164.492 390.922V389.463Z" fill="white"/>
<path d="M164.492 389.463H181.056V390.922C181.056 392.37 179.879 393.556 178.418 393.556H167.13C165.68 393.556 164.492 392.381 164.492 390.922V389.463Z" stroke="#263238" stroke-width="0.75" stroke-linecap="round" stroke-linejoin="round"/>
<path d="M164.492 389.463H181.056V390.922C181.056 392.37 179.879 393.556 178.418 393.556H167.13C165.68 393.556 164.492 392.381 164.492 390.922V389.463Z" stroke="black" stroke-width="0.75" stroke-linecap="round" stroke-linejoin="round"/>
<path d="M166.578 393.556H178.959V393.777C178.959 395.225 177.782 396.411 176.321 396.411H169.216C167.766 396.411 166.578 395.235 166.578 393.777V393.556Z" fill="#263238"/>
<path d="M166.578 393.556H178.959V393.777C178.959 395.225 177.782 396.411 176.321 396.411H169.216C167.766 396.411 166.578 395.235 166.578 393.777V393.556Z" stroke="#263238" stroke-linecap="round" stroke-linejoin="round"/>
<path d="M166.578 393.556H178.959V393.777C178.959 395.225 177.782 396.411 176.321 396.411H169.216C167.766 396.411 166.578 395.235 166.578 393.777V393.556Z" stroke="black" stroke-linecap="round" stroke-linejoin="round"/>
<path d="M244.523 363.854C244.523 355.048 237.071 347.974 228.117 348.593C220.655 349.108 214.569 355.08 213.939 362.531C213.581 366.772 214.958 370.676 217.428 373.646C219.688 376.343 220.917 379.754 220.917 383.27V385.369H237.481V383.27C237.481 379.754 238.711 376.354 240.96 373.657C243.178 371.001 244.512 367.59 244.512 363.864L244.523 363.854Z" fill="white"/>
<path d="M244.523 363.854C244.523 355.048 237.071 347.974 228.117 348.593C220.655 349.108 214.569 355.08 213.939 362.531C213.581 366.772 214.958 370.676 217.428 373.646C219.688 376.343 220.917 379.754 220.917 383.27V385.369H237.481V383.27C237.481 379.754 238.711 376.354 240.96 373.657C243.178 371.001 244.512 367.59 244.512 363.864L244.523 363.854Z" stroke="#263238" stroke-linecap="round" stroke-linejoin="round"/>
<path d="M244.523 363.854C244.523 355.048 237.071 347.974 228.117 348.593C220.655 349.108 214.569 355.08 213.939 362.531C213.581 366.772 214.958 370.676 217.428 373.646C219.688 376.343 220.917 379.754 220.917 383.27V385.369H237.481V383.27C237.481 379.754 238.711 376.354 240.96 373.657C243.178 371.001 244.512 367.59 244.512 363.864L244.523 363.854Z" stroke="black" stroke-linecap="round" stroke-linejoin="round"/>
<path d="M228.099 385.128C228.099 385.128 227.111 363.969 225.849 365.838C224.578 367.706 226.417 372.953 229.087 372.765C231.767 372.576 233.879 365.082 232.187 365.838C230.495 366.583 229.37 380.447 230.495 384.939" stroke="#263238" stroke-width="0.75" stroke-linecap="round" stroke-linejoin="round"/>
<path d="M228.099 385.128C228.099 385.128 227.111 363.969 225.849 365.838C224.578 367.706 226.417 372.953 229.087 372.765C231.767 372.576 233.879 365.082 232.187 365.838C230.495 366.583 229.37 380.447 230.495 384.939" stroke="black" stroke-width="0.75" stroke-linecap="round" stroke-linejoin="round"/>
<path d="M237.486 385.37H220.922V389.463H237.486V385.37Z" fill="white"/>
<path d="M237.486 385.37H220.922V389.463H237.486V385.37Z" stroke="#263238" stroke-width="0.75" stroke-linecap="round" stroke-linejoin="round"/>
<path d="M237.486 385.37H220.922V389.463H237.486V385.37Z" stroke="black" stroke-width="0.75" stroke-linecap="round" stroke-linejoin="round"/>
<path d="M220.922 389.463H237.486V390.922C237.486 392.37 236.309 393.556 234.848 393.556H223.56C222.11 393.556 220.922 392.381 220.922 390.922V389.463Z" fill="white"/>
<path d="M220.922 389.463H237.486V390.922C237.486 392.37 236.309 393.556 234.848 393.556H223.56C222.11 393.556 220.922 392.381 220.922 390.922V389.463Z" stroke="#263238" stroke-width="0.75" stroke-linecap="round" stroke-linejoin="round"/>
<path d="M220.922 389.463H237.486V390.922C237.486 392.37 236.309 393.556 234.848 393.556H223.56C222.11 393.556 220.922 392.381 220.922 390.922V389.463Z" stroke="black" stroke-width="0.75" stroke-linecap="round" stroke-linejoin="round"/>
<path d="M223.008 393.556H235.389V393.777C235.389 395.225 234.211 396.411 232.751 396.411H225.646C224.195 396.411 223.008 395.235 223.008 393.777V393.556Z" fill="#263238"/>
<path d="M223.008 393.556H235.389V393.777C235.389 395.225 234.211 396.411 232.751 396.411H225.646C224.195 396.411 223.008 395.235 223.008 393.777V393.556Z" stroke="#263238" stroke-linecap="round" stroke-linejoin="round"/>
<path d="M223.008 393.556H235.389V393.777C235.389 395.225 234.211 396.411 232.751 396.411H225.646C224.195 396.411 223.008 395.235 223.008 393.777V393.556Z" stroke="black" stroke-linecap="round" stroke-linejoin="round"/>
<path d="M198.374 377.86L189.135 372.534L198.374 367.207V377.86Z" fill="#263238"/>
<path d="M198.374 377.86L189.135 372.534L198.374 367.207V377.86Z" stroke="#263238"/>
<path d="M198.374 377.86L189.135 372.534L198.374 367.207V377.86Z" stroke="black"/>
<path d="M195.289 372.534H211.79" stroke="#263238" stroke-width="2" stroke-linecap="round" stroke-linejoin="round"/>
<path d="M195.289 372.534H211.79" stroke="black" stroke-width="2" stroke-linecap="round" stroke-linejoin="round"/>
<path d="M210.785 387.028L201.547 392.354V381.701L210.785 387.028Z" fill="#263238"/>
<path d="M210.785 387.028L201.547 392.354V381.701L210.785 387.028Z" stroke="#263238"/>
<path d="M210.785 387.028L201.547 392.354V381.701L210.785 387.028Z" stroke="black"/>
<path d="M204.634 387.028H188.133" stroke="#263238" stroke-width="2" stroke-linecap="round" stroke-linejoin="round"/>
<path d="M204.634 387.028H188.133" stroke="black" stroke-width="2" stroke-linecap="round" stroke-linejoin="round"/>
<path d="M125.722 289.945C153.299 289.945 175.655 267.62 175.655 240.081C175.655 212.542 153.299 190.217 125.722 190.217C98.1449 190.217 75.7891 212.542 75.7891 240.081C75.7891 267.62 98.1449 289.945 125.722 289.945Z" fill="white"/>
<path d="M125.722 289.945C153.299 289.945 175.655 267.62 175.655 240.081C175.655 212.542 153.299 190.217 125.722 190.217C98.1449 190.217 75.7891 212.542 75.7891 240.081C75.7891 267.62 98.1449 289.945 125.722 289.945Z" stroke="white" stroke-linecap="round" stroke-linejoin="round"/>
<path d="M125.722 289.945C153.299 289.945 175.655 267.62 175.655 240.081C175.655 212.542 153.299 190.217 125.722 190.217C98.1449 190.217 75.7891 212.542 75.7891 240.081C75.7891 267.62 98.1449 289.945 125.722 289.945Z" stroke="black" stroke-linecap="round" stroke-linejoin="round"/>
<path d="M125.724 275.818C145.488 275.818 161.511 259.818 161.511 240.081C161.511 220.344 145.488 204.344 125.724 204.344C105.96 204.344 89.9375 220.344 89.9375 240.081C89.9375 259.818 105.96 275.818 125.724 275.818Z" fill="white"/>
<path d="M125.724 275.818C145.488 275.818 161.511 259.818 161.511 240.081C161.511 220.344 145.488 204.344 125.724 204.344C105.96 204.344 89.9375 220.344 89.9375 240.081C89.9375 259.818 105.96 275.818 125.724 275.818Z" stroke="white" stroke-width="0.75" stroke-linecap="round" stroke-linejoin="round"/>
<path d="M125.724 275.818C145.488 275.818 161.511 259.818 161.511 240.081C161.511 220.344 145.488 204.344 125.724 204.344C105.96 204.344 89.9375 220.344 89.9375 240.081C89.9375 259.818 105.96 275.818 125.724 275.818Z" stroke="black" stroke-width="0.75" stroke-linecap="round" stroke-linejoin="round"/>
<path d="M125.729 265.806C139.956 265.806 151.489 254.288 151.489 240.081C151.489 225.874 139.956 214.357 125.729 214.357C111.502 214.357 99.9688 225.874 99.9688 240.081C99.9688 254.288 111.502 265.806 125.729 265.806Z" fill="white"/>
<path d="M125.729 265.806C139.956 265.806 151.489 254.288 151.489 240.081C151.489 225.874 139.956 214.357 125.729 214.357C111.502 214.357 99.9688 225.874 99.9688 240.081C99.9688 254.288 111.502 265.806 125.729 265.806Z" stroke="white" stroke-linecap="round" stroke-linejoin="round"/>
<path d="M125.729 265.806C139.956 265.806 151.489 254.288 151.489 240.081C151.489 225.874 139.956 214.357 125.729 214.357C111.502 214.357 99.9688 225.874 99.9688 240.081C99.9688 254.288 111.502 265.806 125.729 265.806Z" stroke="black" stroke-linecap="round" stroke-linejoin="round"/>
<path d="M125.724 256.486C134.796 256.486 142.151 249.141 142.151 240.081C142.151 231.021 134.796 223.677 125.724 223.677C116.652 223.677 109.297 231.021 109.297 240.081C109.297 249.141 116.652 256.486 125.724 256.486Z" fill="white"/>
<path d="M125.724 256.486C134.796 256.486 142.151 249.141 142.151 240.081C142.151 231.021 134.796 223.677 125.724 223.677C116.652 223.677 109.297 231.021 109.297 240.081C109.297 249.141 116.652 256.486 125.724 256.486Z" stroke="white" stroke-width="0.75" stroke-linecap="round" stroke-linejoin="round"/>
<path d="M125.724 256.486C134.796 256.486 142.151 249.141 142.151 240.081C142.151 231.021 134.796 223.677 125.724 223.677C116.652 223.677 109.297 231.021 109.297 240.081C109.297 249.141 116.652 256.486 125.724 256.486Z" stroke="black" stroke-width="0.75" stroke-linecap="round" stroke-linejoin="round"/>
<path d="M132.516 240.081C132.516 236.334 129.479 233.301 125.727 233.301C121.975 233.301 118.938 236.334 118.938 240.081C118.938 243.828 121.975 246.861 125.727 246.861C129.479 246.861 132.516 243.828 132.516 240.081Z" fill="white"/>
<path d="M132.516 240.081C132.516 236.334 129.479 233.301 125.727 233.301C121.975 233.301 118.938 236.334 118.938 240.081C118.938 243.828 121.975 246.861 125.727 246.861C129.479 246.861 132.516 243.828 132.516 240.081Z" stroke="white" stroke-linecap="round" stroke-linejoin="round"/>
<path d="M132.516 240.081C132.516 236.334 129.479 233.301 125.727 233.301C121.975 233.301 118.938 236.334 118.938 240.081C118.938 243.828 121.975 246.861 125.727 246.861C129.479 246.861 132.516 243.828 132.516 240.081Z" stroke="black" stroke-linecap="round" stroke-linejoin="round"/>
<path d="M125.727 240.081H170.983" stroke="white" stroke-width="2" stroke-linecap="round" stroke-linejoin="round"/>
<path d="M125.727 240.081H170.983" stroke="black" stroke-width="2" stroke-linecap="round" stroke-linejoin="round"/>
<path d="M156.492 239.241L159.677 234.35H170.67L166.824 239.115L156.492 239.241Z" fill="white"/>
<path d="M156.492 239.241L159.677 234.35H170.67L166.824 239.115L156.492 239.241Z" stroke="white" stroke-linecap="round" stroke-linejoin="round"/>
<path d="M156.492 239.241L159.677 234.35H170.67L166.824 239.115L156.492 239.241Z" stroke="black" stroke-linecap="round" stroke-linejoin="round"/>
<path d="M156.492 240.962L159.677 245.853H170.67L166.824 241.099L156.492 240.962Z" fill="white"/>
<path d="M156.492 240.962L159.677 245.853H170.67L166.824 241.099L156.492 240.962Z" stroke="white" stroke-linecap="round" stroke-linejoin="round"/>
<path d="M156.492 240.962L159.677 245.853H170.67L166.824 241.099L156.492 240.962Z" stroke="black" stroke-linecap="round" stroke-linejoin="round"/>
<path d="M280.238 260.526L276.969 304.628C276.969 304.628 278.094 366.456 280.385 379.849C282.676 393.241 281.867 427.802 283.506 434.992C285.146 442.181 284.484 453.285 284.484 453.285C284.484 453.285 281.867 456.875 282.844 458.837C283.822 460.8 284.158 463.739 284.158 463.739L279.901 467.989C278.262 469.627 269.434 476.48 267.468 478.117C265.503 479.755 265.177 481.056 269.759 482.368C274.342 483.68 286.113 483.344 288.404 482.694C290.695 482.043 295.603 478.443 300.186 477.467C304.768 476.491 308.363 476.491 309.351 475.504C310.328 474.528 309.351 464.075 309.351 464.075C309.351 464.075 310.328 458.848 310.002 457.211C309.676 455.573 306.408 446.757 306.408 446.757C306.408 446.757 309.025 425.525 308.373 413.434C307.721 401.343 309.351 379.124 309.351 379.124C309.351 379.124 309.014 361.492 309.666 359.529C310.317 357.567 314.91 382.714 316.224 386.965C317.538 391.215 329.635 457.253 330.297 458.879C330.949 460.517 330.949 462.805 330.949 462.805C330.949 462.805 329.635 463.455 329.309 465.093C328.983 466.73 329.309 470.645 329.309 470.645C329.309 470.645 328.332 474.57 327.018 476.848C325.704 479.136 317.527 483.386 320.144 486.65C322.761 489.914 330.286 488.938 339.115 487.962C347.943 486.986 355.468 481.098 355.468 481.098C355.468 481.098 357.108 479.461 356.446 475.871C355.794 472.282 354.806 471.621 354.806 470.645C354.806 469.669 355.458 465.093 355.132 461.167C354.806 457.242 352.515 453.611 351.864 450.021C351.212 446.432 349.898 440.544 350.224 437.93C350.55 435.317 351.201 413.424 350.224 406.895C349.247 400.357 346.955 385.338 346.63 379.45C346.304 373.572 350.886 311.166 350.886 311.166L347.786 260.358L280.227 260.526H280.238Z" fill="#263238"/>
<path d="M280.238 260.526L276.969 304.628C276.969 304.628 278.094 366.456 280.385 379.849C282.676 393.241 281.867 427.802 283.506 434.992C285.146 442.181 284.484 453.285 284.484 453.285C284.484 453.285 281.867 456.875 282.844 458.837C283.822 460.8 284.158 463.739 284.158 463.739L279.901 467.989C278.262 469.627 269.434 476.48 267.468 478.117C265.503 479.755 265.177 481.056 269.759 482.368C274.342 483.68 286.113 483.344 288.404 482.694C290.695 482.043 295.603 478.443 300.186 477.467C304.768 476.491 308.363 476.491 309.351 475.504C310.328 474.528 309.351 464.075 309.351 464.075C309.351 464.075 310.328 458.848 310.002 457.211C309.676 455.573 306.408 446.757 306.408 446.757C306.408 446.757 309.025 425.525 308.373 413.434C307.721 401.343 309.351 379.124 309.351 379.124C309.351 379.124 309.014 361.492 309.666 359.529C310.317 357.567 314.91 382.714 316.224 386.965C317.538 391.215 329.635 457.253 330.297 458.879C330.949 460.517 330.949 462.805 330.949 462.805C330.949 462.805 329.635 463.455 329.309 465.093C328.983 466.73 329.309 470.645 329.309 470.645C329.309 470.645 328.332 474.57 327.018 476.848C325.704 479.136 317.527 483.386 320.144 486.65C322.761 489.914 330.286 488.938 339.115 487.962C347.943 486.986 355.468 481.098 355.468 481.098C355.468 481.098 357.108 479.461 356.446 475.871C355.794 472.282 354.806 471.621 354.806 470.645C354.806 469.669 355.458 465.093 355.132 461.167C354.806 457.242 352.515 453.611 351.864 450.021C351.212 446.432 349.898 440.544 350.224 437.93C350.55 435.317 351.201 413.424 350.224 406.895C349.247 400.357 346.955 385.338 346.63 379.45C346.304 373.572 350.886 311.166 350.886 311.166L347.786 260.358L280.227 260.526H280.238Z" stroke="#263238" stroke-linecap="round" stroke-linejoin="round"/>
<path d="M280.238 260.526L276.969 304.628C276.969 304.628 278.094 366.456 280.385 379.849C282.676 393.241 281.867 427.802 283.506 434.992C285.146 442.181 284.484 453.285 284.484 453.285C284.484 453.285 281.867 456.875 282.844 458.837C283.822 460.8 284.158 463.739 284.158 463.739L279.901 467.989C278.262 469.627 269.434 476.48 267.468 478.117C265.503 479.755 265.177 481.056 269.759 482.368C274.342 483.68 286.113 483.344 288.404 482.694C290.695 482.043 295.603 478.443 300.186 477.467C304.768 476.491 308.363 476.491 309.351 475.504C310.328 474.528 309.351 464.075 309.351 464.075C309.351 464.075 310.328 458.848 310.002 457.211C309.676 455.573 306.408 446.757 306.408 446.757C306.408 446.757 309.025 425.525 308.373 413.434C307.721 401.343 309.351 379.124 309.351 379.124C309.351 379.124 309.014 361.492 309.666 359.529C310.317 357.567 314.91 382.714 316.224 386.965C317.538 391.215 329.635 457.253 330.297 458.879C330.949 460.517 330.949 462.805 330.949 462.805C330.949 462.805 329.635 463.455 329.309 465.093C328.983 466.73 329.309 470.645 329.309 470.645C329.309 470.645 328.332 474.57 327.018 476.848C325.704 479.136 317.527 483.386 320.144 486.65C322.761 489.914 330.286 488.938 339.115 487.962C347.943 486.986 355.468 481.098 355.468 481.098C355.468 481.098 357.108 479.461 356.446 475.871C355.794 472.282 354.806 471.621 354.806 470.645C354.806 469.669 355.458 465.093 355.132 461.167C354.806 457.242 352.515 453.611 351.864 450.021C351.212 446.432 349.898 440.544 350.224 437.93C350.55 435.317 351.201 413.424 350.224 406.895C349.247 400.357 346.955 385.338 346.63 379.45C346.304 373.572 350.886 311.166 350.886 311.166L347.786 260.358L280.227 260.526H280.238Z" stroke="#2A2A2A" stroke-linecap="round" stroke-linejoin="round"/>
<path d="M283.189 167.62L270.094 216.739C270.094 216.739 265.617 214.504 264.65 216.099L263.693 217.694L229.441 216.414L227.844 236.554C227.844 236.554 262.737 243.586 266.573 245.182C270.42 246.777 281.623 246.462 281.623 246.462L288.35 174.212L283.2 167.61L283.189 167.62Z" fill="white"/>
<path d="M283.189 167.62L270.094 216.739C270.094 216.739 265.617 214.504 264.65 216.099L263.693 217.694L229.441 216.414L227.844 236.554C227.844 236.554 262.737 243.586 266.573 245.182C270.42 246.777 281.623 246.462 281.623 246.462L288.35 174.212L283.2 167.61L283.189 167.62Z" stroke="#263238" stroke-linecap="round" stroke-linejoin="round"/>
<path d="M283.189 167.62L270.094 216.739C270.094 216.739 265.617 214.504 264.65 216.099L263.693 217.694L229.441 216.414L227.844 236.554C227.844 236.554 262.737 243.586 266.573 245.182C270.42 246.777 281.623 246.462 281.623 246.462L288.35 174.212L283.2 167.61L283.189 167.62Z" stroke="#2A2A2A" stroke-linecap="round" stroke-linejoin="round"/>
<path d="M263.695 217.705L268.992 227.14" stroke="#263238" stroke-linecap="round" stroke-linejoin="round"/>
<path d="M263.695 217.705L268.992 227.14" stroke="#2A2A2A" stroke-linecap="round" stroke-linejoin="round"/>
<path d="M271.758 220.57L274.879 224.38" stroke="#263238" stroke-linecap="round" stroke-linejoin="round"/>
<path d="M271.758 220.57L274.879 224.38" stroke="#2A2A2A" stroke-linecap="round" stroke-linejoin="round"/>
<path d="M222.683 216.057C222.683 216.057 215.074 213.632 213.845 212.866C212.615 212.1 211.228 210.41 208.621 210.106C206.004 209.801 204.932 209.948 202.778 209.801C200.623 209.644 195.547 206.884 194.17 207.041C192.782 207.199 192.015 208.427 192.478 209.801C192.94 211.187 194.012 212.257 195.862 213.024C197.712 213.79 199.551 214.556 199.551 214.556C199.551 214.556 195.242 216.55 194.475 216.707C194.044 216.791 192.173 216.865 182.64 215.784C179.435 215.427 179.33 216.466 179.256 217.012C179.098 218.24 182.02 222.081 185.404 224.537C188.789 226.993 194.012 230.068 196.629 230.373C199.246 230.677 214.927 229.302 214.927 229.302L221.696 230.582L222.694 216.057H222.683Z" fill="#E0E0E0"/>
<path d="M222.683 216.057C222.683 216.057 215.074 213.632 213.845 212.866C212.615 212.1 211.228 210.41 208.621 210.106C206.004 209.801 204.932 209.948 202.778 209.801C200.623 209.644 195.547 206.884 194.17 207.041C192.782 207.199 192.015 208.427 192.478 209.801C192.94 211.187 194.012 212.257 195.862 213.024C197.712 213.79 199.551 214.556 199.551 214.556C199.551 214.556 195.242 216.55 194.475 216.707C194.044 216.791 192.173 216.865 182.64 215.784C179.435 215.427 179.33 216.466 179.256 217.012C179.098 218.24 182.02 222.081 185.404 224.537C188.789 226.993 194.012 230.068 196.629 230.373C199.246 230.677 214.927 229.302 214.927 229.302L221.696 230.582L222.694 216.057H222.683Z" stroke="#263238" stroke-linecap="round" stroke-linejoin="round"/>
<path d="M222.683 216.057C222.683 216.057 215.074 213.632 213.845 212.866C212.615 212.1 211.228 210.41 208.621 210.106C206.004 209.801 204.932 209.948 202.778 209.801C200.623 209.644 195.547 206.884 194.17 207.041C192.782 207.199 192.015 208.427 192.478 209.801C192.94 211.187 194.012 212.257 195.862 213.024C197.712 213.79 199.551 214.556 199.551 214.556C199.551 214.556 195.242 216.55 194.475 216.707C194.044 216.791 192.173 216.865 182.64 215.784C179.435 215.427 179.33 216.466 179.256 217.012C179.098 218.24 182.02 222.081 185.404 224.537C188.789 226.993 194.012 230.068 196.629 230.373C199.246 230.677 214.927 229.302 214.927 229.302L221.696 230.582L222.694 216.057H222.683Z" stroke="#2A2A2A" stroke-linecap="round" stroke-linejoin="round"/>
<path d="M215.843 223.928C215.843 223.928 210.767 221.934 208.77 221.777C206.773 221.619 196.011 226.384 196.011 226.384C196.011 226.384 186.941 222.239 186.173 222.7C185.406 223.162 185.406 224.548 185.406 224.548" stroke="#263238" stroke-linecap="round" stroke-linejoin="round"/>
<path d="M215.843 223.928C215.843 223.928 210.767 221.934 208.77 221.777C206.773 221.619 196.011 226.384 196.011 226.384C196.011 226.384 186.941 222.239 186.173 222.7C185.406 223.162 185.406 224.548 185.406 224.548" stroke="#2A2A2A" stroke-linecap="round" stroke-linejoin="round"/>
<path d="M182.32 221.472C182.32 221.472 182.625 219.321 183.708 219.321C184.79 219.321 195.857 223.162 195.857 223.162L198.474 222.858" stroke="#263238" stroke-linecap="round" stroke-linejoin="round"/>
<path d="M182.32 221.472C182.32 221.472 182.625 219.321 183.708 219.321C184.79 219.321 195.857 223.162 195.857 223.162L198.474 222.858" stroke="#2A2A2A" stroke-linecap="round" stroke-linejoin="round"/>
<path d="M180.172 218.555C180.172 218.555 180.939 217.169 182.936 217.169C184.933 217.169 192.469 219.164 192.469 219.164L197.387 218.859" stroke="#263238" stroke-linecap="round" stroke-linejoin="round"/>
<path d="M180.172 218.555C180.172 218.555 180.939 217.169 182.936 217.169C184.933 217.169 192.469 219.164 192.469 219.164L197.387 218.859" stroke="#2A2A2A" stroke-linecap="round" stroke-linejoin="round"/>
<path d="M229.445 216.424L222.687 216.057L221.594 233.175L227.973 233.354L229.445 216.424Z" stroke="#263238" stroke-linecap="round" stroke-linejoin="round"/>
<path d="M229.445 216.424L222.687 216.057L221.594 233.175L227.973 233.354L229.445 216.424Z" stroke="#2A2A2A" stroke-linecap="round" stroke-linejoin="round"/>
<path d="M314.566 160.231L305.306 159.307C305.306 159.307 280.261 263.202 282.027 263.79C283.792 264.377 320.903 265.847 320.903 265.847L342.995 154.081L336.216 152.611L314.566 160.221V160.231Z" fill="white"/>
<path d="M314.566 160.231L305.306 159.307C305.306 159.307 280.261 263.202 282.027 263.79C283.792 264.377 320.903 265.847 320.903 265.847L342.995 154.081L336.216 152.611L314.566 160.221V160.231Z" stroke="#263238" stroke-linecap="round" stroke-linejoin="round"/>
<path d="M314.566 160.231L305.306 159.307C305.306 159.307 280.261 263.202 282.027 263.79C283.792 264.377 320.903 265.847 320.903 265.847L342.995 154.081L336.216 152.611L314.566 160.221V160.231Z" stroke="#2A2A2A" stroke-linecap="round" stroke-linejoin="round"/>
<path d="M309.198 169.153L310.985 178.745L290.68 261.492L298.478 275.713L310.985 262.121L313.665 178.745L319.687 168.932L314.558 160.231L309.198 169.153Z" fill="white"/>
<path d="M309.198 169.153L310.985 178.745L290.68 261.492L298.478 275.713L310.985 262.121L313.665 178.745L319.687 168.932L314.558 160.231L309.198 169.153Z" stroke="#263238" stroke-linecap="round" stroke-linejoin="round"/>
<path d="M309.198 169.153L310.985 178.745L290.68 261.492L298.478 275.713L310.985 262.121L313.665 178.745L319.687 168.932L314.558 160.231L309.198 169.153Z" stroke="#2A2A2A" stroke-linecap="round" stroke-linejoin="round"/>
<path d="M313.812 164.45L320.581 177.181L341.117 152.653L337.723 149.022L313.812 164.45Z" fill="white"/>
<path d="M313.812 164.45L320.581 177.181L341.117 152.653L337.723 149.022L313.812 164.45Z" stroke="#263238" stroke-linecap="round" stroke-linejoin="round"/>
<path d="M313.812 164.45L320.581 177.181L341.117 152.653L337.723 149.022L313.812 164.45Z" stroke="#2A2A2A" stroke-linecap="round" stroke-linejoin="round"/>
<path d="M313.812 164.451L305.625 173.834L310.785 158.237L313.812 164.451Z" fill="white"/>
<path d="M313.812 164.451L305.625 173.834L310.785 158.237L313.812 164.451Z" stroke="#263238" stroke-linecap="round" stroke-linejoin="round"/>
<path d="M313.812 164.451L305.625 173.834L310.785 158.237L313.812 164.451Z" stroke="#2A2A2A" stroke-linecap="round" stroke-linejoin="round"/>
<path d="M311.294 156.653C311.294 156.653 301.751 180.855 298.514 199.684C295.277 218.513 274.951 291.152 273.773 296.158C272.596 301.154 274.362 302.634 272.596 301.154C270.831 299.685 271.125 291.152 271.713 281.738C272.302 272.323 275.833 250.566 275.833 250.566L281.719 198.509C281.719 198.509 281.719 168.807 283.19 167.631C284.662 166.456 311.294 156.663 311.294 156.663V156.653Z" fill="white"/>
<path d="M311.294 156.653C311.294 156.653 301.751 180.855 298.514 199.684C295.277 218.513 274.951 291.152 273.773 296.158C272.596 301.154 274.362 302.634 272.596 301.154C270.831 299.685 271.125 291.152 271.713 281.738C272.302 272.323 275.833 250.566 275.833 250.566L281.719 198.509C281.719 198.509 281.719 168.807 283.19 167.631C284.662 166.456 311.294 156.663 311.294 156.663V156.653Z" stroke="#263238" stroke-linecap="round" stroke-linejoin="round"/>
<path d="M311.294 156.653C311.294 156.653 301.751 180.855 298.514 199.684C295.277 218.513 274.951 291.152 273.773 296.158C272.596 301.154 274.362 302.634 272.596 301.154C270.831 299.685 271.125 291.152 271.713 281.738C272.302 272.323 275.833 250.566 275.833 250.566L281.719 198.509C281.719 198.509 281.719 168.807 283.19 167.631C284.662 166.456 311.294 156.663 311.294 156.663V156.653Z" stroke="#2A2A2A" stroke-linecap="round" stroke-linejoin="round"/>
<path d="M305.291 159.318L300.667 168.764L303.116 171.21L297.735 180.498L296.516 201.5" stroke="#263238" stroke-linecap="round" stroke-linejoin="round"/>
<path d="M305.291 159.318L300.667 168.764L303.116 171.21L297.735 180.498L296.516 201.5" stroke="#2A2A2A" stroke-linecap="round" stroke-linejoin="round"/>
<path d="M341.118 152.654C341.118 152.654 326.194 179.386 321.181 194.972C316.167 210.557 311.459 239.976 312.342 245.854C313.225 251.731 313.424 302.603 314.601 304.072C321.601 312.72 345.816 309.236 354.771 306.633C363.904 303.988 364.703 297.638 364.703 297.638C364.703 297.638 357.104 262.909 356.221 256.139C355.338 249.37 355.044 244.374 355.044 244.374C355.044 244.374 372.123 166.141 371.24 164.377C370.357 162.614 341.108 152.644 341.108 152.644L341.118 152.654Z" fill="white"/>
<path d="M341.118 152.654C341.118 152.654 326.194 179.386 321.181 194.972C316.167 210.557 311.459 239.976 312.342 245.854C313.225 251.731 313.424 302.603 314.601 304.072C321.601 312.72 345.816 309.236 354.771 306.633C363.904 303.988 364.703 297.638 364.703 297.638C364.703 297.638 357.104 262.909 356.221 256.139C355.338 249.37 355.044 244.374 355.044 244.374C355.044 244.374 372.123 166.141 371.24 164.377C370.357 162.614 341.108 152.644 341.108 152.644L341.118 152.654Z" stroke="#263238" stroke-linecap="round" stroke-linejoin="round"/>
<path d="M341.118 152.654C341.118 152.654 326.194 179.386 321.181 194.972C316.167 210.557 311.459 239.976 312.342 245.854C313.225 251.731 313.424 302.603 314.601 304.072C321.601 312.72 345.816 309.236 354.771 306.633C363.904 303.988 364.703 297.638 364.703 297.638C364.703 297.638 357.104 262.909 356.221 256.139C355.338 249.37 355.044 244.374 355.044 244.374C355.044 244.374 372.123 166.141 371.24 164.377C370.357 162.614 341.108 152.644 341.108 152.644L341.118 152.654Z" stroke="#2A2A2A" stroke-linecap="round" stroke-linejoin="round"/>
<path d="M323.629 201.479L319.992 207.125" stroke="#263238" stroke-linecap="round" stroke-linejoin="round"/>
<path d="M323.629 201.479L319.992 207.125" stroke="#2A2A2A" stroke-linecap="round" stroke-linejoin="round"/>
<path d="M347.153 156.558L343.979 166.812L336.149 169.499L340.794 174.873L326.133 197.606" stroke="#263238" stroke-linecap="round" stroke-linejoin="round"/>
<path d="M347.153 156.558L343.979 166.812L336.149 169.499L340.794 174.873L326.133 197.606" stroke="#2A2A2A" stroke-linecap="round" stroke-linejoin="round"/>
<path d="M350.641 186.743L354.173 227.14C354.173 227.14 352.113 227.434 351.524 228.903L350.936 230.373L331.492 233.899L332.964 254.491L366.249 249.789C366.249 249.789 375.382 249.789 378.619 247.438C381.856 245.087 384.505 238.905 384.505 235.379C384.505 231.852 381.814 222.826 381.814 222.826L375.382 177.045C375.382 177.045 377.442 171.462 375.088 166.455C372.733 161.459 352.701 158.216 352.701 158.216" fill="white"/>
<path d="M350.641 186.743L354.173 227.14C354.173 227.14 352.113 227.434 351.524 228.903L350.936 230.373L331.492 233.899L332.964 254.491L366.249 249.789C366.249 249.789 375.382 249.789 378.619 247.438C381.856 245.087 384.505 238.905 384.505 235.379C384.505 231.852 381.814 222.826 381.814 222.826L375.382 177.045C375.382 177.045 377.442 171.462 375.088 166.455C372.733 161.459 352.701 158.216 352.701 158.216" stroke="#263238" stroke-linecap="round" stroke-linejoin="round"/>
<path d="M350.641 186.743L354.173 227.14C354.173 227.14 352.113 227.434 351.524 228.903L350.936 230.373L331.492 233.899L332.964 254.491L366.249 249.789C366.249 249.789 375.382 249.789 378.619 247.438C381.856 245.087 384.505 238.905 384.505 235.379C384.505 231.852 381.814 222.826 381.814 222.826L375.382 177.045C375.382 177.045 377.442 171.462 375.088 166.455C372.733 161.459 352.701 158.216 352.701 158.216" stroke="#2A2A2A" stroke-linecap="round" stroke-linejoin="round"/>
<path d="M359.125 194.457C362.32 188.779 367.018 181.023 370.076 178.504" stroke="#263238" stroke-linecap="round" stroke-linejoin="round"/>
<path d="M359.125 194.457C362.32 188.779 367.018 181.023 370.076 178.504" stroke="#2A2A2A" stroke-linecap="round" stroke-linejoin="round"/>
<path d="M355.648 200.859C355.648 200.859 356.479 199.243 357.782 196.871" stroke="#263238" stroke-linecap="round" stroke-linejoin="round"/>
<path d="M355.648 200.859C355.648 200.859 356.479 199.243 357.782 196.871" stroke="#2A2A2A" stroke-linecap="round" stroke-linejoin="round"/>
<path d="M362.719 183.51C362.719 183.51 357.422 190.28 356.234 193.219" stroke="#263238" stroke-linecap="round" stroke-linejoin="round"/>
<path d="M362.719 183.51C362.719 183.51 357.422 190.28 356.234 193.219" stroke="#2A2A2A" stroke-linecap="round" stroke-linejoin="round"/>
<path d="M356.234 227.14L368.605 230.079" stroke="#263238" stroke-linecap="round" stroke-linejoin="round"/>
<path d="M356.234 227.14L368.605 230.079" stroke="#2A2A2A" stroke-linecap="round" stroke-linejoin="round"/>
<path d="M331.492 233.909L325.891 234.497L327.667 252.728L332.67 252.14L331.492 233.909Z" fill="white"/>
<path d="M331.492 233.909L325.891 234.497L327.667 252.728L332.67 252.14L331.492 233.909Z" stroke="#263238" stroke-linecap="round" stroke-linejoin="round"/>
<path d="M331.492 233.909L325.891 234.497L327.667 252.728L332.67 252.14L331.492 233.909Z" stroke="#2A2A2A" stroke-linecap="round" stroke-linejoin="round"/>
<path d="M325.891 234.497C325.891 234.497 312.438 228.83 310.946 228.536C309.453 228.242 307.961 228.83 307.215 229.134C306.468 229.428 302.59 231.37 300.656 231.517C298.722 231.664 297.377 232.262 297.819 233.301C298.271 234.34 300.803 235.39 300.803 235.39C300.803 235.39 298.123 237.625 298.123 238.223C298.123 238.822 299.763 242.243 300.215 242.243C300.667 242.243 301.854 242.841 301.854 242.841C301.854 242.841 304.534 248.205 305.281 249.548C306.027 250.891 308.413 251.185 309.306 251.185C310.199 251.185 313.037 252.077 316.768 251.783C320.499 251.49 327.205 248.803 327.205 248.803L325.891 234.508V234.497Z" fill="#E0E0E0"/>
<path d="M325.891 234.497C325.891 234.497 312.438 228.83 310.946 228.536C309.453 228.242 307.961 228.83 307.215 229.134C306.468 229.428 302.59 231.37 300.656 231.517C298.722 231.664 297.377 232.262 297.819 233.301C298.271 234.34 300.803 235.39 300.803 235.39C300.803 235.39 298.123 237.625 298.123 238.223C298.123 238.822 299.763 242.243 300.215 242.243C300.667 242.243 301.854 242.841 301.854 242.841C301.854 242.841 304.534 248.205 305.281 249.548C306.027 250.891 308.413 251.185 309.306 251.185C310.199 251.185 313.037 252.077 316.768 251.783C320.499 251.49 327.205 248.803 327.205 248.803L325.891 234.508V234.497Z" stroke="#263238" stroke-linecap="round" stroke-linejoin="round"/>
<path d="M325.891 234.497C325.891 234.497 312.438 228.83 310.946 228.536C309.453 228.242 307.961 228.83 307.215 229.134C306.468 229.428 302.59 231.37 300.656 231.517C298.722 231.664 297.377 232.262 297.819 233.301C298.271 234.34 300.803 235.39 300.803 235.39C300.803 235.39 298.123 237.625 298.123 238.223C298.123 238.822 299.763 242.243 300.215 242.243C300.667 242.243 301.854 242.841 301.854 242.841C301.854 242.841 304.534 248.205 305.281 249.548C306.027 250.891 308.413 251.185 309.306 251.185C310.199 251.185 313.037 252.077 316.768 251.783C320.499 251.49 327.205 248.803 327.205 248.803L325.891 234.508V234.497Z" stroke="#2A2A2A" stroke-linecap="round" stroke-linejoin="round"/>
<path d="M300.812 235.379C300.812 235.379 307.528 231.055 309.609 230.761" stroke="#263238" stroke-linecap="round" stroke-linejoin="round"/>
<path d="M300.812 235.379C300.812 235.379 307.528 231.055 309.609 230.761" stroke="#2A2A2A" stroke-linecap="round" stroke-linejoin="round"/>
<path d="M301.852 242.83C301.852 242.83 304.237 239.85 304.836 239.409C305.435 238.958 307.968 237.772 308.42 237.467" stroke="#263238" stroke-linecap="round" stroke-linejoin="round"/>
<path d="M301.852 242.83C301.852 242.83 304.237 239.85 304.836 239.409C305.435 238.958 307.968 237.772 308.42 237.467" stroke="#2A2A2A" stroke-linecap="round" stroke-linejoin="round"/>
<path d="M303.789 245.801C303.789 245.801 306.469 244.017 307.068 243.565C307.667 243.114 310.494 241.781 310.494 241.781" stroke="#263238" stroke-linecap="round" stroke-linejoin="round"/>
<path d="M303.789 245.801C303.789 245.801 306.469 244.017 307.068 243.565C307.667 243.114 310.494 241.781 310.494 241.781" stroke="#2A2A2A" stroke-linecap="round" stroke-linejoin="round"/>
<path d="M305.281 249.527C305.281 249.527 309.012 246.998 311.545 246.399" stroke="#263238" stroke-linecap="round" stroke-linejoin="round"/>
<path d="M305.281 249.527C305.281 249.527 309.012 246.998 311.545 246.399" stroke="#2A2A2A" stroke-linecap="round" stroke-linejoin="round"/>
<path d="M303.455 107.187C303.455 107.187 297.527 117.326 297.958 118.806C298.379 120.286 298.81 124.725 298.81 124.725C298.81 124.725 291.831 131.904 292.672 133.384C293.523 134.864 297.748 136.763 297.748 136.763C297.748 136.763 297.748 144.163 298.6 146.482C299.451 148.802 298.179 153.661 301.143 154.091C304.107 154.511 309.025 152.538 309.025 152.538L313.839 164.45L337.749 149.022L336.057 139.513C336.057 139.513 338.811 139.303 339.441 137.823C340.072 136.344 343.246 132.964 343.456 131.904C343.666 130.844 349.174 122.605 348.533 117.746C347.902 112.886 341.123 99.578 337.949 97.0381C334.775 94.4982 315.31 92.5985 310.444 93.6586C305.578 94.7186 299.44 101.688 299.44 102.748C299.44 103.808 303.455 107.187 303.455 107.187Z" fill="#E0E0E0"/>
<path d="M303.455 107.187C303.455 107.187 297.527 117.326 297.958 118.806C298.379 120.286 298.81 124.725 298.81 124.725C298.81 124.725 291.831 131.904 292.672 133.384C293.523 134.864 297.748 136.763 297.748 136.763C297.748 136.763 297.748 144.163 298.6 146.482C299.451 148.802 298.179 153.661 301.143 154.091C304.107 154.511 309.025 152.538 309.025 152.538L313.839 164.45L337.749 149.022L336.057 139.513C336.057 139.513 338.811 139.303 339.441 137.823C340.072 136.344 343.246 132.964 343.456 131.904C343.666 130.844 349.174 122.605 348.533 117.746C347.902 112.886 341.123 99.578 337.949 97.0381C334.775 94.4982 315.31 92.5985 310.444 93.6586C305.578 94.7186 299.44 101.688 299.44 102.748C299.44 103.808 303.455 107.187 303.455 107.187Z" stroke="#263238" stroke-linecap="round" stroke-linejoin="round"/>
<path d="M303.455 107.187C303.455 107.187 297.527 117.326 297.958 118.806C298.379 120.286 298.81 124.725 298.81 124.725C298.81 124.725 291.831 131.904 292.672 133.384C293.523 134.864 297.748 136.763 297.748 136.763C297.748 136.763 297.748 144.163 298.6 146.482C299.451 148.802 298.179 153.661 301.143 154.091C304.107 154.511 309.025 152.538 309.025 152.538L313.839 164.45L337.749 149.022L336.057 139.513C336.057 139.513 338.811 139.303 339.441 137.823C340.072 136.344 343.246 132.964 343.456 131.904C343.666 130.844 349.174 122.605 348.533 117.746C347.902 112.886 341.123 99.578 337.949 97.0381C334.775 94.4982 315.31 92.5985 310.444 93.6586C305.578 94.7186 299.44 101.688 299.44 102.748C299.44 103.808 303.455 107.187 303.455 107.187Z" stroke="#2A2A2A" stroke-linecap="round" stroke-linejoin="round"/>
<path d="M348.523 117.756C347.892 112.897 341.113 99.5888 337.95 97.0489C334.776 94.509 315.311 92.6093 310.445 93.6693C308.311 94.1311 305.936 95.7369 303.939 97.4687C302.615 96.9649 301.259 96.5766 300.481 96.6815C298.579 96.9544 299.126 100.198 299.126 100.198C299.126 100.198 296.277 98.98 295.058 100.47C293.839 101.961 298.852 104.805 298.852 104.805C298.852 104.805 296.687 105.351 298.306 106.568C299.924 107.786 303.456 107.187 303.456 107.187C303.456 107.187 311.916 107.817 313.398 107.397C314.88 106.978 321.859 103.168 321.018 104.857C320.167 106.547 313.829 111.197 314.039 112.257C314.25 113.317 315.731 117.326 317.003 118.596C318.275 119.866 322.29 122.395 322.29 122.395C322.29 122.395 322.71 127.465 323.982 127.465C325.254 127.465 326.305 124.085 326.305 124.085C326.305 124.085 329.479 120.286 331.591 124.295C333.704 128.304 334.345 133.594 332.011 135.284C329.689 136.974 326.294 136.974 326.294 136.974C326.294 136.974 329.468 139.513 331.37 139.933C336.205 141.004 338.338 140.469 340.724 136.764C343.604 132.282 349.237 123.34 348.502 117.756H348.523Z" fill="#263238"/>
<path d="M348.523 117.756C347.892 112.897 341.113 99.5888 337.95 97.0489C334.776 94.509 315.311 92.6093 310.445 93.6693C308.311 94.1311 305.936 95.7369 303.939 97.4687C302.615 96.9649 301.259 96.5766 300.481 96.6815C298.579 96.9544 299.126 100.198 299.126 100.198C299.126 100.198 296.277 98.98 295.058 100.47C293.839 101.961 298.852 104.805 298.852 104.805C298.852 104.805 296.687 105.351 298.306 106.568C299.924 107.786 303.456 107.187 303.456 107.187C303.456 107.187 311.916 107.817 313.398 107.397C314.88 106.978 321.859 103.168 321.018 104.857C320.167 106.547 313.829 111.197 314.039 112.257C314.25 113.317 315.731 117.326 317.003 118.596C318.275 119.866 322.29 122.395 322.29 122.395C322.29 122.395 322.71 127.465 323.982 127.465C325.254 127.465 326.305 124.085 326.305 124.085C326.305 124.085 329.479 120.286 331.591 124.295C333.704 128.304 334.345 133.594 332.011 135.284C329.689 136.974 326.294 136.974 326.294 136.974C326.294 136.974 329.468 139.513 331.37 139.933C336.205 141.004 338.338 140.469 340.724 136.764C343.604 132.282 349.237 123.34 348.502 117.756H348.523Z" stroke="#263238" stroke-linecap="round" stroke-linejoin="round"/>
<path d="M348.523 117.756C347.892 112.897 341.113 99.5888 337.95 97.0489C334.776 94.509 315.311 92.6093 310.445 93.6693C308.311 94.1311 305.936 95.7369 303.939 97.4687C302.615 96.9649 301.259 96.5766 300.481 96.6815C298.579 96.9544 299.126 100.198 299.126 100.198C299.126 100.198 296.277 98.98 295.058 100.47C293.839 101.961 298.852 104.805 298.852 104.805C298.852 104.805 296.687 105.351 298.306 106.568C299.924 107.786 303.456 107.187 303.456 107.187C303.456 107.187 311.916 107.817 313.398 107.397C314.88 106.978 321.859 103.168 321.018 104.857C320.167 106.547 313.829 111.197 314.039 112.257C314.25 113.317 315.731 117.326 317.003 118.596C318.275 119.866 322.29 122.395 322.29 122.395C322.29 122.395 322.71 127.465 323.982 127.465C325.254 127.465 326.305 124.085 326.305 124.085C326.305 124.085 329.479 120.286 331.591 124.295C333.704 128.304 334.345 133.594 332.011 135.284C329.689 136.974 326.294 136.974 326.294 136.974C326.294 136.974 329.468 139.513 331.37 139.933C336.205 141.004 338.338 140.469 340.724 136.764C343.604 132.282 349.237 123.34 348.502 117.756H348.523Z" stroke="#2A2A2A" stroke-linecap="round" stroke-linejoin="round"/>
<path d="M303.143 123.326C303.273 123.326 303.481 123.419 303.685 123.761C303.881 124.092 304.02 124.58 304.02 125.145C304.02 125.711 303.881 126.199 303.685 126.53C303.481 126.871 303.273 126.964 303.143 126.964C303.012 126.964 302.803 126.872 302.6 126.53C302.403 126.199 302.266 125.711 302.266 125.145C302.266 124.58 302.403 124.092 302.6 123.761C302.803 123.419 303.012 123.326 303.143 123.326Z" fill="#263238"/>
<path d="M303.143 123.326C303.273 123.326 303.481 123.419 303.685 123.761C303.881 124.092 304.02 124.58 304.02 125.145C304.02 125.711 303.881 126.199 303.685 126.53C303.481 126.871 303.273 126.964 303.143 126.964C303.012 126.964 302.803 126.872 302.6 126.53C302.403 126.199 302.266 125.711 302.266 125.145C302.266 124.58 302.403 124.092 302.6 123.761C302.803 123.419 303.012 123.326 303.143 123.326Z" stroke="#263238"/>
<path d="M303.143 123.326C303.273 123.326 303.481 123.419 303.685 123.761C303.881 124.092 304.02 124.58 304.02 125.145C304.02 125.711 303.881 126.199 303.685 126.53C303.481 126.871 303.273 126.964 303.143 126.964C303.012 126.964 302.803 126.872 302.6 126.53C302.403 126.199 302.266 125.711 302.266 125.145C302.266 124.58 302.403 124.092 302.6 123.761C302.803 123.419 303.012 123.326 303.143 123.326Z" stroke="#2A2A2A"/>
<path d="M299.648 142.263C299.648 142.263 303.884 142.263 306.417 140.573" stroke="#263238" stroke-linecap="round" stroke-linejoin="round"/>
<path d="M299.648 142.263C299.648 142.263 303.884 142.263 306.417 140.573" stroke="#2A2A2A" stroke-linecap="round" stroke-linejoin="round"/>
<path d="M300.281 120.286C300.281 120.286 303.876 117.966 306.629 120.286" stroke="#263238" stroke-linecap="round" stroke-linejoin="round"/>
<path d="M300.281 120.286C300.281 120.286 303.876 117.966 306.629 120.286" stroke="#2A2A2A" stroke-linecap="round" stroke-linejoin="round"/>
<path d="M309.008 152.538L318.856 148.445L311.288 159.371L309.008 152.538Z" fill="#263238"/>
<path d="M309.008 152.538L318.856 148.445L311.288 159.371L309.008 152.538Z" stroke="#263238" stroke-linecap="round" stroke-linejoin="round"/>
<path d="M309.008 152.538L318.856 148.445L311.288 159.371L309.008 152.538Z" stroke="#2A2A2A" stroke-linecap="round" stroke-linejoin="round"/>
<path d="M310.659 121.745C310.659 121.745 297.91 119.887 297.447 120.968C296.985 122.059 297.29 126.551 297.605 127.643C297.92 128.735 300.558 132.146 304.91 131.369C309.261 130.592 310.196 127.181 310.196 127.181L310.659 121.745Z" stroke="#263238" stroke-linecap="round" stroke-linejoin="round"/>
<path d="M310.659 121.745C310.659 121.745 297.91 119.887 297.447 120.968C296.985 122.059 297.29 126.551 297.605 127.643C297.92 128.735 300.558 132.146 304.91 131.369C309.261 130.592 310.196 127.181 310.196 127.181L310.659 121.745Z" stroke="#2A2A2A" stroke-linecap="round" stroke-linejoin="round"/>
<path d="M310.664 121.745L326.303 124.096" stroke="#263238" stroke-linecap="round" stroke-linejoin="round"/>
<path d="M310.664 121.745L326.303 124.096" stroke="#2A2A2A" stroke-linecap="round" stroke-linejoin="round"/>
<path d="M239.578 110.861C239.578 86.8055 219.22 67.4938 194.763 69.1731C174.374 70.5795 157.757 86.8999 156.044 107.24C155.067 118.806 158.819 129.501 165.587 137.593C171.746 144.971 175.12 154.281 175.12 163.884V169.615H220.355V163.884C220.355 154.291 223.708 144.982 229.866 137.614C235.931 130.372 239.578 121.042 239.578 110.861Z" fill="white"/>
<path d="M239.578 110.861C239.578 86.8055 219.22 67.4938 194.763 69.1731C174.374 70.5795 157.757 86.8999 156.044 107.24C155.067 118.806 158.819 129.501 165.587 137.593C171.746 144.971 175.12 154.281 175.12 163.884V169.615H220.355V163.884C220.355 154.291 223.708 144.982 229.866 137.614C235.931 130.372 239.578 121.042 239.578 110.861Z" stroke="#263238" stroke-linecap="round" stroke-linejoin="round"/>
<path d="M239.578 110.861C239.578 86.8055 219.22 67.4938 194.763 69.1731C174.374 70.5795 157.757 86.8999 156.044 107.24C155.067 118.806 158.819 129.501 165.587 137.593C171.746 144.971 175.12 154.281 175.12 163.884V169.615H220.355V163.884C220.355 154.291 223.708 144.982 229.866 137.614C235.931 130.372 239.578 121.042 239.578 110.861Z" stroke="black" stroke-linecap="round" stroke-linejoin="round"/>
<g opacity="0.58">
<path d="M197.728 81.7427C214.349 81.7427 227.822 95.1987 227.822 111.795C227.822 128.392 214.349 141.847 197.728 141.847C181.106 141.847 167.633 128.392 167.633 111.795C167.633 95.1987 181.106 81.7427 197.728 81.7427Z" fill="white"/>
<path d="M197.728 81.7427C214.349 81.7427 227.822 95.1987 227.822 111.795C227.822 128.392 214.349 141.847 197.728 141.847C181.106 141.847 167.633 128.392 167.633 111.795C167.633 95.1987 181.106 81.7427 197.728 81.7427Z" stroke="#263238"/>
<path d="M197.728 81.7427C214.349 81.7427 227.822 95.1987 227.822 111.795C227.822 128.392 214.349 141.847 197.728 141.847C181.106 141.847 167.633 128.392 167.633 111.795C167.633 95.1987 181.106 81.7427 197.728 81.7427Z" stroke="black"/>
</g>
<path d="M194.709 168.964C194.709 168.964 192.019 111.155 188.55 116.276C185.092 121.388 190.085 135.714 197.4 135.2C204.704 134.685 210.474 114.23 205.86 116.276C201.246 118.323 198.167 156.18 201.246 168.46" stroke="#263238" stroke-width="0.75" stroke-linecap="round" stroke-linejoin="round"/>
<path d="M194.709 168.964C194.709 168.964 192.019 111.155 188.55 116.276C185.092 121.388 190.085 135.714 197.4 135.2C204.704 134.685 210.474 114.23 205.86 116.276C201.246 118.323 198.167 156.18 201.246 168.46" stroke="black" stroke-width="0.75" stroke-linecap="round" stroke-linejoin="round"/>
<path d="M220.344 169.625H175.109V180.802H220.344V169.625Z" fill="white"/>
<path d="M220.344 169.625H175.109V180.802H220.344V169.625Z" stroke="#263238" stroke-width="0.75" stroke-linecap="round" stroke-linejoin="round"/>
<path d="M220.344 169.625H175.109V180.802H220.344V169.625Z" stroke="black" stroke-width="0.75" stroke-linecap="round" stroke-linejoin="round"/>
<path d="M175.109 180.824H220.344V189.367C220.344 190.815 219.167 192.001 217.706 192.001H177.747C176.297 192.001 175.109 190.826 175.109 189.367V180.824Z" fill="white"/>
<path d="M175.109 180.824H220.344V189.367C220.344 190.815 219.167 192.001 217.706 192.001H177.747C176.297 192.001 175.109 190.826 175.109 189.367V180.824Z" stroke="#263238" stroke-width="0.75" stroke-linecap="round" stroke-linejoin="round"/>
<path d="M175.109 180.824H220.344V189.367C220.344 190.815 219.167 192.001 217.706 192.001H177.747C176.297 192.001 175.109 190.826 175.109 189.367V180.824Z" stroke="black" stroke-width="0.75" stroke-linecap="round" stroke-linejoin="round"/>
<path d="M180.812 191.991H214.634V197.165C214.634 198.613 213.457 199.799 211.996 199.799H183.451C182 199.799 180.812 198.624 180.812 197.165V191.991Z" fill="#263238"/>
<path d="M180.812 191.991H214.634V197.165C214.634 198.613 213.457 199.799 211.996 199.799H183.451C182 199.799 180.812 198.624 180.812 197.165V191.991Z" stroke="#263238" stroke-linecap="round" stroke-linejoin="round"/>
<path d="M180.812 191.991H214.634V197.165C214.634 198.613 213.457 199.799 211.996 199.799H183.451C182 199.799 180.812 198.624 180.812 197.165V191.991Z" stroke="black" stroke-linecap="round" stroke-linejoin="round"/>
</g>
<defs>
<clipPath id="clip0_3214_2914">
<rect width="483" height="510" fill="white"/>
</clipPath>
</defs>
</svg>
