<svg width="148" height="96" viewBox="0 0 148 96" fill="none" xmlns="http://www.w3.org/2000/svg">
<path d="M82.3672 5.5874V68.478H36.6953V5.5874H82.3672Z" fill="#9BA7A2" stroke="#5B5B5B" stroke-width="0.5"/>
<path d="M80.3564 7.47412V12.562H37.7734V7.47412H80.3564Z" fill="white" stroke="#5B5B5B" stroke-width="0.5"/>
<path d="M54.2666 15.856V65.7915H38.3984V15.856H54.2666Z" fill="white" stroke="#5B5B5B" stroke-width="0.5"/>
<path d="M52.0938 48.5723V62.7227H39.7812V48.5723H52.0938Z" fill="#9BA7A2" stroke="#5B5B5B" stroke-width="0.5"/>
<path d="M52.0938 19.689V21.2544H39.7812V19.689H52.0938Z" fill="#9BA7A2" stroke="#5B5B5B" stroke-width="0.5"/>
<path d="M52.0938 24.3457V25.9111H39.7812V24.3457H52.0938Z" fill="#9BA7A2" stroke="#5B5B5B" stroke-width="0.5"/>
<path d="M52.0938 29.9336V31.499H39.7812V29.9336H52.0938Z" fill="#9BA7A2" stroke="#5B5B5B" stroke-width="0.5"/>
<path d="M52.0938 34.5903V36.1675H39.7812V34.5903H52.0938Z" fill="#9BA7A2" stroke="#5B5B5B" stroke-width="0.5"/>
<path d="M80.3682 15.856V17.8394H59.3984V15.856H80.3682Z" fill="white" stroke="#5B5B5B" stroke-width="0.5"/>
<path d="M80.3682 20.5127V22.4961H59.3984V20.5127H80.3682Z" fill="white" stroke="#5B5B5B" stroke-width="0.5"/>
<path d="M80.3682 26.1011V28.0845H59.3984V26.1011H80.3682Z" fill="white" stroke="#5B5B5B" stroke-width="0.5"/>
<path d="M80.3682 32.0112V64.3472H59.3984V32.0112H80.3682Z" fill="white" stroke="#5B5B5B" stroke-width="0.5"/>
<path d="M78.9824 35.6294V49.8999H61.2578V35.6294H78.9824Z" fill="#9BA7A2" stroke="#5B5B5B" stroke-width="0.5"/>
<path d="M61.2959 8.87109V11.0098H38.3984V8.87109H61.2959Z" fill="#9BA7A2" stroke="#5B5B5B" stroke-width="0.5"/>
<path d="M79.5176 8.87109V11.0098H70.75V8.87109H79.5176Z" fill="#9BA7A2" stroke="#5B5B5B" stroke-width="0.5"/>
<path d="M8.47168 54.8608V95.563H0.150391V54.8608H8.47168Z" fill="#637B71" stroke="black" stroke-width="0.3"/>
<path d="M19.791 65.6909V95.564H10.5957V65.6909H19.791Z" fill="#637B71" stroke="black" stroke-width="0.3"/>
<path d="M31.124 61.0576V95.5635H22.791V61.0576H31.124Z" fill="#637B71" stroke="black" stroke-width="0.3"/>
<path d="M42.4316 75.3623V95.5635H33.2363V75.3623H42.4316Z" fill="#637B71" stroke="black" stroke-width="0.3"/>
<path d="M121.28 43.8447C111.856 46.3283 106.241 55.9402 108.731 65.3373C111.222 74.7223 120.861 80.3343 130.285 77.8507C139.696 75.3671 145.324 65.7552 142.833 56.3582C140.343 46.9611 130.704 41.3611 121.28 43.8447ZM128.141 69.791C123.184 71.0925 118.119 68.1552 116.802 63.2119C115.497 58.2686 118.454 53.2179 123.399 51.9044C128.357 50.6029 133.422 53.5522 134.727 58.4835C136.032 63.4268 133.087 68.4776 128.129 69.779L128.141 69.791Z" fill="#9BA7A2"/>
<path d="M126.285 46.7583L118.598 48.7762C118.598 48.7762 115.664 43.0091 116.634 41.3494C117.628 39.6299 122.717 38.1493 124.321 39.3314C125.878 40.4658 126.285 46.7583 126.285 46.7583Z" fill="#9BA7A2"/>
<path d="M132.523 73.2178L124.836 75.2476C124.836 75.2476 125.135 81.7073 126.8 82.6745C128.512 83.6655 133.673 82.4596 134.487 80.6446C135.277 78.8894 132.523 73.2178 132.523 73.2178Z" fill="#9BA7A2"/>
<path d="M115.56 50.627L112.47 57.9226C112.47 57.9226 106.1 56.7166 105.382 54.9375C104.639 53.0987 106.567 48.1912 108.483 47.642C110.327 47.1166 115.572 50.627 115.572 50.627H115.56Z" fill="#9BA7A2"/>
<path d="M112.218 61.3852L112.96 69.2777C112.96 69.2777 106.781 71.224 105.297 69.9941C103.764 68.7284 103.129 63.4866 104.554 62.1016C105.931 60.7643 112.218 61.3852 112.218 61.3852Z" fill="#9BA7A2"/>
<path d="M139.97 61.7076L138.258 53.9703C138.258 53.9703 144.149 51.2837 145.778 52.3106C147.454 53.3733 148.735 58.5076 147.49 60.0479C146.292 61.5404 139.97 61.7076 139.97 61.7076Z" fill="#9BA7A2"/>
<path d="M129.391 46.7344L135.701 51.5583C135.701 51.5583 140.634 47.3672 140.383 45.4687C140.119 43.4986 136.012 40.1792 134.084 40.6448C132.217 41.0986 129.391 46.7344 129.391 46.7344Z" fill="#9BA7A2"/>
<path d="M120.97 75.6896L114.672 70.8657C114.672 70.8657 109.727 75.0568 109.978 76.9553C110.241 78.9135 114.349 82.2448 116.288 81.7792C118.156 81.3254 120.97 75.6896 120.97 75.6896Z" fill="#9BA7A2"/>
<path d="M136.371 71.8927L139.461 64.5972C139.461 64.5972 145.831 65.8031 146.549 67.5822C147.292 69.421 145.364 74.3285 143.448 74.8778C141.592 75.4031 136.359 71.8808 136.359 71.8808L136.371 71.8927Z" fill="#9BA7A2"/>
<path d="M116.275 20.561C111.725 21.755 109.007 26.4118 110.204 30.961C111.402 35.5103 116.072 38.2207 120.634 37.0147C125.184 35.8088 127.914 31.164 126.705 26.6147C125.507 22.0655 120.837 19.355 116.275 20.561ZM119.592 33.1103C117.197 33.7431 114.743 32.3222 114.108 29.9222C113.473 27.5342 114.898 25.0864 117.305 24.4536C119.7 23.8207 122.155 25.2536 122.789 27.6416C123.424 30.0297 121.987 32.4774 119.592 33.1103Z" fill="#637B71"/>
<path d="M118.694 21.9699L114.97 22.949C114.97 22.949 113.557 20.167 114.024 19.355C114.503 18.5311 116.97 17.8147 117.748 18.3759C118.503 18.9252 118.694 21.9699 118.694 21.9699Z" fill="#637B71"/>
<path d="M121.716 34.77L117.992 35.7491C117.992 35.7491 118.136 38.8775 118.938 39.3432C119.776 39.8208 122.267 39.2357 122.662 38.364C123.045 37.5163 121.704 34.77 121.704 34.77H121.716Z" fill="#637B71"/>
<path d="M113.512 23.8329L112.015 27.3672C112.015 27.3672 108.938 26.7821 108.579 25.9224C108.22 25.0388 109.154 22.6508 110.076 22.3881C110.974 22.1373 113.512 23.8329 113.512 23.8329Z" fill="#637B71"/>
<path d="M111.897 29.0504L112.256 32.8713C112.256 32.8713 109.262 33.8146 108.544 33.2176C107.801 32.6086 107.49 30.0654 108.185 29.3967C108.855 28.7519 111.897 29.0504 111.897 29.0504Z" fill="#637B71"/>
<path d="M125.318 29.2057L124.492 25.4565C124.492 25.4565 127.342 24.155 128.132 24.6565C128.947 25.1699 129.557 27.6535 128.959 28.4057C128.372 29.1341 125.318 29.2057 125.318 29.2057Z" fill="#637B71"/>
<path d="M120.195 21.9579L123.249 24.2862C123.249 24.2862 125.632 22.2564 125.512 21.337C125.392 20.3818 123.392 18.7818 122.458 18.9967C121.56 19.2116 120.195 21.9459 120.195 21.9459V21.9579Z" fill="#637B71"/>
<path d="M116.134 35.9641L113.081 33.6357C113.081 33.6357 110.686 35.6656 110.818 36.585C110.937 37.5402 112.937 39.1402 113.871 38.9134C114.769 38.6984 116.134 35.9641 116.134 35.9641Z" fill="#637B71"/>
<path d="M123.57 34.1251L125.067 30.5908C125.067 30.5908 128.144 31.1759 128.504 32.0356C128.863 32.9192 127.929 35.3072 127.007 35.5699C126.109 35.8207 123.57 34.1251 123.57 34.1251Z" fill="#637B71"/>
<path d="M30.2256 31.0679H128.006C128.947 31.0679 129.708 31.8295 129.708 32.7524V91.1997C129.708 92.1356 128.946 92.896 128.006 92.896H30.2256C29.2853 92.896 28.5234 92.1356 28.5234 91.1997V32.7524L28.5322 32.5796C28.619 31.7275 29.3421 31.0679 30.2256 31.0679Z" fill="#CCCCCC" stroke="#5B5B5B" stroke-width="0.5"/>
<path d="M123.99 37.2222V87.2075H34.2402V37.2222H123.99Z" fill="white" stroke="#A0A0A0" stroke-width="0.2"/>
<path d="M138.952 90.4189V93.9346C138.952 94.9967 138.087 95.8494 137.031 95.8496H23.3604C22.3049 95.8495 21.4396 94.9968 21.4395 93.9346V90.4189H138.952Z" fill="white" stroke="#5B5B5B" stroke-width="0.3"/>
<g opacity="0.5">
<path d="M119.476 42.2729V87.3394H40.6465V42.2729H119.476Z" fill="white" stroke="black" stroke-width="0.2"/>
<path d="M116.055 43.6221V47.4102H42.5059V43.6221H116.055Z" fill="#172618" stroke="black" stroke-width="0.2"/>
<path d="M71.3721 49.6162V85.4404H43.5527V49.6162H71.3721Z" fill="#172618" stroke="black" stroke-width="0.2"/>
<path d="M67.6729 72.9717V83.2314H45.9355V72.9717H67.6729Z" fill="white" stroke="black" stroke-width="0.2"/>
<path d="M67.6729 52.3506V53.6318H45.9355V52.3506H67.6729Z" fill="white" stroke="black" stroke-width="0.2"/>
<path d="M67.6729 55.6699V56.9512H45.9355V55.6699H67.6729Z" fill="white" stroke="black" stroke-width="0.2"/>
<path d="M67.6729 59.6699V60.9512H45.9355V59.6699H67.6729Z" fill="white" stroke="black" stroke-width="0.2"/>
<path d="M67.6729 62.9893V64.2705H45.9355V62.9893H67.6729Z" fill="white" stroke="black" stroke-width="0.2"/>
<path d="M116.051 49.6162V51.1836H79.5137V49.6162H116.051Z" fill="#172618" stroke="black" stroke-width="0.2"/>
<path d="M116.051 52.9355V54.5146H79.5137V52.9355H116.051Z" fill="#172618" stroke="black" stroke-width="0.2"/>
<path d="M116.051 56.9238V58.5029H79.5137V56.9238H116.051Z" fill="#172618" stroke="black" stroke-width="0.2"/>
<path d="M116.051 61.1387V84.3896H79.5137V61.1387H116.051Z" fill="#172618" stroke="black" stroke-width="0.2"/>
<path d="M113.671 63.7295V74.0732H82.6777V63.7295H113.671Z" fill="white" stroke="black" stroke-width="0.2"/>
<path d="M83.3945 44.625V46.3115H43.5527V44.625H83.3945Z" fill="white" stroke="black" stroke-width="0.2"/>
<path d="M114.602 44.625V46.3115H98.9355V44.625H114.602Z" fill="white" stroke="black" stroke-width="0.2"/>
</g>
<path d="M38.4346 22.0762C49.8105 22.0763 59.0322 31.2749 59.0322 42.6152C59.0321 53.9555 49.8104 63.1532 38.4346 63.1533C27.0587 63.1533 17.8361 53.9555 17.8359 42.6152C17.8359 31.2748 27.0586 22.0762 38.4346 22.0762Z" fill="#C3CDC9" stroke="white"/>
<path d="M55.8847 42.6148C55.8847 52.2267 48.0776 60.0118 38.4385 60.0118C28.7993 60.0118 20.9922 52.2267 20.9922 42.6148C20.9922 33.0028 28.7993 25.2178 38.4385 25.2178C48.0776 25.2178 55.8847 33.0028 55.8847 42.6148Z" fill="white"/>
<path d="M38.4336 29.6104C45.6381 29.6105 51.4756 35.4345 51.4756 42.6152C51.4754 49.7958 45.638 55.619 38.4336 55.6191C31.2291 55.6191 25.3908 49.7959 25.3906 42.6152C25.3906 35.4344 31.229 29.6104 38.4336 29.6104Z" fill="#C3CDC9" stroke="white"/>
<path d="M46.2309 42.6149C46.2309 46.9015 42.7464 50.3881 38.4358 50.3881C34.1251 50.3881 30.6406 46.9134 30.6406 42.6149C30.6406 38.3164 34.1251 34.8418 38.4358 34.8418C42.7464 34.8418 46.2309 38.3164 46.2309 42.6149Z" fill="white"/>
<path d="M38.4521 40.0464C39.8776 40.0464 41.0291 41.1968 41.0293 42.6147C41.0293 44.0328 39.8777 45.1841 38.4521 45.1841C37.0267 45.184 35.875 44.0327 35.875 42.6147C35.8752 41.1969 37.0268 40.0465 38.4521 40.0464Z" fill="#C3CDC9" stroke="white"/>
<path d="M53.817 25.2228L38.0703 42.5278L38.6378 43.0413L54.3846 25.7363L53.817 25.2228Z" fill="#152F27"/>
<path d="M38.7356 42.7942C38.7356 42.9972 38.556 43.1525 38.3405 43.1525C38.1249 43.1525 37.9453 42.9853 37.9453 42.7942C37.9453 42.6032 38.1249 42.436 38.3405 42.436C38.556 42.436 38.7356 42.6032 38.7356 42.7942Z" fill="#003AA5"/>
<path d="M55.0357 20.5137L55.4069 22.9734L58.0891 22.9853L51.4196 31.2122L48.4141 31.7973L48.5218 28.5376L55.0357 20.5137Z" fill="#152F27"/>
<path d="M102.886 26.6382V53.3726L102.861 53.3853V72.5132C102.861 72.8015 102.828 73.0819 102.771 73.3784C102.377 75.1407 100.801 76.4545 98.9209 76.4546C97.0403 76.4546 95.4633 75.1408 95.0693 73.3784L95.0254 73.1831H63.1406V26.6382H102.886Z" fill="white" stroke="#5B5B5B" stroke-width="0.5"/>
<path d="M94.4766 70.5068V72.2637H94.4639V72.5137C94.4639 74.23 95.4387 75.7156 96.8652 76.4551H63.2344V76.4434C62.7673 76.4206 62.3154 76.3292 61.9121 76.1729C60.4667 75.6098 59.4611 74.2642 59.4609 72.7051V70.5068H94.4766Z" fill="#9BA7A2" stroke="#5B5B5B" stroke-width="0.5"/>
<path d="M65.6875 62.9136H65.7713V63.4867H66.0467V63.5584H65.6875V62.9136Z" fill="#9ECAEF"/>
<path d="M66.5009 63.3314C66.5009 63.4866 66.4051 63.5702 66.2973 63.5702C66.1895 63.5702 66.0938 63.4746 66.0938 63.3433C66.0938 63.212 66.1776 63.1045 66.2973 63.1045C66.417 63.1045 66.5009 63.2 66.5009 63.3314ZM66.1536 63.3314C66.1536 63.4269 66.2015 63.5105 66.2973 63.5105C66.3931 63.5105 66.441 63.4269 66.441 63.3194C66.441 63.2358 66.3931 63.1403 66.2973 63.1403C66.2015 63.1403 66.1536 63.2239 66.1536 63.3314Z" fill="#9ECAEF"/>
<path d="M66.5781 63.1167C66.5781 63.1167 66.65 63.1167 66.6859 63.1167C66.7458 63.1167 66.7937 63.1167 66.8176 63.1525C66.8416 63.1764 66.8535 63.2003 66.8535 63.2361C66.8535 63.2958 66.8176 63.3316 66.7697 63.3555C66.7697 63.3555 66.8296 63.4033 66.8416 63.451C66.8535 63.5107 66.8655 63.5585 66.8775 63.5704H66.8176C66.8176 63.5704 66.8056 63.5227 66.7817 63.463C66.7697 63.4033 66.7458 63.3794 66.6979 63.3794H66.638V63.5704H66.5781V63.1286V63.1167ZM66.638 63.3197H66.6979C66.7577 63.3197 66.7937 63.2839 66.7937 63.2361C66.7937 63.1764 66.7458 63.1525 66.6859 63.1525C66.6619 63.1525 66.638 63.1525 66.626 63.1525V63.3197H66.638Z" fill="#9ECAEF"/>
<path d="M67.165 63.3433H66.9974V63.5105H67.189V63.5582H66.9375V63.1045H67.177V63.1523H66.9974V63.2955H67.165V63.3433Z" fill="#9ECAEF"/>
<path d="M67.641 63.3672C67.641 63.3075 67.641 63.2239 67.641 63.1761C67.641 63.1761 67.6051 63.2836 67.5811 63.3433L67.4973 63.5582H67.4494L67.3776 63.3433C67.3536 63.2836 67.3416 63.2239 67.3297 63.1642C67.3297 63.1642 67.3297 63.2955 67.3297 63.3672V63.5582H67.2578L67.2937 63.1045H67.3656L67.4374 63.3194C67.4374 63.3194 67.4733 63.4269 67.4853 63.4746C67.4853 63.4746 67.5093 63.3791 67.5332 63.3194L67.617 63.1045H67.6889L67.7128 63.5582H67.653V63.3672H67.641Z" fill="#9ECAEF"/>
<path d="M68.0599 63.1045V63.5582H68V63.1045H68.0599Z" fill="#9ECAEF"/>
<path d="M68.1562 63.1167C68.1562 63.1167 68.2161 63.1167 68.264 63.1167C68.3239 63.1167 68.3598 63.1286 68.3957 63.1525C68.4197 63.1764 68.4317 63.2003 68.4317 63.248C68.4317 63.2958 68.4317 63.3197 68.3957 63.3436C68.3718 63.3794 68.3119 63.3913 68.264 63.3913C68.252 63.3913 68.2281 63.3913 68.2161 63.3913V63.5704H68.1562V63.1286V63.1167ZM68.2161 63.3316C68.2161 63.3316 68.2401 63.3316 68.264 63.3316C68.3359 63.3316 68.3718 63.2958 68.3718 63.2361C68.3718 63.1764 68.3239 63.1525 68.264 63.1525C68.2401 63.1525 68.2161 63.1525 68.2161 63.1525V63.3316Z" fill="#9ECAEF"/>
<path d="M68.5042 63.4866C68.5042 63.4866 68.564 63.5105 68.6119 63.5105C68.6718 63.5105 68.7077 63.4746 68.7077 63.4388C68.7077 63.403 68.6838 63.3672 68.6239 63.3552C68.5521 63.3314 68.5042 63.2955 68.5042 63.2239C68.5042 63.1523 68.564 63.1045 68.6479 63.1045C68.6957 63.1045 68.7317 63.1045 68.7436 63.1284V63.1761C68.7436 63.1761 68.6838 63.1523 68.6479 63.1523C68.588 63.1523 68.564 63.1881 68.564 63.2239C68.564 63.2717 68.588 63.2836 68.6479 63.3075C68.7197 63.3314 68.7676 63.3791 68.7676 63.4388C68.7676 63.5105 68.7197 63.5702 68.6119 63.5702C68.564 63.5702 68.5161 63.5582 68.4922 63.5463V63.4985L68.5042 63.4866Z" fill="#9ECAEF"/>
<path d="M68.8958 63.1045V63.3672C68.8958 63.4627 68.9437 63.5105 69.0036 63.5105C69.0754 63.5105 69.1113 63.4627 69.1113 63.3672V63.1045H69.1712V63.3672C69.1712 63.5105 69.0994 63.5582 69.0036 63.5582C68.9078 63.5582 68.8359 63.5105 68.8359 63.3672V63.1045H68.8958Z" fill="#9ECAEF"/>
<path d="M69.6566 63.3672C69.6566 63.3075 69.6566 63.2239 69.6566 63.1761C69.6566 63.1761 69.6207 63.2836 69.5967 63.3433L69.5129 63.5582H69.465L69.3932 63.3433C69.3692 63.2836 69.3573 63.2239 69.3453 63.1642C69.3453 63.1642 69.3453 63.2955 69.3453 63.3672V63.5582H69.2734L69.3094 63.1045H69.3812L69.4531 63.3194C69.4531 63.3194 69.489 63.4269 69.5009 63.4746C69.5009 63.4746 69.5249 63.3791 69.5488 63.3194L69.6327 63.1045H69.7045L69.7285 63.5582H69.6686V63.3672H69.6566Z" fill="#9ECAEF"/>
<path d="M70.0156 63.1167C70.0156 63.1167 70.0994 63.1167 70.1354 63.1167C70.2192 63.1167 70.2791 63.1406 70.315 63.1764C70.3509 63.2122 70.3748 63.26 70.3748 63.3316C70.3748 63.4033 70.3509 63.463 70.315 63.5107C70.2791 63.5465 70.2072 63.5704 70.1234 63.5704C70.0755 63.5704 70.0515 63.5704 70.0156 63.5704V63.1286V63.1167ZM70.0755 63.5107C70.0755 63.5107 70.1114 63.5107 70.1354 63.5107C70.2551 63.5107 70.3269 63.4391 70.3269 63.3197C70.3269 63.2122 70.2671 63.1525 70.1473 63.1525C70.1114 63.1525 70.0994 63.1525 70.0755 63.1525V63.5107Z" fill="#9ECAEF"/>
<path d="M70.8368 63.3314C70.8368 63.4866 70.741 63.5702 70.6332 63.5702C70.5255 63.5702 70.4297 63.4746 70.4297 63.3433C70.4297 63.212 70.5135 63.1045 70.6332 63.1045C70.753 63.1045 70.8368 63.2 70.8368 63.3314ZM70.4896 63.3314C70.4896 63.4269 70.5375 63.5105 70.6332 63.5105C70.729 63.5105 70.7769 63.4269 70.7769 63.3194C70.7769 63.2358 70.729 63.1403 70.6332 63.1403C70.5375 63.1403 70.4896 63.2239 70.4896 63.3314Z" fill="#9ECAEF"/>
<path d="M70.9141 63.1045H70.9739V63.5105H71.1655V63.5582H70.9141V63.1045Z" fill="#9ECAEF"/>
<path d="M71.579 63.3314C71.579 63.4866 71.4832 63.5702 71.3754 63.5702C71.2677 63.5702 71.1719 63.4746 71.1719 63.3433C71.1719 63.212 71.2557 63.1045 71.3754 63.1045C71.4952 63.1045 71.579 63.2 71.579 63.3314ZM71.2317 63.3314C71.2317 63.4269 71.2796 63.5105 71.3754 63.5105C71.4712 63.5105 71.5191 63.4269 71.5191 63.3194C71.5191 63.2358 71.4712 63.1403 71.3754 63.1403C71.2796 63.1403 71.2317 63.2239 71.2317 63.3314Z" fill="#9ECAEF"/>
<path d="M71.6641 63.1167C71.6641 63.1167 71.7359 63.1167 71.7718 63.1167C71.8317 63.1167 71.8676 63.1167 71.9035 63.1525C71.9275 63.1764 71.9395 63.2003 71.9395 63.2361C71.9395 63.2958 71.9035 63.3316 71.8556 63.3555C71.8556 63.3555 71.9155 63.4033 71.9275 63.451C71.9395 63.5107 71.9514 63.5585 71.9634 63.5704H71.9035C71.9035 63.5704 71.8916 63.5227 71.8796 63.463C71.8676 63.4033 71.8437 63.3794 71.7838 63.3794H71.7239V63.5704H71.6641V63.1286V63.1167ZM71.7239 63.3197H71.7838C71.8437 63.3197 71.8796 63.2839 71.8796 63.2361C71.8796 63.1764 71.8317 63.1525 71.7718 63.1525C71.7479 63.1525 71.7239 63.1525 71.712 63.1525V63.3197H71.7239Z" fill="#9ECAEF"/>
<path d="M72.2151 63.4866C72.2151 63.4866 72.275 63.5105 72.3229 63.5105C72.3827 63.5105 72.4187 63.4746 72.4187 63.4388C72.4187 63.403 72.3947 63.3672 72.3348 63.3552C72.263 63.3314 72.2151 63.2955 72.2151 63.2239C72.2151 63.1523 72.275 63.1045 72.3588 63.1045C72.4067 63.1045 72.4426 63.1045 72.4546 63.1284V63.1761C72.4546 63.1761 72.3947 63.1523 72.3588 63.1523C72.2989 63.1523 72.275 63.1881 72.275 63.2239C72.275 63.2717 72.2989 63.2836 72.3588 63.3075C72.4306 63.3314 72.4785 63.3791 72.4785 63.4388C72.4785 63.5105 72.4306 63.5702 72.3229 63.5702C72.275 63.5702 72.2271 63.5582 72.2031 63.5463V63.4985L72.2151 63.4866Z" fill="#9ECAEF"/>
<path d="M72.6067 63.1045V63.5582H72.5469V63.1045H72.6067Z" fill="#9ECAEF"/>
<path d="M72.788 63.1645H72.6562V63.1167H72.9915V63.1645H72.8478V63.5585H72.788V63.1645Z" fill="#9ECAEF"/>
<path d="M73.3187 63.4149L73.2708 63.5582H73.2109L73.3666 63.1045H73.4384L73.5941 63.5582H73.5342L73.4863 63.4149H73.3307H73.3187ZM73.4624 63.3672L73.4145 63.2358C73.4145 63.2358 73.4025 63.1761 73.3906 63.1523C73.3906 63.1523 73.3786 63.2 73.3666 63.2358L73.3187 63.3672H73.4504H73.4624Z" fill="#9ECAEF"/>
<path d="M74.0274 63.3672C74.0274 63.3075 74.0274 63.2239 74.0274 63.1761C74.0274 63.1761 73.9915 63.2836 73.9676 63.3433L73.8957 63.5582H73.8478L73.776 63.3433C73.752 63.2836 73.7401 63.2239 73.7281 63.1642C73.7281 63.1642 73.7281 63.2955 73.7281 63.3672V63.5582H73.6562L73.6922 63.1045H73.764L73.8359 63.3194C73.8359 63.3194 73.8718 63.4269 73.8838 63.4746C73.8838 63.4746 73.9077 63.3791 73.9317 63.3194L74.0155 63.1045H74.0873L74.1113 63.5582H74.0514V63.3672H74.0274Z" fill="#9ECAEF"/>
<path d="M74.4192 63.3433H74.2396V63.5105H74.4311V63.5582H74.1797V63.1045H74.4192V63.1523H74.2396V63.2955H74.4192V63.3433Z" fill="#9ECAEF"/>
<path d="M74.6083 63.1645H74.4766V63.1167H74.8118V63.1645H74.6801V63.5585H74.6203V63.1645H74.6083Z" fill="#9ECAEF"/>
<path d="M74.8125 63.6776C74.8125 63.6776 74.8604 63.5223 74.8724 63.4507H74.9682C74.9442 63.5223 74.9083 63.6298 74.8724 63.6656H74.8125V63.6776Z" fill="#9ECAEF"/>
<path d="M75.5696 63.5463C75.5696 63.5463 75.5098 63.5702 75.4499 63.5702C75.3182 63.5702 75.2344 63.4866 75.2344 63.3433C75.2344 63.2 75.3302 63.1045 75.4739 63.1045C75.5337 63.1045 75.5696 63.1045 75.5816 63.1284V63.1761C75.5816 63.1761 75.5098 63.1523 75.4739 63.1523C75.3661 63.1523 75.2942 63.2239 75.2942 63.3433C75.2942 63.4508 75.3541 63.5224 75.4739 63.5224C75.5098 63.5224 75.5457 63.5224 75.5696 63.5105V63.5582V63.5463Z" fill="#9ECAEF"/>
<path d="M76.0087 63.3314C76.0087 63.4866 75.9129 63.5702 75.8051 63.5702C75.6854 63.5702 75.6016 63.4746 75.6016 63.3433C75.6016 63.212 75.6974 63.1045 75.8171 63.1045C75.9368 63.1045 76.0207 63.2 76.0207 63.3314H76.0087ZM75.6614 63.3314C75.6614 63.4269 75.7093 63.5105 75.8051 63.5105C75.9009 63.5105 75.9488 63.4269 75.9488 63.3194C75.9488 63.2358 75.9009 63.1403 75.8051 63.1403C75.7093 63.1403 75.6614 63.2239 75.6614 63.3314Z" fill="#9ECAEF"/>
<path d="M76.0859 63.5584V63.1047H76.1458L76.2895 63.3316C76.2895 63.3316 76.3494 63.4271 76.3733 63.4749C76.3733 63.4152 76.3733 63.3555 76.3733 63.2838V63.0928H76.4332V63.5465H76.3733L76.2296 63.3196C76.2296 63.3196 76.1698 63.2241 76.1458 63.1764C76.1458 63.1764 76.1458 63.2838 76.1458 63.3555V63.5465H76.0859V63.5584Z" fill="#9ECAEF"/>
<path d="M76.5156 63.4866C76.5156 63.4866 76.5755 63.5105 76.6234 63.5105C76.6833 63.5105 76.7192 63.4746 76.7192 63.4388C76.7192 63.403 76.6952 63.3672 76.6354 63.3552C76.5635 63.3314 76.5156 63.2955 76.5156 63.2239C76.5156 63.1523 76.5755 63.1045 76.6593 63.1045C76.7072 63.1045 76.7431 63.1045 76.7551 63.1284V63.1761C76.7551 63.1761 76.6952 63.1523 76.6593 63.1523C76.5994 63.1523 76.5755 63.1881 76.5755 63.2239C76.5755 63.2717 76.5994 63.2836 76.6713 63.3075C76.7431 63.3314 76.791 63.3791 76.791 63.4388C76.791 63.5105 76.7431 63.5702 76.6354 63.5702C76.5875 63.5702 76.5396 63.5582 76.5156 63.5463V63.4985V63.4866Z" fill="#9ECAEF"/>
<path d="M77.0754 63.3433H76.8958V63.5105H77.0874V63.5582H76.8359V63.1045H77.0754V63.1523H76.8958V63.2955H77.0754V63.3433Z" fill="#9ECAEF"/>
<path d="M77.4957 63.5463C77.4957 63.5463 77.4358 63.5702 77.3759 63.5702C77.2442 63.5702 77.1484 63.4866 77.1484 63.3433C77.1484 63.2 77.2442 63.1045 77.3879 63.1045C77.4478 63.1045 77.4837 63.1045 77.4957 63.1284V63.1761C77.4957 63.1761 77.4238 63.1523 77.3879 63.1523C77.2801 63.1523 77.2083 63.2239 77.2083 63.3433C77.2083 63.4508 77.2682 63.5224 77.3759 63.5224C77.4119 63.5224 77.4478 63.5224 77.4717 63.5105V63.5582L77.4957 63.5463Z" fill="#9ECAEF"/>
<path d="M77.663 63.1645H77.5312V63.1167H77.8665V63.1645H77.7228V63.5585H77.663V63.1645Z" fill="#9ECAEF"/>
<path d="M78.1457 63.3433H77.9661V63.5105H78.1577V63.5582H77.9062V63.1045H78.1457V63.1523H77.9661V63.2955H78.1457V63.3433Z" fill="#9ECAEF"/>
<path d="M78.3348 63.1645H78.2031V63.1167H78.5384V63.1645H78.3947V63.5585H78.3348V63.1645Z" fill="#9ECAEF"/>
<path d="M78.6495 63.1045V63.3672C78.6495 63.4627 78.6974 63.5105 78.7572 63.5105C78.8291 63.5105 78.865 63.4627 78.865 63.3672V63.1045H78.9249V63.3672C78.9249 63.5105 78.853 63.5582 78.7572 63.5582C78.6614 63.5582 78.6016 63.5105 78.6016 63.3672V63.1045H78.6614H78.6495Z" fill="#9ECAEF"/>
<path d="M79.0161 63.1167C79.0161 63.1167 79.088 63.1167 79.1239 63.1167C79.1838 63.1167 79.2317 63.1167 79.2556 63.1525C79.2796 63.1764 79.2915 63.2003 79.2915 63.2361C79.2915 63.2958 79.2556 63.3316 79.2077 63.3555C79.2077 63.3555 79.2556 63.4033 79.2676 63.451C79.2796 63.5107 79.2915 63.5585 79.3035 63.5704H79.2436C79.2436 63.5704 79.2317 63.5227 79.2077 63.463C79.1957 63.4033 79.1718 63.3794 79.1119 63.3794H79.0521V63.5704H78.9922V63.1286L79.0161 63.1167ZM79.076 63.3197H79.1359C79.1957 63.3197 79.2317 63.2839 79.2317 63.2361C79.2317 63.1764 79.1838 63.1525 79.1239 63.1525C79.1 63.1525 79.076 63.1525 79.064 63.1525V63.3197H79.076Z" fill="#9ECAEF"/>
<path d="M79.6546 63.4149L79.6067 63.5582H79.5469L79.7025 63.1045H79.7744L79.93 63.5582H79.8702L79.8223 63.4149H79.6666H79.6546ZM79.7983 63.3672L79.7504 63.2358C79.7504 63.2358 79.7385 63.1761 79.7265 63.1523C79.7265 63.1523 79.7145 63.2 79.7025 63.2358L79.6546 63.3672H79.7864H79.7983Z" fill="#9ECAEF"/>
<path d="M79.9885 63.1167C79.9885 63.1167 80.0604 63.1167 80.1083 63.1167C80.1921 63.1167 80.252 63.1406 80.2879 63.1764C80.3238 63.2122 80.3478 63.26 80.3478 63.3316C80.3478 63.4033 80.3238 63.463 80.2879 63.5107C80.24 63.5465 80.1801 63.5704 80.0843 63.5704C80.0364 63.5704 80.0125 63.5704 79.9766 63.5704V63.1286L79.9885 63.1167ZM80.0484 63.5107C80.0484 63.5107 80.0843 63.5107 80.1083 63.5107C80.228 63.5107 80.2999 63.4391 80.2999 63.3197C80.2999 63.2122 80.24 63.1525 80.1203 63.1525C80.0843 63.1525 80.0724 63.1525 80.0484 63.1525V63.5107Z" fill="#9ECAEF"/>
<path d="M80.4896 63.1045V63.5582H80.4297V63.1045H80.4896Z" fill="#9ECAEF"/>
<path d="M80.5823 63.1167C80.5823 63.1167 80.6422 63.1167 80.6901 63.1167C80.7499 63.1167 80.7858 63.1286 80.8218 63.1525C80.8457 63.1764 80.8577 63.2003 80.8577 63.248C80.8577 63.2958 80.8457 63.3197 80.8218 63.3436C80.7858 63.3794 80.7379 63.3913 80.6781 63.3913C80.6661 63.3913 80.6422 63.3913 80.6302 63.3913V63.5704H80.5703V63.1286L80.5823 63.1167ZM80.6422 63.3316C80.6422 63.3316 80.6661 63.3316 80.6901 63.3316C80.7619 63.3316 80.7978 63.2958 80.7978 63.2361C80.7978 63.1764 80.7619 63.1525 80.6901 63.1525C80.6661 63.1525 80.6422 63.1525 80.6422 63.1525V63.3316Z" fill="#9ECAEF"/>
<path d="M80.9896 63.1045V63.5582H80.9297V63.1045H80.9896Z" fill="#9ECAEF"/>
<path d="M81.0859 63.4866C81.0859 63.4866 81.1458 63.5105 81.1937 63.5105C81.2536 63.5105 81.2895 63.4746 81.2895 63.4388C81.2895 63.403 81.2655 63.3672 81.2057 63.3552C81.1338 63.3314 81.0859 63.2955 81.0859 63.2239C81.0859 63.1523 81.1458 63.1045 81.2296 63.1045C81.2775 63.1045 81.3134 63.1045 81.3254 63.1284V63.1761C81.3254 63.1761 81.2655 63.1523 81.2296 63.1523C81.1698 63.1523 81.1458 63.1881 81.1458 63.2239C81.1458 63.2717 81.1698 63.2836 81.2296 63.3075C81.3015 63.3314 81.3494 63.3791 81.3494 63.4388C81.3494 63.5105 81.3015 63.5702 81.1937 63.5702C81.1458 63.5702 81.0979 63.5582 81.0859 63.5463V63.4985V63.4866Z" fill="#9ECAEF"/>
<path d="M81.7457 63.5463C81.7457 63.5463 81.6858 63.5702 81.6259 63.5702C81.4942 63.5702 81.3984 63.4866 81.3984 63.3433C81.3984 63.2 81.4942 63.1045 81.6379 63.1045C81.6978 63.1045 81.7337 63.1045 81.7457 63.1284V63.1761C81.7457 63.1761 81.6738 63.1523 81.6379 63.1523C81.5301 63.1523 81.4703 63.2239 81.4703 63.3433C81.4703 63.4508 81.5301 63.5224 81.6379 63.5224C81.6738 63.5224 81.7098 63.5224 81.7337 63.5105V63.5582L81.7457 63.5463Z" fill="#9ECAEF"/>
<path d="M81.8646 63.1045V63.5582H81.8047V63.1045H81.8646Z" fill="#9ECAEF"/>
<path d="M81.9766 63.5584V63.1047H82.0364L82.1801 63.3316C82.1801 63.3316 82.24 63.4271 82.2639 63.4749C82.2639 63.4152 82.2639 63.3555 82.2639 63.2838V63.0928H82.3238V63.5465H82.2639L82.1203 63.3196C82.1203 63.3196 82.0604 63.2241 82.0364 63.1764C82.0364 63.1764 82.0364 63.2838 82.0364 63.3555V63.5465H81.9885L81.9766 63.5584Z" fill="#9ECAEF"/>
<path d="M82.7499 63.5343C82.7499 63.5343 82.666 63.5582 82.6181 63.5582C82.5463 63.5582 82.4984 63.5463 82.4505 63.4985C82.4146 63.4627 82.3906 63.403 82.3906 63.3314C82.3906 63.2 82.4864 63.1045 82.6301 63.1045C82.69 63.1045 82.7259 63.1045 82.7499 63.1284V63.1761C82.7499 63.1761 82.678 63.1523 82.6301 63.1523C82.5223 63.1523 82.4505 63.2239 82.4505 63.3314C82.4505 63.4388 82.5223 63.5105 82.6181 63.5105C82.6541 63.5105 82.678 63.5105 82.69 63.4985V63.3672H82.5942V63.3194H82.7379V63.5343H82.7499Z" fill="#9ECAEF"/>
<path d="M83.2822 63.3433H83.1146V63.5105H83.3061V63.5582H83.0547V63.1045H83.2942V63.1523H83.1146V63.2955H83.2822V63.3433Z" fill="#9ECAEF"/>
<path d="M83.375 63.1045H83.4349V63.5105H83.6265V63.5582H83.375V63.1045Z" fill="#9ECAEF"/>
<path d="M83.7474 63.1045V63.5582H83.6875V63.1045H83.7474Z" fill="#9ECAEF"/>
<path d="M83.9406 63.1645H83.7969V63.1167H84.1321V63.1645H84.0004V63.5585H83.9406V63.1645Z" fill="#9ECAEF"/>
<path d="M84.1406 63.6776C84.1406 63.6776 84.1885 63.5223 84.2005 63.4507H84.2963C84.2723 63.5223 84.2364 63.6298 84.2005 63.6656H84.1406V63.6776Z" fill="#9ECAEF"/>
<path d="M84.5745 63.4866C84.5745 63.4866 84.6343 63.5105 84.6822 63.5105C84.7421 63.5105 84.778 63.4746 84.778 63.4388C84.778 63.403 84.7541 63.3672 84.6942 63.3552C84.6224 63.3314 84.5745 63.2955 84.5745 63.2239C84.5745 63.1523 84.6343 63.1045 84.7182 63.1045C84.7661 63.1045 84.802 63.1045 84.814 63.1284V63.1761C84.814 63.1761 84.7541 63.1523 84.7182 63.1523C84.6583 63.1523 84.6343 63.1881 84.6343 63.2239C84.6343 63.2717 84.6583 63.2836 84.7182 63.3075C84.79 63.3314 84.8379 63.3791 84.8379 63.4388C84.8379 63.5105 84.79 63.5702 84.6822 63.5702C84.6343 63.5702 84.5864 63.5582 84.5625 63.5463V63.4985L84.5745 63.4866Z" fill="#9ECAEF"/>
<path d="M85.1338 63.3433H84.9661V63.5105H85.1577V63.5582H84.9062V63.1045H85.1457V63.1523H84.9661V63.2955H85.1338V63.3433Z" fill="#9ECAEF"/>
<path d="M85.2307 63.1167C85.2307 63.1167 85.3026 63.1167 85.3505 63.1167C85.4343 63.1167 85.4942 63.1406 85.5301 63.1764C85.566 63.2122 85.59 63.26 85.59 63.3316C85.59 63.4033 85.566 63.463 85.5301 63.5107C85.4942 63.5465 85.4223 63.5704 85.3265 63.5704C85.2906 63.5704 85.2547 63.5704 85.2188 63.5704V63.1286L85.2307 63.1167ZM85.2906 63.5107C85.2906 63.5107 85.3265 63.5107 85.3505 63.5107C85.4702 63.5107 85.5421 63.4391 85.5421 63.3197C85.5421 63.2122 85.4822 63.1525 85.3624 63.1525C85.3265 63.1525 85.3145 63.1525 85.2906 63.1525V63.5107Z" fill="#9ECAEF"/>
<path d="M85.8792 63.1167C85.8792 63.1167 85.951 63.1167 85.9989 63.1167C86.0827 63.1167 86.1426 63.1406 86.1785 63.1764C86.2144 63.2122 86.2384 63.26 86.2384 63.3316C86.2384 63.4033 86.2144 63.463 86.1785 63.5107C86.1306 63.5465 86.0708 63.5704 85.975 63.5704C85.939 63.5704 85.9031 63.5704 85.8672 63.5704V63.1286L85.8792 63.1167ZM85.939 63.5107C85.939 63.5107 85.975 63.5107 85.9989 63.5107C86.1186 63.5107 86.1905 63.4391 86.1905 63.3197C86.1905 63.2122 86.1306 63.1525 86.0109 63.1525C85.9869 63.1525 85.963 63.1525 85.939 63.1525V63.5107Z" fill="#9ECAEF"/>
<path d="M86.704 63.3314C86.704 63.4866 86.6082 63.5702 86.5004 63.5702C86.3807 63.5702 86.2969 63.4746 86.2969 63.3433C86.2969 63.212 86.3807 63.1045 86.5004 63.1045C86.6202 63.1045 86.704 63.2 86.704 63.3314ZM86.3567 63.3314C86.3567 63.4269 86.4046 63.5105 86.5004 63.5105C86.5962 63.5105 86.6441 63.4269 86.6441 63.3194C86.6441 63.2358 86.5962 63.1403 86.5004 63.1403C86.4046 63.1403 86.3567 63.2239 86.3567 63.3314Z" fill="#9ECAEF"/>
<path d="M87.216 63.3433H87.0364V63.5105H87.228V63.5582H86.9766V63.1045H87.216V63.1523H87.0364V63.2955H87.216V63.3433Z" fill="#9ECAEF"/>
<path d="M87.3724 63.1045V63.5582H87.3125V63.1045H87.3724Z" fill="#9ECAEF"/>
<path d="M87.5323 63.1045V63.3672C87.5323 63.4627 87.5802 63.5105 87.64 63.5105C87.7119 63.5105 87.7478 63.4627 87.7478 63.3672V63.1045H87.8077V63.3672C87.8077 63.5105 87.7358 63.5582 87.64 63.5582C87.5443 63.5582 87.4844 63.5105 87.4844 63.3672V63.1045H87.5442H87.5323Z" fill="#9ECAEF"/>
<path d="M87.8906 63.4866C87.8906 63.4866 87.9505 63.5105 87.9984 63.5105C88.0583 63.5105 88.0942 63.4746 88.0942 63.4388C88.0942 63.403 88.0702 63.3672 88.0104 63.3552C87.9385 63.3314 87.8906 63.2955 87.8906 63.2239C87.8906 63.1523 87.9505 63.1045 88.0343 63.1045C88.0822 63.1045 88.1181 63.1045 88.1301 63.1284V63.1761C88.1301 63.1761 88.0702 63.1523 88.0343 63.1523C87.9744 63.1523 87.9505 63.1881 87.9505 63.2239C87.9505 63.2717 87.9744 63.2836 88.0463 63.3075C88.1181 63.3314 88.166 63.3791 88.166 63.4388C88.166 63.5105 88.1181 63.5702 88.0104 63.5702C87.9625 63.5702 87.9146 63.5582 87.8906 63.5463V63.4985V63.4866Z" fill="#9ECAEF"/>
<path d="M88.6097 63.3672C88.6097 63.3075 88.6097 63.2239 88.6097 63.1761C88.6097 63.1761 88.5738 63.2836 88.5499 63.3433L88.466 63.5582H88.4181L88.3463 63.3433C88.3224 63.2836 88.3104 63.2239 88.2984 63.1642C88.2984 63.1642 88.2984 63.2955 88.2984 63.3672V63.5582H88.2266L88.2625 63.1045H88.3343L88.4062 63.3194C88.4062 63.3194 88.4421 63.4269 88.4541 63.4746C88.4541 63.4746 88.478 63.3791 88.502 63.3194L88.5858 63.1045H88.6576L88.6816 63.5582H88.6217V63.3672H88.6097Z" fill="#9ECAEF"/>
<path d="M89.1493 63.3314C89.1493 63.4866 89.0535 63.5702 88.9457 63.5702C88.838 63.5702 88.7422 63.4746 88.7422 63.3433C88.7422 63.212 88.826 63.1045 88.9457 63.1045C89.0655 63.1045 89.1493 63.2 89.1493 63.3314ZM88.8021 63.3314C88.8021 63.4269 88.85 63.5105 88.9457 63.5105C89.0415 63.5105 89.0894 63.4269 89.0894 63.3194C89.0894 63.2358 89.0415 63.1403 88.9457 63.1403C88.85 63.1403 88.8021 63.2239 88.8021 63.3314Z" fill="#9ECAEF"/>
<path d="M89.2307 63.1167C89.2307 63.1167 89.3026 63.1167 89.3505 63.1167C89.4343 63.1167 89.4941 63.1406 89.5301 63.1764C89.566 63.2122 89.5899 63.26 89.5899 63.3316C89.5899 63.4033 89.566 63.463 89.5301 63.5107C89.4822 63.5465 89.4223 63.5704 89.3265 63.5704C89.2906 63.5704 89.2547 63.5704 89.2188 63.5704V63.1286L89.2307 63.1167ZM89.2786 63.5107C89.2786 63.5107 89.3145 63.5107 89.3385 63.5107C89.4582 63.5107 89.5301 63.4391 89.5301 63.3197C89.5301 63.2122 89.4702 63.1525 89.3505 63.1525C89.3145 63.1525 89.3026 63.1525 89.2786 63.1525V63.5107Z" fill="#9ECAEF"/>
<path d="M89.964 63.1645H89.8203V63.1167H90.1556V63.1645H90.0119V63.5585H89.952V63.1645H89.964Z" fill="#9ECAEF"/>
<path d="M90.4426 63.3433H90.263V63.5105H90.4546V63.5582H90.2031V63.1045H90.4426V63.1523H90.251V63.2955H90.4306V63.3433H90.4426Z" fill="#9ECAEF"/>
<path d="M90.9066 63.3672C90.9066 63.3075 90.9066 63.2239 90.9066 63.1761C90.9066 63.1761 90.8707 63.2836 90.8467 63.3433L90.7629 63.5582H90.715L90.6432 63.3433C90.6192 63.2836 90.6073 63.2239 90.5953 63.1642C90.5953 63.1642 90.5953 63.2955 90.5953 63.3672V63.5582H90.5234L90.5594 63.1045H90.6312L90.7031 63.3194C90.7031 63.3194 90.739 63.4269 90.7509 63.4746C90.7509 63.4746 90.7749 63.3791 90.7988 63.3194L90.8827 63.1045H90.9545L90.9785 63.5582H90.9186V63.3672H90.9066Z" fill="#9ECAEF"/>
<path d="M91.0625 63.1167C91.0625 63.1167 91.1224 63.1167 91.1703 63.1167C91.2301 63.1167 91.2661 63.1286 91.302 63.1525C91.3259 63.1764 91.3379 63.2003 91.3379 63.248C91.3379 63.2958 91.3379 63.3197 91.302 63.3436C91.2661 63.3794 91.2182 63.3913 91.1703 63.3913C91.1583 63.3913 91.1343 63.3913 91.1224 63.3913V63.5704H91.0625V63.1286V63.1167ZM91.1224 63.3316C91.1224 63.3316 91.1583 63.3316 91.1703 63.3316C91.2421 63.3316 91.278 63.2958 91.278 63.2361C91.278 63.1764 91.2421 63.1525 91.1703 63.1525C91.1463 63.1525 91.1224 63.1525 91.1104 63.1525V63.3316H91.1224Z" fill="#9ECAEF"/>
<path d="M91.8056 63.3314C91.8056 63.4866 91.7098 63.5702 91.602 63.5702C91.4823 63.5702 91.3984 63.4746 91.3984 63.3433C91.3984 63.212 91.4823 63.1045 91.602 63.1045C91.7217 63.1045 91.8056 63.2 91.8056 63.3314ZM91.4583 63.3314C91.4583 63.4269 91.5062 63.5105 91.602 63.5105C91.6978 63.5105 91.7457 63.4269 91.7457 63.3194C91.7457 63.2358 91.6978 63.1403 91.602 63.1403C91.5062 63.1403 91.4583 63.2239 91.4583 63.3314Z" fill="#9ECAEF"/>
<path d="M91.875 63.1167C91.875 63.1167 91.9468 63.1167 91.9828 63.1167C92.0426 63.1167 92.0786 63.1167 92.1145 63.1525C92.1384 63.1764 92.1504 63.2003 92.1504 63.2361C92.1504 63.2958 92.1145 63.3316 92.0666 63.3555C92.0666 63.3555 92.1264 63.4033 92.1384 63.451C92.1504 63.5107 92.1624 63.5585 92.1744 63.5704H92.1145C92.1145 63.5704 92.1025 63.5227 92.0905 63.463C92.0786 63.4033 92.0546 63.3794 91.9947 63.3794H91.9468V63.5704H91.887V63.1286L91.875 63.1167ZM91.9349 63.3197H91.9947C92.0546 63.3197 92.0905 63.2839 92.0905 63.2361C92.0905 63.1764 92.0426 63.1525 91.9828 63.1525C91.9588 63.1525 91.9349 63.1525 91.9229 63.1525V63.3197H91.9349Z" fill="#9ECAEF"/>
<path d="M92.4974 63.1045V63.5582H92.4375V63.1045H92.4974Z" fill="#9ECAEF"/>
<path d="M92.5938 63.5584V63.1047H92.6536L92.7973 63.3316C92.7973 63.3316 92.8572 63.4271 92.8811 63.4749C92.8811 63.4152 92.8811 63.3555 92.8811 63.2838V63.0928H92.941V63.5465H92.8811L92.7374 63.3196C92.7374 63.3196 92.6776 63.2241 92.6536 63.1764C92.6536 63.1764 92.6536 63.2838 92.6536 63.3555V63.5465H92.6057L92.5938 63.5584Z" fill="#9ECAEF"/>
<path d="M93.3473 63.5463C93.3473 63.5463 93.2874 63.5702 93.2275 63.5702C93.0958 63.5702 93 63.4866 93 63.3433C93 63.2 93.0958 63.1045 93.2395 63.1045C93.2994 63.1045 93.3353 63.1045 93.3473 63.1284V63.1761C93.3473 63.1761 93.2754 63.1523 93.2395 63.1523C93.1317 63.1523 93.0599 63.2239 93.0599 63.3433C93.0599 63.4508 93.1197 63.5224 93.2395 63.5224C93.2754 63.5224 93.3113 63.5224 93.3353 63.5105V63.5582L93.3473 63.5463Z" fill="#9ECAEF"/>
<path d="M93.4817 63.1045V63.5582H93.4219V63.1045H93.4817Z" fill="#9ECAEF"/>
<path d="M93.5745 63.1167C93.5745 63.1167 93.6583 63.1167 93.6942 63.1167C93.778 63.1167 93.8379 63.1406 93.8738 63.1764C93.9217 63.2122 93.9337 63.26 93.9337 63.3316C93.9337 63.4033 93.9098 63.463 93.8738 63.5107C93.8259 63.5465 93.7661 63.5704 93.6703 63.5704C93.6343 63.5704 93.5984 63.5704 93.5625 63.5704V63.1286L93.5745 63.1167ZM93.6343 63.5107C93.6343 63.5107 93.6703 63.5107 93.6942 63.5107C93.814 63.5107 93.8858 63.4391 93.8858 63.3197C93.8858 63.2122 93.8259 63.1525 93.7062 63.1525C93.6703 63.1525 93.6583 63.1525 93.6343 63.1525V63.5107Z" fill="#9ECAEF"/>
<path d="M94.0833 63.1045V63.5582H94.0234V63.1045H94.0833Z" fill="#9ECAEF"/>
<path d="M94.1917 63.1167C94.1917 63.1167 94.2635 63.1167 94.3114 63.1167C94.3952 63.1167 94.4551 63.1406 94.491 63.1764C94.5269 63.2122 94.5509 63.26 94.5509 63.3316C94.5509 63.4033 94.5269 63.463 94.491 63.5107C94.4431 63.5465 94.3832 63.5704 94.2875 63.5704C94.2396 63.5704 94.2156 63.5704 94.1797 63.5704V63.1286L94.1917 63.1167ZM94.2515 63.5107C94.2515 63.5107 94.2875 63.5107 94.3114 63.5107C94.4311 63.5107 94.503 63.4391 94.503 63.3197C94.503 63.2122 94.4431 63.1525 94.3234 63.1525C94.2874 63.1525 94.2755 63.1525 94.2515 63.1525V63.5107Z" fill="#9ECAEF"/>
<path d="M94.6885 63.1045V63.3672C94.6885 63.4627 94.7364 63.5105 94.7963 63.5105C94.8681 63.5105 94.9041 63.4627 94.9041 63.3672V63.1045H94.9639V63.3672C94.9639 63.5105 94.8921 63.5582 94.7963 63.5582C94.7005 63.5582 94.6406 63.5105 94.6406 63.3672V63.1045H94.7005H94.6885Z" fill="#9ECAEF"/>
<path d="M95.0625 63.5584V63.1047H95.1224L95.2661 63.3316C95.2661 63.3316 95.3259 63.4271 95.3499 63.4749C95.3499 63.4152 95.3499 63.3555 95.3499 63.2838V63.0928H95.4098V63.5465H95.3499L95.2062 63.3196C95.2062 63.3196 95.1463 63.2241 95.1224 63.1764C95.1224 63.1764 95.1224 63.2838 95.1224 63.3555V63.5465H95.0625V63.5584Z" fill="#9ECAEF"/>
<path d="M95.5927 63.1645H95.4609V63.1167H95.7962V63.1645H95.6525V63.5585H95.5927V63.1645Z" fill="#9ECAEF"/>
<path d="M96.0948 63.1045V63.3672C96.0948 63.4627 96.1427 63.5105 96.2025 63.5105C96.2744 63.5105 96.3103 63.4627 96.3103 63.3672V63.1045H96.3702V63.3672C96.3702 63.5105 96.2983 63.5582 96.2025 63.5582C96.1067 63.5582 96.0469 63.5105 96.0469 63.3672V63.1045H96.1067H96.0948Z" fill="#9ECAEF"/>
<path d="M96.5458 63.1645H96.4141V63.1167H96.7493V63.1645H96.6176V63.5585H96.5578V63.1645H96.5458Z" fill="#9ECAEF"/>
<path d="M97 63.1045H97.0599V63.5105H97.2515V63.5582H97V63.1045Z" fill="#9ECAEF"/>
<path d="M97.3812 63.4149L97.3333 63.5582H97.2734L97.4291 63.1045H97.5009L97.6566 63.5582H97.5967L97.5488 63.4149H97.3932H97.3812ZM97.5249 63.3672L97.477 63.2358C97.477 63.2358 97.465 63.1761 97.4531 63.1523C97.4531 63.1523 97.4411 63.2 97.4291 63.2358L97.3812 63.3672H97.5129H97.5249Z" fill="#9ECAEF"/>
<path d="M97.7188 63.1167C97.7188 63.1167 97.7906 63.1167 97.8265 63.1167C97.8864 63.1167 97.9223 63.1167 97.9463 63.1525C97.9702 63.1645 97.9822 63.2003 97.9822 63.2361C97.9822 63.2839 97.9582 63.3197 97.9103 63.3316C97.9103 63.3316 98.0061 63.3794 98.0061 63.4391C98.0061 63.4749 97.9942 63.5107 97.9702 63.5346C97.9343 63.5585 97.8864 63.5824 97.8145 63.5824C97.7666 63.5824 97.7427 63.5824 97.7188 63.5824V63.1406V63.1167ZM97.7786 63.2958H97.8265C97.8265 63.2958 97.9223 63.26 97.9223 63.2242C97.9223 63.1764 97.8864 63.1525 97.8265 63.1525C97.8026 63.1525 97.7786 63.1525 97.7786 63.1525V63.2958ZM97.7786 63.5107C97.7786 63.5107 97.8026 63.5107 97.8265 63.5107C97.8864 63.5107 97.9463 63.4868 97.9463 63.4271C97.9463 63.3674 97.8984 63.3436 97.8265 63.3436H97.7786V63.5107Z" fill="#9ECAEF"/>
<path d="M98.466 63.3314C98.466 63.4866 98.3702 63.5702 98.2504 63.5702C98.1307 63.5702 98.0469 63.4746 98.0469 63.3433C98.0469 63.212 98.1307 63.1045 98.2504 63.1045C98.3702 63.1045 98.454 63.2 98.454 63.3314H98.466ZM98.1187 63.3314C98.1187 63.4269 98.1666 63.5105 98.2624 63.5105C98.3582 63.5105 98.4061 63.4269 98.4061 63.3194C98.4061 63.2358 98.3582 63.1403 98.2624 63.1403C98.1666 63.1403 98.1187 63.2239 98.1187 63.3314Z" fill="#9ECAEF"/>
<path d="M98.5312 63.1167C98.5312 63.1167 98.6031 63.1167 98.639 63.1167C98.6989 63.1167 98.7468 63.1167 98.7707 63.1525C98.7947 63.1764 98.8066 63.2003 98.8066 63.2361C98.8066 63.2958 98.7707 63.3316 98.7228 63.3555C98.7228 63.3555 98.7827 63.4033 98.7947 63.451C98.8067 63.5107 98.8186 63.5585 98.8306 63.5704H98.7707C98.7707 63.5704 98.7588 63.5227 98.7468 63.463C98.7348 63.4033 98.7109 63.3794 98.651 63.3794H98.6031V63.5704H98.5432V63.1286L98.5312 63.1167ZM98.5911 63.3197H98.651C98.7109 63.3197 98.7468 63.2839 98.7468 63.2361C98.7468 63.1764 98.6989 63.1525 98.639 63.1525C98.6151 63.1525 98.5911 63.1525 98.5791 63.1525V63.3197H98.5911Z" fill="#9ECAEF"/>
<path d="M99.1301 63.3433H98.9505V63.5105H99.1421V63.5582H98.8906V63.1045H99.1301V63.1523H98.9505V63.2955H99.1301V63.3433Z" fill="#9ECAEF"/>
<path d="M99.6614 63.3433H99.4817V63.5105H99.6733V63.5582H99.4219V63.1045H99.6614V63.1523H99.4698V63.2955H99.6494V63.3433H99.6614Z" fill="#9ECAEF"/>
<path d="M99.8546 63.1645H99.7109V63.1167H100.046V63.1645H99.9145V63.5585H99.8546V63.1645Z" fill="#9ECAEF"/>
<path d="M64.4922 64.251C64.4922 64.251 64.576 64.251 64.6119 64.251C64.6957 64.251 64.7556 64.2749 64.7915 64.3107C64.8275 64.3465 64.8514 64.3943 64.8514 64.4778C64.8514 64.5614 64.8275 64.6092 64.7915 64.6569C64.7556 64.7047 64.6838 64.7166 64.6 64.7166C64.5521 64.7166 64.5161 64.7166 64.4922 64.7166V64.2749V64.251ZM64.5521 64.6569C64.5521 64.6569 64.588 64.6569 64.6119 64.6569C64.7317 64.6569 64.8035 64.5853 64.8035 64.4659C64.8035 64.3584 64.7436 64.2868 64.6239 64.2868C64.588 64.2868 64.576 64.2868 64.5521 64.2868V64.645V64.6569Z" fill="#9ECAEF"/>
<path d="M65.3212 64.4656C65.3212 64.6209 65.2254 64.7044 65.1176 64.7044C65.0099 64.7044 64.9141 64.6089 64.9141 64.4776C64.9141 64.3343 64.9979 64.2388 65.1176 64.2388C65.2374 64.2388 65.3212 64.3343 65.3212 64.4656ZM64.9739 64.4776C64.9739 64.5731 65.0218 64.6567 65.1176 64.6567C65.2134 64.6567 65.2613 64.5731 65.2613 64.4656C65.2613 64.3701 65.2134 64.2865 65.1176 64.2865C65.0218 64.2865 64.9739 64.3701 64.9739 64.4776Z" fill="#9ECAEF"/>
<path d="M65.3906 64.2507H65.4505V64.6447H65.6421V64.6925H65.3906V64.2388V64.2507Z" fill="#9ECAEF"/>
<path d="M66.0634 64.4656C66.0634 64.6209 65.9676 64.7044 65.8598 64.7044C65.7401 64.7044 65.6562 64.6089 65.6562 64.4776C65.6562 64.3343 65.7401 64.2388 65.8598 64.2388C65.9795 64.2388 66.0634 64.3343 66.0634 64.4656ZM65.7161 64.4776C65.7161 64.5731 65.764 64.6567 65.8598 64.6567C65.9556 64.6567 66.0035 64.5731 66.0035 64.4656C66.0035 64.3701 65.9556 64.2865 65.8598 64.2865C65.764 64.2865 65.7161 64.3701 65.7161 64.4776Z" fill="#9ECAEF"/>
<path d="M66.1448 64.251C66.1448 64.251 66.2166 64.251 66.2526 64.251C66.3124 64.251 66.3483 64.251 66.3843 64.2868C66.4082 64.3107 66.4202 64.3346 66.4202 64.3704C66.4202 64.4301 66.3843 64.4659 66.3364 64.4898C66.3364 64.4898 66.3962 64.5375 66.3962 64.5853C66.4082 64.645 66.4202 64.6928 66.4322 64.7047H66.3723C66.3723 64.7047 66.3603 64.6569 66.3364 64.5972C66.3244 64.5375 66.3005 64.5137 66.2406 64.5137H66.1927V64.7047H66.1328V64.2629L66.1448 64.251ZM66.1927 64.454H66.2526C66.3124 64.454 66.3483 64.4181 66.3483 64.3704C66.3483 64.3107 66.3005 64.2868 66.2406 64.2868C66.2166 64.2868 66.1927 64.2868 66.1807 64.2868V64.454H66.1927Z" fill="#9ECAEF"/>
<path d="M66.7275 64.4898H66.5599V64.6569H66.7515V64.7047H66.5V64.251H66.7395V64.2987H66.5599V64.442H66.7275V64.4898Z" fill="#9ECAEF"/>
<path d="M67.3988 64.5015C67.3988 64.4418 67.3988 64.3582 67.3988 64.3104C67.3988 64.3104 67.3629 64.4179 67.3389 64.4776L67.2551 64.6925H67.2072L67.1354 64.4776C67.1114 64.4179 67.0994 64.3582 67.0875 64.2985C67.0875 64.2985 67.0875 64.4298 67.0875 64.5015V64.6925H67.0156L67.0515 64.2388H67.1234L67.1952 64.4537C67.1952 64.4537 67.2312 64.5612 67.2431 64.6089C67.2431 64.6089 67.2671 64.5134 67.291 64.4537L67.3748 64.2388H67.4467L67.4826 64.6925H67.4227V64.5015H67.3988Z" fill="#9ECAEF"/>
<path d="M67.6312 64.5614L67.5833 64.7047H67.5234L67.6791 64.251H67.7509L67.9066 64.7047H67.8467L67.7988 64.5614H67.6432H67.6312ZM67.7749 64.5137L67.727 64.3823C67.727 64.3823 67.715 64.3226 67.7031 64.2987C67.7031 64.2987 67.6911 64.3465 67.6791 64.3823L67.6312 64.5137H67.7629H67.7749Z" fill="#9ECAEF"/>
<path d="M68.3009 64.6808C68.3009 64.6808 68.2171 64.7047 68.1572 64.7047C68.0853 64.7047 68.0375 64.6928 67.9896 64.645C67.9536 64.6092 67.9297 64.5495 67.9297 64.4778C67.9297 64.3465 68.0255 64.251 68.1692 64.251C68.2171 64.251 68.265 64.2629 68.2769 64.2749V64.3226C68.2769 64.3226 68.2051 64.2987 68.1692 64.2987C68.0614 64.2987 67.9896 64.3704 67.9896 64.4778C67.9896 64.5853 68.0614 64.6569 68.1692 64.6569C68.2051 64.6569 68.229 64.6569 68.241 64.645V64.5137H68.1452V64.4659H68.2889V64.6808H68.3009Z" fill="#9ECAEF"/>
<path d="M68.3828 64.6927V64.239H68.4427L68.5864 64.4659C68.5864 64.4659 68.6462 64.5614 68.6702 64.6091C68.6702 64.5494 68.6702 64.4897 68.6702 64.4181V64.2271H68.7301V64.6808H68.6702L68.5265 64.4539C68.5265 64.4539 68.4666 64.3584 68.4427 64.2987C68.4427 64.2987 68.4427 64.4062 68.4427 64.4897V64.6808H68.3828V64.6927Z" fill="#9ECAEF"/>
<path d="M68.8968 64.5614L68.8489 64.7047H68.7891L68.9447 64.251H69.0166L69.1722 64.7047H69.1124L69.0645 64.5614H68.9088H68.8968ZM69.0405 64.5137L68.9926 64.3823C68.9926 64.3823 68.9806 64.3226 68.9687 64.2987C68.9687 64.2987 68.9567 64.3465 68.9447 64.3823L68.8968 64.5137H69.0285H69.0405Z" fill="#9ECAEF"/>
<path d="M69.5062 64.5614L69.4583 64.7047H69.3984L69.5541 64.251H69.6259L69.7816 64.7047H69.7217L69.6738 64.5614H69.5182H69.5062ZM69.6499 64.5137L69.602 64.3823C69.602 64.3823 69.59 64.3226 69.5781 64.2987C69.5781 64.2987 69.5661 64.3465 69.5541 64.3823L69.5062 64.5137H69.6379H69.6499Z" fill="#9ECAEF"/>
<path d="M69.8438 64.2507H69.9036V64.6447H70.0952V64.6925H69.8438V64.2388V64.2507Z" fill="#9ECAEF"/>
<path d="M70.2161 64.251V64.7047H70.1562V64.251H70.2161Z" fill="#9ECAEF"/>
<path d="M70.6842 64.7644C70.6243 64.7525 70.5645 64.7286 70.5166 64.7166H70.4926C70.3849 64.7166 70.2891 64.6331 70.2891 64.4898C70.2891 64.3465 70.3729 64.251 70.4926 64.251C70.6124 64.251 70.6962 64.3465 70.6962 64.4778C70.6962 64.5972 70.6363 64.6689 70.5645 64.6928C70.5645 64.6928 70.6603 64.7166 70.6962 64.7286V64.7763L70.6842 64.7644ZM70.6363 64.4778C70.6363 64.3823 70.5884 64.2987 70.4926 64.2987C70.3968 64.2987 70.3489 64.3943 70.3489 64.4898C70.3489 64.5853 70.3968 64.6689 70.4926 64.6689C70.5884 64.6689 70.6363 64.5853 70.6363 64.4778Z" fill="#9ECAEF"/>
<path d="M70.8291 64.251V64.5137C70.8291 64.6092 70.877 64.6569 70.9369 64.6569C70.9968 64.6569 71.0447 64.6092 71.0447 64.5137V64.251H71.1046V64.5137C71.1046 64.645 71.0327 64.7047 70.9369 64.7047C70.8411 64.7047 70.7812 64.6569 70.7812 64.5137V64.251H70.8411H70.8291Z" fill="#9ECAEF"/>
<path d="M71.2562 64.5614L71.2083 64.7047H71.1484L71.3041 64.251H71.3759L71.5316 64.7047H71.4717L71.4238 64.5614H71.2682H71.2562ZM71.3999 64.5137L71.352 64.3823C71.352 64.3823 71.34 64.3226 71.3281 64.2987C71.3281 64.2987 71.3161 64.3465 71.3041 64.3823L71.2562 64.5137H71.3879H71.3999Z" fill="#9ECAEF"/>
<path d="M71.5938 64.6451C71.5938 64.6451 71.6177 64.5854 71.6536 64.5854C71.6895 64.5854 71.7135 64.6093 71.7135 64.6451C71.7135 64.681 71.6895 64.7049 71.6536 64.7049C71.6177 64.7049 71.5938 64.681 71.5938 64.6451Z" fill="#9ECAEF"/>
<path d="M72.0994 64.0598V64.4419C72.0994 64.5852 72.1593 64.6449 72.2431 64.6449C72.3389 64.6449 72.3988 64.5852 72.3988 64.4419V64.0598H72.4826V64.4299C72.4826 64.621 72.3749 64.7046 72.2431 64.7046C72.1114 64.7046 72.0156 64.6329 72.0156 64.4299V64.0479H72.0994V64.0598Z" fill="#9ECAEF"/>
<path d="M72.6942 64.2987H72.5625V64.251H72.8978V64.2987H72.7661V64.6928H72.7062V64.2987H72.6942Z" fill="#9ECAEF"/>
<path d="M73.3801 64.4898H73.2005V64.6569H73.3921V64.7047H73.1406V64.251H73.3801V64.2987H73.2005V64.442H73.3801V64.4898Z" fill="#9ECAEF"/>
<path d="M73.4609 64.6927V64.239H73.5208L73.6645 64.4659C73.6645 64.4659 73.7244 64.5614 73.7483 64.6091C73.7483 64.5494 73.7483 64.4897 73.7483 64.4181V64.2271H73.8082V64.6808H73.7483L73.6046 64.4539C73.6046 64.4539 73.5448 64.3584 73.5208 64.2987C73.5208 64.2987 73.5208 64.4062 73.5208 64.4897V64.6808H73.4729L73.4609 64.6927Z" fill="#9ECAEF"/>
<path d="M73.9661 64.251V64.7047H73.9062V64.251H73.9661Z" fill="#9ECAEF"/>
<path d="M74.4457 64.5015C74.4457 64.4418 74.4457 64.3582 74.4457 64.3104C74.4457 64.3104 74.4097 64.4179 74.3858 64.4776L74.302 64.6925H74.2541L74.1822 64.4776C74.1583 64.4179 74.1463 64.3582 74.1343 64.2985C74.1343 64.2985 74.1343 64.4298 74.1343 64.5015V64.6925H74.0625L74.0984 64.2388H74.1703L74.2421 64.4537C74.2421 64.4537 74.278 64.5612 74.29 64.6089C74.29 64.6089 74.314 64.5134 74.3379 64.4537L74.4217 64.2388H74.4936L74.5175 64.6925H74.4576V64.5015H74.4457Z" fill="#9ECAEF"/>
<path d="M74.8734 64.5614L74.8255 64.7047H74.7656L74.9213 64.251H74.9931L75.1488 64.7047H75.0889L75.041 64.5614H74.8854H74.8734ZM75.0171 64.5137L74.9692 64.3823C74.9692 64.3823 74.9572 64.3226 74.9452 64.2987C74.9452 64.2987 74.9333 64.3465 74.9213 64.3823L74.8734 64.5137H75.0051H75.0171Z" fill="#9ECAEF"/>
<path d="M75.2109 64.251C75.2109 64.251 75.2828 64.251 75.3307 64.251C75.4145 64.251 75.4744 64.2749 75.5103 64.3107C75.5462 64.3465 75.5702 64.3943 75.5702 64.4778C75.5702 64.5614 75.5462 64.6092 75.5103 64.6569C75.4744 64.7047 75.4025 64.7166 75.3187 64.7166C75.2828 64.7166 75.2469 64.7166 75.2109 64.7166V64.2749V64.251ZM75.2708 64.6569C75.2708 64.6569 75.3067 64.6569 75.3307 64.6569C75.4504 64.6569 75.5223 64.5853 75.5223 64.4659C75.5223 64.3584 75.4624 64.2868 75.3426 64.2868C75.3187 64.2868 75.2948 64.2868 75.2708 64.2868V64.645V64.6569Z" fill="#9ECAEF"/>
<path d="M76.2269 64.5015C76.2269 64.4418 76.2269 64.3582 76.2269 64.3104C76.2269 64.3104 76.191 64.4179 76.1671 64.4776L76.0832 64.6925H76.0353L75.9635 64.4776C75.9395 64.4179 75.9276 64.3582 75.9156 64.2985C75.9156 64.2985 75.9156 64.4298 75.9156 64.5015V64.6925H75.8438L75.8797 64.2388H75.9515L76.0234 64.4537C76.0234 64.4537 76.0593 64.5612 76.0713 64.6089C76.0713 64.6089 76.0952 64.5134 76.1192 64.4537L76.203 64.2388H76.2748L76.2988 64.6925H76.2389V64.5015H76.2269Z" fill="#9ECAEF"/>
<path d="M76.4427 64.251V64.7047H76.3828V64.251H76.4427Z" fill="#9ECAEF"/>
<path d="M76.5469 64.6927V64.239H76.6067L76.7504 64.4659C76.7504 64.4659 76.8103 64.5614 76.8343 64.6091C76.8343 64.5494 76.8343 64.4897 76.8343 64.4181V64.2271H76.8941V64.6808H76.8343L76.6906 64.4539C76.6906 64.4539 76.6307 64.3584 76.6067 64.2987C76.6067 64.2987 76.6067 64.4062 76.6067 64.4897V64.6808H76.5469V64.6927Z" fill="#9ECAEF"/>
<path d="M77.0521 64.251V64.7047H76.9922V64.251H77.0521Z" fill="#9ECAEF"/>
<path d="M77.5316 64.5015C77.5316 64.4418 77.5316 64.3582 77.5316 64.3104C77.5316 64.3104 77.4957 64.4179 77.4717 64.4776L77.3879 64.6925H77.34L77.2682 64.4776C77.2442 64.4179 77.2323 64.3582 77.2203 64.2985C77.2203 64.2985 77.2203 64.4298 77.2203 64.5015V64.6925H77.1484L77.1844 64.2388H77.2562L77.3281 64.4537C77.3281 64.4537 77.364 64.5612 77.3759 64.6089C77.3759 64.6089 77.3999 64.5134 77.4238 64.4537L77.5077 64.2388H77.5795L77.6035 64.6925H77.5436V64.5015H77.5316Z" fill="#9ECAEF"/>
<path d="M77.9874 64.6925L77.8438 64.2388H77.9036L77.9755 64.4656C77.9994 64.5253 78.0114 64.585 78.0234 64.6328C78.0234 64.6328 78.0593 64.5253 78.0713 64.4656L78.1431 64.2388H78.203L78.0473 64.6925H77.9874Z" fill="#9ECAEF"/>
<path d="M78.4895 64.4898H78.3099V64.6569H78.5015V64.7047H78.25V64.251H78.4895V64.2987H78.2979V64.442H78.4775V64.4898H78.4895Z" fill="#9ECAEF"/>
<path d="M78.5859 64.6927V64.239H78.6458L78.7895 64.4659C78.7895 64.4659 78.8494 64.5614 78.8733 64.6091C78.8733 64.5494 78.8733 64.4897 78.8733 64.4181V64.2271H78.9332V64.6808H78.8733L78.7296 64.4539C78.7296 64.4539 78.6698 64.3584 78.6458 64.2987C78.6458 64.2987 78.6458 64.4062 78.6458 64.4897V64.6808H78.5859V64.6927Z" fill="#9ECAEF"/>
<path d="M79.0755 64.251V64.7047H79.0156V64.251H79.0755Z" fill="#9ECAEF"/>
<path d="M79.2562 64.5614L79.2083 64.7047H79.1484L79.3041 64.251H79.3759L79.5316 64.7047H79.4717L79.4238 64.5614H79.2682H79.2562ZM79.3999 64.5137L79.352 64.3823C79.352 64.3823 79.34 64.3226 79.3281 64.2987C79.3281 64.2987 79.3161 64.3465 79.3041 64.3823L79.2562 64.5137H79.3879H79.3999Z" fill="#9ECAEF"/>
<path d="M79.9613 64.5015C79.9613 64.4418 79.9613 64.3582 79.9613 64.3104C79.9613 64.3104 79.9254 64.4179 79.9014 64.4776L79.8176 64.6925H79.7697L79.6979 64.4776C79.6739 64.4179 79.6619 64.3582 79.65 64.2985C79.65 64.2985 79.65 64.4298 79.65 64.5015V64.6925H79.5781L79.614 64.2388H79.6859L79.7577 64.4537C79.7577 64.4537 79.7937 64.5612 79.8056 64.6089C79.8056 64.6089 79.8296 64.5134 79.8535 64.4537L79.9374 64.2388H80.0092L80.0331 64.6925H79.9733V64.5015H79.9613Z" fill="#9ECAEF"/>
<path d="M80.0859 64.8123C80.0859 64.8123 80.1338 64.6571 80.1458 64.5854H80.2416C80.2177 64.6571 80.1817 64.7646 80.1458 64.8123H80.0859Z" fill="#9ECAEF"/>
<path d="M80.8988 64.7644C80.8389 64.7525 80.7791 64.7286 80.7312 64.7166H80.7072C80.5994 64.7166 80.5156 64.6331 80.5156 64.4898C80.5156 64.3465 80.5995 64.251 80.7192 64.251C80.8389 64.251 80.9227 64.3465 80.9227 64.4778C80.9227 64.5972 80.8749 64.6689 80.791 64.6928C80.791 64.6928 80.8868 64.7166 80.9227 64.7286V64.7763L80.8988 64.7644ZM80.8509 64.4778C80.8509 64.3823 80.803 64.2987 80.7072 64.2987C80.6114 64.2987 80.5635 64.3943 80.5635 64.4898C80.5635 64.5853 80.6114 64.6689 80.7072 64.6689C80.803 64.6689 80.8509 64.5853 80.8509 64.4778Z" fill="#9ECAEF"/>
<path d="M81.0401 64.251V64.5137C81.0401 64.6092 81.088 64.6569 81.1478 64.6569C81.2197 64.6569 81.2556 64.6092 81.2556 64.5137V64.251H81.3155V64.5137C81.3155 64.645 81.2436 64.7047 81.1478 64.7047C81.0521 64.7047 80.9922 64.6569 80.9922 64.5137V64.251H81.0521H81.0401Z" fill="#9ECAEF"/>
<path d="M81.4739 64.251V64.7047H81.4141V64.251H81.4739Z" fill="#9ECAEF"/>
<path d="M81.5708 64.6209C81.5708 64.6209 81.6307 64.6447 81.6786 64.6447C81.7385 64.6447 81.7744 64.6089 81.7744 64.5731C81.7744 64.5373 81.7504 64.5134 81.6906 64.4895C81.6187 64.4656 81.5708 64.4298 81.5708 64.3582C81.5708 64.2865 81.6307 64.2388 81.7145 64.2388C81.7624 64.2388 81.7983 64.2388 81.8103 64.2627V64.3104C81.8103 64.3104 81.7504 64.2865 81.7145 64.2865C81.6546 64.2865 81.6307 64.3224 81.6307 64.3582C81.6307 64.4059 81.6546 64.4179 81.7145 64.4418C81.7864 64.4656 81.8223 64.5015 81.8223 64.5731C81.8223 64.6447 81.7744 64.7044 81.6666 64.7044C81.6187 64.7044 81.5708 64.6925 81.5469 64.6806V64.6328L81.5708 64.6209Z" fill="#9ECAEF"/>
<path d="M82.1057 64.6927V64.239H82.1656L82.3093 64.4659C82.3093 64.4659 82.3692 64.5614 82.3931 64.6091C82.3931 64.5494 82.3931 64.4897 82.3931 64.4181V64.2271H82.441V64.6808H82.3811L82.2374 64.4539C82.2374 64.4539 82.1776 64.3584 82.1536 64.2987C82.1536 64.2987 82.1536 64.4062 82.1536 64.4897V64.6808H82.0938L82.1057 64.6927Z" fill="#9ECAEF"/>
<path d="M82.9227 64.4656C82.9227 64.6209 82.8269 64.7044 82.7192 64.7044C82.5994 64.7044 82.5156 64.6089 82.5156 64.4776C82.5156 64.3343 82.5994 64.2388 82.7192 64.2388C82.8389 64.2388 82.9227 64.3343 82.9227 64.4656ZM82.5755 64.4776C82.5755 64.5731 82.6234 64.6567 82.7192 64.6567C82.815 64.6567 82.8629 64.5731 82.8629 64.4656C82.8629 64.3701 82.815 64.2865 82.7192 64.2865C82.6234 64.2865 82.5755 64.3701 82.5755 64.4776Z" fill="#9ECAEF"/>
<path d="M82.9922 64.6209C82.9922 64.6209 83.0521 64.6447 83.1 64.6447C83.1598 64.6447 83.1958 64.6089 83.1958 64.5731C83.1958 64.5373 83.1718 64.5134 83.1119 64.4895C83.0401 64.4656 82.9922 64.4298 82.9922 64.3582C82.9922 64.2865 83.0521 64.2388 83.1359 64.2388C83.1838 64.2388 83.2197 64.2388 83.2317 64.2627V64.3104C83.2317 64.3104 83.1718 64.2865 83.1359 64.2865C83.076 64.2865 83.0521 64.3224 83.0521 64.3582C83.0521 64.4059 83.076 64.4179 83.1359 64.4418C83.2077 64.4656 83.2556 64.5015 83.2556 64.5731C83.2556 64.6447 83.2077 64.7044 83.1 64.7044C83.064 64.7044 83.0161 64.6925 82.9922 64.6806V64.6328V64.6209Z" fill="#9ECAEF"/>
<path d="M83.413 64.2987H83.2812V64.251H83.6165V64.2987H83.4848V64.6928H83.4249V64.2987H83.413Z" fill="#9ECAEF"/>
<path d="M83.6641 64.251C83.6641 64.251 83.7359 64.251 83.7718 64.251C83.8317 64.251 83.8676 64.251 83.9035 64.2868C83.9275 64.3107 83.9395 64.3346 83.9395 64.3704C83.9395 64.4301 83.9035 64.4659 83.8556 64.4898C83.8556 64.4898 83.9155 64.5375 83.9275 64.5853C83.9395 64.645 83.9514 64.6928 83.9634 64.7047H83.9035C83.9035 64.7047 83.8916 64.6569 83.8676 64.5972C83.8556 64.5375 83.8317 64.5137 83.7718 64.5137H83.7239V64.7047H83.6641V64.2629V64.251ZM83.7239 64.454H83.7838C83.8437 64.454 83.8796 64.4181 83.8796 64.3704C83.8796 64.3107 83.8317 64.2868 83.7838 64.2868C83.7599 64.2868 83.7359 64.2868 83.7239 64.2868V64.454Z" fill="#9ECAEF"/>
<path d="M84.0833 64.251V64.5137C84.0833 64.6092 84.1312 64.6569 84.1911 64.6569C84.2629 64.6569 84.2988 64.6092 84.2988 64.5137V64.251H84.3587V64.5137C84.3587 64.645 84.2869 64.7047 84.1911 64.7047C84.0953 64.7047 84.0234 64.6569 84.0234 64.5137V64.251H84.0833Z" fill="#9ECAEF"/>
<path d="M84.4531 64.251C84.4531 64.251 84.5369 64.251 84.5729 64.251C84.6567 64.251 84.7166 64.2749 84.7525 64.3107C84.7884 64.3465 84.8124 64.3943 84.8124 64.4778C84.8124 64.5614 84.7884 64.6092 84.7525 64.6569C84.7166 64.7047 84.6447 64.7166 84.5609 64.7166C84.513 64.7166 84.489 64.7166 84.4531 64.7166V64.2749V64.251ZM84.513 64.6569C84.513 64.6569 84.5489 64.6569 84.5729 64.6569C84.6926 64.6569 84.7645 64.5853 84.7645 64.4659C84.7645 64.3584 84.7046 64.2868 84.5848 64.2868C84.5609 64.2868 84.5369 64.2868 84.513 64.2868V64.645V64.6569Z" fill="#9ECAEF"/>
<path d="M85.3254 64.4898H85.1458V64.6569H85.3374V64.7047H85.0859V64.251H85.3254V64.2987H85.1458V64.442H85.3254V64.4898Z" fill="#9ECAEF"/>
<path d="M85.666 64.6925L85.6062 64.597C85.6062 64.597 85.5702 64.5373 85.5583 64.5134C85.5583 64.5134 85.5343 64.5612 85.5104 64.597L85.4625 64.6925H85.3906L85.5343 64.4656L85.4026 64.2388H85.4744L85.5343 64.3462C85.5343 64.3462 85.5702 64.394 85.5822 64.4179C85.5822 64.4179 85.6062 64.3701 85.6181 64.3462L85.678 64.2388H85.7499L85.6062 64.4537L85.7499 64.6806H85.678L85.666 64.6925Z" fill="#9ECAEF"/>
<path d="M86.0364 64.4898H85.8567V64.6569H86.0483V64.7047H85.7969V64.251H86.0364V64.2987H85.8448V64.442H86.0244V64.4898H86.0364Z" fill="#9ECAEF"/>
<path d="M86.1292 64.251C86.1292 64.251 86.201 64.251 86.2369 64.251C86.2968 64.251 86.3447 64.251 86.3686 64.2868C86.3926 64.3107 86.4046 64.3346 86.4046 64.3704C86.4046 64.4301 86.3686 64.4659 86.3207 64.4898C86.3207 64.4898 86.3806 64.5375 86.3926 64.5853C86.4046 64.645 86.4165 64.6928 86.4285 64.7047H86.3686C86.3686 64.7047 86.3447 64.6569 86.3327 64.5972C86.3207 64.5375 86.2968 64.5137 86.2369 64.5137H86.1771V64.7047H86.1172V64.2629L86.1292 64.251ZM86.189 64.454H86.2489C86.3088 64.454 86.3447 64.4181 86.3447 64.3704C86.3447 64.3107 86.3088 64.2868 86.2369 64.2868C86.213 64.2868 86.189 64.2868 86.1771 64.2868V64.454H86.189Z" fill="#9ECAEF"/>
<path d="M86.8004 64.6806C86.8004 64.6806 86.7405 64.7044 86.6806 64.7044C86.5489 64.7044 86.4531 64.6209 86.4531 64.4776C86.4531 64.3343 86.5489 64.2388 86.6926 64.2388C86.7525 64.2388 86.7884 64.2388 86.8004 64.2627V64.3104C86.8004 64.3104 86.7285 64.2865 86.6926 64.2865C86.5848 64.2865 86.513 64.3582 86.513 64.4656C86.513 64.5731 86.5729 64.6447 86.6806 64.6447C86.7166 64.6447 86.7525 64.6447 86.7764 64.6209V64.6686L86.8004 64.6806Z" fill="#9ECAEF"/>
<path d="M86.9349 64.251V64.7047H86.875V64.251H86.9349Z" fill="#9ECAEF"/>
<path d="M87.1239 64.2987H86.9922V64.251H87.3275V64.2987H87.1957V64.6928H87.1359V64.2987H87.1239Z" fill="#9ECAEF"/>
<path d="M87.389 64.5614L87.3411 64.7047H87.2812L87.4369 64.251H87.5088L87.6644 64.7047H87.6046L87.5567 64.5614H87.401H87.389ZM87.5447 64.5137L87.4968 64.3823C87.4968 64.3823 87.4848 64.3226 87.4728 64.2987C87.4728 64.2987 87.4609 64.3465 87.4489 64.3823L87.401 64.5137H87.5327H87.5447Z" fill="#9ECAEF"/>
<path d="M87.7567 64.2987H87.625V64.251H87.9603V64.2987H87.8166V64.6928H87.7567V64.2987Z" fill="#9ECAEF"/>
<path d="M88.0677 64.251V64.7047H88.0078V64.251H88.0677Z" fill="#9ECAEF"/>
<path d="M88.5477 64.4656C88.5477 64.6209 88.4519 64.7044 88.3442 64.7044C88.2364 64.7044 88.1406 64.6089 88.1406 64.4776C88.1406 64.3343 88.2244 64.2388 88.3442 64.2388C88.4639 64.2388 88.5477 64.3343 88.5477 64.4656ZM88.2005 64.4776C88.2005 64.5731 88.2484 64.6567 88.3442 64.6567C88.44 64.6567 88.4879 64.5731 88.4879 64.4656C88.4879 64.3701 88.44 64.2865 88.3442 64.2865C88.2484 64.2865 88.2005 64.3701 88.2005 64.4776Z" fill="#9ECAEF"/>
<path d="M88.6172 64.6927V64.239H88.6771L88.8207 64.4659C88.8207 64.4659 88.8806 64.5614 88.9046 64.6091C88.9046 64.5494 88.9046 64.4897 88.9046 64.4181V64.2271H88.9525V64.6808H88.8926L88.7489 64.4539C88.7489 64.4539 88.689 64.3584 88.6651 64.2987C88.6651 64.2987 88.6651 64.4062 88.6651 64.4897V64.6808H88.6172V64.6927Z" fill="#9ECAEF"/>
<path d="M89.3255 64.251V64.5137C89.3255 64.6092 89.3734 64.6569 89.4333 64.6569C89.5051 64.6569 89.541 64.6092 89.541 64.5137V64.251H89.6009V64.5137C89.6009 64.645 89.5291 64.7047 89.4333 64.7047C89.3375 64.7047 89.2656 64.6569 89.2656 64.5137V64.251H89.3255Z" fill="#9ECAEF"/>
<path d="M89.6953 64.2507H89.7552V64.6447H89.9468V64.6925H89.6953V64.2388V64.2507Z" fill="#9ECAEF"/>
<path d="M90.0078 64.2507H90.0677V64.6447H90.2593V64.6925H90.0078V64.2388V64.2507Z" fill="#9ECAEF"/>
<path d="M90.4046 64.5614L90.3567 64.7047H90.2969L90.4525 64.251H90.5244L90.68 64.7047H90.6202L90.5723 64.5614H90.4166H90.4046ZM90.5483 64.5137L90.5004 64.3823C90.5004 64.3823 90.4885 64.3226 90.4765 64.2987C90.4765 64.2987 90.4645 64.3465 90.4525 64.3823L90.4046 64.5137H90.5364H90.5483Z" fill="#9ECAEF"/>
<path d="M91.1097 64.5015C91.1097 64.4418 91.1097 64.3582 91.1097 64.3104C91.1097 64.3104 91.0738 64.4179 91.0499 64.4776L90.9661 64.6925H90.9182L90.8463 64.4776C90.8224 64.4179 90.8104 64.3582 90.7984 64.2985C90.7984 64.2985 90.7984 64.4298 90.7984 64.5015V64.6925H90.7266L90.7625 64.2388H90.8343L90.9062 64.4537C90.9062 64.4537 90.9421 64.5612 90.9541 64.6089C90.9541 64.6089 90.978 64.5134 91.002 64.4537L91.0858 64.2388H91.1576L91.1816 64.6925H91.1217V64.5015H91.1097Z" fill="#9ECAEF"/>
<path d="M91.5738 64.6806C91.5738 64.6806 91.5139 64.7044 91.4541 64.7044C91.3223 64.7044 91.2266 64.6209 91.2266 64.4776C91.2266 64.3343 91.3224 64.2388 91.466 64.2388C91.5259 64.2388 91.5618 64.2388 91.5738 64.2627V64.3104C91.5738 64.3104 91.502 64.2865 91.466 64.2865C91.3583 64.2865 91.2864 64.3582 91.2864 64.4656C91.2864 64.5731 91.3463 64.6447 91.4541 64.6447C91.49 64.6447 91.5259 64.6447 91.5499 64.6209V64.6686L91.5738 64.6806Z" fill="#9ECAEF"/>
<path d="M92.0243 64.4656C92.0243 64.6209 91.9285 64.7044 91.8207 64.7044C91.701 64.7044 91.6172 64.6089 91.6172 64.4776C91.6172 64.3343 91.701 64.2388 91.8207 64.2388C91.9405 64.2388 92.0243 64.3343 92.0243 64.4656ZM91.6771 64.4776C91.6771 64.5731 91.725 64.6567 91.8207 64.6567C91.9165 64.6567 91.9644 64.5731 91.9644 64.4656C91.9644 64.3701 91.9165 64.2865 91.8207 64.2865C91.725 64.2865 91.6771 64.3701 91.6771 64.4776Z" fill="#9ECAEF"/>
<path d="M92.2969 64.2507H92.3567V64.6447H92.5483V64.6925H92.2969V64.2388V64.2507Z" fill="#9ECAEF"/>
<path d="M92.6937 64.5614L92.6458 64.7047H92.5859L92.7416 64.251H92.8134L92.9691 64.7047H92.9092L92.8613 64.5614H92.7057H92.6937ZM92.8374 64.5137L92.7895 64.3823C92.7895 64.3823 92.7775 64.3226 92.7656 64.2987C92.7656 64.2987 92.7536 64.3465 92.7416 64.3823L92.6937 64.5137H92.8254H92.8374Z" fill="#9ECAEF"/>
<path d="M93.0234 64.251C93.0234 64.251 93.0833 64.251 93.1312 64.251C93.1911 64.251 93.227 64.251 93.2509 64.2868C93.2749 64.2987 93.2869 64.3346 93.2869 64.3704C93.2869 64.4181 93.2629 64.454 93.215 64.4659C93.215 64.4659 93.3108 64.5137 93.3108 64.5734C93.3108 64.6092 93.2988 64.645 93.2749 64.6689C93.2509 64.6928 93.1911 64.7166 93.1192 64.7166C93.0833 64.7166 93.0474 64.7166 93.0234 64.7166V64.2749V64.251ZM93.0713 64.442H93.1192C93.1791 64.442 93.215 64.4062 93.215 64.3704C93.215 64.3226 93.1791 64.2987 93.1192 64.2987C93.0953 64.2987 93.0833 64.2987 93.0713 64.2987V64.442ZM93.0713 64.6569C93.0713 64.6569 93.0953 64.6569 93.1192 64.6569C93.1791 64.6569 93.239 64.6331 93.239 64.5734C93.239 64.5137 93.1911 64.4898 93.1192 64.4898H93.0713V64.6569Z" fill="#9ECAEF"/>
<path d="M93.7665 64.4656C93.7665 64.6209 93.6707 64.7044 93.5629 64.7044C93.4552 64.7044 93.3594 64.6089 93.3594 64.4776C93.3594 64.3343 93.4432 64.2388 93.5629 64.2388C93.6827 64.2388 93.7665 64.3343 93.7665 64.4656ZM93.4192 64.4776C93.4192 64.5731 93.4671 64.6567 93.5629 64.6567C93.6587 64.6567 93.7066 64.5731 93.7066 64.4656C93.7066 64.3701 93.6587 64.2865 93.5629 64.2865C93.4671 64.2865 93.4192 64.3701 93.4192 64.4776Z" fill="#9ECAEF"/>
<path d="M93.8401 64.251C93.8401 64.251 93.9119 64.251 93.9479 64.251C94.0077 64.251 94.0556 64.251 94.0796 64.2868C94.1035 64.3107 94.1155 64.3346 94.1155 64.3704C94.1155 64.4301 94.0796 64.4659 94.0317 64.4898C94.0317 64.4898 94.0916 64.5375 94.0916 64.5853C94.1035 64.645 94.1155 64.6928 94.1275 64.7047H94.0676C94.0676 64.7047 94.0556 64.6569 94.0437 64.5972C94.0317 64.5375 94.0077 64.5137 93.9479 64.5137H93.888V64.7047H93.8281V64.2629L93.8401 64.251ZM93.9 64.454H93.9598C94.0197 64.454 94.0676 64.4181 94.0676 64.3704C94.0676 64.3107 94.0197 64.2868 93.9598 64.2868C93.9359 64.2868 93.9119 64.2868 93.9 64.2868V64.454Z" fill="#9ECAEF"/>
<path d="M94.263 64.251V64.7047H94.2031V64.251H94.263Z" fill="#9ECAEF"/>
<path d="M94.3557 64.6209C94.3557 64.6209 94.4156 64.6447 94.4635 64.6447C94.5234 64.6447 94.5593 64.6089 94.5593 64.5731C94.5593 64.5373 94.5353 64.5134 94.4755 64.4895C94.4036 64.4656 94.3557 64.4298 94.3557 64.3582C94.3557 64.2865 94.4156 64.2388 94.4994 64.2388C94.5473 64.2388 94.5832 64.2388 94.5952 64.2627V64.3104C94.5952 64.3104 94.5353 64.2865 94.4994 64.2865C94.4395 64.2865 94.4156 64.3224 94.4156 64.3582C94.4156 64.4059 94.4395 64.4179 94.4994 64.4418C94.5713 64.4656 94.6191 64.5015 94.6191 64.5731C94.6191 64.6447 94.5713 64.7044 94.4635 64.7044C94.4156 64.7044 94.3677 64.6925 94.3438 64.6806V64.6328L94.3557 64.6209Z" fill="#9ECAEF"/>
<path d="M94.8906 64.6927V64.239H94.9505L95.0942 64.4659C95.0942 64.4659 95.1541 64.5614 95.178 64.6091C95.178 64.5494 95.178 64.4897 95.178 64.4181V64.2271H95.2379V64.6808H95.178L95.0343 64.4539C95.0343 64.4539 94.9744 64.3584 94.9505 64.2987C94.9505 64.2987 94.9505 64.4062 94.9505 64.4897V64.6808H94.8906V64.6927Z" fill="#9ECAEF"/>
<path d="M95.388 64.251V64.7047H95.3281V64.251H95.388Z" fill="#9ECAEF"/>
<path d="M95.4849 64.6209C95.4849 64.6209 95.5448 64.6447 95.5927 64.6447C95.6525 64.6447 95.6884 64.6089 95.6884 64.5731C95.6884 64.5373 95.6645 64.5134 95.6046 64.4895C95.5328 64.4656 95.4849 64.4298 95.4849 64.3582C95.4849 64.2865 95.5448 64.2388 95.6286 64.2388C95.6765 64.2388 95.7124 64.2388 95.7244 64.2627V64.3104C95.7244 64.3104 95.6645 64.2865 95.6166 64.2865C95.5567 64.2865 95.5328 64.3224 95.5328 64.3582C95.5328 64.4059 95.5567 64.4179 95.6166 64.4418C95.6884 64.4656 95.7363 64.5015 95.7363 64.5731C95.7363 64.6447 95.6884 64.7044 95.5807 64.7044C95.5328 64.7044 95.4849 64.6925 95.4609 64.6806V64.6328L95.4849 64.6209Z" fill="#9ECAEF"/>
<path d="M95.8802 64.251V64.7047H95.8203V64.251H95.8802Z" fill="#9ECAEF"/>
<path d="M96.2354 64.251V64.5137C96.2354 64.6092 96.2833 64.6569 96.3432 64.6569C96.415 64.6569 96.4509 64.6092 96.4509 64.5137V64.251H96.5108V64.5137C96.5108 64.645 96.439 64.7047 96.3432 64.7047C96.2474 64.7047 96.1875 64.6569 96.1875 64.5137V64.251H96.2474H96.2354Z" fill="#9ECAEF"/>
<path d="M96.6942 64.2987H96.5625V64.251H96.8978V64.2987H96.7661V64.6928H96.7062V64.2987H96.6942Z" fill="#9ECAEF"/>
<path d="M97.2171 64.5614L97.1692 64.7047H97.1094L97.265 64.251H97.3369L97.4925 64.7047H97.4327L97.3848 64.5614H97.2171ZM97.3608 64.5137L97.3129 64.3823C97.3129 64.3823 97.301 64.3226 97.289 64.2987C97.289 64.2987 97.277 64.3465 97.265 64.3823L97.2171 64.5137H97.3489H97.3608Z" fill="#9ECAEF"/>
<path d="M97.5547 64.2507H97.6146V64.6447H97.8061V64.6925H97.5547V64.2388V64.2507Z" fill="#9ECAEF"/>
<path d="M97.9271 64.251V64.7047H97.8672V64.251H97.9271Z" fill="#9ECAEF"/>
<path d="M98.391 64.7644C98.3311 64.7525 98.2712 64.7286 98.2233 64.7166H98.1994C98.0916 64.7166 98.0078 64.6331 98.0078 64.4898C98.0078 64.3465 98.0916 64.251 98.2114 64.251C98.3311 64.251 98.4149 64.3465 98.4149 64.4778C98.4149 64.5972 98.367 64.6689 98.2832 64.6928C98.2832 64.6928 98.379 64.7166 98.4149 64.7286L98.391 64.7763V64.7644ZM98.3431 64.4778C98.3431 64.3823 98.2952 64.2987 98.1994 64.2987C98.1036 64.2987 98.0557 64.3943 98.0557 64.4898C98.0557 64.5853 98.1036 64.6689 98.1994 64.6689C98.2952 64.6689 98.3431 64.5853 98.3431 64.4778Z" fill="#9ECAEF"/>
<path d="M98.5323 64.251V64.5137C98.5323 64.6092 98.5802 64.6569 98.64 64.6569C98.7119 64.6569 98.7478 64.6092 98.7478 64.5137V64.251H98.8077V64.5137C98.8077 64.645 98.7358 64.7047 98.64 64.7047C98.5442 64.7047 98.4844 64.6569 98.4844 64.5137V64.251H98.5442H98.5323Z" fill="#9ECAEF"/>
<path d="M98.9661 64.251V64.7047H98.9062V64.251H98.9661Z" fill="#9ECAEF"/>
<path d="M99.0745 64.251C99.0745 64.251 99.1343 64.251 99.1822 64.251C99.2421 64.251 99.278 64.2629 99.314 64.2868C99.3379 64.3107 99.3499 64.3465 99.3499 64.3823C99.3499 64.4181 99.3499 64.454 99.314 64.4778C99.278 64.5137 99.2301 64.5256 99.1703 64.5256C99.1583 64.5256 99.1343 64.5256 99.1224 64.5256V64.7047H99.0625V64.2629L99.0745 64.251ZM99.1343 64.4659C99.1343 64.4659 99.1703 64.4659 99.1822 64.4659C99.2541 64.4659 99.29 64.4301 99.29 64.3704C99.29 64.3107 99.2421 64.2868 99.1822 64.2868C99.1583 64.2868 99.1343 64.2868 99.1224 64.2868V64.4659H99.1343Z" fill="#9ECAEF"/>
<path d="M99.8645 64.4898H99.6849V64.6569H99.8765V64.7047H99.625V64.251H99.8645V64.2987H99.6849V64.442H99.8645V64.4898Z" fill="#9ECAEF"/>
<path d="M100.201 64.6925L100.142 64.597C100.142 64.597 100.106 64.5373 100.094 64.5134C100.094 64.5134 100.07 64.5612 100.046 64.597L99.9859 64.6925H99.9141L100.058 64.4656L99.926 64.2388H99.9979L100.058 64.3462C100.058 64.3462 100.082 64.394 100.094 64.4179C100.094 64.4179 100.118 64.3701 100.13 64.3462L100.189 64.2388H100.261L100.13 64.4537L100.273 64.6806H100.201V64.6925Z" fill="#9ECAEF"/>
<path d="M100.771 64.4898H100.591V64.6569H100.783V64.7047H100.531V64.251H100.771V64.2987H100.591V64.442H100.771V64.4898Z" fill="#9ECAEF"/>
<path d="M100.944 64.5614L100.896 64.7047H100.836L100.992 64.251H101.063L101.219 64.7047H101.159L101.111 64.5614H100.956H100.944ZM101.087 64.5137L101.039 64.3823C101.039 64.3823 101.028 64.3226 101.016 64.2987C101.016 64.2987 101.004 64.3465 100.992 64.3823L100.944 64.5137H101.075H101.087Z" fill="#9ECAEF"/>
<path d="M79.6285 65.827C79.6285 65.827 79.5686 65.8509 79.5088 65.8509C79.377 65.8509 79.2812 65.7673 79.2812 65.6241C79.2812 65.4808 79.377 65.3853 79.5207 65.3853C79.5806 65.3853 79.6165 65.3853 79.6285 65.4091V65.4569C79.6285 65.4569 79.5567 65.433 79.5207 65.433C79.413 65.433 79.3411 65.5047 79.3411 65.6121C79.3411 65.7196 79.401 65.7912 79.5088 65.7912C79.5447 65.7912 79.5806 65.7912 79.6046 65.7673V65.8151L79.6285 65.827Z" fill="#9ECAEF"/>
<path d="M80.0712 65.6121C80.0712 65.7673 79.9754 65.8509 79.8676 65.8509C79.7599 65.8509 79.6641 65.7554 79.6641 65.6241C79.6641 65.4808 79.7479 65.3853 79.8676 65.3853C79.9874 65.3853 80.0712 65.4808 80.0712 65.6121ZM79.7239 65.6121C79.7239 65.7076 79.7718 65.7912 79.8676 65.7912C79.9634 65.7912 80.0113 65.7076 80.0113 65.6002C80.0113 65.5166 79.9634 65.4211 79.8676 65.4211C79.7718 65.4211 79.7239 65.5047 79.7239 65.6121Z" fill="#9ECAEF"/>
<path d="M80.5238 65.6357C80.5238 65.576 80.5238 65.4925 80.5238 65.4447C80.5238 65.4447 80.4879 65.5522 80.4639 65.6119L80.3801 65.8268H80.3322L80.2604 65.6119C80.2364 65.5522 80.2244 65.4924 80.2125 65.4327C80.2125 65.4327 80.2125 65.5641 80.2125 65.6357V65.8268H80.1406L80.1765 65.373H80.2484L80.3202 65.588C80.3202 65.588 80.3562 65.6954 80.3681 65.7432C80.3681 65.7432 80.3921 65.6477 80.416 65.588L80.4999 65.373H80.5717L80.5956 65.8268H80.5358V65.6357H80.5238Z" fill="#9ECAEF"/>
<path d="M81.055 65.6357C81.055 65.576 81.055 65.4925 81.055 65.4447C81.055 65.4447 81.0191 65.5522 80.9952 65.6119L80.9114 65.8268H80.8635L80.7916 65.6119C80.7677 65.5522 80.7557 65.4924 80.7437 65.4327C80.7437 65.4327 80.7437 65.5641 80.7437 65.6357V65.8268H80.6719L80.7078 65.373H80.7796L80.8635 65.588C80.8635 65.588 80.8994 65.6954 80.9114 65.7432C80.9114 65.7432 80.9353 65.6477 80.9593 65.588L81.0431 65.373H81.1149L81.1389 65.8268H81.079V65.6357H81.055Z" fill="#9ECAEF"/>
<path d="M81.6066 65.6121C81.6066 65.7673 81.5108 65.8509 81.3911 65.8509C81.2713 65.8509 81.1875 65.7554 81.1875 65.6241C81.1875 65.4808 81.2713 65.3853 81.3911 65.3853C81.5108 65.3853 81.5946 65.4808 81.5946 65.6121H81.6066ZM81.2474 65.6121C81.2474 65.7076 81.2953 65.7912 81.3911 65.7912C81.4869 65.7912 81.5347 65.7076 81.5347 65.6002C81.5347 65.5166 81.4869 65.4211 81.3911 65.4211C81.2953 65.4211 81.2474 65.5047 81.2474 65.6121Z" fill="#9ECAEF"/>
<path d="M81.676 65.397C81.676 65.397 81.7599 65.397 81.7958 65.397C81.8796 65.397 81.9395 65.4209 81.9754 65.4567C82.0113 65.4925 82.0353 65.5403 82.0353 65.6119C82.0353 65.6835 82.0113 65.7432 81.9754 65.791C81.9395 65.8268 81.8676 65.8507 81.7718 65.8507C81.7359 65.8507 81.7 65.8507 81.6641 65.8507V65.4089L81.676 65.397ZM81.7359 65.791C81.7359 65.791 81.7718 65.791 81.7958 65.791C81.9155 65.791 81.9874 65.7194 81.9874 65.6C81.9874 65.4925 81.9275 65.4328 81.8078 65.4328C81.7718 65.4328 81.7599 65.4328 81.7359 65.4328V65.791Z" fill="#9ECAEF"/>
<path d="M82.505 65.6121C82.505 65.7673 82.4092 65.8509 82.2895 65.8509C82.1698 65.8509 82.0859 65.7554 82.0859 65.6241C82.0859 65.4808 82.1698 65.3853 82.2895 65.3853C82.4092 65.3853 82.4931 65.4808 82.4931 65.6121H82.505ZM82.1578 65.6121C82.1578 65.7076 82.2057 65.7912 82.3015 65.7912C82.3973 65.7912 82.4452 65.7076 82.4452 65.6002C82.4452 65.5166 82.3973 65.4211 82.3015 65.4211C82.2057 65.4211 82.1578 65.5047 82.1578 65.6121Z" fill="#9ECAEF"/>
<path d="M83.0894 65.827C83.0894 65.827 83.0296 65.8509 82.9697 65.8509C82.838 65.8509 82.7422 65.7673 82.7422 65.6241C82.7422 65.4808 82.838 65.3853 82.9817 65.3853C83.0415 65.3853 83.0775 65.3853 83.0894 65.4091V65.4569C83.0894 65.4569 83.0176 65.433 82.9936 65.433C82.8859 65.433 82.814 65.5047 82.814 65.6121C82.814 65.7196 82.8739 65.7912 82.9817 65.7912C83.0176 65.7912 83.0535 65.7912 83.0775 65.7673V65.8151L83.0894 65.827Z" fill="#9ECAEF"/>
<path d="M83.5321 65.6121C83.5321 65.7673 83.4363 65.8509 83.3286 65.8509C83.2208 65.8509 83.125 65.7554 83.125 65.6241C83.125 65.4808 83.2088 65.3853 83.3286 65.3853C83.4483 65.3853 83.5321 65.4808 83.5321 65.6121ZM83.1849 65.6121C83.1849 65.7076 83.2328 65.7912 83.3286 65.7912C83.4244 65.7912 83.4723 65.7076 83.4723 65.6002C83.4723 65.5166 83.4244 65.4211 83.3286 65.4211C83.2328 65.4211 83.1849 65.5047 83.1849 65.6121Z" fill="#9ECAEF"/>
<path d="M83.6016 65.8387V65.385H83.6614L83.8051 65.6119C83.8051 65.6119 83.865 65.7074 83.8889 65.7551C83.8889 65.6954 83.8889 65.6357 83.8889 65.5641V65.373H83.9368V65.8268H83.877L83.7333 65.5999C83.7333 65.5999 83.6734 65.5044 83.6495 65.4447C83.6495 65.4447 83.6495 65.5522 83.6495 65.6357V65.8268H83.6016V65.8387Z" fill="#9ECAEF"/>
<path d="M84.0354 65.7673C84.0354 65.7673 84.0953 65.7912 84.1432 65.7912C84.203 65.7912 84.239 65.7554 84.239 65.7196C84.239 65.6838 84.215 65.6599 84.1552 65.636C84.0833 65.6121 84.0354 65.5763 84.0354 65.5047C84.0354 65.433 84.0953 65.3853 84.1791 65.3853C84.227 65.3853 84.2629 65.3853 84.2749 65.4091V65.4569C84.2749 65.4569 84.215 65.433 84.1791 65.433C84.1192 65.433 84.0953 65.4688 84.0953 65.5047C84.0953 65.5405 84.1192 65.5644 84.1791 65.5882C84.251 65.6121 84.2988 65.6599 84.2988 65.7196C84.2988 65.7912 84.2509 65.8509 84.1432 65.8509C84.0953 65.8509 84.0474 65.839 84.0234 65.827V65.7793L84.0354 65.7673Z" fill="#9ECAEF"/>
<path d="M84.6067 65.6241H84.4271V65.7912H84.6186V65.839H84.3672V65.3853H84.6067V65.433H84.4271V65.5763H84.6067V65.6241Z" fill="#9ECAEF"/>
<path d="M85.0785 65.8987C85.0785 65.8987 84.9587 65.8629 84.9108 65.8509H84.8869C84.7791 65.8509 84.6953 65.7673 84.6953 65.6241C84.6953 65.4808 84.7791 65.3853 84.8989 65.3853C85.0186 65.3853 85.1024 65.4808 85.1024 65.6121C85.1024 65.7315 85.0426 65.8032 84.9707 65.827C84.9707 65.827 85.0665 65.8509 85.1024 65.8629V65.9106L85.0785 65.8987ZM85.0306 65.6121C85.0306 65.5285 84.9827 65.433 84.8869 65.433C84.7911 65.433 84.7432 65.5285 84.7432 65.6241C84.7432 65.7196 84.7911 65.8032 84.8869 65.8032C84.9827 65.8032 85.0306 65.7196 85.0306 65.6121Z" fill="#9ECAEF"/>
<path d="M85.2198 65.3853V65.6479C85.2198 65.7435 85.2677 65.7912 85.3275 65.7912C85.3994 65.7912 85.4353 65.7435 85.4353 65.6479V65.3853H85.4952V65.6479C85.4952 65.7793 85.4233 65.839 85.3275 65.839C85.2318 65.839 85.1719 65.7912 85.1719 65.6479V65.3853H85.2317H85.2198Z" fill="#9ECAEF"/>
<path d="M85.639 65.6957L85.5911 65.839H85.5312L85.6869 65.3853H85.7588L85.9144 65.839H85.8545L85.8067 65.6957H85.651H85.639ZM85.7947 65.6479L85.7468 65.5166C85.7468 65.5166 85.7348 65.4569 85.7228 65.433C85.7228 65.433 85.7109 65.4808 85.6989 65.5166L85.651 65.6479H85.7827H85.7947Z" fill="#9ECAEF"/>
<path d="M86.0067 65.433H85.875V65.3853H86.2103V65.433H86.0666V65.827H86.0067V65.433Z" fill="#9ECAEF"/>
<path d="M86.2578 65.7911C86.2578 65.7911 86.2818 65.7314 86.3177 65.7314C86.3536 65.7314 86.3776 65.7553 86.3776 65.7911C86.3776 65.827 86.3536 65.8509 86.3177 65.8509C86.2818 65.8509 86.2578 65.827 86.2578 65.7911Z" fill="#9ECAEF"/>
<path d="M76.3125 60.9321H71.1094L73.4912 47.2495L76.3125 60.9321Z" fill="white" stroke="#5B5B5B" stroke-width="0.5"/>
<path d="M81.748 60.9326H76.624L78.9639 52.3828L81.748 60.9326Z" fill="#CCCCCC" stroke="#5B5B5B" stroke-width="0.5"/>
<path d="M70.4121 60.9321H65.3975L67.6924 55.6958L70.4121 60.9321Z" fill="#CCCCCC" stroke="#5B5B5B" stroke-width="0.5"/>
<path d="M93.6611 61.0034H88.4688L90.8389 47.312L93.6611 61.0034Z" fill="white" stroke="#5B5B5B" stroke-width="0.5"/>
<path d="M99.0996 61.0044H93.9756L96.3154 52.4546L99.0996 61.0044Z" fill="#CCCCCC" stroke="#5B5B5B" stroke-width="0.5"/>
<path d="M87.7588 61.0039H82.7578L85.04 55.7676L87.7588 61.0039Z" fill="#CCCCCC" stroke="#5B5B5B" stroke-width="0.5"/>
<path d="M66.6484 31.8433V39.3569H66.5469V31.8433H66.6484Z" fill="#1F75FE" stroke="#152F27"/>
<path d="M68.084 34.1001V39.3687H67.875V34.1001H68.084Z" fill="#003AA5" stroke="#152F27"/>
<path d="M69.5312 33.1328V39.3564H69.4297V33.1328H69.5312Z" fill="#1F75FE" stroke="#152F27"/>
<path d="M70.9746 36.106V39.3569H70.7656V36.106H70.9746Z" fill="#003AA5" stroke="#152F27"/>
<path d="M72.3984 31.8433V39.3569H72.2969V31.8433H72.3984Z" fill="#1F75FE" stroke="#152F27"/>
<path d="M73.8496 34.1001V39.3687H73.6406V34.1001H73.8496Z" fill="#003AA5" stroke="#152F27"/>
<path d="M75.2969 33.1328V39.3564H75.1953V33.1328H75.2969Z" fill="#1F75FE" stroke="#152F27"/>
<path d="M76.7324 36.106V39.3569H76.5234V36.106H76.7324Z" fill="#003AA5" stroke="#152F27"/>
<path d="M78.1562 31.8433V39.3569H78.0547V31.8433H78.1562Z" fill="#1F75FE" stroke="#152F27"/>
<path d="M79.5918 34.1001V39.3687H79.3828V34.1001H79.5918Z" fill="#003AA5" stroke="#152F27"/>
<path d="M81.0391 33.1328V39.3564H80.9375V33.1328H81.0391Z" fill="#1F75FE" stroke="#152F27"/>
<path d="M82.4902 36.106V39.3569H82.2812V36.106H82.4902Z" fill="#003AA5" stroke="#152F27"/>
<path d="M98.2569 31.188H85.1094V32.0238H98.2569V31.188Z" fill="#152F27"/>
<path d="M95.5508 33.0508H85.1094V33.7194H95.5508V33.0508Z" fill="#152F27"/>
<path d="M98.9155 34.8179H85.1094V35.4865H98.9155V34.8179Z" fill="#152F27"/>
<path d="M98.2569 37.4092H85.1094V38.245H98.2569V37.4092Z" fill="#152F27"/>
<path d="M95.5508 39.2598H85.1094V39.9284H95.5508V39.2598Z" fill="#152F27"/>
<path d="M98.9155 41.0386H85.1094V41.7072H98.9155V41.0386Z" fill="#152F27"/>
</svg>
