<svg width="114" height="96" viewBox="0 0 114 96" fill="none" xmlns="http://www.w3.org/2000/svg">
<g clip-path="url(#clip0_3245_764)">
<path d="M49.1094 83.102C51.362 87.512 54.083 91.7988 57.2649 95.9476C57.6998 95.97 58.1348 95.9886 58.5697 96.0035V82.2178C55.4435 82.2029 52.2764 82.5014 49.1094 83.102Z" fill="#DCDCDB"/>
<path d="M40.0781 85.6133C43.1411 88.8667 46.6613 92.0379 50.6387 95.1197C51.6238 95.3137 52.6163 95.4741 53.6199 95.6047C50.8209 91.7432 48.3972 87.7698 46.3639 83.6919C44.2897 84.203 42.1895 84.8447 40.0781 85.6133Z" fill="#DCDCDB"/>
<path d="M58.5696 62.7354C55.659 62.7689 52.7671 63.0002 49.9011 63.4368C47.47 63.8061 45.0538 64.3247 42.6562 64.9888C43.7788 70.3166 45.5222 75.5212 47.8715 80.5728C51.4512 79.8453 55.0308 79.4834 58.5696 79.4946V62.7354Z" fill="#DCDCDB"/>
<path d="M33.8125 88.2582C37.0874 90.4072 40.5927 92.1309 44.269 93.4031C41.7525 91.2019 39.4441 88.9596 37.355 86.6763C36.1804 87.1613 34.9983 87.6911 33.8125 88.2582Z" fill="#DCDCDB"/>
<path d="M58.565 16.8822C58.5055 16.8822 58.4497 16.8822 58.3902 16.8822C55.1265 16.8822 51.8294 16.5651 48.5285 15.9346C46.7405 20.0833 45.0083 24.8776 43.6738 30.1531C43.5549 30.6232 43.4396 31.097 43.3281 31.5671C45.5027 32.1416 47.6921 32.6005 49.8964 32.9363C52.7624 33.3728 55.6544 33.6042 58.565 33.6377V16.8822Z" fill="#DCDCDB"/>
<path d="M57.1992 0.0596945C56.058 1.68637 52.8947 6.44328 49.6719 13.3828C52.6494 13.9126 55.6268 14.1737 58.5634 14.1625V0" fill="#DCDCDB"/>
<path d="M58.566 60.0153V49.3599H41.1211C41.0802 53.3669 41.359 57.3216 41.9612 61.2092C42.017 61.5786 42.0801 61.9442 42.1396 62.3098C44.593 61.6383 47.0686 61.116 49.5592 60.7391C52.5404 60.2877 55.5476 60.0489 58.566 60.0153Z" fill="#DCDCDB"/>
<path d="M58.5658 36.3579C55.5437 36.3243 52.5402 36.0893 49.559 35.6378C47.2729 35.2908 44.998 34.8208 42.7454 34.2275C41.8979 38.3987 41.3812 42.5437 41.1953 46.6403H58.5658V36.3579Z" fill="#DCDCDB"/>
<path d="M38.4846 46.6399C38.6742 42.2971 39.2243 37.9058 40.135 33.4847C36.6111 32.4027 33.1355 31.0186 29.712 29.3359C29.3217 30.2127 28.9537 31.0932 28.6117 31.97C26.6787 36.9134 25.4892 41.827 25.0469 46.6399H38.4846Z" fill="#DCDCDB"/>
<path d="M93.7539 14.0433C91.702 11.9801 89.4902 10.1333 87.1558 8.50293C85.6058 9.39462 84.0668 10.2154 82.5391 10.9616C83.2899 11.9316 84.052 12.9539 84.814 14.0209C87.4829 17.7668 89.7765 21.5648 91.6648 25.3741C95.3002 23.4751 97.9357 21.7253 99.326 20.7403C97.6904 18.3712 95.8318 16.1289 93.7539 14.0433Z" fill="#DCDCDB"/>
<path d="M24.8632 51.8933C24.9933 57.3367 26.1196 62.6421 28.231 67.787C31.9333 65.8656 35.7026 64.2949 39.5276 63.0823C39.4383 62.5786 39.3528 62.0712 39.2748 61.5676C38.6577 57.5606 38.3715 53.4864 38.4124 49.3638H24.8743C24.8483 50.207 24.8446 51.0539 24.8632 51.8933Z" fill="#DCDCDB"/>
<path d="M50.6782 0.86912C49.6522 1.77946 45.6116 5.4656 41.0469 11.1067C43.0244 11.7932 44.9834 12.364 46.9201 12.8155C49.4849 7.18182 52.0498 2.9062 53.6965 0.380371C52.6854 0.514684 51.6781 0.675113 50.6782 0.86912Z" fill="#DCDCDB"/>
<path d="M40.0448 65.7686C36.4206 66.9363 32.8446 68.4436 29.3281 70.2792C31.4841 74.7974 34.417 79.1924 38.1156 83.4493C40.4835 82.5427 42.8402 81.7853 45.1671 81.1921C42.8811 76.1852 41.1711 71.0366 40.0448 65.7686Z" fill="#DCDCDB"/>
<path d="M40.7248 30.8212C40.8364 30.3436 40.9553 29.8661 41.0743 29.3885C42.3976 24.1802 44.0778 19.4606 45.8174 15.3454C43.6614 14.823 41.4794 14.1589 39.2826 13.3643C38.7175 14.1067 38.1525 14.8753 37.5875 15.67C34.952 19.371 32.7031 23.1206 30.8594 26.8739C34.1008 28.467 37.3942 29.784 40.7248 30.8212Z" fill="#DCDCDB"/>
<path d="M35.4224 14.0243C35.8313 13.4535 36.2402 12.8939 36.6453 12.3492C34.7644 11.5806 32.8761 10.7113 30.984 9.75244C29.2741 11.062 27.6348 12.4909 26.0885 14.0467C24.018 16.1248 22.1631 18.3634 20.5312 20.7288C23.1296 22.5532 25.7688 24.1911 28.4452 25.6312C30.3558 21.7361 32.6902 17.8522 35.4224 14.0243Z" fill="#DCDCDB"/>
<path d="M12.1016 46.6399H22.3276C22.7737 41.4763 24.0412 36.212 26.1117 30.929C26.4797 29.9851 26.8775 29.0412 27.2975 28.0973C24.5096 26.6012 21.7589 24.9036 19.0565 23.0083C14.7408 30.0784 12.332 38.1744 12.1016 46.6399Z" fill="#DCDCDB"/>
<path d="M33.4844 7.95815C35.1162 8.7491 36.7481 9.46544 38.3688 10.1109C40.956 6.84634 43.3944 4.19367 45.2977 2.25732C41.1232 3.59672 37.1533 5.50695 33.4844 7.95815Z" fill="#DCDCDB"/>
<path d="M12.1016 49.3599C12.3357 57.9335 14.804 66.1191 19.2163 73.2563C21.3909 71.7379 23.5989 70.3499 25.8292 69.0889C23.5208 63.5522 22.2941 57.8328 22.1529 51.9417C22.1343 51.0835 22.138 50.2254 22.164 49.3599H12.1016Z" fill="#DCDCDB"/>
<path d="M26.0931 81.9567C27.7286 83.5983 29.4646 85.1056 31.2823 86.4748C32.68 85.7734 34.0739 85.1243 35.4642 84.5236C31.9179 80.3412 29.0743 76.0246 26.9406 71.5811C24.8367 72.7787 22.7587 74.0957 20.7031 75.5284C22.2978 77.8005 24.0969 79.9495 26.0931 81.9567Z" fill="#DCDCDB"/>
<path d="M62.9908 95.9181C65.9869 92.0118 68.574 87.9862 70.7412 83.8486C67.8603 83.0838 64.9906 82.5876 62.1135 82.36C61.8347 82.3376 61.5522 82.3189 61.2734 82.3003V95.9965H61.2772C61.8533 95.9853 62.4221 95.9554 62.9908 95.9181Z" fill="#DCDCDB"/>
<path d="M81.631 87.9971C79.9545 89.7469 78.148 91.4705 76.2188 93.1718C79.0067 92.1608 81.6942 90.8848 84.2554 89.3626C83.3781 88.885 82.5046 88.4261 81.631 87.9971Z" fill="#DCDCDB"/>
<path d="M73.3993 84.6284C71.4775 88.3593 69.2286 92.0007 66.6562 95.5488C67.6896 95.4033 68.7156 95.2242 69.7341 95.0115C73.1762 92.3327 76.2764 89.5905 79.0308 86.7812C77.1462 85.9492 75.269 85.2291 73.3993 84.6284Z" fill="#DCDCDB"/>
<path d="M71.9864 81.3673C74.4732 76.1776 76.317 70.82 77.5028 65.3318C76.9192 65.1639 76.3281 65.0035 75.7297 64.8505C70.901 63.6119 66.0686 62.9142 61.2734 62.7612V79.5764C61.6266 79.5951 61.976 79.6212 62.3254 79.6473C65.5557 79.9048 68.7673 80.4756 71.9864 81.3673Z" fill="#DCDCDB"/>
<path d="M98.078 51.9417C97.9368 57.9111 96.6766 63.7089 94.3125 69.3128C97.1785 70.8835 99.327 72.3012 100.643 73.2302C105.048 66.1004 107.505 57.9223 107.739 49.3599H98.0669C98.0966 50.2254 98.1003 51.0835 98.078 51.9417Z" fill="#DCDCDB"/>
<path d="M107.746 46.6401V46.6327C107.511 38.1784 105.11 30.101 100.809 23.0347C99.3039 24.1054 96.5792 25.9112 92.8359 27.855C93.2969 28.881 93.7281 29.9033 94.1295 30.9293C96.2 36.2122 97.4639 41.4765 97.9136 46.6401H107.746Z" fill="#DCDCDB"/>
<path d="M83.5547 85.9189C84.6513 86.4748 85.7478 87.068 86.8556 87.6985C89.3015 86.0196 91.6099 84.1019 93.751 81.9529C95.7546 79.942 97.5574 77.7855 99.1484 75.5059C97.9328 74.6553 95.8995 73.3121 93.1785 71.8086C90.8181 76.67 87.6064 81.3746 83.5547 85.9189Z" fill="#DCDCDB"/>
<path d="M61.2812 60.0414C66.3367 60.1944 71.4329 60.9294 76.5181 62.2464C77.0311 62.3807 77.5366 62.515 78.0384 62.6568C78.1239 62.1755 78.2057 61.6942 78.28 61.2092C78.8822 57.3216 79.161 53.3669 79.1201 49.3599H61.2812V60.0414Z" fill="#DCDCDB"/>
<path d="M95.1937 46.6403C94.7514 41.8274 93.5619 36.9138 91.6289 31.9703C91.2498 31.004 90.8446 30.034 90.4097 29.064C87.4285 30.4854 83.9418 31.9144 80.0312 33.1307C80.9829 37.6712 81.559 42.1818 81.756 46.6403H95.1937Z" fill="#DCDCDB"/>
<path d="M95.357 49.3599H81.819C81.8599 53.4825 81.5699 57.5567 80.9566 61.5637C80.8599 62.1905 80.7521 62.8135 80.6406 63.4403C84.9675 64.8245 88.7516 66.4623 91.8963 68.0443C94.0746 62.8173 95.2381 57.4298 95.3682 51.8931C95.3905 51.0537 95.3831 50.2068 95.357 49.3599Z" fill="#DCDCDB"/>
<path d="M80.1112 66.1265C78.9068 71.6146 77.0705 76.9685 74.6172 82.1619C76.7397 82.8633 78.8697 83.7028 81.0145 84.6877C85.1629 80.1286 88.4229 75.409 90.7796 70.5401C87.7872 69.0291 84.1927 67.4584 80.1112 66.1265Z" fill="#DCDCDB"/>
<path d="M79.1602 29.3884C79.2532 29.7466 79.3387 30.1085 79.4279 30.4667C83.1042 29.3064 86.4014 27.9446 89.2376 26.5903C87.4236 22.934 85.2193 19.2777 82.6507 15.6699C81.766 14.4275 80.8776 13.2485 80.004 12.1367C77.9968 13.0172 76.0043 13.7746 74.0156 14.4051C75.8965 18.7367 77.7365 23.7809 79.1602 29.3884Z" fill="#DCDCDB"/>
<path d="M75.1172 2.44385C76.7267 4.08918 78.6931 6.22326 80.7971 8.78639C82.0535 8.18572 83.3173 7.53654 84.5886 6.83513C81.5963 5.01817 78.4218 3.5482 75.1172 2.44385Z" fill="#DCDCDB"/>
<path d="M61.2812 0V14.073C61.56 14.0543 61.8426 14.0357 62.1213 14.0133C64.8275 13.7969 67.5224 13.3492 70.2286 12.6627C67.1396 6.14481 64.1695 1.67518 63.0544 0.08208" fill="#DCDCDB"/>
<path d="M78.2275 9.94305C74.2166 5.14511 70.7708 1.95518 69.6705 0.97395C68.6482 0.761288 67.6148 0.585935 66.5703 0.44043C68.1278 2.83194 70.4845 6.76059 72.8896 11.9092C74.6627 11.3571 76.4395 10.7004 78.2275 9.94305Z" fill="#DCDCDB"/>
<path d="M61.2812 16.8002V33.6154C66.0764 33.4624 70.9088 32.7647 75.7375 31.5261C76.1055 31.4328 76.4698 31.3358 76.8303 31.2351C76.7448 30.8769 76.6556 30.515 76.5664 30.1568C75.1502 24.5568 73.2841 19.4976 71.3772 15.1772C68.3625 15.9719 65.3553 16.4905 62.3332 16.7293C61.9838 16.7554 61.6307 16.7778 61.2812 16.8002Z" fill="#DCDCDB"/>
<path d="M61.2812 36.3353V46.6401H79.0421C78.8488 42.4354 78.3098 38.1784 77.4214 33.8916C77.1203 33.9737 76.8192 34.0558 76.5144 34.1341C71.4292 35.4474 66.3367 36.1786 61.2812 36.3353Z" fill="#DCDCDB"/>
<mask id="mask0_3245_764" style="mask-type:luminance" maskUnits="userSpaceOnUse" x="39" y="6" width="8" height="16">
<path d="M46.9331 6.81641H39.7031V21.3296H46.9331V6.81641Z" fill="white"/>
</mask>
<g mask="url(#mask0_3245_764)">
<path d="M46.9331 21.3296C42.9408 21.3296 39.7031 18.08 39.7031 14.073C39.7031 10.066 42.9408 6.81641 46.9331 6.81641V21.3296Z" fill="#4674B7"/>
</g>
<mask id="mask1_3245_764" style="mask-type:luminance" maskUnits="userSpaceOnUse" x="26" y="85" width="6" height="11">
<path d="M31.182 85.1431H26.2344V95.0785H31.182V85.1431Z" fill="white"/>
</mask>
<g mask="url(#mask1_3245_764)">
<path d="M31.1898 95.0786C28.4576 95.0786 26.2422 92.855 26.2422 90.1128C26.2422 87.3706 28.4576 85.147 31.1898 85.147V95.0786Z" fill="#4674B7"/>
</g>
<mask id="mask2_3245_764" style="mask-type:luminance" maskUnits="userSpaceOnUse" x="97" y="17" width="6" height="10">
<path d="M102.047 17.3037H97.2188V26.9929H102.047V17.3037Z" fill="white"/>
</mask>
<g mask="url(#mask2_3245_764)">
<path d="M102.047 26.9966C99.3822 26.9966 97.2188 24.829 97.2188 22.1502C97.2188 19.4751 99.3784 17.3037 102.047 17.3037V26.9966Z" fill="#4674B7"/>
</g>
<path d="M114.004 75.4089C114.004 69.3425 109.104 64.4214 103.057 64.4214C97.0124 64.4214 92.1094 69.3387 92.1094 75.4089C92.1094 81.4754 97.0087 86.3964 103.057 86.3964C109.104 86.3964 114.004 81.4754 114.004 75.4089Z" fill="#152F27"/>
<path d="M103.05 80.9794C99.9868 80.9794 97.5 78.4871 97.5 75.4091C97.5 72.3348 99.9831 69.8389 103.05 69.8389C106.113 69.8389 108.6 72.3311 108.6 75.4091C108.6 78.4834 106.116 80.9794 103.05 80.9794Z" fill="#152F27"/>
<mask id="mask3_3245_764" style="mask-type:luminance" maskUnits="userSpaceOnUse" x="92" y="64" width="12" height="23">
<path d="M103.057 64.4214H92.1094V86.3964H103.057V64.4214Z" fill="white"/>
</mask>
<g mask="url(#mask3_3245_764)">
<path d="M103.057 82.7588C99.0122 82.7588 95.7299 79.4681 95.7299 75.4089C95.7299 71.3497 99.0085 68.0553 103.057 68.0553V64.4214C97.0124 64.4214 92.1094 69.3387 92.1094 75.4089C92.1094 81.4754 97.0087 86.3964 103.057 86.3964V82.7588Z" fill="#152F27"/>
</g>
<path d="M15.7188 40.4395L17.7706 38.6113L18.4992 39.4359L16.4473 41.2603L15.7188 40.4395Z" fill="#595A5C"/>
<path d="M20.8491 35.8701L18.7969 37.6973L19.5246 38.5206L21.5768 36.6935L20.8491 35.8701Z" fill="#595A5C"/>
<path d="M23.9273 33.1318L21.875 34.959L22.6027 35.7824L24.655 33.9552L23.9273 33.1318Z" fill="#595A5C"/>
<path d="M27.0054 30.3901L24.9531 32.2173L25.6808 33.0407L27.7331 31.2135L27.0054 30.3901Z" fill="#595A5C"/>
<path d="M30.0835 27.6509L28.0312 29.478L28.7589 30.3014L30.8112 28.4742L30.0835 27.6509Z" fill="#595A5C"/>
<path d="M33.1538 24.9097L31.1016 26.7368L31.8293 27.5602L33.8815 25.733L33.1538 24.9097Z" fill="#595A5C"/>
<path d="M36.232 22.1719L34.1797 23.999L34.9074 24.8224L36.9596 22.9952L36.232 22.1719Z" fill="#595A5C"/>
<path d="M39.3101 19.4287L37.2578 21.2559L37.9855 22.0792L40.0378 20.2521L39.3101 19.4287Z" fill="#595A5C"/>
<path d="M40.8337 18.0759L40.3359 18.519L41.0636 19.3424L41.5614 18.8992L40.8337 18.0759Z" fill="#595A5C"/>
<path d="M106.585 78.3414L102.046 76.6513L102.406 75.6776L100.879 74.133L101.655 73.357L103.588 75.312L103.049 75.8492L104.466 76.3753L104.555 76.2857L106.585 78.3414ZM100.763 76.1738L98.1911 75.215L98.5739 74.1815L101.146 75.1403L100.763 76.1738ZM96.9049 74.7374L94.3326 73.7785L94.7155 72.7451L97.2878 73.7039L96.9049 74.7374ZM93.0502 73.301L90.4779 72.3421L90.8607 71.3087L93.433 72.2675L93.0502 73.301ZM99.9158 73.1555L97.9829 71.2005L98.7598 70.4245L100.693 72.3795L99.9158 73.1555ZM89.1917 71.8646L86.6194 70.9058L87.0023 69.8723L89.5746 70.8311L89.1917 71.8646ZM85.337 70.4282L82.7646 69.4693L83.1475 68.4359L85.7198 69.3947L85.337 70.4282ZM97.0164 70.2267L95.0835 68.2717L95.8604 67.4957L97.7933 69.4507L97.0164 70.2267ZM81.4785 68.9918L78.9062 68.033L79.2891 66.9995L81.8614 67.9583L81.4785 68.9918ZM77.62 67.5554L75.0477 66.5965L75.4306 65.5631L78.0029 66.5219L77.62 67.5554ZM94.1207 67.298L92.1878 65.343L92.9647 64.5669L94.8976 66.5219L94.1207 67.298ZM73.7653 66.119L71.193 65.1601L71.5759 64.1267L74.1482 65.0855L73.7653 66.119ZM69.9068 64.6863L67.5687 63.817L67.9516 62.7836L70.2897 63.6529L69.9068 64.6863ZM91.2213 64.3655L89.2883 62.4105L90.0652 61.6344L91.9982 63.5894L91.2213 64.3655ZM88.3219 61.4367L86.3889 59.4817L87.1658 58.7057L89.0988 60.6607L88.3219 61.4367ZM85.4262 58.5042L83.4932 56.5492L84.2701 55.7732L86.2031 57.7282L85.4262 58.5042ZM82.5267 55.5754L80.5938 53.6204L81.3707 52.8444L83.3036 54.7994L82.5267 55.5754ZM79.631 52.643L77.6981 50.688L78.475 49.9119L80.4079 51.8669L79.631 52.643ZM76.7316 49.7142L74.7987 47.7592L75.5756 46.9832L77.5085 48.9382L76.7316 49.7142ZM73.8359 46.7817L71.903 44.8267L72.6799 44.0507L74.6128 46.0057L73.8359 46.7817ZM70.9365 43.8529L69.0035 41.8979L69.7804 41.1219L71.7134 43.0769L70.9365 43.8529ZM68.0371 40.9204L66.1041 38.9654L66.881 38.1894L68.814 40.1444L68.0371 40.9204ZM65.1414 37.9917L63.2084 36.0367L63.9853 35.2607L65.9183 37.2156L65.1414 37.9917ZM62.2419 35.0629L60.309 33.1079L61.0859 32.3319L63.0188 34.2869L62.2419 35.0629ZM59.3462 32.1304L57.4133 30.1754L58.1902 29.3994L60.1231 31.3544L59.3462 32.1304ZM56.4468 29.2017L54.5139 27.2467L55.2908 26.4706L57.2237 28.4256L56.4468 29.2017ZM53.5511 26.2692L51.6182 24.3142L52.3951 23.5381L54.328 25.4931L53.5511 26.2692ZM50.6517 23.3404L48.7188 21.3854L49.4956 20.6094L51.4286 22.5644L50.6517 23.3404Z" fill="#595A5C"/>
<path d="M36.8277 84.251L35.5625 85.4712L36.3223 86.2649L37.5875 85.0447L36.8277 84.251Z" fill="#595A5C"/>
<path d="M38.9458 83.7215L38.1875 82.9268L40.3286 80.8637L41.0869 81.6583L38.9458 83.7215ZM42.1575 80.6249L41.3992 79.8302L43.5403 77.767L44.2986 78.5617L42.1575 80.6249ZM45.3654 77.5282L44.6071 76.7335L46.7482 74.6703L47.5065 75.465L45.3654 77.5282ZM48.5771 74.4316L47.8188 73.6369L49.9599 71.5737L50.7182 72.3684L48.5771 74.4316ZM51.7888 71.3349L51.0304 70.5402L53.1716 68.477L53.9299 69.2717L51.7888 71.3349ZM54.9967 68.2383L54.2384 67.4436L56.3795 65.3804L57.1378 66.1751L54.9967 68.2383ZM58.2084 65.1416L57.4501 64.3469L58.0262 63.791L58.7845 64.5857L58.2084 65.1416Z" fill="#595A5C"/>
<path d="M59.9759 61.9151L58.7109 63.1353L59.4708 63.9288L60.7358 62.7086L59.9759 61.9151Z" fill="#595A5C"/>
<path d="M55.7858 59.2562L55.4844 60.3145L56.7853 60.6878L57.0868 59.6295L55.7858 59.2562Z" fill="#595A5C"/>
<path d="M51.8327 58.1224L51.5312 59.1807L54.1689 59.9376L54.4704 58.8793L51.8327 58.1224Z" fill="#595A5C"/>
<path d="M47.8796 56.9862L47.5781 58.0444L50.2158 58.8013L50.5173 57.7431L47.8796 56.9862Z" fill="#595A5C"/>
<path d="M43.9266 55.8597L43.625 56.918L46.2627 57.6752L46.5642 56.6169L43.9266 55.8597Z" fill="#595A5C"/>
<path d="M39.9577 54.7201L39.6562 55.7783L42.2939 56.5352L42.5954 55.477L39.9577 54.7201Z" fill="#595A5C"/>
<path d="M36.0125 53.5892L35.7109 54.6475L38.3486 55.4046L38.6502 54.3464L36.0125 53.5892Z" fill="#595A5C"/>
<path d="M32.0514 52.4496L31.75 53.5078L34.3877 54.2647L34.6891 53.2065L32.0514 52.4496Z" fill="#595A5C"/>
<path d="M28.0983 51.3158L27.7969 52.374L30.4346 53.1309L30.736 52.0727L28.0983 51.3158Z" fill="#595A5C"/>
<path d="M24.1452 50.181L23.8438 51.2393L26.4814 51.9962L26.7829 50.9379L24.1452 50.181Z" fill="#595A5C"/>
<path d="M20.1921 49.0448L19.8906 50.103L22.5283 50.8599L22.8298 49.8017L20.1921 49.0448Z" fill="#595A5C"/>
<path d="M15.9375 48.9683L16.2386 47.9087L18.8741 48.6661L18.573 49.7256L15.9375 48.9683Z" fill="#595A5C"/>
<path d="M94.9882 23.6914L94.2113 23.5197L94.4492 22.4452L95.2261 22.6168L94.9882 23.6914ZM92.8731 23.225L90.1967 22.6318L90.4346 21.5573L93.111 22.1505L92.8731 23.225ZM88.8585 22.3333L86.1821 21.7401L86.42 20.6656L89.0964 21.2588L88.8585 22.3333ZM84.8402 21.4416L82.1638 20.8484L82.4017 19.7739L85.0781 20.3671L84.8402 21.4416ZM80.8256 20.5499L78.1492 19.9567L78.3871 18.8822L81.0635 19.4754L80.8256 20.5499ZM76.8073 19.6582L74.1309 19.065L74.3688 17.9905L77.0452 18.5837L76.8073 19.6582ZM72.789 18.7703L70.1126 18.1771L70.3505 17.1026L73.0269 17.6958L72.789 18.7703ZM68.7744 17.8786L66.0981 17.2854L66.336 16.2109L69.0123 16.8041L68.7744 17.8786ZM64.7561 16.9869L62.0798 16.3937L62.3177 15.3192L64.994 15.9124L64.7561 16.9869ZM60.7416 16.0952L58.0652 15.502L58.3031 14.4275L60.9795 15.0207L60.7416 16.0952ZM56.7233 15.2073L54.0469 14.6141L54.2848 13.5396L56.9612 14.1328L56.7233 15.2073Z" fill="#595A5C"/>
<path d="M15.9297 47.9121L18.5578 47.1323L18.87 48.1882L16.2382 48.9679L15.9297 47.9121Z" fill="#595A5C"/>
<path d="M22.5061 45.9639L19.875 46.7437L20.1855 47.7993L22.8166 47.0195L22.5061 45.9639Z" fill="#595A5C"/>
<path d="M26.4514 44.7974L23.8203 45.5771L24.1309 46.6327L26.762 45.853L26.4514 44.7974Z" fill="#595A5C"/>
<path d="M30.3967 43.625L27.7656 44.4048L28.0762 45.4604L30.7073 44.6806L30.3967 43.625Z" fill="#595A5C"/>
<path d="M34.342 42.4561L31.7109 43.2358L32.0215 44.2914L34.6526 43.5117L34.342 42.4561Z" fill="#595A5C"/>
<path d="M38.2873 41.2852L35.6562 42.0649L35.9668 43.1205L38.5979 42.3408L38.2873 41.2852Z" fill="#595A5C"/>
<path d="M42.2248 40.1187L39.5938 40.8984L39.9043 41.954L42.5354 41.1743L42.2248 40.1187Z" fill="#595A5C"/>
<path d="M46.178 38.9458L43.5469 39.7256L43.8574 40.7812L46.4885 40.0014L46.178 38.9458Z" fill="#595A5C"/>
<path d="M50.1233 37.7774L47.4922 38.5571L47.8027 39.6127L50.4338 38.833L50.1233 37.7774Z" fill="#595A5C"/>
<path d="M54.0686 36.6113L51.4375 37.3911L51.748 38.4467L54.3791 37.6669L54.0686 36.6113Z" fill="#595A5C"/>
<path d="M58.0139 35.4395L55.3828 36.2192L55.6934 37.2748L58.3245 36.4951L58.0139 35.4395Z" fill="#595A5C"/>
<path d="M61.9592 34.27L59.3281 35.0498L59.6387 36.1054L62.2698 35.3256L61.9592 34.27Z" fill="#595A5C"/>
<path d="M65.8967 33.0987L63.2656 33.8784L63.5762 34.934L66.2073 34.1543L65.8967 33.0987Z" fill="#595A5C"/>
<path d="M69.8498 31.9321L67.2188 32.7119L67.5293 33.7675L70.1604 32.9877L69.8498 31.9321Z" fill="#595A5C"/>
<path d="M73.7952 30.7656L71.1641 31.5454L71.4746 32.601L74.1057 31.8212L73.7952 30.7656Z" fill="#595A5C"/>
<path d="M77.7405 29.5938L75.1094 30.3735L75.4199 31.4291L78.051 30.6494L77.7405 29.5938Z" fill="#595A5C"/>
<path d="M81.6858 28.4253L79.0547 29.2051L79.3652 30.2607L81.9963 29.4809L81.6858 28.4253Z" fill="#595A5C"/>
<path d="M85.6311 27.2539L83 28.0337L83.3106 29.0893L85.9417 28.3095L85.6311 27.2539Z" fill="#595A5C"/>
<path d="M89.5686 26.0864L86.9375 26.8662L87.248 27.9218L89.8791 27.142L89.5686 26.0864Z" fill="#595A5C"/>
<path d="M93.5217 24.9146L90.8906 25.6943L91.2012 26.7499L93.8323 25.9702L93.5217 24.9146Z" fill="#595A5C"/>
<path d="M97.0528 23.8675L94.8281 24.5269L95.1387 25.5825L97.3633 24.9231L97.0528 23.8675Z" fill="#595A5C"/>
<path d="M46.9331 6.81641C42.9408 6.81641 39.7031 10.066 39.7031 14.073C39.7031 18.08 42.9408 21.3296 46.9331 21.3296C50.9254 21.3296 54.1631 18.08 54.1631 14.073C54.1631 10.066 50.9291 6.81641 46.9331 6.81641Z" fill="#5B5B5B"/>
<path d="M31.1898 85.1431C28.4576 85.1431 26.2422 87.3667 26.2422 90.1089C26.2422 92.8511 28.4576 95.0747 31.1898 95.0747C33.9219 95.0747 36.1374 92.8511 36.1374 90.1089C36.1374 87.3667 33.9219 85.1431 31.1898 85.1431Z" fill="#5B5B5B"/>
<path d="M102.04 17.3037C99.3744 17.3037 97.2109 19.4714 97.2109 22.1502C97.2109 24.8252 99.3706 26.9966 102.04 26.9966C104.705 26.9966 106.868 24.829 106.868 22.1502C106.868 19.4751 104.709 17.3037 102.04 17.3037Z" fill="#5B5B5B"/>
<path d="M62.3228 54.8667C58.7432 54.8667 55.8438 57.7805 55.8438 61.3697C55.8438 64.9625 58.7469 67.8726 62.3228 67.8726C65.9025 67.8726 68.8019 64.9588 68.8019 61.3697C68.8019 57.7768 65.9025 54.8667 62.3228 54.8667Z" fill="#172618"/>
<circle cx="12" cy="46" r="6" fill="#677F76"/>
</g>
<defs>
<clipPath id="clip0_3245_764">
<rect width="114" height="96" fill="white"/>
</clipPath>
</defs>
</svg>
