<svg width="169" height="97" viewBox="0 0 169 97" fill="none" xmlns="http://www.w3.org/2000/svg">
<g clip-path="url(#clip0_3244_652)">
<path d="M84.4395 83.688C79.5807 72.6977 80.2886 54.708 82.5519 53.2125C85.0337 51.5692 88.9662 60.0032 92.8899 57.5339C96.8224 55.0645 99.5052 49.7172 96.2019 41.2831C92.8899 32.8491 88.5467 38.4051 85.4532 40.4571C82.3509 42.5178 79.8691 40.6658 80.4896 33.2578C80.944 27.7974 83.0937 17.7548 84.1861 12.8509C84.6754 13.0596 85.1736 13.277 85.6629 13.503C75.9454 8.97299 65.1879 7.53834 60.6437 8.97299C56.0908 10.4163 56.921 10.825 59.193 16.1723C63.9382 27.3279 45.9712 31.1623 40.7804 22.5631C37.6781 17.4157 42.2397 14.529 40.9988 10.825C39.7579 7.12098 16.801 11.4423 13.9085 13.0857C13.9085 13.0857 19.4926 29.7537 18.6624 35.7184C17.8322 41.6831 14.9397 44.3611 10.5965 40.0398C6.25329 35.7184 0.669181 39.6311 0.459449 46.8305C0.249718 54.0298 1.49063 59.7945 6.45428 58.1425C11.4179 56.4992 15.3504 50.5258 17.002 58.1425C18.6537 65.7592 15.7611 75.6279 14.1095 82.6273C14.1095 82.6273 27.1391 88.1833 33.1339 87.7746C39.1287 87.366 42.8515 87.1573 40.9901 83.4533C39.1287 79.7493 36.0264 77.2799 38.2985 73.1672C40.5706 69.0546 49.6677 69.4632 54.4304 70.4892C59.1843 71.5152 61.2554 75.0192 59.8048 78.9232C58.3541 82.8359 55.8723 86.7399 60.4252 87.5659C64.716 88.3398 75.6133 86.5573 86.3795 83.0794C85.7328 83.2881 85.0862 83.4967 84.4395 83.688Z" stroke="#263238" stroke-miterlimit="10"/>
<path d="M113.782 95.3912C118.335 97.4519 129.495 97.0345 130.534 92.3045C131.566 87.5745 125.781 84.8965 128.463 80.3752C131.155 75.8451 154.933 82.4358 154.933 82.4358C154.933 82.4358 149.559 64.3331 151.621 58.3597C153.692 52.3951 155.344 53.8297 158.656 56.0991C161.968 58.3597 166.311 58.1598 167.963 51.5691C169.614 44.987 167.753 38.1963 163.829 38.1963C159.897 38.1963 159.696 41.283 155.554 40.6657C151.42 40.0483 151.001 30.5796 155.344 13.9203C155.344 13.9203 150.59 17.4156 139.833 17.6243C129.084 17.8329 124.741 16.5983 127.423 12.6856C130.115 8.77289 132.177 5.68621 129.905 2.59953C127.633 -0.487149 116.675 -0.0784902 113.153 2.59953C109.64 5.27755 112.122 8.36423 114.604 11.8596C117.085 15.3549 114.193 17.4156 110.051 17.6243C105.917 17.8329 95.3695 18.0329 85.6519 13.5116C85.1625 13.2855 84.6732 13.0682 84.175 12.8595C83.0827 17.7634 80.9417 27.806 80.4785 33.2663C79.8581 40.6744 82.3399 42.5264 85.4422 40.4657C88.5445 38.405 92.8876 32.849 96.1909 41.2917C99.5029 49.7257 96.8114 55.0731 92.8789 57.5424C88.9464 60.0118 85.0227 51.5777 82.5409 53.2211C80.2863 54.7166 79.5697 72.715 84.4285 83.6966C85.7306 83.2966 87.0326 82.8793 88.326 82.4358C99.6952 78.5232 111.073 76.6711 113.144 79.3492C115.215 82.0272 114.385 81.6098 111.694 85.7312C109.028 89.8352 109.229 93.3305 113.782 95.3912Z" stroke="#263238" stroke-miterlimit="10"/>
<path d="M140.379 52.8735C138.623 47.8913 137.119 42.8396 135.651 37.7705L100.32 43.5613L101.552 58.5599C101.552 58.5599 126.668 59.0556 142.24 58.2643C141.541 56.3167 140.938 54.4647 140.379 52.8735Z" fill="#637B71" stroke="#263238" stroke-miterlimit="10"/>
<path d="M66.8415 43.7267L62.3672 57.2559L66.7716 59.6209C66.7716 59.6209 72.3207 63.8988 75.3618 66.2117C78.4029 68.5245 80.7274 68.5245 82.3441 67.8115C83.9521 67.0985 91.2927 56.769 92.184 54.8127C93.0754 52.8563 88.7846 46.9786 84.4851 44.4832C80.1856 41.9877 76.6115 41.9877 74.1034 42.7007C71.6041 43.4224 66.8415 43.7267 66.8415 43.7267Z" fill="white" stroke="#263238" stroke-miterlimit="10"/>
<path d="M100.321 45.0827L93.2516 44.474C93.2516 44.474 88.3317 43.248 86.4878 43.248C84.6439 43.248 82.1795 45.0827 80.9474 46.0043C79.7152 46.926 66.1875 61.6116 66.1875 61.6116C66.1875 61.6116 67.4197 64.0636 69.2636 63.4462C71.1075 62.8376 74.4894 61.3073 74.4894 61.3073C74.4894 61.3073 70.8016 64.9765 72.6455 66.8111C74.4894 68.6458 77.5654 68.6458 77.5654 68.6458L79.7152 67.4198C79.7152 67.4198 81.2532 68.6458 82.7913 68.9501C84.3293 69.2544 86.7936 68.6458 88.9434 67.4198C91.0931 66.1938 96.5462 59.8118 96.5462 59.8118L101.274 57.9945L100.321 45.0827Z" fill="#BDBDBD" stroke="#263238" stroke-miterlimit="10"/>
<path d="M69.2812 44.309C69.2812 44.309 78.2298 39.1443 82.171 40.5703C86.1122 41.9962 91.2943 50.7172 89.8699 51.9692C88.4367 53.2126 86.1122 52.6822 84.8626 51.4388C83.6129 50.1955 81.4632 48.9434 81.4632 48.9434C81.4632 48.9434 77.8803 51.0824 73.7643 51.0824" fill="white"/>
<path d="M69.2812 44.309C69.2812 44.309 78.2298 39.1443 82.171 40.5703C86.1122 41.9962 91.2943 50.7172 89.8699 51.9692C88.4367 53.2126 86.1122 52.6822 84.8626 51.4388C83.6129 50.1955 81.4632 48.9434 81.4632 48.9434C81.4632 48.9434 77.8803 51.0824 73.7643 51.0824" stroke="#263238" stroke-miterlimit="10"/>
<path d="M95.9685 64.5248L93.1284 63.0119C92.1672 62.4989 91.8089 61.3164 92.3157 60.36C92.8313 59.4036 94.0198 59.0471 94.9811 59.5514L97.8212 61.0643C98.7824 61.5773 99.1407 62.7598 98.6339 63.7162C98.1183 64.6727 96.9211 65.0378 95.9685 64.5248Z" fill="white" stroke="#263238" stroke-miterlimit="10"/>
<path d="M93.4607 67.5507L90.6206 66.0378C89.6593 65.5248 89.3011 64.3423 89.8079 63.3859C90.3235 62.4294 91.512 62.073 92.4732 62.5773L95.3134 64.0902C96.2746 64.6032 96.6329 65.7857 96.1261 66.7421C95.6105 67.7072 94.422 68.0637 93.4607 67.5507Z" fill="white" stroke="#263238" stroke-miterlimit="10"/>
<path d="M90.5935 70.2285L87.7534 68.7155C86.7922 68.2025 86.4339 67.0201 86.9407 66.0636C87.4563 65.1072 88.6448 64.7507 89.6061 65.255L92.4462 66.7679C93.4074 67.2809 93.7657 68.4634 93.2589 69.4198C92.7433 70.3763 91.5548 70.7328 90.5935 70.2285Z" fill="white" stroke="#263238" stroke-miterlimit="10"/>
<path d="M84.5665 70.3592L83.8237 69.9592C82.8625 69.4462 82.5042 68.2637 83.011 67.3073C83.5266 66.3508 84.7151 65.9943 85.6764 66.4986L86.4192 66.8986C87.3804 67.4116 87.7387 68.5941 87.2319 69.5505C86.7163 70.507 85.5278 70.8722 84.5665 70.3592Z" fill="white" stroke="#263238" stroke-miterlimit="10"/>
<path d="M66.8407 43.7263L29.2812 27.9277L30.6707 52.682L61.6848 59.751L66.8407 43.7263Z" fill="#263238" stroke="#263238" stroke-miterlimit="10" stroke-linecap="round" stroke-linejoin="round"/>
<path d="M61.688 59.7512L66.8439 43.7265L61.5918 41.4224L61.487 41.9441L56.6719 58.5426L61.688 59.7512Z" fill="white" stroke="#263238" stroke-miterlimit="10"/>
</g>
<defs>
<clipPath id="clip0_3244_652">
<rect width="169" height="97" fill="white"/>
</clipPath>
</defs>
</svg>
