<svg width="146" height="144" viewBox="0 0 146 144" fill="none" xmlns="http://www.w3.org/2000/svg">
<path d="M113 77.9041C110.229 75.0241 105.553 75.0241 102.638 77.9041L88.1906 92.1601C88.0463 91.7281 87.7576 91.2961 87.6133 90.8641C88.638 89.2801 86.5886 87.4081 84.9866 88.5601C84.2505 88.1281 83.3846 87.9841 82.5042 87.8401L52.8596 85.3921C54.4617 84.5281 53.8844 82.0801 51.9793 82.0801C50.2329 81.9361 49.3525 84.3841 50.9545 85.3921C48.0392 85.5361 45.1093 86.6881 42.7857 88.5601L30.9654 98.9281C30.2294 99.6481 30.085 100.8 30.8211 101.52L45.2681 115.776C45.8454 116.352 46.8701 116.496 47.6062 115.92L53.74 111.6L81.1908 113.472C84.9866 113.76 88.638 112.32 91.2647 109.728L113.015 88.2721C115.786 85.2481 115.786 80.6401 113.015 77.9041C110.099 75.0241 115.786 80.6401 113.015 77.9041H113ZM110.373 85.5361L88.6236 106.992C86.7329 108.864 84.0918 109.872 81.3207 109.728L53.8699 108L45.2537 100.512C43.5073 98.9281 41.0249 101.664 42.9156 103.248L50.3628 109.584L46.8557 112.176L34.8766 100.368L45.2392 91.2961C47.1299 89.5681 49.7711 88.8481 52.2535 88.9921L82.0423 91.4401C84.0918 91.5841 85.4051 93.6001 84.8134 95.4721C84.6691 95.7601 84.5247 95.9041 84.5247 96.1921C83.9474 97.2001 82.7784 97.7761 81.6093 97.7761L62.0388 96.9121C59.7007 96.7681 59.5564 100.368 61.8944 100.512L81.465 101.376C84.2361 101.52 86.8628 99.9361 88.0318 97.4881L105.264 80.4961C108.627 77.1841 113.736 82.2241 110.373 85.5361Z" fill="#172618"/>
<path d="M36.6408 66.8161C38.5315 66.8161 40.4366 66.0961 41.7499 64.6561L56.197 50.4001C56.933 52.2721 58.535 53.8561 60.57 54.4321C60.8587 56.3041 63.3411 56.5921 64.0771 54.8641L91.8166 57.1681C95.3237 57.4561 98.9751 56.3041 101.602 54.0001L113.422 43.6321C114.158 42.9121 114.303 41.7601 113.566 41.0401L99.2638 26.7841C98.6865 26.2081 97.6618 26.0641 96.9257 26.6401L90.7919 30.9601L63.3411 29.0881C59.5453 28.8001 55.8939 30.2401 53.2671 32.8321L31.5172 54.4321C26.9854 58.8961 30.2039 66.8161 36.6264 66.8161H36.6408ZM34.0141 57.0241L55.764 35.5681C57.6691 33.6961 60.4401 32.6881 63.0669 32.8321L90.5176 34.7041L99.1339 42.1921C100.88 43.7761 103.363 41.0401 101.472 39.4561L94.0248 33.1201L97.5319 30.5281L109.496 42.3361L99.2782 51.2641C97.3876 52.9921 94.7464 53.7121 92.264 53.5681L62.4751 51.1201C60.4257 50.9761 59.1123 48.9601 59.7041 47.0881C59.8484 46.8001 59.9927 46.6561 59.9927 46.3681C60.57 45.3601 61.7391 44.7841 62.9081 44.7841L82.4787 45.6481C84.8168 45.7921 84.9611 42.1921 82.623 42.0481L63.0524 41.1841C60.2814 41.0401 57.6546 42.6241 56.4856 45.0721L39.2531 62.0641C35.8903 65.3761 30.7812 60.3361 33.9996 57.0241H34.0141Z" fill="#172618"/>
<path d="M88.9154 61.0564C86.866 62.3524 88.9154 65.3764 90.8061 64.0804C92.8555 62.7844 90.9504 59.7604 88.9154 61.0564C89.7958 60.4804 88.3381 61.3444 88.9154 61.0564Z" fill="#172618"/>
<path d="M90.2266 67.104C90.2266 69.408 93.878 69.408 93.878 67.104C93.878 64.8 90.2266 64.8 90.2266 67.104Z" fill="#172618"/>
<path d="M88.0333 59.9042C89.6353 58.3202 87.1529 55.7282 85.4066 57.3122C83.8046 59.0402 86.287 61.4882 88.0333 59.9042C88.322 59.4722 87.6003 60.1922 88.0333 59.9042Z" fill="#172618"/>
<path d="M93.4303 82.512C94.3107 80.352 90.9479 79.056 90.0675 81.216C89.1871 83.376 92.5499 84.672 93.4303 82.512C93.4303 82.368 93.1416 83.232 93.4303 82.512Z" fill="#172618"/>
<path d="M88.3204 87.84C89.6337 88.704 91.3801 87.552 91.0914 85.968C90.8028 84.384 88.7533 83.952 87.7286 85.248C87.2956 86.112 87.44 87.264 88.3059 87.84C87.7286 87.408 88.5946 87.984 88.3059 87.84H88.3204Z" fill="#172618"/>
<path d="M94.8937 71.8564C94.7493 69.5524 90.9536 69.8404 91.2422 72.1444C91.5309 74.4484 95.038 74.1604 94.8937 71.8564Z" fill="#172618"/>
<path d="M94.7458 77.3282C95.0345 75.0242 91.383 74.5922 91.0944 76.8962C90.8057 79.0562 94.4572 79.6322 94.7458 77.3282C94.8901 77.1842 94.7458 78.1922 94.7458 77.3282Z" fill="#172618"/>
<path d="M49.9331 70.9922C52.2711 70.9922 52.2711 67.5362 50.0774 67.3922C47.7393 67.2482 47.595 70.9922 49.9331 70.9922Z" fill="#172618"/>
<path d="M50.0803 80.9282C52.274 80.9282 52.5627 77.6162 50.2246 77.3282C47.7422 77.0402 47.5979 80.9282 50.0803 80.9282Z" fill="#172618"/>
<path d="M47.5938 74.1599C47.5938 76.3199 50.8122 76.6079 51.2452 74.4479C51.6782 71.9999 47.5938 71.5679 47.5938 74.1599Z" fill="#172618"/>
<path d="M53.2807 65.2321C54.3054 63.3601 51.5344 61.6321 50.221 63.3601C48.619 65.3761 52.2704 67.3921 53.2807 65.2321C53.4251 64.9441 52.9921 65.8081 53.2807 65.2321Z" fill="#172618"/>
<path d="M58.1049 58.4643C60.443 58.4643 60.443 55.0083 58.2493 54.8643C55.9112 54.8643 55.7669 58.4643 58.1049 58.4643Z" fill="#172618"/>
<path d="M55.9052 61.344C57.3629 59.76 55.0248 57.456 53.2785 58.752C51.3734 60.48 54.3032 63.216 55.9052 61.344C56.1938 61.056 55.4722 61.776 55.9052 61.344Z" fill="#172618"/>
<path d="M60.8767 83.2323H80.2885C81.3132 83.2323 82.1936 82.3683 82.1936 81.3603V67.6803L83.6513 68.4003C85.7007 69.5523 87.447 66.2403 85.3976 65.2323L71.5279 58.0323C70.7918 57.7443 70.5032 58.0323 69.7816 58.0323L55.9118 65.3763C53.8624 66.5283 55.4789 69.6963 57.6582 68.5443L59.1159 67.8243V81.6483C59.1159 82.5123 59.8519 83.2323 60.8622 83.2323H60.8767ZM69.2043 79.6323V74.5923C69.2043 72.7203 71.9753 72.7203 71.9753 74.5923V79.6323H69.2043ZM78.5421 79.6323H75.7711V74.5923C75.7711 71.8563 73.433 69.5523 70.6619 69.5523C67.8909 69.5523 65.5528 71.8563 65.5528 74.5923V79.6323H62.7818V65.6643L70.6619 61.4883L78.5421 65.6643V79.6323Z" fill="#172618"/>
<path d="M105.987 64.9443H102.336V68.5443H105.987V64.9443Z" fill="#172618"/>
<path d="M109.644 61.3442H105.992V64.9442H109.644V61.3442Z" fill="#172618"/>
<path d="M105.987 57.7441H102.336V61.3441H105.987V57.7441Z" fill="#172618"/>
<path d="M109.644 54.144H105.992V57.744H109.644V54.144Z" fill="#172618"/>
<path d="M38.5421 84.8159H34.8906V88.4159H38.5421V84.8159Z" fill="#172618"/>
<path d="M42.1983 81.2163H38.5469V84.8163H42.1983V81.2163Z" fill="#172618"/>
<path d="M38.5421 77.6162H34.8906V81.2162H38.5421V77.6162Z" fill="#172618"/>
<path d="M42.1983 74.0161H38.5469V77.6161H42.1983V74.0161Z" fill="#172618"/>
</svg>
