<svg width="137" height="135" viewBox="0 0 137 135" fill="none" xmlns="http://www.w3.org/2000/svg">
<g clip-path="url(#clip0_3219_109)">
<path d="M101.945 43.218C104.355 43.218 106.389 41.202 106.389 38.808C106.389 36.414 104.355 34.272 101.945 34.272C99.5344 34.272 97.375 36.288 97.375 38.808C97.5005 41.202 99.5344 43.218 101.945 43.218ZM101.945 37.422C103.602 37.422 103.602 40.068 101.945 40.068C100.288 40.068 100.3 37.422 101.945 37.422Z" fill="#172618"/>
<path d="M49.8725 34.7762H54.6934C54.6934 37.4222 56.8527 39.5642 59.5142 39.5642H65.8668C68.4027 39.5642 70.6876 37.4222 70.6876 34.7762C70.6876 32.1302 68.5283 29.9882 65.8668 29.9882H64.2096C64.2096 27.3422 62.0502 25.2002 59.3887 25.2002H49.8599C47.324 25.2002 45.0391 27.3422 45.0391 29.9882C45.0391 32.6342 47.324 34.7762 49.8599 34.7762H49.8725ZM49.8725 28.4762H59.4013C60.4182 28.4762 61.3095 29.6102 60.9203 30.6182C60.6692 31.2482 60.4182 31.7522 60.7948 32.3822C61.0459 32.8862 61.5606 33.1382 62.1883 33.1382H65.7412C67.775 33.1382 67.775 36.2882 65.7412 36.2882H59.3887C58.3718 36.2882 57.4804 35.1542 57.8696 34.1462C58.1207 33.5162 58.3718 33.0122 57.9952 32.3822C57.7441 31.8782 57.2294 31.6262 56.6016 31.6262H49.8725C47.8387 31.6262 47.8387 28.4762 49.8725 28.4762Z" fill="#172618"/>
<path d="M116.548 96.2642H103.341L107.911 91.8542C108.162 91.6022 108.413 91.0982 108.413 90.7202V85.9322C108.413 85.4282 108.288 85.0502 107.911 84.7982L105.25 82.4042L108.049 79.5062C108.3 79.2542 108.426 78.8762 108.426 78.3722V74.3402C108.426 73.4582 107.66 72.7022 106.781 72.7022H105.89L108.049 68.6702C108.175 68.4182 108.3 68.1662 108.3 67.9142V57.9602C118.206 53.6762 121.131 40.4462 113.887 32.5082C106.907 24.8222 93.9506 25.8302 88.2383 34.3982C86.8448 36.5402 85.9535 39.0602 85.7024 41.5802H50.525C47.5999 41.5802 45.1894 43.9742 45.1894 46.8722C45.1894 49.7702 47.5999 52.1642 50.525 52.1642H70.5869C72.6207 52.1642 72.6207 55.3142 70.5869 55.3142H53.061C50.525 55.3142 48.2401 57.4562 48.2401 60.1022C48.2401 62.7482 50.3995 64.8902 53.061 64.8902H76.4247C77.5671 64.8902 78.4585 65.7722 78.4585 66.9062V73.2062L67.5362 67.1582C67.034 66.9062 66.5193 66.9062 66.0171 67.1582L47.5999 76.8602C45.8171 77.8682 47.2232 80.6402 49.1189 79.6322L52.2952 77.9942V96.2642H45.1894C43.1556 96.2642 43.1556 99.4142 45.1894 99.4142H116.687C118.595 99.4142 118.595 96.2642 116.561 96.2642H116.548ZM105.25 67.6622L101.948 73.5842C101.32 74.5922 102.199 75.9782 103.341 75.9782H105.25V77.7422L101.822 81.3962C101.182 82.0262 101.182 83.0342 101.948 83.6642L105.25 86.6882V90.0902L100.039 95.0042L98.6459 90.5942V59.0942C100.805 59.5982 103.09 59.5982 105.25 59.0942V67.6622ZM101.948 30.2402C106.907 30.2402 111.602 33.1382 113.761 37.6742C115.921 42.3362 115.155 48.0062 111.602 51.7862C107.534 56.1962 100.805 57.3302 95.4697 54.4322C90.8999 51.9122 88.2258 46.7462 88.8661 41.5802C89.7574 35.1542 95.4697 30.2402 101.948 30.2402ZM76.5377 61.6142H53.0485C51.0146 61.6142 51.0146 58.4642 53.0485 58.4642H70.5744C73.1103 58.4642 75.3952 56.3222 75.3952 53.6762C75.3952 51.0302 73.2359 48.8882 70.5744 48.8882H50.5125C47.7128 48.8882 47.7128 44.6042 50.5125 44.6042H85.8154C86.4556 50.4002 90.1341 55.4402 95.4697 57.8342V90.5942C95.4697 90.7202 95.4697 90.9722 95.5952 91.0982L97.2524 96.1382H81.2456V77.9942L84.4218 79.6322C86.2045 80.6402 87.7236 77.7422 85.9409 76.8602L81.6222 74.5922V66.6542C81.6222 63.8822 79.3373 61.6142 76.5377 61.6142ZM64.0963 96.2642V87.1922C64.0963 86.5622 64.5985 85.9322 65.3643 85.9322H68.2895C68.9297 85.9322 69.5574 86.4362 69.5574 87.1922V96.2642H64.0963ZM72.6082 96.2642V87.1922C72.6082 84.7982 70.5744 82.7822 68.1639 82.7822H65.2387C62.8283 82.7822 60.7945 84.7982 60.7945 87.1922V96.2642H55.3333V76.3562L66.6323 70.3082L77.9312 76.3562V96.2642H72.5956H72.6082Z" fill="#172618"/>
<path d="M83.2778 50.5264H80.1016V53.6764H83.2778V50.5264Z" fill="#172618"/>
<path d="M80.1059 47.376H76.9297V50.526H80.1059V47.376Z" fill="#172618"/>
<path d="M86.4575 53.6763H83.2812V56.8263H86.4575V53.6763Z" fill="#172618"/>
<path d="M83.2778 56.8262H80.1016V59.9762H83.2778V56.8262Z" fill="#172618"/>
<path d="M86.4575 59.9761H83.2812V63.1261H86.4575V59.9761Z" fill="#172618"/>
<path d="M89.6216 63.126H86.4453V66.276H89.6216V63.126Z" fill="#172618"/>
<path d="M92.7934 66.2764H89.6172V69.4264H92.7934V66.2764Z" fill="#172618"/>
<path d="M89.6216 69.4263H86.4453V72.5763H89.6216V69.4263Z" fill="#172618"/>
<path d="M92.7934 72.5762H89.6172V75.7262H92.7934V72.5762Z" fill="#172618"/>
</g>
<defs>
<clipPath id="clip0_3219_109">
<rect width="137" height="135" fill="white"/>
</clipPath>
</defs>
</svg>
