<svg width="140" height="101" viewBox="0 0 140 101" fill="none" xmlns="http://www.w3.org/2000/svg">
<g clip-path="url(#clip0_3322_401)">
<path d="M52.5911 33.1961C40.8076 36.3294 33.774 48.4957 36.8845 60.3656C39.995 72.2355 52.0726 79.3207 63.8561 76.1874C75.6395 73.0541 82.6731 60.8878 79.5626 49.0179C76.4522 37.148 64.3745 30.0627 52.5911 33.1961ZM61.1939 65.9971C55.001 67.6484 48.6399 63.9223 47.0006 57.6839C45.3613 51.4455 49.0602 45.0377 55.2672 43.3864C61.4602 41.735 67.8213 45.4611 69.4466 51.7137C71.0859 57.9662 67.3869 64.3598 61.1799 66.0112L61.1939 65.9971Z" fill="#9BA7A2"/>
<path d="M58.8647 36.8658L49.239 39.4204C49.239 39.4204 45.5681 32.1376 46.7871 30.0346C48.0341 27.861 54.3951 25.998 56.3987 27.4799C58.3463 28.9196 58.8647 36.8658 58.8647 36.8658Z" fill="#9BA7A2"/>
<path d="M66.6648 70.3301L57.0391 72.8847C57.0391 72.8847 57.4174 81.0426 59.491 82.2705C61.6347 83.5267 68.0939 82.0024 69.1167 79.7159C70.0975 77.5 66.6648 70.3301 66.6648 70.3301Z" fill="#9BA7A2"/>
<path d="M45.4242 41.7631L41.5431 50.9937C41.5431 50.9937 33.5708 49.4553 32.66 47.2111C31.7213 44.8964 34.1452 38.6722 36.5411 37.9806C38.853 37.3172 45.4242 41.7631 45.4242 41.7631Z" fill="#9BA7A2"/>
<path d="M41.2381 55.3695L42.1769 65.3481C42.1769 65.3481 34.4427 67.8039 32.5792 66.2655C30.6597 64.6706 29.861 58.037 31.6405 56.2869C33.3638 54.5932 41.2381 55.3695 41.2381 55.3695Z" fill="#9BA7A2"/>
<path d="M76.0031 55.7786L73.8594 45.9976C73.8594 45.9976 81.2433 42.5961 83.2749 43.8946C85.3766 45.2496 86.9739 51.7279 85.4186 53.6898C83.9194 55.581 76.0031 55.7786 76.0031 55.7786Z" fill="#9BA7A2"/>
<path d="M62.7422 36.8375L70.6445 42.9348C70.6445 42.9348 76.8235 37.642 76.5152 35.2285C76.193 32.7445 71.0368 28.5385 68.6269 29.1313C66.287 29.6958 62.7562 36.8375 62.7562 36.8375H62.7422Z" fill="#9BA7A2"/>
<path d="M52.2077 73.4635L44.3194 67.3662C44.3194 67.3662 38.1404 72.659 38.4487 75.0725C38.7709 77.5565 43.927 81.7625 46.337 81.1697C48.6768 80.6052 52.2077 73.4635 52.2077 73.4635Z" fill="#9BA7A2"/>
<path d="M71.4749 68.6505L75.3561 59.4199C75.3561 59.4199 83.3284 60.9442 84.2252 63.2025C85.1639 65.5172 82.74 71.7415 80.344 72.4331C78.0182 73.1105 71.4609 68.6505 71.4609 68.6505H71.4749Z" fill="#9BA7A2"/>
<path d="M90.4799 4.31885C82.3254 6.49241 77.4635 14.8903 79.6212 23.1046C81.765 31.3049 90.1156 36.2024 98.2702 34.043C106.411 31.8836 111.273 23.4716 109.129 15.2572C106.971 7.04286 98.6204 2.14529 90.4799 4.31885ZM96.4207 26.986C92.1333 28.1292 87.7477 25.5464 86.6128 21.2416C85.4779 16.9227 88.042 12.505 92.3294 11.3618C96.6168 10.2185 101.002 12.8014 102.137 17.1203C103.272 21.4392 100.708 25.8569 96.4207 27.0001V26.986Z" fill="#637B71"/>
<path d="M94.8105 6.8594L88.1552 8.62366C88.1552 8.62366 85.6192 3.58495 86.4599 2.1312C87.3286 0.635116 91.7281 -0.663375 93.1152 0.36695C94.4603 1.35493 94.8105 6.8594 94.8105 6.8594Z" fill="#637B71"/>
<path d="M100.218 29.9922L93.5625 31.7564C93.5625 31.7564 93.8287 37.4021 95.2579 38.2489C96.743 39.124 101.199 38.0654 101.913 36.4846C102.6 34.9603 100.218 29.9922 100.218 29.9922Z" fill="#637B71"/>
<path d="M85.5408 10.2328L82.8647 16.6124C82.8647 16.6124 77.3583 15.5538 76.7278 14.0013C76.0833 12.3923 77.7506 8.10161 79.4039 7.62174C81.0012 7.15597 85.5408 10.2328 85.5408 10.2328Z" fill="#637B71"/>
<path d="M82.6373 19.647L83.2818 26.5487C83.2818 26.5487 77.9295 28.2424 76.6545 27.1838C75.3234 26.0829 74.777 21.4959 76.01 20.2821C77.2009 19.1106 82.6373 19.647 82.6373 19.647Z" fill="#637B71"/>
<path d="M106.665 19.9289L105.18 13.1682C105.18 13.1682 110.28 10.8112 111.681 11.7145C113.138 12.646 114.245 17.1202 113.166 18.4751C112.129 19.7877 106.665 19.9148 106.665 19.9148V19.9289Z" fill="#637B71"/>
<path d="M97.5 6.83119L102.964 11.0513C102.964 11.0513 107.238 7.39575 107.028 5.7303C106.803 4.00839 103.245 1.1009 101.577 1.5102C99.952 1.9054 97.514 6.83119 97.514 6.83119H97.5Z" fill="#637B71"/>
<path d="M90.2331 32.1517L84.7687 27.9316C84.7687 27.9316 80.4953 31.5872 80.7195 33.2526C80.9436 34.9745 84.5025 37.882 86.1698 37.4727C87.7951 37.0775 90.2331 32.1517 90.2331 32.1517Z" fill="#637B71"/>
<path d="M103.539 28.8209L106.215 22.4414C106.215 22.4414 111.722 23.5 112.352 25.0525C112.997 26.6615 111.329 30.9522 109.676 31.432C108.079 31.8978 103.539 28.8209 103.539 28.8209Z" fill="#637B71"/>
<path d="M46.8584 89.4585H23.8672L34.3662 28.2993L46.8584 89.4585Z" fill="white" stroke="#5B5B5B" stroke-width="0.5"/>
<path d="M69.0801 89.459H46.1553L56.623 50.8691L69.0801 89.459Z" fill="#9BA7A2" stroke="#5B5B5B" stroke-width="0.5"/>
<path d="M23.1855 89.459H0.380859L10.7939 65.3809L23.1855 89.459Z" fill="white" stroke="#5B5B5B" stroke-width="0.5"/>
<path d="M117.443 89.7271H94.4365L104.937 28.5522L117.443 89.7271Z" fill="white" stroke="#5B5B5B" stroke-width="0.5"/>
<path d="M139.659 89.7275H116.748L127.203 51.125L139.659 89.7275Z" fill="#9BA7A2" stroke="#5B5B5B" stroke-width="0.5"/>
<path d="M93.7637 89.7271H70.959L81.3721 65.6489L93.7637 89.7271Z" fill="white" stroke="#5B5B5B" stroke-width="0.5"/>
<path d="M81.6017 63.7108L56.2695 48.0725L34.1458 26.1816L13.2551 59.279L12.0781 58.531L33.8796 23.9516L57.2082 47.0139L81.1534 61.7772L104.846 23.9375L124.364 43.7254L123.369 44.7134L105.085 26.1957L81.6017 63.7108Z" fill="white"/>
<path d="M35.8676 25.0666C35.8676 26.0969 35.0409 26.9438 34.0041 26.9438C32.9673 26.9438 32.1406 26.1111 32.1406 25.0666C32.1406 24.0222 32.9673 23.1895 34.0041 23.1895C35.0409 23.1895 35.8676 24.0222 35.8676 25.0666Z" fill="#1D493A"/>
<path d="M106.821 25.0666C106.821 26.0969 105.994 26.9438 104.957 26.9438C103.92 26.9438 103.094 26.1111 103.094 25.0666C103.094 24.0222 103.92 23.1895 104.957 23.1895C105.994 23.1895 106.821 24.0222 106.821 25.0666Z" fill="#1D493A"/>
<path d="M83.2426 62.737C83.2426 63.7674 82.4159 64.6142 81.3791 64.6142C80.3423 64.6142 79.5156 63.7815 79.5156 62.737C79.5156 61.6926 80.3423 60.8599 81.3791 60.8599C82.4159 60.8599 83.2426 61.6926 83.2426 62.737Z" fill="#1D493A"/>
<path d="M58.6254 47.5642C58.6254 48.5945 57.7988 49.4413 56.7619 49.4413C55.7251 49.4413 54.8984 48.6086 54.8984 47.5642C54.8984 46.5197 55.7251 45.687 56.7619 45.687C57.7988 45.687 58.6254 46.5197 58.6254 47.5642Z" fill="#1D493A"/>
<path d="M12.6645 62.0735C12.6645 63.1038 11.8378 63.9506 10.801 63.9506C9.76416 63.9506 8.9375 63.1179 8.9375 62.0735C8.9375 61.029 9.76416 60.1963 10.801 60.1963C11.8378 60.1963 12.6645 61.029 12.6645 62.0735Z" fill="#1D493A"/>
<path d="M129.032 47.5642C129.032 48.5945 128.205 49.4413 127.168 49.4413C126.131 49.4413 125.305 48.6086 125.305 47.5642C125.305 46.5197 126.131 45.687 127.168 45.687C128.205 45.687 129.032 46.5197 129.032 47.5642Z" fill="#1D493A"/>
<path d="M84.0361 59.1094C84.1424 59.1066 84.2877 59.1209 84.4697 59.1543C84.8325 59.2209 85.2737 59.3529 85.7119 59.5059C86.1465 59.6575 86.5627 59.8239 86.8711 59.9531C86.9225 59.9747 86.9708 59.9955 87.0156 60.0146L86.8965 60.6523C85.7452 60.6748 84.9623 60.5792 84.4434 60.4287C83.8645 60.2607 83.6814 60.0478 83.624 59.9297C83.5679 59.8142 83.5717 59.6644 83.6553 59.4814C83.7392 59.2981 83.8673 59.1641 83.9268 59.1211C83.9133 59.1286 83.937 59.112 84.0361 59.1094Z" fill="white" stroke="black"/>
<path d="M113.627 44.7236C113.805 44.6691 113.955 44.6719 114.093 44.7236C114.199 44.7638 114.326 44.8437 114.465 44.9961L114.607 45.1738C114.98 45.6989 115.108 46.4178 114.962 47.4346C114.815 48.4542 114.402 49.7071 113.771 51.2324L107.492 65.6816L87.4346 60.9346L87.6055 60.0645L103.837 61.3018L104.172 61.3271L104.322 61.0264L110.754 48.1543L110.756 48.1504C110.757 48.1482 110.758 48.1444 110.761 48.1396C110.766 48.1301 110.773 48.1158 110.783 48.0967C110.803 48.0581 110.833 48.0001 110.872 47.9277C110.95 47.7829 111.063 47.5779 111.205 47.3398C111.491 46.86 111.886 46.2585 112.33 45.7432C112.787 45.2122 113.239 44.8423 113.627 44.7236Z" fill="white" stroke="black"/>
<path d="M91.5801 95.6763L90.2295 95.437L96.9131 71.3296L106.966 70.3198L91.5801 95.6763Z" fill="white" stroke="black"/>
<path d="M117.876 66.4849C118.012 66.7757 118.193 67.1929 118.374 67.6929C118.739 68.6997 119.091 70.013 119.086 71.3022C119.081 72.5846 118.726 73.7971 117.726 74.6919C116.716 75.5952 114.965 76.2517 112.004 76.2241C105.938 76.1676 102.235 76.2593 100.046 76.3657C98.9511 76.419 98.2327 76.4758 97.7852 76.52C97.5617 76.5421 97.4053 76.5609 97.3027 76.5747C97.2517 76.5816 97.2136 76.5872 97.1875 76.5913C97.1744 76.5933 97.1636 76.5949 97.1562 76.5962C97.1527 76.5968 97.1498 76.5977 97.1475 76.5981C97.1464 76.5983 97.1453 76.598 97.1445 76.5981L97.1436 76.5991H97.1426L96.3955 76.7349L96.8145 77.3677L105.835 90.9692L105.415 92.0688C105.344 91.9926 105.268 91.9094 105.185 91.8198C104.69 91.2852 103.982 90.5181 103.132 89.5913C101.432 87.7377 99.1626 85.2432 96.8857 82.6782C94.6078 80.112 92.3261 77.4793 90.5986 75.3491C89.7343 74.2832 89.014 73.35 88.5039 72.6167C88.2485 72.2495 88.0505 71.9404 87.915 71.6948C87.8474 71.5722 87.799 71.4716 87.7666 71.3921C87.7506 71.3527 87.7403 71.3212 87.7334 71.2974C87.73 71.2856 87.727 71.2766 87.7256 71.27C87.725 71.2671 87.7249 71.2648 87.7246 71.2632C87.7243 71.2617 87.7247 71.262 87.7246 71.2612L87.7236 71.2603C87.704 71.093 87.6718 70.9314 87.6406 70.7876C87.608 70.6368 87.5781 70.5116 87.5557 70.3843C87.5115 70.1333 87.5107 69.9556 87.5635 69.8032C87.6626 69.5172 88.0593 69.0506 89.7715 68.5679C93.121 67.6235 100.762 66.8116 117.783 66.2954C117.81 66.3508 117.843 66.4135 117.876 66.4849Z" fill="white" stroke="black"/>
<path d="M108.982 93.8628L108.302 94.7339L108.018 94.7954L107.805 94.8403L107.692 95.0278L105.938 97.9663L106.526 94.7817L106.545 94.6802L106.521 94.5796L106.283 93.5356L106.251 93.3921L106.146 93.2896L105.006 92.1733L106.444 90.7251L108.982 93.8628Z" fill="white" stroke="black"/>
<path d="M91.7012 96.4336L90.7256 100.376L89.6279 100.349L89.415 100.16L89.251 100.015L89.0332 100.037L85.6318 100.382L88.5234 98.9346L88.6152 98.8887L88.6826 98.8086L89.3691 97.9902L89.4619 97.8789L89.4814 97.7354L89.6943 96.1465L91.7012 96.4336Z" fill="white" stroke="black"/>
<path d="M106.488 42.7192C106.672 43.3135 106.876 43.9921 107.037 44.5679L107.137 44.98C107.125 44.9877 107.113 45.0001 107.097 45.0093C106.938 45.0992 106.682 45.1861 106.393 45.2417C106.104 45.2972 105.829 45.3118 105.64 45.2876C105.605 45.2831 105.577 45.2761 105.556 45.271C105.366 44.4209 105.283 43.6685 105.249 43.1226C105.232 42.856 105.227 42.6395 105.227 42.4858L106.226 41.8833C106.3 42.118 106.391 42.4059 106.488 42.7192Z" fill="white" stroke="black"/>
<path d="M104.432 37.791C104.494 37.805 104.664 37.8746 104.892 38.0469C105.11 38.2123 105.355 38.4547 105.578 38.7803C106.008 39.4092 106.359 40.3627 106.237 41.709C106.228 41.7245 106.218 41.7425 106.206 41.7617C106.151 41.8487 106.069 41.9681 105.962 42.0938C105.741 42.3535 105.452 42.599 105.118 42.6943L105.125 42.7451L105.11 42.7012C105.013 42.7338 104.633 42.8731 104.231 42.9238C104.03 42.9493 103.86 42.9466 103.738 42.917C103.654 42.8965 103.615 42.8697 103.595 42.8457L103.579 42.8232C103.512 42.6919 103.422 42.4222 103.328 42.04C103.236 41.6646 103.149 41.2182 103.082 40.7686C103.015 40.3184 102.968 39.873 102.951 39.499C102.934 39.1037 102.955 38.8518 102.987 38.748C103.057 38.522 103.295 38.246 103.64 38.0342C103.996 37.8155 104.304 37.7625 104.432 37.791Z" fill="white" stroke="black"/>
<path d="M104.699 37.2114C105.557 37.4436 106.144 38.3664 106.504 39.5308C106.68 40.0998 106.785 40.678 106.841 41.1567C106.892 41.597 106.897 41.9229 106.888 42.0698C106.866 42.0696 106.838 42.0705 106.802 42.0649C106.574 42.0297 106.286 41.8892 106.114 41.7515C106.11 41.7452 106.103 41.7345 106.095 41.7163C106.073 41.6675 106.049 41.5934 106.026 41.4907C105.98 41.2842 105.951 41.0201 105.928 40.7251C105.906 40.4502 105.888 40.1171 105.863 39.8569C105.846 39.6698 105.822 39.4557 105.771 39.27L105.712 39.0962L105.652 38.98C105.497 38.7291 105.245 38.615 105.021 38.5737C104.781 38.5296 104.522 38.5564 104.299 38.5972C103.856 38.6784 103.34 38.8614 103.031 38.9565C102.986 38.9706 102.925 38.9792 102.804 38.8247C102.753 38.7604 102.711 38.6879 102.68 38.6245C102.855 37.9335 103.318 37.5905 103.781 37.4058C104.035 37.3048 104.283 37.2548 104.47 37.231C104.562 37.2192 104.637 37.2147 104.688 37.2124C104.692 37.2122 104.696 37.2116 104.699 37.2114Z" fill="white" stroke="black"/>
<path d="M118.936 67.3179L105.007 66.439L100.542 47.1284L113.503 44.7671L118.936 67.3179Z" fill="white" stroke="black"/>
<path d="M77.0898 61.4438C77.3861 61.4697 77.754 61.5418 78.124 61.6313C78.4903 61.72 78.8431 61.8226 79.1055 61.9028C79.1249 61.9088 79.1437 61.9147 79.1621 61.9204L79.1299 62.3052C78.2316 62.4065 77.6136 62.3889 77.1992 62.312C76.7252 62.224 76.5869 62.0739 76.5488 62.0122C76.5127 61.9532 76.4978 61.8598 76.5469 61.7163C76.5895 61.592 76.6617 61.4948 76.7031 61.4487C76.7138 61.4465 76.7288 61.4433 76.749 61.4409C76.8277 61.4317 76.9413 61.4309 77.0898 61.4438Z" fill="white" stroke="black"/>
<path d="M100.212 47.2515C100.286 47.2717 100.384 47.3196 100.501 47.4263L100.624 47.5532C100.948 47.9259 101.108 48.4791 101.069 49.314C101.03 50.1498 100.794 51.2001 100.399 52.4917L96.4238 64.7534L79.7852 62.4897L79.8379 61.9282L93.1523 61.6421L93.4873 61.6353L93.6084 61.3218L97.8535 50.27V50.269L97.8545 50.2671C97.8552 50.2653 97.8569 50.2622 97.8584 50.2583C97.8615 50.2504 97.8657 50.2381 97.8721 50.2222C97.8851 50.1894 97.9057 50.1405 97.9316 50.0786C97.9836 49.9547 98.06 49.7789 98.1572 49.5737C98.3532 49.1602 98.6263 48.6411 98.9453 48.1899C99.2764 47.7217 99.6051 47.4009 99.8887 47.2837C100.015 47.2314 100.118 47.2258 100.212 47.2515Z" fill="white" stroke="black"/>
</g>
<defs>
<clipPath id="clip0_3322_401">
<rect width="140" height="101" fill="white"/>
</clipPath>
</defs>
</svg>
