<svg width="129" height="128" viewBox="0 0 129 128" fill="none" xmlns="http://www.w3.org/2000/svg">
<path d="M95.3343 33.6641C92.2355 33.6641 89.7871 35.7121 89.1368 38.5281H27.608C26.7026 38.5281 25.9375 39.2961 25.9375 40.1921V97.7921C25.9375 98.6881 26.7154 99.4561 27.608 99.4561H92.108C97.4001 99.4561 101.519 95.3601 101.787 89.8561V89.3441V40.3201C101.787 36.6081 98.8156 33.6641 95.3343 33.6641ZM95.3343 36.8641C97.1451 36.8641 98.5606 38.4001 98.5606 40.3201V83.9681C96.6223 82.8161 94.0463 82.8161 92.108 83.9681V40.1921C92.108 38.2721 93.396 36.8641 95.3343 36.8641ZM36.509 96.1281V91.2641H55.8539V96.1281H36.509ZM92.108 96.1281H59.0801V89.7281C59.0801 88.8321 58.3023 88.0641 57.3969 88.0641H34.8257C33.9203 88.0641 33.1552 88.8321 33.1552 89.7281V96.1281H29.151V41.7281H88.8817V89.7281C88.8817 91.1361 90.6925 91.9041 91.5852 90.8801C91.8402 90.6241 91.9678 90.3681 91.9678 90.1121C92.2228 89.0881 92.3503 88.0641 93.1282 87.2961C95.0665 85.2481 98.1653 86.9121 98.4203 89.4721C98.4203 93.3121 95.7169 96.1281 92.0953 96.1281H92.108Z" fill="#172618"/>
<path d="M81.6524 59.3924H75.1998V52.9924C75.1998 52.0964 74.422 51.3284 73.5166 51.3284H65.3935V48.1284C65.3935 47.2324 64.6156 46.4644 63.723 46.4644H34.8268C33.9214 46.4644 33.1562 47.2324 33.1562 48.1284V68.9924C33.1562 69.8884 33.9341 70.6564 34.8268 70.6564H39.7236V81.9204C39.7236 82.8164 40.5014 83.5844 41.3941 83.5844H55.9697C56.8751 83.5844 57.6402 82.8164 57.6402 81.9204V70.6564H62.537V91.5204C62.537 92.4164 63.3149 93.1844 64.2076 93.1844H82.0094C82.9148 93.1844 83.6927 92.4164 83.6927 91.5204V60.9284C83.1699 60.0324 82.4048 59.3924 81.6269 59.3924H81.6524ZM71.9863 54.5284V59.3924H65.5338V54.5284H71.9863ZM36.51 49.7924H44.6331V56.1924H36.51V49.7924ZM54.1844 80.1284H42.8351V70.5284H54.1844V80.1284ZM55.8549 67.3284H36.3698V59.2644H46.0486C46.954 59.2644 47.7319 58.4964 47.7319 57.6004V49.5364H62.3075V55.9364H52.6287C50.5628 55.9364 50.5628 59.1364 52.6287 59.1364H62.3075V67.2004H55.8549V67.3284ZM79.9819 89.7284H75.0851V75.3924H76.7683C78.8342 75.3924 78.8342 72.1924 76.7683 72.1924H73.5421C72.6367 72.1924 71.8716 72.9604 71.8716 73.8564V89.8563H65.419V62.5924H79.9946V89.7284H79.9819Z" fill="#172618"/>
<path d="M34.0578 33.5362L40.5104 36.7362C40.7654 36.8642 41.0205 36.8642 41.2883 36.8642H78.4351C81.011 36.8642 83.3319 34.6882 83.3319 32.0002C83.3319 29.3122 81.1385 27.1362 78.4351 27.1362H41.2883C41.0332 27.1362 40.7654 27.1362 40.5104 27.2642L34.0578 30.4642C32.8974 31.3602 32.8974 33.0242 34.0578 33.5362ZM71.9825 33.7922V30.5922H73.5255V33.7922H71.9825ZM79.9781 32.1282C79.9781 33.0242 79.2002 33.7922 78.2948 33.7922H76.6115V30.5922H78.2948C79.2002 30.5922 79.9781 31.2322 79.9781 32.1282ZM41.6581 30.5922H68.7435V33.7922H41.6581L38.4318 32.1282L41.6581 30.5922Z" fill="#172618"/>
</svg>
