<svg width="125" height="106" viewBox="0 0 125 106" fill="none" xmlns="http://www.w3.org/2000/svg">
<g clip-path="url(#clip0_3322_1065)">
<path d="M88.2517 32.3805C77.5345 35.2185 71.1373 46.2378 73.9663 56.9886C76.7954 67.7394 87.7802 74.1567 98.4974 71.3188C109.215 68.4809 115.612 57.4616 112.783 46.7107C109.954 35.9599 98.9689 29.5426 88.2517 32.3805ZM96.0761 62.0892C90.4435 63.5848 84.658 60.21 83.1671 54.5598C81.6761 48.9095 85.0403 43.1058 90.6857 41.6102C96.3183 40.1145 102.104 43.4893 103.595 49.1524C105.086 54.8026 101.721 60.6063 96.0761 62.0892Z" fill="#637B71"/>
<path d="M93.945 35.7042L85.1903 38.018C85.1903 38.018 81.8515 31.4218 82.9474 29.5171C84.0816 27.5484 89.8798 25.861 91.6894 27.2033C93.4607 28.5072 93.9322 35.7042 93.9322 35.7042H93.945Z" fill="#637B71"/>
<path d="M101.059 66.0137L92.3047 68.3275C92.3047 68.3275 92.6488 75.7291 94.5348 76.8284C96.4845 77.9662 102.359 76.5856 103.289 74.5146C104.182 72.5076 101.059 66.0137 101.059 66.0137Z" fill="#637B71"/>
<path d="M81.7349 40.1399L78.205 48.5003C78.205 48.5003 70.954 47.1069 70.1257 45.0743C69.2719 42.965 71.4765 37.3403 73.6556 36.714C75.7583 36.1131 81.7349 40.1399 81.7349 40.1399Z" fill="#637B71"/>
<path d="M77.9284 52.4631L78.7822 61.5009C78.7822 61.5009 71.7478 63.7252 70.0529 62.3319C68.3071 60.8873 67.5807 54.8791 69.1991 53.294C70.7666 51.76 77.9284 52.4631 77.9284 52.4631Z" fill="#637B71"/>
<path d="M109.543 52.834L107.594 43.9751C107.594 43.9751 114.31 40.8943 116.157 42.0704C118.069 43.2976 119.522 49.1652 118.107 50.9421C116.744 52.655 109.543 52.834 109.543 52.834Z" fill="#637B71"/>
<path d="M97.4766 35.6784L104.664 41.2009C104.664 41.2009 110.284 36.4071 110.003 34.2211C109.71 31.9712 105.021 28.1618 102.829 28.6987C100.701 29.21 97.4893 35.6784 97.4893 35.6784H97.4766Z" fill="#637B71"/>
<path d="M87.907 68.8515L80.7324 63.3291C80.7324 63.3291 75.1126 68.1229 75.393 70.3088C75.6861 72.5587 80.3756 76.3682 82.5675 75.8313C84.6956 75.3199 87.907 68.8515 87.907 68.8515Z" fill="#637B71"/>
<path d="M105.43 64.4927L108.947 56.1323C108.947 56.1323 116.198 57.5129 117.026 59.5583C117.88 61.6548 115.675 67.2922 113.509 67.9186C111.394 68.5322 105.43 64.4927 105.43 64.4927Z" fill="#637B71"/>
<path d="M57.5775 17.8457C52.391 19.2135 49.2943 24.557 50.6706 29.7599C52.0342 34.9627 57.3609 38.0691 62.5475 36.6885C67.734 35.3078 70.8307 29.9772 69.4544 24.7743C68.0781 19.5715 62.7641 16.4651 57.5775 17.8329V17.8457ZM61.3623 32.227C58.6352 32.9557 55.8444 31.3194 55.1181 28.5838C54.3917 25.8481 56.0228 23.0486 58.7499 22.3199C61.477 21.5913 64.2678 23.2275 64.9942 25.9632C65.7206 28.6988 64.0894 31.4984 61.3623 32.227Z" fill="#B4C0BB"/>
<path d="M60.3444 19.4565L56.1136 20.5814C56.1136 20.5814 54.4952 17.3856 55.0304 16.4652C55.5784 15.5192 58.3819 14.6883 59.2612 15.3402C60.115 15.9666 60.3444 19.4565 60.3444 19.4565Z" fill="#B4C0BB"/>
<path d="M63.7855 34.1318L59.5547 35.2568C59.5547 35.2568 59.7203 38.8361 60.6379 39.373C61.5809 39.9227 64.4227 39.258 64.8687 38.2481C65.302 37.2766 63.7855 34.1318 63.7855 34.1318Z" fill="#B4C0BB"/>
<path d="M54.4281 21.6041L52.7205 25.6436C52.7205 25.6436 49.2161 24.9661 48.8083 23.9818C48.4005 22.9719 49.4582 20.2362 50.5159 19.9422C51.5354 19.6482 54.4281 21.6041 54.4281 21.6041Z" fill="#B4C0BB"/>
<path d="M52.596 27.5739L53.0037 31.9458C53.0037 31.9458 49.6013 33.0196 48.7857 32.3421C47.9446 31.639 47.5878 28.7372 48.3779 27.9702C49.1425 27.2287 52.596 27.5739 52.596 27.5739Z" fill="#B4C0BB"/>
<path d="M67.8883 27.7531L66.9453 23.4706C66.9453 23.4706 70.1949 21.9877 71.0869 22.5502C72.0044 23.1382 72.7181 25.9762 72.0299 26.8454C71.3673 27.6764 67.8883 27.7658 67.8883 27.7658V27.7531Z" fill="#B4C0BB"/>
<path d="M62.0547 19.4438L65.5336 22.1155C65.5336 22.1155 68.248 19.789 68.1205 18.7407C67.9804 17.6541 65.712 15.8133 64.6416 16.069C63.6094 16.3247 62.0547 19.4438 62.0547 19.4438Z" fill="#B4C0BB"/>
<path d="M57.4148 35.4999L53.9359 32.8281C53.9359 32.8281 51.2088 35.1547 51.349 36.2029C51.4892 37.2895 53.7575 39.1303 54.8279 38.8747C55.8601 38.619 57.4148 35.4999 57.4148 35.4999Z" fill="#B4C0BB"/>
<path d="M65.8984 33.3901L67.6061 29.3506C67.6061 29.3506 71.1105 30.0153 71.5183 31.0124C71.9261 32.0223 70.8684 34.758 69.8107 35.052C68.7912 35.346 65.8984 33.3901 65.8984 33.3901Z" fill="#B4C0BB"/>
<path d="M19.7792 85.994L0.90625 79.7173L1.33953 78.4262L18.3265 84.0765L17.0904 56.8095L35.5046 68.0716L43.2526 48.8838L58.0477 54.7897L59.4239 26.9986L75.5826 36.8162L81.4445 25.1066L103.363 35.9469L110.436 23.6493L121.79 0L123.217 0.511336L111.672 24.2246L103.898 37.7238L82.0562 26.9219L76.1433 38.7465L60.6601 29.3507L59.3093 56.7583L44.0044 50.6479L36.1545 70.0786L18.5686 59.3022L19.7792 85.994Z" fill="#F7F7F7"/>
<path d="M20.3035 83.5266C20.8132 84.5237 20.4309 85.7509 19.4369 86.2623C18.443 86.7736 17.2196 86.3901 16.7099 85.393C16.2001 84.3959 16.5824 83.1687 17.5764 82.6573C18.5704 82.146 19.7938 82.5295 20.3035 83.5266Z" fill="#1D493A"/>
<path d="M2.81912 77.9275C3.32886 78.9246 2.94655 80.1518 1.95257 80.6631C0.958584 81.1745 -0.264782 80.791 -0.774518 79.7939C-1.28425 78.7968 -0.901952 77.5696 0.0920329 77.0582C1.08602 76.5469 2.30938 76.9304 2.81912 77.9275Z" fill="#1D493A"/>
<path d="M19.4207 57.0652C19.9304 58.0623 19.5481 59.2895 18.5541 59.8008C17.5601 60.3122 16.3368 59.9287 15.827 58.9316C15.3173 57.9345 15.6996 56.7073 16.6936 56.1959C17.6876 55.6846 18.9109 56.0681 19.4207 57.0652Z" fill="#1D493A"/>
<path d="M37.491 68.0461C38.0007 69.0433 37.6184 70.2705 36.6244 70.7818C35.6305 71.2931 34.4071 70.9096 33.8974 69.9125C33.3876 68.9154 33.7699 67.6882 34.7639 67.1769C35.7579 66.6655 36.9813 67.049 37.491 68.0461Z" fill="#1D493A"/>
<path d="M45.4363 48.8328C45.946 49.8299 45.5637 51.0571 44.5698 51.5684C43.5758 52.0798 42.3524 51.6962 41.8427 50.6991C41.3329 49.702 41.7152 48.4748 42.7092 47.9635C43.7032 47.4522 44.9266 47.8357 45.4363 48.8328Z" fill="#1D493A"/>
<path d="M60.4832 54.8406C60.9929 55.8377 60.6106 57.0649 59.6166 57.5762C58.6226 58.0876 57.3993 57.7041 56.8895 56.707C56.3798 55.7098 56.7621 54.4826 57.7561 53.9713C58.7501 53.46 59.9734 53.8435 60.4832 54.8406Z" fill="#1D493A"/>
<path d="M61.9832 27.1648C62.4929 28.1619 62.1106 29.3891 61.1166 29.9004C60.1226 30.4118 58.8993 30.0283 58.3895 29.0312C57.8798 28.0341 58.2621 26.8069 59.2561 26.2955C60.2501 25.7842 61.4734 26.1677 61.9832 27.1648Z" fill="#1D493A"/>
<path d="M77.6629 36.8547C78.1726 37.8518 77.7903 39.0791 76.7963 39.5904C75.8023 40.1017 74.579 39.7182 74.0692 38.7211C73.5595 37.724 73.9418 36.4968 74.9358 35.9855C75.9298 35.4741 77.1531 35.8576 77.6629 36.8547Z" fill="#1D493A"/>
<path d="M83.8035 25.2214C84.3132 26.2185 83.9309 27.4458 82.9369 27.9571C81.943 28.4684 80.7196 28.0849 80.2099 27.0878C79.7001 26.0907 80.0824 24.8635 81.0764 24.3522C82.0704 23.8408 83.2938 24.2243 83.8035 25.2214Z" fill="#1D493A"/>
<path d="M105.311 35.5125C105.821 36.5096 105.439 37.7368 104.445 38.2481C103.451 38.7594 102.227 38.3759 101.718 37.3788C101.208 36.3817 101.59 35.1545 102.584 34.6432C103.578 34.1318 104.802 34.5153 105.311 35.5125Z" fill="#1D493A"/>
<path d="M113.085 22.9973C113.594 23.9944 113.212 25.2216 112.218 25.733C111.224 26.2443 110.001 25.8608 109.491 24.8637C108.981 23.8666 109.364 22.6394 110.358 22.128C111.352 21.6167 112.575 22.0002 113.085 22.9973Z" fill="#1D493A"/>
<path d="M40.8125 23.6846V93.1855L26.3691 93.624L26.5342 23.6846H40.8125Z" fill="white" stroke="#2A2A2A" stroke-width="0.3"/>
<path d="M59.9658 42.1182V93.1689H44.1973V42.1182H59.9658Z" fill="white" stroke="#2A2A2A" stroke-width="0.3"/>
<path d="M79.1416 34.231V93.1821H64.8379V34.231H79.1416Z" fill="white" stroke="#2A2A2A" stroke-width="0.3"/>
<path d="M98.2861 58.5835V93.1821H82.5176V58.5835H98.2861Z" fill="white" stroke="#2A2A2A" stroke-width="0.3"/>
<path d="M21.1094 93.7791L44.2641 80.4077L47.9342 83.8336L55.1088 78.2856L64.6918 90.5449L69.6235 87.5792L74.4787 90.5449L81.6405 89.3944L88.5857 86.6716L93.3772 90.5449L106.172 93.7791H21.1094Z" fill="#9BA7A2"/>
<path d="M86.5596 35.7729C86.6573 35.7537 86.845 35.7614 87.0254 35.8276C87.2039 35.8932 87.3514 36.0078 87.4121 36.1831C87.4731 36.3598 87.4605 36.64 87.2275 37.0679C87.0039 37.4785 86.5844 38.0062 85.876 38.6802L85.1816 38.2036C85.2079 38.1358 85.2468 38.0399 85.2939 37.9243C85.3898 37.6891 85.5238 37.3747 85.6758 37.0571C85.8283 36.7385 85.9969 36.421 86.1621 36.1772C86.2449 36.0552 86.3237 35.9553 86.3965 35.8843C86.4718 35.8108 86.527 35.7811 86.5605 35.7739L86.5596 35.7729Z" fill="white" stroke="black" stroke-width="0.3"/>
<path d="M85.9639 38.8369L76.5645 51.6719L65.833 46.4541L65.835 46.4492C64.7489 45.8981 63.8581 45.0786 63.2373 44.3926C62.9274 44.0502 62.6861 43.7422 62.5225 43.5205C62.4407 43.4098 62.3786 43.32 62.3369 43.2588C62.3307 43.2496 62.3246 43.2413 62.3193 43.2334C62.5368 42.7549 62.8662 42.487 63.2422 42.3486C63.6425 42.2013 64.1048 42.1969 64.5527 42.2637C64.9992 42.3302 65.4198 42.4655 65.7305 42.585C65.8854 42.6446 66.0121 42.7 66.0996 42.7402C66.1432 42.7603 66.1774 42.7759 66.2002 42.7871C66.2116 42.7927 66.22 42.7979 66.2256 42.8008C66.2284 42.8022 66.2311 42.803 66.2324 42.8037H66.2334V42.8047L66.2441 42.8096L76.1465 46.9766L76.2393 47.0156L76.3105 46.9443L85.1221 38.1553L85.9639 38.8369Z" fill="#CCCCCC" stroke="black" stroke-width="0.3"/>
<path d="M56.2217 103.604L53.1426 105.456L54.5361 103.663L54.5537 103.64L54.5615 103.611L54.7402 102.973L54.748 102.944L54.7451 102.915L54.6055 101.706L55.1816 101.517L56.2217 103.604Z" fill="white" stroke="black" stroke-width="0.3"/>
<path d="M56.5518 100.207L56.6914 101.403L56.6943 101.431L56.707 101.455L57.0127 102.043L57.0273 102.07L57.0508 102.09L58.8135 103.527L55.4111 102.423L55.9365 100.152L56.5518 100.207Z" fill="white" stroke="black" stroke-width="0.3"/>
<path d="M59.0352 65.1548L52.9854 85.7212L52.9746 85.7554L52.9814 85.7905L55.8789 101.988L54.458 102.646L48.9082 84.5171L49.4639 64.561L59.0352 65.1548Z" fill="#637B71" stroke="black" stroke-width="0.3"/>
<path d="M60.8369 84.6938L56.9131 101.146H55.2002L57.1807 85.0024L57.1826 84.9858L57.1816 84.9692L55.1953 65.4829L64.3809 64.5708L60.8369 84.6938Z" fill="#637B71" stroke="black" stroke-width="0.3"/>
<path d="M59.6934 39.5107L66.7881 42L63.6377 53.8818L63.6309 53.9092L63.6338 53.9375L64.9541 65.8516L48.9092 67.2432L48.9854 56.0186V56.0127L48.4678 39.5107H59.6934Z" fill="#CCCCCC" stroke="black" stroke-width="0.3"/>
<path d="M58.2295 36.793C58.2878 37.0854 58.3707 37.4902 58.4697 37.9395C58.6672 38.8357 58.93 39.9182 59.1885 40.6377L59.1895 40.6387C59.2551 40.8182 59.2287 40.8846 59.2148 40.9033C59.1994 40.9239 59.1482 40.9569 59.0039 40.9541C58.7224 40.9487 58.2766 40.8086 57.7881 40.6084C57.3064 40.411 56.8051 40.1656 56.4238 39.9688C56.2335 39.8705 56.0733 39.7849 55.9609 39.7236C55.9274 39.7054 55.8986 39.6884 55.874 39.6748L56.3262 36.6582L58.1641 36.4561C58.1797 36.5373 58.2015 36.6523 58.2295 36.793Z" fill="white" stroke="black" stroke-width="0.3"/>
<path d="M56.4629 32.3232C56.7099 32.2035 57.0645 32.1587 57.5479 32.3125L57.7637 32.3916C58.132 32.5468 58.4296 32.8654 58.665 33.2861C58.9004 33.7067 59.0667 34.2173 59.1787 34.7334C59.2905 35.2486 59.3472 35.7639 59.3643 36.1895C59.3815 36.6199 59.3572 36.9424 59.3193 37.082C59.2668 37.2693 59.1316 37.5754 58.8984 37.8008C58.672 38.0195 58.3538 38.1649 57.9082 38.0518C57.4589 37.9376 57.0584 37.547 56.7041 37.0557C56.3521 36.5675 56.0688 36.015 55.835 35.6045C55.6297 35.2441 55.6033 34.7526 55.6611 34.249C55.7185 33.75 55.8555 33.2652 55.9512 32.9326V32.9316C56.0113 32.7122 56.177 32.4618 56.4629 32.3232Z" fill="white" stroke="black" stroke-width="0.3"/>
<path d="M56.7754 32.0361C57.3428 31.9712 57.95 32.1972 58.3271 32.8223C58.3197 32.8295 58.3123 32.8378 58.3037 32.8457C58.2355 32.9085 58.1333 32.9921 57.999 33.0713C57.7315 33.2291 57.3379 33.3707 56.8301 33.3057H56.8311C56.5328 33.2644 56.3026 33.302 56.1318 33.4053C55.9593 33.5097 55.8692 33.6681 55.8252 33.8242C55.7819 33.978 55.7811 34.1362 55.79 34.2578C55.7946 34.3194 55.8013 34.374 55.8076 34.416L55.8193 34.4863C55.8196 34.4884 55.8201 34.4899 55.8203 34.4912V34.4922C55.8213 34.5079 55.8234 34.524 55.8252 34.5361C55.8281 34.5556 55.8322 34.5801 55.8369 34.6064C55.8462 34.6581 55.86 34.7293 55.874 34.8057C55.9027 34.9624 55.9365 35.1587 55.959 35.3525C55.9817 35.5485 55.9918 35.7321 55.9766 35.8672C55.9689 35.9352 55.9554 35.9798 55.9424 36.0049L55.9404 36.0068C55.9344 36.003 55.9258 35.9987 55.916 35.9902C55.8782 35.9575 55.8304 35.8998 55.7783 35.8145C55.6751 35.6451 55.5686 35.3928 55.4844 35.0928C55.3152 34.4901 55.2451 33.7288 55.4375 33.1016C55.6217 32.5018 56.1716 32.1054 56.7754 32.0361Z" fill="white" stroke="black" stroke-width="0.3"/>
<path d="M59.418 36.7251C59.3988 37.0374 59.3344 37.3516 59.1914 37.5981C59.052 37.8385 58.8369 38.0188 58.4971 38.0747H58.4961C57.7901 38.1966 57.2738 37.8498 56.9229 37.4507C56.8179 37.3314 56.7311 37.2076 56.6582 37.0942C56.7485 37.1441 56.8489 37.1966 56.958 37.2466C57.4083 37.4528 58.0227 37.6386 58.6191 37.4995V37.4985C58.8366 37.447 59.0096 37.3102 59.1426 37.145C59.2596 36.9996 59.3495 36.8257 59.4199 36.6519C59.419 36.6761 59.4195 36.7006 59.418 36.7251Z" fill="white" stroke="black" stroke-width="0.3"/>
<path d="M97.9736 2.9917C108.913 0.03023 120.165 6.51495 123.124 17.4761C126.084 28.4413 119.62 39.736 108.689 42.7056C97.7596 45.6749 86.5005 39.1903 83.54 28.2251C80.5796 17.2598 87.0445 5.96514 97.9746 2.99561L97.9736 2.9917ZM119.54 18.4458C117.11 9.46903 107.891 4.16754 98.9414 6.59229H98.9404C89.991 9.03031 84.7069 18.2788 87.124 27.2554C89.5541 36.232 98.7736 41.5469 107.724 39.1089C116.533 36.709 121.791 27.7098 119.647 18.8667L119.54 18.4458Z" fill="#9BA7A2" stroke="black" stroke-width="0.3"/>
<path d="M87.4561 33.7715C88.3614 32.983 89.7443 33.0908 90.5186 33.999C91.3057 34.9204 91.1982 36.296 90.292 37.0859L62.2695 61.3379L62.2686 61.3369C61.3636 62.1249 59.9808 62.018 59.1934 61.1084C58.456 60.2566 58.5037 58.9834 59.2588 58.1875L59.4199 58.0352L87.4551 33.7725L87.4561 33.7715Z" fill="#9BA7A2" stroke="black" stroke-width="0.3"/>
<path d="M73.2178 47.5273C73.3068 47.5637 73.4594 47.6721 73.5742 47.8281C73.6877 47.9823 73.7482 48.1603 73.7031 48.3408C73.6578 48.5221 73.4949 48.7481 73.0654 48.9756C72.6532 49.194 72.0127 49.4032 71.0479 49.5713L70.7295 48.7842C70.7887 48.7422 70.8734 48.6827 70.9766 48.6123C71.1859 48.4695 71.4708 48.2817 71.7725 48.1016C72.0749 47.921 72.39 47.7505 72.6621 47.6396C72.7984 47.5842 72.9197 47.5458 73.0195 47.5273C73.0713 47.5178 73.1128 47.5148 73.1455 47.5156L73.2178 47.5273Z" fill="white" stroke="black" stroke-width="0.3"/>
<path d="M48.8926 40.2998C49.3365 40.0232 49.7585 39.9826 50.1484 40.0762C50.5638 40.1759 50.9516 40.43 51.2891 40.7344C51.6253 41.0377 51.9029 41.3833 52.0967 41.6553C52.1931 41.7906 52.2684 41.9072 52.3193 41.9893C52.3448 42.0303 52.3651 42.063 52.3779 42.085C52.3843 42.0959 52.3885 42.1049 52.3916 42.1104C52.3931 42.113 52.3948 42.1149 52.3955 42.1162L52.3965 42.1172L52.3955 42.1182L52.4023 42.1279L58.3535 51.1016L58.4092 51.1855L58.5078 51.166L70.6982 48.7246L71.0225 49.751L56.1221 55.2441L50.0566 44.9219L49.959 44.7539L49.9531 44.7588C49.4183 43.7417 49.1496 42.643 49.0186 41.7764C48.9493 41.3187 48.9175 40.928 48.9033 40.6523C48.8963 40.5149 48.8936 40.4062 48.8926 40.332C48.8924 40.3206 48.8927 40.3096 48.8926 40.2998Z" fill="#CCCCCC" stroke="black" stroke-width="0.3"/>
</g>
<defs>
<clipPath id="clip0_3322_1065">
<rect width="125" height="106" fill="white"/>
</clipPath>
</defs>
</svg>
