<svg width="614" height="486" viewBox="0 0 614 486" fill="none" xmlns="http://www.w3.org/2000/svg">
<g clip-path="url(#clip0_3244_647)">
<path d="M78.5625 326.529C78.5625 310.272 90.3256 297.085 104.829 297.085C119.332 297.085 131.095 310.272 131.095 326.529" fill="white"/>
<path d="M78.5625 326.529C78.5625 310.272 90.3256 297.085 104.829 297.085C119.332 297.085 131.095 310.272 131.095 326.529" stroke="black" stroke-miterlimit="10" stroke-linecap="round" stroke-linejoin="round"/>
<path d="M131.088 335.729C133.355 335.729 135.192 333.67 135.192 331.129C135.192 328.588 133.355 326.529 131.088 326.529C128.822 326.529 126.984 328.588 126.984 331.129C126.984 333.67 128.822 335.729 131.088 335.729Z" fill="#5B5B5B" stroke="black" stroke-miterlimit="10" stroke-linecap="round" stroke-linejoin="round"/>
<path d="M78.5568 335.729C80.8233 335.729 82.6606 333.67 82.6606 331.129C82.6606 328.588 80.8233 326.529 78.5568 326.529C76.2904 326.529 74.4531 328.588 74.4531 331.129C74.4531 333.67 76.2904 335.729 78.5568 335.729Z" fill="#5B5B5B" stroke="black" stroke-miterlimit="10" stroke-linecap="round" stroke-linejoin="round"/>
<path d="M56.5156 322.072H163.582L181.284 483.049H56.5156V322.072Z" fill="#A0A0A0"/>
<path d="M56.5109 322.072L74.0091 483.049H39L56.5109 322.072Z" fill="#5B5B5B"/>
<path d="M86.7656 328.33C86.7656 312.072 98.5288 298.886 113.032 298.886C127.535 298.886 139.298 312.072 139.298 328.33" fill="white"/>
<path d="M86.7656 328.33C86.7656 312.072 98.5288 298.886 113.032 298.886C127.535 298.886 139.298 312.072 139.298 328.33" stroke="black" stroke-miterlimit="10" stroke-linecap="round" stroke-linejoin="round"/>
<path d="M139.291 337.529C141.558 337.529 143.395 335.47 143.395 332.929C143.395 330.389 141.558 328.329 139.291 328.329C137.025 328.329 135.188 330.389 135.188 332.929C135.188 335.47 137.025 337.529 139.291 337.529Z" fill="white" stroke="black" stroke-miterlimit="10" stroke-linecap="round" stroke-linejoin="round"/>
<path d="M86.7678 337.529C89.0342 337.529 90.8715 335.47 90.8715 332.929C90.8715 330.389 89.0342 328.329 86.7678 328.329C84.5014 328.329 82.6641 330.389 82.6641 332.929C82.6641 335.47 84.5014 337.529 86.7678 337.529Z" fill="white" stroke="black" stroke-miterlimit="10" stroke-linecap="round" stroke-linejoin="round"/>
<path d="M74.0138 483.049L56.5156 322.072L68.6993 483.049H74.0138Z" fill="#5B5B5B"/>
<path d="M56.5079 322.072L54.7109 472.12" stroke="black" stroke-miterlimit="10" stroke-linecap="round" stroke-linejoin="round"/>
<path d="M146.728 412.83C152.991 395.593 145.603 375.928 130.226 368.908C114.849 361.887 97.3064 370.169 91.0433 387.406C84.7803 404.643 92.1686 424.308 107.546 431.329C122.923 438.349 140.465 430.067 146.728 412.83Z" fill="#A0A0A0" stroke="white" stroke-miterlimit="10" stroke-linecap="round" stroke-linejoin="round"/>
<path d="M39 483.049L54.7139 472.12L68.6946 483.049" fill="#5B5B5B"/>
<path d="M39 483.049L54.7139 472.12L68.6946 483.049" stroke="black" stroke-miterlimit="10" stroke-linecap="round" stroke-linejoin="round"/>
<path d="M518.062 287.356C518.062 266.841 503.228 250.198 484.914 250.198C466.613 250.198 451.766 266.827 451.766 287.356" stroke="black" stroke-miterlimit="10" stroke-linecap="round" stroke-linejoin="round"/>
<path d="M456.942 293.157C456.942 289.957 454.623 287.356 451.768 287.356C448.913 287.356 446.594 289.957 446.594 293.157C446.594 296.357 448.913 298.957 451.768 298.957C454.623 298.957 456.942 296.357 456.942 293.157Z" stroke="black" stroke-miterlimit="10" stroke-linecap="round" stroke-linejoin="round"/>
<path d="M523.239 293.157C523.239 289.957 520.92 287.356 518.065 287.356C515.21 287.356 512.891 289.957 512.891 293.157C512.891 296.357 515.21 298.957 518.065 298.957C520.92 298.957 523.239 296.357 523.239 293.157Z" stroke="black" stroke-miterlimit="10" stroke-linecap="round" stroke-linejoin="round"/>
<path d="M545.902 281.728H410.76L388.406 484.92H545.902V281.728Z" fill="#A0A0A0"/>
<path d="M545.904 281.728L523.805 484.92H568.003L545.904 281.728Z" fill="#5B5B5B"/>
<path d="M507.703 289.613C507.703 269.098 492.868 252.455 474.555 252.455C456.254 252.455 441.406 269.084 441.406 289.613" stroke="black" stroke-miterlimit="10" stroke-linecap="round" stroke-linejoin="round"/>
<path d="M446.583 295.428C446.583 292.228 444.263 289.627 441.409 289.627C438.554 289.627 436.234 292.228 436.234 295.428C436.234 298.628 438.554 301.228 441.409 301.228C444.263 301.228 446.583 298.628 446.583 295.428Z" stroke="black" stroke-miterlimit="10" stroke-linecap="round" stroke-linejoin="round"/>
<path d="M512.88 295.428C512.88 292.228 510.56 289.627 507.706 289.627C504.851 289.627 502.531 292.228 502.531 295.428C502.531 298.628 504.851 301.228 507.706 301.228C510.56 301.228 512.88 298.628 512.88 295.428Z" stroke="black" stroke-miterlimit="10" stroke-linecap="round" stroke-linejoin="round"/>
<path d="M523.805 484.92L545.904 281.728L530.521 484.92H523.805Z" fill="black"/>
<path d="M545.906 281.728L547.996 468.863" stroke="black" stroke-miterlimit="10" stroke-linecap="round" stroke-linejoin="round"/>
<path d="M467.156 421.675C488.117 421.675 505.109 402.627 505.109 379.131C505.109 355.634 488.117 336.586 467.156 336.586C446.195 336.586 429.203 355.634 429.203 379.131C429.203 402.627 446.195 421.675 467.156 421.675Z" stroke="white" stroke-miterlimit="10" stroke-linecap="round" stroke-linejoin="round"/>
<path d="M530.523 484.92L547.996 468.863L568.005 484.92" stroke="black" stroke-miterlimit="10" stroke-linecap="round" stroke-linejoin="round"/>
<path d="M287.408 214.636H62.5146C53.5572 214.636 46.2969 207.11 46.2969 197.824V41.5658C46.2969 32.2797 53.5572 24.7529 62.5146 24.7529H287.408C296.365 24.7529 303.626 32.2797 303.626 41.5658V197.824C303.611 207.11 296.365 214.636 287.408 214.636Z" fill="white" stroke="#D8D7E2" stroke-width="0.75" stroke-miterlimit="10" stroke-linecap="round" stroke-linejoin="round"/>
<path d="M294.625 24.7529H55.2994C50.3263 24.7529 46.3125 29.4648 46.3125 35.2629V40.5103H303.626V35.2629C303.612 29.4648 299.598 24.7529 294.625 24.7529Z" fill="#152F27" fill-opacity="0.05" stroke="#152F27" stroke-opacity="0.05" stroke-width="0.75" stroke-miterlimit="10"/>
<path d="M59.1501 32.6469C59.1501 34.4827 57.7335 35.9666 55.9774 35.9666C54.2213 35.9666 52.8047 34.4827 52.8047 32.6469C52.8047 30.8111 54.2213 29.3271 55.9774 29.3271C57.7335 29.3271 59.1501 30.8111 59.1501 32.6469Z" stroke="#C4C1D2" stroke-width="0.75" stroke-miterlimit="10"/>
<path d="M67.9618 35.9666C69.714 35.9666 71.1345 34.4803 71.1345 32.6469C71.1345 30.8135 69.714 29.3271 67.9618 29.3271C66.2095 29.3271 64.7891 30.8135 64.7891 32.6469C64.7891 34.4803 66.2095 35.9666 67.9618 35.9666Z" stroke="#C4C1D2" stroke-width="0.75" stroke-miterlimit="10"/>
<path d="M83.1189 32.6469C83.1189 34.4827 81.7022 35.9666 79.9461 35.9666C78.1901 35.9666 76.7734 34.4827 76.7734 32.6469C76.7734 30.8111 78.1901 29.3271 79.9461 29.3271C81.7022 29.3271 83.1189 30.8111 83.1189 32.6469Z" stroke="#C4C1D2" stroke-width="0.75" stroke-miterlimit="10"/>
<path d="M67.0581 56.8182H189.362C190.646 56.8182 191.694 55.732 191.694 54.401C191.694 53.0701 190.646 51.9839 189.362 51.9839H67.0581C65.7743 51.9839 64.7266 53.0701 64.7266 54.401C64.7413 55.732 65.7743 56.8182 67.0581 56.8182Z" fill="#152F27" fill-opacity="0.05"/>
<path d="M67.0586 52.4839H189.362C190.353 52.4839 191.194 53.329 191.194 54.4009C191.194 55.4728 190.353 56.3179 189.362 56.3179H67.0586C66.0742 56.3179 65.2413 55.4797 65.2266 54.4009C65.2266 53.329 66.0678 52.4839 67.0586 52.4839Z" stroke="#152F27" stroke-opacity="0.05"/>
<path d="M70.4349 63.6717H156.969C157.574 63.6717 158.075 63.1669 158.075 62.5243C158.075 61.8971 157.588 61.377 156.969 61.377H70.4349C69.8299 61.377 69.3281 61.8818 69.3281 62.5243C69.3281 63.1516 69.8299 63.6717 70.4349 63.6717Z" fill="#152F27" fill-opacity="0.05"/>
<path d="M70.4346 61.877H156.969C157.291 61.877 157.575 62.1518 157.575 62.5244C157.575 62.9034 157.285 63.1718 156.969 63.1719H70.4346C70.1227 63.1717 69.8282 62.8925 69.8281 62.5244C69.8281 62.1454 70.1184 61.8771 70.4346 61.877Z" stroke="#152F27" stroke-opacity="0.05"/>
<path d="M70.4349 69.3016H171.637C172.242 69.3016 172.744 68.7967 172.744 68.1542C172.744 67.527 172.257 67.0068 171.637 67.0068H70.4349C69.8299 67.0068 69.3281 67.5117 69.3281 68.1542C69.3281 68.7967 69.8299 69.3016 70.4349 69.3016Z" fill="#152F27" fill-opacity="0.05"/>
<path d="M70.4346 67.5068H171.637C171.959 67.5068 172.243 67.7816 172.243 68.1543C172.243 68.5334 171.953 68.8018 171.637 68.8018H70.4346C70.1184 68.8016 69.8282 68.5332 69.8281 68.1543C69.8281 67.7753 70.1184 67.507 70.4346 67.5068Z" stroke="#152F27" stroke-opacity="0.05"/>
<path d="M70.4349 74.9466H127.101C127.706 74.9466 128.208 74.4418 128.208 73.7992C128.208 73.172 127.721 72.6519 127.101 72.6519H70.4349C69.8299 72.6519 69.3281 73.1567 69.3281 73.7992C69.3281 74.4265 69.8299 74.9466 70.4349 74.9466Z" fill="#152F27" fill-opacity="0.05"/>
<path d="M70.4346 73.1519H127.101C127.423 73.1519 127.708 73.4267 127.708 73.7993C127.708 74.1784 127.417 74.4468 127.101 74.4468H70.4346C70.1227 74.4466 69.8282 74.1674 69.8281 73.7993C69.8281 73.4675 70.0507 73.221 70.3184 73.1646L70.4346 73.1519Z" stroke="#152F27" stroke-opacity="0.05"/>
<path d="M253.039 72.7285H228.602V198.252H253.039V72.7285Z" fill="#677F76" fill-opacity="0.3"/>
<path d="M186.429 134.029H161.992V198.237H186.429V134.029Z" fill="#677F76" fill-opacity="0.3"/>
<path d="M219.734 111.632H195.297V198.236H219.734V111.632Z" fill="#5B5B5B" fill-opacity="0.1"/>
<path d="M119.828 95.3091H95.3906V198.252H119.828V95.3091Z" fill="#677F76" fill-opacity="0.3"/>
<path d="M86.5388 171.786H62.1016V198.237H86.5388V171.786Z" fill="#F2F2F4"/>
<path d="M153.133 149.741H128.695V198.252H153.133V149.741Z" fill="#5B5B5B" fill-opacity="0.1"/>
<path d="M50.25 198.236H271.779" stroke="#C4C1D2" stroke-width="0.75" stroke-miterlimit="10" stroke-linecap="round"/>
<path d="M269.696 0.765137H249.627H235.623H226.208C221.855 0.765137 218.328 4.42145 218.328 8.93447V28.394C218.328 28.7765 218.358 29.1436 218.402 29.4955C218.358 29.8627 218.328 30.2298 218.328 30.597V50.0565C218.328 54.5695 221.855 58.2259 226.208 58.2259H235.623H249.627H269.564L277.577 65.8597V50.0871V45.0386V44.1972V30.6123V28.394V23.3455V8.93447C277.577 4.42145 274.05 0.765137 269.696 0.765137Z" fill="white" stroke="#1D493A" stroke-opacity="0.1" stroke-miterlimit="10" stroke-linecap="round" stroke-linejoin="round"/>
<path d="M248.688 18.9395H247.006H236.484L239.347 47.2109H247.006H248.688H256.362L259.21 18.9395H248.688Z" fill="#152F27" fill-opacity="0.05" stroke="#152F27" stroke-opacity="0.1" stroke-width="0.75" stroke-miterlimit="10" stroke-linecap="round" stroke-linejoin="round"/>
<path d="M238.539 39.2861H257.162L258.623 24.7832H237.078L238.539 39.2861Z" fill="#152F27" fill-opacity="0.05"/>
<path d="M258.07 25.2832L256.71 38.7861H238.991L237.631 25.2832H258.07Z" stroke="#1D493A" stroke-opacity="0.1"/>
<path d="M256.519 16.1092H239.372C238.383 16.1092 237.586 15.2831 237.586 14.2581V12.8506C237.586 11.8256 238.383 10.9995 239.372 10.9995H256.519C257.508 10.9995 258.304 11.8256 258.304 12.8506V14.2428C258.304 15.2678 257.508 16.1092 256.519 16.1092Z" fill="#152F27" fill-opacity="0.2"/>
<path d="M239.371 11.4995H256.519C257.214 11.4995 257.805 12.0851 257.805 12.8511V14.2427C257.805 15.0141 257.209 15.6089 256.519 15.6089H239.371C238.676 15.6086 238.086 15.024 238.086 14.2583V12.8511C238.086 12.0852 238.676 11.4997 239.371 11.4995Z" stroke="#1D493A" stroke-opacity="0.1"/>
<path d="M259.559 19.368H236.332C235.048 19.368 234 18.2818 234 16.9508V16.5836C234 15.2527 235.048 14.1665 236.332 14.1665H259.559C260.843 14.1665 261.89 15.2527 261.89 16.5836V16.9508C261.89 18.2818 260.843 19.368 259.559 19.368Z" fill="#152F27" fill-opacity="0.2"/>
<path d="M236.332 14.6665H259.559C260.549 14.6665 261.391 15.5116 261.391 16.5835V16.9507C261.391 18.0226 260.549 18.8677 259.559 18.8677H236.332C235.341 18.8677 234.5 18.0226 234.5 16.9507V16.5835C234.5 15.5787 235.239 14.7732 236.147 14.6763L236.332 14.6665Z" stroke="#1D493A" stroke-opacity="0.1"/>
<path d="M288.928 349.828H325.761C330.468 349.828 334.275 353.79 334.275 358.655V374.244V379.691V396.779L325.613 388.533H288.913C284.206 388.533 280.398 384.571 280.398 379.706V358.671C280.413 353.775 284.22 349.828 288.928 349.828Z" fill="white" stroke="#C4C1D2" stroke-width="0.75" stroke-miterlimit="10" stroke-linecap="round" stroke-linejoin="round"/>
<path d="M273.108 334.637H309.94C314.648 334.637 318.455 338.599 318.455 343.464V359.053V364.499V381.587L309.793 373.342H273.093C268.385 373.342 264.578 369.379 264.578 364.514V343.479C264.578 338.599 268.4 334.637 273.108 334.637Z" fill="white" stroke="#C4C1D2" stroke-width="0.75" stroke-miterlimit="10" stroke-linecap="round" stroke-linejoin="round"/>
<path d="M299.953 354.693C299.953 356.819 301.606 358.533 303.657 358.533C305.708 358.533 307.361 356.819 307.361 354.693C307.361 352.566 305.708 350.853 303.657 350.853C301.606 350.853 299.953 352.582 299.953 354.693Z" fill="#C4C1D2"/>
<path d="M287.07 354.693C287.07 356.819 288.723 358.533 290.774 358.533C292.825 358.533 294.478 356.819 294.478 354.693C294.478 352.566 292.825 350.853 290.774 350.853C288.723 350.853 287.07 352.582 287.07 354.693Z" fill="#C4C1D2"/>
<path d="M274.172 354.693C274.172 356.819 275.825 358.533 277.876 358.533C279.927 358.533 281.58 356.819 281.58 354.693C281.58 352.566 279.927 350.853 277.876 350.853C275.825 350.853 274.172 352.582 274.172 354.693Z" fill="#C4C1D2"/>
<path d="M204.894 269.359L162.453 34.2534" stroke="#263238" stroke-miterlimit="10" stroke-dasharray="1.98 1.98"/>
<path d="M205.401 269.359L103.328 96.1353" stroke="#263238" stroke-miterlimit="10" stroke-dasharray="1.98 1.98"/>
<path d="M272.38 140.47L204.352 269.451" stroke="#263238" stroke-miterlimit="10" stroke-dasharray="1.98 1.98"/>
<path d="M203.524 269.359L85.75 194.596" stroke="#263238" stroke-miterlimit="10" stroke-dasharray="1.98 1.98"/>
<path d="M86.7566 226.524C69.9781 226.524 56.3281 212.373 56.3281 194.978C56.3281 177.584 69.9781 163.433 86.7566 163.433C103.535 163.433 117.185 177.584 117.185 194.978C117.17 212.373 103.52 226.524 86.7566 226.524ZM86.7566 168.023C72.4278 168.023 60.7552 180.108 60.7552 194.978C60.7552 209.833 72.413 221.934 86.7566 221.934C101.085 221.934 112.758 209.848 112.758 194.978C112.743 180.124 101.085 168.023 86.7566 168.023Z" fill="#263238"/>
<path d="M86.3843 219.869C73.1474 219.869 62.375 208.701 62.375 194.978C62.375 181.256 73.1474 170.088 86.3843 170.088C99.6211 170.088 110.394 181.256 110.394 194.978C110.394 208.701 99.6211 219.869 86.3843 219.869ZM86.3843 174.677C75.5823 174.677 66.802 183.78 66.802 194.978C66.802 206.177 75.5823 215.279 86.3843 215.279C97.1862 215.279 105.967 206.177 105.967 194.978C105.967 183.78 97.1862 174.677 86.3843 174.677Z" fill="#263238"/>
<path d="M86.7543 199.032C88.914 199.032 90.6648 197.217 90.6648 194.978C90.6648 192.739 88.914 190.924 86.7543 190.924C84.5946 190.924 82.8438 192.739 82.8438 194.978C82.8438 197.217 84.5946 199.032 86.7543 199.032Z" fill="#5B5B5B" stroke="#263238" stroke-linecap="round" stroke-linejoin="round"/>
<path d="M55.4219 148.762V156.181L63.1249 165.728H63.1397L64.5858 159.945L55.4219 148.762Z" fill="black" stroke="#263238" stroke-linecap="round" stroke-linejoin="round"/>
<path d="M55.8269 155.832L55.0234 156.529L86.3437 195.328L87.1472 194.631L55.8269 155.832Z" fill="#263238" stroke="#263238" stroke-linecap="round" stroke-linejoin="round"/>
<path d="M49.0625 156.304L56.677 165.728H63.1257L55.4227 156.182L49.0625 156.304Z" fill="black" stroke="#263238" stroke-linecap="round" stroke-linejoin="round"/>
<path d="M68.8672 195.07C68.8672 205.106 76.703 213.229 86.3835 213.229C96.0492 213.229 103.885 205.106 103.885 195.07C103.885 185.05 96.0492 176.926 86.3835 176.926C76.7178 176.926 68.8672 185.05 68.8672 195.07ZM72.8515 195.07C72.8515 187.329 78.9166 181.042 86.3835 181.042C93.8504 181.042 99.9154 187.329 99.9154 195.07C99.9154 202.811 93.8504 209.099 86.3835 209.099C78.9166 209.099 72.8515 202.826 72.8515 195.07Z" fill="#263238"/>
<path d="M190.047 35.0641C190.313 50.8673 178.183 63.8862 162.939 64.1616C147.71 64.437 135.137 51.8617 134.871 36.0585C134.606 20.2553 146.736 7.23635 161.98 6.96098C177.209 6.68561 189.781 19.2609 190.047 35.0641Z" fill="white" stroke="#263238" stroke-linecap="round" stroke-linejoin="round"/>
<path d="M164.179 63.305C173.18 57.0786 177.77 44.947 177.593 34.1922L177.607 35.462C177.445 25.7169 172.457 12.7592 163.234 6.854" fill="white"/>
<path d="M164.179 63.305C173.18 57.0786 177.77 44.947 177.593 34.1922L177.607 35.462C177.445 25.7169 172.457 12.7592 163.234 6.854" stroke="#263238" stroke-linecap="round" stroke-linejoin="round"/>
<path d="M139.25 20.0873L151.395 19.8732L152.752 19.8579L161.636 19.6896L162.89 19.659L171.774 19.4907L173.132 19.4754L185.114 19.2612" fill="white"/>
<path d="M139.25 20.0873L151.395 19.8732L152.752 19.8579L161.636 19.6896L162.89 19.659L171.774 19.4907L173.132 19.4754L185.114 19.2612" stroke="#263238" stroke-linecap="round" stroke-linejoin="round"/>
<path d="M134.961 35.8904L190.107 34.896" stroke="#263238" stroke-linecap="round" stroke-linejoin="round"/>
<path d="M140.062 51.51L152.163 51.2959L153.535 51.2653L162.183 51.1123L163.422 51.097L172.055 50.944L173.428 50.9134L185.528 50.6992L185.543 51.2194" fill="white"/>
<path d="M140.062 51.51L152.163 51.2959L153.535 51.2653L162.183 51.1123L163.422 51.097L172.055 50.944L173.428 50.9134L185.528 50.6992L185.543 51.2194" stroke="#263238" stroke-linecap="round" stroke-linejoin="round"/>
<g opacity="0.2">
<path d="M139.25 20.0873L151.395 19.8732L152.752 19.8579L161.636 19.6896L162.89 19.659L171.774 19.4907L173.132 19.4754L185.114 19.2612" fill="white"/>
<path d="M139.25 20.0873L151.395 19.8732L152.752 19.8579L161.636 19.6896L162.89 19.659L171.774 19.4907L173.132 19.4754L185.114 19.2612" stroke="#263238" stroke-linecap="round" stroke-linejoin="round"/>
<path d="M134.961 35.8904L190.107 34.896" stroke="#263238" stroke-linecap="round" stroke-linejoin="round"/>
</g>
<path d="M161.715 6.41016C152.581 12.7284 147.962 25.9768 148.124 35.8136L148.109 34.9416C148.272 44.7632 153.333 57.8433 162.674 63.825" stroke="#263238" stroke-linecap="round" stroke-linejoin="round"/>
<path d="M163.233 64.0852L162.273 6.67041" stroke="#263238" stroke-linecap="round" stroke-linejoin="round"/>
<path d="M123.653 109.934C117.898 120.766 106.152 126.227 94.7593 124.422C91.6456 123.933 88.5615 122.892 85.6396 121.286C80.519 118.471 76.5937 114.279 74.0703 109.414L98.906 96.3189L74.1736 82.7034C80.7994 70.2505 95.3053 64.8961 108.099 69.5162C108.099 69.5162 108.129 69.5162 108.129 69.5315C109.501 70.021 110.859 70.633 112.187 71.3673C125.852 78.8635 130.987 96.1354 123.653 109.934Z" fill="white" stroke="#263238" stroke-linecap="round" stroke-linejoin="round"/>
<path d="M128.655 111.204C122.044 123.642 107.568 128.996 94.7734 124.407C106.166 126.212 117.912 120.751 123.667 109.919C131.001 96.1202 125.866 78.8483 112.201 71.3368C110.888 70.6178 109.515 70.0058 108.143 69.501C111.227 69.9905 114.282 71.0155 117.189 72.6218C130.839 80.1487 135.974 97.4052 128.655 111.204Z" fill="#263238"/>
<path d="M92.721 95.921L67.8706 109.016L62.8828 107.731L87.7185 94.6512L62.9714 81.0356L67.9739 82.3054L92.721 95.921Z" fill="white" stroke="#263238" stroke-linecap="round" stroke-linejoin="round"/>
<path d="M92.721 95.921L67.8706 109.016L62.8828 107.731L87.7185 94.6512L62.9714 81.0356L67.9739 82.3054L92.721 95.921Z" fill="#263238"/>
<path d="M87.7195 94.651L62.8839 107.746C58.693 99.6536 58.3978 89.6638 62.9724 81.0508L87.7195 94.651Z" fill="#152F27" stroke="#263238" stroke-linecap="round" stroke-linejoin="round"/>
<path d="M300.844 139.705C301.11 155.508 288.979 168.527 273.736 168.802C258.492 169.078 245.934 156.502 245.668 140.699C245.403 124.896 257.533 111.877 272.777 111.602C288.006 111.326 300.578 123.902 300.844 139.705Z" fill="white" stroke="#263238" stroke-linecap="round" stroke-linejoin="round"/>
<path d="M249.391 137.654H255.633" stroke="#263238" stroke-width="2" stroke-miterlimit="10"/>
<path d="M252.016 146.267V135.39C252.016 134.059 253.063 132.973 254.347 132.973H255.513" stroke="#263238" stroke-width="2" stroke-miterlimit="10"/>
<path d="M293.646 139.781C293.646 141.433 292.362 142.764 290.768 142.764C289.174 142.764 287.891 141.433 287.891 139.781C287.891 138.129 289.174 136.798 290.768 136.798C292.347 136.798 293.646 138.129 293.646 139.781Z" stroke="#263238" stroke-miterlimit="10"/>
<path d="M292.732 146.727H288.792C286.18 146.727 284.055 144.524 284.055 141.816V137.731C284.055 135.023 286.18 132.82 288.792 132.82H292.732C295.344 132.82 297.469 135.023 297.469 137.731V141.816C297.469 144.524 295.344 146.727 292.732 146.727Z" stroke="#263238" stroke-miterlimit="10"/>
<path d="M277.13 136.568H261.812V145.671H277.13V136.568Z" fill="white" stroke="#263238" stroke-miterlimit="10" stroke-linecap="round" stroke-linejoin="round"/>
<path d="M277.13 136.568H261.812" stroke="#263238" stroke-miterlimit="10" stroke-linecap="round" stroke-linejoin="round"/>
<path d="M277.13 145.671H261.812L266.608 140.515L269.471 142.871L272.378 140.469L277.13 145.671Z" fill="white" stroke="#263238" stroke-miterlimit="10" stroke-linecap="round" stroke-linejoin="round"/>
<path d="M277.13 136.568L272.378 140.469L269.471 142.871L266.608 140.515L261.812 136.568H277.13Z" fill="white" stroke="#263238" stroke-miterlimit="10" stroke-linecap="round" stroke-linejoin="round"/>
<path d="M448.749 271.103H265.086V391.669H448.749V271.103Z" fill="white" stroke="#263238" stroke-miterlimit="10"/>
<path d="M322.623 257.089L319.067 246.518H261.516V257.089V265.396V400.435H452.321V257.089H322.623ZM448.75 391.669H265.087V271.103H448.75V391.669Z" fill="#4F6157" stroke="#263238" stroke-miterlimit="10"/>
<path d="M413.835 261.082H322.594V266.88H413.835V261.082Z" fill="white" stroke="#263238" stroke-miterlimit="10"/>
<path d="M269.502 260.149L266.875 262.78L269.605 265.809" stroke="#263238" stroke-miterlimit="10" stroke-linecap="round" stroke-linejoin="round"/>
<path d="M266.875 262.78H272.719" stroke="#263238" stroke-miterlimit="10" stroke-linecap="round" stroke-linejoin="round"/>
<path d="M284.417 260.149L287.058 262.78L284.328 265.809" stroke="#263238" stroke-miterlimit="10" stroke-linecap="round" stroke-linejoin="round"/>
<path d="M287.062 262.78H281.203" stroke="#263238" stroke-miterlimit="10" stroke-linecap="round" stroke-linejoin="round"/>
<path d="M299.617 262.428C299.337 261.235 298.171 260.256 296.931 260.256C295.47 260.256 294.305 261.48 294.305 262.979C294.305 264.494 295.485 265.702 296.931 265.702C297.566 265.702 298.141 265.473 298.599 265.09" stroke="#263238" stroke-miterlimit="10" stroke-linecap="round" stroke-linejoin="round"/>
<path d="M297.844 262.734H299.895V260.21" stroke="#263238" stroke-miterlimit="10" stroke-linecap="round" stroke-linejoin="round"/>
<path d="M313.565 261.832L311.145 259.797L308.828 261.832V266.268H313.565V261.832Z" stroke="#263238" stroke-miterlimit="10" stroke-linecap="round" stroke-linejoin="round"/>
<path d="M312.056 263.04H310.211V266.115H312.056V263.04Z" fill="#263238"/>
<path d="M308.825 261.832L307.438 263.163" stroke="#263238" stroke-miterlimit="10" stroke-linecap="round" stroke-linejoin="round"/>
<path d="M313.562 261.832L314.876 263.04" stroke="#263238" stroke-miterlimit="10" stroke-linecap="round" stroke-linejoin="round"/>
<path d="M312.688 251.995L316.391 255.942" stroke="#263238" stroke-miterlimit="10" stroke-linecap="round" stroke-linejoin="round"/>
<path d="M316.455 252.056L312.633 255.881" stroke="#263238" stroke-miterlimit="10" stroke-linecap="round" stroke-linejoin="round"/>
<path d="M439.07 262.138H446.39" stroke="#263238" stroke-miterlimit="10" stroke-linecap="round" stroke-linejoin="round"/>
<path d="M439.07 263.851H446.39" stroke="#263238" stroke-miterlimit="10" stroke-linecap="round" stroke-linejoin="round"/>
<path d="M439.07 265.564H446.39" stroke="#263238" stroke-miterlimit="10" stroke-linecap="round" stroke-linejoin="round"/>
<path d="M439.07 267.263H446.39" stroke="#263238" stroke-miterlimit="10" stroke-linecap="round" stroke-linejoin="round"/>
<path d="M400.656 285.33H409.879" stroke="#263238" stroke-miterlimit="10" stroke-linecap="round" stroke-linejoin="round"/>
<path d="M388.719 285.33H396.82" stroke="#263238" stroke-miterlimit="10" stroke-linecap="round" stroke-linejoin="round"/>
<path d="M368.891 285.33H385.743" stroke="#263238" stroke-miterlimit="10" stroke-linecap="round" stroke-linejoin="round"/>
<path d="M368.891 291.159H409.885" stroke="#263238" stroke-miterlimit="10" stroke-linecap="round" stroke-linejoin="round"/>
<path d="M403.859 297.003H409.88" stroke="#263238" stroke-miterlimit="10" stroke-linecap="round" stroke-linejoin="round"/>
<path d="M375.516 297.003H400.027" stroke="#263238" stroke-miterlimit="10" stroke-linecap="round" stroke-linejoin="round"/>
<path d="M368.891 297.003H372.108" stroke="#263238" stroke-miterlimit="10" stroke-linecap="round" stroke-linejoin="round"/>
<path d="M368.891 302.832H409.885" stroke="#263238" stroke-miterlimit="10" stroke-linecap="round" stroke-linejoin="round"/>
<path d="M383.182 351.496H374.062V380.532H383.182V351.496Z" fill="#263238" stroke="#263238" stroke-miterlimit="10" stroke-linecap="round" stroke-linejoin="round"/>
<path d="M396.198 317.059H387.078V380.517H396.198V317.059Z" fill="#637B71" stroke="#263238" stroke-miterlimit="10"/>
<path d="M409.229 335.968H400.109V380.532H409.229V335.968Z" fill="#263238" stroke="#263238" stroke-miterlimit="10" stroke-linecap="round" stroke-linejoin="round"/>
<path d="M422.26 317.059H413.141V380.517H422.26V317.059Z" fill="#637B71" stroke="#263238" stroke-miterlimit="10"/>
<path d="M435.276 289.384H426.156V380.532H435.276V289.384Z" fill="#263238" stroke="#263238" stroke-miterlimit="10" stroke-linecap="round" stroke-linejoin="round"/>
<path d="M345.233 234.432H161.57V354.999H345.233V234.432Z" fill="white" stroke="#263238" stroke-miterlimit="10"/>
<path d="M219.108 220.419L215.551 209.848H158V220.419V228.726V363.765H348.805V220.419H219.108ZM345.234 354.999H161.571V234.432H345.234V354.999Z" fill="#4F6157" stroke="#263238" stroke-miterlimit="10"/>
<path d="M310.319 224.412H219.078V230.21H310.319V224.412Z" fill="white" stroke="#263238" stroke-miterlimit="10"/>
<path d="M165.986 223.479L163.359 226.11L166.089 229.139" stroke="#263238" stroke-miterlimit="10" stroke-linecap="round" stroke-linejoin="round"/>
<path d="M163.359 226.11H169.203" stroke="#263238" stroke-miterlimit="10" stroke-linecap="round" stroke-linejoin="round"/>
<path d="M180.901 223.479L183.543 226.11L180.812 229.139" stroke="#263238" stroke-miterlimit="10" stroke-linecap="round" stroke-linejoin="round"/>
<path d="M183.546 226.11H177.688" stroke="#263238" stroke-miterlimit="10" stroke-linecap="round" stroke-linejoin="round"/>
<path d="M196.102 225.758C195.821 224.565 194.655 223.585 193.416 223.585C191.955 223.585 190.789 224.809 190.789 226.309C190.789 227.823 191.97 229.032 193.416 229.032C194.05 229.032 194.626 228.802 195.083 228.42" stroke="#263238" stroke-miterlimit="10" stroke-linecap="round" stroke-linejoin="round"/>
<path d="M194.328 226.064H196.379V223.54" stroke="#263238" stroke-miterlimit="10" stroke-linecap="round" stroke-linejoin="round"/>
<path d="M210.064 225.161L207.629 223.126L205.312 225.161V229.598H210.064V225.161Z" stroke="#263238" stroke-miterlimit="10" stroke-linecap="round" stroke-linejoin="round"/>
<path d="M208.54 226.37H206.695V229.445H208.54V226.37Z" fill="#263238"/>
<path d="M205.309 225.161L203.922 226.492" stroke="#263238" stroke-miterlimit="10" stroke-linecap="round" stroke-linejoin="round"/>
<path d="M210.062 225.161L211.361 226.37" stroke="#263238" stroke-miterlimit="10" stroke-linecap="round" stroke-linejoin="round"/>
<path d="M209.172 215.325L212.876 219.272" stroke="#263238" stroke-miterlimit="10" stroke-linecap="round" stroke-linejoin="round"/>
<path d="M212.939 215.386L209.117 219.21" stroke="#263238" stroke-miterlimit="10" stroke-linecap="round" stroke-linejoin="round"/>
<path d="M335.555 225.467H342.874" stroke="#263238" stroke-miterlimit="10" stroke-linecap="round" stroke-linejoin="round"/>
<path d="M335.555 227.181H342.874" stroke="#263238" stroke-miterlimit="10" stroke-linecap="round" stroke-linejoin="round"/>
<path d="M335.555 228.894H342.874" stroke="#263238" stroke-miterlimit="10" stroke-linecap="round" stroke-linejoin="round"/>
<path d="M335.555 230.592H342.874" stroke="#263238" stroke-miterlimit="10" stroke-linecap="round" stroke-linejoin="round"/>
<path d="M171.016 343.357V301.714L183.795 329.772L194.641 324.845L206.934 334.912L227.859 320.807L240.638 339.302L249.581 334.682L257.239 339.302L266.831 338.155L279.596 341.337L293.01 340.174L301.539 343.357H171.016Z" fill="#263238"/>
<path d="M305.5 271.103H319.445" stroke="#263238" stroke-miterlimit="10" stroke-linecap="round" stroke-linejoin="round"/>
<path d="M287.484 271.103H299.718" stroke="#263238" stroke-miterlimit="10" stroke-linecap="round" stroke-linejoin="round"/>
<path d="M257.531 271.103H282.987" stroke="#263238" stroke-miterlimit="10" stroke-linecap="round" stroke-linejoin="round"/>
<path d="M257.531 276.931H319.451" stroke="#263238" stroke-miterlimit="10" stroke-linecap="round" stroke-linejoin="round"/>
<path d="M310.344 282.76H319.449" stroke="#263238" stroke-miterlimit="10" stroke-linecap="round" stroke-linejoin="round"/>
<path d="M267.531 282.76H304.541" stroke="#263238" stroke-miterlimit="10" stroke-linecap="round" stroke-linejoin="round"/>
<path d="M257.531 282.76H262.386" stroke="#263238" stroke-miterlimit="10" stroke-linecap="round" stroke-linejoin="round"/>
<path d="M257.531 288.604H319.451" stroke="#263238" stroke-miterlimit="10" stroke-linecap="round" stroke-linejoin="round"/>
<path d="M319.445 297.981H305.5" stroke="#263238" stroke-miterlimit="10" stroke-linecap="round" stroke-linejoin="round"/>
<path d="M287.484 297.981H299.718" stroke="#263238" stroke-miterlimit="10" stroke-linecap="round" stroke-linejoin="round"/>
<path d="M257.531 297.981H282.987" stroke="#263238" stroke-miterlimit="10" stroke-linecap="round" stroke-linejoin="round"/>
<path d="M257.531 303.826H319.451" stroke="#263238" stroke-miterlimit="10" stroke-linecap="round" stroke-linejoin="round"/>
<path d="M319.449 309.654H310.344" stroke="#263238" stroke-miterlimit="10" stroke-linecap="round" stroke-linejoin="round"/>
<path d="M267.531 309.654H304.541" stroke="#263238" stroke-miterlimit="10" stroke-linecap="round" stroke-linejoin="round"/>
<path d="M257.531 309.654H262.386" stroke="#263238" stroke-miterlimit="10" stroke-linecap="round" stroke-linejoin="round"/>
<path d="M257.531 315.483H319.451" stroke="#263238" stroke-miterlimit="10" stroke-linecap="round" stroke-linejoin="round"/>
<path d="M186.898 280.71L179.578 297.752C170.503 293.561 166.415 282.53 170.459 273.122C173.395 266.284 179.682 262.046 186.898 262.046V280.71Z" fill="#C6FF00"/>
<g opacity="0.47">
<path d="M186.898 280.71L179.578 297.752C170.503 293.561 166.415 282.53 170.459 273.122C173.395 266.284 179.682 262.046 186.898 262.046V280.71Z" fill="#050B0B"/>
</g>
<path d="M186.897 280.71L195.353 297.186C190.306 299.971 184.802 300.17 179.578 297.752L186.897 280.71Z" fill="#263238"/>
<path d="M186.898 280.71L200.888 268.961C207.145 276.977 205.949 288.726 198.232 295.213C197.287 296.008 196.431 296.59 195.354 297.186L186.898 280.71Z" fill="#677F76"/>
<path d="M186.898 280.71V262.046C192.609 262.046 197.287 264.356 200.888 268.961L186.898 280.71Z" fill="#263238"/>
<path d="M186.892 290.899C192.304 290.899 196.691 286.351 196.691 280.741C196.691 275.13 192.304 270.583 186.892 270.583C181.481 270.583 177.094 275.13 177.094 280.741C177.094 286.351 181.481 290.899 186.892 290.899Z" fill="white"/>
<path d="M235.663 280.71L228.344 297.752C219.269 293.561 215.181 282.53 219.224 273.122C222.161 266.284 228.447 262.046 235.663 262.046V280.71Z" fill="#C6FF00"/>
<g opacity="0.47">
<path d="M235.663 280.71L228.344 297.752C219.269 293.561 215.181 282.53 219.224 273.122C222.161 266.284 228.447 262.046 235.663 262.046V280.71Z" fill="black"/>
</g>
<path d="M235.663 280.71L244.119 297.186C239.072 299.971 233.568 300.17 228.344 297.752L235.663 280.71Z" fill="#263238"/>
<path d="M235.664 280.71L249.653 268.961C255.91 276.977 254.715 288.726 246.997 295.213C246.053 296.008 245.197 296.59 244.12 297.186L235.664 280.71Z" fill="#677F76"/>
<path d="M235.664 280.71V262.046C241.375 262.046 246.053 264.356 249.653 268.961L235.664 280.71Z" fill="#263238"/>
<path d="M235.658 290.899C241.069 290.899 245.456 286.351 245.456 280.741C245.456 275.13 241.069 270.583 235.658 270.583C230.246 270.583 225.859 275.13 225.859 280.741C225.859 286.351 230.246 290.899 235.658 290.899Z" fill="white"/>
<path d="M170.383 247.573H286.017" stroke="#263238" stroke-miterlimit="10" stroke-linecap="round" stroke-linejoin="round"/>
<path d="M170.383 253.417H307.503" stroke="#263238" stroke-miterlimit="10" stroke-linecap="round" stroke-linejoin="round"/>
<path d="M359.225 474.771H355.078V486.994H359.225V474.771Z" fill="#637B71"/>
<path d="M346.365 415.994H342.219V486.979H346.365V415.994Z" fill="#637B71"/>
<path d="M333.522 475.765H329.375V486.994H333.522V475.765Z" fill="#637B71"/>
<path d="M320.662 470.472H316.516V486.979H320.662V470.472Z" fill="#637B71"/>
<path d="M307.811 478.075H303.664V486.994H307.811V478.075Z" fill="#637B71"/>
<path d="M294.975 451.655H290.828V486.979H294.975V451.655Z" fill="#637B71"/>
<path d="M282.115 434.153H277.969V486.979H282.115V434.153Z" fill="#637B71"/>
<path d="M269.272 415.673H265.125V486.994H269.272V415.673Z" fill="#637B71"/>
<path d="M249.99 450.997H245.844V486.994H249.99V450.997Z" fill="#637B71"/>
<path d="M237.139 472.124H232.992V486.979H237.139V472.124Z" fill="#637B71"/>
<path d="M224.287 431.843H220.141V486.979H224.287V431.843Z" fill="#637B71"/>
<g opacity="0.5">
<path d="M217.865 451.655H213.719V486.979H217.865V451.655Z" fill="#637B71"/>
<path d="M352.787 429.87H348.641V486.994H352.787V429.87Z" fill="#637B71"/>
<path d="M339.944 457.27H335.797V486.979H339.944V457.27Z" fill="#637B71"/>
<path d="M327.1 482.359H322.953V486.979H327.1V482.359Z" fill="#637B71"/>
<path d="M314.24 474.771H310.094V486.994H314.24V474.771Z" fill="#637B71"/>
<path d="M301.389 444.725H297.242V486.994H301.389V444.725Z" fill="#637B71"/>
<path d="M288.537 462.884H284.391V486.994H288.537V462.884Z" fill="#637B71"/>
<path d="M275.678 425.908H271.531V486.994H275.678V425.908Z" fill="#637B71"/>
<path d="M262.85 430.191H258.703V486.979H262.85V430.191Z" fill="#637B71"/>
<path d="M256.412 440.762H252.266V486.994H256.412V440.762Z" fill="#637B71"/>
<path d="M243.561 457.927H239.414V486.979H243.561V457.927Z" fill="#637B71"/>
<path d="M230.709 442.736H226.562V486.979H230.709V442.736Z" fill="#637B71"/>
<path d="M365.639 451.655H361.492V486.979H365.639V451.655Z" fill="#637B71"/>
</g>
<path d="M215.414 454.408L222.202 431.843L234.967 472.338L267.107 415.78L286.335 462.991L299.277 444.617L305.976 478.075L318.815 470.364L325.086 482.588L344.3 415.994L356.932 474.77L363.616 451.762" stroke="#1D493A" stroke-width="0.8573" stroke-miterlimit="10"/>
<path d="M215.516 455.02C215.956 455.02 216.312 454.65 216.312 454.194C216.312 453.738 215.956 453.368 215.516 453.368C215.076 453.368 214.719 453.738 214.719 454.194C214.719 454.65 215.076 455.02 215.516 455.02Z" fill="#1D493A"/>
<path d="M222.203 432.669C222.643 432.669 223 432.299 223 431.843C223 431.387 222.643 431.017 222.203 431.017C221.763 431.017 221.406 431.387 221.406 431.843C221.406 432.299 221.763 432.669 222.203 432.669Z" fill="#1D493A"/>
<path d="M234.953 473.057C235.393 473.057 235.75 472.687 235.75 472.231C235.75 471.775 235.393 471.405 234.953 471.405C234.513 471.405 234.156 471.775 234.156 472.231C234.156 472.687 234.513 473.057 234.953 473.057Z" fill="#1D493A"/>
<path d="M267.102 416.606C267.542 416.606 267.898 416.236 267.898 415.78C267.898 415.323 267.542 414.954 267.102 414.954C266.661 414.954 266.305 415.323 266.305 415.78C266.305 416.236 266.661 416.606 267.102 416.606Z" fill="#1D493A"/>
<path d="M286.5 463.817C286.94 463.817 287.297 463.447 287.297 462.991C287.297 462.534 286.94 462.165 286.5 462.165C286.06 462.165 285.703 462.534 285.703 462.991C285.703 463.447 286.06 463.817 286.5 463.817Z" fill="#1D493A"/>
<path d="M299.32 445.55C299.76 445.55 300.117 445.18 300.117 444.724C300.117 444.268 299.76 443.898 299.32 443.898C298.88 443.898 298.523 444.268 298.523 444.724C298.523 445.18 298.88 445.55 299.32 445.55Z" fill="#1D493A"/>
<path d="M305.859 479.176C306.299 479.176 306.656 478.806 306.656 478.35C306.656 477.894 306.299 477.524 305.859 477.524C305.419 477.524 305.062 477.894 305.062 478.35C305.062 478.806 305.419 479.176 305.859 479.176Z" fill="#1D493A"/>
<path d="M318.859 470.976C319.299 470.976 319.656 470.607 319.656 470.15C319.656 469.694 319.299 469.324 318.859 469.324C318.419 469.324 318.062 469.694 318.062 470.15C318.062 470.607 318.419 470.976 318.859 470.976Z" fill="#1D493A"/>
<path d="M325.086 483.414C325.526 483.414 325.883 483.044 325.883 482.588C325.883 482.132 325.526 481.762 325.086 481.762C324.646 481.762 324.289 482.132 324.289 482.588C324.289 483.044 324.646 483.414 325.086 483.414Z" fill="#1D493A"/>
<path d="M357.031 475.81C357.471 475.81 357.828 475.441 357.828 474.984C357.828 474.528 357.471 474.158 357.031 474.158C356.591 474.158 356.234 474.528 356.234 474.984C356.234 475.441 356.591 475.81 357.031 475.81Z" fill="#1D493A"/>
<path d="M363.609 452.48C364.049 452.48 364.406 452.11 364.406 451.654C364.406 451.198 364.049 450.828 363.609 450.828C363.169 450.828 362.812 451.198 362.812 451.654C362.812 452.11 363.169 452.48 363.609 452.48Z" fill="#1D493A"/>
<path d="M344.297 416.82C344.737 416.82 345.094 416.45 345.094 415.994C345.094 415.538 344.737 415.168 344.297 415.168C343.857 415.168 343.5 415.538 343.5 415.994C343.5 416.45 343.857 416.82 344.297 416.82Z" fill="#1D493A"/>
<path d="M215.414 472.781L222.202 481.211L234.967 456.443L267.107 476.912L286.335 447.095L299.277 474.602L305.976 462.18L318.815 480.216L325.086 435.805L344.3 468.161L356.932 435.484L363.616 464.535" stroke="#152F27" stroke-width="0.8573" stroke-miterlimit="10"/>
<path d="M215.516 472.455C215.663 472.455 215.812 472.584 215.812 472.781C215.812 472.978 215.663 473.107 215.516 473.107C215.368 473.107 215.219 472.978 215.219 472.781C215.219 472.584 215.369 472.455 215.516 472.455Z" stroke="#152F27"/>
<path d="M222.203 480.609C222.35 480.609 222.5 480.738 222.5 480.936C222.5 481.133 222.35 481.262 222.203 481.262C222.056 481.262 221.906 481.133 221.906 480.936C221.906 480.738 222.056 480.609 222.203 480.609Z" stroke="#152F27"/>
<path d="M267.102 476.586C267.249 476.586 267.398 476.715 267.398 476.912C267.398 477.109 267.249 477.238 267.102 477.238C266.954 477.238 266.805 477.109 266.805 476.912C266.805 476.715 266.954 476.586 267.102 476.586Z" stroke="#152F27"/>
<path d="M286.5 446.922C286.647 446.922 286.797 447.051 286.797 447.249C286.797 447.446 286.647 447.575 286.5 447.575C286.353 447.575 286.203 447.446 286.203 447.249C286.203 447.051 286.353 446.922 286.5 446.922Z" stroke="#152F27"/>
<path d="M299.32 474.107C299.467 474.107 299.617 474.236 299.617 474.434C299.617 474.631 299.467 474.76 299.32 474.76C299.173 474.76 299.023 474.631 299.023 474.434C299.023 474.236 299.173 474.107 299.32 474.107Z" stroke="#152F27"/>
<path d="M305.859 461.608C306.006 461.608 306.156 461.737 306.156 461.935C306.156 462.132 306.007 462.261 305.859 462.261C305.712 462.261 305.563 462.132 305.562 461.935C305.562 461.737 305.712 461.608 305.859 461.608Z" stroke="#152F27"/>
<path d="M325.086 435.158C325.233 435.158 325.383 435.287 325.383 435.484C325.383 435.681 325.233 435.81 325.086 435.81C324.939 435.81 324.789 435.681 324.789 435.484C324.789 435.287 324.939 435.158 325.086 435.158Z" stroke="#152F27"/>
<path d="M357.031 435.158C357.178 435.158 357.328 435.287 357.328 435.484C357.328 435.681 357.178 435.81 357.031 435.81C356.884 435.81 356.734 435.681 356.734 435.484C356.734 435.287 356.884 435.158 357.031 435.158Z" stroke="#152F27"/>
<path d="M363.609 464.209C363.756 464.209 363.906 464.338 363.906 464.536C363.906 464.733 363.756 464.862 363.609 464.862C363.462 464.862 363.313 464.733 363.312 464.536C363.312 464.338 363.462 464.209 363.609 464.209Z" stroke="#152F27"/>
<path d="M318.812 479.89C318.96 479.89 319.109 480.019 319.109 480.216C319.109 480.414 318.96 480.542 318.812 480.542C318.665 480.542 318.516 480.414 318.516 480.216C318.516 480.019 318.665 479.89 318.812 479.89Z" stroke="#152F27"/>
<path d="M344.297 467.835C344.444 467.835 344.594 467.964 344.594 468.161C344.594 468.358 344.444 468.487 344.297 468.487C344.15 468.487 344 468.358 344 468.161C344 467.964 344.15 467.835 344.297 467.835Z" stroke="#152F27"/>
<path d="M234.953 456.055C235.1 456.055 235.25 456.184 235.25 456.381C235.25 456.579 235.1 456.708 234.953 456.708C234.806 456.708 234.656 456.579 234.656 456.381C234.656 456.184 234.806 456.055 234.953 456.055Z" stroke="#152F27"/>
<path opacity="0.2" d="M237.393 409.247C241.009 415.749 244.639 422.251 248.254 428.753C248.919 429.961 250.675 429.961 251.353 428.753C254.969 422.251 258.599 415.749 262.214 409.247C262.583 408.574 262.51 407.916 262.214 407.412C261.964 406.861 261.447 406.448 260.68 406.448C259.543 406.448 258.407 406.448 257.271 406.448C257.271 393.827 257.271 389.451 257.271 376.83C257.271 375.82 256.459 374.979 255.485 374.979C251.722 374.979 247.945 374.979 244.182 374.979C243.621 374.979 243.208 375.193 242.913 375.53C242.603 375.836 242.381 376.264 242.381 376.845C242.381 389.467 242.381 393.842 242.381 406.463C241.245 406.463 240.109 406.463 238.972 406.463C237.571 406.448 236.715 408.024 237.393 409.247Z" fill="#381531"/>
<path d="M235.573 408.299C239.189 414.8 242.819 421.302 246.434 427.804C247.098 429.013 248.854 429.013 249.533 427.804C253.148 421.302 256.779 414.8 260.394 408.299C260.763 407.626 260.689 406.968 260.394 406.463C260.143 405.912 259.627 405.499 258.859 405.499C257.723 405.499 256.587 405.499 255.451 405.499C255.451 392.878 255.451 388.503 255.451 375.881C255.451 374.872 254.639 374.03 253.665 374.03C249.902 374.03 246.124 374.03 242.361 374.03C241.801 374.03 241.387 374.244 241.092 374.581C240.782 374.887 240.561 375.315 240.561 375.897C240.561 388.518 240.561 392.893 240.561 405.514C239.425 405.514 238.288 405.514 237.152 405.514C235.75 405.499 234.894 407.075 235.573 408.299Z" fill="#5B5B5B"/>
<path d="M242.514 413.775C242.174 413.775 241.879 413.714 241.643 413.607C241.407 413.5 241.215 413.347 241.097 413.163C240.979 412.98 240.905 412.796 240.891 412.582C240.891 412.552 240.905 412.521 240.935 412.49C240.964 412.46 240.994 412.444 241.023 412.444H241.156C241.201 412.444 241.23 412.46 241.26 412.49C241.289 412.521 241.289 412.552 241.304 412.582C241.319 412.705 241.378 412.827 241.466 412.949C241.555 413.072 241.687 413.179 241.865 413.255C242.042 413.332 242.263 413.378 242.543 413.378C242.957 413.378 243.266 413.301 243.458 413.148C243.65 412.995 243.739 412.781 243.739 412.521C243.739 412.337 243.694 412.2 243.591 412.093C243.488 411.985 243.34 411.894 243.134 411.802C242.927 411.71 242.661 411.618 242.352 411.511C242.056 411.404 241.806 411.312 241.614 411.19C241.422 411.068 241.274 410.945 241.186 410.792C241.097 410.639 241.053 410.44 241.053 410.196C241.053 409.966 241.112 409.767 241.23 409.599C241.348 409.415 241.51 409.278 241.732 409.171C241.953 409.063 242.219 409.018 242.529 409.018C242.779 409.018 243.001 409.048 243.178 409.125C243.37 409.201 243.517 409.293 243.635 409.4C243.753 409.507 243.857 409.645 243.916 409.782C243.975 409.92 244.019 410.043 244.019 410.18C244.019 410.211 244.004 410.241 243.99 410.272C243.975 410.303 243.931 410.318 243.886 410.318H243.753C243.739 410.318 243.709 410.303 243.68 410.287C243.65 410.272 243.621 410.241 243.621 410.18C243.591 409.966 243.488 409.783 243.281 409.63C243.089 409.492 242.824 409.415 242.514 409.415C242.204 409.415 241.938 409.477 241.747 409.599C241.54 409.721 241.451 409.92 241.451 410.196C241.451 410.379 241.496 410.517 241.584 410.624C241.673 410.731 241.82 410.838 241.997 410.915C242.189 411.006 242.44 411.098 242.735 411.19C243.06 411.297 243.311 411.404 243.532 411.511C243.739 411.618 243.901 411.741 243.99 411.894C244.093 412.047 244.137 412.246 244.137 412.49C244.137 412.766 244.078 412.98 243.945 413.179C243.812 413.362 243.635 413.515 243.399 413.607C243.134 413.729 242.853 413.775 242.514 413.775Z" fill="white"/>
<path d="M245.171 413.714C245.127 413.714 245.097 413.699 245.068 413.668C245.038 413.638 245.023 413.607 245.023 413.561V409.232C245.023 409.186 245.038 409.14 245.068 409.125C245.097 409.094 245.127 409.079 245.171 409.079H247.65C247.694 409.079 247.739 409.094 247.753 409.125C247.783 409.155 247.798 409.186 247.798 409.232V409.323C247.798 409.369 247.783 409.4 247.753 409.43C247.724 409.461 247.694 409.476 247.65 409.476H245.422V411.159H247.503C247.547 411.159 247.591 411.175 247.606 411.205C247.635 411.236 247.65 411.266 247.65 411.312V411.404C247.65 411.45 247.635 411.48 247.606 411.511C247.576 411.542 247.547 411.557 247.503 411.557H245.422V413.301H247.694C247.739 413.301 247.783 413.316 247.798 413.347C247.827 413.377 247.842 413.408 247.842 413.454V413.561C247.842 413.607 247.827 413.638 247.798 413.668C247.768 413.699 247.739 413.714 247.694 413.714H245.171Z" fill="white"/>
<path d="M248.944 413.714C248.9 413.714 248.871 413.699 248.841 413.668C248.812 413.638 248.797 413.607 248.797 413.561V409.232C248.797 409.186 248.812 409.155 248.841 409.125C248.871 409.094 248.9 409.079 248.944 409.079H249.062C249.107 409.079 249.136 409.094 249.166 409.125C249.195 409.155 249.21 409.186 249.21 409.232V413.316H251.409C251.453 413.316 251.497 413.332 251.512 413.362C251.542 413.393 251.556 413.423 251.556 413.469V413.576C251.556 413.622 251.542 413.653 251.512 413.683C251.483 413.714 251.453 413.729 251.409 413.729H248.944V413.714Z" fill="white"/>
<path d="M252.429 413.714C252.385 413.714 252.355 413.699 252.326 413.668C252.296 413.638 252.281 413.607 252.281 413.561V409.232C252.281 409.186 252.296 409.155 252.326 409.125C252.355 409.094 252.385 409.079 252.429 409.079H252.547C252.591 409.079 252.621 409.094 252.65 409.125C252.68 409.155 252.694 409.186 252.694 409.232V413.316H254.893C254.937 413.316 254.982 413.332 254.996 413.362C255.026 413.393 255.041 413.423 255.041 413.469V413.576C255.041 413.622 255.026 413.653 254.996 413.683C254.967 413.714 254.937 413.729 254.893 413.729H252.429V413.714Z" fill="white"/>
<path opacity="0.2" d="M327.836 398.767C324.221 392.266 320.591 385.764 316.975 379.262C316.311 378.053 314.555 378.053 313.876 379.262C310.261 385.764 306.631 392.266 303.015 398.767C302.646 399.44 302.72 400.098 303.015 400.603C303.266 401.154 303.783 401.567 304.55 401.567C305.686 401.567 306.823 401.567 307.959 401.567C307.959 414.188 307.959 418.563 307.959 431.185C307.959 432.194 308.771 433.036 309.744 433.036C313.507 433.036 317.285 433.036 321.048 433.036C321.609 433.036 322.022 432.822 322.317 432.485C322.627 432.179 322.849 431.751 322.849 431.169C322.849 418.548 322.849 414.173 322.849 401.552C323.985 401.552 325.121 401.552 326.257 401.552C327.644 401.567 328.515 399.991 327.836 398.767Z" fill="#381531"/>
<path d="M326.243 397.36C322.627 390.858 318.997 384.356 315.382 377.855C314.718 376.646 312.961 376.646 312.283 377.855C308.667 384.356 305.037 390.858 301.422 397.36C301.053 398.033 301.127 398.691 301.422 399.196C301.673 399.747 302.189 400.16 302.956 400.16C304.093 400.16 305.229 400.16 306.365 400.16C306.365 412.781 306.365 417.156 306.365 429.777C306.365 430.787 307.177 431.628 308.151 431.628C311.914 431.628 315.691 431.628 319.454 431.628C320.015 431.628 320.428 431.414 320.724 431.078C321.033 430.772 321.255 430.343 321.255 429.762C321.255 417.141 321.255 412.766 321.255 400.144C322.391 400.144 323.527 400.144 324.664 400.144C326.065 400.144 326.921 398.569 326.243 397.36Z" fill="#A0A0A0"/>
<path d="M308.327 395.677C308.283 395.677 308.253 395.662 308.224 395.631C308.194 395.6 308.18 395.57 308.18 395.524V391.194C308.18 391.149 308.194 391.103 308.224 391.087C308.253 391.057 308.283 391.042 308.327 391.042H309.995C310.29 391.042 310.541 391.103 310.733 391.21C310.924 391.317 311.057 391.47 311.146 391.638C311.234 391.822 311.279 392.005 311.279 392.219C311.279 392.403 311.249 392.571 311.19 392.709C311.131 392.847 311.057 392.954 310.969 393.03C310.88 393.107 310.792 393.183 310.718 393.214C310.895 393.306 311.043 393.443 311.175 393.642C311.308 393.841 311.367 394.071 311.367 394.346C311.367 394.56 311.323 394.774 311.22 394.973C311.116 395.172 310.969 395.34 310.777 395.463C310.585 395.585 310.334 395.646 310.054 395.646H308.327V395.677ZM308.593 393.061H309.906C310.216 393.061 310.467 392.984 310.629 392.847C310.792 392.694 310.88 392.495 310.88 392.235C310.88 391.975 310.806 391.776 310.629 391.653C310.467 391.516 310.231 391.455 309.906 391.455H308.593V393.061ZM308.593 395.279H309.98C310.29 395.279 310.541 395.187 310.703 395.019C310.88 394.851 310.954 394.637 310.954 394.361C310.954 394.086 310.865 393.872 310.703 393.703C310.526 393.535 310.29 393.443 309.98 393.443H308.593V395.279Z" fill="white"/>
<path d="M313.951 395.738C313.611 395.738 313.316 395.677 313.065 395.539C312.814 395.402 312.637 395.203 312.504 394.927C312.372 394.652 312.312 394.3 312.312 393.872V391.194C312.312 391.149 312.327 391.103 312.357 391.087C312.386 391.057 312.416 391.042 312.46 391.042H312.578C312.622 391.042 312.667 391.057 312.681 391.087C312.711 391.118 312.726 391.149 312.726 391.194V393.887C312.726 394.377 312.844 394.744 313.065 394.973C313.286 395.203 313.596 395.325 313.965 395.325C314.349 395.325 314.644 395.203 314.865 394.973C315.087 394.744 315.205 394.377 315.205 393.887V391.194C315.205 391.149 315.22 391.103 315.249 391.087C315.279 391.057 315.308 391.042 315.352 391.042H315.47C315.515 391.042 315.544 391.057 315.574 391.087C315.603 391.118 315.618 391.149 315.618 391.194V393.872C315.618 394.3 315.559 394.652 315.426 394.927C315.293 395.203 315.116 395.402 314.865 395.539C314.6 395.677 314.305 395.738 313.951 395.738Z" fill="white"/>
<path d="M318.102 395.677C318.057 395.677 318.028 395.662 317.998 395.631C317.969 395.601 317.954 395.57 317.954 395.524V393.902L316.405 391.256C316.405 391.241 316.39 391.225 316.39 391.21C316.39 391.195 316.375 391.179 316.375 391.164C316.375 391.133 316.39 391.103 316.419 391.072C316.449 391.042 316.478 391.026 316.508 391.026H316.641C316.67 391.026 316.7 391.026 316.729 391.042C316.759 391.057 316.773 391.088 316.788 391.118L318.175 393.443L319.562 391.118C319.577 391.088 319.607 391.057 319.621 391.042C319.651 391.026 319.666 391.026 319.695 391.026H319.828C319.858 391.026 319.887 391.042 319.917 391.072C319.946 391.103 319.961 391.133 319.961 391.164C319.961 391.179 319.961 391.195 319.961 391.21C319.961 391.225 319.946 391.241 319.946 391.256L318.397 393.902V395.524C318.397 395.57 318.382 395.601 318.352 395.631C318.323 395.662 318.293 395.677 318.249 395.677H318.102Z" fill="white"/>
<path d="M473.457 215.099L453.078 225.627L454.039 227.626L474.418 217.098L473.457 215.099Z" fill="#6D6E6F"/>
<path d="M492.091 134.714L473.227 151.786L474.643 153.469L493.508 136.396L492.091 134.714Z" fill="#6D6E6F"/>
<path d="M336.797 182.537L335.555 184.362L352.082 196.458L353.324 194.633L336.797 182.537Z" fill="#6D6E6F"/>
<path d="M365.582 201.51L364.859 199.797L368.15 198.298L368.873 200.011L365.582 201.51ZM370.526 199.277L369.803 197.563L373.094 196.064L373.817 197.778L370.526 199.277ZM375.47 197.028L374.746 195.315L378.037 193.815L378.76 195.529L375.47 197.028ZM380.413 194.794L379.69 193.081L382.981 191.582L383.704 193.295L380.413 194.794ZM385.371 192.546L384.648 190.832L387.939 189.333L388.662 191.046L385.371 192.546ZM390.315 190.312L389.592 188.599L392.882 187.099L393.606 188.813L390.315 190.312ZM395.258 188.063L394.535 186.35L397.826 184.85L398.549 186.564L395.258 188.063ZM400.202 185.83L399.479 184.116L402.77 182.617L403.493 184.33L400.202 185.83ZM405.145 183.596L404.422 181.883L407.521 180.475L408.244 182.189L405.145 183.596Z" fill="#5A5A5C"/>
<path d="M466.228 211.163L464.339 209.832L465.357 208.287L467.246 209.618L466.228 211.163ZM462.849 208.777L459.882 206.681L460.901 205.136L463.867 207.232L462.849 208.777ZM458.392 205.625L455.426 203.529L456.444 201.984L459.41 204.08L458.392 205.625ZM453.935 202.489L450.969 200.393L451.988 198.848L454.954 200.944L453.935 202.489ZM449.479 199.338L446.513 197.242L447.531 195.697L450.497 197.793L449.479 199.338ZM445.022 196.186L442.056 194.09L443.075 192.545L446.041 194.641L445.022 196.186ZM440.566 193.035L437.6 190.939L438.618 189.394L441.584 191.49L440.566 193.035ZM436.095 189.883L433.128 187.787L434.147 186.242L437.113 188.338L436.095 189.883ZM431.638 186.732L428.672 184.636L429.69 183.091L432.656 185.187L431.638 186.732Z" fill="#5A5A5C"/>
<path d="M432.109 176.895L431.312 175.227L434.529 173.575L435.326 175.243L432.109 176.895ZM436.95 174.401L436.153 172.734L439.37 171.082L440.167 172.749L436.95 174.401ZM441.775 171.923L440.978 170.255L444.195 168.603L444.992 170.271L441.775 171.923ZM446.615 169.429L445.818 167.762L449.035 166.11L449.832 167.777L446.615 169.429ZM451.441 166.951L450.644 165.283L453.861 163.631L454.658 165.299L451.441 166.951ZM456.281 164.457L455.484 162.79L458.701 161.138L459.498 162.805L456.281 164.457ZM461.121 161.979L460.324 160.312L460.87 160.036L461.667 161.704L461.121 161.979Z" fill="#5A5A5C"/>
<path d="M497.595 128.675H485.938V140.761H497.595V128.675Z" fill="#5773B2"/>
<path d="M450.981 221.221L440.547 226.611L445.746 237.428L456.18 232.038L450.981 221.221Z" fill="#5773B2"/>
<path d="M342.033 175.289H330.375V187.375H342.033V175.289Z" fill="#5773B2"/>
<path d="M426.147 170.913C429.069 168.68 430.988 165.085 430.988 161.015C430.988 154.223 425.675 148.715 419.123 148.715C412.571 148.715 407.259 154.223 407.259 161.015C407.259 165.085 409.162 168.664 412.099 170.913C407.023 172.963 403.422 178.088 403.422 184.07V192.897H434.824V184.07C434.824 178.088 431.224 172.979 426.147 170.913Z" fill="#DADAD9"/>
<path d="M371.876 202.432C372.824 196.335 368.824 190.595 362.942 189.612C357.06 188.629 351.523 192.776 350.576 198.874C349.628 204.972 353.628 210.712 359.51 211.694C365.392 212.677 370.928 208.53 371.876 202.432Z" fill="#677F76"/>
<path d="M468.912 168.466C474.87 168.466 479.699 163.459 479.699 157.283C479.699 151.106 474.87 146.1 468.912 146.1C462.955 146.1 458.125 151.106 458.125 157.283C458.125 163.459 462.955 168.466 468.912 168.466Z" fill="#677F76"/>
<path d="M478.447 221.915C483.81 219.227 486.056 212.54 483.463 206.979C480.87 201.419 474.419 199.09 469.055 201.779C463.692 204.467 461.446 211.155 464.039 216.715C466.633 222.276 473.083 224.604 478.447 221.915Z" fill="#677F76"/>
<path d="M492.051 117.461C491.151 117.262 490.236 117.048 489.336 116.834L489.764 114.937C490.649 115.151 491.549 115.365 492.435 115.564L492.051 117.461Z" fill="#BE7637"/>
<path d="M500.196 125.752C502.469 124.008 503.959 121.224 503.959 118.073C503.959 112.795 499.827 108.511 494.736 108.511C489.645 108.511 485.513 112.795 485.513 118.073C485.513 121.224 486.989 124.024 489.276 125.752C485.336 127.344 482.547 131.321 482.547 135.972V142.825H506.94V135.972C506.94 131.321 504.136 127.359 500.196 125.752Z" fill="#DADAD9"/>
<path d="M494.737 108.511C490.074 108.511 486.237 112.091 485.617 116.742C485.809 116.742 492.523 116.772 494.737 112.489C494.737 112.489 496.906 116.726 503.857 116.742C503.237 112.091 499.385 108.511 494.737 108.511Z" fill="#5B5B5B"/>
<path d="M341.024 174.493C343.297 172.749 344.787 169.965 344.787 166.813C344.787 161.535 340.655 157.252 335.564 157.252C330.473 157.252 326.341 161.535 326.341 166.813C326.341 169.965 327.817 172.765 330.104 174.493C326.164 176.084 323.375 180.062 323.375 184.713V191.566H347.768V184.713C347.768 180.062 344.979 176.084 341.024 174.493Z" fill="#DADAD9"/>
<path d="M335.573 157.237C330.91 157.237 327.073 160.817 326.453 165.467C326.645 165.467 333.359 165.498 335.573 161.214C335.573 161.214 337.742 165.452 344.693 165.467C344.073 160.832 340.236 157.237 335.573 157.237Z" fill="#5A5A5C"/>
<path d="M455.779 230.577C454.761 229.491 453.536 228.634 452.149 228.084C454.363 226.385 455.794 223.678 455.794 220.618C455.794 220.174 455.75 219.746 455.691 219.333C454.569 219.302 448.873 218.996 446.866 215.279C444.859 219.012 439.163 219.318 438.042 219.333C437.983 219.761 437.938 220.19 437.938 220.618C437.938 223.678 439.385 226.401 441.583 228.084C440.211 228.634 438.971 229.506 437.953 230.577C436.153 232.505 435.031 235.121 435.031 238.012V244.682H446.837H458.642V238.012C458.701 235.121 457.58 232.489 455.779 230.577Z" fill="#DADAD9"/>
<path d="M436.797 219.287V225.988C436.797 227.686 437.225 229.277 437.963 230.654C438.966 229.583 440.191 228.726 441.563 228.175C439.365 226.492 437.933 223.8 437.933 220.74C437.933 220.297 437.977 219.884 438.036 219.455C439.143 219.425 444.81 219.134 446.817 215.416V211.5V211.225V209.695H446.064C440.958 209.68 436.797 213.978 436.797 219.287Z" fill="#5B5B5B"/>
<path d="M447.697 209.68H447.653H446.812V211.21C446.826 211.21 446.841 211.21 446.856 211.21H446.871H446.885C446.9 211.21 446.93 211.21 446.944 211.21C446.915 211.21 446.885 211.21 446.856 211.21C446.841 211.21 446.812 211.21 446.797 211.21V211.485C446.812 211.485 446.826 211.485 446.841 211.485H446.856C446.841 211.485 446.812 211.485 446.797 211.485V215.401C446.812 215.371 446.826 215.355 446.841 215.325C446.841 215.325 446.856 215.34 446.856 215.355C446.856 215.34 446.871 215.34 446.871 215.325C446.871 215.325 448.287 217.788 452.065 218.905C452.095 218.92 452.124 218.92 452.154 218.935C452.301 218.981 452.449 219.012 452.596 219.058C452.803 219.103 453.009 219.149 453.216 219.195C453.319 219.211 453.423 219.241 453.526 219.256C453.806 219.302 454.087 219.348 454.367 219.364C454.426 219.364 454.485 219.379 454.544 219.379C454.884 219.409 455.238 219.425 455.607 219.44C455.621 219.44 455.621 219.44 455.636 219.44C455.651 219.44 455.666 219.44 455.68 219.44C455.739 219.868 455.784 220.281 455.784 220.725C455.784 223.769 454.352 226.477 452.154 228.16C453.511 228.711 454.736 229.552 455.739 230.623C455.739 230.638 455.754 230.638 455.769 230.654C456.507 229.277 456.935 227.686 456.935 225.988V219.287C456.95 213.979 452.803 209.68 447.697 209.68Z" fill="#5B5B5B"/>
<line x1="22.4986" y1="318.962" x2="35.4986" y2="490.962" stroke="white"/>
<circle cx="363.5" cy="464.5" r="0.5" fill="#152F27"/>
</g>
<defs>
<clipPath id="clip0_3244_647">
<rect width="614" height="486" fill="white"/>
</clipPath>
</defs>
</svg>
