<svg width="151" height="75" viewBox="0 0 151 75" fill="none" xmlns="http://www.w3.org/2000/svg">
<g clip-path="url(#clip0_3322_523)">
<path d="M123.09 15.6107C113.413 18.1777 107.636 28.1453 110.19 37.8701C112.745 47.5949 122.664 53.3997 132.354 50.8327C142.031 48.2656 147.808 38.298 145.253 28.5732C142.699 18.8368 132.779 13.0436 123.102 15.6107H123.09ZM130.156 42.4955C125.07 43.8484 119.845 40.7957 118.499 35.6847C117.152 30.5737 120.19 25.3239 125.288 23.971C130.374 22.6181 135.599 25.6708 136.934 30.7934C138.28 35.9044 135.242 41.1541 130.156 42.4955Z" fill="#9BA7A2"/>
<path d="M128.248 18.6287L120.342 20.7216C120.342 20.7216 117.327 14.7549 118.317 13.032C119.341 11.2512 124.577 9.72488 126.211 10.939C127.81 12.1185 128.236 18.6287 128.236 18.6287H128.248Z" fill="#9BA7A2"/>
<path d="M134.656 46.0454L126.75 48.1384C126.75 48.1384 127.061 54.8336 128.764 55.828C130.536 56.8572 135.829 55.6083 136.669 53.7351C137.486 51.9196 134.656 46.0454 134.656 46.0454Z" fill="#9BA7A2"/>
<path d="M117.223 22.6294L114.036 30.1918C114.036 30.1918 107.488 28.9314 106.74 27.0928C105.969 25.1849 107.96 20.097 109.928 19.5304C111.827 18.9869 117.223 22.6294 117.223 22.6294Z" fill="#9BA7A2"/>
<path d="M113.783 33.788L114.554 41.9634C114.554 41.9634 108.202 43.9754 106.672 42.715C105.095 41.4083 104.439 35.9735 105.901 34.5397C107.316 33.1521 113.783 33.788 113.783 33.788Z" fill="#9BA7A2"/>
<path d="M142.323 34.1122L140.562 26.0988C140.562 26.0988 146.627 23.3121 148.295 24.3759C150.022 25.486 151.333 30.7936 150.056 32.4009C148.825 33.9504 142.323 34.1122 142.323 34.1122Z" fill="#9BA7A2"/>
<path d="M131.438 18.5938L137.928 23.5892C137.928 23.5892 143.002 19.2529 142.749 17.2756C142.485 15.2404 138.25 11.7946 136.271 12.2802C134.349 12.7428 131.449 18.5938 131.449 18.5938H131.438Z" fill="#9BA7A2"/>
<path d="M122.778 48.6008L116.3 43.6055C116.3 43.6055 111.225 47.9417 111.478 49.9191C111.743 51.9542 115.977 55.4001 117.957 54.9144C119.878 54.4519 122.778 48.6008 122.778 48.6008Z" fill="#9BA7A2"/>
<path d="M138.617 44.6694L141.805 37.1069C141.805 37.1069 148.352 38.3558 149.1 40.2059C149.871 42.1023 147.881 47.2018 145.924 47.7684C144.014 48.3234 138.629 44.6694 138.629 44.6694H138.617Z" fill="#9BA7A2"/>
<path d="M95.4072 2.47483C90.7237 3.71211 87.9274 8.5456 89.1702 13.2519C90.4015 17.9582 95.2115 20.7681 99.895 19.5192C104.579 18.2704 107.375 13.4485 106.132 8.74218C104.889 4.03589 100.091 1.22599 95.4072 2.46327V2.47483ZM98.8249 15.4836C96.3623 16.1427 93.8422 14.6626 93.1862 12.1881C92.5303 9.7135 94.0033 7.18112 96.4659 6.52201C98.9284 5.8629 101.449 7.34301 102.104 9.81757C102.749 12.2921 101.287 14.8245 98.8249 15.4836Z" fill="#637B71"/>
<path d="M97.8888 3.93159L94.0683 4.94917C94.0683 4.94917 92.6069 2.05832 93.0902 1.22576C93.585 0.370072 96.1166 -0.381547 96.9106 0.208184C97.6816 0.774789 97.8888 3.93159 97.8888 3.93159Z" fill="#637B71"/>
<path d="M101 17.1948L97.1797 18.2124C97.1797 18.2124 97.3293 21.4501 98.1578 21.9358C99.0094 22.433 101.576 21.8317 101.978 20.9182C102.37 20.0394 101 17.1948 101 17.1948Z" fill="#637B71"/>
<path d="M92.5619 5.87423L91.0199 9.52825C91.0199 9.52825 87.8553 8.91539 87.4871 8.02501C87.1189 7.11151 88.074 4.63695 89.0291 4.37099C89.9497 4.10503 92.5619 5.87423 92.5619 5.87423Z" fill="#637B71"/>
<path d="M90.8941 11.2742L91.2624 15.2289C91.2624 15.2289 88.1899 16.2002 87.4534 15.5874C86.6939 14.9514 86.3717 12.3265 87.0852 11.6327C87.7756 10.962 90.8941 11.2742 90.8941 11.2742Z" fill="#637B71"/>
<path d="M104.711 11.4245L103.859 7.55081C103.859 7.55081 106.794 6.19789 107.599 6.71824C108.428 7.25016 109.072 9.81723 108.451 10.6035C107.852 11.3552 104.711 11.4361 104.711 11.4361V11.4245Z" fill="#637B71"/>
<path d="M99.4297 3.92021L102.571 6.33695C102.571 6.33695 105.022 4.23242 104.907 3.28422C104.781 2.30134 102.732 0.636213 101.766 0.86748C100.834 1.09875 99.4297 3.92021 99.4297 3.92021Z" fill="#637B71"/>
<path d="M95.2557 18.4319L92.1142 16.0151C92.1142 16.0151 89.6516 18.1197 89.7782 19.0679C89.9047 20.0508 91.9531 21.7159 92.9082 21.4846C93.8403 21.2533 95.2442 18.4319 95.2442 18.4319H95.2557Z" fill="#637B71"/>
<path d="M102.906 16.5359L104.448 12.8818C104.448 12.8818 107.613 13.4831 107.981 14.3851C108.349 15.2986 107.394 17.7731 106.439 18.0391C105.518 18.3051 102.906 16.5359 102.906 16.5359Z" fill="#637B71"/>
<path d="M80.1533 7.87012V70.502L67.3281 70.9023L67.4766 7.87012H80.1533Z" fill="white" stroke="#2A2A2A" stroke-width="0.5"/>
<path d="M97.4404 24.5444V70.4946H83.4297V24.5444H97.4404Z" fill="white" stroke="#2A2A2A" stroke-width="0.5"/>
<path d="M114.758 17.3984V70.4951H102.07V17.3984H114.758Z" fill="white" stroke="#2A2A2A" stroke-width="0.5"/>
<path d="M132.042 39.438V70.5063H118.031V39.438H132.042Z" fill="white" stroke="#2A2A2A" stroke-width="0.5"/>
<path d="M101.698 68.3276L101.78 68.4321L101.894 68.3638L106.27 65.7163L110.575 68.3628L110.623 68.3921L110.678 68.3833L117.156 67.3315L117.173 67.3286L117.188 67.3228L123.377 64.8911L127.637 68.3521L127.662 68.3726L127.694 68.3804L138.073 71.0112H63.0186L83.3486 59.2515L86.582 62.2739L86.6748 62.3608L86.7754 62.2827L93.1357 57.356L101.698 68.3276Z" fill="#1D493A" stroke="#5B5B5B" stroke-width="0.3"/>
<path d="M29.4828 39.524L17.2734 26.3071L18.171 25.4745L29.1721 37.3732L40.0005 15.2062L49.6898 32.1813L64.143 20.3519L73.3029 31.4875L86.4213 10.0605L94.9598 24.8963L104.672 18.1665L117.33 36.3325L128.251 29.672L147.491 15.8769L148.389 16.9061L128.987 30.6665L116.985 37.9745L104.373 19.8663L94.5686 26.6655L86.3868 12.4542L73.441 33.6036L63.9704 22.0749L49.3445 34.0545L40.0926 17.8311L29.4828 39.524Z" fill="#677F76"/>
<path d="M30.9645 37.8008C30.9415 38.8184 30.1015 39.6163 29.0888 39.5932C28.0762 39.57 27.2822 38.7259 27.3052 37.7083C27.3282 36.6908 28.1682 35.8929 29.1809 35.916C30.1935 35.9391 30.9875 36.7833 30.9645 37.8008Z" fill="#1D493A"/>
<path d="M19.5505 25.7286C19.5274 26.7462 18.6874 27.544 17.6748 27.5209C16.6621 27.4978 15.8681 26.6536 15.8911 25.6361C15.9141 24.6185 16.7542 23.8206 17.7668 23.8438C18.7795 23.8669 19.5735 24.711 19.5505 25.7286Z" fill="#1D493A"/>
<path d="M41.738 16.4317C41.7149 17.4493 40.8749 18.2472 39.8623 18.224C38.8496 18.2009 38.0556 17.3568 38.0786 16.3392C38.1016 15.3216 38.9417 14.5238 39.9543 14.5469C40.967 14.57 41.761 15.4141 41.738 16.4317Z" fill="#1D493A"/>
<path d="M51.277 33.025C51.254 34.0425 50.414 34.8404 49.4013 34.8173C48.3887 34.7942 47.5947 33.95 47.6177 32.9325C47.6407 31.9149 48.4807 31.117 49.4934 31.1401C50.506 31.1633 51.3 32.0074 51.277 33.025Z" fill="#1D493A"/>
<path d="M65.8942 21.2535C65.8712 22.2711 65.0312 23.0689 64.0185 23.0458C63.0059 23.0227 62.2118 22.1786 62.2349 21.161C62.2579 20.1434 63.0979 19.3455 64.1106 19.3687C65.1232 19.3918 65.9172 20.2359 65.8942 21.2535Z" fill="#1D493A"/>
<path d="M75.1989 32.5972C75.1759 33.6148 74.3359 34.4127 73.3232 34.3896C72.3105 34.3664 71.5165 33.5223 71.5396 32.5047C71.5626 31.4872 72.4026 30.6893 73.4153 30.7124C74.4279 30.7355 75.2219 31.5797 75.1989 32.5972Z" fill="#1D493A"/>
<path d="M88.3786 11.3091C88.3556 12.3267 87.5155 13.1246 86.5029 13.1015C85.4902 13.0783 84.6962 12.2342 84.7192 11.2166C84.7423 10.1991 85.5823 9.40119 86.5949 9.42432C87.6076 9.44745 88.4016 10.2916 88.3786 11.3091Z" fill="#1D493A"/>
<path d="M96.5895 25.8214C96.5665 26.8389 95.7265 27.6368 94.7138 27.6137C93.7012 27.5905 92.9072 26.7464 92.9302 25.7288C92.9532 24.7113 93.7932 23.9134 94.8059 23.9365C95.807 23.9597 96.6125 24.8038 96.5895 25.8214Z" fill="#1D493A"/>
<path d="M106.488 19.2764C106.465 20.294 105.625 21.0919 104.612 21.0688C103.6 21.0456 102.806 20.2015 102.829 19.1839C102.852 18.1663 103.692 17.3685 104.704 17.3916C105.717 17.4147 106.511 18.2589 106.488 19.2764Z" fill="#1D493A"/>
<path d="M119.066 36.8409C119.043 37.8585 118.203 38.6563 117.19 38.6332C116.178 38.6101 115.384 37.766 115.407 36.7484C115.43 35.7308 116.27 34.9329 117.282 34.9561C118.295 34.9792 119.089 35.8233 119.066 36.8409Z" fill="#1D493A"/>
<path d="M130.629 30.3077C130.606 31.3253 129.766 32.1231 128.753 32.1C127.74 32.0769 126.946 31.2328 126.969 30.2152C126.992 29.1976 127.832 28.3997 128.845 28.4229C129.858 28.446 130.652 29.2901 130.629 30.3077Z" fill="#1D493A"/>
<path d="M150.996 15.5299C150.973 16.5474 150.133 17.3453 149.12 17.3222C148.107 17.299 147.313 16.4549 147.336 15.4373C147.359 14.4198 148.199 13.6219 149.212 13.645C150.225 13.6681 151.019 14.5123 150.996 15.5299Z" fill="#1D493A"/>
<path d="M79.7012 23.3003L95.2031 74.8501H15.7285V23.3003H79.7012Z" fill="#637B71" stroke="#2A2A2A" stroke-width="0.3"/>
<path d="M75.3076 23.3003L90.7988 74.8501H15.6924L0.201172 23.3003H75.3076Z" fill="white" stroke="#2A2A2A" stroke-width="0.3"/>
<path d="M140.274 71.3809V74.8506H91.1504V71.3809H140.274Z" fill="#637B71" stroke="#2A2A2A" stroke-width="0.3"/>
<path d="M42.6357 46.4385C46.2117 46.4385 49.1143 49.3542 49.1143 52.9375C49.114 56.5323 46.2114 59.4473 42.6357 59.4473C39.0602 59.4471 36.1585 56.5322 36.1582 52.9375C36.1582 49.343 39.0597 46.4387 42.6357 46.4385Z" fill="#637B71" stroke="#2A2A2A" stroke-width="0.3"/>
<path d="M129.435 69.3696L129.3 70.519L129.296 70.5483L129.304 70.5776L129.477 71.1899L129.484 71.2183L129.503 71.2417L130.819 72.9429L127.906 71.1851L128.893 69.1929L129.435 69.3696Z" fill="white" stroke="black" stroke-width="0.3"/>
<path d="M128.668 70.043L125.441 71.0938L127.1 69.7393L127.123 69.7207L127.137 69.6943L127.437 69.1387L127.45 69.1143L127.453 69.085L127.588 67.9346L128.154 67.8867L128.668 70.043Z" fill="white" stroke="black" stroke-width="0.3"/>
<path d="M134.889 52.8799L129.573 70.2676L128.233 69.6289L130.998 54.1084L131.005 54.0723L130.994 54.0381L126.091 37.8691L134.275 33.0166L134.889 52.8799Z" fill="#9BA7A2" stroke="black" stroke-width="0.3"/>
<path d="M126.972 37.3032V53.3394L126.973 53.3481L128.851 68.814H127.24L123.481 53.0522L120.104 33.8696L126.972 37.3032Z" fill="#9BA7A2" stroke="black" stroke-width="0.3"/>
<path d="M93.9971 23.7612C94.0928 23.7651 94.2116 23.7854 94.3477 23.8198C94.6193 23.8886 94.9402 24.0093 95.251 24.1411C95.5609 24.2725 95.8565 24.4137 96.0742 24.522C96.1784 24.5738 96.2647 24.618 96.3262 24.6499L96.1318 25.4233C95.2015 25.3916 94.57 25.2802 94.1523 25.1294C93.7164 24.9719 93.5335 24.7804 93.4668 24.6177C93.4006 24.4561 93.4328 24.2827 93.5186 24.1226C93.6055 23.9603 93.7346 23.8349 93.8154 23.7866C93.8418 23.7711 93.898 23.7573 93.9971 23.7612Z" fill="white" stroke="black" stroke-width="0.3"/>
<path d="M115.521 15.2266C115.887 15.1164 116.289 15.1313 116.727 15.3672C116.727 15.3753 116.728 15.3842 116.729 15.3936C116.731 15.4646 116.735 15.569 116.735 15.7012C116.736 15.9659 116.726 16.3416 116.685 16.7832C116.601 17.6646 116.388 18.8009 115.88 19.8447L115.876 19.8438L110.617 30.0459L96.0869 25.5918L96.3398 24.6006L108.117 26.2812L108.217 26.2959L108.268 26.209L113.48 17.3057H113.481L113.486 17.2949L113.49 17.2871C113.493 17.2817 113.497 17.2734 113.503 17.2627C113.514 17.2411 113.531 17.2092 113.553 17.1689C113.597 17.0879 113.662 16.9724 113.747 16.8379C113.917 16.5681 114.163 16.2235 114.468 15.916C114.774 15.6074 115.131 15.3445 115.521 15.2266Z" fill="#D2D9D6" stroke="black" stroke-width="0.3"/>
<path d="M121.9 12.5366L122.053 12.5337C122.983 12.5169 124.537 12.882 126.017 13.5601C127.498 14.2393 128.868 15.2152 129.466 16.395C130.075 17.5971 130.533 19.7428 130.838 21.6069C130.99 22.5351 131.103 23.3872 131.179 24.0073C131.216 24.3173 131.245 24.5694 131.264 24.7437C131.273 24.8308 131.28 24.8989 131.284 24.9448C131.286 24.9676 131.288 24.9849 131.289 24.9966C131.29 25.0024 131.291 25.0073 131.291 25.0103V25.0142L131.293 25.0347L131.301 25.0532L134.24 32.7349C134.235 32.7423 134.229 32.7507 134.223 32.7593C134.179 32.8169 134.113 32.9015 134.026 33.0073C133.853 33.2189 133.595 33.5158 133.259 33.856C132.585 34.5372 131.598 35.3894 130.345 36.0757C127.854 37.4392 124.302 38.154 120.027 35.5513C120.025 35.5422 120.022 35.5321 120.02 35.521C120.004 35.4618 119.98 35.3743 119.949 35.2622C119.888 35.0379 119.8 34.7135 119.689 34.314C119.468 33.515 119.159 32.4142 118.804 31.2085C118.183 29.1011 117.423 26.665 116.759 24.9556L116.48 24.27C116.057 23.2838 115.181 21.4842 114.7 19.687C114.46 18.7891 114.321 17.9031 114.384 17.1294C114.446 16.3579 114.706 15.7095 115.252 15.2632C116.958 13.8764 118.177 13.2039 119.203 12.8706C120.175 12.555 120.983 12.5413 121.9 12.5259V12.5366Z" fill="white" stroke="black" stroke-width="0.3"/>
<path d="M120.9 12.6733C120.883 12.6926 120.863 12.7162 120.84 12.7417C120.758 12.8324 120.64 12.9603 120.499 13.1089C120.216 13.4072 119.839 13.7872 119.466 14.1177C119.087 14.4531 118.728 14.7212 118.476 14.8149C118.346 14.8629 118.292 14.8473 118.274 14.8354C118.263 14.8276 118.235 14.7989 118.223 14.7085L118.217 14.5952C118.228 13.8615 118.127 12.7976 118.023 11.9233C117.972 11.485 117.919 11.0916 117.879 10.8081C117.86 10.6752 117.844 10.566 117.833 10.4878L119.553 10.0933L120.9 12.6733Z" fill="white" stroke="black" stroke-width="0.3"/>
<path d="M118.088 6.21875C118.385 6.25234 118.61 6.4233 118.732 6.60547V6.60645C118.923 6.88523 119.196 7.28072 119.403 7.71387C119.612 8.14967 119.742 8.59974 119.676 8.99219C119.594 9.43966 119.509 10.0304 119.343 10.582C119.175 11.1376 118.935 11.6133 118.567 11.8545C118.203 12.0935 117.873 12.0624 117.603 11.9365C117.323 11.8065 117.106 11.5735 117.001 11.4209V11.4199C116.923 11.3078 116.8 11.0245 116.681 10.6279C116.563 10.2371 116.452 9.75202 116.392 9.25C116.332 8.74724 116.323 8.23293 116.405 7.7793C116.487 7.32492 116.657 6.94535 116.942 6.69238C117.403 6.28488 117.794 6.18565 118.088 6.21875Z" fill="white" stroke="black" stroke-width="0.3"/>
<path d="M117.707 6.01953C118.272 5.89342 118.891 6.08048 119.242 6.56348C119.611 7.06967 119.784 7.77849 119.819 8.375C119.837 8.67195 119.819 8.93189 119.778 9.11621C119.758 9.20885 119.733 9.27494 119.71 9.31543C119.705 9.32474 119.698 9.33094 119.694 9.33594C119.676 9.31858 119.652 9.28501 119.625 9.22949C119.568 9.11454 119.518 8.94722 119.477 8.76367C119.435 8.58241 119.403 8.39493 119.381 8.24512C119.37 8.17051 119.361 8.10574 119.354 8.05566C119.347 8.01021 119.341 7.9668 119.337 7.94629V7.94434C119.337 7.94316 119.336 7.94139 119.336 7.93945C119.335 7.9353 119.334 7.93028 119.333 7.92383C119.331 7.9108 119.328 7.89289 119.324 7.87305C119.317 7.83335 119.306 7.78246 119.291 7.72559C119.261 7.61287 119.211 7.46912 119.124 7.34277C119.035 7.21457 118.904 7.09772 118.714 7.05664C118.526 7.01616 118.307 7.05479 118.053 7.18555C117.61 7.41043 117.211 7.41017 116.922 7.35449C116.777 7.32653 116.659 7.28449 116.579 7.25C116.568 7.24529 116.558 7.23972 116.549 7.23535C116.691 6.53814 117.172 6.13887 117.707 6.01953Z" fill="white" stroke="black" stroke-width="0.3"/>
<path d="M119.38 10.6211C119.35 10.7363 119.314 10.8623 119.262 10.9893C119.069 11.4609 118.712 11.9358 118.041 12.0508C117.719 12.1059 117.47 12.0115 117.27 11.8379C117.064 11.6596 116.908 11.3953 116.793 11.1182C116.785 11.099 116.778 11.0797 116.771 11.0605C116.889 11.1954 117.026 11.3234 117.177 11.418C117.348 11.5254 117.547 11.595 117.76 11.5732H117.761C118.351 11.5101 118.85 11.1476 119.192 10.8184C119.261 10.7519 119.323 10.6839 119.38 10.6211Z" fill="white" stroke="black" stroke-width="0.3"/>
<path d="M109.383 28.8618C109.663 28.8733 110.002 28.9243 110.333 28.9888C110.663 29.0531 110.98 29.1293 111.215 29.1899C111.327 29.2189 111.421 29.2438 111.487 29.2622L111.451 30.064C110.532 30.2254 109.891 30.2458 109.451 30.1841C108.992 30.1196 108.774 29.9703 108.677 29.8247C108.58 29.6799 108.577 29.5028 108.629 29.3276C108.682 29.151 108.784 29.003 108.854 28.939C108.877 28.9183 108.929 28.8928 109.027 28.8765C109.122 28.8608 109.243 28.8561 109.383 28.8618Z" fill="white" stroke="black" stroke-width="0.3"/>
<path d="M129.082 15.6396C129.239 15.6749 129.414 15.7721 129.601 15.9678V15.9688C129.971 16.3574 130.14 16.9169 130.136 17.6826C130.132 18.3917 129.976 19.2594 129.718 20.2979L129.714 20.2939L129.645 20.542L126.571 31.6035L111.453 30.2168L111.508 29.1992L123.378 28.4336L123.479 28.4268L123.511 28.332L126.802 18.5488V18.5479L126.803 18.5459C126.803 18.544 126.804 18.541 126.806 18.5371C126.808 18.5294 126.812 18.5179 126.817 18.5029C126.828 18.4724 126.844 18.4267 126.865 18.3701C126.907 18.257 126.968 18.0969 127.047 17.9102C127.205 17.535 127.432 17.0557 127.706 16.6309C127.983 16.2009 128.295 15.8494 128.616 15.7002C128.772 15.6278 128.926 15.6049 129.082 15.6396Z" fill="#D2D9D6" stroke="black" stroke-width="0.3"/>
</g>
<defs>
<clipPath id="clip0_3322_523">
<rect width="151" height="75" fill="white"/>
</clipPath>
</defs>
</svg>
