<svg width="476" height="290" viewBox="0 0 476 290" fill="none" xmlns="http://www.w3.org/2000/svg">
<g clip-path="url(#clip0_3197_4296)">
<path d="M394.78 63.8694C394.039 63.8694 393.303 63.8356 392.561 63.7701C392.513 63.7658 392.467 63.7522 392.425 63.73C392.382 63.7078 392.345 63.6775 392.314 63.6408C392.284 63.6041 392.261 63.5617 392.247 63.5161C392.232 63.4705 392.227 63.4225 392.232 63.3749C392.236 63.3273 392.249 63.281 392.272 63.2387C392.294 63.1964 392.324 63.1588 392.361 63.1282C392.397 63.0976 392.44 63.0745 392.485 63.0603C392.531 63.046 392.579 63.0409 392.626 63.0452C394.07 63.1752 395.523 63.1752 396.967 63.0452C397.064 63.0364 397.159 63.0661 397.234 63.1279C397.308 63.1897 397.355 63.2786 397.364 63.3749C397.369 63.4226 397.364 63.4707 397.35 63.5164C397.336 63.5622 397.313 63.6047 397.282 63.6415C397.251 63.6782 397.214 63.7085 397.171 63.7306C397.129 63.7527 397.083 63.7661 397.035 63.7701C396.292 63.8441 395.533 63.8694 394.78 63.8694ZM388.257 62.9691C388.224 62.9682 388.19 62.9632 388.158 62.9543C386.72 62.5455 385.322 62.0043 383.983 61.3376C383.941 61.3164 383.902 61.2869 383.871 61.2509C383.84 61.2149 383.815 61.173 383.8 61.1277C383.785 61.0824 383.779 61.0345 383.782 60.9867C383.785 60.939 383.798 60.8923 383.819 60.8495C383.84 60.8066 383.869 60.7683 383.905 60.7368C383.941 60.7053 383.983 60.6812 384.028 60.6659C384.074 60.6506 384.121 60.6444 384.169 60.6476C384.217 60.6508 384.263 60.6634 384.306 60.6846C385.605 61.3321 386.961 61.8571 388.356 62.2527C388.44 62.2774 388.513 62.3314 388.56 62.4051C388.608 62.4787 388.627 62.5669 388.615 62.6538C388.603 62.7406 388.56 62.8202 388.495 62.8781C388.429 62.936 388.345 62.9683 388.257 62.9691ZM401.336 62.9586C401.257 62.9581 401.181 62.9322 401.117 62.8846C401.054 62.837 401.008 62.7703 400.986 62.6944C400.973 62.6483 400.969 62.6001 400.974 62.5525C400.98 62.5049 400.995 62.4589 401.018 62.417C401.041 62.3752 401.073 62.3384 401.11 62.3087C401.148 62.2791 401.191 62.2572 401.237 62.2443C402.629 61.8469 403.981 61.3212 405.277 60.6741C405.363 60.6309 405.463 60.6238 405.554 60.6543C405.599 60.6694 405.641 60.6933 405.677 60.7246C405.713 60.7559 405.743 60.794 405.764 60.8368C405.785 60.8795 405.798 60.9261 405.802 60.9737C405.805 61.0214 405.799 61.0692 405.784 61.1146C405.769 61.1599 405.745 61.2018 405.714 61.2379C405.682 61.274 405.644 61.3036 405.602 61.325C404.264 61.9942 402.867 62.5375 401.429 62.948C401.399 62.9559 401.367 62.9594 401.336 62.9586ZM380.395 59.0489C380.319 59.0473 380.245 59.0222 380.184 58.977C378.991 58.0737 377.883 57.0628 376.874 55.9571C376.842 55.9218 376.817 55.8806 376.801 55.8357C376.785 55.7908 376.778 55.7432 376.78 55.6955C376.782 55.6478 376.793 55.601 376.814 55.5578C376.834 55.5146 376.862 55.4757 376.898 55.4436C376.932 55.4108 376.974 55.3854 377.018 55.3689C377.063 55.3523 377.111 55.3449 377.159 55.347C377.207 55.3492 377.253 55.3609 377.297 55.3815C377.34 55.402 377.378 55.4311 377.41 55.4668C378.39 56.5384 379.465 57.5181 380.623 58.3938C380.684 58.4391 380.729 58.5023 380.752 58.5747C380.775 58.647 380.775 58.7248 380.752 58.797C380.728 58.8693 380.683 58.9325 380.622 58.9776C380.561 59.0228 380.488 59.0477 380.412 59.0489H380.395ZM409.192 59.0299C409.116 59.0287 409.043 59.0038 408.982 58.9586C408.921 58.9135 408.876 58.8503 408.852 58.778C408.829 58.7058 408.829 58.628 408.852 58.5557C408.875 58.4833 408.92 58.4201 408.981 58.3747C410.137 57.4968 411.21 56.515 412.188 55.4414C412.252 55.37 412.343 55.3273 412.439 55.3227C412.536 55.3182 412.63 55.3521 412.701 55.4171C412.773 55.4822 412.815 55.5729 412.82 55.6694C412.824 55.7659 412.79 55.8603 412.725 55.9317C411.718 57.0383 410.611 58.0505 409.42 58.9559C409.354 59.0051 409.274 59.0311 409.192 59.0299ZM374.478 52.5567C374.416 52.5569 374.355 52.541 374.3 52.5107C374.246 52.4804 374.2 52.4365 374.168 52.3835C373.378 51.1099 372.708 49.7657 372.166 48.3681C372.131 48.2782 372.133 48.178 372.172 48.0896C372.211 48.0012 372.283 47.9319 372.373 47.8968C372.462 47.8618 372.562 47.864 372.651 47.9028C372.739 47.9416 372.808 48.014 372.843 48.104C373.369 49.4576 374.02 50.7594 374.786 51.9925C374.82 52.0477 374.839 52.111 374.84 52.1759C374.842 52.2408 374.826 52.3049 374.795 52.3617C374.764 52.4186 374.718 52.466 374.662 52.4991C374.606 52.5323 374.543 52.55 374.478 52.5504V52.5567ZM415.113 52.5272C415.046 52.5263 414.979 52.5074 414.921 52.4722C414.881 52.4472 414.845 52.4143 414.818 52.3754C414.79 52.3366 414.77 52.2926 414.759 52.2461C414.748 52.1995 414.747 52.1512 414.755 52.104C414.763 52.0569 414.78 52.0118 414.805 51.9714C415.568 50.735 416.216 49.4313 416.742 48.0765C416.777 47.9865 416.846 47.9142 416.934 47.8753C416.978 47.8561 417.025 47.8457 417.073 47.8446C417.12 47.8436 417.168 47.852 417.212 47.8694C417.257 47.8867 417.297 47.9127 417.332 47.9457C417.366 47.9788 417.394 48.0183 417.413 48.0621C417.432 48.1059 417.443 48.153 417.444 48.2008C417.445 48.2486 417.436 48.2961 417.419 48.3406C416.879 49.738 416.211 51.0822 415.424 52.356C415.39 52.4096 415.343 52.4536 415.288 52.4836C415.232 52.5136 415.17 52.5286 415.107 52.5272H415.113ZM371.286 44.3591C371.202 44.3586 371.12 44.3286 371.055 44.2743C370.99 44.2199 370.945 44.1445 370.93 44.0611C370.654 42.5893 370.512 41.0953 370.508 39.5978C370.508 39.5499 370.517 39.5024 370.535 39.458C370.553 39.4137 370.58 39.3734 370.613 39.3394C370.647 39.3054 370.687 39.2784 370.731 39.26C370.775 39.2416 370.823 39.2322 370.871 39.2322C370.967 39.2322 371.059 39.2705 371.127 39.3386C371.195 39.4068 371.234 39.4993 371.234 39.5957C371.235 41.0491 371.37 42.4993 371.636 43.928C371.654 44.0227 371.633 44.1204 371.578 44.1997C371.524 44.2789 371.44 44.3332 371.345 44.3507C371.326 44.3552 371.306 44.358 371.286 44.3591ZM418.28 44.3232C418.257 44.3254 418.235 44.3254 418.212 44.3232C418.165 44.3148 418.121 44.2972 418.08 44.2713C418.04 44.2455 418.006 44.212 417.979 44.1727C417.952 44.1334 417.933 44.0891 417.923 44.0424C417.913 43.9957 417.912 43.9475 417.921 43.9005C418.185 42.4722 418.317 41.0228 418.318 39.5703C418.316 39.47 418.353 39.373 418.42 39.2988C418.488 39.2247 418.581 39.1789 418.681 39.1709C418.726 39.1668 418.772 39.1722 418.816 39.1868C418.859 39.2013 418.899 39.2247 418.933 39.2554C418.967 39.2862 418.995 39.3236 419.014 39.3654C419.033 39.4073 419.043 39.4525 419.043 39.4985V39.5344C419.045 41.0435 418.909 42.5495 418.636 44.0337C418.619 44.1155 418.574 44.1889 418.509 44.2416C418.444 44.2943 418.363 44.3231 418.28 44.3232ZM371.276 35.5613C371.223 35.5629 371.17 35.5525 371.121 35.5309C371.072 35.5093 371.029 35.477 370.995 35.4364C370.96 35.3958 370.936 35.348 370.922 35.2964C370.909 35.2449 370.907 35.1909 370.917 35.1387C371.188 33.6656 371.595 32.2209 372.132 30.8232C372.172 30.7398 372.241 30.6744 372.326 30.6401C372.412 30.6058 372.507 30.6052 372.593 30.6383C372.679 30.6715 372.749 30.736 372.79 30.8189C372.83 30.9018 372.838 30.9969 372.811 31.0853C372.289 32.4403 371.895 33.8412 371.632 35.2697C371.616 35.3521 371.571 35.4262 371.506 35.4794C371.441 35.5326 371.36 35.5615 371.276 35.5613ZM418.265 35.4578C418.18 35.4582 418.098 35.4288 418.033 35.3747C417.968 35.3206 417.924 35.2453 417.908 35.1619C417.64 33.7342 417.239 32.3347 416.71 30.9817C416.693 30.9372 416.684 30.8896 416.685 30.8418C416.686 30.7939 416.696 30.7467 416.715 30.7029C416.735 30.659 416.762 30.6194 416.796 30.5862C416.831 30.553 416.872 30.5269 416.916 30.5094C416.96 30.4919 417.008 30.4834 417.056 30.4843C417.103 30.4852 417.151 30.4955 417.194 30.5146C417.238 30.5337 417.278 30.5613 417.311 30.5958C417.344 30.6302 417.37 30.6709 417.387 30.7154C417.931 32.1114 418.345 33.5546 418.624 35.0267C418.632 35.0787 418.629 35.1319 418.615 35.1826C418.6 35.2333 418.575 35.2804 418.541 35.3205C418.507 35.3606 418.465 35.3929 418.417 35.4152C418.369 35.4374 418.318 35.449 418.265 35.4493V35.4578ZM374.434 27.3553C374.367 27.3547 374.301 27.3357 374.244 27.3003C374.203 27.2754 374.167 27.2427 374.139 27.2039C374.111 27.1652 374.091 27.1212 374.08 27.0746C374.069 27.028 374.068 26.9797 374.075 26.9325C374.083 26.8852 374.1 26.84 374.126 26.7994C374.911 25.5215 375.813 24.3189 376.82 23.2068C376.852 23.1714 376.89 23.1427 376.934 23.1223C376.977 23.1019 377.024 23.0903 377.071 23.088C377.119 23.0858 377.167 23.093 377.212 23.1092C377.257 23.1254 377.298 23.1503 377.333 23.1825C377.368 23.2147 377.397 23.2535 377.417 23.2968C377.438 23.3401 377.449 23.387 377.452 23.4347C377.454 23.4825 377.447 23.5303 377.431 23.5753C377.414 23.6203 377.39 23.6617 377.357 23.6971C376.381 24.7722 375.506 25.9352 374.744 27.1714C374.713 27.2264 374.667 27.2724 374.613 27.3046C374.559 27.3369 374.497 27.3543 374.434 27.3553ZM415.071 27.2665C415.009 27.2665 414.948 27.2508 414.894 27.2208C414.84 27.1909 414.794 27.1477 414.761 27.0953C413.994 25.8624 413.114 24.7029 412.135 23.6315C412.102 23.5963 412.077 23.555 412.061 23.5101C412.045 23.4652 412.037 23.4175 412.039 23.3697C412.041 23.3219 412.053 23.275 412.073 23.2316C412.093 23.1883 412.122 23.1493 412.157 23.117C412.192 23.0846 412.233 23.0596 412.278 23.0432C412.323 23.0268 412.371 23.0194 412.418 23.0215C412.466 23.0235 412.513 23.035 412.556 23.0552C412.599 23.0754 412.638 23.1039 412.671 23.1392C413.68 24.2437 414.587 25.4385 415.379 26.7086C415.43 26.7907 415.447 26.8898 415.425 26.9841C415.403 27.0784 415.345 27.1601 415.263 27.2115C415.205 27.247 415.139 27.266 415.071 27.2665ZM380.34 20.8441C380.265 20.8417 380.192 20.8161 380.132 20.7707C380.072 20.7254 380.028 20.6626 380.005 20.5909C379.981 20.5192 379.981 20.4421 380.003 20.3701C380.026 20.2982 380.07 20.2349 380.129 20.1889C381.319 19.2831 382.591 18.4894 383.926 17.8178C384.013 17.7746 384.112 17.7675 384.204 17.798C384.249 17.8131 384.291 17.837 384.327 17.8683C384.363 17.8997 384.392 17.9378 384.414 17.9805C384.435 18.0232 384.448 18.0698 384.451 18.1174C384.455 18.1651 384.448 18.213 384.433 18.2583C384.418 18.3036 384.395 18.3455 384.363 18.3816C384.332 18.4177 384.294 18.4473 384.251 18.4687C382.955 19.1204 381.721 19.8908 380.566 20.7701C380.501 20.8188 380.422 20.8448 380.34 20.8441ZM388.19 16.9027C388.101 16.9037 388.016 16.8725 387.949 16.8148C387.882 16.7571 387.838 16.6769 387.826 16.5893C387.814 16.5017 387.834 16.4126 387.883 16.3388C387.931 16.265 388.005 16.2115 388.091 16.1884C389.528 15.7771 391 15.4998 392.489 15.36C392.536 15.3555 392.584 15.3605 392.63 15.3746C392.676 15.3887 392.718 15.4117 392.755 15.4422C392.791 15.4727 392.822 15.5102 392.844 15.5525C392.866 15.5947 392.88 15.641 392.884 15.6886C392.889 15.7362 392.884 15.7842 392.87 15.8299C392.856 15.8755 392.833 15.918 392.802 15.9548C392.772 15.9916 392.735 16.022 392.692 16.0443C392.65 16.0666 392.604 16.0804 392.556 16.0848C391.112 16.2201 389.683 16.4897 388.289 16.89C388.257 16.8985 388.223 16.9028 388.19 16.9027Z" fill="white" stroke="black" stroke-width="0.75" stroke-miterlimit="10"/>
<path d="M93.9141 63.0537C93.1737 63.0537 92.4375 63.0199 91.6949 62.9523C91.599 62.9436 91.5104 62.897 91.4487 62.8229C91.387 62.7488 91.3572 62.6532 91.3658 62.557C91.3745 62.4609 91.4209 62.3722 91.4949 62.3104C91.5689 62.2485 91.6644 62.2187 91.7603 62.2274C93.2052 62.3584 94.6589 62.3584 96.1038 62.2274C96.1513 62.2231 96.1992 62.2282 96.2447 62.2424C96.2903 62.2567 96.3326 62.2798 96.3692 62.3104C96.4058 62.341 96.4361 62.3785 96.4582 62.4209C96.4804 62.4632 96.494 62.5095 96.4983 62.557C96.5026 62.6046 96.4975 62.6526 96.4832 62.6983C96.469 62.7439 96.446 62.7862 96.4154 62.8229C96.3849 62.8596 96.3474 62.8899 96.3052 62.9121C96.2629 62.9343 96.2167 62.948 96.1692 62.9523C95.433 63.0178 94.6735 63.0537 93.9141 63.0537ZM87.3979 62.1534C87.3642 62.1535 87.3308 62.1485 87.2987 62.1386C85.8598 61.7316 84.4621 61.1903 83.124 60.5219C83.0802 60.5014 83.041 60.4723 83.0086 60.4363C82.9762 60.4004 82.9512 60.3583 82.9353 60.3125C82.9194 60.2668 82.9127 60.2183 82.9158 60.17C82.9188 60.1217 82.9314 60.0744 82.9529 60.031C82.9744 59.9876 83.0044 59.949 83.041 59.9174C83.0776 59.8857 83.1202 59.8618 83.1662 59.8469C83.2122 59.832 83.2607 59.8264 83.3089 59.8306C83.3571 59.8347 83.4039 59.8485 83.4467 59.871C84.7461 60.5167 86.1019 61.0416 87.497 61.4391C87.5822 61.4622 87.6561 61.5157 87.7048 61.5895C87.7535 61.6633 87.7736 61.7524 87.7615 61.84C87.7493 61.9276 87.7057 62.0078 87.6387 62.0655C87.5718 62.1232 87.4861 62.1544 87.3979 62.1534ZM100.477 62.1534C100.389 62.1544 100.303 62.1232 100.236 62.0655C100.169 62.0078 100.125 61.9276 100.113 61.84C100.101 61.7524 100.121 61.6633 100.17 61.5895C100.219 61.5157 100.292 61.4622 100.378 61.4391C101.772 61.0417 103.127 60.5146 104.424 59.8647C104.509 59.8288 104.605 59.8269 104.692 59.8592C104.779 59.8916 104.85 59.9558 104.891 60.0388C104.933 60.1219 104.941 60.2176 104.914 60.3065C104.888 60.3954 104.829 60.4709 104.749 60.5177C103.411 61.1864 102.014 61.7297 100.576 62.1407C100.543 62.1446 100.51 62.1446 100.477 62.1407V62.1534ZM79.5357 58.2459C79.4593 58.2445 79.3854 58.2186 79.3248 58.1719C78.1318 57.2693 77.0239 56.2592 76.015 55.154C75.9827 55.1188 75.9576 55.0775 75.9413 55.0326C75.9249 54.9877 75.9176 54.9399 75.9196 54.8922C75.9217 54.8444 75.9331 54.7975 75.9533 54.7541C75.9734 54.7107 76.0019 54.6718 76.0371 54.6395C76.0723 54.6071 76.1135 54.582 76.1583 54.5657C76.2032 54.5493 76.2508 54.5419 76.2985 54.544C76.3462 54.546 76.393 54.5575 76.4363 54.5777C76.4796 54.5979 76.5185 54.6264 76.5508 54.6616C77.5299 55.7345 78.6054 56.7149 79.7635 57.5907C79.8244 57.636 79.8695 57.6993 79.8926 57.7716C79.9157 57.844 79.9156 57.9217 79.8923 57.994C79.8691 58.0663 79.8238 58.1294 79.7629 58.1746C79.7019 58.2198 79.6284 58.2447 79.5526 58.2459H79.5357ZM108.333 58.2247C108.257 58.223 108.184 58.1979 108.124 58.1528C108.064 58.1077 108.019 58.045 107.996 57.9732C107.973 57.9015 107.972 57.8243 107.995 57.7523C108.017 57.6804 108.062 57.6173 108.122 57.5717C109.277 56.6938 110.351 55.7119 111.328 54.6384C111.36 54.603 111.399 54.5743 111.442 54.5539C111.485 54.5336 111.532 54.5219 111.58 54.5197C111.628 54.5174 111.675 54.5246 111.72 54.5408C111.765 54.557 111.806 54.5819 111.842 54.6141C111.877 54.6463 111.906 54.6851 111.926 54.7284C111.946 54.7717 111.958 54.8186 111.96 54.8664C111.963 54.9141 111.955 54.9619 111.939 55.0069C111.923 55.0519 111.898 55.0933 111.866 55.1287C110.856 56.2316 109.747 57.239 108.552 58.1381C108.489 58.1865 108.412 58.2125 108.333 58.212V58.2247ZM73.6122 51.7389C73.5503 51.7389 73.4894 51.7232 73.4352 51.6932C73.381 51.6633 73.3352 51.6201 73.3021 51.5677C72.5124 50.2941 71.8422 48.9499 71.3002 47.5524C71.2652 47.4624 71.2674 47.3622 71.3061 47.2739C71.3449 47.1855 71.4171 47.1161 71.5069 47.0811C71.5967 47.0461 71.6967 47.0482 71.785 47.0871C71.8732 47.1259 71.9424 47.1983 71.9773 47.2882C72.5033 48.6426 73.1537 49.945 73.9202 51.1789C73.9706 51.2608 73.9866 51.3594 73.9649 51.4532C73.9432 51.547 73.8854 51.6284 73.8042 51.6797C73.7471 51.7174 73.6805 51.7379 73.6122 51.7389ZM114.248 51.7093C114.183 51.7093 114.119 51.692 114.064 51.6591C114.008 51.6262 113.962 51.579 113.93 51.5223C113.899 51.4655 113.883 51.4015 113.885 51.3366C113.887 51.2718 113.905 51.2086 113.94 51.1535C114.704 49.9188 115.352 48.6156 115.876 47.2608C115.911 47.1708 115.98 47.0983 116.068 47.0593C116.156 47.0202 116.256 47.0178 116.346 47.0526C116.435 47.0873 116.508 47.1564 116.547 47.2446C116.586 47.3328 116.588 47.4328 116.553 47.5228C116.013 48.9201 115.345 50.2643 114.558 51.5381C114.525 51.5906 114.479 51.6337 114.425 51.6637C114.37 51.6936 114.31 51.7093 114.248 51.7093ZM70.4269 43.5413C70.3423 43.5413 70.2605 43.5117 70.1954 43.4577C70.1303 43.4037 70.0861 43.3286 70.0703 43.2454C69.7944 41.7729 69.6532 40.2782 69.6484 38.7799C69.6482 38.7321 69.6574 38.6847 69.6755 38.6405C69.6936 38.5963 69.7204 38.5561 69.7541 38.5223C69.7878 38.4885 69.828 38.4617 69.8721 38.4436C69.9163 38.4254 69.9636 38.4162 70.0113 38.4165C70.1075 38.4165 70.1998 38.4547 70.2679 38.5229C70.3359 38.5911 70.3741 38.6835 70.3741 38.7799C70.3757 40.2327 70.5105 41.6822 70.777 43.1102C70.7937 43.2048 70.7725 43.3022 70.718 43.3813C70.6635 43.4604 70.5802 43.5149 70.4859 43.5328C70.4665 43.5373 70.4467 43.5401 70.4269 43.5413ZM117.42 43.5075C117.368 43.5072 117.316 43.4956 117.268 43.4733C117.221 43.4511 117.178 43.4188 117.144 43.3787C117.11 43.3385 117.085 43.2915 117.071 43.2408C117.057 43.19 117.054 43.1368 117.062 43.0848C117.326 41.6559 117.459 40.2057 117.458 38.7525C117.457 38.6523 117.494 38.5556 117.562 38.4815C117.629 38.4075 117.722 38.3616 117.821 38.3531C117.867 38.349 117.913 38.3544 117.956 38.3689C118 38.3835 118.04 38.4068 118.074 38.4376C118.108 38.4683 118.135 38.5058 118.154 38.5476C118.173 38.5894 118.183 38.6347 118.184 38.6806V38.7165C118.186 40.2263 118.049 41.7331 117.777 43.218C117.76 43.2998 117.715 43.3732 117.65 43.4259C117.585 43.4786 117.504 43.5074 117.42 43.5075ZM70.4163 34.7456C70.3637 34.7453 70.3118 34.7337 70.2641 34.7114C70.2165 34.6892 70.1742 34.6569 70.1401 34.6168C70.106 34.5766 70.0811 34.5296 70.0668 34.4789C70.0526 34.4282 70.0495 34.375 70.0577 34.3229C70.3291 32.85 70.7359 31.4054 71.2728 30.0075C71.3121 29.9241 71.3816 29.8587 71.4671 29.8244C71.5526 29.7901 71.6479 29.7894 71.7338 29.8226C71.8198 29.8558 71.8901 29.9203 71.9305 30.0032C71.971 30.0861 71.9787 30.1812 71.952 30.2696C71.43 31.6253 71.0352 33.0269 70.7728 34.4561C70.7558 34.5381 70.711 34.6117 70.6461 34.6645C70.5811 34.7172 70.4999 34.7459 70.4163 34.7456ZM117.406 34.642C117.321 34.642 117.239 34.6121 117.174 34.5577C117.108 34.5032 117.064 34.4276 117.049 34.3441C116.781 32.9165 116.38 31.517 115.853 30.1639C115.818 30.0739 115.82 29.9737 115.859 29.8854C115.898 29.797 115.97 29.7276 116.06 29.6926C116.15 29.6576 116.25 29.6597 116.338 29.6986C116.426 29.7374 116.495 29.8098 116.53 29.8997C117.073 31.295 117.487 32.7375 117.766 34.2088C117.776 34.2616 117.774 34.316 117.761 34.368C117.748 34.42 117.723 34.4684 117.689 34.5098C117.654 34.5512 117.611 34.5845 117.563 34.6073C117.514 34.6302 117.461 34.642 117.408 34.642H117.406ZM73.5742 26.5374C73.5095 26.5374 73.4459 26.5201 73.3901 26.4872C73.3343 26.4543 73.2883 26.4071 73.2569 26.3503C73.2255 26.2936 73.2098 26.2295 73.2114 26.1647C73.2131 26.0999 73.232 26.0366 73.2663 25.9816C74.0521 24.7037 74.9538 23.501 75.9601 22.3889C76.025 22.3175 76.1156 22.2748 76.2119 22.2702C76.3082 22.2657 76.4024 22.2996 76.4738 22.3646C76.5451 22.4296 76.5877 22.5204 76.5923 22.6169C76.5968 22.7134 76.5629 22.8078 76.498 22.8792C75.522 23.9551 74.6471 25.1188 73.8843 26.3557C73.8525 26.41 73.8073 26.4553 73.753 26.4871C73.6987 26.519 73.6372 26.5363 73.5742 26.5374ZM114.212 26.4486C114.15 26.4492 114.089 26.4338 114.034 26.4038C113.98 26.3738 113.934 26.3303 113.902 26.2775C113.134 25.0444 112.255 23.8849 111.275 22.8137C111.243 22.7785 111.218 22.7372 111.202 22.6923C111.186 22.6475 111.179 22.5998 111.181 22.5521C111.183 22.5044 111.194 22.4576 111.215 22.4144C111.235 22.3712 111.263 22.3324 111.299 22.3002C111.334 22.268 111.375 22.243 111.42 22.2268C111.465 22.2105 111.512 22.2033 111.56 22.2054C111.607 22.2076 111.654 22.2191 111.697 22.2394C111.74 22.2596 111.779 22.2882 111.811 22.3234C112.822 23.4272 113.729 24.622 114.52 25.8928C114.545 25.9334 114.562 25.9785 114.57 26.0256C114.578 26.0727 114.576 26.1208 114.565 26.1673C114.555 26.2139 114.535 26.2578 114.507 26.2966C114.479 26.3355 114.444 26.3684 114.404 26.3937C114.346 26.4301 114.28 26.4491 114.212 26.4486ZM79.4809 20.0262C79.4056 20.0245 79.3327 19.9994 79.2724 19.9543C79.212 19.9093 79.1671 19.8465 79.144 19.7747C79.1208 19.703 79.1205 19.6258 79.143 19.5539C79.1656 19.4819 79.2099 19.4188 79.2699 19.3732C80.4596 18.4667 81.7307 17.6729 83.067 17.002C83.1097 16.9807 83.1561 16.9679 83.2037 16.9645C83.2513 16.9612 83.2991 16.9672 83.3443 16.9823C83.3896 16.9974 83.4314 17.0213 83.4674 17.0526C83.5035 17.0839 83.533 17.122 83.5543 17.1648C83.5757 17.2075 83.5884 17.254 83.5918 17.3017C83.5951 17.3494 83.5891 17.3972 83.574 17.4426C83.5589 17.4879 83.5351 17.5298 83.5038 17.5659C83.4726 17.602 83.4346 17.6316 83.3919 17.653C82.0958 18.3047 80.8622 19.0744 79.7066 19.9523C79.642 20.002 79.5623 20.0281 79.4809 20.0262ZM87.3303 16.0828C87.242 16.0838 87.1564 16.0525 87.0895 15.9948C87.0225 15.9371 86.9789 15.857 86.9667 15.7693C86.9546 15.6817 86.9747 15.5927 87.0234 15.5189C87.0721 15.4451 87.146 15.3916 87.2312 15.3684C88.6687 14.9571 90.1411 14.6798 91.6295 14.54C91.6771 14.5351 91.7252 14.5396 91.771 14.5535C91.8168 14.5673 91.8594 14.5902 91.8963 14.6206C91.9332 14.6511 91.9637 14.6886 91.986 14.731C92.0082 14.7734 92.0219 14.8199 92.0261 14.8676C92.0349 14.964 92.0052 15.0599 91.9435 15.1344C91.8819 15.2088 91.7932 15.2558 91.697 15.2649C90.2536 15.4005 88.8257 15.6693 87.4316 16.068C87.3988 16.078 87.3647 16.083 87.3303 16.0828Z" fill="white" stroke="black" stroke-width="0.75" stroke-miterlimit="10"/>
<path d="M325.865 12.7985H312.773V10.6852L319.313 7.25732L325.852 10.6852L325.865 12.7985ZM312.894 12.6801H325.751V10.7655L319.323 7.40104L312.898 10.7655L312.894 12.6801Z" fill="#637B71" stroke="#637B71" stroke-miterlimit="10"/>
<path d="M325.115 12.0438H313.531V11.1519L319.322 8.11719L325.115 11.1519V12.0438ZM313.649 11.9233H324.996V11.2217L319.316 8.26301L313.643 11.2217L313.649 11.9233Z" fill="#637B71" stroke="#637B71" stroke-miterlimit="10"/>
<path d="M316.097 13.9819H313.602V12.7012H316.097V13.9819ZM313.728 13.8635H315.987V12.8216H313.728V13.8635Z" fill="#637B71" stroke="#637B71" stroke-miterlimit="10"/>
<path d="M315.597 19.3753H314.102V13.8638H315.597V19.3753ZM314.222 19.257H315.487V13.9737H314.222V19.257Z" fill="#637B71" stroke="#637B71" stroke-miterlimit="10"/>
<path d="M325.393 20.6155H313.109V19.2524H325.393V20.6155ZM313.228 20.4972H325.275V19.375H313.228V20.4972Z" fill="#637B71" stroke="#637B71" stroke-miterlimit="10"/>
<path d="M324.99 13.9819H322.492V12.7012H324.99V13.9819ZM322.61 13.8635H324.872V12.8216H322.61V13.8635Z" fill="#637B71" stroke="#637B71" stroke-miterlimit="10"/>
<path d="M324.486 19.3753H322.992V13.8638H324.486V19.3753ZM323.11 19.257H324.376V13.9737H323.11V19.257Z" fill="#637B71" stroke="#637B71" stroke-miterlimit="10"/>
<path d="M319.483 18.572H318.987V17.9613C318.669 17.9529 318.359 17.858 318.091 17.6865L318.055 17.6612L318.238 17.1434L318.301 17.1857C318.553 17.349 318.846 17.4356 319.145 17.435C319.533 17.435 319.803 17.2237 319.803 16.9046C319.803 16.5855 319.616 16.427 319.171 16.241C318.637 16.0297 318.141 15.7528 318.141 15.1442C318.144 14.8926 318.237 14.6506 318.405 14.4629C318.572 14.2752 318.801 14.1546 319.05 14.1234V13.5063H319.54V14.0939C319.804 14.102 320.063 14.1745 320.293 14.3052L320.337 14.3306L320.143 14.8399L320.054 14.8145C319.834 14.6834 319.583 14.6154 319.327 14.618C318.905 14.618 318.747 14.8652 318.747 15.0766C318.747 15.3386 318.907 15.4802 319.458 15.7106C320.135 15.9874 320.426 16.334 320.426 16.8687C320.421 17.1319 320.323 17.3848 320.148 17.5817C319.974 17.7786 319.735 17.9065 319.474 17.9422L319.483 18.572ZM319.105 18.4537H319.365V17.8366H319.415C319.657 17.8139 319.883 17.7031 320.049 17.5251C320.215 17.3471 320.31 17.1143 320.316 16.8708C320.316 16.3868 320.057 16.0825 319.42 15.8141C318.89 15.6028 318.637 15.4274 318.637 15.0723C318.637 14.7849 318.848 14.4954 319.335 14.4954C319.588 14.492 319.838 14.5531 320.061 14.6729L320.168 14.3876C319.949 14.2734 319.705 14.2126 319.458 14.2101H319.401V13.6268H319.147V14.227H319.097C318.576 14.3115 318.238 14.6687 318.238 15.1378C318.238 15.607 318.506 15.8543 319.194 16.1248C319.696 16.3361 319.911 16.5601 319.911 16.8982C319.911 17.2808 319.593 17.547 319.135 17.547C318.838 17.5465 318.547 17.4678 318.291 17.3188L318.188 17.6083C318.445 17.7544 318.735 17.8336 319.031 17.8387H319.09L319.105 18.4537Z" fill="#637B71" stroke="#637B71" stroke-miterlimit="10"/>
<path d="M289.66 242.558V241.886C289.299 241.885 288.946 241.783 288.641 241.592L288.801 241.146C289.087 241.33 289.419 241.429 289.759 241.432C290.231 241.432 290.552 241.159 290.552 240.779C290.552 240.398 290.292 240.185 289.799 239.986C289.122 239.718 288.702 239.411 288.702 238.832C288.702 238.253 289.094 237.858 289.706 237.759V237.084H290.128V237.731C290.431 237.734 290.729 237.815 290.993 237.966L290.826 238.405C290.571 238.253 290.279 238.175 289.982 238.179C289.472 238.179 289.278 238.486 289.278 238.752C289.278 239.098 289.525 239.272 290.103 239.513C290.788 239.792 291.134 240.147 291.134 240.732C291.134 241.258 290.769 241.753 290.079 241.865V242.558H289.66Z" fill="#29483B" stroke="#637B71" stroke-miterlimit="10"/>
<path d="M289.872 243.849C289.067 243.849 288.281 243.609 287.612 243.161C286.943 242.713 286.422 242.076 286.114 241.331C285.806 240.586 285.726 239.766 285.883 238.976C286.04 238.185 286.428 237.459 286.997 236.889C287.566 236.319 288.292 235.931 289.081 235.774C289.87 235.617 290.688 235.698 291.432 236.006C292.175 236.315 292.81 236.837 293.258 237.508C293.705 238.178 293.943 238.966 293.943 239.772C293.942 240.854 293.513 241.89 292.749 242.655C291.986 243.419 290.951 243.848 289.872 243.849ZM289.872 235.878C289.103 235.878 288.351 236.106 287.712 236.534C287.073 236.962 286.574 237.57 286.28 238.282C285.986 238.994 285.909 239.777 286.059 240.532C286.209 241.288 286.579 241.982 287.123 242.527C287.666 243.071 288.359 243.442 289.113 243.592C289.868 243.743 290.649 243.666 291.36 243.371C292.07 243.076 292.677 242.577 293.104 241.936C293.532 241.296 293.76 240.543 293.76 239.772C293.76 239.26 293.66 238.753 293.465 238.28C293.27 237.807 292.984 237.377 292.623 237.014C292.262 236.652 291.833 236.364 291.361 236.168C290.889 235.971 290.383 235.87 289.872 235.869V235.878Z" fill="#29483B" stroke="#637B71" stroke-miterlimit="10"/>
<path d="M212.714 249.841H197.281V241.503H212.717L212.714 249.841ZM197.461 249.659H212.531V241.685H197.461V249.659Z" fill="#29483B" stroke="#637B71" stroke-miterlimit="10"/>
<path d="M209.871 248.683H200.129V248.592C200.129 248.167 199.96 247.76 199.66 247.46C199.361 247.159 198.954 246.99 198.53 246.99H198.438V244.357H198.53C198.954 244.355 199.361 244.186 199.661 243.885C199.96 243.585 200.129 243.177 200.129 242.752V242.662H209.871V242.752C209.872 243.178 210.041 243.585 210.341 243.885C210.641 244.186 211.048 244.355 211.472 244.357H211.563V246.99H211.472C211.048 246.99 210.641 247.159 210.341 247.459C210.041 247.76 209.872 248.167 209.871 248.592V248.683ZM200.309 248.501H209.692C209.715 248.06 209.9 247.643 210.212 247.331C210.524 247.019 210.939 246.833 211.379 246.81V244.534C210.939 244.511 210.524 244.325 210.212 244.013C209.9 243.701 209.715 243.284 209.692 242.843H200.309C200.285 243.284 200.1 243.701 199.788 244.013C199.477 244.325 199.061 244.511 198.621 244.534V246.806C199.062 246.829 199.478 247.016 199.79 247.329C200.101 247.642 200.286 248.059 200.309 248.501Z" fill="#29483B" stroke="#637B71" stroke-miterlimit="10"/>
<path d="M206.096 247.042H203.902C203.539 247.042 203.19 246.898 202.933 246.64C202.676 246.382 202.531 246.033 202.531 245.669C202.531 245.304 202.676 244.955 202.933 244.697C203.19 244.44 203.539 244.295 203.902 244.295H206.096C206.46 244.295 206.809 244.44 207.066 244.697C207.323 244.955 207.468 245.304 207.468 245.669C207.468 246.033 207.323 246.382 207.066 246.64C206.809 246.898 206.46 247.042 206.096 247.042ZM203.902 244.483C203.596 244.496 203.307 244.627 203.095 244.848C202.883 245.07 202.765 245.365 202.765 245.672C202.765 245.979 202.883 246.274 203.095 246.495C203.307 246.717 203.596 246.848 203.902 246.861H206.096C206.402 246.848 206.692 246.717 206.904 246.495C207.116 246.274 207.234 245.979 207.234 245.672C207.234 245.365 207.116 245.07 206.904 244.848C206.692 244.627 206.402 244.496 206.096 244.483H203.902Z" fill="#29483B" stroke="#637B71" stroke-miterlimit="10"/>
<path d="M200.571 246.624C200.382 246.624 200.198 246.569 200.041 246.464C199.885 246.36 199.762 246.211 199.69 246.037C199.618 245.862 199.599 245.671 199.635 245.485C199.672 245.3 199.763 245.13 199.896 244.997C200.029 244.864 200.199 244.773 200.384 244.736C200.568 244.699 200.76 244.718 200.934 244.791C201.108 244.863 201.256 244.986 201.361 245.143C201.465 245.3 201.52 245.484 201.52 245.673C201.519 245.925 201.419 246.167 201.241 246.345C201.063 246.523 200.822 246.623 200.571 246.624ZM200.571 244.902C200.418 244.901 200.269 244.946 200.142 245.031C200.015 245.115 199.916 245.235 199.858 245.376C199.799 245.517 199.784 245.672 199.813 245.822C199.843 245.972 199.916 246.11 200.023 246.218C200.131 246.326 200.268 246.399 200.418 246.429C200.567 246.459 200.722 246.444 200.863 246.386C201.004 246.328 201.124 246.229 201.209 246.102C201.293 245.975 201.339 245.826 201.339 245.673C201.339 245.469 201.258 245.273 201.114 245.128C200.97 244.984 200.775 244.902 200.571 244.902Z" fill="#29483B" stroke="#637B71" stroke-miterlimit="10"/>
<path d="M209.358 246.624C209.169 246.624 208.985 246.568 208.829 246.463C208.672 246.358 208.55 246.209 208.478 246.035C208.407 245.861 208.388 245.669 208.425 245.484C208.462 245.299 208.552 245.129 208.686 244.996C208.819 244.863 208.989 244.772 209.173 244.736C209.358 244.699 209.549 244.718 209.723 244.791C209.897 244.863 210.045 244.986 210.15 245.143C210.254 245.3 210.309 245.484 210.309 245.673C210.308 245.925 210.208 246.167 210.03 246.346C209.851 246.524 209.61 246.624 209.358 246.624ZM209.358 244.902C209.205 244.901 209.056 244.946 208.929 245.031C208.802 245.115 208.703 245.235 208.645 245.376C208.586 245.517 208.571 245.672 208.6 245.822C208.63 245.972 208.703 246.11 208.81 246.218C208.918 246.326 209.055 246.399 209.205 246.429C209.354 246.459 209.509 246.444 209.65 246.386C209.791 246.328 209.911 246.229 209.996 246.102C210.08 245.975 210.125 245.826 210.126 245.673C210.126 245.469 210.045 245.273 209.901 245.128C209.757 244.984 209.561 244.902 209.358 244.902Z" fill="#29483B" stroke="#637B71" stroke-miterlimit="10"/>
<path d="M409.495 13.4726L409.459 13.388C409.21 12.8207 408.834 12.3179 408.361 11.9183C407.888 11.5187 407.33 11.2328 406.729 11.0824L406.641 11.0612L407.358 8.26318L407.444 8.28432C408.467 8.54438 409.416 9.03373 410.222 9.71542C411.028 10.3971 411.669 11.2533 412.096 12.2193L412.132 12.3018L409.495 13.4726ZM406.862 10.9366C407.456 11.0996 408.007 11.3901 408.478 11.7878C408.949 12.1856 409.327 12.6811 409.588 13.2401L411.891 12.2172C411.476 11.3105 410.866 10.5067 410.105 9.86305C409.344 9.21942 408.451 8.75182 407.489 8.49354L406.862 10.9366Z" fill="#29483B" stroke="#637B71" stroke-miterlimit="10"/>
<path d="M404.248 23.3356C403.266 23.3391 402.294 23.1329 401.397 22.7307C400.5 22.3286 399.699 21.7397 399.047 21.0033C398.395 20.267 397.907 19.3999 397.616 18.4599C397.325 17.5199 397.236 16.5285 397.357 15.5517C397.478 14.5749 397.805 13.6351 398.317 12.7947C398.828 11.9544 399.513 11.2328 400.324 10.6781C401.136 10.1233 402.056 9.74805 403.023 9.57729C403.991 9.40652 404.984 9.44415 405.936 9.68768L406.024 9.70882L405.309 12.5048L405.221 12.4836C404.903 12.4042 404.577 12.363 404.25 12.3611C403.641 12.3599 403.04 12.4968 402.492 12.7615C401.943 13.0262 401.461 13.4119 401.083 13.8896C400.704 14.3673 400.438 14.9247 400.305 15.5199C400.172 16.1152 400.175 16.7329 400.314 17.3268C400.453 17.9207 400.724 18.4754 401.108 18.9493C401.491 19.4232 401.976 19.8041 402.528 20.0633C403.079 20.3226 403.681 20.4536 404.29 20.4464C404.899 20.4392 405.498 20.2941 406.043 20.0219L406.124 19.9817L407.444 22.5473L407.362 22.5896C406.397 23.0812 405.33 23.3368 404.248 23.3356ZM404.248 9.65387C402.461 9.65387 400.747 10.365 399.484 11.6309C398.22 12.8968 397.51 14.6137 397.51 16.4039C397.51 18.1941 398.22 19.9109 399.484 21.1768C400.747 22.4427 402.461 23.1538 404.248 23.1538C405.272 23.1559 406.283 22.9208 407.202 22.467L406.046 20.2227C405.485 20.4898 404.873 20.6284 404.252 20.6284C403.133 20.6284 402.06 20.1831 401.269 19.3905C400.478 18.5978 400.033 17.5227 400.033 16.4017C400.033 15.2808 400.478 14.2057 401.269 13.413C402.06 12.6204 403.133 12.1751 404.252 12.1751C404.564 12.176 404.875 12.2122 405.179 12.2829L405.811 9.83773C405.299 9.7156 404.775 9.65389 404.248 9.65387Z" fill="#29483B" stroke="#637B71" stroke-miterlimit="10"/>
<path d="M407.903 22.2871L406.336 19.8695L406.414 19.8188C407.231 19.3052 407.836 18.5148 408.12 17.5917C408.404 16.6685 408.347 15.6739 407.96 14.789L407.924 14.7066L410.555 13.5464L410.591 13.6309C411.256 15.1427 411.359 16.8434 410.88 18.4245C410.402 20.0057 409.373 21.3626 407.981 22.2491L407.903 22.2871ZM406.579 19.9223L407.958 22.0356C409.274 21.1698 410.245 19.8691 410.702 18.36C411.159 16.851 411.073 15.2291 410.46 13.7767L408.154 14.7996C408.526 15.704 408.572 16.7097 408.284 17.6443C407.997 18.5789 407.394 19.3843 406.579 19.9223Z" fill="#29483B" stroke="#637B71" stroke-miterlimit="10"/>
<path d="M114.5 20.3368H112.602V14.3096H114.5V20.3368ZM112.794 20.1529H114.319V14.4913H112.794V20.1529Z" fill="#29483B" stroke="#637B71" stroke-miterlimit="10"/>
<path d="M111.594 20.3369H109.695V12.1963H111.594V20.3369ZM109.885 20.153H111.41V12.378H109.885V20.153Z" fill="#29483B" stroke="#637B71" stroke-miterlimit="10"/>
<path d="M100.984 14.3096H102.883V20.3368H100.984V14.3096ZM102.691 14.4913H101.166V20.1529H102.691V14.4913Z" fill="#29483B" stroke="#637B71" stroke-miterlimit="10"/>
<path d="M103.891 12.1963H105.789V20.3369H103.891V12.1963ZM105.599 12.378H104.074V20.153H105.599V12.378Z" fill="#29483B" stroke="#637B71" stroke-miterlimit="10"/>
<path d="M108.68 20.3368H106.781V9.98145H108.68V20.3368ZM106.971 20.1529H108.498V10.1653H106.971V20.1529Z" fill="#29483B" stroke="#637B71" stroke-miterlimit="10"/>
<path d="M107.721 8.61621H107.746L114.043 11.1755C114.065 11.1847 114.083 11.2025 114.092 11.2249C114.101 11.2473 114.102 11.2724 114.092 11.2949C114.083 11.3173 114.065 11.3351 114.043 11.3444C114.021 11.3537 113.995 11.3538 113.973 11.3445L107.712 8.80852L100.924 11.5981C100.901 11.6073 100.876 11.6074 100.854 11.5983C100.831 11.5893 100.813 11.5717 100.803 11.5495C100.799 11.5384 100.797 11.5265 100.797 11.5146C100.797 11.5026 100.8 11.4908 100.804 11.4798C100.809 11.4688 100.816 11.4589 100.824 11.4505C100.833 11.4422 100.843 11.4356 100.854 11.4312L107.676 8.62466L107.721 8.61621Z" fill="#29483B" stroke="#637B71" stroke-miterlimit="10"/>
<path d="M112.736 11.6447C112.734 11.6335 112.734 11.622 112.736 11.6108C112.736 11.5987 112.738 11.5867 112.743 11.5756C112.748 11.5644 112.754 11.5543 112.763 11.5458C112.772 11.5374 112.782 11.5307 112.793 11.5263C112.805 11.5218 112.817 11.5197 112.829 11.52H114.347L113.744 10.0871C113.74 10.076 113.737 10.0642 113.738 10.0522C113.738 10.0402 113.74 10.0284 113.745 10.0174C113.75 10.0064 113.756 9.99646 113.765 9.98812C113.774 9.97977 113.784 9.9732 113.795 9.96878C113.817 9.95964 113.842 9.95963 113.864 9.96873C113.886 9.97783 113.904 9.99531 113.913 10.0174L114.558 11.5876C114.566 11.6009 114.569 11.6158 114.569 11.6309C114.569 11.646 114.566 11.6609 114.558 11.6742C114.55 11.6868 114.539 11.6971 114.526 11.7042C114.512 11.7112 114.498 11.7147 114.483 11.7144H112.827C112.806 11.7154 112.785 11.7089 112.768 11.6961C112.752 11.6834 112.74 11.6651 112.736 11.6447Z" fill="#29483B" stroke="#637B71" stroke-miterlimit="10"/>
<path d="M403.735 32.127V227.467C403.735 227.831 403.664 228.192 403.525 228.529C403.386 228.866 403.182 229.172 402.925 229.43C402.667 229.688 402.362 229.893 402.026 230.032C401.69 230.172 401.329 230.244 400.965 230.244H275.502V276.035H316.948L342.92 281.741V288.943H160.207V281.779L186.179 276.046H227.623V230.244H102.162C101.428 230.241 100.725 229.948 100.207 229.427C99.6893 228.907 99.3984 228.202 99.3984 227.467V32.127C99.3984 31.3905 99.6905 30.6842 100.21 30.1634C100.73 29.6427 101.435 29.3501 102.17 29.3501H400.965C401.329 29.3501 401.69 29.4219 402.026 29.5615C402.362 29.7011 402.667 29.9057 402.925 30.1636C403.182 30.4214 403.386 30.7276 403.525 31.0645C403.664 31.4014 403.735 31.7624 403.735 32.127Z" stroke="#637B71" stroke-miterlimit="10"/>
<g opacity="0.37">
<path d="M400.855 32.2412H102.281V218.679H400.855V32.2412Z" fill="#637B71" stroke="#637B71" stroke-miterlimit="10"/>
</g>
<g opacity="0.17">
<path d="M398.255 34.8428H104.875V216.076H398.255V34.8428Z" stroke="#637B71" stroke-miterlimit="10"/>
</g>
<path d="M389.016 206.826V44.0947L114.104 44.0947V206.826L389.016 206.826Z" fill="white" stroke="#637B71" stroke-width="0.75" stroke-miterlimit="10"/>
<path d="M316.605 119.976C317.802 115.169 320.783 110.999 324.941 108.315C329.099 105.632 334.122 104.638 338.987 105.534L342.412 92.9552C338.234 92.0425 333.917 91.9663 329.709 92.7309C325.501 93.4956 321.485 95.086 317.893 97.4107C314.301 99.7355 311.203 102.749 308.777 106.277C306.351 109.806 304.645 113.78 303.758 117.971L316.605 119.976Z" fill="white" stroke="black" stroke-width="0.75" stroke-miterlimit="10"/>
<path d="M345.702 93.853L342.289 106.427C346.17 107.876 349.488 110.527 351.763 113.994C354.037 117.461 355.15 121.565 354.938 125.708C354.726 129.852 353.202 133.82 350.586 137.036C347.97 140.252 344.399 142.55 340.391 143.595L342.576 156.435C349.503 154.884 355.731 151.1 360.306 145.664C364.881 140.227 367.55 133.438 367.905 126.336C368.26 119.234 366.281 112.211 362.27 106.344C358.26 100.477 352.44 96.0894 345.702 93.853Z" fill="white" stroke="black" stroke-width="0.75" stroke-miterlimit="10"/>
<path d="M337.008 144.151C336.509 144.191 336.004 144.216 335.496 144.216C332.939 144.216 330.407 143.712 328.044 142.732C325.682 141.752 323.536 140.315 321.727 138.503C319.919 136.692 318.485 134.542 317.507 132.175C316.528 129.808 316.025 127.272 316.025 124.71C316.025 124.253 316.046 123.803 316.078 123.355L303.21 121.348C303.097 122.465 303.039 123.587 303.039 124.71C303.039 133.332 306.458 141.601 312.544 147.698C318.629 153.794 326.883 157.219 335.49 157.219C336.726 157.218 337.961 157.148 339.19 157.008L337.008 144.151Z" fill="white" stroke="black" stroke-width="0.75" stroke-miterlimit="10"/>
<path d="M330.542 98.3968C330.482 98.3971 330.424 98.3855 330.369 98.3626C330.314 98.3398 330.265 98.3061 330.223 98.2637C330.14 98.1791 330.094 98.0653 330.094 97.9467C330.094 97.8281 330.14 97.7143 330.223 97.6297L343.498 84.3305C343.54 84.2884 343.59 84.2549 343.644 84.2321C343.699 84.2092 343.758 84.1974 343.817 84.1973H367.865C367.927 84.1931 367.99 84.2017 368.048 84.2225C368.107 84.2434 368.16 84.2761 368.206 84.3186C368.251 84.3611 368.287 84.4125 368.312 84.4696C368.337 84.5268 368.35 84.5884 368.35 84.6507C368.35 84.7129 368.337 84.7745 368.312 84.8317C368.287 84.8888 368.251 84.9402 368.206 84.9827C368.16 85.0252 368.107 85.0579 368.048 85.0788C367.99 85.0996 367.927 85.1082 367.865 85.104H344.005L330.862 98.27C330.776 98.3531 330.661 98.3987 330.542 98.3968Z" fill="#637B71" stroke="#637B71" stroke-miterlimit="10"/>
<path d="M294.767 146.097H270.719C270.657 146.101 270.595 146.092 270.536 146.072C270.477 146.051 270.424 146.018 270.378 145.976C270.333 145.933 270.297 145.882 270.272 145.824C270.247 145.767 270.234 145.706 270.234 145.643C270.234 145.581 270.247 145.52 270.272 145.462C270.297 145.405 270.333 145.354 270.378 145.311C270.424 145.269 270.477 145.236 270.536 145.215C270.595 145.194 270.657 145.186 270.719 145.19H294.584L307.726 132.024C307.765 131.973 307.815 131.931 307.871 131.9C307.928 131.87 307.99 131.852 308.055 131.848C308.119 131.843 308.183 131.853 308.243 131.876C308.304 131.898 308.358 131.934 308.404 131.979C308.449 132.025 308.484 132.079 308.507 132.14C308.53 132.2 308.539 132.265 308.535 132.329C308.531 132.393 308.513 132.456 308.482 132.513C308.452 132.569 308.41 132.619 308.359 132.658L295.084 145.957C295.043 146 294.994 146.035 294.939 146.059C294.885 146.083 294.827 146.096 294.767 146.097Z" fill="#637B71" stroke="#637B71" stroke-miterlimit="10"/>
<path d="M362.753 130.67C362.693 130.67 362.635 130.658 362.58 130.636C362.525 130.613 362.476 130.579 362.434 130.537C362.351 130.452 362.305 130.338 362.305 130.22C362.305 130.101 362.351 129.987 362.434 129.903L375.709 116.603C375.751 116.561 375.8 116.527 375.855 116.504C375.91 116.481 375.969 116.47 376.028 116.47H400.076C400.138 116.466 400.2 116.475 400.259 116.495C400.318 116.516 400.371 116.549 400.417 116.592C400.462 116.634 400.498 116.685 400.523 116.743C400.548 116.8 400.561 116.861 400.561 116.924C400.561 116.986 400.548 117.047 400.523 117.105C400.498 117.162 400.462 117.213 400.417 117.256C400.371 117.298 400.318 117.331 400.259 117.352C400.2 117.373 400.138 117.381 400.076 117.377H376.216L363.073 130.543C362.987 130.626 362.872 130.672 362.753 130.67Z" fill="#637B71" stroke="#637B71" stroke-miterlimit="10"/>
<path d="M272.574 139.888C273.116 140.208 273.731 140.383 274.359 140.395C275.76 140.395 276.192 139.501 276.18 138.831C276.167 137.703 275.152 137.219 274.098 137.219H273.492V136.399H274.098C274.891 136.399 275.895 135.989 275.895 135.034C275.895 134.387 275.486 133.816 274.484 133.816C273.906 133.833 273.345 134.019 272.872 134.351L272.587 133.556C273.214 133.147 273.948 132.931 274.697 132.935C276.283 132.935 277.002 133.878 277.002 134.858C277.002 135.691 276.507 136.399 275.515 136.76V136.786C276.507 136.984 277.312 137.728 277.312 138.859C277.312 140.15 276.308 141.279 274.376 141.279C273.642 141.288 272.918 141.1 272.281 140.733L272.574 139.888Z" fill="white" stroke="#637B71" stroke-width="0.75" stroke-miterlimit="10"/>
<path d="M284.028 137.02C284.028 139.767 283.011 141.276 281.227 141.276C279.653 141.276 278.588 139.797 278.562 137.13C278.562 134.425 279.727 132.935 281.364 132.935C283.06 132.935 284.028 134.45 284.028 137.02ZM279.653 137.143C279.653 139.241 280.286 140.433 281.288 140.433C282.404 140.433 282.938 139.129 282.938 137.069C282.938 135.082 282.429 133.778 281.301 133.778C280.347 133.778 279.653 134.947 279.653 137.143Z" fill="white" stroke="#637B71" stroke-width="0.75" stroke-miterlimit="10"/>
<path d="M288.66 135.344C288.66 137.035 287.768 137.88 286.728 137.88C285.724 137.88 284.857 137.073 284.844 135.446C284.831 133.819 285.724 132.927 286.789 132.927C287.917 132.935 288.66 133.795 288.66 135.344ZM285.707 135.418C285.683 136.448 286.067 137.23 286.749 137.23C287.466 137.23 287.789 136.46 287.789 135.393C287.789 134.412 287.504 133.592 286.749 133.592C286.072 133.584 285.711 134.4 285.711 135.418H285.707ZM286.65 141.277L291.383 132.935H292.077L287.344 141.277H286.65ZM293.898 138.683C293.898 140.374 293.006 141.219 291.978 141.219C290.951 141.219 290.107 140.412 290.094 138.798C290.082 137.183 290.974 136.262 292.039 136.262C293.172 136.274 293.9 137.143 293.9 138.683H293.898ZM290.945 138.757C290.932 139.789 291.329 140.571 291.999 140.571C292.719 140.571 293.041 139.799 293.041 138.732C293.041 137.751 292.757 136.932 291.999 136.932C291.324 136.932 290.947 137.739 290.947 138.757H290.945Z" fill="white" stroke="#637B71" stroke-width="0.75" stroke-miterlimit="10"/>
<path d="M345.477 81.0888V80.4188L346.32 79.5883C348.377 77.625 349.307 76.5831 349.32 75.3616C349.32 74.5438 348.924 73.7851 347.721 73.7851C347.089 73.8083 346.485 74.0494 346.01 74.4677L345.664 73.6984C346.304 73.1646 347.112 72.8742 347.945 72.8785C349.679 72.8785 350.411 74.0704 350.411 75.2264C350.411 76.7057 349.333 77.9188 347.635 79.5587L346.989 80.1547V80.18H350.609V81.0845L345.477 81.0888Z" fill="white" stroke="#637B71" stroke-width="0.75" stroke-miterlimit="10"/>
<path d="M357.184 76.9679C357.184 79.7152 356.168 81.2262 354.383 81.2262C352.809 81.2262 351.744 79.7469 351.719 77.0799C351.719 74.3727 352.883 72.8828 354.52 72.8828C356.22 72.8828 357.184 74.3981 357.184 76.9679ZM352.809 77.0926C352.809 79.1911 353.455 80.3809 354.446 80.3809C355.56 80.3809 356.094 79.0791 356.094 77.0186C356.094 75.0321 355.585 73.7281 354.459 73.7281C353.506 73.7281 352.811 74.8947 352.811 77.0926H352.809Z" fill="white" stroke="#637B71" stroke-width="0.75" stroke-miterlimit="10"/>
<path d="M361.826 75.2917C361.826 76.9929 360.934 77.8277 359.892 77.8277C358.888 77.8277 358.021 77.0204 358.008 75.3952C357.995 73.7701 358.888 72.874 359.955 72.874C361.077 72.8825 361.826 73.7532 361.826 75.2917ZM358.873 75.3657C358.848 76.397 359.231 77.1789 359.913 77.1789C360.632 77.1789 360.953 76.4096 360.953 75.3403C360.953 74.3597 360.668 73.5418 359.913 73.5418C359.231 73.5418 358.873 74.3491 358.873 75.3657ZM359.814 81.2259L364.547 72.8825H365.241L360.508 81.2259H359.814ZM367.064 78.6371C367.064 80.3278 366.172 81.1731 365.142 81.1731C364.113 81.1731 363.271 80.3679 363.259 78.7533C363.246 77.1387 364.138 76.2173 365.203 76.2173C366.332 76.2237 367.064 77.0922 367.064 78.6371ZM364.111 78.711C364.1 79.7424 364.497 80.5243 365.166 80.5243C365.883 80.5243 366.205 79.755 366.205 78.6878C366.205 77.7072 365.921 76.8872 365.166 76.8872C364.486 76.8809 364.113 77.6882 364.113 78.7047L364.111 78.711Z" fill="white" stroke="#637B71" stroke-width="0.75" stroke-miterlimit="10"/>
<path d="M382.142 106.567H379.069L378.761 108.64C378.978 108.607 379.197 108.591 379.417 108.592C380.022 108.575 380.621 108.721 381.151 109.014C381.513 109.223 381.812 109.525 382.015 109.891C382.218 110.256 382.318 110.67 382.305 111.088C382.305 112.664 381.052 113.835 379.305 113.835C378.604 113.851 377.911 113.679 377.297 113.338L377.571 112.506C378.099 112.796 378.691 112.949 379.292 112.952C380.322 112.952 381.202 112.282 381.202 111.202C381.189 110.16 380.495 109.414 378.881 109.414C378.508 109.418 378.136 109.447 377.767 109.501L378.286 105.629H382.14L382.142 106.567Z" fill="white" stroke="#637B71" stroke-width="0.75" stroke-miterlimit="10"/>
<path d="M389.036 109.598C389.036 112.345 388.019 113.856 386.235 113.856C384.661 113.856 383.596 112.377 383.57 109.708C383.57 107.003 384.737 105.513 386.372 105.513C388.078 105.513 389.036 107.028 389.036 109.598ZM384.661 109.72C384.661 111.819 385.306 113.011 386.298 113.011C387.412 113.011 387.945 111.707 387.945 109.646C387.945 107.66 387.437 106.356 386.311 106.356C385.363 106.356 384.669 107.525 384.669 109.72H384.661Z" fill="white" stroke="#637B71" stroke-width="0.75" stroke-miterlimit="10"/>
<path d="M393.676 107.922C393.676 109.612 392.783 110.458 391.741 110.458C390.739 110.458 389.87 109.65 389.859 108.023C389.849 106.396 390.739 105.504 391.804 105.504C392.933 105.512 393.676 106.381 393.676 107.922ZM390.722 107.996C390.697 109.025 391.081 109.807 391.762 109.807C392.482 109.807 392.804 109.037 392.804 107.97C392.804 106.99 392.52 106.17 391.762 106.17C391.087 106.17 390.722 106.977 390.722 107.996ZM391.663 113.856L396.397 105.512H397.091L392.357 113.856H391.663ZM398.914 111.261C398.914 112.951 398.021 113.797 396.992 113.797C395.962 113.797 395.121 112.989 395.108 111.375C395.095 109.76 395.988 108.839 397.055 108.839C398.188 108.858 398.92 109.72 398.92 111.261H398.914ZM395.96 111.335C395.948 112.366 396.344 113.148 397.015 113.148C397.734 113.148 398.055 112.376 398.055 111.309C398.055 110.329 397.77 109.509 397.015 109.509C396.342 109.509 395.971 110.316 395.971 111.335H395.96Z" fill="white" stroke="#637B71" stroke-width="0.75" stroke-miterlimit="10"/>
<g style="mix-blend-mode:multiply">
<path d="M259.476 66.063H125.594V132.817H259.476V66.063Z" fill="white" stroke="black" stroke-width="0.75" stroke-miterlimit="10"/>
</g>
<path d="M142.659 106.548H131.555V130.653H142.659V106.548Z" fill="white" stroke="black" stroke-width="0.75" stroke-miterlimit="10"/>
<path d="M159.214 95.5249H148.109V130.653H159.214V95.5249Z" fill="white" stroke="black" stroke-width="0.75" stroke-miterlimit="10"/>
<path d="M175.769 88.314H164.664V130.652H175.769V88.314Z" fill="white" stroke="black" stroke-width="0.75" stroke-miterlimit="10"/>
<path d="M195.792 83.6797H187.977V91.5096H195.792V83.6797Z" fill="white" stroke="black" stroke-width="0.75" stroke-miterlimit="10"/>
<path d="M240.989 85.9453H203.241C202.534 85.9453 201.961 86.5196 201.961 87.2281V89.8127C201.961 90.5212 202.534 91.0955 203.241 91.0955H240.989C241.696 91.0955 242.269 90.5212 242.269 89.8127V87.2281C242.269 86.5196 241.696 85.9453 240.989 85.9453Z" fill="white" stroke="black" stroke-width="0.75" stroke-miterlimit="10"/>
<path d="M195.792 100.265H187.977V108.095H195.792V100.265Z" fill="white" stroke="black" stroke-width="0.75" stroke-miterlimit="10"/>
<path d="M240.989 102.531H203.241C202.534 102.531 201.961 103.105 201.961 103.814V106.398C201.961 107.107 202.534 107.681 203.241 107.681H240.989C241.696 107.681 242.269 107.107 242.269 106.398V103.814C242.269 103.105 241.696 102.531 240.989 102.531Z" fill="white" stroke="black" stroke-width="0.75" stroke-miterlimit="10"/>
<path d="M195.792 116.851H187.977V124.68H195.792V116.851Z" fill="white" stroke="black" stroke-width="0.75" stroke-miterlimit="10"/>
<path d="M240.989 119.116H203.241C202.534 119.116 201.961 119.691 201.961 120.399V122.984C201.961 123.692 202.534 124.266 203.241 124.266H240.989C241.696 124.266 242.269 123.692 242.269 122.984V120.399C242.269 119.691 241.696 119.116 240.989 119.116Z" fill="white" stroke="black" stroke-width="0.75" stroke-miterlimit="10"/>
<path d="M389.305 44.1562H114.32V56.6756H389.305V44.1562Z" fill="white" stroke="black" stroke-width="0.75" stroke-miterlimit="10"/>
<path d="M365.958 51.1958H358.992V52.747H365.958V51.1958Z" fill="#29483B"/>
<path d="M375.605 52.3963L370.68 47.4619L369.585 48.5588L374.51 53.4931L375.605 52.3963Z" fill="#29483B"/>
<path d="M370.684 53.4939L375.609 48.5596L374.515 47.4627L369.589 52.3971L370.684 53.4939Z" fill="#29483B"/>
<path d="M378.5 47.1318V53.4887H384.85V47.1318H378.5ZM383.62 52.263H379.73V48.366H383.62V52.263Z" fill="#29483B"/>
<path d="M138.102 51.9252C138.877 51.1486 138.877 49.8895 138.102 49.1129C137.326 48.3362 136.069 48.3362 135.294 49.1129C134.519 49.8895 134.519 51.1486 135.294 51.9252C136.069 52.7018 137.326 52.7018 138.102 51.9252Z" fill="#29483B" stroke="#637B71" stroke-miterlimit="10"/>
<path d="M129.859 51.9252C130.635 51.1486 130.635 49.8895 129.859 49.1129C129.084 48.3362 127.827 48.3362 127.052 49.1129C126.277 49.8895 126.277 51.1486 127.052 51.9252C127.827 52.7018 129.084 52.7018 129.859 51.9252Z" fill="#29483B" stroke="#637B71" stroke-miterlimit="10"/>
<path d="M122.132 50.9669C122.384 49.898 121.723 48.8269 120.656 48.5746C119.589 48.3224 118.52 48.9844 118.268 50.0533C118.017 51.1222 118.677 52.1933 119.744 52.4456C120.811 52.6979 121.881 52.0358 122.132 50.9669Z" fill="#29483B" stroke="#637B71" stroke-miterlimit="10"/>
<g style="mix-blend-mode:multiply">
<path d="M171.248 152.397H135.934C133.615 152.397 131.734 154.281 131.734 156.605V191.982C131.734 194.306 133.615 196.189 135.934 196.189H171.248C173.567 196.189 175.448 194.306 175.448 191.982V156.605C175.448 154.281 173.567 152.397 171.248 152.397Z" fill="#637B71" stroke="black" stroke-width="0.75" stroke-miterlimit="10"/>
</g>
<path d="M168.63 149.62H133.317C130.998 149.62 129.117 151.503 129.117 153.827V189.204C129.117 191.528 130.998 193.412 133.317 193.412H168.63C170.95 193.412 172.83 191.528 172.83 189.204V153.827C172.83 151.503 170.95 149.62 168.63 149.62Z" fill="white" stroke="black" stroke-width="0.75" stroke-miterlimit="10"/>
<path d="M225.071 151.317H187.859C186.871 151.317 186.07 152.119 186.07 153.109V159.548C186.07 160.538 186.871 161.34 187.859 161.34H225.071C226.059 161.34 226.86 160.538 226.86 159.548V153.109C226.86 152.119 226.059 151.317 225.071 151.317Z" fill="white" stroke="black" stroke-width="0.75" stroke-miterlimit="10"/>
<path d="M247.082 169.642H187.859C186.871 169.642 186.07 170.444 186.07 171.434V177.873C186.07 178.863 186.871 179.665 187.859 179.665H247.082C248.069 179.665 248.87 178.863 248.87 177.873V171.434C248.87 170.444 248.069 169.642 247.082 169.642Z" fill="white" stroke="black" stroke-width="0.75" stroke-miterlimit="10"/>
<path d="M247.082 187.966H187.859C186.871 187.966 186.07 188.769 186.07 189.758V196.198C186.07 197.187 186.871 197.99 187.859 197.99H247.082C248.069 197.99 248.87 197.187 248.87 196.198V189.758C248.87 188.769 248.069 187.966 247.082 187.966Z" fill="white" stroke="black" stroke-width="0.75" stroke-miterlimit="10"/>
<path d="M469.88 217.392H469.812L438.549 212.261C438.51 212.254 438.473 212.242 438.437 212.225L417.252 201.88L401.618 198.791C401.547 198.775 401.481 198.742 401.426 198.693L388.845 187.467H379.12C379.012 187.467 378.908 187.424 378.831 187.347C378.754 187.27 378.711 187.166 378.711 187.057C378.711 186.949 378.754 186.844 378.831 186.768C378.908 186.691 379.012 186.647 379.12 186.647H389.007C389.108 186.649 389.204 186.685 389.28 186.751L401.892 198.009L417.469 201.086C417.503 201.093 417.537 201.104 417.568 201.12L438.748 211.462L469.951 216.583C470.054 216.598 470.148 216.651 470.213 216.733C470.278 216.814 470.309 216.917 470.301 217.021C470.293 217.125 470.245 217.222 470.168 217.292C470.091 217.362 469.99 217.4 469.886 217.399L469.88 217.392Z" fill="white" stroke="black" stroke-width="0.75" stroke-miterlimit="10"/>
<path d="M470.044 216.737C470.022 216.739 469.999 216.739 469.977 216.737L438.714 211.606C438.674 211.6 438.636 211.588 438.6 211.57L417.414 201.215L401.783 198.125C401.711 198.11 401.644 198.077 401.589 198.028L389.008 186.802H379.276C379.168 186.802 379.064 186.759 378.987 186.682C378.91 186.605 378.867 186.501 378.867 186.392C378.867 186.283 378.91 186.179 378.987 186.102C379.064 186.025 379.168 185.982 379.276 185.982H389.164C389.264 185.983 389.36 186.02 389.436 186.086L402.051 197.343L417.625 200.42C417.66 200.427 417.694 200.438 417.726 200.454L438.906 210.797L470.11 215.917C470.213 215.932 470.306 215.986 470.371 216.067C470.436 216.149 470.468 216.252 470.46 216.356C470.451 216.46 470.404 216.557 470.326 216.627C470.249 216.697 470.148 216.735 470.044 216.733V216.737Z" fill="white" stroke="black" stroke-width="0.75" stroke-miterlimit="10"/>
<path d="M475.457 246.588H376.943C376.798 246.588 376.66 246.53 376.558 246.428C376.456 246.326 376.398 246.187 376.398 246.043V177.203C376.407 177.064 376.468 176.933 376.57 176.838C376.671 176.743 376.805 176.689 376.944 176.689C377.083 176.689 377.217 176.743 377.318 176.838C377.419 176.933 377.48 177.064 377.489 177.203V245.495H475.467C475.542 245.491 475.616 245.501 475.687 245.527C475.757 245.552 475.821 245.591 475.875 245.643C475.93 245.694 475.973 245.756 476.003 245.824C476.032 245.893 476.048 245.967 476.048 246.041C476.048 246.116 476.032 246.19 476.003 246.259C475.973 246.327 475.93 246.389 475.875 246.44C475.821 246.492 475.757 246.531 475.687 246.556C475.616 246.582 475.542 246.592 475.467 246.588H475.457Z" fill="#637B71"/>
<path d="M391.375 188.827C392.598 187.602 392.598 185.616 391.375 184.391C390.153 183.167 388.171 183.166 386.948 184.391C385.725 185.616 385.725 187.602 386.948 188.827C388.171 190.051 390.153 190.051 391.375 188.827Z" fill="#637B71"/>
<path d="M389.168 188.25C390.072 188.25 390.805 187.515 390.805 186.61C390.805 185.704 390.072 184.97 389.168 184.97C388.264 184.97 387.531 185.704 387.531 186.61C387.531 187.515 388.264 188.25 389.168 188.25Z" fill="white" stroke="black" stroke-width="0.75" stroke-miterlimit="10"/>
<path d="M404.891 198.431C405.288 196.745 404.246 195.056 402.563 194.658C400.88 194.26 399.194 195.304 398.797 196.99C398.4 198.676 399.442 200.365 401.125 200.763C402.808 201.161 404.494 200.117 404.891 198.431Z" fill="#637B71"/>
<path d="M401.864 199.368C402.768 199.368 403.501 198.634 403.501 197.728C403.501 196.822 402.768 196.088 401.864 196.088C400.959 196.088 400.227 196.822 400.227 197.728C400.227 198.634 400.959 199.368 401.864 199.368Z" fill="white" stroke="black" stroke-width="0.75" stroke-miterlimit="10"/>
<g opacity="0.21">
<path d="M387.818 191.101H380.633V243.621H387.818V191.101Z" fill="#637B71" stroke="#637B71" stroke-miterlimit="10"/>
</g>
<g opacity="0.21">
<path d="M398.99 201.219H391.805V243.621H398.99V201.219Z" fill="#637B71" stroke="#637B71" stroke-miterlimit="10"/>
</g>
<g opacity="0.21">
<path d="M410.177 203.286H402.992V243.621H410.177V203.286Z" fill="#637B71" stroke="#637B71" stroke-miterlimit="10"/>
</g>
<path d="M18.6824 96.9829C18.6824 96.9829 21.1864 72.4683 46.2917 72.4683C68.5554 72.4683 77.7972 98.7898 70.8168 110.297C70.8168 110.297 79.4384 109.063 81.9023 113.175C82.1033 113.514 82.2782 113.867 82.4254 114.232C84.3788 119.05 80.5817 124.285 75.3923 124.285H9.02931C7.83972 124.294 6.66569 124.014 5.60715 123.47C4.54862 122.926 3.63693 122.134 2.94971 121.162C0.724175 117.962 -1.52456 112.436 1.65869 105.202C7.37546 92.2195 18.6824 96.9829 18.6824 96.9829Z" fill="white" stroke="#637B71" stroke-width="0.75" stroke-miterlimit="10"/>
<path d="M238.23 18.8721L238.017 20.2881V1.26807H223.242L217.211 17.7267L238.23 18.8721Z" fill="white" stroke="#637B71" stroke-width="0.75" stroke-miterlimit="10"/>
<path d="M238.436 5.34473H205.688V24.3246H238.436V5.34473Z" fill="white" stroke="#637B71" stroke-width="0.75" stroke-miterlimit="10"/>
<path d="M121.295 186.609H24.9766V196.238H121.295V186.609Z" fill="white" stroke="black" stroke-width="0.75" stroke-miterlimit="10"/>
<path d="M121.295 196.236H24.9766V276.023H121.295V196.236Z" fill="white" stroke="black" stroke-width="0.75" stroke-miterlimit="10"/>
<path d="M97.4312 250.417H48.8281" stroke="black" stroke-width="0.75" stroke-miterlimit="10"/>
<path d="M97.4312 262.493H48.8281" stroke="black" stroke-width="0.75" stroke-miterlimit="10"/>
<path d="M33.3914 191.037C33.4769 191.395 33.4434 191.771 33.2958 192.109C33.1483 192.446 32.8948 192.726 32.574 192.905C32.2532 193.085 31.8826 193.155 31.5185 193.105C31.1544 193.054 30.8167 192.886 30.5568 192.625C30.2969 192.365 30.1289 192.027 30.0785 191.662C30.028 191.297 30.0978 190.926 30.2773 190.605C30.4568 190.283 30.7361 190.029 31.0728 189.881C31.4094 189.734 31.7851 189.7 32.1426 189.786C32.4474 189.855 32.7264 190.009 32.9474 190.23C33.1684 190.452 33.3223 190.731 33.3914 191.037Z" fill="#637B71"/>
<path d="M41.7871 191.037C41.8501 191.316 41.8416 191.606 41.7625 191.88C41.6834 192.154 41.5361 192.404 41.3345 192.606C41.1329 192.808 40.8836 192.956 40.6097 193.035C40.3358 193.114 40.0463 193.123 39.7683 193.06C39.4636 192.99 39.1847 192.835 38.9638 192.613C38.7429 192.391 38.5889 192.112 38.5195 191.806C38.2474 190.581 39.1017 189.513 40.3252 189.786C40.9412 189.921 41.65 190.42 41.7871 191.037Z" fill="#637B71"/>
<path d="M97.669 307.054C96.3156 307.73 94.8495 308.323 93.2706 308.83C91.748 309.338 90.1409 309.817 88.4492 310.268C91.8326 311.057 94.9059 312.129 97.669 313.482L125.328 327.946C126.794 328.623 127.809 329.469 128.373 330.484C128.994 331.499 129.304 332.627 129.304 333.867V350.277L61.5512 314.836V305.616L129.304 270.259V286.669C129.304 287.853 128.994 288.953 128.373 289.968C127.809 290.983 126.794 291.828 125.328 292.505L97.669 307.054ZM75.9306 569.94C74.8592 572.759 73.1393 574.874 70.7709 576.284C68.459 577.75 66.0906 578.483 63.6658 578.483H53.7694L102.575 452.198C103.534 449.66 105.056 447.686 107.143 446.277C109.229 444.867 111.626 444.162 114.332 444.162H124.313L75.9306 569.94ZM134.802 711.616V720.836L67.0492 756.277V739.867C67.0492 738.627 67.3312 737.499 67.8951 736.484C68.5153 735.469 69.5586 734.623 71.0247 733.946L98.684 719.482C100.094 718.806 101.56 718.213 103.082 717.706C104.605 717.142 106.24 716.663 107.988 716.268C106.24 715.873 104.605 715.422 103.082 714.915C101.56 714.351 100.094 713.73 98.684 713.054L71.0247 698.505C69.5586 697.828 68.5153 696.983 67.8951 695.968C67.3312 694.953 67.0492 693.853 67.0492 692.669V676.259L134.802 711.616Z" fill="white"/>
<path d="M97.669 307.054L97.8367 307.389L97.8435 307.386L97.669 307.054ZM93.2706 308.83L93.1558 308.473L93.152 308.474L93.2706 308.83ZM88.4492 310.268L88.3526 309.906L86.9029 310.292L88.364 310.633L88.4492 310.268ZM97.669 313.482L97.8428 313.15L97.8339 313.145L97.669 313.482ZM125.328 327.946L125.154 328.279L125.163 328.283L125.171 328.287L125.328 327.946ZM128.373 330.484L128.046 330.666L128.049 330.673L128.053 330.679L128.373 330.484ZM129.304 350.277L129.13 350.609L129.679 350.896V350.277H129.304ZM61.5512 314.836H61.1762V315.063L61.3774 315.168L61.5512 314.836ZM61.5512 305.616L61.3777 305.283L61.1762 305.389V305.616H61.5512ZM129.304 270.259H129.679V269.641L129.13 269.927L129.304 270.259ZM128.373 289.968L128.053 289.772L128.049 289.779L128.046 289.786L128.373 289.968ZM125.328 292.505L125.171 292.165L125.162 292.169L125.154 292.173L125.328 292.505ZM97.669 307.054L97.5013 306.718C96.1665 307.386 94.7183 307.971 93.1558 308.473L93.2706 308.83L93.3853 309.187C94.9807 308.674 96.4647 308.075 97.8367 307.389L97.669 307.054ZM93.2706 308.83L93.152 308.474C91.6373 308.979 90.0376 309.456 88.3526 309.906L88.4492 310.268L88.5458 310.63C90.2443 310.177 91.8587 309.696 93.3891 309.186L93.2706 308.83ZM88.4492 310.268L88.364 310.633C91.7233 311.417 94.7694 312.48 97.504 313.819L97.669 313.482L97.8339 313.145C95.0424 311.778 91.9419 310.698 88.5344 309.903L88.4492 310.268ZM97.669 313.482L97.4952 313.815L125.154 328.279L125.328 327.946L125.502 327.614L97.8428 313.15L97.669 313.482ZM125.328 327.946L125.171 328.287C126.593 328.943 127.533 329.743 128.046 330.666L128.373 330.484L128.701 330.302C128.086 329.195 126.996 328.303 125.485 327.606L125.328 327.946ZM128.373 330.484L128.053 330.679C128.636 331.633 128.929 332.693 128.929 333.867H129.304H129.679C129.679 332.561 129.351 331.365 128.693 330.288L128.373 330.484ZM129.304 333.867H128.929V350.277H129.304H129.679V333.867H129.304ZM129.304 350.277L129.478 349.944L61.725 314.503L61.5512 314.836L61.3774 315.168L129.13 350.609L129.304 350.277ZM61.5512 314.836H61.9262V305.616H61.5512H61.1762V314.836H61.5512ZM61.5512 305.616L61.7247 305.948L129.477 270.592L129.304 270.259L129.13 269.927L61.3777 305.283L61.5512 305.616ZM129.304 270.259H128.929V286.669H129.304H129.679V270.259H129.304ZM129.304 286.669H128.929C128.929 287.784 128.638 288.816 128.053 289.772L128.373 289.968L128.693 290.163C129.349 289.09 129.679 287.922 129.679 286.669H129.304ZM128.373 289.968L128.046 289.786C127.533 290.708 126.593 291.509 125.171 292.165L125.328 292.505L125.485 292.846C126.996 292.148 128.086 291.257 128.701 290.15L128.373 289.968ZM125.328 292.505L125.154 292.173L97.4944 306.722L97.669 307.054L97.8435 307.386L125.503 292.837L125.328 292.505ZM75.9306 569.94L75.5806 569.805L75.5801 569.807L75.9306 569.94ZM70.7709 576.284L70.5791 575.961L70.5701 575.967L70.7709 576.284ZM53.7694 578.483L53.4196 578.348L53.2224 578.858H53.7694V578.483ZM102.575 452.198L102.925 452.333L102.926 452.33L102.575 452.198ZM124.313 444.162L124.663 444.297L124.859 443.787H124.313V444.162ZM75.9306 569.94L75.5801 569.807C74.5357 572.555 72.8678 574.599 70.5791 575.962L70.7709 576.284L70.9628 576.606C73.4108 575.149 75.1827 572.964 76.2812 570.073L75.9306 569.94ZM70.7709 576.284L70.5701 575.967C68.3102 577.4 66.0106 578.108 63.6658 578.108V578.483V578.858C66.1706 578.858 68.6077 578.1 70.9718 576.601L70.7709 576.284ZM63.6658 578.483V578.108H53.7694V578.483V578.858H63.6658V578.483ZM53.7694 578.483L54.1191 578.618L102.925 452.333L102.575 452.198L102.225 452.062L53.4196 578.348L53.7694 578.483ZM102.575 452.198L102.926 452.33C103.859 449.859 105.335 447.95 107.352 446.587L107.143 446.277L106.933 445.966C104.777 447.423 103.208 449.461 102.224 452.065L102.575 452.198ZM107.143 446.277L107.352 446.587C109.372 445.223 111.694 444.537 114.332 444.537V444.162V443.787C111.557 443.787 109.086 444.511 106.933 445.966L107.143 446.277ZM114.332 444.162V444.537H124.313V444.162V443.787H114.332V444.162ZM124.313 444.162L123.963 444.027L75.5806 569.805L75.9306 569.94L76.2806 570.075L124.663 444.297L124.313 444.162ZM134.802 711.616H135.177V711.389L134.975 711.283L134.802 711.616ZM134.802 720.836L134.976 721.168L135.177 721.063V720.836H134.802ZM67.0492 756.277H66.6742V756.896L67.223 756.609L67.0492 756.277ZM67.8951 736.484L67.5751 736.288L67.571 736.295L67.5672 736.302L67.8951 736.484ZM71.0247 733.946L71.1819 734.287L71.1903 734.283L71.1985 734.279L71.0247 733.946ZM98.684 719.482L98.5216 719.144L98.5102 719.15L98.684 719.482ZM103.082 717.706L103.201 718.062L103.213 718.058L103.082 717.706ZM107.988 716.268L108.071 716.634L109.691 716.268L108.071 715.902L107.988 716.268ZM103.082 714.915L102.952 715.267L102.964 715.27L103.082 714.915ZM98.684 713.054L98.5093 713.386L98.5217 713.392L98.684 713.054ZM71.0247 698.505L71.1993 698.173L71.1907 698.169L71.1818 698.165L71.0247 698.505ZM67.8951 695.968L67.5672 696.15L67.571 696.157L67.5751 696.163L67.8951 695.968ZM67.0492 676.259L67.2227 675.927L66.6742 675.641V676.259H67.0492ZM134.802 711.616H134.427V720.836H134.802H135.177V711.616H134.802ZM134.802 720.836L134.628 720.503L66.8754 755.944L67.0492 756.277L67.223 756.609L134.976 721.168L134.802 720.836ZM67.0492 756.277H67.4242V739.867H67.0492H66.6742V756.277H67.0492ZM67.0492 739.867H67.4242C67.4242 738.686 67.692 737.621 68.2229 736.666L67.8951 736.484L67.5672 736.302C66.9703 737.376 66.6742 738.567 66.6742 739.867H67.0492ZM67.8951 736.484L68.215 736.679C68.785 735.747 69.7597 734.943 71.1819 734.287L71.0247 733.946L70.8676 733.606C69.3575 734.303 68.2457 735.191 67.5751 736.288L67.8951 736.484ZM71.0247 733.946L71.1985 734.279L98.8578 719.815L98.684 719.482L98.5102 719.15L70.8509 733.614L71.0247 733.946ZM98.684 719.482L98.8463 719.82C100.241 719.151 101.693 718.564 103.201 718.062L103.082 717.706L102.964 717.35C101.427 717.863 99.946 718.461 98.5217 719.144L98.684 719.482ZM103.082 717.706L103.213 718.058C104.718 717.5 106.337 717.025 108.071 716.634L107.988 716.268L107.906 715.902C106.143 716.3 104.492 716.784 102.952 717.354L103.082 717.706ZM107.988 716.268L108.071 715.902C106.334 715.51 104.71 715.062 103.201 714.559L103.082 714.915L102.964 715.27C104.499 715.782 106.147 716.237 107.906 716.634L107.988 716.268ZM103.082 714.915L103.213 714.563C101.701 714.003 100.245 713.387 98.8463 712.716L98.684 713.054L98.5217 713.392C99.9423 714.074 101.419 714.699 102.952 715.266L103.082 714.915ZM98.684 713.054L98.8586 712.722L71.1993 698.173L71.0247 698.505L70.8501 698.837L98.5094 713.386L98.684 713.054ZM71.0247 698.505L71.1818 698.165C69.7597 697.508 68.785 696.705 68.215 695.772L67.8951 695.968L67.5751 696.163C68.2457 697.261 69.3575 698.149 70.8676 698.846L71.0247 698.505ZM67.8951 695.968L68.2229 695.786C67.6906 694.827 67.4242 693.791 67.4242 692.669H67.0492H66.6742C66.6742 693.915 66.9718 695.078 67.5672 696.15L67.8951 695.968ZM67.0492 692.669H67.4242V676.259H67.0492H66.6742V692.669H67.0492ZM67.0492 676.259L66.8757 676.592L134.628 711.948L134.802 711.616L134.975 711.283L67.2227 675.927L67.0492 676.259Z" fill="#637B71"/>
<path d="M50.099 191.202C50.1715 191.558 50.1275 191.928 49.9736 192.257C49.8197 192.586 49.5641 192.857 49.2446 193.029C48.9251 193.201 48.5587 193.265 48.1998 193.212C47.8409 193.16 47.5086 192.992 47.2521 192.735C46.9956 192.478 46.8286 192.145 46.7758 191.786C46.723 191.426 46.7872 191.059 46.959 190.739C47.1308 190.419 47.4009 190.163 47.7294 190.009C48.0579 189.855 48.4272 189.811 48.7827 189.883C49.107 189.949 49.4047 190.11 49.6387 190.344C49.8728 190.579 50.0328 190.877 50.099 191.202Z" fill="#637B71"/>
<path d="M316.93 170.715H265.766V199.383H316.93V170.715Z" fill="white" stroke="black" stroke-width="0.75" stroke-miterlimit="10"/>
<path d="M279.605 184.372H271.414V196.42H279.605V184.372Z" fill="white" stroke="black" stroke-width="0.75" stroke-miterlimit="10"/>
<path d="M307.824 174.921H299.633V196.42H307.824V174.921Z" fill="white" stroke="black" stroke-width="0.75" stroke-miterlimit="10"/>
<path d="M293.691 177.752H285.5V196.346H293.691V177.752Z" fill="white" stroke="black" stroke-width="0.75" stroke-miterlimit="10"/>
<path d="M318.068 172.297C318.412 170.836 317.509 169.372 316.051 169.028C314.593 168.683 313.131 169.587 312.787 171.048C312.443 172.509 313.346 173.973 314.804 174.318C316.263 174.662 317.724 173.758 318.068 172.297Z" fill="#637B71" stroke="black" stroke-width="0.75" stroke-miterlimit="10"/>
<path d="M316.891 170.785L316.395 170.288L315.465 171.22L314.535 170.288L314.039 170.785L314.969 171.717L314.039 172.649L314.535 173.145L315.465 172.213L316.395 173.145L316.891 172.649L315.961 171.717L316.891 170.785Z" fill="white" stroke="white" stroke-width="0.75" stroke-miterlimit="10"/>
<path d="M122.156 275.653C122.156 272.831 122.991 270.073 124.556 267.726C126.121 265.38 128.345 263.552 130.948 262.472C133.55 261.392 136.413 261.109 139.176 261.66C141.938 262.21 144.476 263.569 146.468 265.564C148.459 267.56 149.816 270.102 150.365 272.869C150.915 275.637 150.633 278.506 149.555 281.113C148.477 283.72 146.652 285.948 144.31 287.516C141.968 289.083 139.214 289.92 136.398 289.92C132.621 289.92 128.998 288.417 126.327 285.741C123.657 283.066 122.156 279.437 122.156 275.653Z" fill="white" stroke="black" stroke-width="0.75" stroke-miterlimit="10"/>
<path d="M136.402 287.584C142.98 287.584 148.313 282.242 148.313 275.653C148.313 269.063 142.98 263.721 136.402 263.721C129.825 263.721 124.492 269.063 124.492 275.653C124.492 282.242 129.825 287.584 136.402 287.584Z" fill="white" stroke="black" stroke-width="0.75" stroke-miterlimit="10"/>
<path d="M135.631 284.991V282.694C134.314 282.671 132.952 282.272 132.156 281.693L132.7 280.169C133.674 280.802 134.809 281.142 135.97 281.147C137.584 281.147 138.673 280.215 138.673 278.918C138.673 277.667 137.787 276.893 136.107 276.211C133.787 275.302 132.361 274.254 132.361 272.276C132.361 270.386 133.7 268.953 135.789 268.613V266.316H137.198V268.522C138.234 268.53 139.251 268.804 140.151 269.317L139.584 270.819C138.719 270.304 137.73 270.036 136.723 270.046C134.975 270.046 134.316 271.103 134.316 272.003C134.316 273.184 135.16 273.776 137.13 274.596C139.47 275.551 140.651 276.735 140.651 278.759C140.651 280.556 139.402 282.24 137.065 282.627V284.991H135.631Z" fill="white" stroke="black" stroke-width="0.75" stroke-miterlimit="10"/>
<path d="M175.788 283.679H146.078V289.776H175.788" fill="white"/>
<path d="M175.788 283.679H146.078V289.776H175.788" stroke="black" stroke-width="0.75" stroke-miterlimit="10"/>
<g style="mix-blend-mode:multiply">
<path d="M148.248 284.717H147.971C147.806 284.717 147.672 284.851 147.672 285.017V288.521C147.672 288.687 147.806 288.821 147.971 288.821H148.248C148.413 288.821 148.547 288.687 148.547 288.521V285.017C148.547 284.851 148.413 284.717 148.248 284.717Z" fill="white" stroke="black" stroke-width="0.75" stroke-miterlimit="10"/>
</g>
<g style="mix-blend-mode:multiply">
<path d="M154.646 284.717H154.37C154.204 284.717 154.07 284.851 154.07 285.017V288.521C154.07 288.687 154.204 288.821 154.37 288.821H154.646C154.812 288.821 154.946 288.687 154.946 288.521V285.017C154.946 284.851 154.812 284.717 154.646 284.717Z" fill="white" stroke="black" stroke-width="0.75" stroke-miterlimit="10"/>
</g>
<g style="mix-blend-mode:multiply">
<path d="M161.052 284.717H160.776C160.611 284.717 160.477 284.851 160.477 285.017V288.521C160.477 288.687 160.611 288.821 160.776 288.821H161.052C161.218 288.821 161.352 288.687 161.352 288.521V285.017C161.352 284.851 161.218 284.717 161.052 284.717Z" fill="white" stroke="black" stroke-width="0.75" stroke-miterlimit="10"/>
</g>
<g style="mix-blend-mode:multiply">
<path d="M167.459 284.717H167.182C167.017 284.717 166.883 284.851 166.883 285.017V288.521C166.883 288.687 167.017 288.821 167.182 288.821H167.459C167.624 288.821 167.758 288.687 167.758 288.521V285.017C167.758 284.851 167.624 284.717 167.459 284.717Z" fill="white" stroke="black" stroke-width="0.75" stroke-miterlimit="10"/>
</g>
<path d="M173.867 288.821H173.589C173.509 288.82 173.433 288.789 173.377 288.732C173.321 288.676 173.29 288.6 173.289 288.521V285.015C173.29 284.936 173.321 284.86 173.378 284.804C173.434 284.748 173.51 284.717 173.589 284.717H173.867" fill="white"/>
<path d="M173.867 288.821H173.589C173.509 288.82 173.433 288.789 173.377 288.732C173.321 288.676 173.29 288.6 173.289 288.521V285.015C173.29 284.936 173.321 284.86 173.378 284.804C173.434 284.748 173.51 284.717 173.589 284.717H173.867" stroke="black" stroke-width="0.75" stroke-miterlimit="10"/>
<path d="M169.187 277.544H139.477V283.641H169.187V277.544Z" fill="white" stroke="black" stroke-width="0.75" stroke-miterlimit="10"/>
<g style="mix-blend-mode:multiply">
<path d="M141.646 278.58H141.37C141.204 278.58 141.07 278.714 141.07 278.88V282.384C141.07 282.549 141.204 282.684 141.37 282.684H141.646C141.812 282.684 141.946 282.549 141.946 282.384V278.88C141.946 278.714 141.812 278.58 141.646 278.58Z" fill="white" stroke="black" stroke-width="0.75" stroke-miterlimit="10"/>
</g>
<g style="mix-blend-mode:multiply">
<path d="M148.045 278.58H147.768C147.603 278.58 147.469 278.714 147.469 278.88V282.384C147.469 282.549 147.603 282.684 147.768 282.684H148.045C148.21 282.684 148.344 282.549 148.344 282.384V278.88C148.344 278.714 148.21 278.58 148.045 278.58Z" fill="white" stroke="black" stroke-width="0.75" stroke-miterlimit="10"/>
</g>
<g style="mix-blend-mode:multiply">
<path d="M154.451 278.58H154.175C154.009 278.58 153.875 278.714 153.875 278.88V282.384C153.875 282.549 154.009 282.684 154.175 282.684H154.451C154.616 282.684 154.75 282.549 154.75 282.384V278.88C154.75 278.714 154.616 278.58 154.451 278.58Z" fill="white" stroke="black" stroke-width="0.75" stroke-miterlimit="10"/>
</g>
<g style="mix-blend-mode:multiply">
<path d="M160.857 278.58H160.581C160.415 278.58 160.281 278.714 160.281 278.88V282.384C160.281 282.549 160.415 282.684 160.581 282.684H160.857C161.023 282.684 161.157 282.549 161.157 282.384V278.88C161.157 278.714 161.023 278.58 160.857 278.58Z" fill="white" stroke="black" stroke-width="0.75" stroke-miterlimit="10"/>
</g>
<g style="mix-blend-mode:multiply">
<path d="M167.256 278.58H166.979C166.814 278.58 166.68 278.714 166.68 278.88V282.384C166.68 282.549 166.814 282.684 166.979 282.684H167.256C167.421 282.684 167.555 282.549 167.555 282.384V278.88C167.555 278.714 167.421 278.58 167.256 278.58Z" fill="white" stroke="black" stroke-width="0.75" stroke-miterlimit="10"/>
</g>
<path d="M171.89 271.407H142.18V277.504H171.89V271.407Z" fill="white" stroke="black" stroke-width="0.75" stroke-miterlimit="10"/>
<g style="mix-blend-mode:multiply">
<path d="M144.349 272.442H144.073C143.908 272.442 143.773 272.577 143.773 272.742V276.246C143.773 276.412 143.908 276.546 144.073 276.546H144.349C144.515 276.546 144.649 276.412 144.649 276.246V272.742C144.649 272.577 144.515 272.442 144.349 272.442Z" fill="white" stroke="black" stroke-width="0.75" stroke-miterlimit="10"/>
</g>
<g style="mix-blend-mode:multiply">
<path d="M150.756 272.442H150.479C150.314 272.442 150.18 272.577 150.18 272.742V276.246C150.18 276.412 150.314 276.546 150.479 276.546H150.756C150.921 276.546 151.055 276.412 151.055 276.246V272.742C151.055 272.577 150.921 272.442 150.756 272.442Z" fill="white" stroke="black" stroke-width="0.75" stroke-miterlimit="10"/>
</g>
<g style="mix-blend-mode:multiply">
<path d="M157.154 272.442H156.878C156.712 272.442 156.578 272.577 156.578 272.742V276.246C156.578 276.412 156.712 276.546 156.878 276.546H157.154C157.319 276.546 157.454 276.412 157.454 276.246V272.742C157.454 272.577 157.319 272.442 157.154 272.442Z" fill="white" stroke="black" stroke-width="0.75" stroke-miterlimit="10"/>
</g>
<g style="mix-blend-mode:multiply">
<path d="M163.56 272.442H163.284C163.118 272.442 162.984 272.577 162.984 272.742V276.246C162.984 276.412 163.118 276.546 163.284 276.546H163.56C163.726 276.546 163.86 276.412 163.86 276.246V272.742C163.86 272.577 163.726 272.442 163.56 272.442Z" fill="white" stroke="black" stroke-width="0.75" stroke-miterlimit="10"/>
</g>
<g style="mix-blend-mode:multiply">
<path d="M169.959 272.442H169.682C169.517 272.442 169.383 272.577 169.383 272.742V276.246C169.383 276.412 169.517 276.546 169.682 276.546H169.959C170.124 276.546 170.258 276.412 170.258 276.246V272.742C170.258 272.577 170.124 272.442 169.959 272.442Z" fill="white" stroke="black" stroke-width="0.75" stroke-miterlimit="10"/>
</g>
<path d="M174.759 265.192H145.047V271.289H174.759" fill="white"/>
<path d="M174.759 265.192H145.047V271.289H174.759" stroke="black" stroke-width="0.75" stroke-miterlimit="10"/>
<g style="mix-blend-mode:multiply">
<path d="M147.217 266.227H146.94C146.775 266.227 146.641 266.361 146.641 266.527V270.031C146.641 270.197 146.775 270.331 146.94 270.331H147.217C147.382 270.331 147.516 270.197 147.516 270.031V266.527C147.516 266.361 147.382 266.227 147.217 266.227Z" fill="white" stroke="black" stroke-width="0.75" stroke-miterlimit="10"/>
</g>
<g style="mix-blend-mode:multiply">
<path d="M153.615 266.227H153.339C153.173 266.227 153.039 266.361 153.039 266.527V270.031C153.039 270.197 153.173 270.331 153.339 270.331H153.615C153.78 270.331 153.915 270.197 153.915 270.031V266.527C153.915 266.361 153.78 266.227 153.615 266.227Z" fill="white" stroke="black" stroke-width="0.75" stroke-miterlimit="10"/>
</g>
<g style="mix-blend-mode:multiply">
<path d="M160.021 266.227H159.745C159.579 266.227 159.445 266.361 159.445 266.527V270.031C159.445 270.197 159.579 270.331 159.745 270.331H160.021C160.187 270.331 160.321 270.197 160.321 270.031V266.527C160.321 266.361 160.187 266.227 160.021 266.227Z" fill="white" stroke="black" stroke-width="0.75" stroke-miterlimit="10"/>
</g>
<g style="mix-blend-mode:multiply">
<path d="M166.42 266.227H166.143C165.978 266.227 165.844 266.361 165.844 266.527V270.031C165.844 270.197 165.978 270.331 166.143 270.331H166.42C166.585 270.331 166.719 270.197 166.719 270.031V266.527C166.719 266.361 166.585 266.227 166.42 266.227Z" fill="white" stroke="black" stroke-width="0.75" stroke-miterlimit="10"/>
</g>
<g style="mix-blend-mode:multiply">
<path d="M172.826 266.227H172.55C172.384 266.227 172.25 266.361 172.25 266.527V270.031C172.25 270.197 172.384 270.331 172.55 270.331H172.826C172.991 270.331 173.125 270.197 173.125 270.031V266.527C173.125 266.361 172.991 266.227 172.826 266.227Z" fill="white" stroke="black" stroke-width="0.75" stroke-miterlimit="10"/>
</g>
<path d="M168.554 258.896H138.844V264.993H168.554V258.896Z" fill="white" stroke="black" stroke-width="0.75" stroke-miterlimit="10"/>
<g style="mix-blend-mode:multiply">
<path d="M141.006 259.932H140.729C140.564 259.932 140.43 260.066 140.43 260.232V263.736C140.43 263.901 140.564 264.036 140.729 264.036H141.006C141.171 264.036 141.305 263.901 141.305 263.736V260.232C141.305 260.066 141.171 259.932 141.006 259.932Z" fill="white" stroke="black" stroke-width="0.75" stroke-miterlimit="10"/>
</g>
<g style="mix-blend-mode:multiply">
<path d="M147.412 259.932H147.135C146.97 259.932 146.836 260.066 146.836 260.232V263.736C146.836 263.901 146.97 264.036 147.135 264.036H147.412C147.577 264.036 147.711 263.901 147.711 263.736V260.232C147.711 260.066 147.577 259.932 147.412 259.932Z" fill="white" stroke="black" stroke-width="0.75" stroke-miterlimit="10"/>
</g>
<g style="mix-blend-mode:multiply">
<path d="M153.81 259.932H153.534C153.368 259.932 153.234 260.066 153.234 260.232V263.736C153.234 263.901 153.368 264.036 153.534 264.036H153.81C153.976 264.036 154.11 263.901 154.11 263.736V260.232C154.11 260.066 153.976 259.932 153.81 259.932Z" fill="white" stroke="black" stroke-width="0.75" stroke-miterlimit="10"/>
</g>
<g style="mix-blend-mode:multiply">
<path d="M160.217 259.932H159.94C159.775 259.932 159.641 260.066 159.641 260.232V263.736C159.641 263.901 159.775 264.036 159.94 264.036H160.217C160.382 264.036 160.516 263.901 160.516 263.736V260.232C160.516 260.066 160.382 259.932 160.217 259.932Z" fill="white" stroke="black" stroke-width="0.75" stroke-miterlimit="10"/>
</g>
<g style="mix-blend-mode:multiply">
<path d="M166.623 259.932H166.346C166.181 259.932 166.047 260.066 166.047 260.232V263.736C166.047 263.901 166.181 264.036 166.346 264.036H166.623C166.788 264.036 166.922 263.901 166.922 263.736V260.232C166.922 260.066 166.788 259.932 166.623 259.932Z" fill="white" stroke="black" stroke-width="0.75" stroke-miterlimit="10"/>
</g>
<path d="M171.66 252.776C171.585 256.305 164.277 259.01 155.32 258.818C146.363 258.626 139.182 255.604 139.258 252.072L139.446 248.645L171.677 249.868L171.66 252.776Z" fill="white" stroke="black" stroke-width="0.75" stroke-miterlimit="10"/>
<path d="M171.838 249.338C171.914 245.807 164.722 242.787 155.775 242.593C146.827 242.399 139.511 245.104 139.435 248.635C139.359 252.166 146.55 255.186 155.498 255.38C164.446 255.574 171.762 252.869 171.838 249.338Z" fill="white" stroke="black" stroke-width="0.75" stroke-miterlimit="10"/>
<path d="M169.185 249.28C169.249 246.327 163.234 243.801 155.75 243.639C148.267 243.476 142.148 245.739 142.084 248.692C142.02 251.646 148.035 254.172 155.519 254.334C163.003 254.496 169.121 252.234 169.185 249.28Z" fill="white" stroke="black" stroke-width="0.75" stroke-miterlimit="10"/>
<path d="M154.672 253.162L154.693 252.131C153.362 252.109 152.039 251.93 150.75 251.599L151.383 250.929C152.594 251.252 153.84 251.426 155.093 251.446C156.927 251.487 158.178 251.096 158.188 250.514C158.199 249.933 157.201 249.585 155.296 249.246C152.67 248.781 151.054 248.276 151.077 247.391C151.094 246.546 152.632 245.935 155.013 245.833L155.034 244.804L156.636 244.838L156.614 245.827C157.744 245.847 158.868 245.988 159.966 246.25L159.306 246.907C158.243 246.641 157.153 246.499 156.058 246.484C154.068 246.442 153.315 246.894 153.3 247.302C153.3 247.833 154.239 248.118 156.479 248.534C159.131 249.018 160.462 249.578 160.443 250.485C160.424 251.292 158.988 252.015 156.323 252.131L156.3 253.188L154.672 253.162Z" fill="white" stroke="black" stroke-width="0.75" stroke-miterlimit="10"/>
<g opacity="0.1">
<path d="M438.871 51.375C454.542 51.375 458.535 61.0963 458.974 62.3136C459.014 62.4241 459.06 62.5321 459.113 62.6369C459.628 63.6513 462.149 68.2225 466.125 69.0763C466.842 69.2145 467.486 69.6061 467.938 70.1799C468.391 70.7536 468.623 71.4712 468.591 72.2019C468.085 80.9743 464.495 106.184 440.398 120.278C439.934 120.549 439.406 120.692 438.869 120.692C438.332 120.692 437.805 120.549 437.341 120.278C413.24 106.184 409.65 80.9701 409.143 72.2019C409.113 71.471 409.345 70.7534 409.798 70.1797C410.251 69.606 410.894 69.2144 411.611 69.0763C415.588 68.2309 418.109 63.6513 418.623 62.6369C418.676 62.5321 418.723 62.4241 418.763 62.3136C419.201 61.0984 423.193 51.375 438.873 51.375" fill="#637B71"/>
<path d="M438.871 51.375C454.542 51.375 458.535 61.0963 458.974 62.3136C459.014 62.4241 459.06 62.5321 459.113 62.6369C459.628 63.6513 462.149 68.2225 466.125 69.0763C466.842 69.2145 467.486 69.6061 467.938 70.1799C468.391 70.7536 468.623 71.4712 468.591 72.2019C468.085 80.9743 464.495 106.184 440.398 120.278C439.934 120.549 439.406 120.692 438.869 120.692C438.332 120.692 437.805 120.549 437.341 120.278C413.24 106.184 409.65 80.9701 409.143 72.2019C409.113 71.471 409.345 70.7534 409.798 70.1797C410.251 69.606 410.894 69.2144 411.611 69.0763C415.588 68.2309 418.109 63.6513 418.623 62.6369C418.676 62.5321 418.723 62.4241 418.763 62.3136C419.201 61.0984 423.193 51.375 438.873 51.375" stroke="#637B71" stroke-width="0.75" stroke-miterlimit="10"/>
</g>
<path d="M437.631 113.731C418.137 102.332 415.232 81.9426 414.823 74.846C414.796 74.2539 414.982 73.6716 415.348 73.2059C415.714 72.7402 416.235 72.4221 416.816 72.31C420.033 71.619 422.071 67.9227 422.489 67.1028C422.531 67.0161 422.569 66.9316 422.603 66.8407C422.957 65.858 426.189 57.9922 438.867 57.9922C451.545 57.9922 454.773 65.858 455.127 66.8407C455.159 66.9306 455.197 67.0182 455.241 67.1028C455.663 67.9206 457.694 71.619 460.911 72.31C461.493 72.4217 462.014 72.7397 462.38 73.2055C462.747 73.6713 462.933 74.2538 462.905 74.846C462.496 81.9426 459.593 102.332 440.103 113.731C439.728 113.951 439.302 114.067 438.867 114.067C438.433 114.067 438.006 113.951 437.631 113.731Z" fill="white" stroke="#637B71" stroke-width="0.75" stroke-miterlimit="10"/>
<path d="M442.546 78.3054H433.758V75.7377C433.758 74.5694 434.222 73.4492 435.047 72.6233C435.872 71.7974 436.99 71.3335 438.156 71.3335C438.733 71.3335 439.305 71.4474 439.839 71.6687C440.372 71.8901 440.857 72.2145 441.265 72.6234C441.673 73.0324 441.997 73.5179 442.218 74.0523C442.439 74.5866 442.552 75.1593 442.552 75.7377L442.546 78.3054Z" fill="white" stroke="#637B71" stroke-width="0.75" stroke-miterlimit="10"/>
<path opacity="0.17" d="M444.501 77.4561H431.791C430.539 77.4561 429.523 78.4732 429.523 79.7279V90.9666C429.523 92.2213 430.539 93.2384 431.791 93.2384H444.501C445.753 93.2384 446.769 92.2213 446.769 90.9666V79.7279C446.769 78.4732 445.753 77.4561 444.501 77.4561Z" fill="#637B71" stroke="#637B71" stroke-width="0.75" stroke-miterlimit="10"/>
<path d="M439.785 82.8195C439.785 83.1435 439.689 83.4602 439.51 83.7296C439.33 83.999 439.074 84.2089 438.776 84.3328C438.477 84.4567 438.148 84.489 437.831 84.4257C437.514 84.3623 437.222 84.2061 436.994 83.9769C436.765 83.7476 436.61 83.4556 436.547 83.1377C436.484 82.8199 436.517 82.4905 436.641 82.1912C436.765 81.892 436.975 81.6364 437.244 81.4566C437.513 81.2769 437.829 81.1812 438.153 81.1816C438.586 81.1822 439.001 81.355 439.307 81.6621C439.613 81.9692 439.785 82.3855 439.785 82.8195Z" fill="white" stroke="#637B71" stroke-width="0.75" stroke-miterlimit="10"/>
<path d="M437.637 84.3751L435.523 87.7585H441.236L438.861 84.2905L437.637 84.3751Z" fill="white" stroke="#637B71" stroke-width="0.75" stroke-miterlimit="10"/>
<path opacity="0.22" d="M57.8073 110.231H49.1435V124.296H35.7587V110.231H27.2827C27.2001 110.231 27.1193 110.208 27.049 110.165C26.9787 110.122 26.9217 110.06 26.8843 109.986C26.847 109.912 26.8307 109.83 26.8374 109.747C26.844 109.665 26.8733 109.586 26.9219 109.519L42.1863 88.6881C42.2279 88.6317 42.2821 88.5859 42.3446 88.5544C42.4071 88.5228 42.476 88.5063 42.546 88.5063C42.616 88.5063 42.685 88.5228 42.7474 88.5544C42.8099 88.5859 42.8641 88.6317 42.9057 88.6881L58.168 109.519C58.2166 109.586 58.2459 109.665 58.2525 109.747C58.2592 109.83 58.2429 109.912 58.2056 109.986C58.1682 110.06 58.1113 110.122 58.041 110.165C57.9707 110.208 57.8898 110.231 57.8073 110.231Z" fill="#29483B" stroke="#637B71" stroke-miterlimit="10"/>
<path d="M420.571 201.528C420.968 199.842 419.926 198.153 418.243 197.755C416.56 197.358 414.874 198.402 414.477 200.087C414.08 201.773 415.122 203.462 416.805 203.86C418.487 204.258 420.173 203.214 420.571 201.528Z" fill="#637B71"/>
<path d="M419.181 201.105C419.326 200.21 418.72 199.368 417.828 199.223C416.936 199.078 416.095 199.685 415.95 200.579C415.805 201.473 416.411 202.315 417.303 202.461C418.196 202.606 419.037 201.999 419.181 201.105Z" fill="white" stroke="black" stroke-width="0.75" stroke-miterlimit="10"/>
<path d="M441.805 211.897C442.202 210.211 441.16 208.522 439.477 208.124C437.794 207.726 436.108 208.77 435.711 210.456C435.314 212.142 436.356 213.831 438.039 214.229C439.722 214.627 441.408 213.583 441.805 211.897Z" fill="#637B71"/>
<path d="M440.416 211.475C440.561 210.581 439.955 209.739 439.062 209.594C438.17 209.448 437.329 210.056 437.184 210.95C437.039 211.844 437.645 212.686 438.538 212.831C439.43 212.976 440.271 212.369 440.416 211.475Z" fill="white" stroke="black" stroke-width="0.75" stroke-miterlimit="10"/>
<path d="M473.071 217.028C473.468 215.342 472.426 213.653 470.743 213.255C469.06 212.858 467.374 213.902 466.977 215.587C466.58 217.273 467.622 218.962 469.305 219.36C470.987 219.758 472.673 218.714 473.071 217.028Z" fill="#637B71"/>
<path d="M470.043 217.967C470.947 217.967 471.68 217.233 471.68 216.327C471.68 215.422 470.947 214.688 470.043 214.688C469.139 214.688 468.406 215.422 468.406 216.327C468.406 217.233 469.139 217.967 470.043 217.967Z" fill="white" stroke="black" stroke-width="0.75" stroke-miterlimit="10"/>
<g opacity="0.21">
<path d="M421.357 206.492H414.172V243.619H421.357V206.492Z" fill="#637B71" stroke="#637B71" stroke-miterlimit="10"/>
</g>
<g opacity="0.21">
<path d="M432.529 211.41H425.344V243.621H432.529V211.41Z" fill="#637B71" stroke="#637B71" stroke-miterlimit="10"/>
</g>
<g opacity="0.21">
<path d="M443.716 216.541H436.531V243.621H443.716V216.541Z" fill="#637B71" stroke="#637B71" stroke-miterlimit="10"/>
</g>
<g opacity="0.21">
<path d="M454.896 219.212H447.711V243.619H454.896V219.212Z" fill="#637B71" stroke="#637B71" stroke-miterlimit="10"/>
</g>
<path opacity="0.21" d="M468.802 222.525H461.617V243.619H468.802V222.525Z" fill="#637B71" stroke="#637B71" stroke-miterlimit="10"/>
<path d="M189.62 6.9698V6.29564C189.26 6.29447 188.907 6.19275 188.602 6.00188L188.762 5.55597C189.047 5.74178 189.379 5.84154 189.72 5.84339C190.192 5.84339 190.513 5.56866 190.513 5.18826C190.513 4.80786 190.253 4.59652 189.76 4.39576C189.08 4.12948 188.663 3.82304 188.663 3.24187C188.663 2.66071 189.055 2.26974 189.667 2.1683V1.50049H190.089V2.13449C190.392 2.13623 190.69 2.2163 190.954 2.36696L190.787 2.80653C190.532 2.65467 190.24 2.57641 189.943 2.5804C189.433 2.5804 189.239 2.88684 189.239 3.15312C189.239 3.4997 189.485 3.673 190.063 3.91392C190.749 4.19288 191.095 4.54791 191.095 5.13331C191.095 5.66164 190.73 6.15405 190.04 6.26817V6.96134L189.62 6.9698Z" fill="#29483B" stroke="#637B71" stroke-miterlimit="10"/>
<path d="M190.254 8.23999C189.418 8.32634 188.575 8.15111 187.842 7.73837C187.109 7.32564 186.522 6.69564 186.16 5.93493C185.799 5.17422 185.682 4.32013 185.825 3.48996C185.968 2.6598 186.364 1.89431 186.958 1.29864C187.553 0.702972 188.317 0.306354 189.145 0.163271C189.974 0.0201887 190.827 0.137666 191.586 0.499555C192.345 0.861444 192.974 1.45 193.386 2.18436C193.798 2.91872 193.973 3.76287 193.887 4.60083C193.791 5.53307 193.377 6.4037 192.715 7.06641C192.054 7.72912 191.185 8.14353 190.254 8.23999ZM190.235 0.308647C189.437 0.225098 188.632 0.391419 187.931 0.784753C187.23 1.17809 186.669 1.77913 186.323 2.50529C185.977 3.23144 185.864 4.04707 186 4.84009C186.135 5.63311 186.513 6.36461 187.08 6.93404C187.647 7.50348 188.377 7.88292 189.168 8.02021C189.96 8.15751 190.774 8.04592 191.499 7.70079C192.225 7.35566 192.826 6.79391 193.22 6.09276C193.614 5.39161 193.781 4.58546 193.699 3.78508C193.607 2.89555 193.213 2.06468 192.582 1.43175C191.952 0.798818 191.123 0.402295 190.235 0.308647Z" fill="#29483B" stroke="#637B71" stroke-miterlimit="10"/>
<path d="M64.408 230.88L48.792 223.84V221.792L64.408 214.752V216.928L49.848 223.456V222.176L64.408 228.672V230.88ZM67.6275 234.016L65.5795 233.408L73.7715 207.936L75.8515 208.544L67.6275 234.016ZM77.042 230.88V228.672L91.634 222.176V223.456L77.042 216.928V214.752L92.658 221.792V223.84L77.042 230.88Z" fill="black"/>
</g>
<defs>
<clipPath id="clip0_3197_4296">
<rect width="476" height="290" fill="white"/>
</clipPath>
</defs>
</svg>
