<svg width="69" height="66" viewBox="0 0 69 66" fill="none" xmlns="http://www.w3.org/2000/svg">
<g clip-path="url(#clip0_3449_57)">
<path d="M40.7916 41.6639L34.769 47.6523L28.2266 41.2817C29 40.2624 29.7607 39.4979 30.1538 38.8608C31.5612 39.3705 32.9812 39.6253 34.6422 39.6253C36.1764 39.6253 37.7233 39.3705 39.1306 38.8608C39.511 39.8801 40.1577 40.772 40.7916 41.6639Z" fill="#264039"/>
<path d="M67.7163 23.062C68.3503 23.062 68.8701 23.5717 68.8701 24.2087C68.8701 24.8458 68.3503 25.3554 67.7163 25.3554C67.0823 25.3554 66.5625 24.8458 66.5625 24.2087C66.5625 23.5717 67.0823 23.062 67.7163 23.062Z" fill="#264039"/>
<path d="M60.5444 38.9883C61.1784 38.9883 61.6982 39.4979 61.6982 40.135C61.6982 40.7721 61.1784 41.2817 60.5444 41.2817C59.9105 41.2817 59.3906 40.7721 59.3906 40.135C59.3906 39.4979 59.9105 38.9883 60.5444 38.9883Z" fill="#264039"/>
<path d="M51.6929 3.18555C52.3268 3.18555 52.8467 3.6952 52.8467 4.33227C52.8467 4.96933 52.3268 5.47898 51.6929 5.47898C51.0589 5.47898 50.5391 4.96933 50.5391 4.33227C50.5391 3.6952 51.0589 3.18555 51.6929 3.18555Z" fill="#264039"/>
<path d="M33.2228 29.8147C32.7157 29.6873 32.069 29.4324 31.6886 29.0502C31.5618 28.9228 31.4351 28.7954 31.3083 28.7954L30.2812 30.9614C31.4351 31.7259 32.8424 32.1081 34.123 32.2355V34.0193H35.15V32.2355C35.6572 32.2355 36.0503 32.1081 36.5574 31.9807C36.9378 31.8533 37.3309 31.5985 37.7112 31.3436C38.0916 31.0888 38.3579 30.7066 38.4847 30.3243C38.7383 29.9421 38.7383 29.4325 38.7383 28.9228C38.7383 27.6487 38.2311 26.7568 36.811 26.1197C35.784 25.7375 35.15 25.6101 34.8838 25.4826V23.444C35.1374 23.444 35.391 23.5714 35.784 23.6989C36.1644 23.8263 36.6842 24.0811 37.0646 24.3359C37.1914 24.4633 37.3182 24.4633 37.3182 24.5907L38.3452 22.5521C37.9648 22.2973 37.445 22.0425 36.811 21.7877C36.3039 21.5328 35.6572 21.4054 35.0106 21.4054V19.8765H33.9836V21.4054C32.5762 21.5328 31.4224 22.1699 30.7757 23.444C30.6489 23.8263 30.5222 24.3359 30.5222 24.8456C30.5222 25.9923 31.0293 26.7568 32.0563 27.2664C32.4367 27.3938 32.8298 27.6487 33.3369 27.7761L34.1104 28.0309V30.0695C33.9836 30.0695 33.6032 29.9421 33.2101 29.8147H33.2228ZM35.0233 28.2857C35.4036 28.4131 35.6699 28.5406 35.9235 28.668C36.1771 28.7954 36.1771 29.0502 36.1771 29.305C36.1771 29.8147 35.7967 30.0695 35.0233 30.0695V28.2857ZM33.4764 25.1004C33.3496 24.973 33.2228 24.7182 33.2228 24.4633C33.2228 23.9537 33.6032 23.6989 34.2498 23.5714V25.3552C33.9962 25.3552 33.7427 25.2278 33.4764 25.1004Z" fill="#264039"/>
<path d="M15.646 0C16.2799 0 16.7998 0.509652 16.7998 1.14672C16.7998 1.78378 16.2799 2.29344 15.646 2.29344C15.012 2.29344 14.4922 1.78378 14.4922 1.14672C14.4922 0.509652 15.012 0 15.646 0Z" fill="#264039"/>
<path d="M8.4663 19.1118C9.10026 19.1118 9.62011 19.6215 9.62011 20.2585C9.62011 20.8956 9.10026 21.4053 8.4663 21.4053C7.83235 21.4053 7.3125 20.8956 7.3125 20.2585C7.3125 19.6215 7.83235 19.1118 8.4663 19.1118Z" fill="#264039"/>
<path d="M1.2788 54.1504C1.91276 54.1504 2.43261 54.66 2.43261 55.2971C2.43261 55.9342 1.91276 56.4438 1.2788 56.4438C0.644846 56.4438 0.125 55.9342 0.125 55.2971C0.125 54.66 0.644846 54.1504 1.2788 54.1504Z" fill="#264039"/>
<path d="M56.9392 50.2008C49.4966 47.0155 48.5963 46.6332 48.0892 46.3784C44.7545 44.8495 41.9271 42.4286 40.1393 39.2433C45.0081 37.0773 48.0892 32.2356 48.0892 26.8842C48.0892 19.4942 41.9271 13.3784 34.4971 13.3784C27.0671 13.3784 20.905 19.4942 20.905 26.8842C20.905 32.1081 23.9861 36.9498 28.7281 39.1159C27.5743 40.6448 26.1669 42.1738 24.8863 43.5753C24.7595 43.7027 24.6327 43.7027 24.6327 43.8302C23.3521 44.9769 22.1983 45.8688 21.2981 46.3784C21.1713 46.3784 21.1713 46.5058 21.0445 46.5058L12.448 50.2008C7.43977 52.3668 4.625 60.3939 4.625 65.2356C4.625 65.6178 5.00538 66 5.39843 66H64.0142C64.3946 66 64.7876 65.6178 64.7876 65.2356C64.7876 60.139 61.7066 52.2394 56.9646 50.2008H56.9392ZM43.0936 59.1197L47.582 61.5406L45.9083 64.4711H39.7463L36.1581 49.8186L40.2661 53.1313C40.3929 53.2587 40.6465 53.2587 40.7733 53.2587C41.1537 53.2587 41.4199 53.0039 41.5467 52.7491L44.2347 45.9962C45.1349 46.6332 46.1619 47.2703 47.1889 47.6526L48.3428 55.1699L43.2077 57.7182C42.5611 58.1004 42.5611 58.8649 43.0809 59.1197H43.0936ZM23.593 64.4711L22.3124 61.5406L26.1669 59.1197C26.6741 58.7375 26.6741 57.973 26.0401 57.7182L20.905 55.1699L22.3124 47.6526C23.2127 47.1429 24.1129 46.5058 25.1399 45.6139L28.7281 52.7491C28.8549 53.0039 29.1085 53.1313 29.2353 53.1313C29.4888 53.1313 29.7424 53.1313 29.8819 52.8765L33.3433 49.8186L30.2623 64.3437H23.593V64.4711ZM38.6052 39.8803C38.9855 40.5174 39.2518 41.0271 39.759 41.6641L34.7507 46.6332L29.2353 41.2819C29.6156 40.7722 30.0087 40.39 30.3891 39.8803C32.9502 40.6448 35.7777 40.7722 38.5925 39.8803H38.6052ZM34.7507 51.3475L37.9585 64.4711H31.9359L34.7634 51.3475H34.7507ZM42.84 44.9769L40.2788 51.2201L35.9172 47.6526L40.786 42.8108C41.2931 43.5753 42.0666 44.3398 42.84 44.9769ZM22.566 27.0116C22.566 20.3861 27.9547 15.1622 34.4971 15.1622C41.0396 15.1622 46.555 20.5136 46.555 27.0116C46.555 33.5097 41.1663 38.9885 34.4971 38.9885C33.0897 38.9885 31.6697 38.7336 30.3891 38.224H30.2623C25.6471 36.4402 22.566 31.9807 22.566 27.0116ZM28.2082 42.556L33.4701 47.78L29.6283 51.2201L26.2937 44.5946C26.9403 43.9576 27.5743 43.3205 28.2209 42.556H28.2082ZM13.082 51.7298L20.6515 48.5444L19.4977 55.6796C19.4977 56.0618 19.6244 56.3166 19.878 56.5715L24.2397 58.7375L21.0318 60.7761C20.6515 61.0309 20.5247 61.4132 20.7783 61.7954L21.9321 64.7259H14.2358V60.7761C14.2358 60.3939 13.8554 60.0116 13.4624 60.0116C13.0693 60.0116 12.6889 60.3939 12.6889 60.7761V64.7259H6.27329C6.40008 59.6294 9.35433 53.2587 13.0693 51.7298H13.082ZM55.7854 64.4711V60.5213C55.7854 60.139 55.405 59.7568 55.012 59.7568C54.6189 59.7568 54.2386 60.139 54.2386 60.5213V64.4711H47.6961L49.3571 61.668C49.6107 61.2858 49.4839 60.7761 49.1035 60.5213L45.249 58.4827L49.4839 56.3166C49.7375 56.1892 49.991 55.807 49.8643 55.4248L48.7104 48.2896L56.2799 51.4749C58.0803 52.2394 59.8681 54.278 61.2882 57.0811C62.3152 59.3746 63.0886 61.9228 63.2154 64.2163L55.7727 64.4711H55.7854Z" fill="#264039"/>
<path d="M21.5419 39.8803C21.7955 40.1351 22.3154 40.1351 22.6958 39.8803C22.9493 39.6255 22.9493 39.1158 22.6958 38.7336C16.1533 32.2355 16.1533 21.6602 22.6958 15.1621C29.2382 8.66406 39.8887 8.66406 46.4185 15.1621C52.9609 21.6602 52.9609 32.2355 46.4185 38.7336C46.1649 38.9884 46.1649 39.498 46.4185 39.8803C46.6721 40.1351 47.1919 40.1351 47.5723 39.8803C54.7487 32.7451 54.7487 21.1505 47.5723 14.0154C40.3832 6.88028 28.7184 6.88028 21.5293 14.0154C18.0679 17.4556 16.1406 22.0424 16.1406 27.0116C16.1406 31.9807 18.0679 36.4401 21.5293 39.8803H21.5419Z" fill="#264039"/>
<path d="M64.1344 13.5057C66.8224 13.5057 69.0032 11.3396 69.0032 8.66396C69.0032 5.98829 66.8224 3.82227 64.1344 3.82227C61.4464 3.82227 59.2656 5.98829 59.2656 8.66396C59.2656 11.3396 61.5732 13.5057 64.1344 13.5057ZM64.1344 5.47864C65.9349 5.47864 67.3422 6.88018 67.3422 8.66396C67.3422 10.4477 65.9349 11.8493 64.1344 11.8493C62.334 11.8493 60.9266 10.4477 60.9266 8.66396C60.9266 6.88018 62.334 5.47864 64.1344 5.47864Z" fill="#264039"/>
<path d="M6.41566 45.359C10.0039 45.359 12.8313 42.5559 12.8313 38.9883C12.8313 35.4208 10.0039 32.6177 6.41566 32.6177C2.82745 32.6177 0 35.4208 0 38.9883C0 42.5559 2.95424 45.359 6.41566 45.359ZM6.41566 34.1466C9.10364 34.1466 11.2845 36.3127 11.2845 38.9883C11.2845 41.664 9.10364 43.83 6.41566 43.83C3.72767 43.83 1.54686 41.664 1.54686 38.9883C1.54686 36.3127 3.85447 34.1466 6.41566 34.1466Z" fill="#264039"/>
</g>
<defs>
<clipPath id="clip0_3449_57">
<rect width="69" height="66" fill="white"/>
</clipPath>
</defs>
</svg>
