<svg width="59" height="56" viewBox="0 0 59 56" fill="none" xmlns="http://www.w3.org/2000/svg">
<g clip-path="url(#clip0_3449_138)">
<path d="M52.8006 17.5C53.3006 17.5 53.7106 17.9 53.7106 18.4C53.7106 18.9 53.3006 19.3 52.8006 19.3C52.3006 19.3 51.8906 18.9 51.8906 18.4C51.8906 17.9 52.3006 17.5 52.8006 17.5Z" fill="#264039"/>
<path d="M51.5897 52.5C52.0897 52.5 52.4997 52.9 52.4997 53.4C52.4997 53.9 52.0897 54.3 51.5897 54.3C51.0897 54.3 50.6797 53.9 50.6797 53.4C50.6797 52.9 51.0897 52.5 51.5897 52.5Z" fill="#264039"/>
<path d="M4.75375 27.5C5.25375 27.5 5.66375 27.9 5.66375 28.4C5.66375 28.9 5.25375 29.3 4.75375 29.3C4.25375 29.3 3.84375 28.9 3.84375 28.4C3.84375 27.9 4.25375 27.5 4.75375 27.5Z" fill="#264039"/>
<path d="M2.93344 3.2002C3.43344 3.2002 3.84344 3.6002 3.84344 4.1002C3.84344 4.6002 3.43344 5.0002 2.93344 5.0002C2.43344 5.0002 2.02344 4.6002 2.02344 4.1002C2.02344 3.6002 2.43344 3.2002 2.93344 3.2002Z" fill="#264039"/>
<path d="M1.01156 38.7998C1.51156 38.7998 1.92156 39.1998 1.92156 39.6998C1.92156 40.1998 1.51156 40.5998 1.01156 40.5998C0.511562 40.5998 0.101562 40.1998 0.101562 39.6998C0.101562 39.1998 0.511562 38.7998 1.01156 38.7998Z" fill="#264039"/>
<path d="M2.53 47.5C1.11 47.5 0 48.6 0 50C0 51.4 1.11 52.5 2.53 52.5C3.95 52.5 5.06 51.4 5.06 50C5.06 48.6 3.95 47.5 2.53 47.5ZM2.53 51.2C1.82 51.2 1.22 50.6 1.22 49.9C1.22 49.2 1.83 48.6 2.53 48.6C3.23 48.6 3.85 49.2 3.85 49.9C3.85 50.7 3.24 51.2 2.53 51.2Z" fill="#264039"/>
<path d="M53.1087 25.6H49.9688V0.6C49.9688 0.3 49.6688 0 49.3587 0H12.6388C12.3388 0 12.0287 0.3 12.0287 0.6V5H7.57875C7.27875 5 6.96875 5.3 6.96875 5.6V55C6.96875 55.3 7.26875 55.6 7.57875 55.6H44.2987C44.5987 55.6 44.9087 55.3 44.9087 55V50.6H53.0987C54.5187 50.6 55.6287 49.5 55.6287 48.1V28.1C55.6287 26.7 54.5187 25.6 53.0987 25.6H53.1087ZM13.3488 1.2H48.7587V25.6H39.2487C37.8287 25.6 36.7188 26.7 36.7188 28.1V48.1C36.7188 48.6 36.8188 49 37.0188 49.4H13.3488V22.5H41.1687C41.4687 22.5 41.7787 22.2 41.7787 21.9C41.7787 21.6 41.4787 21.3 41.1687 21.3H37.3288V8.7C37.3288 8.4 37.0288 8.1 36.7188 8.1H33.5788C33.2788 8.1 32.9688 8.4 32.9688 8.7V10H30.4388C30.1388 10 29.8288 10.3 29.8288 10.6V13.1H27.9088V10C27.9088 9.7 27.6087 9.4 27.2987 9.4H24.7688V7.5C24.7688 7.2 24.4688 6.9 24.1588 6.9H21.0188C20.7188 6.9 20.4088 7.2 20.4088 7.5V11.3H17.8787C17.5787 11.3 17.2688 11.6 17.2688 11.9V21.3H13.4288V1.2H13.3288H13.3488ZM36.1088 21.2H34.1887V9.4H36.1088V21.2ZM32.8788 21.2H30.9587V11.2H32.8788V21.2ZM29.7388 21.2H27.8188V14.3H29.7388V21.2ZM26.5988 21.2H24.6788V10.6H26.5988V21.2ZM23.4688 21.2H21.5487V8.1H23.4688V21.2ZM20.2288 21.2H18.3088V12.4H20.2288V21.2ZM43.6987 54.4H8.28875V6.2H12.1288V50C12.1288 50.3 12.4288 50.6 12.7387 50.6H43.6887V54.4H43.6987ZM54.4187 48.1C54.4187 48.8 53.8088 49.4 53.1087 49.4H39.2487C38.5387 49.4 37.9387 48.8 37.9387 48.1V28.1C37.9387 27.4 38.5487 26.8 39.2487 26.8H53.2087C53.9187 26.8 54.5287 27.4 54.5287 28.1V48.1H54.4287H54.4187Z" fill="#264039"/>
<path d="M52.5 34.3999H39.86C39.56 34.3999 39.25 34.6999 39.25 34.9999V47.4999C39.25 47.7999 39.55 48.0999 39.86 48.0999H52.5C52.8 48.0999 53.11 47.7999 53.11 47.4999V34.9999C53.11 34.5999 52.91 34.3999 52.5 34.3999ZM43.7 38.6999H45.62V40.5999H43.7V38.6999ZM46.84 38.6999H48.76V40.5999H46.84V38.6999ZM48.76 37.4999H46.84V35.5999H48.76V37.4999ZM45.52 37.4999H43.6V35.5999H45.52V37.4999ZM42.38 40.5999H40.46V38.6999H42.38V40.5999ZM40.46 41.8999H42.38V43.7999H40.46V41.8999ZM43.7 41.8999H45.62V43.7999H43.7V41.8999ZM46.84 41.8999H48.76V43.7999H46.84V41.8999ZM49.97 38.6999H51.89V40.5999H49.97V38.6999ZM51.89 37.4999H49.97V35.5999H51.89V37.4999ZM42.38 35.5999V37.4999H40.46V35.5999H42.38ZM40.46 44.9999H42.38V46.8999H40.46V44.9999ZM43.7 44.9999H45.62V46.8999H43.7V44.9999ZM46.84 44.9999H48.76V46.8999H46.84V44.9999ZM51.89 46.8999H49.97V41.8999H51.89V46.8999Z" fill="#264039"/>
<path d="M52.5 28.1001H39.86C39.56 28.1001 39.25 28.4001 39.25 28.7001V32.5001C39.25 32.8001 39.55 33.1001 39.86 33.1001H52.5C52.8 33.1001 53.11 32.8001 53.11 32.5001V28.7001C53.11 28.4001 52.91 28.1001 52.5 28.1001ZM51.89 31.9001H40.46V29.4001H51.89V31.9001Z" fill="#264039"/>
<path d="M31.0616 42.5H17.7116C17.4116 42.5 17.1016 42.8 17.1016 43.1C17.1016 43.4 17.4016 43.7 17.7116 43.7H30.9616C31.2616 43.7 31.5716 43.4 31.5716 43.1C31.6716 42.8 31.3716 42.5 31.0616 42.5Z" fill="#264039"/>
<path d="M31.0616 40H17.7116C17.4116 40 17.1016 40.3 17.1016 40.6C17.1016 40.9 17.4016 41.2 17.7116 41.2H30.9616C31.2616 41.2 31.5716 40.9 31.5716 40.6C31.5716 40.3 31.3716 40 31.0616 40Z" fill="#264039"/>
<path d="M31.0616 37.5H17.7116C17.4116 37.5 17.1016 37.8 17.1016 38.1C17.1016 38.4 17.4016 38.7 17.7116 38.7H30.9616C31.2616 38.7 31.5716 38.4 31.5716 38.1C31.5716 37.8 31.3716 37.5 31.0616 37.5Z" fill="#264039"/>
<path d="M31.0616 35H17.7116C17.4116 35 17.1016 35.3 17.1016 35.6C17.1016 35.9 17.4016 36.2 17.7116 36.2H30.9616C31.2616 36.2 31.5716 35.9 31.5716 35.6C31.5716 35.3 31.3716 35 31.0616 35Z" fill="#264039"/>
<path d="M31.0616 32.5H17.7116C17.4116 32.5 17.1016 32.8 17.1016 33.1C17.1016 33.4 17.4016 33.7 17.7116 33.7H30.9616C31.2616 33.7 31.5716 33.4 31.5716 33.1C31.5716 32.8 31.3716 32.5 31.0616 32.5Z" fill="#264039"/>
<path d="M55.3306 2.5C53.4106 2.5 51.8906 4 51.8906 5.9C51.8906 7.8 53.4106 9.3 55.3306 9.3C57.2506 9.3 58.7706 7.8 58.7706 5.9C58.7706 4 57.2506 2.5 55.3306 2.5ZM55.3306 8.1C54.1206 8.1 53.1006 7.1 53.1006 5.9C53.1006 4.7 54.1106 3.7 55.3306 3.7C56.5506 3.7 57.5606 4.7 57.5606 5.9C57.5606 7.1 56.5506 8.1 55.3306 8.1Z" fill="#264039"/>
</g>
<defs>
<clipPath id="clip0_3449_138">
<rect width="58.77" height="55.6" fill="white"/>
</clipPath>
</defs>
</svg>
