<svg width="57" height="55" viewBox="0 0 57 55" fill="none" xmlns="http://www.w3.org/2000/svg">
<g clip-path="url(#clip0_3449_107)">
<path d="M52.0975 15.7998C52.5975 15.7998 53.0075 16.1998 53.0075 16.6998C53.0075 17.1998 52.5975 17.5998 52.0975 17.5998C51.5975 17.5998 51.1875 17.1998 51.1875 16.6998C51.1875 16.1998 51.5975 15.7998 52.0975 15.7998Z" fill="#264039"/>
<path d="M45.5172 46.6002C45.0072 46.4002 44.5072 46.3002 44.5072 46.3002V45.2002C44.7072 45.2002 44.8072 45.3002 44.9072 45.3002C45.1072 45.4002 45.4172 45.5002 45.6172 45.6002C45.7172 45.6002 45.7172 45.7002 45.7172 45.7002L46.3272 44.6002C46.1272 44.5002 45.8172 44.3002 45.5172 44.2002C45.2172 44.1002 44.9072 44.0002 44.5072 44.0002V43.2002H43.8972V44.0002C43.0872 44.1002 42.4772 44.4002 42.1772 45.1002C42.0772 45.3002 42.0772 45.6002 42.0772 45.8002C42.0772 46.4002 42.2772 46.8002 42.9872 47.1002C43.3872 47.3002 43.8972 47.4002 44.0972 47.5002V48.6002C43.8972 48.6002 43.6972 48.5002 43.4872 48.5002C43.1872 48.4002 42.8772 48.3002 42.5772 48.1002C42.5772 48.0335 42.5439 48.0002 42.4772 48.0002L41.8672 49.2002C42.4772 49.6002 43.2872 49.8002 43.9872 49.9002V50.8002H44.5972V49.9002C44.8972 49.9002 45.1072 49.8002 45.3072 49.8002C45.8172 49.7002 46.1172 49.4002 46.4172 49.0002C46.5172 48.8002 46.6172 48.5002 46.6172 48.2002C46.6172 47.9002 46.6172 47.7002 46.5172 47.5002C46.3172 47.1002 46.0072 46.8002 45.5072 46.6002H45.5172ZM44.0972 46.2002C43.8972 46.1002 43.7972 46.1002 43.6972 46.0002C43.5972 45.9002 43.5972 45.8002 43.5972 45.7002C43.5972 45.4002 43.7972 45.3002 44.2072 45.2002L44.1072 46.2002H44.0972ZM44.5072 48.6002V47.6002C44.7072 47.7002 44.8072 47.7002 45.0172 47.8002C45.1172 48.0002 45.1172 48.1002 45.1172 48.2002C45.1172 48.5002 44.9172 48.6002 44.5072 48.6002Z" fill="#264039"/>
<path d="M39.4491 2.7002C39.9491 2.7002 40.3591 3.1002 40.3591 3.6002C40.3591 4.1002 39.9491 4.5002 39.4491 4.5002C38.9491 4.5002 38.5391 4.1002 38.5391 3.6002C38.5391 3.1002 38.9491 2.7002 39.4491 2.7002Z" fill="#264039"/>
<path d="M27.1106 12.3C26.8106 12.2 26.5006 12.1 26.2006 11.9C26.1006 11.8 26.0006 11.8 26.0006 11.8L25.3906 13C26.0006 13.4 26.8106 13.6 27.5106 13.7V14.6H28.1206V13.7C28.6306 13.7 29.1306 13.6 29.5406 13.3C29.7406 13.2 29.8406 13 29.9406 12.8C30.1406 12.4 30.1406 11.7 29.9406 11.3C29.8406 11 29.5406 10.7 29.0306 10.5C28.5206 10.3 28.0206 10.2 28.0206 10.2V9C28.1206 9 28.3206 9.1 28.4206 9.1C28.6206 9.2 28.9306 9.3 29.1306 9.4C29.2306 9.4 29.2306 9.5 29.2306 9.5L29.8406 8.4C29.6406 8.3 29.3306 8.1 29.0306 8C28.7306 7.9 28.4206 7.8 28.0206 7.8V7H27.4106V7.8C26.6006 7.9 25.9906 8.2 25.6906 8.9C25.5906 9.1 25.5906 9.4 25.5906 9.6C25.5906 10.2 25.7906 10.6 26.5006 10.9C26.9006 11.1 27.4106 11.2 27.6106 11.3V12.4C27.5106 12.4 27.3106 12.4 27.1006 12.3H27.1106ZM28.0206 11.5C28.2206 11.6 28.3206 11.6 28.5306 11.7C28.6306 11.8 28.7306 11.9 28.7306 12C28.7306 12.3 28.5306 12.4 28.1206 12.4L28.0206 11.5ZM27.2106 9.8C27.1106 9.7 27.1106 9.6 27.1106 9.5C27.1106 9.2 27.3106 9.1 27.7206 9V10C27.5206 9.9 27.3206 9.8 27.2106 9.8Z" fill="#264039"/>
<path d="M14.8709 5.2002C15.3709 5.2002 15.7809 5.6002 15.7809 6.1002C15.7809 6.6002 15.3709 7.0002 14.8709 7.0002C14.3709 7.0002 13.9609 6.6002 13.9609 6.1002C13.9609 5.6002 14.3709 5.2002 14.8709 5.2002Z" fill="#264039"/>
<path d="M12.6422 46.6002C12.1322 46.4002 11.6322 46.3002 11.6322 46.3002V45.2002C11.8322 45.2002 11.9322 45.3002 12.0322 45.3002C12.2322 45.4002 12.5422 45.5002 12.7422 45.6002C12.8422 45.6002 12.8422 45.7002 12.8422 45.7002L13.4522 44.6002C13.2522 44.5002 12.9422 44.3002 12.6422 44.2002C12.3422 44.1002 12.0322 44.0002 11.6322 44.0002V43.2002H11.0222V44.0002C10.2122 44.1002 9.60219 44.4002 9.30219 45.1002C9.20219 45.3002 9.20219 45.6002 9.20219 45.8002C9.20219 46.4002 9.40219 46.8002 10.1122 47.1002C10.5122 47.3002 11.0222 47.4002 11.2222 47.5002V48.6002C11.0222 48.6002 10.8222 48.5002 10.6122 48.5002C10.3122 48.4002 10.0022 48.3002 9.70219 48.1002C9.70219 48.0335 9.66885 48.0002 9.60219 48.0002L8.99219 49.2002C9.60219 49.6002 10.4122 49.8002 11.1122 49.9002V50.8002H11.7222V49.9002C12.0222 49.9002 12.2322 49.8002 12.4322 49.8002C12.9422 49.7002 13.2422 49.4002 13.5422 49.0002C13.6422 48.8002 13.7422 48.5002 13.7422 48.2002C13.7422 47.9002 13.7422 47.7002 13.6422 47.5002C13.4422 47.1002 13.1322 46.8002 12.6322 46.6002H12.6422ZM11.2322 46.2002C11.0322 46.1002 10.9322 46.1002 10.8322 46.0002C10.7322 45.9002 10.7322 45.8002 10.7322 45.6002C10.7322 45.3002 10.9322 45.2002 11.3422 45.1002V46.2002H11.2422H11.2322ZM11.6322 48.6002V47.6002C11.8322 47.7002 11.9322 47.7002 12.1422 47.8002C12.2422 47.9002 12.3422 48.0002 12.3422 48.1002C12.2422 48.5002 12.0422 48.6002 11.6322 48.6002Z" fill="#264039"/>
<path d="M3.44125 53.2998C3.94125 53.2998 4.35125 53.6998 4.35125 54.1998C4.35125 54.6998 3.94125 55.0998 3.44125 55.0998C2.94125 55.0998 2.53125 54.6998 2.53125 54.1998C2.53125 53.6998 2.94125 53.2998 3.44125 53.2998Z" fill="#264039"/>
<path d="M0.91 29.5C1.41 29.5 1.82 29.9 1.82 30.4C1.82 30.9 1.41 31.3 0.91 31.3C0.41 31.3 0 30.9 0 30.4C0 29.9 0.41 29.5 0.91 29.5Z" fill="#264039"/>
<path d="M48.86 41.0998C51.79 34.0998 50.88 25.7998 46.13 19.2998C43.4 15.5998 39.66 12.8998 35.31 11.3998C35.71 6.9998 32.17 3.2998 27.72 3.2998C23.27 3.2998 19.83 6.9998 20.23 11.3998C11.33 14.4998 4.96 22.8998 4.96 32.5998C4.96 35.4998 5.57 38.3998 6.68 41.0998C4.86 42.4998 3.75 44.6998 3.75 46.9998C3.75 51.0998 7.19 54.4998 11.34 54.4998C13.36 54.4998 15.29 53.6998 16.7 52.2998C23.58 56.0998 31.98 56.0998 38.96 52.2998C40.38 53.6998 42.3 54.4998 44.32 54.4998C48.47 54.4998 51.91 51.0998 51.91 46.9998C51.81 44.6998 50.8 42.4998 48.87 41.0998H48.86ZM27.82 4.4998C31.66 4.4998 34.6 7.8998 34.09 11.6998C33.58 14.6998 30.95 16.9998 27.82 16.9998C24.48 16.9998 21.55 14.2998 21.55 10.7998C21.45 7.2998 24.28 4.4998 27.82 4.4998ZM11.33 53.1998C7.89 53.1998 5.06 50.3998 5.06 46.9998C5.06 44.8998 6.07 42.9998 7.79 41.8998C8.8 41.1998 10.02 40.7998 11.33 40.7998C14.77 40.7998 17.6 43.5998 17.6 46.9998C17.7 50.3998 14.87 53.1998 11.33 53.1998ZM17.5 51.2998C18.41 49.9998 18.92 48.4998 18.92 46.9998C18.92 42.8998 15.48 39.4998 11.33 39.4998C10.02 39.4998 8.8 39.7998 7.69 40.3998C6.68 37.8998 6.17 35.2998 6.17 32.5998C6.17 23.5998 11.84 15.6998 20.33 12.5998C21.14 15.7998 24.17 18.1998 27.61 18.1998C31.05 18.1998 34.08 15.7998 34.89 12.5998C43.39 15.5998 49.05 23.5998 49.05 32.5998C49.05 35.2998 48.54 37.8998 47.53 40.3998C46.42 39.7998 45.2 39.4998 43.99 39.4998C39.84 39.4998 36.4 42.8998 36.4 46.9998C36.4 48.4998 36.91 50.0998 37.82 51.2998C31.75 54.6998 23.96 54.7998 17.49 51.2998H17.5ZM44.21 53.1998C40.77 53.1998 37.94 50.3998 37.94 46.9998C37.94 43.5998 40.77 40.7998 44.21 40.7998C47.65 40.7998 50.48 43.5998 50.48 46.9998C50.58 50.3998 47.75 53.1998 44.21 53.1998Z" fill="#264039"/>
<path d="M27.8212 20.7998C21.2413 20.7998 15.7812 26.0998 15.7812 32.6998C15.7812 39.2998 21.1413 44.5998 27.8212 44.5998C34.5012 44.5998 39.8613 39.2998 39.8613 32.6998C39.8613 26.0998 34.4012 20.7998 27.8212 20.7998ZM27.8212 43.2998C21.8513 43.2998 17.1013 38.4998 17.1013 32.6998C17.1013 26.8998 21.8513 21.9998 27.8212 21.9998C33.7913 21.9998 38.5413 26.7998 38.5413 32.5998C38.5413 38.3998 33.6812 43.2998 27.8212 43.2998Z" fill="#264039"/>
<path d="M30.3484 30.5C31.0584 29.9 31.5584 28.9 31.5584 27.9C31.5584 26 30.0384 24.5 28.1184 24.5C26.1984 24.5 24.6784 26 24.6784 27.9C24.6784 28.9 25.1884 29.9 25.8884 30.5C22.5484 31.8 20.9284 35.5 22.2484 38.7C22.3484 38.9 22.5484 39.1 22.8584 39.1H33.3784C33.6784 39.1 33.8884 38.9 33.9884 38.7C34.2884 38 34.4984 37.2 34.4984 36.4C34.3984 33.7 32.6784 31.4 30.3484 30.5ZM28.1184 32.4L28.8284 34.1L28.1184 34.8L27.4084 34.1L28.1184 32.4ZM25.8984 27.9C25.8984 26.7 26.9084 25.7 28.1284 25.7C29.3484 25.7 30.3584 26.7 30.3584 27.9C30.3584 29.1 29.3484 30.1 28.1284 30.1C26.9084 30.1 25.8984 29.1 25.8984 27.9ZM32.8784 37.8H31.5684V36.3C31.5684 36 31.2684 35.7 30.9584 35.7C30.6484 35.7 30.3484 36 30.3484 36.3V37.8H25.8984V36.3C25.8984 36 25.5984 35.7 25.2884 35.7C24.9784 35.7 24.6784 36 24.6784 36.3V37.8H23.3684C22.4584 34.9 24.2784 32 27.2084 31.4L26.1984 34C26.0984 34.2 26.1984 34.5 26.2984 34.7L27.7184 36.1C27.9184 36.3 28.3284 36.3 28.6284 36.1L30.0484 34.7C30.2484 34.5 30.2484 34.3 30.1484 34L29.1384 31.4C31.4684 31.8 33.1884 33.9 33.1884 36.3C33.1884 36.9 33.0884 37.4 32.8884 37.8H32.8784Z" fill="#264039"/>
<path d="M51.7866 2C48.9566 2 46.7266 4.2 46.7266 7C46.7266 9.8 48.9566 12 51.7866 12C54.6166 12 56.8466 9.8 56.8466 7C56.8466 4.2 54.6166 2 51.7866 2ZM51.7866 10.8C49.6666 10.8 47.9466 9.1 47.9466 7C47.9466 4.9 49.6666 3.2 51.7866 3.2C53.9066 3.2 55.6266 4.9 55.6266 7C55.6266 9.1 53.9066 10.8 51.7866 10.8Z" fill="#264039"/>
<path d="M8.79719 12.5998C8.79719 10.4998 7.07719 8.7998 4.95719 8.7998C2.83719 8.7998 1.11719 10.4998 1.11719 12.5998C1.11719 14.6998 2.83719 16.3998 4.95719 16.3998C7.07719 16.3998 8.79719 14.6998 8.79719 12.5998ZM2.52719 12.5998C2.52719 11.1998 3.63719 10.0998 5.05719 10.0998C6.47719 10.0998 7.58719 11.1998 7.58719 12.5998C7.58719 13.9998 6.47719 15.0998 5.05719 15.0998C3.63719 15.0998 2.52719 13.9998 2.52719 12.5998Z" fill="#264039"/>
</g>
<defs>
<clipPath id="clip0_3449_107">
<rect width="56.85" height="55" fill="white"/>
</clipPath>
</defs>
</svg>
