<svg width="65" height="64" viewBox="0 0 65 64" fill="none" xmlns="http://www.w3.org/2000/svg">
<g clip-path="url(#clip0_3449_108)">
<path d="M63.0846 26.835C63.6763 26.835 64.1615 27.3099 64.1615 27.9036C64.1615 28.4973 63.6763 28.9723 63.0846 28.9723C62.493 28.9723 62.0078 28.4973 62.0078 27.9036C62.0078 27.3099 62.493 26.835 63.0846 26.835Z" fill="#264039"/>
<path d="M62.2409 47.6143C62.8325 47.6143 63.3177 48.0892 63.3177 48.6829C63.3177 49.2766 62.8325 49.7516 62.2409 49.7516C61.6492 49.7516 61.1641 49.2766 61.1641 48.6829C61.1641 48.0892 61.6492 47.6143 62.2409 47.6143Z" fill="#264039"/>
<path d="M56.3815 14.1299C56.9732 14.1299 57.4583 14.6048 57.4583 15.1985C57.4583 15.7922 56.9732 16.2672 56.3815 16.2672C55.7899 16.2672 55.3047 15.7922 55.3047 15.1985C55.3047 14.6048 55.7899 14.1299 56.3815 14.1299Z" fill="#264039"/>
<path d="M50.2799 55.8071C50.8716 55.8071 51.3568 56.2821 51.3568 56.8758C51.3568 57.4695 50.8716 57.9444 50.2799 57.9444C49.6883 57.9444 49.2031 57.4695 49.2031 56.8758C49.2031 56.2821 49.6883 55.8071 50.2799 55.8071Z" fill="#264039"/>
<path d="M38.4206 0.831055C39.0122 0.831055 39.4974 1.30601 39.4974 1.8997C39.4974 2.49339 39.0122 2.96835 38.4206 2.96835C37.8289 2.96835 37.3438 2.49339 37.3438 1.8997C37.3438 1.30601 37.8289 0.831055 38.4206 0.831055Z" fill="#264039"/>
<path d="M10.0612 20.0669C10.6529 20.0669 11.138 20.5418 11.138 21.1355C11.138 21.7292 10.6529 22.2042 10.0612 22.2042C9.46954 22.2042 8.98438 21.7292 8.98438 21.1355C8.98438 20.5418 9.46954 20.0669 10.0612 20.0669Z" fill="#264039"/>
<path d="M4.06901 2.25586C4.66067 2.25586 5.14584 2.73081 5.14584 3.3245C5.14584 3.9182 4.66067 4.39315 4.06901 4.39315C3.47735 4.39315 2.99219 3.9182 2.99219 3.3245C2.99219 2.73081 3.47735 2.25586 4.06901 2.25586Z" fill="#264039"/>
<path d="M1.07683 46.0703C1.66849 46.0703 2.15365 46.5453 2.15365 47.139C2.15365 47.7327 1.66849 48.2076 1.07683 48.2076C0.485163 48.2076 0 47.7327 0 47.139C0 46.5453 0.485163 46.0703 1.07683 46.0703Z" fill="#264039"/>
<path d="M56.3839 37.9963C54.9521 37.0464 53.1535 36.9277 51.5915 37.6401L45.3672 40.3711C40.9415 42.3897 35.9124 42.3897 31.4868 40.3711L30.2916 39.8961C21.4285 35.9778 11.1336 40.0149 7.19314 48.6828L3.1225 57.7069C3.00417 58.0631 3.1225 58.5381 3.4775 58.6568L15.3226 63.8813C15.4409 63.8813 15.5592 64 15.6776 64H15.9142C16.1509 63.8813 16.2692 63.7626 16.2692 63.6438L18.6595 58.3006L19.7364 55.8071C20.6949 53.6698 23.2035 52.7199 25.3572 53.6698C27.7475 54.7384 30.268 55.2134 32.8949 55.2134C35.5219 55.2134 38.0424 54.6197 40.551 53.5511L55.7568 46.9017C57.6737 46.0705 58.7506 44.1707 58.7506 42.2709C58.7506 40.6086 57.7921 38.9462 56.3603 37.9963H56.3839ZM15.3226 62.3377L4.79099 57.7069L6.58964 53.5511L17.0029 58.3006L15.3226 62.3377ZM55.1769 45.4769L40.2197 52.2449C35.7941 54.2635 30.765 54.2635 26.3393 52.2449C23.4638 50.9388 19.9967 52.2449 18.6832 55.2134L17.8431 56.9945L7.4298 52.2449L8.74329 49.3952C12.3288 41.4397 21.7954 37.7589 29.8065 41.321L31.0016 41.796C35.7941 43.9333 41.2965 43.9333 46.089 41.796L52.3133 39.065C53.3901 38.59 54.7036 38.59 55.6621 39.3025C56.7389 40.0149 57.3424 41.0835 57.3424 42.2709C57.2241 43.577 56.5023 44.8832 55.1888 45.4769H55.1769Z" fill="#264039"/>
<path d="M16.4015 28.972C16.0465 28.972 15.6797 29.3282 15.6797 29.6844C15.6797 30.0406 16.0347 30.3968 16.4015 30.3968H18.6735V32.6529C18.6735 33.0091 19.0285 33.3653 19.3953 33.3653H54.7057C55.0607 33.3653 55.4275 33.0091 55.4275 32.6529C55.4275 32.2966 55.0725 31.9404 54.7057 31.9404H51.7119V9.61761C51.7119 9.2614 51.3569 8.90518 50.9901 8.90518H46.4461C46.0911 8.90518 45.7243 9.2614 45.7243 9.61761V11.1612H42.0086C41.6537 11.1612 41.2868 11.5174 41.2868 11.8736V14.8421H38.293V11.1612C38.293 10.805 37.938 10.4488 37.5712 10.4488H33.8555V8.19275C33.8555 7.83654 33.5005 7.48032 33.1337 7.48032H28.5898C28.2348 7.48032 27.8679 7.83654 27.8679 8.19275V12.7048H24.1523C23.7973 12.7048 23.4305 13.061 23.4305 13.4172V31.9404H20.4367V3.68069C20.4367 3.32448 20.0817 2.96826 19.7148 2.96826C19.348 2.96826 18.993 3.32448 18.993 3.68069V5.22429H16.721C16.366 5.22429 15.9992 5.58051 15.9992 5.93672C15.9992 6.29294 16.3542 6.64915 16.721 6.64915H18.993V8.19275H16.721C16.366 8.19275 15.9992 8.54897 15.9992 8.90518C15.9992 9.2614 16.3542 9.61761 16.721 9.61761H18.993V11.1612H16.721C16.366 11.1612 15.9992 11.5174 15.9992 11.8736C15.9992 12.2299 16.3542 12.5861 16.721 12.5861H18.993V14.1297H16.721C16.366 14.1297 15.9992 14.4859 15.9992 14.8421C15.9992 15.1983 16.3542 15.5545 16.721 15.5545H18.993V17.0981H16.721C16.366 17.0981 15.9992 17.4543 15.9992 17.8106C15.9992 18.1668 16.3542 18.523 16.721 18.523H18.993V20.0666H16.721C16.366 20.0666 15.9992 20.4228 15.9992 20.779C15.9992 21.1352 16.3542 21.4915 16.721 21.4915H18.993V23.0351H16.721C16.366 23.0351 15.9992 23.3913 15.9992 23.7475C15.9992 24.1037 16.3542 24.4599 16.721 24.4599H18.993V26.0035H16.721C16.366 26.0035 15.9992 26.3597 15.9992 26.7159C15.9992 27.0722 16.3542 27.4284 16.721 27.4284H18.993V28.972H16.3542H16.4015ZM47.0378 10.4488H50.0316V31.9404H47.0378V10.4488ZM42.4938 12.5861H45.4876V31.9404H42.4938V12.5861ZM41.062 31.9404H38.0682V16.3857H41.062V31.9404ZM36.5062 31.9404H33.5124V11.8736H36.5062V31.9404ZM29.0867 8.90518H32.0806V31.9404H29.0867V8.90518ZM24.5428 14.1297H27.5366V31.9404H24.5428V14.1297Z" fill="#264039"/>
<path d="M65.002 4.51206C65.002 2.01855 62.9667 0 60.458 0C57.9494 0 55.9141 2.01855 55.9141 4.51206C55.9141 7.00557 57.9494 9.02412 60.458 9.02412C62.9667 9.02412 65.002 6.88683 65.002 4.51206ZM60.4462 7.48052C58.7659 7.48052 57.4524 6.1744 57.4524 4.51206C57.4524 2.84972 58.7659 1.5436 60.4462 1.5436C62.1265 1.5436 63.44 2.84972 63.44 4.51206C63.44 6.1744 62.1265 7.48052 60.4462 7.48052Z" fill="#264039"/>
<path d="M4.42658 37.8774C6.46189 37.8774 8.14221 36.2151 8.14221 34.1965C8.14221 32.178 6.46189 30.5156 4.42658 30.5156C2.39126 30.5156 0.710938 32.178 0.710938 34.1965C0.710938 36.2151 2.27293 37.8774 4.42658 37.8774ZM4.42658 31.9405C5.62173 31.9405 6.69856 32.8904 6.69856 34.1965C6.69856 35.5026 5.74007 36.4525 4.42658 36.4525C3.23142 36.4525 2.15459 35.5026 2.15459 34.1965C2.15459 32.8904 3.11309 31.9405 4.42658 31.9405Z" fill="#264039"/>
</g>
<defs>
<clipPath id="clip0_3449_108">
<rect width="65" height="64" fill="white"/>
</clipPath>
</defs>
</svg>
