<svg width="60" height="59" viewBox="0 0 60 59" fill="none" xmlns="http://www.w3.org/2000/svg">
<g clip-path="url(#clip0_3449_124)">
<path d="M58.0989 43.5806C58.6512 43.5806 59.1041 44.023 59.1041 44.5761C59.1041 45.1291 58.6512 45.5716 58.0989 45.5716C57.5466 45.5716 57.0938 45.1291 57.0938 44.5761C57.0938 44.023 57.5466 43.5806 58.0989 43.5806Z" fill="#264039"/>
<path d="M53.2942 24.8877C53.8465 24.8877 54.2994 25.3301 54.2994 25.8832C54.2994 26.4363 53.8465 26.8787 53.2942 26.8787C52.7419 26.8787 52.2891 26.4363 52.2891 25.8832C52.2891 25.3301 52.7419 24.8877 53.2942 24.8877Z" fill="#264039"/>
<path d="M47.0442 0C47.5965 0 48.0494 0.442445 48.0494 0.995501C48.0494 1.54856 47.5965 1.991 47.0442 1.991C46.4919 1.991 46.0391 1.54856 46.0391 0.995501C46.0391 0.442445 46.4919 0 47.0442 0Z" fill="#264039"/>
<path d="M46.9348 51.2129C47.4871 51.2129 47.94 51.6553 47.94 52.2084C47.94 52.7614 47.4871 53.2039 46.9348 53.2039C46.3826 53.2039 45.9297 52.7614 45.9297 52.2084C45.9297 51.6553 46.3826 51.2129 46.9348 51.2129Z" fill="#264039"/>
<path d="M21.9036 7.52148C22.4559 7.52148 22.9087 7.96393 22.9087 8.51698C22.9087 9.07004 22.4559 9.51249 21.9036 9.51249C21.3513 9.51249 20.8984 9.07004 20.8984 8.51698C20.8984 7.96393 21.3513 7.52148 21.9036 7.52148Z" fill="#264039"/>
<path d="M3.01297 0C3.56525 0 4.01812 0.442445 4.01812 0.995501C4.01812 1.54856 3.56525 1.991 3.01297 1.991C2.46068 1.991 2.00781 1.54856 2.00781 0.995501C2.00781 0.442445 2.46068 0 3.01297 0Z" fill="#264039"/>
<path d="M1.00515 37.9395C1.55744 37.9395 2.01031 38.3819 2.01031 38.935C2.01031 39.488 1.55744 39.9305 1.00515 39.9305C0.452872 39.9305 0 39.488 0 38.935C0 38.3819 0.452872 37.9395 1.00515 37.9395Z" fill="#264039"/>
<path d="M6.92313 27.5424C9.60722 27.5424 11.8384 25.3302 11.8384 22.6755C11.8384 20.0208 9.60722 17.8086 6.92313 17.8086C4.23903 17.8086 2.00781 20.0208 2.00781 22.6755C2.00781 25.3302 4.23903 27.5424 6.92313 27.5424ZM6.92313 19.2465C8.82298 19.2465 10.3915 20.7951 10.3915 22.6755C10.3915 24.5559 8.82298 26.1044 6.92313 26.1044C5.02328 26.1044 3.45479 24.5559 3.45479 22.6755C3.45479 20.7951 5.02328 19.2465 6.92313 19.2465Z" fill="#264039"/>
<path d="M59.9987 7.52158C59.9987 5.19875 58.0988 3.31836 55.7572 3.31836C53.4155 3.31836 51.5156 5.19875 51.5156 7.52158C51.5156 9.84442 53.4155 11.6142 55.7572 11.6142C58.0988 11.6142 59.9987 9.84442 59.9987 7.52158ZM55.7572 10.2869C54.1887 10.2869 52.9626 9.07014 52.9626 7.52158C52.9626 5.97303 54.1887 4.7563 55.7572 4.7563C57.3256 4.7563 58.5517 5.97303 58.5517 7.52158C58.5517 9.07014 57.3256 10.2869 55.7572 10.2869Z" fill="#264039"/>
<path d="M50.1711 33.8471C50.2815 31.0818 48.0503 28.8696 45.2558 28.8696C43.7977 28.8696 42.4612 29.4226 41.5665 30.5287C40.1195 29.6439 38.4406 29.4226 36.8721 29.7545V26.3255C39.7771 26.768 42.6821 25.8831 44.6924 23.7815C46.9236 21.5692 47.8183 18.2509 47.0341 15.1538C46.9236 14.9326 46.8132 14.7113 46.5923 14.7113C43.0135 13.7158 39.1033 15.0432 36.8721 18.1403V12.6097C38.6615 12.831 40.3404 12.1673 41.5665 10.9506C43.0135 9.51262 43.5768 7.411 43.135 5.42C43.0245 5.19878 42.9141 4.97756 42.6932 4.97756C40.6829 4.4245 38.5621 4.97756 36.9936 6.52611V3.76084C36.9936 3.429 36.6622 3.09717 36.3198 3.09717C35.9774 3.09717 35.646 3.429 35.646 3.76084V6.52611C34.188 4.97756 31.9568 4.4245 29.9465 4.97756C29.7256 5.08817 29.5046 5.19878 29.5046 5.42C28.9413 7.411 29.5046 9.51262 31.0731 10.9506C32.2992 12.1673 33.9781 12.831 35.7675 12.6097V18.1403C33.5363 15.0432 29.6262 13.7158 26.0474 14.7113C25.8264 14.822 25.6055 14.9326 25.6055 15.1538C24.8213 18.2509 25.716 21.5692 27.9472 23.7815C29.9575 25.7725 32.973 26.768 35.7675 26.3255V30.3075C34.8728 30.75 34.0886 31.4136 33.4259 32.2985C32.0893 30.8606 30.1895 30.0863 28.2896 30.0863C25.1637 30.0863 22.3692 32.1879 21.4745 35.1744C15.2226 35.3956 9.63351 39.0458 7.05988 44.7976L3.26017 53.204C3.14971 53.5359 3.26017 53.9783 3.59154 54.0889L14.6482 58.9558C14.9796 59.0664 15.4325 58.9558 15.5429 58.624L18.7793 51.3236C19.674 49.3326 22.0157 48.4478 24.026 49.3326C26.2572 50.3281 28.6099 50.7706 31.0621 50.7706C33.5142 50.7706 35.8669 50.2175 38.2086 49.222L52.1703 42.9172C53.9597 42.1429 54.9649 40.3731 54.9649 38.6034C54.8544 36.0593 52.7337 33.9577 50.16 33.8471H50.1711ZM45.9295 15.9281C46.4929 18.4721 45.7086 21.0162 43.8088 22.8966C42.0194 24.6663 39.4568 25.4406 36.8831 24.9982V21.2374C37.9988 17.4766 41.9089 15.0432 45.9295 15.9281ZM41.8979 6.08367C42.3397 8.95956 39.8876 11.5036 36.9826 11.1718V8.95956C37.6563 6.96856 39.7771 5.75184 41.8979 6.08367ZM30.6203 6.08367C32.741 5.75184 34.8618 6.85795 35.5356 8.95956V11.1718C32.6306 11.6142 30.1674 9.07017 30.6203 6.08367ZM28.6099 22.8966C26.8206 21.1268 26.0363 18.4721 26.4892 15.9281C30.3993 15.1538 34.3095 17.4766 35.4251 21.2374V24.9982C33.0834 25.4406 30.5098 24.6663 28.6099 22.8966ZM28.0466 31.4136C29.9465 31.4136 31.6254 32.2985 32.741 33.8471C33.0724 34.2895 33.7462 34.1789 33.9671 33.7365C35.3036 30.9712 38.9929 30.1969 41.3456 32.0773C41.677 32.2985 42.1298 32.2985 42.3507 31.9667C43.0245 30.9712 44.1401 30.4181 45.2558 30.4181C47.2661 30.4181 48.945 32.1879 48.7241 34.1789C48.1608 34.4001 48.3927 34.2895 42.3507 37.0548C38.2197 38.9352 33.5253 38.9352 29.3942 37.0548C28.7204 36.8336 26.3787 35.3956 22.6895 35.1744C23.4737 32.9622 25.7049 31.4136 28.0577 31.4136H28.0466ZM51.5076 41.5899L37.5459 47.8947C33.4148 49.7751 28.7204 49.7751 24.5893 47.8947C21.9052 46.678 18.6689 47.8947 17.4428 50.66L14.4273 57.2966L4.5967 52.9828L8.06503 45.24C11.4119 37.8291 20.1379 34.4001 27.7263 37.7185L28.8419 38.1609C33.3154 40.1519 38.4516 40.1519 42.9251 38.1609L48.7351 35.6169C51.0768 34.6214 53.4295 36.3911 53.4295 38.6034C53.4295 39.8201 52.7558 41.0368 51.5297 41.5899H51.5076Z" fill="#264039"/>
</g>
<defs>
<clipPath id="clip0_3449_124">
<rect width="60" height="59" fill="white"/>
</clipPath>
</defs>
</svg>
