<svg width="63" height="61" viewBox="0 0 63 61" fill="none" xmlns="http://www.w3.org/2000/svg">
<g clip-path="url(#clip0_3449_74)">
<path d="M47.9014 2.03223C48.4309 2.03223 48.8652 2.45342 48.8652 2.97992C48.8652 3.50642 48.4309 3.92762 47.9014 3.92762C47.3718 3.92762 46.9375 3.50642 46.9375 2.97992C46.9375 2.45342 47.3718 2.03223 47.9014 2.03223Z" fill="#264039"/>
<path d="M16.4014 1.39014C16.9309 1.39014 17.3652 1.81133 17.3652 2.33783C17.3652 2.86433 16.9309 3.28553 16.4014 3.28553C15.8718 3.28553 15.4375 2.86433 15.4375 2.33783C15.4375 1.81133 15.8718 1.39014 16.4014 1.39014Z" fill="#264039"/>
<path d="M1.72167 10.667C2.25126 10.667 2.68552 11.0882 2.68552 11.6147C2.68552 12.1412 2.25126 12.5624 1.72167 12.5624C1.19208 12.5624 0.757812 12.1412 0.757812 11.6147C0.757812 11.0882 1.19208 10.667 1.72167 10.667Z" fill="#264039"/>
<path d="M58.3953 51.7337C59.571 50.7861 60.3231 49.2066 60.3231 47.6271V17.722C60.3231 14.7736 57.8552 12.2464 54.7518 12.2464H46.2889L45.8547 7.61326C45.8547 7.29736 45.5369 6.98146 45.2086 6.98146C37.0635 6.77086 31.4922 0.347594 31.4922 0.242295C31.2804 -0.0736035 30.7402 -0.0736035 30.4224 0.242295C30.3165 0.347594 24.8511 6.87616 16.706 6.98146C16.3883 6.98146 16.0599 7.29736 16.0599 7.61326L15.6363 12.2464H8.2432C5.24572 12.2464 2.67191 14.6683 2.67191 17.722V47.6271C2.67191 49.3119 3.42393 50.7861 4.59962 51.7337C2.02581 51.7337 -0.0078125 53.8397 -0.0078125 56.3669C-0.0078125 58.8941 2.13173 61.0001 4.70554 61.0001H58.2788C60.8526 61.0001 62.9922 58.8941 62.9922 56.3669C62.9922 53.8397 60.9586 51.7337 58.3848 51.7337H58.3953ZM54.3281 18.1327V47.4059H8.78338V18.1327H15.3185C15.5304 22.7659 17.9982 27.0831 21.7477 29.8209L30.6448 36.1389C30.6448 36.2442 30.8567 36.2442 30.9626 36.2442C31.0685 36.2442 31.2803 36.2442 31.3863 36.1389L40.2834 29.8209C44.1388 27.0831 46.5008 22.7659 46.7126 18.1327H54.3175H54.3281ZM30.9732 1.61119C32.5831 3.29598 37.5083 7.82386 44.5836 8.24506L45.3357 15.9319C45.7699 20.9863 43.5139 25.8301 39.4466 28.6732L30.9838 34.7805L22.5209 28.7785C18.5596 25.9354 16.1976 21.0916 16.6319 16.0372L17.3839 8.35036C24.4592 7.92916 29.3844 3.29598 30.9944 1.61119H30.9732ZM4.07003 47.6165V17.7115C4.07003 15.3949 5.99774 13.6048 8.25379 13.6048H15.5409C15.3291 15.7108 15.3291 16.0267 15.2232 16.8691H8.04195C7.7242 16.8691 7.39585 17.185 7.39585 17.5009V48.143C7.39585 48.4589 7.71361 48.7748 8.04195 48.7748H54.9742C55.292 48.7748 55.6203 48.4589 55.6203 48.143V17.5009C55.6203 17.185 55.3025 16.8691 54.9742 16.8691H46.7232C46.7232 16.0267 46.6173 15.7108 46.4054 13.6048H54.7624C57.1243 13.6048 58.9461 15.5002 58.9461 17.7115V47.6165C58.9461 49.9331 57.0184 51.7232 54.7624 51.7232H38.1544C37.8367 51.7232 37.5083 52.0391 37.5083 52.355V54.3557H25.5078V52.355C25.5078 52.0391 25.1901 51.7232 24.8617 51.7232H8.25379C5.89182 51.7232 4.07003 49.8278 4.07003 47.6165ZM47.5811 52.9973H53.5761V54.3662H47.5811V52.9973ZM9.42948 52.9973H15.4244V54.3662H9.42948V52.9973ZM58.2894 59.6312H4.71613C2.89434 59.6312 1.3903 58.157 1.3903 56.3669C1.3903 54.5768 2.89434 53.1026 4.71613 53.1026H8.04195V55.1033C8.04195 55.4192 8.35971 55.7351 8.68805 55.7351H16.0811C16.3989 55.7351 16.7272 55.4192 16.7272 55.1033V53.1026H24.1203V55.1033C24.1203 55.4192 24.4381 55.7351 24.7664 55.7351H38.1544C38.4722 55.7351 38.8005 55.4192 38.8005 55.1033V53.1026H46.1936V55.1033C46.1936 55.4192 46.5114 55.7351 46.8397 55.7351H54.2328C54.5505 55.7351 54.8789 55.4192 54.8789 55.1033V53.1026H58.2047C60.0265 53.1026 61.5305 54.5768 61.5305 56.3669C61.6364 58.157 60.1324 59.6312 58.3106 59.6312H58.2894Z" fill="#264039"/>
<path d="M24.0039 26.8727L30.539 31.5059C30.6449 31.6112 30.7509 31.6112 30.9733 31.6112C31.0792 31.6112 31.291 31.6112 31.397 31.5059L37.9321 26.8727C41.2579 24.4508 43.0797 20.4494 42.7514 16.448C42.7514 16.1321 42.4336 15.8162 41.9994 15.8162C41.6816 15.8162 41.3533 16.1321 41.3533 16.5533C41.671 20.1335 40.0717 23.7137 37.0636 25.8197L30.9521 30.137L24.8406 25.7144C21.8432 23.6084 20.2332 20.0282 20.551 16.448C20.551 16.1321 20.3391 15.8162 19.9049 15.7109C19.5871 15.7109 19.2588 15.9215 19.1529 16.3427C18.8351 20.4494 20.6569 24.4508 23.9721 26.8727H24.0039Z" fill="#264039"/>
<path d="M36.2188 36.8759C36.2188 37.1918 36.5365 37.5077 36.8649 37.5077H44.2579C44.5757 37.5077 44.904 37.1918 44.904 36.8759C44.904 36.56 44.5863 36.2441 44.2579 36.2441H36.8649C36.5471 36.2441 36.2188 36.56 36.2188 36.8759Z" fill="#264039"/>
<path d="M36.2188 39.5088C36.2188 39.8247 36.5365 40.1405 36.8649 40.1405H50.899C51.2167 40.1405 51.5451 39.8247 51.5451 39.5088C51.5451 39.1929 51.2273 38.877 50.899 38.877H36.8649C36.5471 38.877 36.2188 39.1929 36.2188 39.5088Z" fill="#264039"/>
<path d="M50.899 41.5195H36.8649C36.5471 41.5195 36.2188 41.8354 36.2188 42.1513C36.2188 42.4672 36.5365 42.7831 36.8649 42.7831H50.899C51.2167 42.7831 51.5451 42.4672 51.5451 42.1513C51.5451 41.8354 51.3332 41.5195 50.899 41.5195Z" fill="#264039"/>
<path d="M50.899 44.1523H36.8649C36.5471 44.1523 36.2188 44.4682 36.2188 44.7841C36.2188 45.1 36.5365 45.4159 36.8649 45.4159H50.899C51.2167 45.4159 51.5451 45.1 51.5451 44.7841C51.5451 44.4682 51.3332 44.1523 50.899 44.1523Z" fill="#264039"/>
<path d="M56.2547 8.65559C58.5002 8.65559 60.322 6.8655 60.322 4.65421C60.322 2.44292 58.5002 0.652832 56.2547 0.652832C54.0093 0.652832 52.1875 2.44292 52.1875 4.65421C52.1875 6.8655 54.1152 8.65559 56.2547 8.65559ZM56.2547 2.03226C57.7588 2.03226 58.9345 3.19055 58.9345 4.66474C58.9345 6.13894 57.7588 7.29723 56.2547 7.29723C54.7507 7.29723 53.575 6.13894 53.575 4.66474C53.575 3.19055 54.7507 2.03226 56.2547 2.03226Z" fill="#264039"/>
<path d="M8.04457 9.92994C9.86636 9.92994 11.3704 8.45574 11.3704 6.66565C11.3704 4.87556 9.86636 3.40137 8.04457 3.40137C6.22279 3.40137 4.71875 4.87556 4.71875 6.66565C4.71875 8.45574 6.22279 9.92994 8.04457 9.92994ZM8.04457 4.66496C9.11435 4.66496 10.0782 5.50736 10.0782 6.66565C10.0782 7.82395 9.22026 8.66634 8.04457 8.66634C6.9748 8.66634 6.01095 7.82395 6.01095 6.66565C6.01095 5.50736 6.9748 4.66496 8.04457 4.66496Z" fill="#264039"/>
</g>
<defs>
<clipPath id="clip0_3449_74">
<rect width="63" height="61" fill="white"/>
</clipPath>
</defs>
</svg>
